<svg width="27" height="27" viewBox="0 0 27 27" fill="none" xmlns="http://www.w3.org/2000/svg">
<path d="M25.331 23.5008C23.9503 25.8923 20.8923 26.7117 18.5008 25.331C16.1094 23.9503 15.29 20.8923 16.6707 18.5008C18.0514 16.1094 21.1094 15.29 23.5008 16.6707C25.8923 18.0514 26.7117 21.1094 25.331 23.5008Z" fill="#8E8CFF"/>
<path d="M25.331 7.50083C23.9503 9.8923 20.8923 10.7117 18.5008 9.33096C16.1094 7.95025 15.29 4.8923 16.6707 2.50083C18.0514 0.109372 21.1094 -0.710004 23.5008 0.670708C25.8923 2.05142 26.7117 5.10937 25.331 7.50083Z" fill="#8E8CFF"/>
<path d="M9.33096 7.50083C7.95025 9.8923 4.8923 10.7117 2.50083 9.33096C0.109372 7.95025 -0.710004 4.8923 0.670708 2.50083C2.05142 0.109372 5.10937 -0.710004 7.50083 0.670708C9.8923 2.05142 10.7117 5.10937 9.33096 7.50083Z" fill="#8E8CFF"/>
<path d="M9.3294 23.4996C7.94892 25.8906 4.89148 26.7099 2.50042 25.3294C0.109354 23.9489 -0.709885 20.8915 0.670596 18.5004C2.05108 16.1094 5.10852 15.2901 7.49958 16.6706C9.89065 18.0511 10.7099 21.1085 9.3294 23.4996Z" fill="#8E8CFF"/>
</svg>
