<svg width="46" height="42" viewBox="0 0 46 42" fill="none" xmlns="http://www.w3.org/2000/svg">
<path d="M19.1669 21.4478H0C0 37.5183 11.6603 41.125 19.1669 41.125C26.6728 41.125 38.3331 37.5183 38.3331 21.4478H19.1669Z" fill="url(#paint0_linear)"/>
<path d="M38.3331 21.4478C38.3331 29.1218 32.0289 32.5992 19.1669 32.5992C6.30487 32.5992 0 29.1218 0 21.4478H38.3331Z" fill="url(#paint1_linear)"/>
<path d="M19.1669 13.259C29.7534 13.259 38.3331 16.7392 38.3331 21.4477C38.3331 26.1584 29.7526 29.9757 19.1669 29.9757C8.58115 29.9757 0 26.1584 0 21.4477C0 16.7392 8.58115 13.259 19.1669 13.259Z" fill="#E6EBEF"/>
<path d="M19.1683 14.2337C9.2884 14.2337 1.27722 17.4652 1.27722 21.4478C1.27722 25.4325 9.2884 28.664 19.1683 28.664C29.0476 28.664 37.0566 25.4325 37.0566 21.4478C37.0566 17.4652 29.0476 14.2337 19.1683 14.2337Z" fill="url(#paint2_linear)"/>
<path d="M19.1682 16.8585C10.3995 16.8585 3.10993 19.4029 1.57971 22.7609C3.10993 26.116 10.3995 28.664 19.1682 28.664C27.9348 28.664 35.2244 26.116 36.7553 22.7609C35.2244 19.4029 27.937 16.8585 19.1682 16.8585Z" fill="url(#paint3_linear)"/>
<path d="M8.93415 14.2372C8.86371 14.2049 8.11477 14.5017 7.54696 14.6556C7.24149 14.7375 6.87709 14.7972 6.50334 14.91C6.17343 15.0085 5.84496 15.1774 5.49853 15.2888C5.15209 15.4002 4.77762 15.4282 4.44987 15.5418C4.08115 15.6668 3.76131 15.8602 3.4659 15.973C2.93475 16.175 2.30512 16.3209 2.24475 16.4072C2.14484 16.5531 2.40934 16.9088 2.46325 17.3624C2.49703 17.647 2.52075 17.9762 2.5919 18.3111C2.65803 18.6187 2.69037 18.9494 2.7759 19.2541C2.86862 19.5804 3.02459 19.8773 3.12378 20.1504C3.26825 20.5471 3.3969 20.8756 3.51693 21.028C3.63696 21.1818 3.98484 21.2393 4.43046 21.2149C4.70718 21.1998 5.02487 21.0948 5.37706 21.028C5.67246 20.9712 5.98943 20.9072 6.31431 20.8217C6.61977 20.7412 6.91806 20.6183 7.22712 20.5177C7.5369 20.4178 7.83806 20.3042 8.13202 20.1914C8.44612 20.0706 8.75015 19.9657 9.02399 19.8377C9.34815 19.6854 9.65649 19.5704 9.88793 19.4209C10.2624 19.1794 10.5161 18.9501 10.5226 18.7539C10.5276 18.5727 10.4363 18.2313 10.307 17.8224C10.2207 17.5471 10.1122 17.2387 9.98999 16.9239C9.87427 16.6307 9.68237 16.3568 9.55227 16.0708C9.41068 15.7596 9.35749 15.4232 9.21734 15.1723C8.99309 14.7734 9.0858 14.307 8.93415 14.2372Z" fill="url(#paint4_linear)"/>
<path opacity="0.4" d="M6.53626 18.2637C6.85323 18.8631 7.55832 18.6223 7.91698 18.3032C8.28282 17.9783 6.31632 17.8461 6.53626 18.2637Z" fill="#1F2420"/>
<path opacity="0.4" d="M6.94099 17.4961C7.54689 17.6456 7.63889 17.2122 7.52605 16.8974C7.41321 16.5768 6.51836 17.3919 6.94099 17.4961Z" fill="#1F2420"/>
<path opacity="0.4" d="M4.46844 17.3753C5.07506 17.5248 5.16778 17.0921 5.05566 16.7773C4.94209 16.4567 4.04581 17.2718 4.46844 17.3753Z" fill="#1F2420"/>
<path opacity="0.4" d="M4.84805 17.9209C4.30755 18.1293 4.65759 18.5052 5.02918 18.6835C5.40796 18.8653 5.22396 17.7757 4.84805 17.9209Z" fill="#1F2420"/>
<path opacity="0.4" d="M7.98031 16.6631C8.29585 17.2618 9.00381 17.0218 9.36103 16.7019C9.72472 16.3749 7.75822 16.2448 7.98031 16.6631Z" fill="#1F2420"/>
<path opacity="0.4" d="M9.14193 17.7606C9.74712 17.9087 9.83912 17.476 9.72843 17.1619C9.61415 16.8413 8.71859 17.6564 9.14193 17.7606Z" fill="#1F2420"/>
<path opacity="0.4" d="M8.26858 17.4897C7.73096 17.6981 8.07955 18.0733 8.45115 18.253C8.82993 18.4355 8.64449 17.3438 8.26858 17.4897Z" fill="#1F2420"/>
<path opacity="0.4" d="M8.04428 14.7864C8.24841 15.176 8.70625 15.0193 8.93913 14.8115C9.17703 14.601 7.90054 14.5161 8.04428 14.7864Z" fill="#1F2420"/>
<path opacity="0.4" d="M7.92157 16.0981C8.31328 16.1944 8.37294 15.9127 8.29891 15.7086C8.2256 15.5009 7.647 16.0306 7.92157 16.0981Z" fill="#1F2420"/>
<path opacity="0.4" d="M5.6408 16.8104C6.03323 16.9075 6.09145 16.6257 6.01886 16.4223C5.94626 16.2139 5.36623 16.7436 5.6408 16.8104Z" fill="#1F2420"/>
<path opacity="0.4" d="M2.90815 17.371C3.29915 17.4673 3.35881 17.1863 3.28693 16.9822C3.21218 16.7737 2.63287 17.3035 2.90815 17.371Z" fill="#1F2420"/>
<path opacity="0.4" d="M3.84334 18.6468C4.23721 18.7432 4.29543 18.4628 4.22284 18.2573C4.14809 18.0496 3.5695 18.5793 3.84334 18.6468Z" fill="#1F2420"/>
<path opacity="0.4" d="M7.44707 17.8849C7.83951 17.9812 7.89844 17.7009 7.82585 17.4961C7.7511 17.2876 7.17251 17.8181 7.44707 17.8849Z" fill="#1F2420"/>
<path opacity="0.4" d="M7.37813 16.6436C7.772 16.7399 7.83022 16.4589 7.75763 16.2548C7.68431 16.0463 7.10428 16.5761 7.37813 16.6436Z" fill="#1F2420"/>
<path opacity="0.4" d="M8.75989 15.4124C8.41129 15.5475 8.63698 15.7912 8.87704 15.9076C9.12429 16.0248 9.00426 15.3183 8.75989 15.4124Z" fill="#1F2420"/>
<path opacity="0.4" d="M6.22803 15.7711C5.87943 15.9055 6.10512 16.1484 6.34518 16.2656C6.59171 16.3827 6.47312 15.6755 6.22803 15.7711Z" fill="#1F2420"/>
<path opacity="0.4" d="M5.88076 18.1868C5.53145 18.322 5.75857 18.5649 6.00007 18.682C6.24516 18.7992 6.12585 18.092 5.88076 18.1868Z" fill="#1F2420"/>
<path opacity="0.4" d="M7.90464 15.3679C7.58911 14.7684 6.88042 15.0085 6.52464 15.3283C6.15808 15.6539 8.12674 15.7855 7.90464 15.3679Z" fill="#1F2420"/>
<path opacity="0.4" d="M6.04607 15.3815C5.44016 15.232 5.34744 15.6662 5.45957 15.981C5.57313 16.3008 6.46726 15.485 6.04607 15.3815Z" fill="#1F2420"/>
<path opacity="0.4" d="M7.20984 15.8717C6.60465 15.7222 6.51122 16.1563 6.62406 16.4704C6.7369 16.7917 7.63247 15.9759 7.20984 15.8717Z" fill="#1F2420"/>
<path opacity="0.4" d="M4.92634 16.5854C5.46612 16.3777 5.11537 16.0011 4.74449 15.8228C4.36571 15.641 4.54971 16.7313 4.92634 16.5854Z" fill="#1F2420"/>
<path opacity="0.4" d="M4.38447 17.7405C4.06965 17.1425 3.36025 17.3825 3.00303 17.7024C2.63934 18.0287 4.60512 18.1602 4.38447 17.7405Z" fill="#1F2420"/>
<path opacity="0.4" d="M3.22145 16.3971C2.61626 16.2491 2.52498 16.6818 2.63638 16.9966C2.74995 17.3164 3.64479 16.5006 3.22145 16.3971Z" fill="#1F2420"/>
<path opacity="0.4" d="M3.83384 17.1662C4.37218 16.957 4.02287 16.5818 3.64984 16.4029C3.27178 16.2203 3.45722 17.3107 3.83384 17.1662Z" fill="#1F2420"/>
<path opacity="0.4" d="M6.13877 17.7311C6.70227 17.7893 6.61961 17.2934 6.41045 16.9627C6.19555 16.6256 5.74489 17.6908 6.13877 17.7311Z" fill="#1F2420"/>
<path opacity="0.4" d="M4.37578 19.252C4.17237 18.8632 3.71381 19.0199 3.48165 19.2269C3.24447 19.4382 4.51953 19.523 4.37578 19.252Z" fill="#1F2420"/>
<path opacity="0.4" d="M3.34529 18.4492C2.95357 18.3528 2.89319 18.6346 2.96579 18.8394C3.03982 19.0472 3.61985 18.5174 3.34529 18.4492Z" fill="#1F2420"/>
<path opacity="0.4" d="M5.5201 17.6844C5.86798 17.5493 5.64085 17.3056 5.40079 17.1899C5.15426 17.0706 5.27501 17.7793 5.5201 17.6844Z" fill="#1F2420"/>
<path d="M13.8812 1.55781C13.3688 1.57075 13.3645 2.43253 13.8791 2.44044C45.9677 2.95937 45.9964 2.95866 45.9964 2.95866L46 0.875C46 0.875 46 0.875 13.8812 1.55781Z" fill="#302C3B"/>
<path d="M45.1655 0.893005L45.1705 2.94575L41.1649 2.88107L41.208 0.977099L45.1655 0.893005Z" fill="#E81C27"/>
<path opacity="0.3" d="M45.9994 1.07556L45.9987 1.77706L13.8806 1.55784L45.9994 1.07556Z" fill="white"/>
<path d="M27.2378 22.8421C27.0207 22.8421 26.8065 22.8335 26.6024 22.8155C26.2215 22.7832 25.5272 22.6265 25.3468 22.2413C25.2936 22.1263 25.2648 21.9423 25.433 21.7137C25.9584 21.0014 27.3959 20.7628 28.4331 20.6456C28.5394 20.6327 28.6911 20.6248 28.8658 20.6147C29.4616 20.5809 30.5714 20.5177 30.6749 20.1576C30.6907 20.103 30.6813 20.0555 30.6461 20.011C30.4362 19.7371 29.4523 19.625 28.883 19.6185C28.6063 19.6135 28.464 19.4381 28.4661 19.2678C28.4676 19.1032 28.6077 18.9357 28.8751 18.9357C29.5457 18.9472 30.4944 19.0112 31.0953 19.4396C31.3512 19.6236 31.5122 19.8586 31.5388 20.0872C31.5575 20.2525 31.5043 20.4113 31.3864 20.5464C31.0529 20.9216 30.4283 21.1502 29.532 21.2242C29.3955 21.2357 29.256 21.2458 29.1123 21.2566C28.4223 21.3098 27.6381 21.3701 26.997 21.5319C26.5291 21.6504 26.2452 21.8661 26.2495 21.9976C26.2517 22.0795 26.3947 22.1572 26.624 22.1989C26.8137 22.2348 27.0272 22.2513 27.2608 22.2513C28.5107 22.2513 30.1149 21.7597 31.4037 21.3658L31.7429 21.2623C31.9981 21.1847 32.2317 21.3141 32.2654 21.5311C32.287 21.6734 32.2072 21.8481 31.9794 21.9164C30.6871 22.3081 28.9204 22.8421 27.2378 22.8421Z" fill="#FFE485"/>
<path d="M11.8824 26.1785C11.6683 26.1785 11.4577 26.1692 11.2557 26.1527C10.8719 26.1175 10.1754 25.9579 9.99717 25.5726C9.94326 25.4584 9.91595 25.2751 10.0841 25.048C10.6067 24.3414 12.0456 24.0992 13.0828 23.9792C13.1899 23.9662 13.3422 23.9583 13.5183 23.9483C14.1142 23.9145 15.2225 23.8534 15.3274 23.494C15.3425 23.4387 15.3332 23.3912 15.2972 23.346C15.0874 23.0728 14.1278 22.9614 13.5334 22.9521C13.2567 22.9478 13.1144 22.7738 13.1158 22.6049C13.1173 22.4396 13.2596 22.2714 13.5269 22.2714C14.567 22.2844 15.2893 22.4497 15.7464 22.7745C16.0016 22.9585 16.1626 23.1936 16.1899 23.42C16.2093 23.5853 16.1561 23.7449 16.0368 23.8807C15.704 24.2566 15.0802 24.4859 14.1832 24.5606C14.0495 24.5714 13.9144 24.5815 13.7764 24.5923C13.0813 24.6433 12.2943 24.703 11.6481 24.8675C11.1817 24.9847 10.8963 25.201 10.9014 25.3333C10.9042 25.4145 11.0465 25.4921 11.2751 25.5338C11.4649 25.569 11.6783 25.5856 11.9119 25.5856C13.1539 25.5856 14.7503 25.1004 16.0339 24.7087L16.3962 24.5987C16.647 24.5225 16.8828 24.649 16.9166 24.8647C16.9381 25.007 16.8584 25.1824 16.6319 25.2506C15.0162 25.7401 13.4385 26.1785 11.8824 26.1785Z" fill="#FFE485"/>
<path d="M13.1373 21.897C12.5536 21.897 11.5201 21.8237 11.1557 21.3342C10.9997 21.1258 10.9889 20.8735 11.1226 20.586C12.0778 18.5325 17.4332 18.2321 19.7203 18.1034C20.9609 18.0344 22.1849 17.9992 23.3586 17.9992C26.5003 17.9992 30.7229 18.2601 32.9985 19.5007C33.7144 19.891 34.0328 20.2834 33.9465 20.6665C33.8272 21.189 32.9791 21.4837 32.4386 21.5541C32.0842 21.5922 31.8902 21.4118 31.8693 21.2393C31.8542 21.1128 31.9326 20.9468 32.2093 20.8915C32.6585 20.8023 32.9151 20.678 32.9173 20.5493C32.9209 20.1583 31.1563 19.5251 30.4095 19.3634C28.3331 18.9099 25.9864 18.6791 23.4312 18.6791L23.1121 18.6806C20.4592 18.7 17.6561 18.7985 15.1318 19.3799C14.3182 19.5675 13.2041 19.8212 12.5019 20.2841C12.1289 20.5285 11.9557 20.7491 12.0132 20.9058C12.0908 21.1186 12.5925 21.2623 13.2587 21.2623C14.0695 21.2623 14.9327 21.0589 15.5127 20.7319C15.6551 20.6521 15.801 20.6356 15.9001 20.6356C16.1186 20.6356 16.2976 20.7146 16.3551 20.839C16.3817 20.8936 16.4047 21.0036 16.2696 21.1272C15.7269 21.6275 14.2506 21.897 13.1373 21.897Z" fill="#FFE485"/>
<path d="M13.8482 20.4732H13.8382C13.1776 20.4638 12.231 20.4006 11.628 19.9701C11.3736 19.7882 11.2119 19.5525 11.1853 19.3253C11.1666 19.16 11.219 18.999 11.3391 18.8625C11.6697 18.488 12.2921 18.2602 13.1906 18.1847C13.3257 18.1739 13.4637 18.1638 13.6031 18.1523C14.296 18.0999 15.0809 18.0402 15.7256 17.8771C16.1928 17.7599 16.4774 17.5436 16.4731 17.4113C16.471 17.3294 16.3279 17.251 16.0986 17.2079C15.911 17.1734 15.6983 17.1569 15.4661 17.1569C14.2134 17.1569 12.6034 17.6507 11.3089 18.046L10.9804 18.1466C10.7253 18.2235 10.4924 18.0956 10.4586 17.8792C10.437 17.7362 10.5161 17.5615 10.7432 17.4918C12.0355 17.1015 13.8037 16.5675 15.4855 16.5675C15.7012 16.5675 15.9146 16.5768 16.1188 16.5934C16.4997 16.6264 17.1947 16.7846 17.3751 17.1698C17.429 17.2841 17.4564 17.4681 17.2889 17.6959C16.7692 18.4032 15.3281 18.6454 14.2903 18.7669C14.1839 18.7791 14.0351 18.787 13.8619 18.7956C13.2639 18.8294 12.1491 18.8898 12.047 19.2528C12.032 19.3081 12.0406 19.3548 12.0751 19.4001C12.285 19.6732 13.2452 19.7853 13.8403 19.7933C14.1156 19.7968 14.2594 19.9701 14.2579 20.1397C14.2586 20.3057 14.1163 20.4732 13.8482 20.4732Z" fill="#FFE485"/>
<path d="M26.641 20.7298C26.0013 21.1905 24.9786 21.4457 24.2311 21.634C21.9217 22.214 19.3579 22.3132 16.9314 22.334L16.6368 22.3355C14.3008 22.3355 12.1532 22.1047 10.2528 21.6519C9.57073 21.4888 7.9557 20.8556 7.95929 20.466C7.96073 20.3366 8.19648 20.2116 8.6076 20.1217C8.8606 20.0657 8.93248 19.8996 8.9181 19.7746C8.89798 19.6035 8.70319 19.4181 8.39701 19.4619C7.90251 19.5323 7.12698 19.8256 7.01701 20.3474C6.93723 20.7312 7.22904 21.1244 7.88382 21.5139C9.96532 22.7552 13.8279 23.0147 16.7014 23.0147C16.7022 23.0147 16.7022 23.0147 16.7022 23.0147C17.7781 23.0147 18.8994 22.9795 20.0357 22.9105C23.2902 22.7121 27.1269 22.2506 27.9046 20.4272C27.9484 20.3258 26.9242 20.5271 26.641 20.7298Z" fill="#FFE485"/>
<path d="M31.5144 26.3733C31.1342 26.3733 30.8107 26.2684 30.6289 26.0858C30.5009 25.9586 30.4391 25.7983 30.4434 25.6079C30.4629 24.818 31.4059 24.271 32.1131 23.9289C32.1864 23.8929 32.2949 23.852 32.4207 23.8031C32.8541 23.6349 33.5808 23.3524 33.4773 23.0153C33.4212 22.8342 33.2013 22.7429 32.8211 22.7429C32.4674 22.7429 32.0635 22.8285 31.8802 22.8795C31.8436 22.8903 31.8076 22.8946 31.7724 22.8946C31.5489 22.8946 31.3872 22.7142 31.362 22.5489C31.3426 22.4022 31.4245 22.2851 31.5769 22.2434C32.3683 22.0249 32.9663 22.022 33.4622 22.2233C33.874 22.39 34.2679 22.7444 34.2183 23.1569C34.1687 23.5925 33.8201 23.9511 33.1869 24.2243C33.0913 24.2652 32.9936 24.3062 32.8951 24.3479C32.397 24.5563 31.8817 24.7727 31.5014 25.0587C31.2341 25.2607 31.1572 25.4842 31.1996 25.6057C31.2463 25.7408 31.4346 25.7617 31.5424 25.7617C31.5625 25.7617 31.5834 25.761 31.6049 25.7595C32.6479 25.6999 33.7993 24.6922 34.6409 23.9555L34.8408 23.7801C34.8997 23.7298 34.9709 23.7032 35.0456 23.7032C35.2001 23.7032 35.3619 23.8218 35.4222 23.9785C35.4711 24.1078 35.4424 24.2358 35.3432 24.3227C34.4871 25.0645 33.3134 26.0822 31.8515 26.3446C31.7451 26.3633 31.6294 26.3733 31.5144 26.3733Z" fill="#FFE485"/>
<path d="M18.223 28.6281C18.1985 28.6281 18.1748 28.6273 18.1504 28.6266C17.9427 28.6166 17.8471 28.4685 17.8471 28.3348C17.8478 28.1767 17.975 28.0049 18.2057 27.9956C18.4472 27.9848 18.7448 27.9359 18.7901 27.7613C18.8871 27.4026 18.0533 26.6472 17.6616 26.41C16.4671 25.6812 15.0073 25.1263 13.3225 24.7598C11.944 24.4572 10.4576 24.1769 8.93313 24.1769C8.6291 24.1769 8.32866 24.1884 8.03829 24.2114C7.45466 24.2552 6.65541 24.3163 6.05023 24.6153C5.66066 24.8065 5.46157 25.0113 5.50182 25.1802C5.55501 25.398 6.01429 25.6237 6.68991 25.6237C7.05288 25.6237 7.40722 25.5554 7.71772 25.4289C7.93982 25.3362 8.20001 25.4189 8.25607 25.5921C8.29129 25.7028 8.23882 25.8185 8.11519 25.9026C7.81979 26.1024 7.31738 26.2174 6.73735 26.2174C5.95247 26.2174 5.0526 25.9974 4.81254 25.5051C4.72629 25.3297 4.69035 25.0394 5.00588 24.657C5.64269 23.8836 6.84085 23.4919 8.56513 23.4919C9.68925 23.4919 10.8213 23.6615 11.3639 23.7427C13.7394 24.0942 17.924 24.9732 19.2594 26.9124C19.6346 27.4558 19.5735 27.8274 19.4549 28.0444C19.2378 28.4455 18.665 28.6281 18.223 28.6281Z" fill="#FFE485"/>
<path d="M17.618 21.3981C17.232 21.3981 16.8454 21.3866 16.4666 21.3651C16.4199 21.3622 16.3501 21.36 16.2646 21.3564C15.5552 21.3342 13.892 21.2803 13.5175 20.6736C13.4112 20.5004 13.4119 20.2992 13.5211 20.0792C13.7892 19.538 14.531 19.2857 15.8564 19.2857C16.5593 19.2857 17.3327 19.354 18.0809 19.4201C18.7529 19.4783 19.3861 19.5344 19.9036 19.5344C20.2386 19.5344 21.9097 19.4906 21.9097 18.6331C21.9097 18.3183 21.1579 18.0315 19.9935 17.9029L19.9094 17.8935C19.4925 17.8475 18.9204 17.7835 18.3727 17.7835C17.82 17.7835 17.3966 17.8497 17.1142 17.9805C17.0143 18.0265 17.0013 18.0559 17.0013 18.0567C17.0646 18.2011 18.1945 18.4383 19.5637 18.4383C19.688 18.4383 19.7937 18.4743 19.8713 18.5404C19.9453 18.6043 19.9877 18.692 19.9877 18.784C19.9877 18.9508 19.8418 19.1211 19.5637 19.1211H19.3797C18.0622 19.1211 16.4989 19.0363 16.1007 18.3657C16.003 18.2054 15.9857 18.048 16.049 17.8971C16.1884 17.5564 16.6908 17.3753 16.9783 17.2977C17.3636 17.1927 17.9961 17.1338 18.7134 17.1338C20.2256 17.1338 22.1821 17.3925 22.719 18.1221C22.867 18.3226 22.9008 18.5461 22.8189 18.7848C22.4926 19.7393 21.4597 20.2028 19.6643 20.2028C19.021 20.2028 18.2742 20.1453 17.3823 20.0275C16.9237 19.9671 16.4766 19.9369 16.0533 19.9369C14.8659 19.9369 14.3154 20.1719 14.2967 20.292C14.2924 20.3222 14.3578 20.4228 14.7164 20.5328C15.1707 20.6708 15.9951 20.7477 17.0394 20.7477C17.5483 20.7477 18.0795 20.729 18.5768 20.6952C20.8359 20.5392 22.8785 20.1223 24.6524 19.4553C24.9212 19.3519 25.2418 19.5021 25.2835 19.7278C25.305 19.8363 25.2576 19.9815 25.0578 20.0562C22.7226 20.9338 20.1494 21.3981 17.618 21.3981Z" fill="#FFDA54"/>
<path d="M27.0567 27.6657C25.8967 27.6657 25.1499 27.2797 24.9537 26.5782C24.8042 26.0406 24.8602 25.5834 25.1183 25.2198C25.5574 24.6038 26.5651 24.2444 28.2887 24.092C29.6665 23.9663 30.3644 23.4703 30.368 23.2274C30.3694 23.1095 30.189 23.0168 29.885 22.9808C29.1598 22.8975 27.8632 23.2604 26.9762 23.622C25.4165 24.2573 24.1573 25.1242 23.2351 26.1951C23.1755 26.2648 23.0928 26.3022 22.9972 26.3022C22.8262 26.3022 22.6414 26.1822 22.5645 26.0233C22.5106 25.909 22.525 25.7912 22.6033 25.6992C24.0092 24.0626 25.9966 22.9212 28.201 22.4892C28.2391 22.482 28.293 22.4698 28.3605 22.454C28.6452 22.3872 29.1763 22.2628 29.6866 22.2628C30.6979 22.2628 30.9969 22.7552 31.0688 23.1663C31.1155 23.4373 31.0623 23.6773 30.9114 23.8822C30.46 24.4953 29.2353 24.6814 28.0522 24.8618C27.5275 24.9409 27.0323 25.0163 26.6557 25.1256C26.4163 25.1946 25.8392 25.398 25.6623 25.807C25.5761 26.0068 25.5991 26.2332 25.7328 26.479C25.9247 26.8355 26.5148 26.9095 26.9755 26.9095C27.2148 26.9095 27.4312 26.8894 27.5699 26.8729L27.6317 26.865C28.2527 26.7924 29.2906 26.6709 29.6033 26.2052C29.6248 26.1721 29.6485 26.1283 29.632 26.1002C29.6004 26.0413 29.4243 25.973 29.0347 25.973C28.5913 25.973 28.0105 26.0607 27.5225 26.2023C27.4887 26.2116 27.4549 26.2167 27.4211 26.2167C27.1904 26.2167 27.0071 26.0125 26.9798 25.8221C26.9583 25.669 27.038 25.5475 27.1904 25.5044L27.2529 25.4871C27.6547 25.37 28.3275 25.1759 28.9751 25.1759C29.4926 25.1759 29.8936 25.3038 30.1668 25.5561C30.3673 25.7401 30.4665 25.9443 30.4622 26.162C30.4557 26.484 30.2235 26.7291 30.0863 26.8463C29.6198 27.2438 28.2915 27.6657 27.0567 27.6657Z" fill="#FFDA54"/>
<path d="M6.98144 24.1028C6.94407 24.1028 6.90669 24.0985 6.86644 24.0906C6.22676 23.9598 5.32544 23.7262 4.88413 23.2001C4.70804 22.988 4.6261 22.7437 4.65772 22.5287C4.6836 22.3483 4.78782 22.1909 4.96032 22.0745C5.39947 21.7712 6.06719 21.6612 6.97282 21.7518C7.10291 21.7647 7.23732 21.7798 7.37388 21.7949C8.0955 21.8718 8.85091 21.9545 9.53444 21.9099C10.0886 21.8768 10.4113 21.6914 10.4322 21.5707C10.4444 21.4995 10.333 21.4075 10.1432 21.3335C9.6861 21.1509 9.04929 21.0632 8.19541 21.0632C7.22438 21.0632 6.17572 21.1761 5.24997 21.2767L4.8676 21.3177C4.59088 21.345 4.44785 21.1804 4.43779 21.0258C4.42772 20.8569 4.56069 20.6701 4.8331 20.6392C5.83072 20.5342 6.8075 20.4401 7.79938 20.4401C8.79341 20.4401 9.625 20.5378 10.3423 20.7383C10.8045 20.8677 11.3018 21.1523 11.3759 21.4973C11.4025 21.626 11.3816 21.8222 11.1301 22.0249C10.6844 22.3807 9.93335 22.5525 8.83438 22.5525C8.54832 22.5525 8.24357 22.5402 7.87557 22.5165C7.76775 22.5079 7.6161 22.4892 7.44144 22.4677C7.10938 22.4252 6.69538 22.3728 6.32738 22.3728C5.89182 22.3728 5.62229 22.4475 5.52454 22.5927C5.4886 22.6473 5.48213 22.6969 5.50441 22.7494C5.63091 23.0419 6.5315 23.3223 7.07057 23.4286C7.31063 23.4768 7.40191 23.6435 7.38754 23.7858C7.36885 23.944 7.22438 24.1028 6.98144 24.1028Z" fill="#FFDA54"/>
<path d="M19.6182 25.3233C19.5823 25.3233 19.5442 25.3197 19.5047 25.3103C18.8643 25.181 17.963 24.9474 17.5209 24.4205C17.3456 24.2092 17.2636 23.9634 17.2938 23.7485C17.3204 23.5695 17.4246 23.4121 17.5978 23.2942C18.037 22.9924 18.7047 22.8824 19.6103 22.973C19.7412 22.9859 19.8756 22.9996 20.0121 23.0154C20.7323 23.0916 21.487 23.1749 22.1712 23.1311C22.7254 23.0973 23.0488 22.9126 23.0682 22.7911C23.0819 22.72 22.9705 22.6287 22.7807 22.5539C22.3236 22.3721 21.6868 22.283 20.8322 22.283C19.8612 22.283 18.8132 22.3965 17.8875 22.4971L17.5058 22.5388C17.227 22.5654 17.0847 22.4008 17.0753 22.247C17.0645 22.0781 17.1975 21.8898 17.4713 21.8603C18.4683 21.7547 19.4443 21.6605 20.4376 21.6605C21.4302 21.6605 22.2618 21.7583 22.9798 21.9588C23.4413 22.0889 23.9401 22.3735 24.0127 22.7171C24.04 22.8472 24.0199 23.0434 23.7669 23.2454C23.3227 23.6004 22.5709 23.7729 21.4719 23.7729C21.1858 23.7729 20.8811 23.76 20.5131 23.7363C20.406 23.7291 20.2536 23.7104 20.0797 23.6881C19.7462 23.6457 19.3322 23.5932 18.9656 23.5932C18.5293 23.5932 18.2591 23.6673 18.1613 23.8132C18.1254 23.8685 18.1189 23.9174 18.1419 23.9699C18.2692 24.2624 19.1697 24.542 19.7088 24.6491C19.9482 24.6972 20.0394 24.864 20.0243 25.0056C20.0064 25.163 19.8612 25.3233 19.6182 25.3233Z" fill="#FFDA54"/>
<path d="M17.4759 27.4738C16.1203 27.4738 14.792 27.3329 13.558 27.1819C10.9101 26.8599 4.50817 25.8695 2.23477 23.6364C1.75968 23.1692 1.59293 22.7573 1.74027 22.4102C1.94799 21.9221 2.77239 21.7058 3.39052 21.7381C3.66939 21.7504 3.81314 21.9236 3.81242 22.0896C3.81099 22.2434 3.68233 22.4109 3.40274 22.4195C2.94202 22.4339 2.67033 22.5216 2.64086 22.6653C2.55749 23.057 3.86633 23.9246 4.46577 24.1999C6.22958 25.0142 8.33192 25.6409 10.7124 26.0643C12.6832 26.4107 14.7992 26.7342 16.8958 26.7342C17.2811 26.7342 17.6599 26.7227 18.025 26.7004C18.8127 26.6529 19.8901 26.5875 20.6664 26.2555C21.1134 26.0657 21.3492 25.8573 21.3118 25.6862C21.2522 25.4102 20.5183 25.1148 19.52 25.1148C19.0269 25.1148 18.5576 25.1888 18.1623 25.329C17.8697 25.4332 17.506 25.3175 17.4464 25.1155C17.4313 25.0631 17.4162 24.9272 17.6024 24.8137C17.9574 24.5988 18.6021 24.4744 19.3712 24.4744C20.5119 24.4744 21.8775 24.7583 22.1801 25.3793C22.2634 25.5547 22.3023 25.8393 21.9997 26.2016C21.2938 27.0447 19.7715 27.4738 17.4759 27.4738Z" fill="#FFDA54"/>
<path d="M16.8049 19.8536C16.7704 19.8536 16.7359 19.8485 16.7007 19.8392C16.4966 19.7802 16.378 19.5682 16.4348 19.3612C17.51 15.5015 16.9889 13.5127 16.3845 11.2106C15.7764 8.8919 15.0871 6.26415 15.8519 1.26381C15.8842 1.05322 16.079 0.908033 16.2889 0.941095C16.498 0.973439 16.6418 1.17109 16.6094 1.38241C15.8691 6.22319 16.5361 8.76684 17.1255 11.0122C17.7321 13.3237 18.3057 15.5073 17.1729 19.5711C17.1262 19.7421 16.9724 19.8536 16.8049 19.8536Z" fill="#FFE485"/>
<path d="M17.9718 19.8536C17.9466 19.8536 17.9215 19.8514 17.8956 19.8457C17.6879 19.8026 17.5542 19.5984 17.5966 19.3893C18.6898 13.9519 17.9013 11.0453 17.2056 8.48081C16.5889 6.20741 16.0563 4.24522 17.0338 1.20347C17.0985 1.0015 17.3156 0.888661 17.5168 0.954786C17.7181 1.02091 17.8287 1.23941 17.7633 1.44282C16.857 4.26463 17.3371 6.03491 17.9452 8.27597C18.628 10.7937 19.4776 13.9253 18.3491 19.5438C18.3103 19.7278 18.15 19.8536 17.9718 19.8536Z" fill="#FFDA54"/>
<path d="M19.1648 19.8536C19.1303 19.8536 19.0951 19.8486 19.0606 19.8392C18.8565 19.7803 18.7379 19.5682 18.7954 19.3612C20.2429 14.1654 19.3531 11.1761 18.5682 8.53759C17.9012 6.29581 17.2709 4.17838 18.2261 1.20347C18.2915 1.0015 18.5064 0.888661 18.7091 0.954786C18.9104 1.02091 19.0218 1.23941 18.9556 1.44282C18.073 4.187 18.643 6.09959 19.3028 8.3155C20.1171 11.0554 21.0415 14.1597 19.5328 19.5718C19.4861 19.7422 19.3323 19.8536 19.1648 19.8536Z" fill="#FFDA54"/>
<path d="M20.3579 19.8536C20.3062 19.8536 20.2523 19.8428 20.202 19.8205C20.0079 19.7328 19.9209 19.505 20.0079 19.3088C21.1773 16.6645 20.5153 13.7528 19.8131 10.6687C19.1131 7.59029 18.3907 4.40766 19.4185 1.20348C19.4839 1.00079 19.701 0.888666 19.9015 0.95479C20.1028 1.02092 20.2142 1.23942 20.1481 1.44282C19.1842 4.44216 19.885 7.51913 20.5606 10.4962C21.2909 13.709 21.9809 16.7436 20.7072 19.6243C20.6447 19.7681 20.5046 19.8536 20.3579 19.8536Z" fill="#FFE485"/>
<path d="M34.1176 19.9715C33.9962 20.8836 33.792 21.3314 33.2422 21.864C31.0385 22.104 27.6266 22.3527 25.5415 21.6728C24.8436 20.9102 24.4591 19.9018 24.6222 18.6792C24.7408 17.7922 34.2355 19.0853 34.1176 19.9715Z" fill="url(#paint5_linear)"/>
<path d="M34.1177 19.9715C33.9984 20.857 31.7767 21.2861 29.1562 20.9303C26.5349 20.5723 24.5044 19.5654 24.6223 18.6792C24.7409 17.7922 26.9626 17.3631 29.5838 17.7203C32.2066 18.0776 34.2356 19.0853 34.1177 19.9715Z" fill="#FAF4EB"/>
<path d="M31.2677 19.441C31.1987 19.9542 29.9646 20.2094 28.5085 20.0124C27.0559 19.8148 25.9317 19.2369 26 18.723C26.0683 18.2105 27.3038 17.9547 28.7579 18.1523C30.2126 18.3507 31.336 18.9271 31.2677 19.441Z" fill="url(#paint6_linear)"/>
<path d="M21.2864 27.9043C20.6151 27.9043 20.1824 27.583 20.0681 26.9987C19.6491 24.8791 23.2263 23.4703 24.5725 22.9399C26.171 22.311 29.2544 21.253 31.9519 21.253C32.7964 21.253 33.5482 21.3579 34.1886 21.5642C35.1726 21.879 35.4127 22.3088 35.4414 22.6143C35.481 23.0297 35.1475 23.4064 34.8204 23.5796C34.7644 23.6098 34.704 23.6249 34.64 23.6249C34.4611 23.6249 34.2857 23.5027 34.2339 23.3402C34.193 23.2152 34.2361 23.0951 34.3475 23.0175C34.5056 22.9097 34.6831 22.753 34.6386 22.6121C34.5099 22.214 32.9466 21.9624 32.3213 21.9624C30.6215 21.9624 28.8692 22.2434 27.1003 22.7961C25.3459 23.3431 23.5289 23.9914 22.1374 25.0394C21.691 25.3736 21.0815 25.8307 20.8537 26.3849C20.7394 26.6637 20.7308 26.8873 20.8307 27.0325C20.9234 27.1669 21.1146 27.2395 21.3683 27.2395C21.939 27.2395 22.7562 26.8578 23.0825 26.2404C23.1501 26.1103 23.2924 26.0291 23.4534 26.0291C23.5727 26.0291 23.6834 26.0751 23.7495 26.152C23.807 26.2203 23.8286 26.3087 23.8113 26.4014C23.6777 27.1043 22.3336 27.9043 21.2864 27.9043Z" fill="#FFE485"/>
<path d="M17.8309 21.0453C17.8309 21.0453 17.864 22.5683 19.6472 22.0796L19.7105 21.603C18.1314 21.7238 18.1522 20.7355 17.8309 21.0453Z" fill="#529320"/>
<path d="M27.4735 24.0697C27.4735 24.0697 27.5066 25.5921 29.2905 25.1033L29.3538 24.6268C27.7747 24.7475 27.7955 23.7585 27.4735 24.0697Z" fill="#529320"/>
<path d="M24.0861 26.0262C23.0202 27.2121 22.2145 26.451 22.2339 26.9088C22.2331 26.9088 23.5269 28.0401 24.4354 26.4308L24.0861 26.0262Z" fill="#529320"/>
<path d="M17.0661 26.3892C16.0002 27.5758 15.1944 26.8139 15.2138 27.2718C15.2131 27.2718 16.5069 28.4031 17.4154 26.7938L17.0661 26.3892Z" fill="#529320"/>
<path d="M29.414 22.8961C29.529 21.3687 30.4871 21.7216 30.2334 21.3155C30.2334 21.3141 28.747 20.8311 28.9619 22.6769L29.414 22.8961Z" fill="#529320"/>
<path d="M11.3361 23.3417L10.6375 23.259C10.5599 24.7397 9.09077 24.6707 9.49974 24.9883C9.4983 24.9898 11.7803 25.0329 11.3361 23.3417Z" fill="#529320"/>
<path d="M12.5007 17.7024L11.8013 17.6198C11.7237 19.1004 10.2546 19.0307 10.6628 19.3491C10.6621 19.3505 12.9434 19.3936 12.5007 17.7024Z" fill="#529320"/>
<path d="M4.06799 21.1466L4.51577 21.6476C5.45949 20.642 6.4643 21.621 6.36368 21.1351C6.36512 21.1351 4.76734 19.6617 4.06799 21.1466Z" fill="#529320"/>
<path d="M34.3569 21.143L33.9329 21.4715C35.3617 22.3059 34.5761 23.052 35.0886 23.0038C35.0908 23.0038 36.2487 21.8143 34.3569 21.143Z" fill="#529320"/>
<path opacity="0.6" d="M11.9191 16.566C11.9191 16.566 13.376 14.3099 10.2185 11.0115C6.78365 7.42715 11.9191 6.11471 11.9191 3.7608C11.9191 3.7608 12.755 4.69805 11.582 6.91468C9.91883 10.0513 16.8727 10.5472 11.9191 16.566Z" fill="url(#paint7_linear)"/>
<path opacity="0.6" d="M23.8533 5.58929C23.8533 5.58929 22.7163 7.38257 25.1952 9.97007C27.9042 12.7991 23.8533 13.8334 23.8533 15.6884C23.8533 15.6884 23.1942 14.9503 24.1193 13.2009C25.4245 10.7269 19.9397 10.3294 23.8533 5.58929Z" fill="url(#paint8_linear)"/>
<path opacity="0.6" d="M29.0044 8.01575C29.0044 8.01575 28.0593 9.505 30.1199 11.6548C32.3689 14.0036 29.0044 14.864 29.0044 16.405C29.0044 16.405 28.4567 15.7912 29.2251 14.3379C30.3097 12.283 25.7535 11.9531 29.0044 8.01575Z" fill="url(#paint9_linear)"/>
<path d="M13.5749 2.99749C13.0639 2.97377 13.0043 3.83483 13.516 3.87796C45.4903 6.5093 45.5169 6.51002 45.5169 6.51002L45.6549 4.42852C45.6556 4.42852 45.6556 4.42852 13.5749 2.99749Z" fill="#302C3B"/>
<path d="M44.7881 4.39185L44.6321 6.43741L40.7142 6.11613L40.8501 4.21576L44.7881 4.39185Z" fill="#E81C27"/>
<path opacity="0.3" d="M45.6421 4.62903L45.5954 5.33053L13.5751 2.99603L45.6421 4.62903Z" fill="white"/>
<path d="M18.1838 19.9951C18.1349 19.9951 18.0846 19.9872 18.0372 19.9693C17.8417 19.8931 17.7482 19.6846 17.8287 19.5021C19.415 15.9349 18.5568 13.7327 17.6491 11.4018C16.7355 9.05504 15.7911 6.62854 17.248 2.7667C17.3184 2.58054 17.5362 2.48207 17.7367 2.54892C17.9366 2.6136 18.0415 2.81701 17.9711 3.0046C16.6047 6.62495 17.4622 8.82719 18.37 11.1574C19.2871 13.5149 20.2373 15.9522 18.5374 19.7745C18.4763 19.9125 18.3333 19.9951 18.1838 19.9951Z" fill="#FFE485"/>
<path d="M16.2497 19.3806C16.1979 19.3806 16.144 19.3706 16.0937 19.3519C15.8996 19.2736 15.8127 19.0701 15.8996 18.8955C17.069 16.5459 16.4071 13.9577 15.7048 11.2171C15.0048 8.48153 14.2824 5.65325 15.3102 2.80628C15.3757 2.62587 15.5927 2.52669 15.7932 2.5849C15.9945 2.64312 16.1059 2.8379 16.0398 3.01831C15.0759 5.68343 15.7767 8.41899 16.4523 11.0633C17.1826 13.9189 17.8726 16.6156 16.599 19.1758C16.5364 19.3045 16.397 19.3806 16.2497 19.3806Z" fill="#FFDA54"/>
<defs>
<linearGradient id="paint0_linear" x1="0" y1="31.2864" x2="38.3331" y2="31.2864" gradientUnits="userSpaceOnUse">
<stop stop-color="#E6EBEF"/>
<stop offset="0.2857" stop-color="#E2E8EC"/>
<stop offset="0.5605" stop-color="#D7DFE3"/>
<stop offset="0.83" stop-color="#C3CFD3"/>
<stop offset="1" stop-color="#B3C2C6"/>
</linearGradient>
<linearGradient id="paint1_linear" x1="0" y1="27.0237" x2="38.3331" y2="27.0237" gradientUnits="userSpaceOnUse">
<stop stop-color="#F5000D"/>
<stop offset="0.2714" stop-color="#F2010D"/>
<stop offset="0.5093" stop-color="#E7060F"/>
<stop offset="0.7339" stop-color="#D50D11"/>
<stop offset="0.903" stop-color="#C21413"/>
</linearGradient>
<linearGradient id="paint2_linear" x1="1.27744" y1="21.4492" x2="37.0563" y2="21.4492" gradientUnits="userSpaceOnUse">
<stop stop-color="#B3C2C6"/>
<stop offset="0.2515" stop-color="#C0CCD0"/>
<stop offset="0.6182" stop-color="#CBD5DA"/>
<stop offset="1" stop-color="#CFD8DD"/>
</linearGradient>
<linearGradient id="paint3_linear" x1="19.1679" y1="28.6641" x2="19.1679" y2="16.8591" gradientUnits="userSpaceOnUse">
<stop stop-color="#AD6928"/>
<stop offset="0.3231" stop-color="#BC7D2E"/>
<stop offset="0.984" stop-color="#E2B23D"/>
<stop offset="1" stop-color="#E3B33D"/>
</linearGradient>
<linearGradient id="paint4_linear" x1="7.08829" y1="20.6581" x2="4.82556" y2="15.3003" gradientUnits="userSpaceOnUse">
<stop stop-color="#1F2420"/>
<stop offset="0.5402" stop-color="#2B342C"/>
<stop offset="1" stop-color="#374538"/>
</linearGradient>
<linearGradient id="paint5_linear" x1="24.4687" y1="19.8163" x2="33.9659" y2="21.0966" gradientUnits="userSpaceOnUse">
<stop stop-color="#F5EFE6"/>
<stop offset="1" stop-color="#E3D5C1"/>
</linearGradient>
<linearGradient id="paint6_linear" x1="28.5085" y1="20.0125" x2="28.7592" y2="18.1532" gradientUnits="userSpaceOnUse">
<stop stop-color="#FFBF24"/>
<stop offset="0.2417" stop-color="#FCB925"/>
<stop offset="0.5514" stop-color="#F4A927"/>
<stop offset="0.8968" stop-color="#E88F2C"/>
<stop offset="1" stop-color="#E3862D"/>
</linearGradient>
<linearGradient id="paint7_linear" x1="11.3832" y1="16.5661" x2="11.3832" y2="3.76124" gradientUnits="userSpaceOnUse">
<stop stop-color="#A9B0B3"/>
<stop offset="0.3157" stop-color="#BDC4C7"/>
<stop offset="0.9614" stop-color="#EFF6FC"/>
<stop offset="1" stop-color="#F2F9FF"/>
</linearGradient>
<linearGradient id="paint8_linear" x1="24.2734" y1="15.688" x2="24.2734" y2="5.58901" gradientUnits="userSpaceOnUse">
<stop stop-color="#A9B0B3"/>
<stop offset="0.3157" stop-color="#BDC4C7"/>
<stop offset="0.9614" stop-color="#EFF6FC"/>
<stop offset="1" stop-color="#F2F9FF"/>
</linearGradient>
<linearGradient id="paint9_linear" x1="29.3536" y1="16.4053" x2="29.3536" y2="8.01546" gradientUnits="userSpaceOnUse">
<stop stop-color="#A9B0B3"/>
<stop offset="0.3157" stop-color="#BDC4C7"/>
<stop offset="0.9614" stop-color="#EFF6FC"/>
<stop offset="1" stop-color="#F2F9FF"/>
</linearGradient>
</defs>
</svg>
