<svg width="40" height="36" viewBox="0 0 40 36" fill="none" xmlns="http://www.w3.org/2000/svg">
<path d="M0 14.1432C0 30.897 40 30.897 40 14.1432C40 0.609483 0 0.609483 0 14.1432Z" fill="#E6EBEF"/>
<path d="M1.25 13.8151C1.25 1.65887 38.7488 1.65887 38.7488 13.8151C38.75 26.3339 1.25 26.3339 1.25 13.8151Z" fill="#99A8AE"/>
<path d="M9.06244 9.76763L21.7874 5.51388C18.8968 -3.52425 6.17057 0.731378 9.06244 9.76763Z" fill="#E81C27"/>
<path d="M14.9532 1.97705C16.0464 8.39955 14.2089 8.30767 13.3714 2.52142C13.2832 1.91955 9.5626 3.13517 9.81448 7.89955L20.7814 6.38955C19.9601 1.06392 14.8507 1.36392 14.9532 1.97705Z" fill="#C21413"/>
<path d="M16.3338 2.63574C15.7682 2.60574 16.2388 3.69761 16.3588 3.74261C16.4813 3.78886 16.9326 2.66824 16.3338 2.63574Z" fill="#F79886"/>
<path d="M10.6819 5.68264C10.5794 6.24014 11.7225 5.91639 11.7838 5.80264C11.8444 5.68826 10.7932 5.09389 10.6819 5.68264Z" fill="#F79886"/>
<path d="M11.1601 4.32321C10.8113 4.77196 11.9695 5.00696 12.0763 4.93258C12.1838 4.85883 11.5263 3.84571 11.1601 4.32321Z" fill="#F79886"/>
<path d="M12.3392 3.24947C11.8217 3.48447 12.7286 4.23822 12.8567 4.22072C12.9842 4.20572 12.8836 2.99822 12.3392 3.24947Z" fill="#F79886"/>
<path d="M36.6644 6.43762C35.6512 5.99387 34.2331 8.13074 32.6031 6.58074C31.4844 5.51699 30.4812 5.94887 30.3462 5.04012C30.2312 4.27324 31.7719 3.27574 30.9362 3.02574C28.9031 2.41887 27.1212 5.83887 25.4825 4.47387C24.2231 3.42512 24.2012 4.02574 23.2431 3.73887C21.9162 3.34262 23.6269 0.381366 22.1425 1.24512C20.8587 1.99137 20.2456 3.36762 17.3756 2.11387C15.6169 1.34512 15.1937 8.90324 22.7181 12.152C29.6844 15.1595 40.4637 8.09574 36.6644 6.43762Z" fill="#7AB51D"/>
<path d="M32.6031 6.58138C31.4844 5.51763 30.4813 5.94951 30.3463 5.04076C30.2313 4.27388 31.7719 3.27638 30.9363 3.02638C28.9031 2.41951 27.1213 5.83951 25.4825 4.47576C24.2231 3.42576 23.6269 0.382005 22.1413 1.24576C20.9631 1.93138 20.3669 3.06201 18.0306 2.36576C25.695 4.18576 22.5919 13.7951 36.6638 6.43763C35.6513 5.99451 34.2331 8.13076 32.6031 6.58138Z" fill="#92C932"/>
<path d="M26.7556 12.0014C21.7581 12.0008 21.7531 4.5708 26.7556 4.5708C31.7531 4.5708 31.7581 12.0014 26.7556 12.0014Z" fill="url(#paint0_radial)"/>
<path d="M26.7554 11.2183C22.8098 11.2183 22.8054 5.35327 26.7554 5.35327C30.7004 5.35327 30.7042 11.2189 26.7554 11.2183Z" fill="url(#paint1_radial)"/>
<path d="M26.7556 10.2407C24.1237 10.2413 24.1212 6.33008 26.7556 6.33008C29.3862 6.3307 29.3881 10.2407 26.7556 10.2407Z" fill="url(#paint2_radial)"/>
<path d="M26.7558 9.26329C25.4408 9.26391 25.4389 7.30829 26.7558 7.30829C28.0701 7.30829 28.0726 9.26329 26.7558 9.26329Z" fill="url(#paint3_radial)"/>
<path d="M13.8992 6.48955C16.5073 -0.197954 25.9554 3.47955 23.3454 10.1664L13.8992 6.48955Z" fill="white"/>
<path d="M15.4769 6.59762C17.1057 2.42387 23.5876 4.94825 21.9601 9.12012L15.4769 6.59762Z" fill="#F59E01"/>
<path d="M14.6312 4.82259C12.7044 2.69634 10.5156 8.21071 6.52623 7.71884C2.36311 7.20634 2.14811 8.93947 1.23436 9.81197C-0.471267 13.7713 5.98811 36.5432 25.5719 9.74447C25.5725 9.74384 19.0337 9.68072 14.6312 4.82259Z" fill="#7AB51D"/>
<path d="M23.2606 9.50076C20.925 9.50076 21.88 5.01263 18.8975 5.01263C16.0906 5.01263 15.2543 9.16076 12.8681 9.16076C10.6612 9.16076 10.005 6.31701 8.05435 6.07763C5.75997 5.79451 5.2106 10.2995 1.2356 9.81138C1.2356 9.81138 17.7718 28.4276 28.2581 6.77201C26.1075 6.50576 25.5906 9.50076 23.2606 9.50076Z" fill="#A6E639"/>
<path d="M22.4658 9.70327C20.647 8.76014 19.5064 9.70577 19.0089 8.58327C18.5927 7.63952 20.2277 5.75702 19.0627 5.75702C16.2227 5.75702 15.1289 10.8583 12.5333 9.73014C10.5408 8.86327 10.722 9.64577 9.38204 9.64577C7.52892 9.64577 8.69704 5.16202 7.08392 6.85077C5.80204 8.18827 5.43079 9.88077 2.17017 9.88077C6.86954 9.88077 5.55142 16.9245 15.1002 16.9245C25.1652 16.9245 26.3827 6.76952 28.2577 6.76952C26.7927 6.58952 25.1164 11.0745 22.4658 9.70327Z" fill="#7AB51D"/>
<path d="M12.1634 14.1839C10.3827 16.3339 5.76087 12.1427 7.54212 9.99205C9.32337 7.84205 13.9446 12.0352 12.1634 14.1839Z" fill="#302C3B"/>
<path d="M25.6649 23.6095C25.3462 23.6432 25.9856 23.5838 25.6649 23.6095V23.6095Z" fill="#7AB51D"/>
<path d="M11.08 16.8232V16.827C11.12 16.827 11.1581 16.832 11.1975 16.832C11.16 16.8307 11.1175 16.8257 11.08 16.8232Z" fill="#7AB51D"/>
<path d="M22.85 12.9101L36.4462 17.512C39.9956 7.92202 26.3975 3.31765 22.85 12.9101Z" fill="#E81C27"/>
<path d="M31.6058 10.1783C29.6301 16.6876 27.9564 15.7445 29.8739 9.94888C30.072 9.34513 26.0289 8.74513 24.0414 13.3139L34.9901 17.0189C36.7083 11.6608 31.7951 9.55701 31.6058 10.1783Z" fill="#C21413"/>
<path d="M32.5343 11.727C32.0193 11.4351 31.9499 12.6751 32.0418 12.7732C32.1331 12.8732 33.0781 12.037 32.5343 11.727Z" fill="#F79886"/>
<path d="M33.7137 12.662C33.39 12.1658 32.7625 13.2289 32.8006 13.3602C32.8375 13.4908 34.06 13.1877 33.7137 12.662Z" fill="#F79886"/>
<path d="M26.9146 10.8908C26.3796 11.1458 27.3514 11.9064 27.4858 11.887C27.6202 11.8676 27.4796 10.6145 26.9146 10.8908Z" fill="#F79886"/>
<path d="M28.5166 10.437C27.9229 10.4151 28.4179 11.542 28.5473 11.5864C28.6729 11.632 29.1423 10.4551 28.5166 10.437Z" fill="#F79886"/>
<path d="M3.78256 24.2645L19.0207 20.4964C16.6419 9.56948 1.40131 13.3364 3.78256 24.2645Z" fill="#E81C27"/>
<path d="M10.2406 16.5908C12.2549 23.7533 10.1562 23.8695 8.50869 17.3995C8.33681 16.7264 4.25806 18.5558 5.11681 23.9339L17.3874 20.9002C15.8156 14.952 10.0499 15.907 10.2406 16.5908Z" fill="#C21413"/>
<path d="M5.95621 21.6107C5.90746 22.2564 7.16746 21.7514 7.22184 21.6157C7.27809 21.4776 6.01246 20.9301 5.95621 21.6107Z" fill="#F79886"/>
<path d="M6.33744 20.0095C5.99494 20.5614 7.33931 20.6895 7.45119 20.5907C7.56306 20.4939 6.69494 19.4232 6.33744 20.0095Z" fill="#F79886"/>
<path d="M7.5469 18.6495C6.98753 18.9776 8.1069 19.7251 8.2519 19.6895C8.3944 19.6576 8.13503 18.2982 7.5469 18.6495Z" fill="#F79886"/>
<path d="M15.0255 18.2808C10.028 18.2808 10.023 10.8508 15.0255 10.8508C20.023 10.8508 20.028 18.2808 15.0255 18.2808Z" fill="url(#paint4_radial)"/>
<path d="M15.0257 17.4982C11.0801 17.4982 11.0757 11.6332 15.0257 11.6332C18.9713 11.6332 18.9744 17.4982 15.0257 17.4982Z" fill="url(#paint5_radial)"/>
<path d="M15.0257 16.5207C12.3939 16.5214 12.3914 12.6101 15.0257 12.6101C17.6564 12.6101 17.6589 16.5207 15.0257 16.5207Z" fill="url(#paint6_radial)"/>
<path d="M15.0256 15.5432C13.7106 15.5438 13.7088 13.5882 15.0256 13.5882C16.3406 13.5882 16.3425 15.5432 15.0256 15.5432Z" fill="url(#paint7_radial)"/>
<path d="M15.818 15.0814C14.7305 7.05143 26.2149 5.78956 27.3024 13.8189L15.818 15.0814Z" fill="white"/>
<path d="M17.4242 14.7808C16.7211 9.5989 24.8711 8.70265 25.5723 13.8851L17.4242 14.7808Z" fill="#F59E01"/>
<path d="M38.0262 11.0094C40 12.9663 35.7925 17.6119 33.82 15.6557C31.8462 13.6976 36.055 9.05318 38.0262 11.0094Z" fill="#302C3B"/>
<path d="M37.032 14.917C35.132 14.6838 34.0395 15.982 32.5189 15.7963C27.862 15.2226 26.0752 12.4338 23.472 12.1126C20.6752 11.7676 19.8895 15.177 15.9008 14.6857C11.737 14.1732 11.8427 16.9301 10.6077 16.7776C10.6083 16.7782 21.7945 32.8876 37.032 14.917Z" fill="#92C932"/>
<path d="M37.0319 14.917C34.8819 14.6514 34.965 16.467 32.6331 16.467C30.2969 16.467 31.2538 11.9814 28.2713 11.9814C25.4625 11.9814 24.6281 16.1276 22.2413 16.1276C20.0331 16.1276 19.3781 13.2851 17.4281 13.0458C15.1325 12.7633 14.5825 17.2683 10.6088 16.7789C10.6081 16.7783 32.4481 34.4333 37.0319 14.917Z" fill="#A6E639"/>
<path d="M37.0317 14.917C35.5679 14.737 34.4898 18.042 31.8392 16.672C30.0204 15.7295 28.8798 16.6751 28.3823 15.552C27.9661 14.6076 29.6011 12.7239 28.4361 12.7239C25.5973 12.7239 24.5023 17.8264 21.9061 16.6976C19.9129 15.8308 20.0954 16.6126 18.7548 16.6126C16.9036 16.6126 18.0698 12.1295 16.4567 13.8183C15.0623 15.277 14.7536 17.2895 10.6079 16.7783C8.06793 16.4645 8.91668 26.1789 21.0429 27.6733C31.0904 28.9095 42.5223 15.5926 37.0317 14.917Z" fill="#92C932"/>
<path d="M37.0321 14.917C35.5683 14.7358 34.4902 18.042 31.8396 16.672C30.0208 15.7295 28.8802 16.6751 28.3827 15.552C27.9664 14.6076 29.6014 12.7239 28.4364 12.7239C25.5977 12.7239 24.5027 17.8264 21.9064 16.6976C19.9133 15.8308 20.0964 16.6126 18.7552 16.6126C16.9039 16.6126 18.0702 12.1295 16.4571 13.8195C15.1771 15.1583 14.8046 16.8489 11.5446 16.8489C16.2427 16.8489 14.9246 23.8933 24.4746 23.8933C34.5414 23.8939 35.1583 14.917 37.0321 14.917Z" fill="#7AB51D"/>
<path d="M28.2574 24.5064C23.2599 24.5064 23.2549 17.0757 28.2574 17.0757C33.2549 17.0757 33.2599 24.5064 28.2574 24.5064Z" fill="url(#paint8_radial)"/>
<path d="M28.2576 23.7238C24.312 23.7238 24.3076 17.8582 28.2576 17.8582C32.2026 17.8582 32.2064 23.7238 28.2576 23.7238Z" fill="url(#paint9_radial)"/>
<path d="M28.2574 22.7464C25.6256 22.7477 25.6231 18.8364 28.2574 18.8364C30.8881 18.8364 30.8906 22.7464 28.2574 22.7464Z" fill="url(#paint10_radial)"/>
<path d="M28.2575 21.7682C26.9425 21.7695 26.9406 19.8138 28.2575 19.8138C29.5718 19.8138 29.5743 21.7682 28.2575 21.7682Z" fill="url(#paint11_radial)"/>
<path d="M25.8373 23.597C24.2835 26.9626 17.0479 23.3051 18.6017 19.9408C20.1548 16.5751 27.3904 20.2326 25.8373 23.597Z" fill="#302C3B"/>
<path d="M38.6525 14.8757C36.6568 25.9795 3.34434 25.9795 1.34747 14.8757H0.0274658C1.16309 30.6501 38.8375 30.6501 39.9731 14.8757H38.6525Z" fill="#E6EBEF"/>
<path d="M0 14.1432C0 42.6195 40 42.6195 40 14.1432C40 28.3282 0 28.3282 0 14.1432Z" fill="url(#paint12_linear)"/>
<defs>
<radialGradient id="paint0_radial" cx="0" cy="0" r="1" gradientUnits="userSpaceOnUse" gradientTransform="translate(26.7557 8.28583) scale(3.75031 3.71506)">
<stop stop-color="#FFA8EC"/>
<stop offset="0.3809" stop-color="#FEA6EB"/>
<stop offset="0.5295" stop-color="#FC9FE9"/>
<stop offset="0.6376" stop-color="#F993E4"/>
<stop offset="0.7261" stop-color="#F482DD"/>
<stop offset="0.8025" stop-color="#EE6BD5"/>
<stop offset="0.8706" stop-color="#E64FCA"/>
<stop offset="0.9325" stop-color="#DC2EBE"/>
<stop offset="0.9879" stop-color="#D209B0"/>
<stop offset="1" stop-color="#CF00AC"/>
</radialGradient>
<radialGradient id="paint1_radial" cx="0" cy="0" r="1" gradientUnits="userSpaceOnUse" gradientTransform="translate(26.7555 8.28549) scale(2.96019 2.93236)">
<stop stop-color="#FFA8EC"/>
<stop offset="0.3809" stop-color="#FEA6EB"/>
<stop offset="0.5295" stop-color="#FC9FE9"/>
<stop offset="0.6376" stop-color="#F993E4"/>
<stop offset="0.7261" stop-color="#F482DD"/>
<stop offset="0.8025" stop-color="#EE6BD5"/>
<stop offset="0.8706" stop-color="#E64FCA"/>
<stop offset="0.9325" stop-color="#DC2EBE"/>
<stop offset="0.9879" stop-color="#D209B0"/>
<stop offset="1" stop-color="#CF00AC"/>
</radialGradient>
<radialGradient id="paint2_radial" cx="0" cy="0" r="1" gradientUnits="userSpaceOnUse" gradientTransform="translate(26.755 8.28542) scale(1.97419 1.95563)">
<stop stop-color="#FFA8EC"/>
<stop offset="0.3809" stop-color="#FEA6EB"/>
<stop offset="0.5295" stop-color="#FC9FE9"/>
<stop offset="0.6376" stop-color="#F993E4"/>
<stop offset="0.7261" stop-color="#F482DD"/>
<stop offset="0.8025" stop-color="#EE6BD5"/>
<stop offset="0.8706" stop-color="#E64FCA"/>
<stop offset="0.9325" stop-color="#DC2EBE"/>
<stop offset="0.9879" stop-color="#D209B0"/>
<stop offset="1" stop-color="#CF00AC"/>
</radialGradient>
<radialGradient id="paint3_radial" cx="0" cy="0" r="1" gradientUnits="userSpaceOnUse" gradientTransform="translate(26.7558 8.28551) scale(0.986812 0.977537)">
<stop stop-color="#FFA8EC"/>
<stop offset="0.3809" stop-color="#FEA6EB"/>
<stop offset="0.5295" stop-color="#FC9FE9"/>
<stop offset="0.6376" stop-color="#F993E4"/>
<stop offset="0.7261" stop-color="#F482DD"/>
<stop offset="0.8025" stop-color="#EE6BD5"/>
<stop offset="0.8706" stop-color="#E64FCA"/>
<stop offset="0.9325" stop-color="#DC2EBE"/>
<stop offset="0.9879" stop-color="#D209B0"/>
<stop offset="1" stop-color="#CF00AC"/>
</radialGradient>
<radialGradient id="paint4_radial" cx="0" cy="0" r="1" gradientUnits="userSpaceOnUse" gradientTransform="translate(15.0258 14.5656) scale(3.75012 3.71487)">
<stop stop-color="#FFA8EC"/>
<stop offset="0.3809" stop-color="#FEA6EB"/>
<stop offset="0.5295" stop-color="#FC9FE9"/>
<stop offset="0.6376" stop-color="#F993E4"/>
<stop offset="0.7261" stop-color="#F482DD"/>
<stop offset="0.8025" stop-color="#EE6BD5"/>
<stop offset="0.8706" stop-color="#E64FCA"/>
<stop offset="0.9325" stop-color="#DC2EBE"/>
<stop offset="0.9879" stop-color="#D209B0"/>
<stop offset="1" stop-color="#CF00AC"/>
</radialGradient>
<radialGradient id="paint5_radial" cx="0" cy="0" r="1" gradientUnits="userSpaceOnUse" gradientTransform="translate(15.0254 14.5653) scale(2.96069 2.93286)">
<stop stop-color="#FFA8EC"/>
<stop offset="0.3809" stop-color="#FEA6EB"/>
<stop offset="0.5295" stop-color="#FC9FE9"/>
<stop offset="0.6376" stop-color="#F993E4"/>
<stop offset="0.7261" stop-color="#F482DD"/>
<stop offset="0.8025" stop-color="#EE6BD5"/>
<stop offset="0.8706" stop-color="#E64FCA"/>
<stop offset="0.9325" stop-color="#DC2EBE"/>
<stop offset="0.9879" stop-color="#D209B0"/>
<stop offset="1" stop-color="#CF00AC"/>
</radialGradient>
<radialGradient id="paint6_radial" cx="0" cy="0" r="1" gradientUnits="userSpaceOnUse" gradientTransform="translate(15.0254 14.5653) scale(1.974 1.95544)">
<stop stop-color="#FFA8EC"/>
<stop offset="0.3809" stop-color="#FEA6EB"/>
<stop offset="0.5295" stop-color="#FC9FE9"/>
<stop offset="0.6376" stop-color="#F993E4"/>
<stop offset="0.7261" stop-color="#F482DD"/>
<stop offset="0.8025" stop-color="#EE6BD5"/>
<stop offset="0.8706" stop-color="#E64FCA"/>
<stop offset="0.9325" stop-color="#DC2EBE"/>
<stop offset="0.9879" stop-color="#D209B0"/>
<stop offset="1" stop-color="#CF00AC"/>
</radialGradient>
<radialGradient id="paint7_radial" cx="0" cy="0" r="1" gradientUnits="userSpaceOnUse" gradientTransform="translate(15.0256 14.5653) scale(0.986938 0.97766)">
<stop stop-color="#FFA8EC"/>
<stop offset="0.3809" stop-color="#FEA6EB"/>
<stop offset="0.5295" stop-color="#FC9FE9"/>
<stop offset="0.6376" stop-color="#F993E4"/>
<stop offset="0.7261" stop-color="#F482DD"/>
<stop offset="0.8025" stop-color="#EE6BD5"/>
<stop offset="0.8706" stop-color="#E64FCA"/>
<stop offset="0.9325" stop-color="#DC2EBE"/>
<stop offset="0.9879" stop-color="#D209B0"/>
<stop offset="1" stop-color="#CF00AC"/>
</radialGradient>
<radialGradient id="paint8_radial" cx="0" cy="0" r="1" gradientUnits="userSpaceOnUse" gradientTransform="translate(28.2577 20.791) scale(3.75031 3.71506)">
<stop stop-color="#FFA8EC"/>
<stop offset="0.3809" stop-color="#FEA6EB"/>
<stop offset="0.5295" stop-color="#FC9FE9"/>
<stop offset="0.6376" stop-color="#F993E4"/>
<stop offset="0.7261" stop-color="#F482DD"/>
<stop offset="0.8025" stop-color="#EE6BD5"/>
<stop offset="0.8706" stop-color="#E64FCA"/>
<stop offset="0.9325" stop-color="#DC2EBE"/>
<stop offset="0.9879" stop-color="#D209B0"/>
<stop offset="1" stop-color="#CF00AC"/>
</radialGradient>
<radialGradient id="paint9_radial" cx="0" cy="0" r="1" gradientUnits="userSpaceOnUse" gradientTransform="translate(28.2572 20.791) scale(2.96081 2.93298)">
<stop stop-color="#FFA8EC"/>
<stop offset="0.3809" stop-color="#FEA6EB"/>
<stop offset="0.5295" stop-color="#FC9FE9"/>
<stop offset="0.6376" stop-color="#F993E4"/>
<stop offset="0.7261" stop-color="#F482DD"/>
<stop offset="0.8025" stop-color="#EE6BD5"/>
<stop offset="0.8706" stop-color="#E64FCA"/>
<stop offset="0.9325" stop-color="#DC2EBE"/>
<stop offset="0.9879" stop-color="#D209B0"/>
<stop offset="1" stop-color="#CF00AC"/>
</radialGradient>
<radialGradient id="paint10_radial" cx="0" cy="0" r="1" gradientUnits="userSpaceOnUse" gradientTransform="translate(28.2571 20.7911) scale(1.97388 1.95532)">
<stop stop-color="#FFA8EC"/>
<stop offset="0.3809" stop-color="#FEA6EB"/>
<stop offset="0.5295" stop-color="#FC9FE9"/>
<stop offset="0.6376" stop-color="#F993E4"/>
<stop offset="0.7261" stop-color="#F482DD"/>
<stop offset="0.8025" stop-color="#EE6BD5"/>
<stop offset="0.8706" stop-color="#E64FCA"/>
<stop offset="0.9325" stop-color="#DC2EBE"/>
<stop offset="0.9879" stop-color="#D209B0"/>
<stop offset="1" stop-color="#CF00AC"/>
</radialGradient>
<radialGradient id="paint11_radial" cx="0" cy="0" r="1" gradientUnits="userSpaceOnUse" gradientTransform="translate(28.2577 20.791) scale(0.986625 0.97735)">
<stop stop-color="#FFA8EC"/>
<stop offset="0.3809" stop-color="#FEA6EB"/>
<stop offset="0.5295" stop-color="#FC9FE9"/>
<stop offset="0.6376" stop-color="#F993E4"/>
<stop offset="0.7261" stop-color="#F482DD"/>
<stop offset="0.8025" stop-color="#EE6BD5"/>
<stop offset="0.8706" stop-color="#E64FCA"/>
<stop offset="0.9325" stop-color="#DC2EBE"/>
<stop offset="0.9879" stop-color="#D209B0"/>
<stop offset="1" stop-color="#CF00AC"/>
</radialGradient>
<linearGradient id="paint12_linear" x1="0" y1="24.8214" x2="40" y2="24.8214" gradientUnits="userSpaceOnUse">
<stop stop-color="#CFD8DD"/>
<stop offset="0.3818" stop-color="#CBD5DA"/>
<stop offset="0.7485" stop-color="#C0CCD0"/>
<stop offset="1" stop-color="#B3C2C6"/>
</linearGradient>
</defs>
</svg>
