<svg width="46" height="46" viewBox="0 0 46 46" fill="none" xmlns="http://www.w3.org/2000/svg">
<path d="M23.0001 46.0003C44.6934 46.0003 58.4977 29.1815 23.0001 29.1815C-12.499 29.1815 1.30746 46.0003 23.0001 46.0003Z" fill="#B3C2C6"/>
<path d="M23 44.7546C35.7025 44.7546 46 40.5713 46 35.4109C46 30.2505 35.7025 26.0671 23 26.0671C10.2975 26.0671 0 30.2505 0 35.4109C0 40.5713 10.2975 44.7546 23 44.7546Z" fill="#E6EBEF"/>
<path d="M4.30664 34.626C4.75586 29.584 12.6506 23.8131 21.6853 21.8668C27.8385 21.5484 43.2399 29.8959 41.2605 34.309C36.4693 44.9961 6.01655 42.3346 4.30664 34.626Z" fill="url(#paint0_linear)"/>
<path d="M18.7803 41.5699C12.64 41.5699 6.68013 40.7563 3.87844 34.2372C3.75985 33.9598 3.87988 33.6349 4.14941 33.5134C4.16019 33.5077 4.17169 33.5012 4.18535 33.4976C4.03728 33.1828 3.95822 32.8673 3.97116 32.551C3.99344 32.017 4.2335 31.7848 4.43116 31.6813C4.99107 31.3924 5.61997 31.8359 6.86916 32.7156C8.68113 33.9957 11.7121 36.1376 15.7788 36.7004C20.3766 37.3415 27.3514 36.1103 31.0982 35.3225C32.0103 35.1306 38.6358 32.5676 40.1408 31.3759C38.8011 31.2875 35.8103 32.3261 33.2408 33.4883C30.9063 34.5398 22.8498 37.0554 17.5289 35.8451C15.9024 35.4749 14.6777 35.3031 13.6958 35.1651C11.2658 34.8237 9.92672 34.6368 6.73404 32.2808C5.48844 31.3622 5.28575 30.6039 5.33391 30.1281C5.3835 29.6739 5.66454 29.3116 6.12885 29.1053C6.69954 28.8516 7.61163 28.8416 8.70197 29.183C8.07163 28.7934 7.68063 28.4074 7.62385 28.0481C7.58504 27.8051 7.603 27.2093 8.58985 26.9441C9.972 26.5674 11.4469 27.1978 13.3128 27.9927C16.0922 29.1765 19.5508 30.6471 24.3829 29.5035C26.0555 29.1053 28.2498 28.7201 30.3708 28.3492C32.0031 28.0646 33.897 27.7325 35.1189 27.4493C32.2152 26.9627 29.43 27.4436 26.5033 27.9496C22.047 28.7222 17.4413 29.5208 11.6532 27.2086C11.2701 27.0555 10.253 26.6515 10.4543 25.8717C10.9287 24.0353 20.9524 25.3463 26.8863 26.2922C27.102 26.3281 27.268 26.4912 27.3205 26.6975C30.3428 26.1858 33.2538 25.8142 36.4091 26.5969C36.6506 26.6573 37.2924 26.8176 37.273 27.4041C37.2457 28.1638 36.4932 28.3909 30.5484 29.4317C28.4424 29.8004 26.2639 30.182 24.6216 30.5723C19.4617 31.7992 15.6731 30.1863 12.9095 29.0076C11.2277 28.2917 9.89941 27.7261 8.86082 28.0057C8.8486 28.0071 8.83638 28.0114 8.82632 28.015C10.2027 29.2067 18.5596 31.7971 23.22 31.4808C27.6188 31.1768 30.253 30.2453 32.3697 29.4985C34.5137 28.7417 36.2049 28.1429 38.7321 28.4139C39.0663 28.452 39.8512 28.5339 39.8943 29.1909C39.9151 29.5251 39.9367 29.85 38.3669 30.4897C39.3581 30.2647 40.2479 30.1842 40.8121 30.3847C41.4468 30.6118 41.4662 31.0999 41.4576 31.2436C41.4353 31.5908 41.0529 31.9954 40.4499 32.4195C41.0515 32.2398 41.5575 32.2319 41.8723 32.5122C42.2769 32.8702 42.2669 33.448 41.8428 34.2315C38.9118 39.6429 30.6655 41.6288 24.4505 41.5361C23.3213 41.5203 19.5357 41.5699 18.7803 41.5699ZM5.52222 35.1277C8.64447 40.4407 14.6726 40.3638 21.035 40.2833C22.1778 40.2682 23.3264 40.2546 24.4613 40.2697C30.8265 40.3847 38.3842 38.3664 40.9135 33.696C40.9861 33.563 41.0306 33.4617 41.0587 33.3848C40.4492 33.4789 38.6976 34.2739 35.8743 36.5667C31.9708 39.74 27.0021 39.4827 22.1958 39.2304C21.0408 39.1722 20.0201 39.2742 19.0362 39.3698C16.7096 39.6012 14.3032 39.8427 10.0777 37.9409C9.91019 37.8669 7.27597 36.6702 5.52222 35.1277ZM5.0536 32.8098C5.33966 34.0324 8.30738 35.9478 10.501 36.9347C14.4735 38.7222 16.6406 38.5059 18.9341 38.2773C19.954 38.1752 21.0127 38.0725 22.249 38.1343C27.0718 38.3873 31.6272 38.6223 35.2167 35.702C35.7629 35.2607 36.5701 34.6289 37.4433 34.0309C34.633 35.2995 31.3656 36.3848 31.3088 36.3971C27.4973 37.1992 20.3924 38.4484 15.6372 37.7886C11.3204 37.1898 8.15932 34.9574 6.269 33.6227C5.83703 33.3165 5.36194 32.9823 5.0536 32.8098ZM7.143 30.0124C6.89432 30.0124 6.69378 30.0491 6.54716 30.1152C6.51266 30.1303 6.39838 30.1856 6.39119 30.2467C6.37754 30.3862 6.55866 30.8037 7.35072 31.3881C10.3307 33.5867 11.5015 33.7506 13.8374 34.0784C14.8408 34.2192 16.0893 34.3932 17.7561 34.7734C22.76 35.9119 30.6576 33.4559 32.8139 32.482C33.1883 32.3131 33.7943 32.0472 34.5166 31.7561C32.6859 32.2872 30.2379 32.9413 26.9597 33.7621C26.4242 33.8972 26.0569 33.9878 25.9347 34.023C20.34 35.6072 14.9026 34.754 11.0128 31.6835C9.46528 30.4602 8.017 30.0124 7.143 30.0124ZM10.7483 30.1626C11.0465 30.3531 11.352 30.5694 11.6589 30.8124C15.2828 33.6708 20.386 34.455 25.6551 32.9636C25.7831 32.9277 26.1604 32.8335 26.711 32.6955C33.5556 30.9798 36.7002 30.0095 38.0464 29.4597C36.059 29.3591 34.5619 29.8837 32.7125 30.5364C30.5369 31.3062 27.8279 32.2628 23.2883 32.5762C20.2092 32.7875 14.3657 31.5829 10.7483 30.1626ZM11.9615 26.1556C11.9852 26.1664 12.0111 26.175 12.0363 26.1858C16.9676 28.1516 21.0515 27.744 24.9472 27.1015C16.9928 25.9162 13.2941 25.9515 11.9615 26.1556Z" fill="#FFD56B"/>
<path d="M14.6444 39.6156C14.607 39.6156 14.4302 39.8672 14.3929 39.8593C10.802 39.0643 9.4457 37.3602 7.99167 35.2938C7.19386 34.1574 6.08411 32.7968 4.75586 31.6173C6.17683 30.1187 7.61145 32.9291 8.90233 34.6612C10.3326 36.5846 11.1499 38.3276 14.344 39.0341C14.6315 39.0967 14.9851 39.2232 14.924 39.5193C14.8701 39.7773 14.8881 39.6156 14.6444 39.6156Z" fill="#FFE485"/>
<path d="M17.6243 40.3308C10.937 40.3308 9.85386 36.3194 8.9468 32.9622C8.51267 31.3529 8.10083 29.8342 7.12908 28.9717C6.90699 28.774 6.88183 28.4261 7.07158 28.1976C7.26349 27.9683 7.59842 27.9417 7.82052 28.1379C9.03808 29.2175 9.49017 30.8929 9.96886 32.666C11.0937 36.8283 12.2523 41.1322 23.7559 38.3844C24.0355 38.314 24.3245 38.4994 24.392 38.7941C24.4581 39.0895 24.2799 39.3842 23.9931 39.4532C21.438 40.0648 19.3464 40.3308 17.6243 40.3308Z" fill="#FFE485"/>
<path d="M27.784 39.9527C25.3201 39.9527 23.0151 39.3044 20.6597 38.6424C17.8667 37.859 14.9816 37.0475 11.5956 37.2301C11.3138 37.2617 11.0522 37.0145 11.0371 36.7104C11.022 36.4078 11.247 36.1491 11.5402 36.134C15.098 35.945 18.1211 36.5832 20.9379 37.5837C34.6919 42.4662 40.2981 29.216 41.6034 32.3577C36.0589 38.1745 31.7012 39.9506 27.784 39.9527Z" fill="#FFE485"/>
<path d="M24.8939 38.7035C23.0603 38.7035 21.2972 38.3743 19.4572 38.0307C17.0063 37.5743 14.4741 37.1028 11.3627 37.2667C11.0752 37.3048 10.8207 37.0511 10.8056 36.7485C10.7906 36.4444 11.0155 36.1871 11.3088 36.172C14.5417 35.9967 17.2895 36.3309 19.647 36.949C34.1535 40.7584 37.771 27.6117 39.9948 30.2711C33.5268 37.0554 28.9915 38.7035 24.8939 38.7035Z" fill="#FFE485"/>
<path d="M23.7411 34.1531C15.2972 34.023 12.7177 31.5628 12.7177 31.5628C31.4073 37.4896 36.4321 25.4642 37.7704 28.3507C32.5954 32.7006 27.8157 34.1531 23.7411 34.1531Z" fill="#FFE485"/>
<path d="M27.1119 35.6726C25.5472 35.6726 23.9523 35.2773 22.2467 34.7195C22.2467 34.7195 23.6842 34.5096 24.8162 34.3077C31.9319 36.5674 34.4547 28.5038 36.7209 29.0716C33.2256 34.0949 30.2313 35.6726 27.1119 35.6726Z" fill="#FFE485"/>
<path d="M14.7911 28.6079C18.7486 27.1137 31.4733 23.3359 35.3043 26.3683C28.1074 25.8738 20.2651 28.0912 16.2437 29.1341C15.3633 28.9149 14.7911 28.6079 14.7911 28.6079Z" fill="#FFE485"/>
<path d="M28.2726 27.4501C19.1071 29.9707 14.5064 31.2379 8.9828 29.2678C8.70752 29.1671 8.40277 29.3217 8.30718 29.6077C8.21302 29.8938 8.35965 30.2072 8.6378 30.3064C10.6158 31.0129 12.5011 31.3184 14.4834 31.3184C18.333 31.3184 22.5499 30.1597 28.5443 28.5109C30.3994 27.9999 31.6824 27.8928 33.9392 27.302C33.5554 27.0526 29.8999 27.0023 28.2726 27.4501Z" fill="#FFE485"/>
<path d="M22.6407 31.6174C21.1148 31.6174 19.5932 31.4226 18.2398 30.9396C17.9631 30.8404 17.8164 30.5292 17.9106 30.2431C18.0076 29.9556 18.3131 29.8018 18.5855 29.9017C23.0899 31.5045 31.017 29.1434 30.9803 28.5627C30.9437 27.9704 27.6971 29.1334 26.7491 29.0033C29.793 26.6429 33.3314 27.519 31.9909 29.0866C31.104 30.1281 26.8526 31.6174 22.6407 31.6174Z" fill="#FFE485"/>
<path d="M24.1816 36.4962C23.9495 35.7746 19.9302 35.3599 18.5725 33.9001C13.9308 28.9062 11.5647 25.1551 9.5105 26.8319C14.7912 27.8956 16.8461 38.1989 24.1816 36.4962Z" fill="#FFE485"/>
<path d="M9.07422 26.5279C8.32887 27.6757 10.1358 25.7861 10.3277 27.9453C10.6547 31.649 13.2545 26.842 14.5626 28.8279C17.1192 32.7091 17.2385 27.4817 18.8722 29.3907C20.107 30.8303 21.661 27.5011 23.3565 29.4618C26.9754 33.6428 28.9419 28.2205 30.6734 28.9105C33.8359 30.1698 34.2506 28.3255 34.5898 27.8957C35.1505 27.1863 37.5935 27.4831 37.1515 26.8671C36.1208 25.426 34.771 25.7559 34.3893 24.9006C33.9394 23.8944 31.8428 23.9634 30.9005 23.029C29.7577 21.8963 28.2081 22.8055 27.3937 22.0759C26.5391 21.3083 24.8544 22.0328 23.9114 21.511C22.9044 20.9525 21.3684 21.028 20.3643 21.557C19.4084 22.0609 18.2268 21.4959 17.3672 22.1521C16.3077 22.9636 14.669 22.2959 13.634 23.3517C12.3136 24.6965 10.3011 24.6426 9.07422 26.5279Z" fill="url(#paint1_radial)"/>
<path d="M31.0355 29.2469C32.2186 27.9762 28.4459 27.9611 27.7882 28.7798C26.9157 29.8658 27.6804 31.1322 28.2798 30.2776C29.4406 28.6238 30.173 30.1677 31.0355 29.2469Z" fill="#F56520"/>
<path d="M19.5959 28.8186C21.2304 29.1923 19.4572 24.7426 18.5487 25.1997C17.6445 25.6568 16.8439 26.474 17.7998 26.7615C19.1762 27.1755 18.4107 28.5469 19.5959 28.8186Z" fill="#F56520"/>
<path d="M22.4394 24.4019C21.354 25.9292 25.9066 26.2857 26.0841 24.9646C26.2609 23.6486 25.1814 22.7897 24.6811 23.8915C23.7396 25.9544 23.2235 23.2921 22.4394 24.4019Z" fill="#F56520"/>
<path d="M30.1385 26.2454C30.4922 27.0296 28.9253 27.118 28.9253 26.2454C28.9253 25.3721 29.8223 25.5439 30.1385 26.2454Z" fill="#F56520"/>
<path d="M24.5713 28.9393C24.9249 29.7235 23.3573 29.8119 23.3573 28.9393C23.3573 28.0667 24.255 28.2378 24.5713 28.9393Z" fill="#F56520"/>
<path d="M21.3339 25.8983C21.6163 26.5243 20.365 26.5954 20.365 25.8983C20.365 25.2025 21.0809 25.3391 21.3339 25.8983Z" fill="#F56520"/>
<path d="M19.3165 23.5515C19.5983 24.1761 18.3477 24.248 18.3477 23.5515C18.3477 22.8536 19.0642 22.9916 19.3165 23.5515Z" fill="#BA3D02"/>
<path d="M22.7349 23.1376C23.0173 23.7622 21.7653 23.8333 21.7653 23.1376C21.7653 22.4418 22.4819 22.5777 22.7349 23.1376Z" fill="#F56520"/>
<path d="M30.6548 24.4033C30.9373 25.0293 29.6859 25.1012 29.6859 24.4033C29.6866 23.7061 30.4025 23.8455 30.6548 24.4033Z" fill="#F56520"/>
<path d="M23.751 26.6953C24.0241 27.3027 22.813 27.3695 22.813 26.6953C22.813 26.0219 23.5051 26.1563 23.751 26.6953Z" fill="#BA3D02"/>
<path d="M26.759 26.6034C26.9768 27.0849 26.0151 27.1388 26.0151 26.6034C26.0151 26.0679 26.5657 26.1735 26.759 26.6034Z" fill="#BA3D02"/>
<path d="M27.7517 23.7168C27.9695 24.1984 27.0063 24.2523 27.0063 23.7168C27.0063 23.1806 27.5583 23.2849 27.7517 23.7168Z" fill="#BA3D02"/>
<path d="M15.1556 24.0877C15.3734 24.5693 14.4095 24.6239 14.4095 24.0877C14.4095 23.553 14.9615 23.6558 15.1556 24.0877Z" fill="#BA3D02"/>
<path d="M32.3596 26.6033C32.5666 27.0626 31.6516 27.1136 31.6516 26.6033C31.6516 26.0952 32.1756 26.1951 32.3596 26.6033Z" fill="#F56520"/>
<path d="M17.868 27.7009C18.1505 28.3262 16.8992 28.3981 16.8992 27.7009C16.8992 27.0059 17.6172 27.1446 17.868 27.7009Z" fill="#F56520"/>
<path d="M14.05 25.8983C14.3346 26.5243 13.0833 26.5954 13.0833 25.8983C13.0833 25.2025 13.7991 25.3391 14.05 25.8983Z" fill="#F56520"/>
<path d="M10.4981 9.41876C10.5132 7.75054 10.3493 4.8396 11.4174 2.27726C12.1347 1.60882 12.6004 3.25763 12.4703 3.15054C11.4907 5.73517 11.7638 9.35407 11.7638 9.35407C11.7516 10.3919 10.4895 10.1152 10.4981 9.41876Z" fill="#FFD56B"/>
<path d="M8.8284 9.3505C8.69328 7.71894 8.35978 5.50303 9.18778 2.90188C9.72828 2.0056 10.4413 3.26772 10.3018 3.175C9.56368 5.78766 9.87059 9.17656 9.87059 9.17656C9.95468 10.19 8.88374 10.0297 8.8284 9.3505Z" fill="#FFD56B"/>
<path d="M7.31914 8.24216C7.22355 7.0785 7.10711 5.43903 7.53046 3.55663C8.04724 3.03266 8.84649 3.87144 8.72574 3.80819C8.04005 5.68269 8.24058 8.09553 8.24058 8.09553C8.30024 8.8186 7.36155 8.72732 7.31914 8.24216Z" fill="#FFD56B"/>
<path d="M6.9179 9.30805C6.8719 9.05217 14.7508 8.27736 14.6157 7.50973C14.4799 6.74139 6.78565 8.55767 6.66203 7.85617C6.53768 7.15323 14.4468 6.54805 14.3002 5.71573C14.1514 4.88198 6.51396 7.02026 6.39106 6.31589C6.26671 5.61511 14.1191 4.69151 13.9832 3.92317C13.8481 3.15411 6.17974 5.12133 6.13446 4.86545C5.99862 4.09639 13.7115 2.38433 14.8206 2.18955C16.7482 1.84814 17.784 2.64523 18.4251 3.13901C19.0648 3.63351 19.716 3.9663 20.8264 3.77223C31.653 1.86323 39.2811 -1.95405 39.8402 1.21348C40.398 4.37886 31.9239 3.40136 21.0981 5.31036C19.9877 5.50586 19.4896 6.0442 19.0576 6.72558C18.6263 7.40983 17.9256 8.51167 15.9986 8.85308C14.8867 9.04786 7.05303 10.0778 6.9179 9.30805Z" fill="url(#paint2_linear)"/>
<path opacity="0.3" d="M39.139 0.533616C39.0412 -0.364821 28.6855 1.67715 28.7882 2.57415C28.8853 3.47115 39.241 1.4299 39.139 0.533616Z" fill="url(#paint3_radial)"/>
<path d="M7.47934 3.79023C7.44053 4.10289 7.7115 3.99507 7.884 3.93685C8.69259 6.13192 8.70337 7.96042 8.70337 9.42595C8.70337 10.5105 9.87134 10.2964 9.87134 9.55964C9.87134 6.50639 9.59103 5.09117 9.07928 3.52285C8.75512 2.53242 7.59434 2.80626 7.47934 3.79023Z" fill="#FFE485"/>
<path d="M11.6094 9.6286C11.6094 7.95966 11.8027 5.68769 10.7634 3.11457C10.3473 2.08747 9.33166 2.32394 9.10885 3.09732C9.07147 3.43297 9.31226 3.50413 9.51351 3.44735C10.4658 6.04204 10.3444 9.55025 10.3444 9.55025C10.3444 10.5881 11.6094 10.3243 11.6094 9.6286Z" fill="#FFE485"/>
<path d="M13.8359 6.15349C13.792 2.78399 12.9058 1.95599 11.9779 1.95599C11.201 1.95599 11.2355 3.00249 11.569 2.91265C11.7875 2.85443 12.7039 2.96081 12.8016 9.65596C12.9439 19.3979 12.7923 25.5123 13.0187 27.8152C13.4456 28.3183 13.9581 28.2673 13.9581 28.2673C13.7518 23.3072 13.9962 18.6231 13.8359 6.15349Z" fill="url(#paint4_linear)"/>
<path d="M34.5488 38.2802C35.0893 42.3339 30.9838 43.4688 27.3527 41.5699C27.3534 41.5699 31.4136 36.9469 34.5488 38.2802Z" fill="#449C00"/>
<path d="M34.5491 38.2801C30.238 38.4771 27.3529 41.5699 27.3529 41.5699C26.4186 37.2365 32.4776 34.792 34.5491 38.2801Z" fill="#48A600"/>
<path d="M34.4175 38.2679C35.4798 39.7155 38.9449 39.4136 39.8052 36.8678C39.8052 36.8678 35.3015 36.2151 34.4175 38.2679Z" fill="#449C00"/>
<path d="M34.4173 38.268C36.5513 36.4079 39.8051 36.8679 39.8051 36.8679C38.0132 33.9878 34.229 35.255 34.4173 38.268Z" fill="#48A600"/>
<path d="M34.5094 38.196C33.4938 39.2864 34.3146 42.055 36.5176 42.3605C36.5176 42.3605 36.3149 38.5985 34.5094 38.196Z" fill="#51A113"/>
<path d="M34.5094 38.1961C36.3523 39.6458 36.5176 42.3605 36.5176 42.3605C38.5811 40.4551 36.9287 37.5758 34.5094 38.1961Z" fill="#56AB15"/>
<path d="M34.5094 38.1961C32.8326 38.8501 29.9238 36.995 30.4837 34.5721C30.4837 34.5721 34.7933 36.157 34.5094 38.1961Z" fill="#51A113"/>
<path d="M34.5094 38.1961C33.6016 35.725 30.4836 34.5721 30.4836 34.5721C33.5369 33.1274 36.2279 35.8953 34.5094 38.1961Z" fill="#56AB15"/>
<path d="M34.4397 38.3038C33.9265 39.1311 32.5975 38.8882 31.8472 38.4957C31.8472 38.4957 33.5894 37.3723 34.4397 38.3038Z" fill="#56AB15"/>
<path d="M34.4397 38.3038C33.5175 37.4873 31.8472 38.4958 31.8472 38.4958C32.4789 37.3903 34.2967 37.2243 34.4397 38.3038Z" fill="#5CB817"/>
<path d="M34.4397 38.3039C35.3849 38.5447 36.2042 37.5248 36.4752 36.7212C36.4752 36.7212 34.4074 37.0425 34.4397 38.3039Z" fill="#56AB15"/>
<path d="M34.4397 38.3039C34.541 37.0755 36.4752 36.7212 36.4752 36.7212C35.2533 36.3632 33.7978 37.4241 34.4397 38.3039Z" fill="#5CB817"/>
<defs>
<linearGradient id="paint0_linear" x1="22.8707" y1="41.3936" x2="22.8707" y2="25.2076" gradientUnits="userSpaceOnUse">
<stop stop-color="#FFC757"/>
<stop offset="0.171" stop-color="#F8AC47"/>
<stop offset="0.7409" stop-color="#E35514"/>
<stop offset="1" stop-color="#DB3300"/>
</linearGradient>
<radialGradient id="paint1_radial" cx="0" cy="0" r="1" gradientUnits="userSpaceOnUse" gradientTransform="translate(22.6668 22.3259) scale(14.1274 7.25443)">
<stop stop-color="#E8591C"/>
<stop offset="0.2434" stop-color="#E25619"/>
<stop offset="0.5818" stop-color="#D04D12"/>
<stop offset="0.9743" stop-color="#B23F06"/>
<stop offset="1" stop-color="#B03E05"/>
</radialGradient>
<linearGradient id="paint2_linear" x1="22.5956" y1="0.819415" x2="23.7702" y2="7.48295" gradientUnits="userSpaceOnUse">
<stop stop-color="#D3D8DB"/>
<stop offset="0.358" stop-color="#CFD5D8"/>
<stop offset="0.7017" stop-color="#C4CDD1"/>
<stop offset="1" stop-color="#B3C2C6"/>
</linearGradient>
<radialGradient id="paint3_radial" cx="0" cy="0" r="1" gradientUnits="userSpaceOnUse" gradientTransform="translate(33.9611 1.54143) rotate(-11.1557) scale(5.09169 0.593493)">
<stop stop-color="white"/>
<stop offset="1" stop-color="white" stop-opacity="0"/>
</radialGradient>
<linearGradient id="paint4_linear" x1="12.6507" y1="28.2681" x2="12.6507" y2="1.95614" gradientUnits="userSpaceOnUse">
<stop offset="0.1939" stop-color="#F55E1D"/>
<stop offset="0.2889" stop-color="#F98F43"/>
<stop offset="0.391" stop-color="#FCBD67"/>
<stop offset="0.4699" stop-color="#FED97D"/>
<stop offset="0.5152" stop-color="#FFE485"/>
</linearGradient>
</defs>
</svg>
