<svg width="36" height="40" viewBox="0 0 36 40" fill="none" xmlns="http://www.w3.org/2000/svg">
<path d="M2.46631 5.63429C16.4242 16.7683 31.8186 22.52 31.8186 22.52C35.0771 7.44351 5.38214 -1.77328 2.46631 5.63429Z" fill="#D45309"/>
<path d="M2.46647 5.63431C2.48247 8.15483 1.27121 12.0666 1.4092 14.8964C1.57186 18.2029 1.26387 22.7593 1.26387 22.7593L0.65391 30.6942C-0.0907133 38.0077 -0.48669 41.1169 1.08855 39.6416C1.92717 38.8564 3.19376 37.9058 3.19376 37.9058L11.3006 32.9027C11.3006 32.9027 14.6451 31.4008 16.1443 30.5648C17.2943 29.9236 18.9242 28.6303 21.3694 27.6723C23.3239 26.9064 24.5305 26.0711 26.2024 25.3418C29.6109 23.8539 30.6188 22.9606 31.8181 22.5207C31.0675 21.5347 30.5935 19.0782 29.6375 18.4776C28.6803 17.8756 27.6323 15.855 26.8564 15.4664C25.5671 14.8224 25.5298 12.6686 24.1292 12.1413C22.7693 11.628 22.178 9.96672 19.9268 9.55208C18.6095 9.3101 17.6169 7.46621 15.0964 7.24622C13.8185 7.13489 14.6551 6.79624 11.264 6.31161C10.158 6.15295 9.60072 5.04768 7.77616 5.40899C6.76488 5.60765 5.9116 5.02835 4.34636 5.63831C3.42575 5.99896 2.72845 5.77497 2.46647 5.63431Z" fill="url(#paint0_linear)"/>
<path d="M16.5955 16.6703C19.1027 9.74408 31.062 16.3304 26.5222 21.874C21.9965 27.401 14.185 23.3339 16.5955 16.6703Z" fill="#D12A00"/>
<path d="M16.8476 16.8057C19.1995 10.3054 30.4208 16.487 26.161 21.6874C21.916 26.8724 14.5851 23.0566 16.8476 16.8057Z" fill="url(#paint1_radial)"/>
<path d="M3.63294 9.92076C7.58937 3.28115 18.6227 9.47545 13.8323 15.2678C9.15394 20.9221 0.00248361 16.0131 3.63294 9.92076Z" fill="#D12A00"/>
<path d="M3.91746 9.95937C7.65858 3.67907 18.0973 9.53806 13.5669 15.0184C9.13916 20.3668 0.482999 15.7244 3.91746 9.95937Z" fill="url(#paint2_radial)"/>
<path d="M6.0149 25.3572C6.4962 19.1522 16.4063 19.3048 15.9257 25.5098C15.4437 31.7148 5.53359 31.5615 6.0149 25.3572Z" fill="#D12A00"/>
<path d="M6.36199 25.3612C6.81863 19.4842 16.2041 19.6282 15.7481 25.5058C15.2921 31.3815 5.90668 31.2382 6.36199 25.3612Z" fill="url(#paint3_radial)"/>
<path d="M1.26365 22.76C5.43874 24.0826 4.92677 29.9243 0.653687 30.6942L1.26365 22.76Z" fill="#D12A00"/>
<path d="M3.19432 37.9051C3.19432 37.9051 11.1105 33.3334 11.3012 32.9021C7.54074 28.503 0.137171 33.2421 3.19432 37.9051Z" fill="#D12A00"/>
<path d="M17.0136 11.508C18.1915 10.81 19.3455 12.4133 18.1662 13.1106C16.9869 13.8112 15.8357 12.2066 17.0136 11.508Z" fill="#FFC85F"/>
<path d="M21.236 11.4994C22.328 10.8534 23.3939 12.3387 22.304 12.9833C21.214 13.6286 20.1468 12.1433 21.236 11.4994Z" fill="#FFC85F"/>
<path d="M15.6329 10.1407C16.4056 9.68342 17.1622 10.7354 16.3896 11.1953C15.6163 11.6533 14.8603 10.5994 15.6329 10.1407Z" fill="#FFC17A"/>
<path d="M28.9656 19.4955C29.8515 18.9708 30.7221 20.1801 29.8315 20.7047C28.9456 21.2314 28.0756 20.0234 28.9656 19.4955Z" fill="#FFC85F"/>
<path d="M13.4045 19.2662C12.1666 18.5916 13.2812 16.9044 14.5218 17.579C15.761 18.2556 14.6451 19.9422 13.4045 19.2662Z" fill="#FFC85F"/>
<path d="M3.24371 7.34084C2.43042 6.89754 3.16371 5.78893 3.977 6.23291C4.79029 6.67621 4.057 7.78415 3.24371 7.34084Z" fill="#FFC85F"/>
<path d="M15.7516 14.9918C15.1763 14.6785 15.6943 13.8959 16.2682 14.2078C16.8455 14.5238 16.3289 15.3071 15.7516 14.9918Z" fill="#FFC85F"/>
<path d="M4.50486 21.6207C5.04616 20.7687 6.45341 21.506 5.91011 22.3573C5.37014 23.2079 3.96356 22.4706 4.50486 21.6207Z" fill="#FFC85F"/>
<path d="M17.5595 25.0172C18.1734 24.05 19.768 24.8859 19.1547 25.8505C18.5407 26.8171 16.9468 25.9812 17.5595 25.0172Z" fill="#FFC85F"/>
<path d="M2.8344 19.2862C3.40103 18.3949 4.87761 19.1689 4.31031 20.0615C3.74235 20.9548 2.26443 20.1808 2.8344 19.2862Z" fill="#FFC85F"/>
<path d="M16.2943 27.995C16.5796 27.5457 17.3189 27.9324 17.0336 28.3817C16.7503 28.8296 16.009 28.4417 16.2943 27.995Z" fill="#FFC85F"/>
<path d="M11.6304 19.1742C11.997 18.5969 12.9496 19.0982 12.585 19.6722C12.217 20.2508 11.2617 19.7508 11.6304 19.1742Z" fill="#FFC85F"/>
<path d="M7.49624 19.2475C7.7569 18.8395 8.43219 19.1922 8.17154 19.6008C7.91022 20.0094 7.23693 19.6548 7.49624 19.2475Z" fill="#FFC85F"/>
<path d="M4.51573 28.6743C5.04903 27.837 6.43428 28.5603 5.90031 29.4002C5.36901 30.2368 3.98309 29.5122 4.51573 28.6743Z" fill="#FFC85F"/>
<path d="M1.33576 31.6774C1.7324 31.0535 2.76367 31.5955 2.36636 32.2181C1.96972 32.8414 0.940448 32.3027 1.33576 31.6774Z" fill="#FFC85F"/>
<path d="M2.46643 5.63432C5.10161 4.78504 6.79884 5.12169 7.83478 5.00236C10.096 4.73904 12.1819 6.06163 14.0304 6.31095C16.0996 6.5876 16.5216 7.53554 19.0208 8.19151C19.9547 8.43616 21.932 9.86674 23.6325 10.8587C24.8738 11.5833 25.6231 13.5679 26.869 14.4151C28.2769 15.3738 28.8315 17.423 29.9608 18.4262C31.1747 19.5055 31.4907 21.1921 31.8187 22.52C31.8187 22.52 36.5658 21.0254 35.9438 18.7816C32.236 9.03279 25.4751 5.36834 22.0073 3.99775C19.1761 2.87849 11.4492 -1.56859 4.45232 0.579954C-0.154747 2.6705 2.46643 5.63432 2.46643 5.63432Z" fill="url(#paint4_radial)"/>
<path d="M1.22365 23.2959C0.678352 26.7764 0.653687 30.6941 0.653687 30.6941C4.25947 29.9188 5.09076 24.6278 1.22365 23.2959Z" fill="url(#paint5_radial)"/>
<path d="M3.33443 37.7118C3.33443 37.7118 7.36819 34.772 11.0773 32.9761C7.39152 28.723 0.753912 33.2421 3.33443 37.7118Z" fill="url(#paint6_radial)"/>
<path opacity="0.1" d="M10.594 14.0838C9.35472 13.4106 10.47 11.7226 11.7099 12.3966C12.9492 13.0732 11.8339 14.7605 10.594 14.0838Z" fill="white"/>
<path opacity="0.1" d="M6.73478 10.7C7.27608 9.84943 8.68067 10.5867 8.14003 11.44C7.5994 12.29 6.19415 11.552 6.73478 10.7Z" fill="white"/>
<path opacity="0.1" d="M5.59336 13.0912C6.17266 12.1812 7.67923 12.9699 7.1006 13.8825C6.52064 14.7951 5.01272 14.0051 5.59336 13.0912Z" fill="white"/>
<path opacity="0.3" d="M12.2037 11.64C12.4643 11.2314 13.139 11.5847 12.8796 11.9933C12.6183 12.4026 11.943 12.048 12.2037 11.64Z" fill="white"/>
<path opacity="0.3" d="M8.29596 13.3112C8.55661 12.9026 9.23124 13.2559 8.97192 13.6645C8.71061 14.0732 8.03531 13.7185 8.29596 13.3112Z" fill="white"/>
<path opacity="0.3" d="M5.96201 10.1461C6.08334 9.95474 6.39865 10.1201 6.27732 10.3114C6.15533 10.5014 5.84002 10.3361 5.96201 10.1461Z" fill="white"/>
<path opacity="0.3" d="M12.3077 9.5007C12.429 9.30938 12.7444 9.4747 12.623 9.66536C12.501 9.85601 12.1857 9.69069 12.3077 9.5007Z" fill="white"/>
<path opacity="0.3" d="M10.2599 14.6851C10.3812 14.4938 10.6965 14.6592 10.5752 14.8498C10.4532 15.0411 10.1386 14.8758 10.2599 14.6851Z" fill="white"/>
<path opacity="0.3" d="M7.27954 14.8525C7.40086 14.6612 7.71618 14.8265 7.59485 15.0178C7.47286 15.2085 7.15821 15.0425 7.27954 14.8525Z" fill="white"/>
<path opacity="0.3" d="M4.67637 13.9665C4.79769 13.7752 5.11301 13.9405 4.99168 14.1318C4.86969 14.3225 4.55437 14.1565 4.67637 13.9665Z" fill="white"/>
<path opacity="0.3" d="M6.45749 16.2784C6.57882 16.087 6.89413 16.2524 6.77281 16.443C6.65081 16.6337 6.3355 16.4683 6.45749 16.2784Z" fill="white"/>
<path opacity="0.1" d="M3.42782 13.5145C3.68847 13.1059 4.3631 13.4592 4.10378 13.8678C3.84246 14.2771 3.16784 13.9218 3.42782 13.5145Z" fill="white"/>
<path opacity="0.3" d="M6.27753 8.88078C6.53818 8.47214 7.21281 8.82545 6.95349 9.23409C6.69217 9.64274 6.01688 9.28809 6.27753 8.88078Z" fill="white"/>
<path opacity="0.1" d="M9.31342 8.07817C9.57407 7.66953 10.2487 8.02284 9.98938 8.43148C9.72806 8.84079 9.05277 8.48615 9.31342 8.07817Z" fill="white"/>
<path opacity="0.3" d="M9.45087 10.582C9.71152 10.1734 10.3861 10.5267 10.1268 10.9353C9.86551 11.344 9.19022 10.9893 9.45087 10.582Z" fill="white"/>
<path opacity="0.3" d="M11.331 15.2238C11.5916 14.8152 12.2663 15.1685 12.007 15.5771C11.7456 15.9864 11.0703 15.6318 11.331 15.2238Z" fill="white"/>
<path opacity="0.3" d="M3.80294 11.7753C4.06359 11.3667 4.73822 11.72 4.4789 12.1286C4.21758 12.5379 3.54296 12.1826 3.80294 11.7753Z" fill="white"/>
<path opacity="0.5" d="M4.42636 10.8013C4.68701 10.3927 5.36163 10.746 5.10232 11.1546C4.841 11.5633 4.16637 11.2086 4.42636 10.8013Z" fill="#990000"/>
<path opacity="0.5" d="M7.68073 8.26951C7.94138 7.86087 8.61601 8.21418 8.35669 8.62283C8.09537 9.03214 7.42008 8.67749 7.68073 8.26951Z" fill="#990000"/>
<path opacity="0.5" d="M10.6878 8.98613C10.9485 8.57749 11.6231 8.9308 11.3638 9.33944C11.1025 9.74808 10.4272 9.39344 10.6878 8.98613Z" fill="#990000"/>
<path opacity="0.5" d="M11.1191 10.8013C11.3798 10.3927 12.0544 10.746 11.7951 11.1546C11.5337 11.5633 10.8591 11.2086 11.1191 10.8013Z" fill="#990000"/>
<path opacity="0.5" d="M13.2289 10.8927C13.4896 10.484 14.1642 10.8374 13.9049 11.246C13.6436 11.6553 12.9683 11.3007 13.2289 10.8927Z" fill="#990000"/>
<path opacity="0.5" d="M12.9658 13.3112C13.2264 12.9026 13.9011 13.2559 13.6417 13.6645C13.3804 14.0732 12.7058 13.7185 12.9658 13.3112Z" fill="#990000"/>
<path opacity="0.5" d="M9.31259 15.3785C9.57324 14.9698 10.2479 15.3231 9.98855 15.7318C9.72723 16.1404 9.0526 15.7864 9.31259 15.3785Z" fill="#990000"/>
<path opacity="0.5" d="M8.108 16.3504C8.36865 15.9417 9.04327 16.2951 8.78396 16.7037C8.52264 17.1123 7.84801 16.7577 8.108 16.3504Z" fill="#990000"/>
<path opacity="0.5" d="M5.21967 15.2765C5.48032 14.8678 6.15495 15.2211 5.89563 15.6298C5.63431 16.0391 4.95902 15.6838 5.21967 15.2765Z" fill="#990000"/>
<path opacity="0.5" d="M8.68478 12.1533C8.94543 11.7447 9.62006 12.098 9.36074 12.5066C9.09942 12.9153 8.42479 12.5606 8.68478 12.1533Z" fill="#990000"/>
<path opacity="0.5" d="M4.8924 9.55339C5.15305 9.14475 5.82768 9.49806 5.56836 9.9067C5.30704 10.3153 4.63175 9.9607 4.8924 9.55339Z" fill="#990000"/>
<path opacity="0.1" d="M23.5953 19.1909C22.28 19.6202 21.8014 17.7849 23.116 17.3563C24.4332 16.9297 24.9125 18.7642 23.5953 19.1909Z" fill="white"/>
<path opacity="0.1" d="M17.988 18.8769C17.7314 17.9662 19.2033 17.4636 19.462 18.3762C19.7173 19.2862 18.2447 19.7888 17.988 18.8769Z" fill="white"/>
<path opacity="0.1" d="M20.3088 21.7081C20.0355 20.7328 21.6121 20.1935 21.888 21.1688C22.1627 22.1447 20.5848 22.6854 20.3088 21.7081Z" fill="white"/>
<path opacity="0.3" d="M24.2031 16.6483C24.0804 16.211 24.7877 15.9684 24.911 16.4063C25.0324 16.8443 24.3251 17.085 24.2031 16.6483Z" fill="white"/>
<path opacity="0.3" d="M22.3291 20.4001C22.2058 19.9621 22.9124 19.7195 23.0357 20.1575C23.1577 20.5961 22.4504 20.8368 22.3291 20.4001Z" fill="white"/>
<path opacity="0.3" d="M20.5407 17.7903C20.4834 17.5856 20.8127 17.4723 20.87 17.677C20.9274 17.8809 20.5967 17.9943 20.5407 17.7903Z" fill="white"/>
<path opacity="0.3" d="M19.384 16.779C19.3267 16.5744 19.656 16.4617 19.7133 16.6664C19.7706 16.871 19.44 16.983 19.384 16.779Z" fill="white"/>
<path opacity="0.3" d="M21.0206 14.6131C20.9633 14.4085 21.2926 14.2965 21.3499 14.5005C21.4072 14.7058 21.0766 14.8178 21.0206 14.6131Z" fill="white"/>
<path opacity="0.3" d="M25.1264 17.6256C25.0691 17.421 25.3984 17.3083 25.4564 17.5123C25.5137 17.7163 25.1831 17.8289 25.1264 17.6256Z" fill="white"/>
<path opacity="0.3" d="M21.6051 22.6233C21.5477 22.4187 21.877 22.306 21.9344 22.5107C21.9917 22.7153 21.6617 22.8273 21.6051 22.6233Z" fill="white"/>
<path opacity="0.3" d="M19.8166 22.986C19.7586 22.782 20.0886 22.6687 20.1459 22.8727C20.2033 23.0773 19.8726 23.19 19.8166 22.986Z" fill="white"/>
<path opacity="0.3" d="M19.3426 21.3307C19.2853 21.1261 19.6146 21.0134 19.6726 21.2181C19.7293 21.4227 19.3993 21.5347 19.3426 21.3307Z" fill="white"/>
<path opacity="0.3" d="M25.8057 20.7401C25.7484 20.5354 26.0777 20.4228 26.1364 20.6267C26.1924 20.8321 25.8631 20.9447 25.8057 20.7401Z" fill="white"/>
<path opacity="0.3" d="M17.0833 17.6656C17.026 17.461 17.3553 17.3483 17.414 17.5523C17.47 17.7569 17.14 17.8696 17.0833 17.6656Z" fill="white"/>
<path opacity="0.1" d="M16.8955 18.7475C16.7715 18.3096 17.4788 18.0676 17.6015 18.5049C17.7235 18.9435 17.0168 19.1842 16.8955 18.7475Z" fill="white"/>
<path opacity="0.1" d="M18.5894 15.5371C18.4668 15.0985 19.1734 14.8565 19.2967 15.2945C19.4194 15.7331 18.7121 15.9744 18.5894 15.5371Z" fill="white"/>
<path opacity="0.3" d="M24.5712 20.1728C24.4472 19.7341 25.1545 19.4921 25.2778 19.9301C25.3998 20.3681 24.6925 20.6087 24.5712 20.1728Z" fill="white"/>
<path opacity="0.3" d="M21.7286 15.3244C21.6053 14.8864 22.3126 14.6444 22.4359 15.0817C22.5579 15.5197 21.8499 15.761 21.7286 15.3244Z" fill="white"/>
<path opacity="0.3" d="M17.8308 21.9274C17.7081 21.4901 18.4141 21.2474 18.5381 21.6847C18.6601 22.1234 17.9521 22.364 17.8308 21.9274Z" fill="white"/>
<path opacity="0.5" d="M19.9235 15.5224C19.8009 15.0845 20.5082 14.8425 20.6308 15.2798C20.7528 15.7178 20.0455 15.9591 19.9235 15.5224Z" fill="#990000"/>
<path opacity="0.5" d="M21.8164 17.2017C21.6937 16.7644 22.401 16.5217 22.5236 16.9597C22.6456 17.3977 21.9383 17.639 21.8164 17.2017Z" fill="#990000"/>
<path opacity="0.5" d="M23.003 15.5217C22.8797 15.0837 23.587 14.8418 23.7103 15.2791C23.8316 15.7177 23.125 15.959 23.003 15.5217Z" fill="#990000"/>
<path opacity="0.5" d="M25.6178 18.5442C25.4945 18.1062 26.2011 17.8635 26.3244 18.3015C26.4471 18.7395 25.7391 18.9808 25.6178 18.5442Z" fill="#990000"/>
<path opacity="0.5" d="M24.3991 21.828C24.2758 21.3901 24.9831 21.1474 25.1064 21.5854C25.2284 22.024 24.5205 22.2647 24.3991 21.828Z" fill="#990000"/>
<path opacity="0.5" d="M22.7744 22.1114C22.6517 21.6741 23.3577 21.4307 23.4817 21.8687C23.6037 22.3067 22.8964 22.548 22.7744 22.1114Z" fill="#990000"/>
<path opacity="0.5" d="M21.7634 23.2779C21.6401 22.84 22.3467 22.5973 22.4707 23.0353C22.5927 23.4733 21.8847 23.7139 21.7634 23.2779Z" fill="#990000"/>
<path opacity="0.5" d="M20.2761 23.2886C20.1534 22.8513 20.8607 22.6087 20.984 23.0467C21.1054 23.484 20.3987 23.7253 20.2761 23.2886Z" fill="#990000"/>
<path opacity="0.5" d="M20.7446 19.1982C20.6219 18.7603 21.3279 18.5183 21.4519 18.9556C21.5739 19.3942 20.8673 19.6349 20.7446 19.1982Z" fill="#990000"/>
<path opacity="0.5" d="M19.1956 20.2481C19.073 19.8108 19.7789 19.5682 19.9029 20.0061C20.0249 20.4441 19.3183 20.6854 19.1956 20.2481Z" fill="#990000"/>
<path opacity="0.5" d="M18.0036 17.0069C17.881 16.569 18.5869 16.3263 18.7109 16.7643C18.8336 17.2023 18.1263 17.4442 18.0036 17.0069Z" fill="#990000"/>
<path opacity="0.5" d="M17.4636 20.2221C17.3409 19.7848 18.0469 19.5422 18.1709 19.9801C18.2929 20.4181 17.5849 20.6594 17.4636 20.2221Z" fill="#990000"/>
<path opacity="0.3" d="M1.26571 27.3764C1.20838 27.1718 1.53769 27.0584 1.59569 27.2631C1.65302 27.4677 1.32237 27.5804 1.26571 27.3764Z" fill="white"/>
<path opacity="0.3" d="M2.40365 28.6123C2.34632 28.4077 2.67563 28.2943 2.73363 28.499C2.79096 28.7036 2.46031 28.8163 2.40365 28.6123Z" fill="white"/>
<path opacity="0.3" d="M2.83309 26.3391C2.77576 26.1345 3.10507 26.0225 3.16307 26.2271C3.2204 26.4311 2.88975 26.5431 2.83309 26.3391Z" fill="white"/>
<path opacity="0.1" d="M1.07846 28.5883C0.955802 28.1503 1.66176 27.9077 1.78509 28.3456C1.90708 28.7843 1.19979 29.0249 1.07846 28.5883Z" fill="white"/>
<path opacity="0.1" d="M1.97861 27.5424C1.75329 26.7397 3.04788 26.2958 3.27387 27.0977C3.49786 27.9003 2.20127 28.343 1.97861 27.5424Z" fill="white"/>
<path opacity="0.3" d="M1.57028 24.2659C1.44696 23.8286 2.15425 23.5859 2.27757 24.0239C2.39957 24.4619 1.69228 24.7039 1.57028 24.2659Z" fill="white"/>
<path opacity="0.5" d="M1.85643 25.7505C1.7331 25.3132 2.43973 25.0705 2.56305 25.5085C2.68571 25.9472 1.97842 26.1878 1.85643 25.7505Z" fill="#990000"/>
<path opacity="0.5" d="M1.07846 29.9215C0.955801 29.4836 1.66176 29.2409 1.78575 29.6789C1.90775 30.1169 1.20045 30.3582 1.07846 29.9215Z" fill="#990000"/>
<path opacity="0.1" d="M9.41588 25.9225C10.7318 25.4952 11.2078 27.3317 9.89252 27.7584C8.57393 28.1823 8.09796 26.3471 9.41588 25.9225Z" fill="white"/>
<path opacity="0.1" d="M13.0939 26.2818C13.3485 27.1931 11.8766 27.693 11.6193 26.7804C11.3646 25.8705 12.8385 25.3705 13.0939 26.2818Z" fill="white"/>
<path opacity="0.1" d="M12.7192 22.7807C12.9912 23.7546 11.414 24.2926 11.1393 23.316C10.8653 22.34 12.4452 21.8014 12.7192 22.7807Z" fill="white"/>
<path opacity="0.1" d="M9.77462 28.5223C9.89594 28.9596 9.18932 29.2009 9.06666 28.763C8.94533 28.325 9.65329 28.085 9.77462 28.5223Z" fill="white"/>
<path opacity="0.3" d="M14.6117 24.0246C14.7331 24.4626 14.0271 24.7039 13.9045 24.2653C13.7825 23.8273 14.4904 23.588 14.6117 24.0246Z" fill="white"/>
<path opacity="0.3" d="M10.6626 28.981C10.7192 29.1856 10.3899 29.2976 10.3319 29.093C10.2759 28.8883 10.6059 28.7763 10.6626 28.981Z" fill="white"/>
<path opacity="0.3" d="M14.4231 27.8823C14.4798 28.087 14.1505 28.1996 14.0932 27.995C14.0372 27.7903 14.3671 27.679 14.4231 27.8823Z" fill="white"/>
<path opacity="0.3" d="M10.2499 25.2738C10.3066 25.4785 9.97729 25.5912 9.91996 25.3865C9.86329 25.1812 10.1939 25.0692 10.2499 25.2738Z" fill="white"/>
<path opacity="0.3" d="M10.2534 23.376C10.3107 23.58 9.9807 23.6933 9.92337 23.4886C9.86671 23.284 10.1974 23.1727 10.2534 23.376Z" fill="white"/>
<path opacity="0.3" d="M11.4665 21.7494C11.5232 21.954 11.1939 22.0673 11.1359 21.8627C11.0799 21.6574 11.4099 21.5454 11.4665 21.7494Z" fill="white"/>
<path opacity="0.3" d="M12.9983 21.4568C13.0557 21.6608 12.7257 21.7734 12.6684 21.5688C12.6117 21.3641 12.9424 21.2515 12.9983 21.4568Z" fill="white"/>
<path opacity="0.3" d="M13.4692 23.1113C13.5259 23.316 13.1959 23.4293 13.1386 23.224C13.0819 23.0193 13.4126 22.9067 13.4692 23.1113Z" fill="white"/>
<path opacity="0.3" d="M13.8116 25.3765C13.8689 25.5811 13.5389 25.6938 13.4816 25.4898C13.4256 25.2845 13.7556 25.1725 13.8116 25.3765Z" fill="white"/>
<path opacity="0.3" d="M7.48485 23.3966C7.54218 23.6012 7.2122 23.7132 7.1542 23.5092C7.0982 23.3039 7.42818 23.1919 7.48485 23.3966Z" fill="white"/>
<path opacity="0.3" d="M14.9056 26.4744C14.9629 26.6791 14.6329 26.7924 14.5756 26.5878C14.5189 26.3825 14.8496 26.2705 14.9056 26.4744Z" fill="white"/>
<path opacity="0.3" d="M8.58329 24.6199C8.70595 25.0578 7.99866 25.2992 7.876 24.8612C7.75467 24.4232 8.46196 24.1826 8.58329 24.6199Z" fill="white"/>
<path opacity="0.3" d="M9.63937 21.8693C9.76069 22.3066 9.05407 22.548 8.93141 22.11C8.81008 21.672 9.51804 21.4314 9.63937 21.8693Z" fill="white"/>
<path opacity="0.3" d="M12.8192 24.3766C12.9418 24.8145 12.2345 25.0552 12.1112 24.6172C11.9905 24.1799 12.6978 23.9393 12.8192 24.3766Z" fill="white"/>
<path opacity="0.3" d="M8.33136 28.1703C8.45402 28.6083 7.74673 28.8496 7.62407 28.4117C7.50208 27.973 8.20937 27.733 8.33136 28.1703Z" fill="white"/>
<path opacity="0.1" d="M7.84465 25.8991C7.96665 26.3371 7.26002 26.5784 7.13736 26.1405C7.01537 25.7018 7.72333 25.4612 7.84465 25.8991Z" fill="white"/>
<path opacity="0.5" d="M14.7783 22.9226C14.8603 23.2166 14.3856 23.3786 14.3036 23.084C14.2223 22.79 14.697 22.6287 14.7783 22.9226Z" fill="#990000"/>
<path opacity="0.5" d="M15.3476 25.5091C15.4696 25.9471 14.7623 26.1884 14.6397 25.7505C14.5183 25.3118 15.2256 25.0718 15.3476 25.5091Z" fill="#990000"/>
<path opacity="0.5" d="M13.1871 28.4183C13.3084 28.8556 12.6018 29.0969 12.4791 28.6589C12.3578 28.221 13.0658 27.981 13.1871 28.4183Z" fill="#990000"/>
<path opacity="0.5" d="M7.47683 26.9431C7.59883 27.3817 6.8922 27.6224 6.76954 27.1844C6.64822 26.7458 7.35617 26.5058 7.47683 26.9431Z" fill="#990000"/>
<path opacity="0.5" d="M8.98005 23.312C9.10205 23.7499 8.39542 23.9906 8.27209 23.5526C8.15143 23.1147 8.85873 22.8747 8.98005 23.312Z" fill="#990000"/>
<path opacity="0.5" d="M10.4832 22.5747C10.6052 23.012 9.89856 23.2533 9.7759 22.8153C9.65391 22.3773 10.3625 22.1374 10.4832 22.5747Z" fill="#990000"/>
<path opacity="0.5" d="M12.5385 21.5867C12.6605 22.0241 11.9539 22.2654 11.8306 21.8274C11.7093 21.3888 12.4172 21.1494 12.5385 21.5867Z" fill="#990000"/>
<path opacity="0.5" d="M11.3231 24.9719C11.4458 25.4105 10.7392 25.6505 10.6159 25.2125C10.4945 24.7746 11.2025 24.5346 11.3231 24.9719Z" fill="#990000"/>
<path opacity="0.5" d="M11.6552 27.845C11.7772 28.283 11.0706 28.5243 10.9473 28.0863C10.8259 27.6477 11.5339 27.407 11.6552 27.845Z" fill="#990000"/>
<path opacity="0.5" d="M14.5277 26.9564C14.6497 27.3937 13.9431 27.635 13.8197 27.197C13.6984 26.7584 14.4057 26.5184 14.5277 26.9564Z" fill="#990000"/>
<path opacity="0.1" d="M4.74096 34.3C6.05688 33.8734 6.53285 35.7093 5.2176 36.1359C3.89968 36.5606 3.4237 34.7253 4.74096 34.3Z" fill="white"/>
<path opacity="0.1" d="M8.62403 32.9854C8.89601 33.9607 7.31877 34.4987 7.04412 33.522C6.77014 32.5454 8.34938 32.0081 8.62403 32.9854Z" fill="white"/>
<path opacity="0.3" d="M7.76146 31.9994C7.81812 32.2041 7.48881 32.3168 7.43081 32.1121C7.37481 31.9075 7.70479 31.7955 7.76146 31.9994Z" fill="white"/>
<path opacity="0.3" d="M9.3421 31.9481C9.39943 32.1527 9.06945 32.2647 9.01212 32.0608C8.95546 31.8554 9.2861 31.7434 9.3421 31.9481Z" fill="white"/>
<path opacity="0.3" d="M9.34189 33.3607C9.39855 33.5661 9.06857 33.6787 9.01124 33.4741C8.95525 33.2694 9.28589 33.1568 9.34189 33.3607Z" fill="white"/>
<path opacity="0.3" d="M3.24703 35.6993C3.30436 35.9039 2.97438 36.0166 2.91705 35.8119C2.85972 35.6066 3.19037 35.4946 3.24703 35.6993Z" fill="white"/>
<path opacity="0.1" d="M5.33287 33.2967C5.4542 33.734 4.74757 33.9753 4.62491 33.5374C4.50292 33.0994 5.21088 32.8594 5.33287 33.2967Z" fill="white"/>
<path opacity="0.3" d="M6.85743 33.9547C6.94476 34.2747 6.46079 34.4427 6.37213 34.1227C6.28614 33.8021 6.77011 33.6341 6.85743 33.9547Z" fill="white"/>
<path opacity="0.5" d="M10.2952 32.6028C10.4172 33.0407 9.71057 33.282 9.58791 32.8434C9.46592 32.4061 10.1745 32.1654 10.2952 32.6028Z" fill="#990000"/>
<path opacity="0.5" d="M4.11959 33.622C4.24158 34.06 3.53496 34.3013 3.41163 33.8633C3.29031 33.4247 3.99826 33.1847 4.11959 33.622Z" fill="#990000"/>
<path opacity="0.5" d="M6.51506 32.3468C6.63706 32.7847 5.93043 33.026 5.80777 32.5881C5.68578 32.1501 6.39374 31.9101 6.51506 32.3468Z" fill="#990000"/>
<path opacity="0.5" d="M8.83334 31.8361C8.95533 32.2735 8.2487 32.5148 8.12538 32.0768C8.00405 31.6388 8.71201 31.3988 8.83334 31.8361Z" fill="#990000"/>
<path d="M21.6807 26.5944C20.6675 26.4251 20.8448 24.8818 21.8594 25.0492C22.8753 25.2212 22.698 26.7644 21.6807 26.5944Z" fill="#FFC17A"/>
<path d="M12.2666 31.6448C11.2533 31.4755 11.4306 29.9329 12.4452 30.1015C13.4605 30.2709 13.2818 31.8148 12.2666 31.6448Z" fill="#FFC17A"/>
<path d="M2.95376 22.434C2.46313 22.3506 2.54912 21.602 3.04109 21.684C3.5324 21.7667 3.4464 22.5153 2.95376 22.434Z" fill="#FFC17A"/>
<path d="M0.981686 35.6992C0.490381 35.6166 0.577043 34.868 1.06835 34.9493C1.56032 35.0326 1.47366 35.7806 0.981686 35.6992Z" fill="#FFC17A"/>
<path d="M2.92973 17.7037C2.16511 17.5743 2.2991 16.4097 3.06439 16.5371C3.83168 16.6664 3.69702 17.8323 2.92973 17.7037Z" fill="#FFC17A"/>
<path d="M7.12577 20.9914C6.36181 20.8621 6.49581 19.6975 7.26043 19.8248C8.02772 19.9548 7.89372 21.1208 7.12577 20.9914Z" fill="#FFC17A"/>
<path d="M19.5906 11.1813C19.0373 11.088 19.1347 10.2447 19.6886 10.3354C20.2433 10.4307 20.1466 11.274 19.5906 11.1813Z" fill="#FFC17A"/>
<path d="M15.4118 9.45548C14.3979 9.28415 14.5752 7.74091 15.5905 7.91023C16.6051 8.08222 16.4271 9.62547 15.4118 9.45548Z" fill="#FFC85F"/>
<path d="M5.6609 6.83156C4.96894 6.71423 5.09093 5.65829 5.78356 5.77362C6.47818 5.89094 6.35686 6.94755 5.6609 6.83156Z" fill="#FFC17A"/>
<path d="M28.5323 22.514C27.843 22.3967 27.963 21.3474 28.6536 21.4634C29.3442 21.5794 29.2222 22.6273 28.5323 22.514Z" fill="#FFC17A"/>
<path d="M15.3436 21.4127C14.7963 21.3207 14.8916 20.4874 15.4402 20.5788C15.9889 20.6701 15.8915 21.5047 15.3436 21.4127Z" fill="#FFC17A"/>
<defs>
<linearGradient id="paint0_linear" x1="-4.25406" y1="35.4043" x2="21.6298" y2="9.43615" gradientUnits="userSpaceOnUse">
<stop stop-color="#FFDC91"/>
<stop offset="1" stop-color="#FFD06B"/>
</linearGradient>
<radialGradient id="paint1_radial" cx="0" cy="0" r="1" gradientUnits="userSpaceOnUse" gradientTransform="translate(21.5835 19.1886) rotate(26.9083) scale(5.19972 4.81541)">
<stop offset="0.6364" stop-color="#B50000"/>
<stop offset="0.7087" stop-color="#B90804"/>
<stop offset="0.8183" stop-color="#C31D0E"/>
<stop offset="0.951" stop-color="#D43F20"/>
<stop offset="1" stop-color="#DB4D27"/>
</radialGradient>
<radialGradient id="paint2_radial" cx="0" cy="0" r="1" gradientUnits="userSpaceOnUse" gradientTransform="translate(8.84617 12.3949) rotate(4.98538) scale(5.45339 4.86644)">
<stop offset="0.6364" stop-color="#B50000"/>
<stop offset="0.7087" stop-color="#B90804"/>
<stop offset="0.8183" stop-color="#C31D0E"/>
<stop offset="0.951" stop-color="#D43F20"/>
<stop offset="1" stop-color="#DB4D27"/>
</radialGradient>
<radialGradient id="paint3_radial" cx="0" cy="0" r="1" gradientUnits="userSpaceOnUse" gradientTransform="translate(11.0547 25.4317) rotate(-27.5132) scale(4.62065 4.25447)">
<stop offset="0.6364" stop-color="#B50000"/>
<stop offset="0.7087" stop-color="#B90804"/>
<stop offset="0.8183" stop-color="#C31D0E"/>
<stop offset="0.951" stop-color="#D43F20"/>
<stop offset="1" stop-color="#DB4D27"/>
</radialGradient>
<radialGradient id="paint4_radial" cx="0" cy="0" r="1" gradientUnits="userSpaceOnUse" gradientTransform="translate(18.552 12.4686) rotate(28.6463) scale(26.7622 9.52076)">
<stop offset="0.4" stop-color="#B55923"/>
<stop offset="0.5065" stop-color="#CE7633"/>
<stop offset="0.6719" stop-color="#F29F49"/>
<stop offset="0.7576" stop-color="#FFAE52"/>
</radialGradient>
<radialGradient id="paint5_radial" cx="0" cy="0" r="1" gradientUnits="userSpaceOnUse" gradientTransform="translate(0.709683 26.808) scale(2.83417 3.50643)">
<stop offset="0.6364" stop-color="#B50000"/>
<stop offset="0.7087" stop-color="#B90804"/>
<stop offset="0.8183" stop-color="#C31D0E"/>
<stop offset="0.951" stop-color="#D43F20"/>
<stop offset="1" stop-color="#DB4D27"/>
</radialGradient>
<radialGradient id="paint6_radial" cx="0" cy="0" r="1" gradientUnits="userSpaceOnUse" gradientTransform="translate(7.18724 35.4716) rotate(60.4134) scale(3.80317 4.21073)">
<stop offset="0.6364" stop-color="#B50000"/>
<stop offset="0.7087" stop-color="#B90804"/>
<stop offset="0.8183" stop-color="#C31D0E"/>
<stop offset="0.951" stop-color="#D43F20"/>
<stop offset="1" stop-color="#DB4D27"/>
</radialGradient>
</defs>
</svg>
