<svg width="64" height="64" viewBox="0 0 64 64" fill="none" xmlns="http://www.w3.org/2000/svg">
<circle cx="32" cy="32" r="32" fill="#F6F7F9"/>
<path d="M32.0003 48.6553C19.3246 48.6553 8.55925 37.9841 9.01493 30.3425C9.43971 23.186 54.5616 23.186 54.9863 30.3425C55.4406 37.9841 44.676 48.6553 32.0003 48.6553Z" fill="#C3C9CF"/>
<path d="M32.0005 44.0851C19.3255 44.0851 9.01514 37.9176 9.01514 30.3427C9.01514 22.7679 19.3255 16.604 32.0005 16.604C44.6762 16.604 54.9858 22.7672 54.9858 30.342C54.9858 37.9168 44.6762 44.0851 32.0005 44.0851Z" fill="#D2D7DB"/>
<path d="M54.5973 30.0344C54.5973 37.3886 44.4817 43.3505 32.0001 43.3505C19.5213 43.3505 9.40283 37.3886 9.40283 30.0344C9.40283 22.6838 19.5213 16.7197 32.0001 16.7197C44.4817 16.719 54.5973 22.6838 54.5973 30.0344Z" fill="#FAFDFF"/>
<path d="M52.1488 29.8663C52.6447 31.7407 50.9916 34.1449 49.3155 36.1581C47.5704 38.2561 44.9413 39.4866 41.4058 40.9571C38.5596 42.1409 32.7629 42.4377 29.2468 42.2329C26.3381 42.0618 22.2226 41.3244 20.039 39.9178C7.91963 32.1116 11.8864 30.1537 21.6462 20.5959C22.4497 19.5818 27.4507 19.4625 28.7099 19.1865C30.6412 18.7631 36.8389 19.8894 38.3454 19.888C41.8938 19.888 44.3792 21.4476 47.1809 22.6127C48.3265 23.0928 48.3136 24.4089 49.5736 25.0607C51.0484 25.8276 51.6356 27.9343 52.1488 29.8663Z" fill="url(#paint0_linear)"/>
<path d="M34.7288 20.3241L34.9243 18.8953C30.7046 18.0429 30.8117 14.9882 29.9298 15.7005C29.9269 15.6983 29.942 20.4672 34.7288 20.3241Z" fill="#CC0000"/>
<path d="M32.7039 19.7346C32.7039 19.7346 32.8807 18.4905 32.5601 18.5681C28.367 19.5937 27.4837 16.7497 26.6377 17.7768C26.637 17.7789 27.5153 21.9146 32.7039 19.7346Z" fill="#DE0000"/>
<path d="M24.9477 17.9118C24.9469 17.9118 23.9759 21.1483 29.2285 21.1131C29.2285 21.1131 29.9968 20.1428 29.7345 20.1428C26.3873 20.1428 26.0531 17.4396 24.9477 17.9118Z" fill="#FF1F1F"/>
<path d="M35.5698 16.9174C35.5726 16.9188 36.4883 20.6577 31.5944 20.6405C31.5944 20.6405 31.0029 20.2229 31.2882 20.1697C34.5628 19.5516 34.5377 16.3755 35.5698 16.9174Z" fill="#FF1F1F"/>
<path d="M35.605 19.5039C36.0219 19.4989 34.8712 23.0552 30.2734 21.2763C30.2734 21.2763 30.0498 20.3355 30.369 20.3305C33.2446 20.2802 34.4945 19.5125 35.605 19.5039Z" fill="#ED0000"/>
<path d="M31.8357 19.5006C31.9428 19.1211 30.5369 18.8508 30.3651 19.2008C28.978 22.0456 25.2829 20.4464 25.5826 21.5648C25.5805 21.5655 30.5333 24.0473 31.8357 19.5006Z" fill="#FF3C00"/>
<path opacity="0.9" d="M31.7422 24.8204C32.397 25.1115 33.0108 24.99 33.6339 25.8295C33.7058 25.9258 34.0436 25.1252 33.9013 24.944C33.276 24.1577 32.734 24.2619 32.0419 23.9277C31.9463 24.2267 31.8464 24.525 31.7422 24.8204Z" fill="#E6A868"/>
<path d="M37.2408 24.3993C37.1229 24.1449 35.8277 24.2397 35.5201 24.3741C34.751 24.7098 34.3493 25.0303 34.0769 25.734C33.9561 26.0466 34.0474 27.6228 34.1681 27.8054C34.4233 28.195 35.3735 28.6902 35.6617 28.6923C36.4329 28.7009 37.8431 25.711 37.2408 24.3993Z" fill="#F0A000"/>
<path d="M38.8865 27.5774C38.4639 28.5873 35.7384 28.8489 35.5135 28.6757C35.2979 28.5111 34.8228 26.4526 35.047 25.8632C35.236 25.3594 36.6297 24.3223 37.0516 24.3223C38.0319 24.323 39.2308 26.4318 38.8865 27.5774Z" fill="#F9B700"/>
<path d="M36.1538 24.3999C36.1545 24.3992 33.8237 24.6155 34.4353 27.0758C34.4511 25.4507 35.3833 24.9102 36.1538 24.3999Z" fill="#F0B100"/>
<path d="M35.762 22.7673C35.8095 22.9183 36.0064 23.2999 36.1063 23.3869C36.3708 23.6255 37.2721 24.3773 37.8033 24.3895C38.3351 24.4025 39.5239 23.6657 39.8344 23.2194C40.109 22.8248 40.0932 21.5972 39.8898 21.0883C39.8193 20.9072 39.46 20.4717 39.2113 20.2913C38.7772 19.975 35.4947 21.8883 35.762 22.7673Z" fill="#D13200"/>
<path d="M35.9761 20.6995C35.6642 21.1473 35.5061 22.2843 35.762 22.768C36.0178 23.2482 37.0499 23.9001 37.5825 23.9116C38.1137 23.9252 39.1745 23.3251 39.4498 22.8543C39.7273 22.3828 39.7553 20.9417 39.4426 20.4961C39.2522 20.2258 38.2474 19.7227 37.7162 19.7544C37.1844 19.7845 36.2895 20.2524 35.9761 20.6995Z" fill="#FF6A00"/>
<path d="M36.8273 20.8365C36.9352 21.3181 38.1419 20.7646 38.3424 20.2917C38.4783 19.969 36.7217 20.3715 36.8273 20.8365Z" fill="#FF9900"/>
<path opacity="0.9" d="M33.5041 21.7006C34.6066 22.7809 35.6459 21.9263 36.8836 23.0979C37.0403 23.2509 36.7671 24.1005 36.5932 23.9697C35.1205 22.8556 34.2803 23.5722 33.2007 22.5883C33.0247 22.428 33.4164 21.6151 33.5041 21.7006Z" fill="#E6A868"/>
<path opacity="0.9" d="M47.7334 32.2453C51.8813 33.0755 52.1026 30.8359 50.5092 28.9125C50.3065 28.666 49.6273 28.6279 49.802 28.8809C51.1295 30.8222 50.6867 31.7976 47.3604 31.3088C47.0039 31.2571 47.5501 32.2072 47.7334 32.2453Z" fill="#E6A868"/>
<path opacity="0.9" d="M46.4291 25.1154C47.4102 26.3883 48.5163 25.6774 49.6196 27.0675C49.7626 27.2443 49.4097 28.0687 49.2523 27.9055C47.909 26.5435 47.0106 27.1415 46.0453 25.9721C45.8828 25.7816 46.35 25.0126 46.4291 25.1154Z" fill="#E6A868"/>
<path d="M42.4149 21.2878C42.5169 21.0686 43.2687 20.996 43.5347 21.1117C44.2045 21.4028 45.9719 22.4723 46.2062 23.0811C46.3104 23.3492 46.2328 24.7133 46.1279 24.8722C45.9065 25.2107 45.5543 25.3789 45.3064 25.3811C44.9801 24.0801 41.8923 22.4234 42.4149 21.2878Z" fill="#F0A000"/>
<path d="M41.3749 23.557C41.7415 24.4317 44.3009 24.5381 45.3064 25.3811C45.4919 25.2395 45.7219 23.7949 45.5012 23.2946C45.2489 22.7189 43.133 21.1118 42.7664 21.1118C41.9176 21.1118 41.0781 22.5644 41.3749 23.557Z" fill="#F9B700"/>
<path opacity="0.9" d="M38.4346 26.5047C39.0463 22.2764 42.1606 22.2131 44.0868 23.9503C44.3355 24.1717 44.1055 24.8581 43.8367 24.6633C41.7696 23.1913 40.2732 23.5679 39.5401 26.946C39.4624 27.3068 38.4066 26.6916 38.4346 26.5047Z" fill="#E6A868"/>
<path d="M41.4234 23.4844C41.6749 23.4204 42.4159 23.5448 42.5971 23.7086C42.7652 23.8639 43.0182 24.1442 43.2576 24.464C43.2957 24.5122 43.1742 24.6286 43.2109 24.6775C43.2389 24.7206 43.356 24.7307 43.3848 24.7709C43.5264 24.9801 43.4394 25.029 43.5515 25.2525C43.5587 25.269 43.5911 25.5026 43.599 25.5199C43.6162 25.5616 43.6392 25.7132 43.6579 25.7535C43.7449 25.9612 43.3855 26.1847 43.4725 26.2429C43.6392 26.3529 43.0067 27.2434 42.8141 27.334C42.403 27.5316 41.6627 27.615 41.5872 27.5374C39.9255 25.8706 40.4308 24.5388 41.4234 23.4844Z" fill="#8C4E2A"/>
<path d="M40.3801 25.3455C40.2091 26.1217 41.3526 27.6663 41.625 27.6067C41.8859 27.5513 42.7225 26.3877 42.8109 25.9421C42.8239 25.8759 41.7508 26.5523 41.8478 26.4538C42.3926 25.891 42.7038 25.6596 42.6708 25.5626C42.6456 25.4878 42.2345 25.7322 41.7335 26.0434C41.6487 26.0944 42.6722 25.2506 42.6413 25.1831C42.6046 25.104 42.3696 24.7497 42.3279 24.6713C42.2884 24.5959 41.7803 25.0947 41.3756 25.357C41.1068 25.5302 42.2927 24.4751 42.2611 24.4198C42.2338 24.373 40.5203 25.6431 40.6123 25.5532C41.4813 24.7087 42.1159 24.133 42.0843 24.0863C41.8823 23.7765 41.6473 23.5084 41.5237 23.484C40.9983 23.3833 40.4887 25.0106 40.3801 25.3455Z" fill="#9E582F"/>
<path d="M42.4815 27.3051C42.3212 27.0075 41.7599 26.9126 41.4135 26.9249C41.0864 26.9392 40.5603 27.0068 40.0134 27.1189C39.93 27.1362 39.9638 27.3396 39.8782 27.3597C39.8092 27.3748 39.8171 27.1628 39.7503 27.1793C39.4053 27.2641 39.0352 27.3748 38.7153 27.4991C38.6894 27.5092 38.6679 27.6989 38.6442 27.709C38.5845 27.7334 38.527 27.5753 38.4724 27.6005C38.1914 27.727 37.9793 27.8678 37.9096 28.0058C37.773 28.2739 37.8758 29.922 38.0124 30.1585C38.302 30.658 38.5658 31.1101 38.716 31.072C42.355 30.1419 43.5215 29.2608 42.4815 27.3051Z" fill="#8C4E2A"/>
<path d="M43.3174 30.0832C41.8461 29.9286 38.9711 31.3417 38.7153 31.0722C38.4709 30.8177 38.5428 29.0741 38.8324 28.5875C38.8756 28.5149 39.4915 29.9833 39.4692 29.818C39.3449 28.8656 39.1975 28.4042 39.3205 28.3388C39.4139 28.2885 39.6654 28.8376 39.9565 29.519C40.0068 29.6361 39.59 28.0455 39.6856 28.0074C39.7955 27.9614 40.3669 27.8127 40.4812 27.7688C40.5933 27.7271 40.727 28.5932 40.9563 29.1574C41.1087 29.5283 40.6918 27.6129 40.7752 27.5855C40.8499 27.5647 41.6686 30.0875 41.6441 29.9351C41.3976 28.4624 41.1885 27.4317 41.2632 27.4109C41.7613 27.2786 42.2615 27.2104 42.4197 27.283C43.0996 27.5956 43.4891 29.6835 43.3174 30.0832Z" fill="#9E582F"/>
<path d="M43.8631 29.4975C43.5483 29.1985 43.5066 29.1453 43.4663 28.8456C43.3801 28.1958 43.8789 27.0919 44.3461 26.6498C44.7601 26.2603 46.1623 26.1101 46.7704 26.2883C46.9889 26.3508 47.5344 26.7289 47.7759 27.0099C48.1964 27.4994 44.4949 28.8406 43.8631 29.4975Z" fill="#D13200"/>
<path d="M43.863 29.4975C43.7775 28.8485 44.318 27.4721 44.8175 27.0696C45.3156 26.6657 46.9586 26.4328 47.5099 26.7548C47.8448 26.951 48.5557 28.1132 48.5952 28.7659C48.6326 29.4213 45.5405 28.8406 43.863 29.4975Z" fill="#FF6A00"/>
<path d="M46.0742 29.6578C46.297 29.4034 46.8073 28.8399 47.1538 28.8536C47.4786 28.8665 47.3119 28.5596 47.8617 28.6724C47.9444 28.6882 48.1938 28.9707 48.2757 28.9901C48.3454 29.0059 48.6344 28.9276 48.7027 28.9448C49.0469 29.0304 49.3977 29.08 49.2388 29.3948C49.0045 29.8569 49.6262 29.4235 49.6507 29.4343C49.7082 29.4573 49.8526 29.7527 49.908 29.7779C50.1869 29.9044 50.253 30.4614 50.3234 30.6001C50.4607 30.8696 50.4183 31.6459 50.2796 31.8838C49.9914 32.3847 49.7305 32.793 49.5781 32.7973C47.3852 32.8821 44.6619 31.27 46.0742 29.6578Z" fill="#8C4E2A"/>
<path d="M45.4561 31.8239C45.9384 32.685 49.3236 33.0666 49.5795 32.7964C49.8232 32.5434 49.7498 30.7997 49.4609 30.3124C49.4185 30.2391 49.1964 31.9411 49.1806 31.7729C49.1037 30.9399 49.0965 30.1291 48.9729 30.0644C48.8794 30.0148 48.8615 31.0721 48.5682 31.7528C48.5201 31.8714 48.7041 29.7705 48.6085 29.7309C48.4978 29.6857 48.2585 29.8402 48.1427 29.7964C48.0321 29.7547 47.8962 31.0901 47.6662 31.6521C47.5153 32.0244 47.6022 29.3364 47.5174 29.3112C47.4441 29.2889 46.9561 30.8845 46.9791 30.7307C47.2249 29.2602 47.1063 29.1574 47.0308 29.1365C46.532 29.0036 46.2934 29.5635 46.1367 29.6346C45.4561 29.948 45.2843 31.4257 45.4561 31.8239Z" fill="#9E582F"/>
<path opacity="0.9" d="M42.0427 34.1661C41.3857 29.6424 38.0551 29.5755 35.9909 31.432C35.7264 31.6714 35.9743 32.4023 36.2618 32.1975C38.4727 30.6227 40.0733 31.0245 40.8567 34.639C40.9408 35.0257 42.0714 34.3659 42.0427 34.1661Z" fill="#E6A868"/>
<path d="M41.5288 30.8431C41.5288 30.8431 43.4788 32.0923 44.6086 29.8096C43.5355 31.0616 42.461 30.9143 41.5288 30.8431Z" fill="#DB800D"/>
<path d="M44.4981 31.1558C44.4966 31.155 44.557 33.4148 47.1438 32.9979C45.4641 32.8664 44.9717 31.9327 44.4981 31.1558Z" fill="#DB800D"/>
<path d="M47.5545 27.1006C47.556 27.1006 45.6319 26.2395 44.7896 27.8322C46.3751 26.8368 46.8236 27.6461 47.5545 27.1006Z" fill="#FF9900"/>
<path d="M46.0617 23.2877C46.1243 22.9024 45.2862 22.2786 45.0217 22.1952C44.7486 22.1061 46.0049 23.6298 46.0617 23.2877Z" fill="#F0B100"/>
<path d="M42.1577 27.4204C42.29 28.7034 42.7083 29.4667 42.7083 29.4667C42.7083 29.4667 43.0403 28.8521 42.1577 27.4204Z" fill="#AB663E"/>
<path d="M41.7038 27.5547C41.6334 28.4531 41.9259 29.0073 41.9259 29.0073C41.9259 29.0073 42.3478 28.594 41.7038 27.5547Z" fill="#AB663E"/>
<path d="M40.0827 28.0586C40.0209 28.8621 40.2818 29.3566 40.2818 29.3566C40.2818 29.3566 40.6599 28.9872 40.0827 28.0586Z" fill="#AB663E"/>
<path d="M49.9893 32.0259C49.9893 32.0259 50.5679 31.4301 49.8369 30.1924C50.0331 31.2921 49.9893 32.0259 49.9893 32.0259Z" fill="#9E582F"/>
<path d="M31.4183 26.1953C30.6119 21.5789 25.0517 21.3733 23.1643 20.8314C22.0416 20.7717 20.86 20.6222 19.9659 21.0693C19.2256 21.438 18.2646 21.3086 17.6882 21.7779C16.8135 22.4938 15.4658 22.6843 14.9117 23.5389C14.2878 24.5034 13.0099 25.2531 12.8094 26.3743C12.6599 27.2325 12.0015 28.026 12.1388 28.9071C12.271 29.7689 11.9009 30.6932 12.3249 31.4292C12.6785 32.0459 12.6541 32.9271 13.1838 33.4934C13.6812 34.0318 14.1203 35.1228 14.9915 35.5921C15.836 36.045 16.4828 36.8823 17.5092 37.1058C18.2509 37.2675 18.8913 37.8095 19.6892 37.7678C20.3288 37.7354 22.6187 38.9099 25.2465 37.9798C28.4829 36.2002 32.0709 29.927 31.4183 26.1953Z" fill="#CFD8DD"/>
<path d="M19.8631 28.6802C19.0301 29.082 19.7474 31.8074 20.8852 31.824C21.895 31.3086 20.8183 28.7096 19.8631 28.6802Z" fill="#F2F5F7"/>
<path d="M30.2532 24.6709C29.4209 25.072 30.136 27.7989 31.2767 27.8125C32.2872 27.2979 31.2091 24.6996 30.2532 24.6709Z" fill="#F2F5F7"/>
<path d="M28.3013 21.6064C27.4683 22.0075 28.1842 24.7351 29.3248 24.7488C30.3339 24.2342 29.2565 21.6352 28.3013 21.6064Z" fill="#F2F5F7"/>
<path d="M18.1328 33.6675C17.4249 34.0513 18.1889 36.7703 19.1872 36.8055C20.0461 36.3124 18.9723 33.7128 18.1328 33.6675Z" fill="#E6E9EB"/>
<path d="M14.4286 32.1653C14.2698 32.838 17.7449 34.5609 18.5736 34.0628C18.7324 33.2269 15.1402 31.7592 14.4286 32.1653Z" fill="#E6E9EB"/>
<path d="M13.8172 29.3301C13.6591 30.0029 17.1328 31.725 17.9608 31.2283C18.1203 30.3924 14.5274 28.9247 13.8172 29.3301Z" fill="#E6E9EB"/>
<path d="M14.6563 33.907C14.5104 34.4769 17.3408 35.8914 18.0394 35.4616C18.1932 34.7565 15.2543 33.5584 14.6563 33.907Z" fill="#E6E9EB"/>
<path d="M18.3226 37.0027C18.1731 37.5698 21.0064 38.9857 21.7043 38.5567C21.8574 37.8501 18.9213 36.6542 18.3226 37.0027Z" fill="#E6E9EB"/>
<path d="M21.2903 36.9872C21.1041 37.5522 23.8476 39.0356 24.5742 38.626C24.7711 37.9259 21.9113 36.6559 21.2903 36.9872Z" fill="#E6E9EB"/>
<path d="M23.0045 33.1106C22.4763 33.5721 24.0927 35.6082 25.0256 35.4214C25.6516 34.8356 23.7908 32.9647 23.0045 33.1106Z" fill="#E6E9EB"/>
<path d="M26.3784 32.5205C25.8537 32.9834 27.468 35.0189 28.4002 34.832C29.0262 34.247 27.1661 32.3768 26.3784 32.5205Z" fill="#E6E9EB"/>
<path d="M23.8953 20.5801C23.6329 21.2263 25.9911 22.336 26.7429 21.7567C27.0398 20.956 24.5357 20.1029 23.8953 20.5801Z" fill="#E6E9EB"/>
<path d="M29.2429 22.8483C28.7189 23.3119 30.3325 25.346 31.2661 25.1591C31.8922 24.5733 30.0314 22.7032 29.2429 22.8483Z" fill="#E6E9EB"/>
<path d="M28.4043 31.2109C27.5735 31.4359 27.373 33.6784 28.3433 33.8164C29.3596 33.5188 29.2101 31.3382 28.4043 31.2109Z" fill="#F2F5F7"/>
<path d="M29.1514 26.5889C28.3198 26.8138 28.1214 29.0577 29.0917 29.195C30.1087 28.8975 29.9585 26.7175 29.1514 26.5889Z" fill="#F2F5F7"/>
<path d="M25.5171 21.7158C24.7775 22.0601 25.3144 24.5556 26.3084 24.5973C27.2062 24.1524 26.348 21.7647 25.5171 21.7158Z" fill="#E6E9EB"/>
<path d="M24.6854 21.4102C23.8358 21.1537 20.6317 22.5653 21.0715 23.1388C22.1389 23.44 25.0354 21.8961 24.6854 21.4102Z" fill="#E6E9EB"/>
<path d="M23.8295 23.9931C22.9814 23.7372 19.7744 25.1481 20.2164 25.7224C21.2823 26.0228 24.1788 24.479 23.8295 23.9931Z" fill="#E6E9EB"/>
<path d="M26.731 25.9281C26.3529 25.3826 22.407 25.0541 22.1396 25.655C22.6392 26.3241 26.4852 26.4276 26.731 25.9281Z" fill="#E6E9EB"/>
<path d="M25.1824 26.516C24.8058 25.9705 20.8592 25.6406 20.5918 26.2414C21.0913 26.9106 24.938 27.0141 25.1824 26.516Z" fill="#E6E9EB"/>
<path d="M19.8596 29.0396C19.4845 28.4941 15.5379 28.1671 15.269 28.7672C15.7707 29.4356 19.6167 29.5391 19.8596 29.0396Z" fill="#E6E9EB"/>
<path d="M20.0444 31.8612C20.6366 31.4199 19.2286 29.0459 18.2533 29.1472C17.5453 29.71 19.2221 31.9323 20.0444 31.8612Z" fill="#E6E9EB"/>
<path d="M19.3836 27.6473C19.9758 27.2052 18.5685 24.8327 17.5939 24.9333C16.8838 25.4953 18.5621 27.717 19.3836 27.6473Z" fill="#E6E9EB"/>
<path d="M14.3184 29.471C15.2125 29.3287 16.1562 26.9109 15.2455 26.6406C14.1452 26.8404 13.563 29.2331 14.3184 29.471Z" fill="#E6E9EB"/>
<path d="M19.0815 24.7646C19.6738 24.3219 18.2672 21.9493 17.2919 22.0521C16.5825 22.6141 18.2607 24.8343 19.0815 24.7646Z" fill="#E6E9EB"/>
<path d="M18.6533 23.4426C19.5783 23.4002 21.1782 21.1369 20.3474 20.7725C19.2017 20.8458 17.9698 23.1256 18.6533 23.4426Z" fill="#E6E9EB"/>
<path d="M20.0069 24.6394C20.9326 24.5977 22.5311 22.3344 21.701 21.9692C20.5567 22.044 19.3241 24.3238 20.0069 24.6394Z" fill="#E6E9EB"/>
<path d="M23.3948 24.4243C24.3198 24.3826 25.9197 22.1186 25.0889 21.7549C23.9446 21.8289 22.7127 24.108 23.3948 24.4243Z" fill="#E6E9EB"/>
<path d="M19.212 28.8388C20.1385 28.7971 21.7355 26.5317 20.9061 26.168C19.7633 26.2427 18.5313 28.524 19.212 28.8388Z" fill="#E6E9EB"/>
<path d="M13.1183 26.6755C14.0433 26.6345 15.644 24.3712 14.8131 24.0054C13.6696 24.0801 12.4362 26.36 13.1183 26.6755Z" fill="#E6E9EB"/>
<path d="M16.4067 28.9453C17.3331 28.9021 18.9323 26.6381 18.1007 26.2744C16.9551 26.3484 15.7246 28.6283 16.4067 28.9453Z" fill="#E6E9EB"/>
<path d="M26.4498 24.7421C27.3756 24.6997 28.9755 22.435 28.1454 22.0713C27.0004 22.146 25.7692 24.4266 26.4498 24.7421Z" fill="#E6E9EB"/>
<path d="M12.3505 29.5895C13.2763 29.5471 14.8762 27.2838 14.0446 26.918C12.9032 26.992 11.6699 29.274 12.3505 29.5895Z" fill="#E6E9EB"/>
<path d="M23.3651 29.8444C22.7649 30.2699 24.0393 32.3937 25.0002 32.2672C25.7226 31.7311 24.1737 29.7531 23.3651 29.8444Z" fill="#E6E9EB"/>
<path d="M26.8201 30.7726C26.22 31.1988 27.495 33.3205 28.4553 33.1969C29.1769 32.6586 27.6294 30.6813 26.8201 30.7726Z" fill="#E6E9EB"/>
<path d="M20.6016 32.7131C20.0036 33.1378 21.2758 35.2632 22.2389 35.1381C22.9598 34.5998 21.4102 32.6211 20.6016 32.7131Z" fill="#E6E9EB"/>
<path d="M22.7013 35.3844C22.1018 35.8084 23.3754 37.9337 24.3378 37.8094C25.0587 37.2703 23.5098 35.2938 22.7013 35.3844Z" fill="#E6E9EB"/>
<path d="M23.4429 30.8063C22.6077 30.5562 19.8104 31.888 20.3085 32.4372C21.355 32.7326 23.8404 31.2721 23.4429 30.8063Z" fill="#E6E9EB"/>
<path d="M20.2579 28.1275C19.6571 28.5516 20.9321 30.6769 21.8924 30.5518C22.614 30.0142 21.0672 28.037 20.2579 28.1275Z" fill="#E6E9EB"/>
<path d="M28.7987 25.4985C28.1971 25.924 29.4729 28.0479 30.4331 27.925C31.1548 27.3845 29.6073 25.4094 28.7987 25.4985Z" fill="#E6E9EB"/>
<path d="M22.5923 27.374C21.6989 27.4847 20.7595 29.6345 21.6687 29.8975C22.7676 29.7437 23.3448 27.6062 22.5923 27.374Z" fill="#E6E9EB"/>
<path d="M26.0473 35.8843C25.1546 35.995 24.2159 38.144 25.1244 38.4078C26.2234 38.2532 26.7998 36.1164 26.0473 35.8843Z" fill="#E6E9EB"/>
<path d="M24.9062 27.5591C24.0136 27.669 23.072 29.8181 23.9827 30.0819C25.0809 29.9295 25.6573 27.7912 24.9062 27.5591Z" fill="#E6E9EB"/>
<path d="M28.4671 28.7871C27.5737 28.8964 26.6336 31.0476 27.5435 31.3099C28.6417 31.1575 29.2182 29.0193 28.4671 28.7871Z" fill="#E6E9EB"/>
<path d="M26.5726 33.5977C25.6807 33.7069 24.7406 35.8581 25.6491 36.1204C26.748 35.9673 27.3252 33.8291 26.5726 33.5977Z" fill="#E6E9EB"/>
<path d="M28.9196 33.8818C28.0269 33.9911 27.0883 36.1423 27.996 36.4046C29.0943 36.2544 29.6714 34.1154 28.9196 33.8818Z" fill="#E6E9EB"/>
<path d="M31.2645 28.6348C30.3718 28.7455 29.4317 30.8959 30.3409 31.1597C31.4399 31.0045 32.0156 28.8662 31.2645 28.6348Z" fill="#E6E9EB"/>
<path d="M29.9405 29.5127C29.0478 29.6219 28.1077 31.7724 29.0176 32.0369C30.1159 31.8831 30.693 29.7448 29.9405 29.5127Z" fill="#F2F5F7"/>
<path d="M16.6008 32.7676C17.311 33.1464 20.5855 32.335 20.3297 31.7262C19.432 31.2719 16.4054 32.2537 16.6008 32.7676Z" fill="#E6E9EB"/>
<path d="M13.1698 31.8712C13.8777 32.25 17.153 31.4414 16.8979 30.8327C15.9994 30.3755 12.9735 31.3609 13.1698 31.8712Z" fill="#E6E9EB"/>
<path d="M19.0425 34.8069C19.0497 35.3848 22.2013 36.4852 22.772 35.9863C22.7332 35.2698 19.5355 34.3979 19.0425 34.8069Z" fill="#E6E9EB"/>
<path d="M16.7799 30.9693C16.0497 30.6078 13.2013 32.248 13.5628 32.9818C14.4828 33.4066 17.0667 31.5932 16.7799 30.9693Z" fill="#F2F5F7"/>
<path d="M23.2839 31.2412C22.458 31.4346 22.1511 34.2089 23.0905 34.4784C24.0975 34.2118 24.0644 31.4813 23.2839 31.2412Z" fill="#F2F5F7"/>
<path d="M27.8457 34.5737C26.9645 34.6377 25.6169 37.264 26.4334 37.665C27.5194 37.5623 28.5184 34.9245 27.8457 34.5737Z" fill="#E6E9EB"/>
<path d="M26.4969 27.9652C25.5906 27.9293 24.1725 30.5139 25.0055 31.0278C26.1275 31.0436 27.1848 28.4101 26.4969 27.9652Z" fill="#F2F5F7"/>
<path d="M30.6562 31.4188C29.7505 31.385 28.3325 33.9674 29.1669 34.4799C30.2882 34.4979 31.3447 31.863 30.6562 31.4188Z" fill="#F2F5F7"/>
<path d="M26.9369 29.8732C26.0837 29.8509 24.6506 32.4333 25.4196 32.9242C26.4711 32.9228 27.5687 30.3008 26.9369 29.8732Z" fill="#F2F5F7"/>
<path d="M18.2736 26.1431C17.4478 26.3386 17.1423 29.1115 18.0824 29.3817C19.0887 29.1151 19.0549 26.3838 18.2736 26.1431Z" fill="#F2F5F7"/>
<path d="M13.5129 25.4014C12.6476 25.4272 11.4106 28.0427 12.23 28.4869C13.2944 28.4258 14.1893 25.7845 13.5129 25.4014Z" fill="#F2F5F7"/>
<path d="M19.2968 22.3153C18.4429 22.2197 16.6957 24.6382 17.4072 25.1945C18.4638 25.2837 19.8826 22.7939 19.2968 22.3153Z" fill="#F2F5F7"/>
<path d="M27.513 26.6589C26.8266 26.2456 23.8007 27.6767 24.0774 28.4364C24.9449 28.923 27.725 27.3015 27.513 26.6589Z" fill="#F2F5F7"/>
<path d="M17.4089 25.0924C16.7247 24.6827 13.7002 26.113 13.9762 26.8705C14.8423 27.3586 17.626 25.7349 17.4089 25.0924Z" fill="#F2F5F7"/>
<path d="M24.9409 35.2165C24.1445 34.9498 21.6908 36.9278 22.2003 37.6099C23.1936 37.9153 25.3556 35.7958 24.9409 35.2165Z" fill="#F2F5F7"/>
<path d="M30.2135 34.3427C29.4179 34.0775 26.9627 36.0547 27.473 36.7375C28.467 37.0423 30.6282 34.9249 30.2135 34.3427Z" fill="#F2F5F7"/>
<path d="M27.1909 34.8324C26.3952 34.5672 23.9393 36.5437 24.4482 37.2273C25.4443 37.532 27.6049 35.4132 27.1909 34.8324Z" fill="#F2F5F7"/>
<path d="M24.2729 22.8233C23.5887 22.4122 20.5642 23.8418 20.8417 24.5986C21.7063 25.0874 24.485 23.4652 24.2729 22.8233Z" fill="#F2F5F7"/>
<path d="M25.9537 26.2683C25.2687 25.8601 22.2421 27.2861 22.5188 28.0444C23.3856 28.5295 26.1678 26.9109 25.9537 26.2683Z" fill="#F2F5F7"/>
<path d="M23.9268 20.7238C23.4287 20.1689 20.0075 20.8158 19.9888 21.6071C20.6356 22.2784 23.8951 21.3872 23.9268 20.7238Z" fill="#F2F5F7"/>
<path d="M18.4846 30.2307C18.5012 29.5522 15.251 28.4575 14.6372 29.0785C14.648 29.9159 17.952 30.7403 18.4846 30.2307Z" fill="#F2F5F7"/>
<path d="M23.6602 34.6941C22.9285 34.344 20.1053 36.036 20.4704 36.7655C21.3897 37.1773 23.9506 35.3151 23.6602 34.6941Z" fill="#F2F5F7"/>
<path d="M18.7575 36.3363C18.7726 35.6549 15.5218 34.5667 14.9072 35.1856C14.9194 36.0229 18.2257 36.8495 18.7575 36.3363Z" fill="#F2F5F7"/>
<path d="M19.2548 37.4675C19.2699 36.8868 16.5681 35.961 16.0557 36.4929C16.065 37.2052 18.8128 37.906 19.2548 37.4675Z" fill="#F2F5F7"/>
<path d="M14.9476 35.1889C15.399 34.7218 13.8681 32.7955 13.0451 33.0097C12.5125 33.5969 14.2519 35.355 14.9476 35.1889Z" fill="#F2F5F7"/>
<path d="M27.4995 24.8308C28.2046 24.4535 27.4578 21.6979 26.4681 21.6519C25.6193 22.1384 26.6722 24.7777 27.4995 24.8308Z" fill="#F2F5F7"/>
<path d="M26.5318 22.2786C26.6238 21.6662 24.017 20.3955 23.4326 20.9008C23.3478 21.6583 26.0294 22.6926 26.5318 22.2786Z" fill="#F2F5F7"/>
<path d="M27.7121 27.0823C28.4164 26.7043 27.6689 23.9493 26.6807 23.9033C25.8297 24.3906 26.8834 27.0277 27.7121 27.0823Z" fill="#F2F5F7"/>
<path d="M28.9108 26.8467C29.6159 26.4701 28.8663 23.7137 27.8795 23.6685C27.0263 24.1543 28.0814 26.7935 28.9108 26.8467Z" fill="#E6E9EB"/>
<path d="M26.826 25.4503C26.8662 24.7732 23.6527 23.6154 23.0167 24.2249C23.0008 25.0629 26.279 25.9527 26.826 25.4503Z" fill="#F2F5F7"/>
<path d="M21.8515 29.0337C22.3309 28.4644 20.3278 26.181 19.3869 26.4548C18.8306 27.1728 21.0594 29.2471 21.8515 29.0337Z" fill="#F2F5F7"/>
<path d="M28.4117 22.9438C28.8926 22.3768 26.8887 20.0926 25.9479 20.3664C25.3901 21.0809 27.6197 23.1587 28.4117 22.9438Z" fill="#F2F5F7"/>
<path d="M30.0748 25.7178C30.5527 25.1493 28.5496 22.8665 27.6095 23.1404C27.0517 23.8562 29.282 25.932 30.0748 25.7178Z" fill="#F2F5F7"/>
<path d="M14.0284 31.0398C14.7335 30.6531 13.9372 27.9399 12.941 27.9111C12.0878 28.4085 13.189 30.9996 14.0284 31.0398Z" fill="#F2F5F7"/>
<path d="M13.1943 32.7331C13.9037 32.3465 13.1073 29.6325 12.1054 29.603C11.2523 30.1004 12.3541 32.6936 13.1943 32.7331Z" fill="#F2F5F7"/>
<path d="M17.3527 34.7336C17.5683 34.0731 14.7436 32.4336 13.9688 32.9367C13.7295 33.7604 16.6842 35.1411 17.3527 34.7336Z" fill="#F2F5F7"/>
<path d="M25.4898 34.5654C26.1963 34.1751 25.3992 31.4611 24.4016 31.4316C23.5478 31.9326 24.6503 34.5229 25.4898 34.5654Z" fill="#F2F5F7"/>
<path d="M21.5238 38.0831C22.0701 37.5562 20.3753 35.1204 19.4043 35.3109C18.7545 35.9764 20.703 38.2275 21.5238 38.0831Z" fill="#F2F5F7"/>
<path d="M14.8181 25.8801C15.6331 26.1043 17.9482 24.0063 17.3869 23.3515C16.3734 23.0985 14.3646 25.3195 14.8181 25.8801Z" fill="#F2F5F7"/>
<path d="M14.6728 28.6467C15.4885 28.8724 17.8007 26.7744 17.2423 26.1174C16.2267 25.8659 14.2207 28.0868 14.6728 28.6467Z" fill="#F2F5F7"/>
<path d="M28.853 29.9272C29.6666 30.1522 31.9803 28.0556 31.4211 27.4009C30.4055 27.1479 28.3988 29.3681 28.853 29.9272Z" fill="#F2F5F7"/>
<path d="M19.4419 25.3675C20.3202 25.3804 21.1661 22.8562 20.2605 22.3804C19.1788 22.389 18.6901 24.9535 19.4419 25.3675Z" fill="#F2F5F7"/>
<path d="M14.1685 24.7887C14.9842 25.0129 17.2979 22.9135 16.7387 22.2616C15.7245 22.0093 13.7178 24.2288 14.1685 24.7887Z" fill="#F2F5F7"/>
<path d="M15.9966 32.2676C16.7081 32.6507 19.6334 31.0975 19.3064 30.3543C18.4123 29.8993 15.7414 31.6372 15.9966 32.2676Z" fill="#F2F5F7"/>
<path d="M20.7802 27.4452C21.4903 27.8297 24.4177 26.2758 24.0907 25.5326C23.193 25.0791 20.5221 26.8149 20.7802 27.4452Z" fill="#F2F5F7"/>
<path d="M16.7978 22.8821C17.5093 23.2674 20.4361 21.7149 20.1083 20.971C19.2113 20.5161 16.5434 22.2533 16.7978 22.8821Z" fill="#F2F5F7"/>
<path d="M22.9846 24.7891C23.6961 25.173 26.6214 23.619 26.2944 22.8759C25.3981 22.4223 22.728 24.1595 22.9846 24.7891Z" fill="#F2F5F7"/>
<path d="M21.4288 31.2361C22.2402 31.4611 24.5546 29.3616 23.9954 28.7076C22.9798 28.4539 20.9724 30.6769 21.4288 31.2361Z" fill="#F2F5F7"/>
<path d="M26.3886 29.5384C27.2037 29.7633 29.518 27.6639 28.9596 27.0098C27.9425 26.7561 25.9344 28.9799 26.3886 29.5384Z" fill="#F2F5F7"/>
<path d="M17.5653 33.225C17.4912 33.9114 20.5998 35.1958 21.2582 34.6049C21.3157 33.7561 18.1316 32.7369 17.5653 33.225Z" fill="#F2F5F7"/>
<path d="M18.7373 25.3357C18.9881 25.984 22.5035 26.2349 22.8442 25.4939C22.5042 24.6975 19.0413 24.7169 18.7373 25.3357Z" fill="#F2F5F7"/>
<path d="M17.0648 25.1327C16.8642 25.6444 19.7112 27.0186 20.4702 26.6499C20.6937 26.0095 17.7188 24.8322 17.0648 25.1327Z" fill="#F2F5F7"/>
<path d="M18.5156 32.7367C18.76 33.3886 22.2782 33.6344 22.6182 32.8963C22.2797 32.0999 18.8175 32.1222 18.5156 32.7367Z" fill="#F2F5F7"/>
<path d="M31.3389 28.673C31.3857 28.4228 31.4202 28.1806 31.4467 27.9399C31.492 27.8227 31.5107 27.7134 31.5028 27.6164C31.85 27.1528 31.6537 26.2134 31.2512 25.5177C31.2146 25.3955 31.1715 25.2798 31.1262 25.1669C31.1751 25.1677 31.2239 25.1684 31.2692 25.159C31.8356 24.6293 30.3658 23.0495 29.4968 22.8627C29.223 22.2 28.7515 21.62 28.3037 21.607C28.2167 21.6494 28.1499 21.7213 28.0953 21.8076C27.5425 21.0234 26.5385 20.1954 25.9513 20.3658C25.8672 20.475 25.8528 20.618 25.8815 20.7762C25.1764 20.4606 24.2529 20.3162 23.8985 20.5807C23.8834 20.6159 23.8813 20.6518 23.882 20.6885C23.5284 20.411 22.3238 20.4973 21.3441 20.7668C21.0487 20.7798 20.7619 20.815 20.4924 20.884C20.4565 20.8387 20.4126 20.7992 20.3515 20.7726C20.1999 20.7812 20.0482 20.8322 19.8995 20.9077C19.2131 20.8071 17.9898 21.4374 17.2969 22.0505C17.1301 22.1511 16.954 22.241 16.7765 22.3279C16.765 22.3056 16.7593 22.2826 16.7427 22.2618C15.9435 22.0641 14.5333 23.396 14.1898 24.247C13.7449 24.546 13.3467 25.0764 13.1217 25.5687C12.3728 26.1229 11.6174 27.9161 12.1485 28.4157C12.1263 28.5788 12.1176 28.7427 12.1435 28.9094C12.1565 28.9928 12.1615 29.0783 12.1658 29.1639C12.1636 29.2106 12.1658 29.2537 12.1708 29.2961C12.173 29.4025 12.1708 29.5089 12.1658 29.616C12.1471 29.6124 12.1291 29.6045 12.1097 29.6037C11.4284 30.0019 11.9962 31.737 12.6804 32.437C12.753 32.6965 12.8378 32.9524 12.9672 33.1823C12.8493 33.6919 13.6212 34.6083 14.2976 35.0072C14.4995 35.2379 14.7252 35.4478 14.9962 35.5937C15.4109 35.8165 15.7782 36.1306 16.1656 36.4196C16.1261 36.4404 16.0887 36.4627 16.0607 36.4929C16.0686 37.0657 17.8453 37.6306 18.771 37.6019C19.5688 38.2049 21.2011 38.869 21.7092 38.5571C21.7344 38.4421 21.6697 38.312 21.5526 38.179C21.9709 38.2603 22.4359 38.3264 22.9404 38.3386C23.5981 38.6318 24.2708 38.8007 24.5785 38.6268C24.6137 38.501 24.5483 38.3573 24.4182 38.2085C24.5497 38.1819 24.6805 38.1524 24.8142 38.1165C24.8703 38.2559 24.9694 38.3623 25.1283 38.4083C25.6199 38.3386 26.0052 37.8743 26.2157 37.3597C26.251 37.4977 26.32 37.6076 26.4393 37.6666C26.8439 37.6278 27.2349 37.2375 27.5332 36.7466C28.5502 36.9636 30.6259 34.9152 30.2177 34.3431C29.9949 34.2684 29.6427 34.374 29.2625 34.5717C29.2632 34.5357 29.2611 34.502 29.2596 34.4682C30.3471 34.3532 31.331 31.8512 30.6612 31.4186C30.5943 31.4164 30.5246 31.4315 30.452 31.4559C30.5074 31.3273 30.567 31.2015 30.6188 31.0728C31.4978 30.6581 31.9182 28.9885 31.3389 28.673Z" fill="url(#paint1_radial)"/>
<path d="M43.7346 32.7475C43.9071 32.501 45.7995 32.5908 46.2466 32.7238C47.3721 33.053 47.9579 33.3656 48.3561 34.0542C48.5315 34.3596 48.4007 35.9028 48.221 36.0818C47.848 36.4612 46.4622 36.9478 46.0403 36.9529C44.9148 36.9579 42.8527 34.0312 43.7346 32.7475Z" fill="#F9B700"/>
<path d="M43.33 35.6576C43.9503 36.6466 45.9304 37.1038 46.2596 36.9334C46.5737 36.7724 46.3085 34.6773 45.9807 34.0994C45.7019 33.6078 44.3319 32.6404 43.7347 32.7475C43.3983 32.8078 42.8269 34.5343 43.33 35.6576Z" fill="#F0A000"/>
<path opacity="0.9" d="M44.7456 35.7002C44.7118 36.4369 45.0381 36.9896 44.4997 37.8909C44.4387 37.9937 45.2817 38.0368 45.3953 37.8356C45.8848 36.953 45.6009 36.4642 45.6569 35.6758C45.3543 35.6894 45.0474 35.7002 44.7456 35.7002Z" fill="#E6A868"/>
<path d="M39.064 38.2991C39.0632 38.2991 41.9368 40.1412 43.6014 36.7739C42.0209 38.6204 40.4375 38.4062 39.064 38.2991Z" fill="#DB800D"/>
<path d="M47.3961 35.6048C47.3961 35.6048 48.5885 33.6088 45.4023 33.0928C47.8899 34.1227 46.4007 35.2698 47.3961 35.6048Z" fill="#F9C739"/>
<path d="M38.5119 33.1221C38.7362 32.9726 39.23 33.0056 39.575 33.1221C39.9027 33.2313 40.4267 33.4498 40.9722 33.7129C41.0549 33.7524 41.0204 33.9163 41.1037 33.958C41.1734 33.9918 41.1641 33.8092 41.2338 33.8444C41.5745 34.0205 41.9461 34.2275 42.2631 34.4316C42.2889 34.4467 42.3112 34.6163 42.3356 34.6307C42.3939 34.6695 42.4499 34.5538 42.5031 34.589C42.7834 34.7845 42.9955 34.9664 43.0645 35.1072C43.201 35.3789 43.099 36.7539 42.9638 36.9149C42.6735 37.257 42.046 37.4417 41.7204 37.4446C40.8493 37.4496 37.1068 34.0715 38.5119 33.1221Z" fill="#8C4E2A"/>
<path d="M37.5972 36.106C38.0773 36.9886 41.6351 37.5808 41.8881 37.427C42.1324 37.284 42.4329 35.8278 42.1446 35.324C42.1037 35.2493 41.4892 36.318 41.51 36.1807C41.6358 35.4067 41.781 35.0574 41.6595 34.9639C41.5661 34.8928 41.3159 35.2845 41.0256 35.7804C40.9753 35.8638 41.3907 34.6311 41.2965 34.5693C41.1866 34.496 40.6159 34.1977 40.5023 34.1244C40.3931 34.0569 40.2587 34.7555 40.0308 35.1659C39.8799 35.4361 40.2917 33.9275 40.2105 33.8786C40.1386 33.8384 39.32 35.7459 39.3466 35.6216C39.5917 34.4385 39.798 33.622 39.7247 33.5811C39.2294 33.3166 38.7321 33.1096 38.5718 33.1211C37.8962 33.1829 37.4283 35.7143 37.5972 36.106Z" fill="#9E582F"/>
<path d="M38.4541 36.1372C38.4541 36.1372 39.1053 35.6858 39.2785 33.5713C38.5899 35.044 38.4541 36.1372 38.4541 36.1372Z" fill="#AB663E"/>
<path d="M38.0674 35.4441C38.0674 35.4441 38.5116 35.1344 38.6294 33.689C38.1594 34.6952 38.0674 35.4441 38.0674 35.4441Z" fill="#AB663E"/>
<path d="M40.2915 36.72C40.2915 36.72 40.7364 36.4102 40.8543 34.9648C40.3828 35.9704 40.2915 36.72 40.2915 36.72Z" fill="#AB663E"/>
<path d="M40.8545 37.0148C40.8545 37.0148 41.211 36.7755 41.3332 35.7017C40.9415 36.4578 40.8545 37.0148 40.8545 37.0148Z" fill="#AB663E"/>
<path d="M36.9388 34.5784C36.7634 34.7272 36.2301 35.0261 36.0418 35.0527C35.5344 35.1239 33.8618 35.2971 33.2035 34.8738C32.5465 34.4512 31.6654 32.576 31.6316 31.7746C31.6007 31.068 32.5624 29.5889 33.202 29.1361C33.427 28.9729 34.1989 28.7379 34.6424 28.7242C35.4158 28.6976 37.9385 33.731 36.9388 34.5784Z" fill="#D13200"/>
<path d="M38.2664 31.8856C38.3017 32.6856 37.6225 34.2014 36.9389 34.578C36.2554 34.9546 34.4981 34.8957 33.8404 34.4738C33.1821 34.0512 32.3548 32.4469 32.38 31.6441C32.4051 30.8441 33.4789 29.0667 34.202 28.7835C34.6418 28.6103 36.2547 28.8259 36.8764 29.301C37.501 29.7768 38.2298 31.0849 38.2664 31.8856Z" fill="#FF6A00"/>
<path opacity="0.9" d="M31.2644 31.1902C32.0133 30.7259 32.4223 30.0374 33.555 29.9554C33.6851 29.9461 33.361 29.0994 33.1101 29.1246C32.0141 29.2417 31.6525 29.8462 30.8418 30.3234C30.9877 30.6102 31.1314 30.8977 31.2644 31.1902Z" fill="#E6A868"/>
<path d="M37.7185 31.9188C37.7193 31.9202 37.4706 28.7046 34.2959 29.5175C37.1867 29.7173 36.6124 31.9425 37.7185 31.9188Z" fill="#FF9900"/>
<path d="M29.2188 39.2529C29.2173 39.2515 30.1502 42.7482 33.9359 41.182C31.3311 41.5781 30.2322 40.298 29.2188 39.2529Z" fill="#DB800D"/>
<path opacity="0.9" d="M38.2277 37.1297C36.2145 37.2318 35.8861 35.5046 33.6609 35.5837C33.3777 35.5945 32.94 36.6582 33.226 36.6783C35.6367 36.863 35.8846 38.284 37.7922 38.2552C38.1034 38.2488 38.3873 37.1196 38.2277 37.1297Z" fill="#E6A868"/>
<path opacity="0.9" d="M38.9182 40.4947C39.8418 40.1835 40.3312 39.4605 41.7479 39.7717C41.9096 39.8083 41.4791 38.6138 41.1657 38.5548C39.7994 38.3004 39.3674 38.9365 38.3647 39.2391C38.5566 39.656 38.7435 40.0743 38.9182 40.4947Z" fill="#E6A868"/>
<path d="M31.167 40.0249C30.8127 39.6778 30.697 39.5038 30.6524 39.1581C30.5539 38.4063 31.1174 37.1284 31.6486 36.6174C32.1165 36.1653 33.7042 35.9935 34.3942 36.1998C34.6393 36.2724 35.2567 36.7101 35.5312 37.0343C36.007 37.6021 31.2971 40.15 31.167 40.0249Z" fill="#D13200"/>
<path d="M31.1002 39.9135C31.0025 39.1595 31.6141 37.5675 32.1812 37.1017C32.7483 36.6353 34.6041 36.3672 35.2308 36.7402C35.6067 36.9681 36.4153 38.3114 36.4584 39.0661C36.5008 39.8243 31.2015 40.6638 31.1002 39.9135Z" fill="#FF6A00"/>
<path d="M32.0473 38.0873C32.2105 38.829 34.0375 37.9759 34.3387 37.2428C34.5464 36.7425 31.8892 37.3678 32.0473 38.0873Z" fill="#FF9900"/>
<path d="M26.6434 36.921C26.4514 36.7565 25.6191 36.5272 25.2864 36.6005C24.6711 36.7385 23.2703 37.3228 23.008 38.0308C22.8908 38.3427 22.9929 40.067 23.1079 40.2481C23.3544 40.6427 25.0212 41.0078 25.2993 41.01C26.0432 41.0164 27.6395 37.7735 26.6434 36.921Z" fill="#F0A000"/>
<path d="M28.6283 39.3955C28.2186 40.4118 25.3746 41.1679 25.1547 40.9925C24.9477 40.8279 24.4841 38.9412 24.7306 38.3598C25.0152 37.6913 26.181 36.7491 26.5526 36.8705C26.9062 36.9877 28.6283 38.9685 28.6283 39.3955Z" fill="#F9B700"/>
<path d="M23.7226 39.6855C23.7219 39.6855 22.4792 37.471 25.7976 36.8989C23.208 38.0403 24.7576 39.3132 23.7226 39.6855Z" fill="#F0B100"/>
<path d="M26.5469 37.3164C26.6518 38.396 27.2031 39.022 27.2031 39.022C27.2031 39.022 27.7184 38.4858 26.5469 37.3164Z" fill="#F9C739"/>
<defs>
<linearGradient id="paint0_linear" x1="21.9587" y1="20.1854" x2="43.5184" y2="41.9583" gradientUnits="userSpaceOnUse">
<stop stop-color="#783E23"/>
<stop offset="0.1417" stop-color="#8F4C1C"/>
<stop offset="0.367" stop-color="#AD5F12"/>
<stop offset="0.5885" stop-color="#C36C0B"/>
<stop offset="0.8024" stop-color="#D07407"/>
<stop offset="1" stop-color="#D47706"/>
</linearGradient>
<radialGradient id="paint1_radial" cx="0" cy="0" r="1" gradientUnits="userSpaceOnUse" gradientTransform="translate(19.7298 25.914) scale(12.0595 12.6046)">
<stop offset="0.3697" stop-color="white" stop-opacity="0"/>
<stop offset="1" stop-color="#1A1626" stop-opacity="0.3"/>
</radialGradient>
</defs>
</svg>
