<svg width="44" height="44" viewBox="0 0 44 44" fill="none" xmlns="http://www.w3.org/2000/svg">
<path d="M2 17.643C2 34.3967 42 34.3967 42 17.643C42 4.10924 2 4.10924 2 17.643Z" fill="#E6EBEF"/>
<path d="M3.25 17.3149C3.25 5.15869 40.7488 5.15869 40.7488 17.3149C40.75 29.8337 3.25 29.8337 3.25 17.3149Z" fill="#99A8AE"/>
<path d="M11.0622 13.2675L23.7872 9.01376C20.8966 -0.0243688 8.17032 4.23126 11.0622 13.2675Z" fill="#E81C27"/>
<path d="M16.9532 5.4768C18.0464 11.8993 16.2089 11.8074 15.3714 6.02118C15.2832 5.4193 11.5626 6.63493 11.8145 11.3993L22.7814 9.8893C21.9601 4.56368 16.8507 4.86368 16.9532 5.4768Z" fill="#C21413"/>
<path d="M18.3337 6.13537C17.7681 6.10537 18.2387 7.19725 18.3587 7.24225C18.4812 7.2885 18.9325 6.16787 18.3337 6.13537Z" fill="#F79886"/>
<path d="M12.6818 9.18251C12.5793 9.74001 13.7224 9.41626 13.7837 9.30251C13.8443 9.18814 12.793 8.59376 12.6818 9.18251Z" fill="#F79886"/>
<path d="M13.16 7.82321C12.8112 8.27196 13.9693 8.50696 14.0762 8.43258C14.1837 8.35883 13.5262 7.34571 13.16 7.82321Z" fill="#F79886"/>
<path d="M14.3393 6.74923C13.8218 6.98423 14.7287 7.73798 14.8568 7.72048C14.9843 7.70548 14.8837 6.49798 14.3393 6.74923Z" fill="#F79886"/>
<path d="M38.6644 9.93749C37.6512 9.49374 36.2331 11.6306 34.6031 10.0806C33.4844 9.01687 32.4812 9.44874 32.3462 8.53999C32.2312 7.77312 33.7719 6.77562 32.9362 6.52562C30.9031 5.91874 29.1212 9.33874 27.4825 7.97374C26.2231 6.92499 26.2012 7.52562 25.2431 7.23874C23.9162 6.84249 25.6269 3.88124 24.1425 4.74499C22.8587 5.49124 22.2456 6.86749 19.3756 5.61374C17.6169 4.84499 17.1937 12.4031 24.7181 15.6519C31.6844 18.6594 42.4637 11.5956 38.6644 9.93749Z" fill="#7AB51D"/>
<path d="M34.6033 10.0813C33.4845 9.01751 32.4814 9.44938 32.3464 8.54063C32.2314 7.77376 33.772 6.77626 32.9364 6.52626C30.9033 5.91938 29.1214 9.33938 27.4826 7.97563C26.2233 6.92563 25.627 3.88188 24.1414 4.74563C22.9633 5.43126 22.367 6.56188 20.0308 5.86563C27.6951 7.68563 24.592 17.295 38.6639 9.93751C37.6514 9.49438 36.2333 11.6306 34.6033 10.0813Z" fill="#92C932"/>
<path d="M28.7554 15.5014C23.7579 15.5008 23.7529 8.0708 28.7554 8.0708C33.7529 8.0708 33.7579 15.5014 28.7554 15.5014Z" fill="url(#paint0_radial)"/>
<path d="M28.7553 14.718C24.8097 14.718 24.8053 8.85303 28.7553 8.85303C32.7003 8.85303 32.704 14.7187 28.7553 14.718Z" fill="url(#paint1_radial)"/>
<path d="M28.7556 13.7407C26.1237 13.7413 26.1212 9.83008 28.7556 9.83008C31.3862 9.8307 31.3881 13.7407 28.7556 13.7407Z" fill="url(#paint2_radial)"/>
<path d="M28.756 12.7631C27.441 12.7637 27.4391 10.8081 28.756 10.8081C30.0704 10.8081 30.0729 12.7631 28.756 12.7631Z" fill="url(#paint3_radial)"/>
<path d="M15.8989 9.98955C18.5071 3.30205 27.9552 6.97955 25.3452 13.6664L15.8989 9.98955Z" fill="white"/>
<path d="M17.4771 10.0976C19.1058 5.92381 25.5877 8.44819 23.9602 12.6201L17.4771 10.0976Z" fill="#F59E01"/>
<path d="M16.6314 8.32235C14.7045 6.1961 12.5157 11.7105 8.52636 11.2186C4.36323 10.7061 4.14823 12.4392 3.23448 13.3117C1.52886 17.2711 7.98823 40.043 27.572 13.2442C27.5726 13.2436 21.0339 13.1805 16.6314 8.32235Z" fill="#7AB51D"/>
<path d="M25.2603 13.0008C22.9247 13.0008 23.8797 8.5127 20.8972 8.5127C18.0904 8.5127 17.2541 12.6608 14.8679 12.6608C12.661 12.6608 12.0047 9.81707 10.0541 9.5777C7.75973 9.29457 7.21035 13.7996 3.23535 13.3114C3.23535 13.3114 19.7716 31.9277 30.2579 10.2721C28.1072 10.0058 27.5904 13.0008 25.2603 13.0008Z" fill="#A6E639"/>
<path d="M24.466 13.2031C22.6473 12.26 21.5067 13.2056 21.0092 12.0831C20.5929 11.1393 22.2279 9.25684 21.0629 9.25684C18.2229 9.25684 17.1292 14.3581 14.5335 13.23C12.541 12.3631 12.7223 13.1456 11.3823 13.1456C9.52916 13.1456 10.6973 8.66184 9.08416 10.3506C7.80229 11.6881 7.43104 13.3806 4.17041 13.3806C8.86979 13.3806 7.55166 20.4243 17.1004 20.4243C27.1654 20.4243 28.3829 10.2693 30.2579 10.2693C28.7929 10.0893 27.1167 14.5743 24.466 13.2031Z" fill="#7AB51D"/>
<path d="M14.1636 17.6837C12.383 19.8337 7.76112 15.6425 9.54237 13.4919C11.3236 11.3419 15.9449 15.535 14.1636 17.6837Z" fill="#302C3B"/>
<path d="M27.6651 27.1092C27.3463 27.1429 27.9857 27.0835 27.6651 27.1092V27.1092Z" fill="#7AB51D"/>
<path d="M13.0801 20.3232V20.327C13.1201 20.327 13.1582 20.332 13.1976 20.332C13.1601 20.3307 13.1176 20.3257 13.0801 20.3232Z" fill="#7AB51D"/>
<path d="M24.8501 16.4102L38.4463 21.0121C41.9957 11.4221 28.3976 6.81771 24.8501 16.4102Z" fill="#E81C27"/>
<path d="M33.6059 13.678C31.6303 20.1874 29.9565 19.2443 31.874 13.4486C32.0721 12.8449 28.029 12.2449 26.0415 16.8136L36.9903 20.5186C38.7084 15.1605 33.7953 13.0568 33.6059 13.678Z" fill="#C21413"/>
<path d="M34.5342 15.227C34.0192 14.9351 33.9498 16.1751 34.0417 16.2732C34.1329 16.3732 35.0779 15.537 34.5342 15.227Z" fill="#F79886"/>
<path d="M35.7136 16.1619C35.3899 15.6656 34.7624 16.7287 34.8005 16.86C34.8374 16.9906 36.0599 16.6875 35.7136 16.1619Z" fill="#F79886"/>
<path d="M28.9148 14.3908C28.3798 14.6458 29.3517 15.4065 29.486 15.3871C29.6204 15.3677 29.4798 14.1146 28.9148 14.3908Z" fill="#F79886"/>
<path d="M30.5168 13.9368C29.923 13.915 30.418 15.0418 30.5474 15.0862C30.673 15.1318 31.1424 13.955 30.5168 13.9368Z" fill="#F79886"/>
<path d="M5.78243 27.7644L21.0206 23.9963C18.6418 13.0694 3.40118 16.8363 5.78243 27.7644Z" fill="#E81C27"/>
<path d="M12.2404 20.0906C14.2548 27.2531 12.1561 27.3693 10.5086 20.8993C10.3367 20.2262 6.25794 22.0556 7.11669 27.4337L19.3873 24.4C17.8154 18.4518 12.0498 19.4068 12.2404 20.0906Z" fill="#C21413"/>
<path d="M7.95597 25.1104C7.90722 25.7561 9.16722 25.2511 9.22159 25.1154C9.27784 24.9773 8.01222 24.4298 7.95597 25.1104Z" fill="#F79886"/>
<path d="M8.33744 23.5095C7.99494 24.0614 9.33931 24.1895 9.45119 24.0907C9.56306 23.9939 8.69494 22.9232 8.33744 23.5095Z" fill="#F79886"/>
<path d="M9.54703 22.1492C8.98765 22.4774 10.107 23.2249 10.252 23.1892C10.3945 23.1574 10.1352 21.798 9.54703 22.1492Z" fill="#F79886"/>
<path d="M17.0254 21.7806C12.0279 21.7806 12.0229 14.3506 17.0254 14.3506C22.0229 14.3506 22.0279 21.7806 17.0254 21.7806Z" fill="url(#paint4_radial)"/>
<path d="M17.0258 20.9983C13.0802 20.9983 13.0758 15.1333 17.0258 15.1333C20.9714 15.1333 20.9746 20.9983 17.0258 20.9983Z" fill="url(#paint5_radial)"/>
<path d="M17.0256 20.0205C14.3938 20.0211 14.3912 16.1099 17.0256 16.1099C19.6563 16.1099 19.6588 20.0205 17.0256 20.0205Z" fill="url(#paint6_radial)"/>
<path d="M17.0255 19.0429C15.7105 19.0435 15.7087 17.0879 17.0255 17.0879C18.3405 17.0879 18.3424 19.0429 17.0255 19.0429Z" fill="url(#paint7_radial)"/>
<path d="M17.8181 18.5812C16.7306 10.5512 28.215 9.28931 29.3025 17.3187L17.8181 18.5812Z" fill="white"/>
<path d="M19.4243 18.2808C18.7212 13.099 26.8712 12.2027 27.5724 17.3852L19.4243 18.2808Z" fill="#F59E01"/>
<path d="M40.026 14.5092C41.9997 16.4661 37.7922 21.1117 35.8197 19.1554C33.846 17.1973 38.0547 12.5529 40.026 14.5092Z" fill="#302C3B"/>
<path d="M39.0323 18.4168C37.1323 18.1837 36.0398 19.4818 34.5192 19.2962C29.8623 18.7225 28.0754 15.9337 25.4723 15.6125C22.6754 15.2675 21.8898 18.6768 17.901 18.1856C13.7373 17.6731 13.8429 20.43 12.6079 20.2775C12.6085 20.2781 23.7948 36.3875 39.0323 18.4168Z" fill="#92C932"/>
<path d="M39.032 18.4171C36.882 18.1514 36.9651 19.9671 34.6333 19.9671C32.297 19.9671 33.2539 15.4814 30.2714 15.4814C27.4626 15.4814 26.6283 19.6277 24.2414 19.6277C22.0333 19.6277 21.3783 16.7852 19.4283 16.5458C17.1326 16.2633 16.5826 20.7683 12.6089 20.2789C12.6083 20.2783 34.4483 37.9333 39.032 18.4171Z" fill="#A6E639"/>
<path d="M39.0316 18.4168C37.5678 18.2368 36.4897 21.5418 33.8391 20.1718C32.0203 19.2293 30.8797 20.1749 30.3822 19.0518C29.9659 18.1074 31.6009 16.2236 30.4359 16.2236C27.5972 16.2236 26.5022 21.3261 23.9059 20.1974C21.9128 19.3305 22.0953 20.1124 20.7547 20.1124C18.9034 20.1124 20.0697 15.6293 18.4566 17.318C17.0622 18.7768 16.7534 20.7893 12.6078 20.278C10.0678 19.9643 10.9166 29.6786 23.0428 31.173C33.0903 32.4093 44.5222 19.0924 39.0316 18.4168Z" fill="#92C932"/>
<path d="M39.0319 18.4168C37.5682 18.2355 36.4901 21.5418 33.8394 20.1718C32.0207 19.2293 30.8801 20.1749 30.3826 19.0518C29.9663 18.1074 31.6013 16.2236 30.4363 16.2236C27.5976 16.2236 26.5026 21.3261 23.9063 20.1974C21.9132 19.3305 22.0963 20.1124 20.7551 20.1124C18.9038 20.1124 20.0701 15.6293 18.4569 17.3193C17.1769 18.658 16.8044 20.3486 13.5444 20.3486C18.2426 20.3486 16.9244 27.393 26.4744 27.393C36.5413 27.3936 37.1582 18.4168 39.0319 18.4168Z" fill="#7AB51D"/>
<path d="M30.2573 28.0063C25.2598 28.0063 25.2548 20.5757 30.2573 20.5757C35.2548 20.5757 35.2598 28.0063 30.2573 28.0063Z" fill="url(#paint8_radial)"/>
<path d="M30.2577 27.2235C26.3121 27.2235 26.3077 21.3579 30.2577 21.3579C34.2027 21.3579 34.2065 27.2235 30.2577 27.2235Z" fill="url(#paint9_radial)"/>
<path d="M30.2576 26.2464C27.6257 26.2477 27.6232 22.3364 30.2576 22.3364C32.8882 22.3364 32.8907 26.2464 30.2576 26.2464Z" fill="url(#paint10_radial)"/>
<path d="M30.2575 25.2683C28.9425 25.2696 28.9406 23.314 30.2575 23.314C31.5718 23.314 31.5743 25.2683 30.2575 25.2683Z" fill="url(#paint11_radial)"/>
<path d="M27.8372 27.0971C26.2834 30.4628 19.0478 26.8053 20.6016 23.4409C22.1547 20.0753 29.3903 23.7328 27.8372 27.0971Z" fill="#302C3B"/>
<path d="M40.6523 18.3755C38.6567 29.4792 5.34422 29.4792 3.34734 18.3755H2.02734C3.16297 34.1499 40.8373 34.1499 41.973 18.3755H40.6523Z" fill="#E6EBEF"/>
<path d="M2 17.6431C2 46.1193 42 46.1193 42 17.6431C42 31.8281 2 31.8281 2 17.6431Z" fill="url(#paint12_linear)"/>
<defs>
<radialGradient id="paint0_radial" cx="0" cy="0" r="1" gradientUnits="userSpaceOnUse" gradientTransform="translate(28.7554 11.7858) scale(3.75031 3.71506)">
<stop stop-color="#FFA8EC"/>
<stop offset="0.3809" stop-color="#FEA6EB"/>
<stop offset="0.5295" stop-color="#FC9FE9"/>
<stop offset="0.6376" stop-color="#F993E4"/>
<stop offset="0.7261" stop-color="#F482DD"/>
<stop offset="0.8025" stop-color="#EE6BD5"/>
<stop offset="0.8706" stop-color="#E64FCA"/>
<stop offset="0.9325" stop-color="#DC2EBE"/>
<stop offset="0.9879" stop-color="#D209B0"/>
<stop offset="1" stop-color="#CF00AC"/>
</radialGradient>
<radialGradient id="paint1_radial" cx="0" cy="0" r="1" gradientUnits="userSpaceOnUse" gradientTransform="translate(28.7554 11.7852) scale(2.96019 2.93236)">
<stop stop-color="#FFA8EC"/>
<stop offset="0.3809" stop-color="#FEA6EB"/>
<stop offset="0.5295" stop-color="#FC9FE9"/>
<stop offset="0.6376" stop-color="#F993E4"/>
<stop offset="0.7261" stop-color="#F482DD"/>
<stop offset="0.8025" stop-color="#EE6BD5"/>
<stop offset="0.8706" stop-color="#E64FCA"/>
<stop offset="0.9325" stop-color="#DC2EBE"/>
<stop offset="0.9879" stop-color="#D209B0"/>
<stop offset="1" stop-color="#CF00AC"/>
</radialGradient>
<radialGradient id="paint2_radial" cx="0" cy="0" r="1" gradientUnits="userSpaceOnUse" gradientTransform="translate(28.755 11.7854) scale(1.97419 1.95563)">
<stop stop-color="#FFA8EC"/>
<stop offset="0.3809" stop-color="#FEA6EB"/>
<stop offset="0.5295" stop-color="#FC9FE9"/>
<stop offset="0.6376" stop-color="#F993E4"/>
<stop offset="0.7261" stop-color="#F482DD"/>
<stop offset="0.8025" stop-color="#EE6BD5"/>
<stop offset="0.8706" stop-color="#E64FCA"/>
<stop offset="0.9325" stop-color="#DC2EBE"/>
<stop offset="0.9879" stop-color="#D209B0"/>
<stop offset="1" stop-color="#CF00AC"/>
</radialGradient>
<radialGradient id="paint3_radial" cx="0" cy="0" r="1" gradientUnits="userSpaceOnUse" gradientTransform="translate(28.7561 11.7853) scale(0.986812 0.977537)">
<stop stop-color="#FFA8EC"/>
<stop offset="0.3809" stop-color="#FEA6EB"/>
<stop offset="0.5295" stop-color="#FC9FE9"/>
<stop offset="0.6376" stop-color="#F993E4"/>
<stop offset="0.7261" stop-color="#F482DD"/>
<stop offset="0.8025" stop-color="#EE6BD5"/>
<stop offset="0.8706" stop-color="#E64FCA"/>
<stop offset="0.9325" stop-color="#DC2EBE"/>
<stop offset="0.9879" stop-color="#D209B0"/>
<stop offset="1" stop-color="#CF00AC"/>
</radialGradient>
<radialGradient id="paint4_radial" cx="0" cy="0" r="1" gradientUnits="userSpaceOnUse" gradientTransform="translate(17.0257 18.0655) scale(3.75012 3.71487)">
<stop stop-color="#FFA8EC"/>
<stop offset="0.3809" stop-color="#FEA6EB"/>
<stop offset="0.5295" stop-color="#FC9FE9"/>
<stop offset="0.6376" stop-color="#F993E4"/>
<stop offset="0.7261" stop-color="#F482DD"/>
<stop offset="0.8025" stop-color="#EE6BD5"/>
<stop offset="0.8706" stop-color="#E64FCA"/>
<stop offset="0.9325" stop-color="#DC2EBE"/>
<stop offset="0.9879" stop-color="#D209B0"/>
<stop offset="1" stop-color="#CF00AC"/>
</radialGradient>
<radialGradient id="paint5_radial" cx="0" cy="0" r="1" gradientUnits="userSpaceOnUse" gradientTransform="translate(17.0255 18.0654) scale(2.96069 2.93286)">
<stop stop-color="#FFA8EC"/>
<stop offset="0.3809" stop-color="#FEA6EB"/>
<stop offset="0.5295" stop-color="#FC9FE9"/>
<stop offset="0.6376" stop-color="#F993E4"/>
<stop offset="0.7261" stop-color="#F482DD"/>
<stop offset="0.8025" stop-color="#EE6BD5"/>
<stop offset="0.8706" stop-color="#E64FCA"/>
<stop offset="0.9325" stop-color="#DC2EBE"/>
<stop offset="0.9879" stop-color="#D209B0"/>
<stop offset="1" stop-color="#CF00AC"/>
</radialGradient>
<radialGradient id="paint6_radial" cx="0" cy="0" r="1" gradientUnits="userSpaceOnUse" gradientTransform="translate(17.0253 18.0651) scale(1.974 1.95544)">
<stop stop-color="#FFA8EC"/>
<stop offset="0.3809" stop-color="#FEA6EB"/>
<stop offset="0.5295" stop-color="#FC9FE9"/>
<stop offset="0.6376" stop-color="#F993E4"/>
<stop offset="0.7261" stop-color="#F482DD"/>
<stop offset="0.8025" stop-color="#EE6BD5"/>
<stop offset="0.8706" stop-color="#E64FCA"/>
<stop offset="0.9325" stop-color="#DC2EBE"/>
<stop offset="0.9879" stop-color="#D209B0"/>
<stop offset="1" stop-color="#CF00AC"/>
</radialGradient>
<radialGradient id="paint7_radial" cx="0" cy="0" r="1" gradientUnits="userSpaceOnUse" gradientTransform="translate(17.0255 18.065) scale(0.986938 0.97766)">
<stop stop-color="#FFA8EC"/>
<stop offset="0.3809" stop-color="#FEA6EB"/>
<stop offset="0.5295" stop-color="#FC9FE9"/>
<stop offset="0.6376" stop-color="#F993E4"/>
<stop offset="0.7261" stop-color="#F482DD"/>
<stop offset="0.8025" stop-color="#EE6BD5"/>
<stop offset="0.8706" stop-color="#E64FCA"/>
<stop offset="0.9325" stop-color="#DC2EBE"/>
<stop offset="0.9879" stop-color="#D209B0"/>
<stop offset="1" stop-color="#CF00AC"/>
</radialGradient>
<radialGradient id="paint8_radial" cx="0" cy="0" r="1" gradientUnits="userSpaceOnUse" gradientTransform="translate(30.2576 24.291) scale(3.75031 3.71506)">
<stop stop-color="#FFA8EC"/>
<stop offset="0.3809" stop-color="#FEA6EB"/>
<stop offset="0.5295" stop-color="#FC9FE9"/>
<stop offset="0.6376" stop-color="#F993E4"/>
<stop offset="0.7261" stop-color="#F482DD"/>
<stop offset="0.8025" stop-color="#EE6BD5"/>
<stop offset="0.8706" stop-color="#E64FCA"/>
<stop offset="0.9325" stop-color="#DC2EBE"/>
<stop offset="0.9879" stop-color="#D209B0"/>
<stop offset="1" stop-color="#CF00AC"/>
</radialGradient>
<radialGradient id="paint9_radial" cx="0" cy="0" r="1" gradientUnits="userSpaceOnUse" gradientTransform="translate(30.2574 24.2907) scale(2.96081 2.93298)">
<stop stop-color="#FFA8EC"/>
<stop offset="0.3809" stop-color="#FEA6EB"/>
<stop offset="0.5295" stop-color="#FC9FE9"/>
<stop offset="0.6376" stop-color="#F993E4"/>
<stop offset="0.7261" stop-color="#F482DD"/>
<stop offset="0.8025" stop-color="#EE6BD5"/>
<stop offset="0.8706" stop-color="#E64FCA"/>
<stop offset="0.9325" stop-color="#DC2EBE"/>
<stop offset="0.9879" stop-color="#D209B0"/>
<stop offset="1" stop-color="#CF00AC"/>
</radialGradient>
<radialGradient id="paint10_radial" cx="0" cy="0" r="1" gradientUnits="userSpaceOnUse" gradientTransform="translate(30.2572 24.2911) scale(1.97388 1.95532)">
<stop stop-color="#FFA8EC"/>
<stop offset="0.3809" stop-color="#FEA6EB"/>
<stop offset="0.5295" stop-color="#FC9FE9"/>
<stop offset="0.6376" stop-color="#F993E4"/>
<stop offset="0.7261" stop-color="#F482DD"/>
<stop offset="0.8025" stop-color="#EE6BD5"/>
<stop offset="0.8706" stop-color="#E64FCA"/>
<stop offset="0.9325" stop-color="#DC2EBE"/>
<stop offset="0.9879" stop-color="#D209B0"/>
<stop offset="1" stop-color="#CF00AC"/>
</radialGradient>
<radialGradient id="paint11_radial" cx="0" cy="0" r="1" gradientUnits="userSpaceOnUse" gradientTransform="translate(30.2577 24.2911) scale(0.986625 0.97735)">
<stop stop-color="#FFA8EC"/>
<stop offset="0.3809" stop-color="#FEA6EB"/>
<stop offset="0.5295" stop-color="#FC9FE9"/>
<stop offset="0.6376" stop-color="#F993E4"/>
<stop offset="0.7261" stop-color="#F482DD"/>
<stop offset="0.8025" stop-color="#EE6BD5"/>
<stop offset="0.8706" stop-color="#E64FCA"/>
<stop offset="0.9325" stop-color="#DC2EBE"/>
<stop offset="0.9879" stop-color="#D209B0"/>
<stop offset="1" stop-color="#CF00AC"/>
</radialGradient>
<linearGradient id="paint12_linear" x1="2" y1="28.3213" x2="42" y2="28.3213" gradientUnits="userSpaceOnUse">
<stop stop-color="#CFD8DD"/>
<stop offset="0.3818" stop-color="#CBD5DA"/>
<stop offset="0.7485" stop-color="#C0CCD0"/>
<stop offset="1" stop-color="#B3C2C6"/>
</linearGradient>
</defs>
</svg>
