<svg width="64" height="64" viewBox="0 0 64 64" fill="none" xmlns="http://www.w3.org/2000/svg">
<g clip-path="url(#clip0)">
<path d="M64.001 17.642C59.13 17.799 56.326 24.321 53.017 27.986C50.413 30.868 47.927 30.525 46.22 29.614V41.505C48.421 40.945 50.466 41.241 52.62 43.068C55.68 46.057 58.909 51.316 64.001 51.483C57.261 45.915 57.401 23.092 64.001 17.642Z" fill="url(#paint0_linear)"/>
<path d="M56.2201 30.621C56.2201 30.621 46.7471 31.694 46.9611 32.221C47.5241 33.628 56.2201 30.621 56.2201 30.621Z" fill="#004C78"/>
<path d="M57.0519 32.536C57.0519 32.536 46.6399 33.474 47.0909 33.913C48.2839 35.08 57.0519 32.536 57.0519 32.536Z" fill="#004C78"/>
<path d="M56.9381 34.782C56.9381 34.782 46.2131 34.616 46.3791 35.163C46.8041 36.63 56.9381 34.782 56.9381 34.782Z" fill="#004C78"/>
<path d="M57.5829 36.788C57.5829 36.788 45.8209 36.015 46.2289 36.503C47.3039 37.809 57.5829 36.788 57.5829 36.788Z" fill="#004C78"/>
<path d="M57.2329 39.591C57.2329 39.591 46.1949 36.908 46.2369 37.487C46.3359 39.024 57.2329 39.591 57.2329 39.591Z" fill="#004C78"/>
<path d="M55.3879 41.45C55.3879 41.45 46.0289 38.247 46.3199 38.833C47.0829 40.389 55.3879 41.45 55.3879 41.45Z" fill="#004C78"/>
<path d="M21.5291 50.913C21.5291 50.913 32.1601 55.179 42.4481 53.682C43.5881 53.517 43.2921 53.181 42.8761 52.845C37.8031 48.751 42.2571 43.437 42.2571 43.437L21.5291 50.913Z" fill="url(#paint1_linear)"/>
<path d="M47.864 30.082C45.108 21.398 34.968 12.768 22.979 10.052C19.925 9.36299 20.791 15.671 13.636 18.972C28.78 16.68 48.093 30.804 47.864 30.082Z" fill="url(#paint2_linear)"/>
<path d="M44.9471 29.937C45.5941 29.808 45.5681 29.867 46.2191 29.747C46.0101 27.46 42.7461 22.202 42.7461 22.202C42.7461 22.202 45.2331 27.437 44.9471 29.937Z" fill="#004C78"/>
<path d="M42.6961 27.655C43.3441 27.526 43.3171 27.585 43.9671 27.465C43.7591 25.178 40.4951 19.92 40.4951 19.92C40.4951 19.92 42.9831 25.154 42.6961 27.655Z" fill="#004C78"/>
<path d="M40.1871 25.112C40.8341 24.984 40.8071 25.043 41.4581 24.922C41.2491 22.635 37.9851 17.377 37.9851 17.377C37.9851 17.377 40.4721 22.612 40.1871 25.112Z" fill="#004C78"/>
<path d="M37.6491 24.183C38.3911 24.035 38.3601 24.103 39.1041 23.965C38.8661 21.349 35.1321 15.333 35.1321 15.333C35.1321 15.333 37.9781 21.323 37.6491 24.183Z" fill="#004C78"/>
<path d="M34.7489 22.628C35.4909 22.48 35.4599 22.548 36.2039 22.41C35.9659 19.794 32.2329 13.778 32.2329 13.778C32.2329 13.778 35.0769 19.768 34.7489 22.628Z" fill="#004C78"/>
<path d="M31.639 21.244C32.381 21.096 32.35 21.164 33.095 21.026C32.856 18.41 29.124 12.394 29.124 12.394C29.124 12.394 31.967 18.383 31.639 21.244Z" fill="#004C78"/>
<path d="M28.6649 20.229C29.4069 20.081 29.3759 20.149 30.1199 20.011C29.8819 17.395 26.1479 11.379 26.1479 11.379C26.1479 11.379 28.9929 17.368 28.6649 20.229Z" fill="#004C78"/>
<path d="M25.7511 19.476C26.4931 19.328 26.4611 19.396 27.2061 19.258C26.9681 16.642 23.2351 10.626 23.2351 10.626C23.2351 10.626 26.0791 16.615 25.7511 19.476Z" fill="#004C78"/>
<path d="M23.5629 20.229C24.3049 20.081 24.2729 20.149 25.0179 20.011C24.7799 17.395 21.0459 11.379 21.0459 11.379C21.0459 11.379 23.8909 17.368 23.5629 20.229Z" fill="#004C78"/>
<path d="M22.173 22.628C22.915 22.48 22.883 22.548 23.629 22.41C23.39 19.794 19.657 13.778 19.657 13.778C19.657 13.778 22.501 19.768 22.173 22.628Z" fill="#004C78"/>
<path d="M20.7001 24.654C21.4421 24.506 21.4101 24.574 22.1551 24.436C21.9161 21.82 18.1831 15.804 18.1831 15.804C18.1831 15.804 21.0281 21.793 20.7001 24.654Z" fill="#004C78"/>
<path d="M39.0679 46.563C38.4239 46.712 38.4209 46.698 37.7739 46.841C38.6879 52.814 43.0919 53.37 43.0919 53.37C43.0919 53.37 39.3209 52.312 39.0679 46.563Z" fill="#004C78"/>
<path d="M37.202 46.847C36.557 46.997 36.554 46.982 35.907 47.125C36.822 53.099 42.014 53.655 42.014 53.655C42.014 53.655 37.454 52.595 37.202 46.847Z" fill="#004C78"/>
<path d="M35.218 46.847C34.574 46.997 34.571 46.982 33.925 47.125C34.839 53.099 40.0321 53.655 40.0321 53.655C40.0321 53.655 35.472 52.595 35.218 46.847Z" fill="#004C78"/>
<path d="M33.2781 46.847C32.6341 46.997 32.6301 46.982 31.9851 47.125C32.8991 53.099 38.0931 53.655 38.0931 53.655C38.0931 53.655 33.5321 52.595 33.2781 46.847Z" fill="#004C78"/>
<path d="M31.2801 47.021C30.6351 47.171 30.6321 47.156 29.9851 47.299C30.9001 53.273 36.0931 53.829 36.0931 53.829C36.0931 53.829 31.5321 52.771 31.2801 47.021Z" fill="#004C78"/>
<path d="M29.0279 46.847C28.3829 46.997 28.3799 46.982 27.7329 47.125C28.6479 53.099 33.8409 53.655 33.8409 53.655C33.8409 53.655 29.2799 52.595 29.0279 46.847Z" fill="#004C78"/>
<path d="M26.2071 46.421C25.5631 46.571 25.5591 46.556 24.9131 46.698C25.8281 52.673 31.0201 53.229 31.0201 53.229C31.0201 53.229 26.4591 52.169 26.2071 46.421Z" fill="#004C78"/>
<path d="M13.636 18.477C4.53998 21.538 3.83698 30.005 0.635976 32.015C-1.89702 33.608 3.43598 36.632 11.369 34.99C7.75498 38.099 0.568976 37.727 1.33798 38.921C2.53798 40.787 3.93398 43.248 5.88698 45.459L5.88598 45.457C5.88598 45.457 10.434 51.996 21.134 51.996C43.42 51.996 50.953 38.252 50.953 35.661C50.952 28.5 28.619 13.435 13.636 18.477Z" fill="url(#paint3_linear)"/>
<path opacity="0.5" d="M18.4909 23.646C24.2089 32.968 22.2989 40.683 13.1909 44.841C19.0189 44.671 29.3189 34.5 18.4909 23.646Z" fill="#006DAE"/>
<path d="M28.133 21.604C28.133 22.969 26.156 22.969 26.156 21.604C26.157 20.24 28.133 20.24 28.133 21.604Z" fill="#006DAE"/>
<path d="M29.4341 26.069C29.4341 27.434 27.4551 27.434 27.4551 26.069C27.4561 24.705 29.4341 24.705 29.4341 26.069Z" fill="#006DAE"/>
<path d="M33.726 24.278C33.726 25.161 32.446 25.161 32.446 24.278C32.446 23.395 33.726 23.396 33.726 24.278Z" fill="#006DAE"/>
<path d="M21.4479 20.582C21.4479 21.465 20.1689 21.465 20.1689 20.582C20.1689 19.698 21.4479 19.698 21.4479 20.582Z" fill="#006DAE"/>
<path d="M24.268 24.278C24.268 25.161 22.989 25.161 22.989 24.278C22.989 23.395 24.268 23.396 24.268 24.278Z" fill="#006DAE"/>
<path d="M38.696 26.35C38.696 27.715 36.719 27.715 36.719 26.35C36.719 24.985 38.696 24.985 38.696 26.35Z" fill="#006DAE"/>
<path d="M11.1881 24.226C7.83711 24.226 6.52511 27.057 6.81811 29.263C7.03611 30.902 15.3441 30.902 15.5601 29.263C15.8691 26.876 14.2461 24.226 11.1881 24.226Z" fill="#1A1626"/>
<path d="M11.1881 25.015C8.77012 25.015 6.81812 26.803 6.81812 29.016C6.81812 30.923 8.76912 33.017 11.1881 33.017C13.6021 33.017 15.5601 30.575 15.5601 29.016C15.5601 26.803 13.6001 25.015 11.1881 25.015Z" fill="white"/>
<path d="M10.7679 25.792C12.5699 25.792 14.0299 27.217 14.0299 28.975C14.0299 30.734 12.5699 32.159 10.7679 32.159C8.96291 32.159 7.50391 30.734 7.50391 28.975C7.50391 27.218 8.96291 25.792 10.7679 25.792Z" fill="#1A1626"/>
<path d="M10.5081 27.383C10.5081 28.54 8.7251 28.54 8.7251 27.383C8.7251 26.224 10.5081 26.224 10.5081 27.383Z" fill="white"/>
<path d="M24.601 37.246C15.346 44.531 50.48 44.565 40.393 32.833C34.037 25.444 30.192 32.846 24.601 37.246Z" fill="url(#paint4_linear)"/>
<path d="M35.2559 30.508C35.2559 30.508 26.4669 36.237 26.9849 36.498C28.3599 37.206 35.2559 30.508 35.2559 30.508Z" fill="url(#paint5_linear)"/>
<path d="M37.192 31.436C37.192 31.436 27.3909 37.562 28.0939 37.638C29.9539 37.845 37.192 31.436 37.192 31.436Z" fill="url(#paint6_linear)"/>
<path d="M38.3779 33.099C38.3779 33.099 27.6299 38.598 28.1119 38.904C29.3809 39.726 38.3779 33.099 38.3779 33.099Z" fill="url(#paint7_linear)"/>
<path d="M40.1819 34.188C40.1819 34.188 28.0479 39.8 28.7389 39.936C30.5589 40.303 40.1819 34.188 40.1819 34.188Z" fill="url(#paint8_linear)"/>
<path d="M41.4579 36.372C41.4579 36.372 28.9399 40.242 29.3149 40.632C30.3039 41.678 41.4579 36.372 41.4579 36.372Z" fill="url(#paint9_linear)"/>
<path d="M40.698 38.666C40.698 38.666 29.549 41.285 30.178 41.55C31.835 42.259 40.698 38.666 40.698 38.666Z" fill="url(#paint10_linear)"/>
</g>
<defs>
<linearGradient id="paint0_linear" x1="45.9385" y1="34.5625" x2="64.2578" y2="34.5625" gradientUnits="userSpaceOnUse">
<stop stop-color="#004E7A"/>
<stop offset="1" stop-color="#2289C7"/>
</linearGradient>
<linearGradient id="paint1_linear" x1="21.5294" y1="48.7188" x2="43.2462" y2="48.7188" gradientUnits="userSpaceOnUse">
<stop stop-color="#004E7A"/>
<stop offset="0.2077" stop-color="#02527F"/>
<stop offset="0.4527" stop-color="#095D8D"/>
<stop offset="0.7164" stop-color="#136FA5"/>
<stop offset="0.9917" stop-color="#2288C6"/>
<stop offset="1" stop-color="#2289C7"/>
</linearGradient>
<linearGradient id="paint2_linear" x1="30.7515" y1="30.1089" x2="30.7515" y2="9.99999" gradientUnits="userSpaceOnUse">
<stop stop-color="#2289C7"/>
<stop offset="1" stop-color="#004E7A"/>
</linearGradient>
<linearGradient id="paint3_linear" x1="25.4761" y1="51.9951" x2="25.4761" y2="17.4648" gradientUnits="userSpaceOnUse">
<stop offset="0.2485" stop-color="#BDEBFF"/>
<stop offset="0.259" stop-color="#B9E9FE"/>
<stop offset="0.4286" stop-color="#78C4ED"/>
<stop offset="0.5825" stop-color="#44A7E0"/>
<stop offset="0.7157" stop-color="#1F92D7"/>
<stop offset="0.823" stop-color="#0886D1"/>
<stop offset="0.8909" stop-color="#0081CF"/>
</linearGradient>
<linearGradient id="paint4_linear" x1="24.7443" y1="36.0296" x2="42.221" y2="35.9253" gradientUnits="userSpaceOnUse">
<stop offset="0.103" stop-color="#0069A3" stop-opacity="0"/>
<stop offset="1" stop-color="#0069A3"/>
</linearGradient>
<linearGradient id="paint5_linear" x1="26.9628" y1="33.5293" x2="35.2558" y2="33.5293" gradientUnits="userSpaceOnUse">
<stop offset="0.103" stop-color="#0069A3" stop-opacity="0"/>
<stop offset="1" stop-color="#0069A3"/>
</linearGradient>
<linearGradient id="paint6_linear" x1="28.058" y1="34.5391" x2="37.1924" y2="34.5391" gradientUnits="userSpaceOnUse">
<stop offset="0.103" stop-color="#0069A3" stop-opacity="0"/>
<stop offset="1" stop-color="#0069A3"/>
</linearGradient>
<linearGradient id="paint7_linear" x1="28.0961" y1="36.0361" x2="38.3778" y2="36.0361" gradientUnits="userSpaceOnUse">
<stop offset="0.103" stop-color="#0069A3" stop-opacity="0"/>
<stop offset="1" stop-color="#0069A3"/>
</linearGradient>
<linearGradient id="paint8_linear" x1="28.7103" y1="37.0703" x2="40.1815" y2="37.0703" gradientUnits="userSpaceOnUse">
<stop offset="0.103" stop-color="#0069A3" stop-opacity="0"/>
<stop offset="1" stop-color="#0069A3"/>
</linearGradient>
<linearGradient id="paint9_linear" x1="29.3065" y1="38.5703" x2="41.4579" y2="38.5703" gradientUnits="userSpaceOnUse">
<stop offset="0.103" stop-color="#0069A3" stop-opacity="0"/>
<stop offset="1" stop-color="#0069A3"/>
</linearGradient>
<linearGradient id="paint10_linear" x1="30.1523" y1="40.1543" x2="40.6982" y2="40.1543" gradientUnits="userSpaceOnUse">
<stop offset="0.103" stop-color="#0069A3" stop-opacity="0"/>
<stop offset="1" stop-color="#0069A3"/>
</linearGradient>
<clipPath id="clip0">
<rect width="64" height="64" fill="white"/>
</clipPath>
</defs>
</svg>
