<svg width="64" height="64" viewBox="0 0 64 64" fill="none" xmlns="http://www.w3.org/2000/svg">
<g clip-path="url(#clip0)">
<path d="M49.8051 11.745C49.3021 11.54 54.1601 10.381 53.9501 9.88895C53.7381 9.40095 50.5081 9.38895 51.1061 9.11995C51.7061 8.84395 54.5131 7.09195 54.4541 6.70295C54.3861 6.25495 51.2351 7.05295 51.7791 6.59095C52.3201 6.12895 54.1431 5.13995 54.6041 4.52095C54.9251 4.09195 53.5261 4.31795 52.7171 4.44495C52.0171 4.55295 53.2201 2.28295 52.6821 2.36695C52.0801 2.46095 50.9631 4.92995 50.7481 4.84195C50.5311 4.75595 50.7061 1.52395 50.2111 1.59995C49.7691 1.66995 49.0701 5.47995 48.8771 5.99995C48.6861 6.51895 47.7531 2.71495 47.4631 3.09695C47.1071 3.56695 47.7191 7.09295 47.2801 6.78595C47.0011 6.58995 45.9721 4.59595 45.4991 4.66895C45.2421 4.70895 46.4871 9.45795 45.7781 8.70395C45.0691 7.94695 44.5461 6.33895 44.1291 6.40395C43.7531 6.46295 45.0731 13.938 45.6511 13.847C47.0041 13.635 52.4421 12.302 52.5771 11.932C52.7151 11.562 50.3071 11.948 49.8051 11.745Z" fill="#48821D"/>
<path d="M53.1911 17.1889C52.8791 16.7329 57.4181 18.5219 57.4871 17.9909C57.5531 17.4609 54.9211 15.6159 55.5411 15.7299C56.1661 15.8389 59.3191 15.9659 59.4611 15.6059C59.6231 15.1919 56.6601 14.0709 57.3301 13.9929C57.9991 13.9129 59.9731 14.1189 60.6521 13.8629C61.1261 13.6869 59.8721 13.0779 59.1481 12.7249C58.5221 12.4169 60.6191 11.1989 60.1381 10.9649C59.6011 10.7019 57.4781 12.1349 57.3451 11.9399C57.2101 11.7449 58.9371 9.13394 58.4961 8.91794C58.0991 8.72294 55.6621 11.5229 55.2491 11.8489C54.8381 12.1729 55.9401 8.45494 55.5171 8.60994C54.9961 8.80094 53.7671 12.1049 53.5601 11.5989C53.4271 11.2749 53.5641 9.01794 53.1421 8.81194C52.9131 8.69894 51.6001 13.3879 51.3921 12.3529C51.1841 11.3139 51.5451 9.67094 51.1721 9.48694C50.8351 9.32294 48.2491 16.3399 48.7661 16.5919C49.9751 17.1819 55.0721 19.1559 55.3641 18.9219C55.6561 18.6899 53.5011 17.6439 53.1911 17.1889Z" fill="#297124"/>
<path d="M39.942 24.689C39.942 24.689 45.798 18.894 50.291 16.311L50.085 14.7C50.085 14.7 44.058 20.479 39.699 22.142L39.942 24.689Z" fill="#297124"/>
<path d="M40.26 25.021C40.26 25.021 43.388 17.256 46.506 13.01L45.698 11.621C45.698 11.621 42.404 19.439 39.052 22.791L40.26 25.021Z" fill="#48821D"/>
<path d="M39.7331 25.3011C39.7331 25.3011 44.4211 18.3871 48.5911 15.2311L47.8661 13.3831C47.8661 13.3831 42.9831 20.2841 38.6741 22.3771L39.7331 25.3011Z" fill="#529320"/>
<path d="M42.1879 29.937C45.2959 27.403 45.7039 22.903 43.0939 19.884C40.4829 16.864 35.8419 16.469 32.7329 19.004L42.1879 29.937Z" fill="#529320"/>
<path d="M33.796 16.1949C27.354 16.1949 16.571 37.5829 10.949 44.0489C5.479 50.3409 0 61.3809 0 63.8209C0 64.8479 9.065 61.3149 13.621 56.5019C18.178 51.6899 45.825 35.8339 45.825 27.8769C45.825 23.1269 38.898 16.1949 33.796 16.1949Z" fill="url(#paint0_radial)"/>
<path d="M30.823 26.854C30.823 26.854 38.898 33.447 36.698 37.884C39.905 35.827 37.057 29.685 30.823 26.854Z" fill="#FF5E00"/>
<path d="M21.0439 36.675C21.0439 36.675 28.1169 42.45 26.1879 46.336C28.9969 44.536 26.5009 39.155 21.0439 36.675Z" fill="#FF5E00"/>
<path d="M9.92798 48.7729C9.92798 48.7729 15.467 51.692 13.762 55.573C16.108 53.226 14.271 49.3329 9.92798 48.7729Z" fill="#FF5E00"/>
<path d="M3.7041 55.6899C3.7041 55.6899 8.2451 58.3399 7.3011 60.9289C8.8851 59.5009 7.1001 56.5379 3.7041 55.6899Z" fill="#FF5E00"/>
<path d="M39.5301 27.302C39.5301 27.302 33.2121 18.878 28.9561 21.174C30.9271 17.828 36.8141 20.801 39.5301 27.302Z" fill="#FF5E00"/>
<path d="M29.0281 38.002C29.0281 38.002 23.4921 30.624 19.7661 32.636C21.4931 29.705 26.6501 32.309 29.0281 38.002Z" fill="#FF5E00"/>
<path d="M18.3239 48.719C18.3239 48.719 15.5239 42.941 11.8049 44.72C14.0569 42.272 17.7869 44.188 18.3239 48.719Z" fill="#FF5E00"/>
<path d="M10.4739 56.2329C10.4739 56.2329 8.44793 51.8599 5.60693 53.2819C7.34593 51.3709 10.1379 52.7749 10.4739 56.2329Z" fill="#FF5E00"/>
<path d="M54.194 14.561C53.532 14.022 61.064 14.666 60.938 13.85C60.81 13.036 56.093 11.472 57.066 11.368C58.045 11.253 62.798 10.047 62.856 9.45403C62.922 8.77203 58.022 8.42103 58.987 8.01103C59.951 7.59803 62.982 7.03303 63.886 6.35603C64.515 5.88603 62.385 5.54103 61.156 5.33603C60.093 5.16003 62.693 2.43403 61.877 2.29803C60.964 2.14903 58.413 5.20103 58.132 4.97203C57.848 4.74303 59.302 0.123031 58.552 -0.000968982C57.877 -0.110969 55.442 5.10003 54.97 5.76303C54.495 6.42403 54.544 0.444031 53.979 0.861031C53.284 1.37403 52.87 6.79603 52.344 6.14103C52.007 5.72003 51.244 2.32603 50.526 2.20803C50.136 2.14303 50.193 9.64903 49.436 8.20903C48.679 6.76903 48.511 4.17803 47.878 4.07503C47.309 3.98103 46.463 15.486 47.341 15.63C49.396 15.971 57.839 16.638 58.176 16.166C58.512 15.69 54.851 15.096 54.194 14.561Z" fill="#529320"/>
<path d="M48.301 14.915L59.321 5.90698C53.213 8.16398 48.301 14.915 48.301 14.915Z" fill="#297124"/>
<path d="M52.019 12.774L57.704 12.987C52.844 11.205 52.019 12.774 52.019 12.774Z" fill="#7AB51D"/>
<path d="M47.947 9.44104L49.044 12.799C49.045 12.798 50.457 12.309 47.947 9.44104Z" fill="#7AB51D"/>
<path d="M53.6329 15.047L50.4579 13.37C50.4579 13.371 49.9339 14.755 53.6329 15.047Z" fill="#7AB51D"/>
<path d="M51.5249 5.85205L51.3779 10.5611C51.3779 10.5611 52.9909 10.1371 51.5249 5.85205Z" fill="#7AB51D"/>
<path d="M53.421 4.64795L53.377 8.26795C53.378 8.26895 54.974 8.00295 53.421 4.64795Z" fill="#7AB51D"/>
<path d="M59.4921 9.948C55.0811 8.875 54.8 10.515 54.8 10.515L59.4921 9.948Z" fill="#7AB51D"/>
</g>
<defs>
<radialGradient id="paint0_radial" cx="0" cy="0" r="1" gradientUnits="userSpaceOnUse" gradientTransform="translate(27.0451 35.6325) rotate(46.2133) scale(10.4373 46.254)">
<stop stop-color="#FF9100"/>
<stop offset="0.255" stop-color="#FF8B00"/>
<stop offset="0.5909" stop-color="#FF7B00"/>
<stop offset="0.9705" stop-color="#FF5F00"/>
<stop offset="1" stop-color="#FF5D00"/>
</radialGradient>
<clipPath id="clip0">
<rect width="64" height="64" fill="white"/>
</clipPath>
</defs>
</svg>
