<svg width="64" height="64" viewBox="0 0 64 64" fill="none" xmlns="http://www.w3.org/2000/svg">
<path d="M32 62C17.296 62 5.33301 55.807 5.33301 48.195C5.33301 40.583 17.296 34.391 32 34.391C46.704 34.391 58.667 40.584 58.667 48.196C58.667 55.808 46.704 62 32 62Z" fill="#99A8AE"/>
<path d="M32 60.883C14.356 60.883 0 53.447 0 44.315C0 35.18 14.356 27.749 32 27.749C49.646 27.749 64 35.18 64 44.315C64 53.447 49.646 60.883 32 60.883Z" fill="#CFD8DD"/>
<path d="M32.0009 59.2499C49.1775 59.2499 63.1019 52.2701 63.1019 43.6599C63.1019 35.0498 49.1775 28.0699 32.0009 28.0699C14.8243 28.0699 0.899902 35.0498 0.899902 43.6599C0.899902 52.2701 14.8243 59.2499 32.0009 59.2499Z" fill="url(#paint0_radial)"/>
<path d="M7.37888 38.775C-1.99612 49.004 14.4999 44.377 13.7559 52.341C13.0269 60.155 27.9849 47.109 33.7899 54.599C37.7369 59.697 51.8119 54.146 51.0459 49.288C50.1839 43.86 68.5789 48.175 56.9799 39.831C43.0999 29.848 18.4519 26.695 7.37888 38.775Z" fill="#529320"/>
<path d="M57.5129 41.123C69.4919 36.443 55.8089 37.158 50.6669 31.954C45.5019 26.72 32.0189 31.698 32.9889 22.744C33.6059 17.049 18.9209 25.738 19.6449 30.326C20.4579 35.451 -5.01109 30.658 6.13291 39.047C17.9169 47.916 43.6459 46.539 57.5129 41.123Z" fill="#488A15"/>
<path d="M15.0439 42.512C15.0439 42.512 15.4299 45.203 17.6709 45.848C13.3989 48.346 13.4759 51.924 13.4759 51.924C13.4759 51.924 17.8159 48.338 19.7509 48.367C18.9099 51.006 19.1629 52.8361 20.8109 54.4901C20.8319 54.5001 20.5249 48.51 23.7449 45.431C24.3159 47.37 27.5479 47.781 27.5479 47.781C23.8119 39.379 15.0439 42.512 15.0439 42.512Z" fill="#71AD11"/>
<path d="M62.7149 36.98C61.0399 35.082 59.0649 34.615 56.1119 35.216C56.2329 33.187 60.5059 29.031 60.5059 29.031C60.5059 29.031 56.6049 28.567 53.5289 32.773C53.0039 30.361 50.0989 29.658 50.0989 29.658C50.0989 29.658 41.4539 41.084 40.0439 44.92C43.4579 45.775 45.9649 38.492 54.8359 43.307C54.8359 43.307 54.6519 39.885 52.5769 39.077C56.2039 36.039 62.7149 37.006 62.7149 36.98Z" fill="#71AD11"/>
<path d="M55.084 26.7821C54.929 23.2681 53.851 20.6321 51.649 17.9461C49.405 15.2091 46.192 14.1561 42.803 14.0111C39.51 13.8741 36.555 14.9821 34.184 17.4061C32.942 18.6771 31.943 20.2831 31.259 21.9321C30.692 23.3101 30.936 24.7591 30.922 26.2251C30.907 27.6321 30.679 29.2041 31.41 30.4511C32.228 31.8491 32.851 33.33 33.84 34.6271C37.967 40.049 46.931 39.7291 51.468 35.0841C52.54 33.9901 54.006 32.3031 54.214 30.7181C54.388 29.4051 55.143 28.0921 55.084 26.7821Z" fill="url(#paint1_radial)"/>
<path opacity="0.3" d="M46.7 19.5779C47.281 20.4159 45.186 21.1019 45.186 20.0759C45.187 19.0499 46.319 19.0259 46.7 19.5779Z" fill="#4D2828"/>
<path opacity="0.3" d="M52.086 21.204C52.666 22.043 50.572 22.73 50.572 21.703C50.572 20.677 51.704 20.653 52.086 21.204Z" fill="#4D2828"/>
<path opacity="0.3" d="M34.9671 24.785C34.1001 24.757 34.9081 22.132 35.6011 23.106C36.1941 23.941 35.9771 24.819 34.9671 24.785Z" fill="#4D2828"/>
<path opacity="0.3" d="M34.0089 20.151C33.2499 19.723 35.1449 17.762 35.3249 18.951C35.4809 19.966 34.8939 20.649 34.0089 20.151Z" fill="#4D2828"/>
<path opacity="0.3" d="M43.128 22.873C43.492 24.19 40.948 24.23 41.111 22.873C41.232 21.861 42.966 22.291 43.128 22.873Z" fill="#4D2828"/>
<path opacity="0.3" d="M46.338 25.528C45.935 26.833 44.158 26.886 44.32 25.528C44.441 24.516 46.654 24.506 46.338 25.528Z" fill="#4D2828"/>
<path opacity="0.3" d="M38.98 19.278C38.375 20.097 37.467 20.302 37.467 19.278C37.468 18.25 39.821 18.14 38.98 19.278Z" fill="#4D2828"/>
<path opacity="0.3" d="M43.6481 16.164C43.0441 16.983 42.1331 17.189 42.1331 16.164C42.1341 15.136 44.4881 15.029 43.6481 16.164Z" fill="#4D2828"/>
<path opacity="0.3" d="M52.047 27.048C51.442 27.866 50.533 28.072 50.533 27.048C50.533 26.02 52.888 25.911 52.047 27.048Z" fill="#4D2828"/>
<path opacity="0.3" d="M42.8021 19.247C43.1861 19.757 41.7971 20.175 41.7971 19.549C41.7971 18.924 42.5481 18.909 42.8021 19.247Z" fill="#4D2828"/>
<path opacity="0.3" d="M49.2031 28.551C49.5761 29.14 48.2261 29.626 48.2261 28.903C48.2271 28.178 48.9561 28.163 49.2031 28.551Z" fill="#4D2828"/>
<path opacity="0.3" d="M50.464 23.792C50.838 24.36 49.489 24.824 49.489 24.129C49.489 23.436 50.219 23.419 50.464 23.792Z" fill="#4D2828"/>
<path opacity="0.3" d="M47.144 23.318C46.653 23.227 46.88 22.056 47.357 22.58C47.765 23.027 47.718 23.424 47.144 23.318Z" fill="#4D2828"/>
<path opacity="0.3" d="M32.5341 24.4581C32.0501 24.0061 32.7041 22.9461 33.0191 23.8401C33.2901 24.6051 33.1001 24.9901 32.5341 24.4581Z" fill="#4D2828"/>
<path opacity="0.3" d="M46.54 16.462C46.903 16.485 46.529 17.578 46.25 17.156C46.013 16.799 46.116 16.435 46.54 16.462Z" fill="#4D2828"/>
<path opacity="0.3" d="M38.72 22.0841C38.868 22.9771 37.833 23.0061 37.898 22.0841C37.947 21.3981 38.653 21.6881 38.72 22.0841Z" fill="#4D2828"/>
<path opacity="0.3" d="M37.3879 17.7601C37.2179 18.3081 36.4709 18.3301 36.5379 17.7601C36.5899 17.3351 37.5189 17.3321 37.3879 17.7601Z" fill="#4D2828"/>
<path opacity="0.3" d="M40.075 15.954C39.823 16.3 39.439 16.385 39.439 15.954C39.439 15.523 40.429 15.476 40.075 15.954Z" fill="#4D2828"/>
<path opacity="0.3" d="M50.4639 18.916C50.1019 19.409 49.5569 19.529 49.5569 18.916C49.5569 18.299 50.9689 18.233 50.4639 18.916Z" fill="#4D2828"/>
<path d="M33.21 31.262C33.038 27.401 31.853 24.496 29.433 21.543C26.964 18.535 23.429 17.377 19.702 17.219C16.082 17.064 12.83 18.286 10.221 20.951C8.85397 22.347 7.75497 24.115 7.00397 25.93C6.37997 27.445 6.64797 29.041 6.63297 30.654C6.61797 32.199 6.36697 33.93 7.16997 35.301C8.06897 36.84 8.75697 38.471 9.84297 39.895C14.385 45.858 24.243 45.506 29.235 40.401C30.414 39.196 32.026 37.338 32.256 35.594C32.445 34.15 33.275 32.705 33.21 31.262Z" fill="url(#paint2_radial)"/>
<path opacity="0.3" d="M24.3369 23.134C24.9759 24.056 22.6709 24.812 22.6709 23.683C22.6709 22.555 23.9159 22.528 24.3369 23.134Z" fill="#4D2828"/>
<path opacity="0.3" d="M29.353 24.947C29.994 25.867 27.689 26.624 27.689 25.494C27.688 24.367 28.934 24.34 29.353 24.947Z" fill="#4D2828"/>
<path opacity="0.3" d="M22.31 36.432C22.95 37.354 20.645 38.11 20.645 36.979C20.645 35.852 21.891 35.826 22.31 36.432Z" fill="#4D2828"/>
<path opacity="0.3" d="M11.0799 29.068C10.1279 29.039 11.0159 26.152 11.7789 27.222C12.4319 28.138 12.1909 29.105 11.0799 29.068Z" fill="#4D2828"/>
<path opacity="0.3" d="M9.92598 24.476C9.09098 24.007 11.175 21.849 11.376 23.155C11.545 24.272 10.898 25.024 9.92598 24.476Z" fill="#4D2828"/>
<path opacity="0.3" d="M10.598 31.367C11.548 31.43 10.57 34.287 9.84096 33.192C9.21796 32.252 9.48796 31.294 10.598 31.367Z" fill="#4D2828"/>
<path opacity="0.3" d="M16.3411 31.943C17.0081 32.84 14.7671 34.545 14.6391 33.428C14.5171 32.365 15.6691 31.041 16.3411 31.943Z" fill="#4D2828"/>
<path opacity="0.3" d="M14.196 38.219C13.149 38.588 12.252 35.887 13.337 36.114C14.365 36.324 15.246 37.852 14.196 38.219Z" fill="#4D2828"/>
<path opacity="0.3" d="M20.3369 26.771C20.7389 28.22 17.9409 28.265 18.1179 26.771C18.2509 25.66 20.1589 26.131 20.3369 26.771Z" fill="#4D2828"/>
<path opacity="0.3" d="M23.521 30.782C23.077 32.215 21.122 32.274 21.3 30.782C21.436 29.668 23.869 29.661 23.521 30.782Z" fill="#4D2828"/>
<path opacity="0.3" d="M16.1931 22.291C15.5281 23.191 14.5281 23.418 14.5281 22.291C14.5281 21.158 17.1171 21.041 16.1931 22.291Z" fill="#4D2828"/>
<path opacity="0.3" d="M20.632 19.584C19.966 20.486 18.967 20.712 18.967 19.584C18.967 18.455 21.556 18.335 20.632 19.584Z" fill="#4D2828"/>
<path opacity="0.3" d="M19.698 22.9761C20.122 23.5381 18.594 23.9971 18.594 23.3111C18.594 22.6231 19.42 22.6051 19.698 22.9761Z" fill="#4D2828"/>
<path opacity="0.3" d="M18.5039 37.8691C18.9149 38.4941 17.4299 39.0061 17.4299 38.2421C17.4299 37.4771 18.2329 37.4611 18.5039 37.8691Z" fill="#4D2828"/>
<path opacity="0.3" d="M24.4749 27.455C23.9359 27.356 24.1859 26.069 24.7109 26.644C25.1579 27.134 25.1059 27.572 24.4749 27.455Z" fill="#4D2828"/>
<path opacity="0.3" d="M8.40388 28.708C7.87288 28.211 8.59188 27.047 8.93788 28.03C9.23688 28.87 9.02788 29.292 8.40388 28.708Z" fill="#4D2828"/>
<path opacity="0.3" d="M24.903 19.863C25.302 19.89 24.891 21.091 24.586 20.632C24.324 20.237 24.437 19.833 24.903 19.863Z" fill="#4D2828"/>
<path opacity="0.3" d="M14.8619 28.154C15.1429 28.529 14.2019 29.245 14.1469 28.775C14.0969 28.332 14.5809 27.773 14.8619 28.154Z" fill="#4D2828"/>
<path opacity="0.3" d="M19.3179 34.627C18.6579 34.859 18.2839 33.725 18.9289 33.754C19.5399 33.777 19.9779 34.396 19.3179 34.627Z" fill="#4D2828"/>
<path opacity="0.3" d="M14.186 24.741C14.351 25.724 13.211 25.757 13.285 24.741C13.338 23.987 14.114 24.306 14.186 24.741Z" fill="#4D2828"/>
<path opacity="0.3" d="M13.7429 21.341C13.5559 21.945 12.7339 21.969 12.8079 21.341C12.8659 20.873 13.8879 20.869 13.7429 21.341Z" fill="#4D2828"/>
<path opacity="0.3" d="M19.444 29.787C19.096 30.257 18.575 30.377 18.575 29.787C18.575 29.196 19.929 29.133 19.444 29.787Z" fill="#4D2828"/>
<path opacity="0.3" d="M16.7009 19.356C16.4219 19.736 16.0029 19.83 16.0029 19.356C16.0029 18.88 17.0889 18.83 16.7009 19.356Z" fill="#4D2828"/>
<path opacity="0.3" d="M28.1269 22.613C27.7299 23.153 27.1299 23.289 27.1299 22.613C27.1299 21.934 28.6829 21.861 28.1269 22.613Z" fill="#4D2828"/>
<path d="M51.8209 39.555C51.6339 35.342 50.3409 32.174 47.6989 28.951C45.0069 25.67 41.1509 24.408 37.0849 24.233C33.1349 24.065 29.5859 25.397 26.7409 28.303C25.2499 29.829 24.0509 31.757 23.2299 33.736C22.5489 35.388 22.8409 37.131 22.8259 38.888C22.8089 40.576 22.5349 42.462 23.4119 43.958C24.3929 45.634 25.1429 47.415 26.3279 48.968C31.2829 55.474 42.0379 55.089 47.4829 49.521C48.7669 48.208 50.5279 46.183 50.7779 44.279C50.9869 42.703 51.8929 41.129 51.8209 39.555Z" fill="url(#paint3_radial)"/>
<path d="M23.9231 37.1991C24.0791 40.7131 25.3831 44.1891 27.5861 46.8771C29.8301 49.6151 32.6121 47.6681 36.0051 47.8151C39.2991 47.9561 42.2581 48.6201 44.6311 46.1961C45.8741 44.9231 46.8741 43.3171 47.5571 41.6651C48.1261 40.2881 47.8801 38.8331 47.8961 37.3681C47.9101 35.9601 47.8201 34.4191 47.0891 33.1691C46.2711 31.7721 45.9621 30.2561 44.9741 28.9611C40.8421 23.5311 31.8741 23.8561 27.3311 28.5011C26.2581 29.5941 25.1791 31.5341 24.9691 33.1201C24.7951 34.4361 23.8641 35.8871 23.9231 37.1991Z" fill="url(#paint4_radial)"/>
<path d="M30.703 48.641C29.29 48.641 28.261 48.153 27.364 47.063C25.123 44.327 23.797 40.829 23.637 37.215C23.601 36.406 23.904 35.574 24.197 34.77C24.413 34.176 24.615 33.616 24.686 33.082C24.915 31.343 26.086 29.359 27.127 28.296C29.352 26.021 32.758 24.663 36.236 24.663C39.939 24.663 43.206 26.165 45.199 28.783C45.795 29.563 46.152 30.424 46.501 31.257C46.744 31.843 47 32.449 47.333 33.021C48.104 34.335 48.193 35.957 48.18 37.369C48.176 37.723 48.189 38.072 48.201 38.422C48.238 39.531 48.276 40.674 47.82 41.776C47.086 43.553 46.051 45.153 44.834 46.399C43.2 48.067 41.315 48.292 39.688 48.292C38.967 48.292 38.238 48.243 37.465 48.19C36.982 48.161 36.49 48.126 35.991 48.104C34.925 48.051 33.919 48.225 32.954 48.387C32.165 48.516 31.423 48.641 30.703 48.641ZM36.237 25.241C32.907 25.241 29.652 26.535 27.533 28.704C26.583 29.674 25.462 31.564 25.253 33.159C25.175 33.757 24.949 34.374 24.732 34.972C24.46 35.72 24.178 36.499 24.209 37.189C24.364 40.677 25.641 44.054 27.806 46.693C28.582 47.64 29.475 48.062 30.704 48.062C31.377 48.062 32.098 47.941 32.861 47.816C33.856 47.65 34.898 47.476 36.017 47.527C36.521 47.548 37.016 47.584 37.503 47.613C38.267 47.668 38.987 47.715 39.689 47.715C41.2 47.715 42.943 47.512 44.427 45.992C45.597 44.797 46.587 43.262 47.294 41.553C47.699 40.569 47.667 39.537 47.63 38.444C47.619 38.087 47.608 37.727 47.61 37.366C47.622 36.034 47.542 34.512 46.842 33.319C46.488 32.715 46.227 32.089 45.975 31.485C45.626 30.649 45.299 29.862 44.748 29.139C42.863 26.661 39.761 25.241 36.237 25.241Z" fill="#C99A55"/>
<path opacity="0.3" d="M42.9249 30.529C43.7059 31.658 40.8899 32.58 40.8899 31.202C40.8899 29.82 42.4119 29.789 42.9249 30.529Z" fill="#284D30"/>
<path opacity="0.3" d="M46.3981 33.58C47.1801 34.709 44.3621 35.633 44.3621 34.252C44.3621 32.873 45.8851 32.844 46.3981 33.58Z" fill="#284D30"/>
<path opacity="0.3" d="M41.992 45.799C42.773 46.926 39.958 47.852 39.958 46.473C39.958 45.088 41.479 45.057 41.992 45.799Z" fill="#284D30"/>
<path opacity="0.3" d="M25.731 36.201C24.567 36.164 25.653 32.633 26.588 33.943C27.388 35.064 27.09 36.244 25.731 36.201Z" fill="#284D30"/>
<path opacity="0.3" d="M26.2429 32.844C25.2249 32.266 27.7699 29.63 28.0139 31.229C28.2259 32.594 27.4329 33.51 26.2429 32.844Z" fill="#284D30"/>
<path opacity="0.3" d="M26.4359 39.6269C27.5989 39.7089 26.3999 43.1989 25.5099 41.8609C24.7469 40.7149 25.0789 39.5429 26.4359 39.6269Z" fill="#284D30"/>
<path opacity="0.3" d="M32.598 34.133C33.761 34.213 32.564 37.701 31.672 36.363C30.909 35.219 31.242 34.047 32.598 34.133Z" fill="#284D30"/>
<path opacity="0.3" d="M31.644 40.104C32.46 41.2 29.718 43.286 29.56 41.917C29.413 40.621 30.822 38.998 31.644 40.104Z" fill="#284D30"/>
<path opacity="0.3" d="M30.5399 46.938C29.2609 47.385 28.1629 44.086 29.4909 44.362C30.7499 44.617 31.8259 46.484 30.5399 46.938Z" fill="#284D30"/>
<path opacity="0.3" d="M36.6041 35.59C37.0951 37.358 33.6721 37.414 33.8931 35.59C34.0561 34.229 36.3901 34.807 36.6041 35.59Z" fill="#284D30"/>
<path opacity="0.3" d="M41.088 39.637C40.546 41.389 38.155 41.461 38.374 39.637C38.539 38.273 41.514 38.264 41.088 39.637Z" fill="#284D30"/>
<path opacity="0.3" d="M35.806 45.588C35.263 47.344 32.872 47.412 33.091 45.588C33.257 44.225 36.23 44.215 35.806 45.588Z" fill="#284D30"/>
<path opacity="0.3" d="M32.7071 29.2C31.8931 30.303 30.6721 30.577 30.6721 29.2C30.6721 27.818 33.8351 27.669 32.7071 29.2Z" fill="#284D30"/>
<path opacity="0.3" d="M37.963 27.033C37.15 28.134 35.929 28.411 35.929 27.033C35.929 25.65 39.092 25.504 37.963 27.033Z" fill="#284D30"/>
<path opacity="0.3" d="M46.721 40.1191C45.907 41.2211 44.687 41.4961 44.687 40.1191C44.687 38.7341 47.852 38.5901 46.721 40.1191Z" fill="#284D30"/>
<path opacity="0.3" d="M37.743 30.889C38.26 31.574 35.78 32.912 35.78 32.072C35.78 30.181 37.185 30.151 37.743 30.889Z" fill="#284D30"/>
<path opacity="0.3" d="M29.801 34.676C30.318 35.365 28.448 35.928 28.448 35.084C28.448 34.244 29.458 34.225 29.801 34.676Z" fill="#284D30"/>
<path opacity="0.3" d="M29.2931 39.525C29.8131 40.211 27.9431 40.775 27.9431 39.933C27.9431 39.094 28.9531 39.074 29.2931 39.525Z" fill="#284D30"/>
<path opacity="0.3" d="M31.8991 43.645C32.4171 44.331 30.5471 44.895 30.5471 44.049C30.5481 43.213 31.5591 43.191 31.8991 43.645Z" fill="#284D30"/>
<path opacity="0.3" d="M38.611 41.8961C39.129 42.5841 37.259 43.1461 37.259 42.3041C37.26 41.4671 38.27 41.4451 38.611 41.8961Z" fill="#284D30"/>
<path opacity="0.3" d="M41.864 42.223C42.382 42.909 40.512 43.471 40.512 42.629C40.513 41.789 41.523 41.77 41.864 42.223Z" fill="#284D30"/>
<path opacity="0.3" d="M43.853 44.4039C44.163 44.8119 43.052 45.1439 43.052 44.6459C43.052 44.1479 43.651 44.1369 43.853 44.4039Z" fill="#284D30"/>
<path opacity="0.3" d="M42.199 40.197C42.506 40.605 41.397 40.939 41.397 40.441C41.397 39.943 41.997 39.93 42.199 40.197Z" fill="#284D30"/>
<path opacity="0.3" d="M35.9421 33.57C36.2491 33.978 35.1411 34.31 35.1411 33.812C35.1411 33.314 35.7411 33.303 35.9421 33.57Z" fill="#284D30"/>
<path opacity="0.3" d="M39.888 31.981C40.195 32.389 39.084 32.723 39.084 32.225C39.084 31.726 39.684 31.713 39.888 31.981Z" fill="#284D30"/>
<path opacity="0.3" d="M42.8359 32.502C43.1439 32.91 42.0349 33.242 42.0349 32.744C42.0349 32.246 42.6329 32.234 42.8359 32.502Z" fill="#284D30"/>
<path opacity="0.3" d="M44.8989 30.625C45.2069 31.032 44.0979 31.365 44.0979 30.866C44.0989 30.369 44.6979 30.356 44.8989 30.625Z" fill="#284D30"/>
<path opacity="0.3" d="M28.822 33.3499C29.129 33.7559 28.02 34.0879 28.02 33.5899C28.02 33.0919 28.62 33.0799 28.822 33.3499Z" fill="#284D30"/>
<path opacity="0.3" d="M27.2209 38.221C27.5289 38.629 26.4199 38.961 26.4199 38.465C26.4199 37.965 27.0199 37.953 27.2209 38.221Z" fill="#284D30"/>
<path opacity="0.3" d="M28.4221 42.207C28.7301 42.615 27.6211 42.947 27.6211 42.449C27.6211 41.951 28.2211 41.938 28.4221 42.207Z" fill="#284D30"/>
<path opacity="0.3" d="M29.9241 43.373C30.2321 43.781 29.1211 44.113 29.1211 43.615C29.1211 43.115 29.7211 43.105 29.9241 43.373Z" fill="#284D30"/>
<path opacity="0.3" d="M29.2151 41.154C29.5221 41.56 28.4121 41.892 28.4121 41.394C28.4121 40.896 29.0121 40.885 29.2151 41.154Z" fill="#284D30"/>
<path opacity="0.3" d="M30.781 35.967C31.089 36.375 29.98 36.707 29.98 36.209C29.98 35.709 30.58 35.699 30.781 35.967Z" fill="#284D30"/>
<path opacity="0.3" d="M32.363 38.25C32.671 38.654 31.561 38.988 31.561 38.49C31.561 37.992 32.161 37.979 32.363 38.25Z" fill="#284D30"/>
<path opacity="0.3" d="M32.1841 33.049C32.4921 33.457 31.3821 33.791 31.3821 33.293C31.3821 32.793 31.9811 32.781 32.1841 33.049Z" fill="#284D30"/>
<path opacity="0.3" d="M30.9409 30.625C31.2479 31.032 30.1389 31.365 30.1389 30.866C30.1399 30.369 30.7389 30.356 30.9409 30.625Z" fill="#284D30"/>
<path opacity="0.3" d="M34.1619 30.398C34.4689 30.807 33.3589 31.139 33.3589 30.64C33.3589 30.143 33.9589 30.131 34.1619 30.398Z" fill="#284D30"/>
<path opacity="0.3" d="M31.4741 27.106C31.7811 27.513 30.6721 27.845 30.6721 27.348C30.6721 26.85 31.2711 26.837 31.4741 27.106Z" fill="#284D30"/>
<path opacity="0.3" d="M36.7981 29.2561C37.1061 29.6641 35.9961 29.9971 35.9961 29.4981C35.9961 28.9991 36.5961 28.9891 36.7981 29.2561Z" fill="#284D30"/>
<path opacity="0.3" d="M41.76 33.646C42.278 34.332 39.512 35.613 39.512 34.769C39.512 33.379 41.053 32.705 41.76 33.646Z" fill="#284D30"/>
<path opacity="0.3" d="M44.007 37.8689C44.526 38.5549 42.656 39.119 42.656 38.277C42.656 37.438 43.667 37.4159 44.007 37.8689Z" fill="#284D30"/>
<path opacity="0.3" d="M36.477 40.305C36.996 40.991 35.126 41.555 35.126 40.713C35.126 39.873 36.137 39.852 36.477 40.305Z" fill="#284D30"/>
<path opacity="0.3" d="M39.5671 36.1479C40.0851 36.8339 38.2151 37.3979 38.2151 36.5559C38.2151 35.7139 39.2261 35.6969 39.5671 36.1479Z" fill="#284D30"/>
<path opacity="0.3" d="M35.1401 27.134C35.6571 27.822 33.7881 28.384 33.7881 27.542C33.7881 26.703 34.7991 26.681 35.1401 27.134Z" fill="#284D30"/>
<path opacity="0.3" d="M43.7749 42.418C44.2779 43.211 42.4619 43.863 42.4619 42.891C42.4619 41.919 43.4429 41.893 43.7749 42.418Z" fill="#284D30"/>
<path opacity="0.3" d="M45.7139 42.3279C46.2169 43.1189 44.8459 43.625 44.8459 42.65C44.8459 41.675 45.3839 41.8029 45.7139 42.3279Z" fill="#284D30"/>
<path opacity="0.3" d="M28.1609 44.2541C28.6619 45.0471 26.8479 45.699 26.8479 44.725C26.8479 43.752 27.8289 43.7301 28.1609 44.2541Z" fill="#284D30"/>
<path opacity="0.3" d="M28.8611 36.967C29.3631 37.758 27.5481 38.412 27.5481 37.44C27.5491 36.465 28.5281 36.443 28.8611 36.967Z" fill="#284D30"/>
<path opacity="0.3" d="M29.563 29.822C30.064 30.614 28.25 31.269 28.25 30.294C28.249 29.32 29.23 29.299 29.563 29.822Z" fill="#284D30"/>
<path opacity="0.3" d="M40.935 26.73C41.438 27.523 39.623 28.176 39.623 27.203C39.623 26.23 40.604 26.207 40.935 26.73Z" fill="#284D30"/>
<path opacity="0.3" d="M38.8501 28.5731C39.3531 29.3651 37.5371 30.0191 37.5371 29.0461C37.5361 28.0701 38.5171 28.0491 38.8501 28.5731Z" fill="#284D30"/>
<path opacity="0.3" d="M38.8501 33.342C39.3531 34.133 37.5371 34.787 37.5371 33.815C37.5371 32.84 38.5171 32.818 38.8501 33.342Z" fill="#284D30"/>
<path opacity="0.3" d="M46.447 36.117C46.951 36.883 45.135 37.506 45.135 36.57C45.136 35.639 46.118 35.617 46.447 36.117Z" fill="#284D30"/>
<path opacity="0.3" d="M42.8309 35.48C42.1699 35.357 42.4769 33.783 43.1189 34.486C43.6679 35.09 43.6039 35.625 42.8309 35.48Z" fill="#284D30"/>
<path opacity="0.3" d="M24.934 38.061C24.285 37.45 25.162 36.026 25.588 37.227C25.952 38.256 25.694 38.771 24.934 38.061Z" fill="#284D30"/>
<path opacity="0.3" d="M43.7199 28.724C44.2079 28.757 43.7049 30.221 43.3319 29.661C43.0119 29.18 43.1509 28.688 43.7199 28.724Z" fill="#284D30"/>
<path opacity="0.3" d="M44.1011 31.885C44.5911 31.915 44.0861 33.383 43.7111 32.82C43.3931 32.34 43.5321 31.848 44.1011 31.885Z" fill="#284D30"/>
<path opacity="0.3" d="M43.634 39.5081C44.122 39.5411 43.62 41.0081 43.246 40.4461C42.927 39.9651 43.065 39.4711 43.634 39.5081Z" fill="#284D30"/>
<path opacity="0.3" d="M41.447 36.2681C41.935 36.2991 41.433 37.7661 41.057 37.2061C40.74 36.7231 40.877 36.2301 41.447 36.2681Z" fill="#284D30"/>
<path opacity="0.3" d="M40.0691 43.535C40.5571 43.568 40.0531 45.033 39.6801 44.473C39.3621 43.99 39.5001 43.498 40.0691 43.535Z" fill="#284D30"/>
<path opacity="0.3" d="M38.291 45.914C38.778 45.947 38.276 47.414 37.902 46.852C37.583 46.369 37.72 45.877 38.291 45.914Z" fill="#284D30"/>
<path opacity="0.3" d="M37.78 43.941C38.267 43.976 37.764 45.443 37.391 44.88C37.072 44.4 37.21 43.906 37.78 43.941Z" fill="#284D30"/>
<path opacity="0.3" d="M33.256 42.023C33.743 42.054 33.24 43.521 32.866 42.961C32.547 42.479 32.686 41.986 33.256 42.023Z" fill="#284D30"/>
<path opacity="0.3" d="M38.0351 37.848C38.5241 37.881 38.0191 39.348 37.6461 38.786C37.3271 38.305 37.4671 37.811 38.0351 37.848Z" fill="#284D30"/>
<path opacity="0.3" d="M33.5651 38.385C34.9081 38.475 33.4031 40.66 32.9151 39.93C32.5981 39.447 32.9951 38.35 33.5651 38.385Z" fill="#284D30"/>
<path opacity="0.3" d="M34.344 31.807C34.833 31.841 34.329 33.307 33.956 32.746C33.637 32.264 33.775 31.773 34.344 31.807Z" fill="#284D30"/>
<path opacity="0.3" d="M32.573 30.859C33.063 30.892 32.559 32.359 32.184 31.797C31.866 31.316 32.006 30.822 32.573 30.859Z" fill="#284D30"/>
<path opacity="0.3" d="M35.0639 28.884C35.5529 28.917 35.0499 30.384 34.6769 29.821C34.3569 29.34 34.4969 28.849 35.0639 28.884Z" fill="#284D30"/>
<path opacity="0.3" d="M41.309 27.918C41.795 27.95 41.292 29.416 40.919 28.855C40.6 28.375 40.738 27.882 41.309 27.918Z" fill="#284D30"/>
<path opacity="0.3" d="M30.816 37.43C31.159 37.891 30.007 38.766 29.943 38.194C29.879 37.648 30.474 36.965 30.816 37.43Z" fill="#284D30"/>
<path opacity="0.3" d="M35.8111 43.561C35.0041 43.846 34.5471 42.457 35.3351 42.491C36.0831 42.521 36.6161 43.277 35.8111 43.561Z" fill="#284D30"/>
<path opacity="0.3" d="M30.548 32.48C30.749 33.681 29.356 33.722 29.445 32.48C29.511 31.557 30.461 31.946 30.548 32.48Z" fill="#284D30"/>
<path opacity="0.3" d="M29.988 28.3169C29.762 29.0539 28.756 29.0849 28.846 28.3169C28.918 27.7459 30.167 27.7429 29.988 28.3169Z" fill="#284D30"/>
<path opacity="0.3" d="M36.563 38.4221C36.138 38.9981 35.5 39.1431 35.5 38.4221C35.499 37.6991 37.153 37.6231 36.563 38.4221Z" fill="#284D30"/>
<path opacity="0.3" d="M33.251 26.873C32.91 27.338 32.397 27.452 32.397 26.873C32.396 26.294 33.728 26.231 33.251 26.873Z" fill="#284D30"/>
<path opacity="0.3" d="M39.8841 30.607C39.3951 31.268 38.6631 31.431 38.6631 30.607C38.6631 29.776 40.5621 29.686 39.8841 30.607Z" fill="#284D30"/>
<path opacity="0.3" d="M46.2959 28.292C46.0169 28.67 45.5979 28.765 45.5979 28.292C45.5979 27.817 46.6849 27.767 46.2959 28.292Z" fill="#4D2828"/>
<path opacity="0.3" d="M40.5209 49.871C41.1609 50.797 38.8569 51.551 38.8569 50.42C38.8559 49.293 40.1019 49.268 40.5209 49.871Z" fill="#4D2828"/>
<path opacity="0.3" d="M49.4911 38.406C48.5401 38.377 49.4281 35.49 50.1921 36.56C50.8451 37.477 50.6041 38.443 49.4911 38.406Z" fill="#4D2828"/>
<path opacity="0.3" d="M46.22 46.609C47.17 46.672 46.193 49.527 45.464 48.433C44.84 47.494 45.111 46.537 46.22 46.609Z" fill="#4D2828"/>
<path opacity="0.3" d="M32.4071 51.662C31.3601 52.027 30.4631 49.33 31.5491 49.555C32.5761 49.764 33.4581 51.291 32.4071 51.662Z" fill="#4D2828"/>
<path opacity="0.3" d="M36.7151 51.311C37.1261 51.938 35.6421 52.446 35.6421 51.682C35.6421 50.918 36.4451 50.902 36.7151 51.311Z" fill="#4D2828"/>
<path opacity="0.3" d="M23.9371 43.5141C23.3971 43.4141 23.6481 42.125 24.1721 42.703C24.6201 43.193 24.5671 43.6311 23.9371 43.5141Z" fill="#4D2828"/>
<path opacity="0.3" d="M48.4099 45.3611C47.8779 44.8631 48.5979 43.6991 48.9439 44.6831C49.2419 45.5211 49.0329 45.9451 48.4099 45.3611Z" fill="#4D2828"/>
<path opacity="0.3" d="M25.5219 45.041C25.9209 45.068 25.5099 46.268 25.2049 45.807C24.9439 45.412 25.0569 45.01 25.5219 45.041Z" fill="#4D2828"/>
<path opacity="0.3" d="M43.7899 49.604C44.0709 49.981 43.1279 50.696 43.0739 50.227C43.0219 49.781 43.5089 49.225 43.7899 49.604Z" fill="#4D2828"/>
<path opacity="0.3" d="M35.4161 49.8671C34.7571 50.0991 34.3841 48.9651 35.0291 48.9921C35.6391 49.0181 36.0761 49.6371 35.4161 49.8671Z" fill="#4D2828"/>
<path opacity="0.3" d="M49.9841 40.9341C50.1481 41.9181 49.0081 41.9501 49.0821 40.9341C49.1361 40.1801 49.9121 40.4981 49.9841 40.9341Z" fill="#4D2828"/>
<path opacity="0.3" d="M49.54 33.453C49.353 34.055 48.532 34.08 48.606 33.453C48.664 32.984 49.687 32.98 49.54 33.453Z" fill="#4D2828"/>
<path opacity="0.3" d="M28.8131 49.5139C28.4641 49.9829 27.9441 50.1019 27.9441 49.5139C27.9431 48.9219 29.2971 48.8589 28.8131 49.5139Z" fill="#4D2828"/>
<path opacity="0.3" d="M47.8169 30.5121C47.4179 31.0531 46.8169 31.1891 46.8169 30.5121C46.8169 29.8351 48.3719 29.7611 47.8169 30.5121Z" fill="#4D2828"/>
<defs>
<radialGradient id="paint0_radial" cx="0" cy="0" r="1" gradientUnits="userSpaceOnUse" gradientTransform="translate(32.0014 43.0147) scale(31.0132 14.6165)">
<stop offset="0.5273" stop-color="#C6C6C6"/>
<stop offset="0.6581" stop-color="#CFD0D0"/>
<stop offset="0.881" stop-color="#E7EAEB"/>
<stop offset="0.9636" stop-color="#F2F5F7"/>
</radialGradient>
<radialGradient id="paint1_radial" cx="0" cy="0" r="1" gradientUnits="userSpaceOnUse" gradientTransform="translate(42.7129 23.3054) scale(12.6993 11.611)">
<stop stop-color="#E6A157"/>
<stop offset="0.1777" stop-color="#D9954E"/>
<stop offset="0.5074" stop-color="#B67435"/>
<stop offset="0.9503" stop-color="#7F400E"/>
<stop offset="1" stop-color="#783A09"/>
</radialGradient>
<radialGradient id="paint2_radial" cx="0" cy="0" r="1" gradientUnits="userSpaceOnUse" gradientTransform="translate(19.6033 27.4418) scale(13.9682 12.7719)">
<stop stop-color="#E6A157"/>
<stop offset="0.1777" stop-color="#D9954E"/>
<stop offset="0.5074" stop-color="#B67435"/>
<stop offset="0.9503" stop-color="#7F400E"/>
<stop offset="1" stop-color="#783A09"/>
</radialGradient>
<radialGradient id="paint3_radial" cx="0" cy="0" r="1" gradientUnits="userSpaceOnUse" gradientTransform="translate(36.4481 35.3086) rotate(-0.538564) scale(20.2611 18.5247)">
<stop stop-color="#E6A157"/>
<stop offset="0.1777" stop-color="#D9954E"/>
<stop offset="0.5074" stop-color="#B67435"/>
<stop offset="0.9503" stop-color="#7F400E"/>
<stop offset="1" stop-color="#783A09"/>
</radialGradient>
<radialGradient id="paint4_radial" cx="0" cy="0" r="1" gradientUnits="userSpaceOnUse" gradientTransform="translate(35.4337 36.4196) rotate(180) scale(12.2812 11.2287)">
<stop stop-color="#A5C967"/>
<stop offset="0.3428" stop-color="#A1C564"/>
<stop offset="0.6719" stop-color="#96BA5B"/>
<stop offset="0.9953" stop-color="#84A64B"/>
<stop offset="1" stop-color="#84A64B"/>
</radialGradient>
</defs>
</svg>
