<svg width="64" height="64" viewBox="0 0 64 64" fill="none" xmlns="http://www.w3.org/2000/svg">
<path d="M29.4431 25.991L40.8171 46.242C40.8171 46.242 44.6381 40.525 37.2801 22.746C29.9041 4.92399 23.2141 3.74399 23.2141 3.74399L29.4431 25.991Z" fill="url(#paint0_linear)"/>
<path d="M26.6721 27.139C34.1101 45.065 40.8181 46.243 40.8181 46.243L23.2141 3.74399C23.2141 3.74399 19.2181 9.17299 26.6721 27.139Z" fill="url(#paint1_linear)"/>
<path d="M31.0081 22.443L10.7561 33.817C10.7561 33.817 16.4751 37.638 34.2541 30.28C52.0751 22.905 53.2551 16.214 53.2551 16.214L31.0081 22.443Z" fill="url(#paint2_linear)"/>
<path d="M29.8589 19.672C11.9349 27.11 10.7549 33.818 10.7549 33.818L53.2539 16.214C53.2549 16.214 47.8259 12.218 29.8589 19.672Z" fill="url(#paint3_linear)"/>
<path d="M29.4789 23.898L23.2009 46.26C23.2009 46.26 29.9459 44.92 37.3159 27.145C44.7019 9.32699 40.8049 3.76199 40.8049 3.76199L29.4789 23.898Z" fill="url(#paint4_linear)"/>
<path d="M26.708 22.749C19.291 40.684 23.201 46.26 23.201 46.26L40.806 3.76199C40.806 3.76199 34.141 4.77399 26.708 22.749Z" fill="url(#paint5_linear)"/>
<path d="M33.102 22.48L10.739 16.202C10.739 16.202 12.081 22.948 29.855 30.317C47.673 37.703 53.238 33.806 53.238 33.806L33.102 22.48Z" fill="url(#paint6_linear)"/>
<path d="M34.249 19.709C16.315 12.293 10.738 16.202 10.738 16.202L53.237 33.806C53.237 33.807 52.226 27.142 34.249 19.709Z" fill="url(#paint7_linear)"/>
<path d="M32.971 53.681C42.342 49.437 57.94 50.754 62 51.275C57.711 50.906 40.285 49.983 32.926 55.144C32.652 55.335 31.898 54.167 32.971 53.681Z" fill="#677339"/>
<path d="M38.0759 52.324C47.7319 64.652 61.9999 51.274 61.9999 51.274C61.9999 51.274 48.0159 49.927 38.0759 52.324Z" fill="#7AB51D"/>
<path d="M61.9999 51.274C61.9999 51.274 45.7049 49.79 38.0759 52.324C43.2049 39.997 61.9999 51.274 61.9999 51.274Z" fill="#92C932"/>
<path d="M38.0759 52.324C47.4859 50.264 61.9999 51.274 61.9999 51.274C61.9999 51.274 46.3069 47.932 38.0759 52.324Z" fill="#529320"/>
<path d="M30.375 39.794C30.375 39.794 30.375 57.628 30.375 61.392C30.375 62.203 33.623 62.203 33.623 61.392C33.623 57.962 33.623 39.794 33.623 39.794H30.375Z" fill="url(#paint8_linear)"/>
<path d="M30.701 58.012C21.438 53.632 6.016 54.991 2 55.528C6.242 55.147 23.471 54.195 30.746 59.521C31.016 59.719 31.762 58.514 30.701 58.012Z" fill="#677339"/>
<path d="M25.654 56.612C16.107 69.337 2 55.528 2 55.528C2 55.528 15.828 54.139 25.654 56.612Z" fill="#7AB51D"/>
<path d="M2 55.528C2 55.528 18.111 53.996 25.654 56.612C20.582 43.889 2 55.528 2 55.528Z" fill="#92C932"/>
<path d="M25.654 56.612C16.352 54.486 2 55.528 2 55.528C2 55.528 17.518 52.079 25.654 56.612Z" fill="#529320"/>
<path d="M29.259 24.938L32.017 48C32.017 48 37.736 44.181 37.742 24.938C37.747 5.65 32.017 2 32.017 2L29.259 24.938Z" fill="url(#paint9_linear)"/>
<path d="M26.2591 24.938C26.2711 44.345 32.017 48 32.017 48V2C32.017 2 26.2471 5.486 26.2591 24.938Z" fill="url(#paint10_linear)"/>
<path d="M32.063 22.259L9 25.017C9 25.017 12.82 30.736 32.063 30.742C51.35 30.747 55 25.017 55 25.017L32.063 22.259Z" fill="url(#paint11_linear)"/>
<path d="M32.063 19.259C12.656 19.271 9 25.017 9 25.017H55C55 25.017 51.514 19.247 32.063 19.259Z" fill="url(#paint12_linear)"/>
<path d="M30.0941 23.018L15.7361 41.274C15.7361 41.274 22.4801 42.618 36.0901 29.015C49.7341 15.381 48.2641 8.74799 48.2641 8.74799L30.0941 23.018Z" fill="url(#paint13_linear)"/>
<path d="M27.9729 20.896C14.2579 34.627 15.7359 41.274 15.7359 41.274L48.2639 8.74799C48.2639 8.74799 41.7189 7.13399 27.9729 20.896Z" fill="url(#paint14_linear)"/>
<path d="M33.9819 23.094L15.7249 8.73599C15.7249 8.73599 14.3829 15.481 27.9849 29.091C41.6199 42.734 48.2529 41.263 48.2529 41.263L33.9819 23.094Z" fill="url(#paint15_linear)"/>
<path d="M36.1041 20.973C22.3731 7.259 15.7251 8.736 15.7251 8.736L48.2521 41.263C48.2521 41.264 49.8671 34.719 36.1041 20.973Z" fill="url(#paint16_linear)"/>
<path d="M45.1019 25.337C45.1019 25.006 44.9769 24.758 44.7919 24.585C44.9769 24.412 45.1019 24.163 45.1019 23.833C45.1019 23.313 44.8029 22.987 44.4319 22.861C44.5259 22.71 44.5969 22.534 44.5969 22.308C44.5969 21.797 44.3099 21.48 43.9509 21.347C44.0169 21.212 44.0569 21.057 44.0569 20.873C44.0569 20.236 43.6109 19.907 43.1319 19.859C43.2609 19.695 43.3539 19.493 43.3539 19.222C43.3539 18.598 42.9219 18.271 42.4539 18.213C42.4759 18.126 42.5069 18.048 42.5069 17.945C42.5069 17.245 41.9719 16.905 41.4389 16.915C41.4469 16.873 41.4639 16.843 41.4639 16.796C41.4639 16.002 40.7719 15.68 40.1849 15.806C40.1849 15.789 40.1909 15.78 40.1909 15.764C40.1909 15.006 39.5629 14.68 38.9969 14.756C38.9969 14.747 39.0019 14.739 39.0019 14.731C39.0019 13.791 38.0429 13.507 37.4259 13.847C37.2619 13.012 36.2489 12.816 35.7089 13.29C35.5129 12.785 34.9659 12.594 34.4869 12.705C34.2559 11.95 33.2839 11.803 32.7729 12.278C32.3329 11.727 31.3639 11.772 31.0319 12.429C30.5219 11.948 29.5459 12.095 29.3169 12.853C28.7969 12.381 27.8229 12.54 27.6059 13.308C27.0249 12.771 25.8329 13.024 25.8329 14.066C25.8329 14.073 25.8379 14.077 25.8379 14.082C25.4419 14.116 25.0809 14.349 24.9519 14.775C24.3549 14.629 23.6319 14.95 23.6319 15.763C23.6319 15.826 23.6569 15.869 23.6629 15.927C23.0829 15.823 22.4149 16.145 22.4149 16.928C22.4149 16.974 22.4349 17.009 22.4389 17.052C21.9429 17.085 21.4689 17.418 21.4689 18.073C21.4689 18.09 21.4759 18.099 21.4759 18.116C21.0479 18.209 20.6799 18.531 20.6799 19.107C20.6799 19.296 20.7209 19.453 20.7869 19.589C20.2919 19.619 19.8129 19.952 19.8129 20.61C19.8129 20.806 19.8639 20.969 19.9379 21.109C19.5119 21.204 19.1449 21.524 19.1449 22.1C19.1449 22.435 19.2699 22.685 19.4579 22.857C19.1869 23.022 18.9809 23.298 18.9809 23.717C18.9809 24.071 19.1189 24.33 19.3209 24.502C19.0789 24.67 18.9009 24.939 18.9009 25.332C18.9009 25.78 19.1299 26.066 19.4279 26.223C19.2049 26.396 19.0479 26.659 19.0479 27.031C19.0479 27.436 19.2359 27.708 19.4919 27.878C19.4089 28.023 19.3519 28.188 19.3519 28.397C19.3519 28.792 19.5299 29.06 19.7759 29.229C19.6989 29.373 19.6449 29.536 19.6449 29.738C19.6449 30.331 20.0329 30.653 20.4719 30.736C20.4279 30.852 20.3949 30.98 20.3949 31.13C20.3949 31.833 20.9369 32.173 21.4719 32.158C21.4629 32.216 21.4379 32.262 21.4379 32.325C21.4379 32.852 21.7459 33.176 22.1219 33.298C22.1149 33.354 22.0909 33.397 22.0909 33.457C22.0909 34.197 22.6899 34.526 23.2479 34.472C23.3339 35.102 23.8769 35.385 24.3939 35.325C24.3939 35.334 24.3919 35.34 24.3919 35.348C24.3919 36.224 25.2299 36.539 25.8449 36.303C25.9969 36.958 26.6839 37.203 27.2259 37.008C27.4799 37.708 28.4079 37.844 28.9139 37.4C29.2279 37.948 30.0139 38.042 30.4859 37.667C30.8579 38.21 31.7049 38.24 32.1299 37.755C32.5339 38.218 33.3229 38.213 33.7219 37.741C34.2369 38.039 34.9979 37.888 35.2359 37.272C35.7489 37.543 36.4759 37.399 36.7159 36.81C37.2329 36.97 37.8569 36.75 38.0399 36.168C38.5599 36.265 39.1349 36.004 39.2519 35.385C39.8459 35.519 40.5519 35.199 40.5519 34.393C40.5519 34.39 40.5489 34.387 40.5489 34.381C41.0169 34.348 41.4499 34.039 41.4949 33.45C42.0069 33.437 42.5069 33.099 42.5069 32.422C42.5069 32.331 42.4789 32.261 42.4609 32.181C42.9139 32.11 43.3239 31.785 43.3239 31.178C43.3239 30.951 43.2519 30.775 43.1589 30.622C43.5509 30.506 43.8779 30.185 43.8779 29.643C43.8779 29.509 43.8439 29.4 43.8089 29.291C44.1899 29.169 44.4979 28.846 44.4979 28.316C44.4979 27.971 44.3669 27.713 44.1709 27.541C44.5419 27.416 44.8409 27.091 44.8409 26.57C44.8409 26.399 44.8089 26.25 44.7519 26.123C44.9579 25.953 45.1019 25.693 45.1019 25.337Z" fill="url(#paint17_radial)"/>
<path d="M39.025 25.701C39.347 25.526 39.596 25.213 39.596 24.728C39.596 24.241 39.347 23.927 39.023 23.752C39.347 23.576 39.596 23.265 39.596 22.778C39.596 22.004 38.991 21.629 38.395 21.64C38.403 21.586 38.428 21.543 38.428 21.483C38.428 20.866 38.039 20.514 37.582 20.397C37.681 20.235 37.751 20.046 37.751 19.806C37.751 18.648 36.397 18.38 35.751 18.986C35.608 18.191 34.779 17.909 34.147 18.158C34.169 18.07 34.203 17.988 34.203 17.883C34.203 16.5 32.286 16.389 31.936 17.523C31.445 16.778 30.141 16.871 29.863 17.803C29.28 17.042 27.764 17.261 27.764 18.491C27.764 18.569 27.792 18.624 27.804 18.693C27.173 18.621 26.483 18.982 26.483 19.807C26.483 19.832 26.494 19.851 26.499 19.873C25.815 19.658 24.93 20.015 24.93 20.949C24.93 21.228 25.029 21.438 25.159 21.618C24.722 21.746 24.364 22.1 24.364 22.695C24.364 22.994 24.47 23.217 24.618 23.401C24.23 23.554 23.926 23.894 23.926 24.439C23.926 24.983 24.229 25.324 24.613 25.48C24.398 25.669 24.256 25.95 24.256 26.324C24.256 27.026 24.756 27.387 25.294 27.442C25.077 27.633 24.932 27.916 24.932 28.293C24.932 29.239 25.841 29.594 26.526 29.362C26.636 30.053 27.26 30.357 27.843 30.273C27.805 30.394 27.767 30.513 27.767 30.662C27.767 31.722 28.891 32.025 29.58 31.609C29.93 32.382 31.075 32.437 31.571 31.802C31.809 33.053 33.809 32.997 33.856 31.614C34.445 32.367 35.952 32.148 35.952 30.923C35.952 30.865 35.928 30.825 35.922 30.771C36.6 31.262 37.817 30.974 37.817 29.871C37.817 29.692 37.78 29.539 37.723 29.402C38.238 29.326 38.705 28.97 38.705 28.294C38.705 28.15 38.667 28.031 38.63 27.917C39.238 27.952 39.875 27.581 39.875 26.79C39.873 26.171 39.484 25.818 39.025 25.701Z" fill="url(#paint18_radial)"/>
<path opacity="0.5" d="M28.9141 18.729C29.1641 19.875 30.6621 19.914 30.9711 18.784C30.3541 19.034 29.5161 19.01 28.9141 18.729Z" fill="#969900"/>
<path opacity="0.5" d="M33.0291 18.902C33.2811 20.048 34.7781 20.086 35.0881 18.957C34.4741 19.208 33.6321 19.183 33.0291 18.902Z" fill="#969900"/>
<path opacity="0.5" d="M32.6169 23.517C32.8689 24.661 34.3639 24.703 34.6729 23.573C34.0619 23.82 33.2209 23.796 32.6169 23.517Z" fill="#969900"/>
<path opacity="0.5" d="M36.175 24.366C36.424 25.51 37.922 25.552 38.231 24.421C37.617 24.67 36.778 24.646 36.175 24.366Z" fill="#969900"/>
<path opacity="0.5" d="M35.0879 21.391C35.3389 22.535 36.8349 22.577 37.1459 21.446C36.5309 21.694 35.6919 21.67 35.0879 21.391Z" fill="#969900"/>
<path opacity="0.5" d="M28.9141 23.517C29.1641 24.661 30.6621 24.703 30.9711 23.573C30.3541 23.819 29.5161 23.8 28.9141 23.517Z" fill="#969900"/>
<path opacity="0.5" d="M26.948 20.808C27.2 21.952 28.697 21.993 29.007 20.864C28.391 21.11 27.551 21.092 26.948 20.808Z" fill="#969900"/>
<path opacity="0.5" d="M30.739 20.722C30.991 21.868 32.488 21.909 32.799 20.78C32.182 21.024 31.343 21.006 30.739 20.722Z" fill="#969900"/>
<path opacity="0.5" d="M34.4651 26.936C34.7151 28.083 36.2131 28.123 36.5221 26.993C35.9041 27.241 35.0661 27.219 34.4651 26.936Z" fill="#969900"/>
<path opacity="0.5" d="M25.6699 24.191C25.9209 25.337 27.4169 25.377 27.7269 24.246C27.1099 24.497 26.2719 24.473 25.6699 24.191Z" fill="#969900"/>
<path opacity="0.5" d="M30.9709 26.181C31.2229 27.329 32.7199 27.368 33.0299 26.238C32.4129 26.485 31.5739 26.463 30.9709 26.181Z" fill="#969900"/>
<path opacity="0.5" d="M29.0071 29.07C29.2581 30.216 30.7561 30.258 31.0651 29.126C30.4491 29.375 29.6081 29.351 29.0071 29.07Z" fill="#969900"/>
<path opacity="0.5" d="M32.324 29.354C32.572 30.501 34.07 30.541 34.379 29.41C33.766 29.659 32.927 29.638 32.324 29.354Z" fill="#969900"/>
<path opacity="0.5" d="M27.1431 26.622C27.3941 27.769 28.8911 27.809 29.2011 26.678C28.5841 26.927 27.7451 26.905 27.1431 26.622Z" fill="#969900"/>
<defs>
<linearGradient id="paint0_linear" x1="29.4674" y1="26.0489" x2="37.3034" y2="22.8031" gradientUnits="userSpaceOnUse">
<stop stop-color="#FFC800"/>
<stop offset="0.8686" stop-color="#FFBA00"/>
<stop offset="1" stop-color="#FFB700"/>
</linearGradient>
<linearGradient id="paint1_linear" x1="26.6957" y1="27.197" x2="32.0153" y2="24.9935" gradientUnits="userSpaceOnUse">
<stop stop-color="#FFC800"/>
<stop offset="0.8686" stop-color="#FFBA00"/>
<stop offset="1" stop-color="#FFB700"/>
</linearGradient>
<linearGradient id="paint2_linear" x1="30.9501" y1="22.4673" x2="34.1963" y2="30.3042" gradientUnits="userSpaceOnUse">
<stop stop-color="#FFC800"/>
<stop offset="0.8686" stop-color="#FFBA00"/>
<stop offset="1" stop-color="#FFB700"/>
</linearGradient>
<linearGradient id="paint3_linear" x1="29.8017" y1="19.6957" x2="32.0052" y2="25.0153" gradientUnits="userSpaceOnUse">
<stop stop-color="#FFC800"/>
<stop offset="0.8686" stop-color="#FFBA00"/>
<stop offset="1" stop-color="#FFB700"/>
</linearGradient>
<linearGradient id="paint4_linear" x1="29.4557" y1="23.9543" x2="37.2927" y2="27.2005" gradientUnits="userSpaceOnUse">
<stop stop-color="#FFC800"/>
<stop offset="0.8686" stop-color="#FFBA00"/>
<stop offset="1" stop-color="#FFB700"/>
</linearGradient>
<linearGradient id="paint5_linear" x1="26.6841" y1="22.8062" x2="32.0037" y2="25.0097" gradientUnits="userSpaceOnUse">
<stop stop-color="#FFC800"/>
<stop offset="0.8686" stop-color="#FFBA00"/>
<stop offset="1" stop-color="#FFB700"/>
</linearGradient>
<linearGradient id="paint6_linear" x1="33.0441" y1="22.4568" x2="29.7979" y2="30.2938" gradientUnits="userSpaceOnUse">
<stop stop-color="#FFC800"/>
<stop offset="0.8686" stop-color="#FFBA00"/>
<stop offset="1" stop-color="#FFB700"/>
</linearGradient>
<linearGradient id="paint7_linear" x1="34.1923" y1="19.6851" x2="31.9887" y2="25.0048" gradientUnits="userSpaceOnUse">
<stop stop-color="#FFC800"/>
<stop offset="0.8686" stop-color="#FFBA00"/>
<stop offset="1" stop-color="#FFB700"/>
</linearGradient>
<linearGradient id="paint8_linear" x1="30.375" y1="50.8965" x2="33.623" y2="50.8965" gradientUnits="userSpaceOnUse">
<stop stop-color="#677339"/>
<stop offset="0.2398" stop-color="#626E37"/>
<stop offset="0.5147" stop-color="#546030"/>
<stop offset="0.8058" stop-color="#3E4A24"/>
<stop offset="1" stop-color="#2A361A"/>
</linearGradient>
<linearGradient id="paint9_linear" x1="29.2588" y1="25" x2="37.7412" y2="25" gradientUnits="userSpaceOnUse">
<stop stop-color="#FFE354"/>
<stop offset="0.2323" stop-color="#FFDE46"/>
<stop offset="0.6724" stop-color="#FFD220"/>
<stop offset="1" stop-color="#FFC800"/>
</linearGradient>
<linearGradient id="paint10_linear" x1="26.2589" y1="25" x2="32.0166" y2="25" gradientUnits="userSpaceOnUse">
<stop stop-color="#FFE354"/>
<stop offset="0.2323" stop-color="#FFDE46"/>
<stop offset="0.6724" stop-color="#FFD220"/>
<stop offset="1" stop-color="#FFC800"/>
</linearGradient>
<linearGradient id="paint11_linear" x1="32" y1="22.2588" x2="32" y2="30.7413" gradientUnits="userSpaceOnUse">
<stop stop-color="#FFE354"/>
<stop offset="0.2323" stop-color="#FFDE46"/>
<stop offset="0.6724" stop-color="#FFD220"/>
<stop offset="1" stop-color="#FFC800"/>
</linearGradient>
<linearGradient id="paint12_linear" x1="32" y1="19.2588" x2="32" y2="25.0167" gradientUnits="userSpaceOnUse">
<stop stop-color="#FFE354"/>
<stop offset="0.2323" stop-color="#FFDE46"/>
<stop offset="0.6724" stop-color="#FFD220"/>
<stop offset="1" stop-color="#FFC800"/>
</linearGradient>
<linearGradient id="paint13_linear" x1="30.0496" y1="23.0616" x2="36.0468" y2="29.0588" gradientUnits="userSpaceOnUse">
<stop stop-color="#FFE354"/>
<stop offset="0.2323" stop-color="#FFDE46"/>
<stop offset="0.6724" stop-color="#FFD220"/>
<stop offset="1" stop-color="#FFC800"/>
</linearGradient>
<linearGradient id="paint14_linear" x1="27.9281" y1="20.9403" x2="31.9995" y2="25.0117" gradientUnits="userSpaceOnUse">
<stop stop-color="#FFE354"/>
<stop offset="0.2323" stop-color="#FFDE46"/>
<stop offset="0.6724" stop-color="#FFD220"/>
<stop offset="1" stop-color="#FFC800"/>
</linearGradient>
<linearGradient id="paint15_linear" x1="33.9387" y1="23.0503" x2="27.9408" y2="29.0482" gradientUnits="userSpaceOnUse">
<stop stop-color="#FFE354"/>
<stop offset="0.2323" stop-color="#FFDE46"/>
<stop offset="0.6724" stop-color="#FFD220"/>
<stop offset="1" stop-color="#FFC800"/>
</linearGradient>
<linearGradient id="paint16_linear" x1="36.0602" y1="20.929" x2="31.9888" y2="25.0004" gradientUnits="userSpaceOnUse">
<stop stop-color="#FFE354"/>
<stop offset="0.2323" stop-color="#FFDE46"/>
<stop offset="0.6724" stop-color="#FFD220"/>
<stop offset="1" stop-color="#FFC800"/>
</linearGradient>
<radialGradient id="paint17_radial" cx="0" cy="0" r="1" gradientUnits="userSpaceOnUse" gradientTransform="translate(32.0014 24.9999) scale(13.1581 13.0432)">
<stop offset="0.5394" stop-color="#4A2F24"/>
<stop offset="0.6743" stop-color="#4D3126"/>
<stop offset="0.7742" stop-color="#56392D"/>
<stop offset="0.8628" stop-color="#664639"/>
<stop offset="0.9444" stop-color="#7D5949"/>
<stop offset="1" stop-color="#916958"/>
</radialGradient>
<radialGradient id="paint18_radial" cx="0" cy="0" r="1" gradientUnits="userSpaceOnUse" gradientTransform="translate(31.8992 24.7261) scale(8.07793 7.8743)">
<stop stop-color="#7D503D"/>
<stop offset="0.6893" stop-color="#694435"/>
<stop offset="1" stop-color="#5E3E31"/>
</radialGradient>
</defs>
</svg>
