<svg width="64" height="64" viewBox="0 0 64 64" fill="none" xmlns="http://www.w3.org/2000/svg">
<g clip-path="url(#clip0)">
<path d="M57.0712 3L60.1812 6.744C60.1812 6.744 60.1322 6.788 1.62419 54.653C0.686186 55.421 -0.594814 53.866 0.308186 53.065C57.0712 3 57.0712 3 57.0712 3Z" fill="#302C3B"/>
<path d="M55.595 4.302L58.677 7.977L51.374 13.952L48.603 10.469L55.595 4.302Z" fill="#E81C27"/>
<path opacity="0.3" d="M57.3691 3.35889L58.4171 4.61989L0.308105 53.0659L57.3691 3.35889Z" fill="white"/>
<path d="M61.2261 14.2729L64.0011 18.2809C64.0011 18.2809 63.9501 18.317 1.54207 60.839C0.543072 61.521 -0.601928 59.858 0.367072 59.144C61.2261 14.273 61.2261 14.2729 61.2261 14.2729Z" fill="#302C3B"/>
<path d="M59.5811 15.486L62.2751 19.457L54.6301 24.668L52.1101 20.996L59.5811 15.486Z" fill="#E81C27"/>
<path opacity="0.3" d="M61.4922 14.6591L62.4272 16.0081L0.367188 59.1421L61.4922 14.6591Z" fill="white"/>
</g>
<defs>
<clipPath id="clip0">
<rect width="64" height="64" fill="white"/>
</clipPath>
</defs>
</svg>
