<svg width="64" height="64" viewBox="0 0 64 64" fill="none" xmlns="http://www.w3.org/2000/svg">
<path d="M33.9509 40.619C48.8929 57.604 62.9999 38.111 62.9999 38.111C62.9999 38.111 42.6479 31.271 33.9509 40.619Z" fill="#7AB51D"/>
<path d="M33.7351 38.951C44.4141 32.308 63.0001 38.111 63.0001 38.111C63.0001 38.111 40.8841 15.515 33.7351 38.951Z" fill="#92C932"/>
<path d="M31.7269 40.348C29.6239 42.508 29.8309 46.309 32.2109 43.102C40.0899 32.48 58.1369 37.09 62.9999 38.111C58.3119 36.764 41.3229 30.491 31.7269 40.348Z" fill="#529320"/>
<path d="M30.166 39.834C29.704 38.291 27.03 39.361 27.904 42.297C29.217 46.705 28.476 57.268 26.668 61.193C26.136 62.343 30.746 62.254 30.866 60.986C31.737 51.767 30.575 45.513 32.446 43.16C33.202 42.211 30.607 41.303 30.166 39.834Z" fill="url(#paint0_linear)"/>
<path d="M25.635 32.308C1 42.619 1 8 1 8C1 8 17.658 19.118 25.635 32.308Z" fill="#7AB51D"/>
<path d="M25.635 32.308C20.313 21.085 1 8 1 8C1 8 34.297 8 25.635 32.308Z" fill="#92C932"/>
<path d="M29.585 39.283C24.718 23.359 5.986 11.025 1 8C6.06 11.479 25.635 28.86 27.948 41.633C28.05 42.189 30.135 41.082 29.585 39.283Z" fill="#529320"/>
<defs>
<linearGradient id="paint0_linear" x1="26.625" y1="50.5645" x2="32.5835" y2="50.5645" gradientUnits="userSpaceOnUse">
<stop stop-color="#677339"/>
<stop offset="0.3022" stop-color="#647037"/>
<stop offset="0.5351" stop-color="#5A6632"/>
<stop offset="0.7448" stop-color="#4A562A"/>
<stop offset="0.9398" stop-color="#333F1E"/>
<stop offset="1" stop-color="#2A361A"/>
</linearGradient>
</defs>
</svg>
