<svg width="64" height="64" viewBox="0 0 64 64" fill="none" xmlns="http://www.w3.org/2000/svg">
<path d="M55.581 54.168C55.581 54.168 18.719 59.224 6.431 60.906C4.058 61.231 3 60.795 3 58.307C3 51.183 3 29.815 3 29.815C3 29.815 21.916 23.168 57.113 21.355C58.926 41.366 55.581 54.168 55.581 54.168Z" fill="url(#paint0_linear)"/>
<path opacity="0.1" d="M21.7781 31.911C20.9681 31.471 21.6981 30.364 22.5081 30.807C23.3191 31.25 22.5891 32.356 21.7781 31.911Z" fill="#D46A06"/>
<path opacity="0.1" d="M34.782 30.67C33.971 30.23 34.701 29.124 35.511 29.566C36.322 30.009 35.594 31.114 34.782 30.67Z" fill="#D46A06"/>
<path opacity="0.1" d="M29.8979 32.97C29.0869 32.529 29.8159 31.423 30.6269 31.865C31.4379 32.308 30.7099 33.414 29.8979 32.97Z" fill="#D46A06"/>
<path opacity="0.1" d="M36.219 27.507C35.408 27.065 36.138 25.96 36.948 26.402C37.758 26.845 37.031 27.95 36.219 27.507Z" fill="#D46A06"/>
<path opacity="0.1" d="M42.7839 35.389C41.9729 34.949 42.7029 33.843 43.5129 34.283C44.3239 34.728 43.5969 35.833 42.7839 35.389Z" fill="#D46A06"/>
<path opacity="0.1" d="M44.939 26.545C44.128 26.103 44.859 24.998 45.668 25.44C46.479 25.883 45.752 26.988 44.939 26.545Z" fill="#D46A06"/>
<path opacity="0.1" d="M48.9719 33.523C48.1609 33.083 48.8909 31.977 49.7009 32.419C50.5119 32.863 49.7839 33.968 48.9719 33.523Z" fill="#D46A06"/>
<path opacity="0.1" d="M52.7471 26.545C51.9371 26.103 52.6661 24.998 53.4761 25.44C54.2871 25.883 53.5601 26.988 52.7471 26.545Z" fill="#D46A06"/>
<path opacity="0.1" d="M54.1841 34.352C53.3731 33.912 54.1041 32.806 54.9131 33.248C55.7241 33.69 54.9961 34.796 54.1841 34.352Z" fill="#D46A06"/>
<path opacity="0.1" d="M44.2209 32.314C43.4099 31.873 44.1399 30.768 44.9499 31.21C45.7629 31.654 45.0329 32.76 44.2209 32.314Z" fill="#D46A06"/>
<path opacity="0.1" d="M51.563 31.659C50.752 31.219 51.482 30.113 52.292 30.555C53.105 30.999 52.376 32.104 51.563 31.659Z" fill="#D46A06"/>
<path opacity="0.1" d="M48.4119 28.715C47.6009 28.274 48.3319 27.17 49.1399 27.611C49.9519 28.054 49.2229 29.159 48.4119 28.715Z" fill="#D46A06"/>
<path opacity="0.1" d="M25.7299 32.698C26.1319 32.066 27.1739 32.611 26.7719 33.247C26.3719 33.878 25.3279 33.33 25.7299 32.698Z" fill="#D46A06"/>
<path opacity="0.1" d="M39.6881 29.372C40.0901 28.74 41.1321 29.286 40.7301 29.919C40.3291 30.552 39.2851 30.003 39.6881 29.372Z" fill="#D46A06"/>
<path opacity="0.1" d="M36.519 34.9C36.919 34.266 37.961 34.813 37.561 35.447C37.158 36.078 36.116 35.531 36.519 34.9Z" fill="#D46A06"/>
<path opacity="0.1" d="M6.46996 32.144C6.87196 31.512 7.91396 32.059 7.51196 32.693C7.11096 33.324 6.06796 32.775 6.46996 32.144Z" fill="#D46A06"/>
<path opacity="0.1" d="M17.9281 35.534C18.4451 34.72 19.7881 35.426 19.2711 36.238C18.7551 37.054 17.4111 36.349 17.9281 35.534Z" fill="#D46A06"/>
<path opacity="0.1" d="M7.32504 35.375C7.84204 34.561 9.18504 35.268 8.66804 36.078C8.15204 36.895 6.80804 36.189 7.32504 35.375Z" fill="#D46A06"/>
<path opacity="0.1" d="M11.225 37.064C11.591 36.489 12.543 36.987 12.175 37.563C11.809 38.14 10.859 37.643 11.225 37.064Z" fill="#D46A06"/>
<path opacity="0.1" d="M14.9711 38.678C15.3371 38.103 16.2891 38.601 15.9211 39.177C15.5551 39.752 14.6051 39.255 14.9711 38.678Z" fill="#D46A06"/>
<path opacity="0.1" d="M16.9369 30.455C17.3029 29.88 18.2549 30.377 17.8869 30.953C17.5209 31.529 16.5709 31.031 16.9369 30.455Z" fill="#D46A06"/>
<path opacity="0.1" d="M28.085 28.816C27.275 28.375 28.004 27.27 28.814 27.712C29.625 28.157 28.895 29.262 28.085 28.816Z" fill="#D46A06"/>
<path opacity="0.1" d="M31.479 36.168C31.88 35.535 32.923 36.08 32.521 36.715C32.121 37.347 31.076 36.799 31.479 36.168Z" fill="#D46A06"/>
<path opacity="0.1" d="M13.3749 33.254C13.7769 32.621 14.8189 33.168 14.4169 33.8C14.0169 34.433 12.9729 33.885 13.3749 33.254Z" fill="#D46A06"/>
<path opacity="0.1" d="M22.908 36.249C23.425 35.434 24.768 36.141 24.251 36.952C23.736 37.769 22.391 37.063 22.908 36.249Z" fill="#D46A06"/>
<path opacity="0.1" d="M5.90396 39.867C6.27096 39.292 7.22196 39.79 6.85396 40.366C6.48796 40.941 5.53796 40.444 5.90396 39.867Z" fill="#D46A06"/>
<path opacity="0.1" d="M35.437 51.888C36.274 52.28 35.614 53.426 34.778 53.033C33.938 52.637 34.598 51.491 35.437 51.888Z" fill="#D46A06"/>
<path opacity="0.1" d="M32.6121 55.246C33.4491 55.639 32.7881 56.785 31.9531 56.392C31.1141 55.995 31.7731 54.851 32.6121 55.246Z" fill="#D46A06"/>
<path opacity="0.1" d="M24.161 54.249C24.996 54.643 24.337 55.789 23.5 55.395C22.663 55.001 23.321 53.854 24.161 54.249Z" fill="#D46A06"/>
<path opacity="0.1" d="M25.4159 49.097C26.2509 49.492 25.5919 50.637 24.7549 50.245C23.9179 49.849 24.5769 48.702 25.4159 49.097Z" fill="#D46A06"/>
<path opacity="0.1" d="M28.961 53.214C29.796 53.608 29.137 54.753 28.299 54.36C27.462 53.964 28.121 52.817 28.961 53.214Z" fill="#D46A06"/>
<path opacity="0.1" d="M34.7201 46.888C35.5551 47.282 34.8961 48.428 34.0591 48.034C33.2221 47.639 33.8811 46.492 34.7201 46.888Z" fill="#D46A06"/>
<path opacity="0.1" d="M39.8221 52.94C40.6581 53.335 39.9981 54.48 39.1621 54.086C38.3241 53.692 38.9831 52.545 39.8221 52.94Z" fill="#D46A06"/>
<path opacity="0.1" d="M43.2129 51.037C44.0489 51.432 43.3899 52.576 42.5529 52.183C41.7149 51.787 42.3739 50.641 43.2129 51.037Z" fill="#D46A06"/>
<path opacity="0.1" d="M46.5489 52.621C47.3849 53.014 46.7249 54.159 45.8889 53.767C45.0509 53.371 45.7099 52.225 46.5489 52.621Z" fill="#D46A06"/>
<path opacity="0.1" d="M51.463 43.247C52.298 43.642 51.639 44.786 50.802 44.393C49.965 43.997 50.623 42.852 51.463 43.247Z" fill="#D46A06"/>
<path opacity="0.1" d="M54.604 46.232C55.44 46.627 54.781 47.772 53.944 47.38C53.105 46.984 53.766 45.837 54.604 46.232Z" fill="#D46A06"/>
<path opacity="0.1" d="M49.2869 46.671C50.1229 47.066 49.4629 48.21 48.6269 47.817C47.7889 47.421 48.4479 46.274 49.2869 46.671Z" fill="#D46A06"/>
<path opacity="0.1" d="M53.444 52.286C54.279 52.681 53.621 53.826 52.783 53.433C51.946 53.037 52.605 51.891 53.444 52.286Z" fill="#D46A06"/>
<path opacity="0.1" d="M13.41 54.317C14.247 54.711 13.589 55.855 12.751 55.463C11.913 55.066 12.573 53.923 13.41 54.317Z" fill="#D46A06"/>
<path opacity="0.1" d="M6.44109 57.733C7.27609 58.127 6.61809 59.273 5.78009 58.879C4.94309 58.484 5.60409 57.337 6.44109 57.733Z" fill="#D46A06"/>
<path opacity="0.1" d="M31.1091 49.912C30.7471 50.567 29.6711 50.084 30.0351 49.427C30.3951 48.774 31.4711 49.259 31.1091 49.912Z" fill="#D46A06"/>
<path opacity="0.1" d="M20.313 56.846C19.951 57.5 18.876 57.016 19.238 56.361C19.601 55.705 20.675 56.191 20.313 56.846Z" fill="#D46A06"/>
<path opacity="0.1" d="M20.536 51.196C20.172 51.851 19.099 51.367 19.461 50.711C19.821 50.058 20.897 50.543 20.536 51.196Z" fill="#D46A06"/>
<path opacity="0.1" d="M17.4251 52.94C18.2601 53.335 17.6011 54.48 16.7641 54.086C15.9261 53.692 16.5851 52.545 17.4251 52.94Z" fill="#D46A06"/>
<path opacity="0.1" d="M6.44007 52.244C7.27707 52.638 6.61907 53.783 5.78107 53.39C4.94307 52.994 5.60407 51.85 6.44007 52.244Z" fill="#D46A06"/>
<path opacity="0.1" d="M12.3759 57.078C13.2109 57.473 12.5529 58.619 11.7149 58.225C10.8779 57.829 11.5389 56.683 12.3759 57.078Z" fill="#D46A06"/>
<path opacity="0.1" d="M10.2251 53.714C9.86311 54.368 8.78811 53.884 9.15011 53.228C9.51311 52.572 10.5871 53.06 10.2251 53.714Z" fill="#D46A06"/>
<path opacity="0.1" d="M13.673 50.465C13.308 51.12 12.236 50.636 12.598 49.98C12.958 49.326 14.035 49.812 13.673 50.465Z" fill="#D46A06"/>
<path opacity="0.1" d="M50.4841 51.197C50.1231 51.852 49.0481 51.367 49.4101 50.712C49.7721 50.058 50.8481 50.544 50.4841 51.197Z" fill="#D46A06"/>
<path opacity="0.1" d="M39.624 48.844C39.158 49.687 37.775 49.061 38.238 48.22C38.705 47.377 40.092 48.001 39.624 48.844Z" fill="#D46A06"/>
<path opacity="0.1" d="M44.648 48.04C44.316 48.637 43.335 48.194 43.667 47.598C43.998 47.002 44.975 47.444 44.648 48.04Z" fill="#D46A06"/>
<path d="M57.454 41.925C57.454 41.925 52.283 42.182 50.558 42.411C48.957 42.626 45.755 43.486 44.156 43.7C42.395 43.934 39.119 44.151 37.358 44.386C35.947 44.574 32.882 45.205 31.472 45.393C30.697 45.497 28.184 45.613 27.408 45.715C25.345 45.989 22.182 46.632 20.119 46.907C18.895 47.071 16.588 47.084 15.364 47.247C13.627 47.479 9.892 48.414 8.155 48.646C6.837 48.824 3 49.192 3 49.192V46.391L57.484 36.865L57.454 41.925Z" fill="#E60F00"/>
<path d="M57.496 38.907C57.496 38.907 53.508 39.655 52.18 39.832C50.981 39.992 48.503 40.117 47.305 40.277C45.666 40.496 42.463 41.129 40.823 41.346C38.78 41.618 34.689 41.936 32.645 42.209C30.67 42.473 26.685 43.437 24.711 43.699C22.731 43.963 18.809 44.282 16.828 44.547C14.982 44.794 11.331 45.548 9.486 45.794C7.874 46.009 3 46.392 3 46.392V42.829C3 42.829 7.547 42.434 9.218 42.209C11.051 41.963 14.994 41.189 16.826 40.942C18.678 40.693 22.616 40.525 24.468 40.276C26.513 40.002 30.235 39.168 32.281 38.893C34.302 38.621 38.678 38.291 40.7 38.019C42.321 37.801 45.548 37.106 47.167 36.887C48.358 36.728 50.738 36.741 51.929 36.58C53.328 36.393 57.527 35.495 57.527 35.495L57.496 38.907Z" fill="#F5EDDD"/>
<path d="M59.645 21.592C57.547 15.493 42.799 12.987 39.125 13.496C28.672 14.945 10.218 22.296 3 26.647V29.814C38.9 24.617 53.07 22.681 54.977 24.556C56.297 25.852 56.548 36.028 55.581 54.167C55.581 54.167 56.752 54.023 57.141 53.976C58.819 53.77 59.739 53.016 59.962 50.955C60.654 44.571 62.057 28.603 59.645 21.592Z" fill="#F5EDDD"/>
<path d="M53.924 19.005C62.024 18.234 45.76 12.651 39.576 13.452C17.26 16.339 3 26.647 3 26.647C3 26.647 26.111 21.645 53.924 19.005Z" fill="#E6DED3"/>
<path d="M41.5291 18.331C41.5921 21.656 21.3321 22.061 21.2731 18.733C21.2131 15.404 41.4731 14.999 41.5291 18.331Z" fill="url(#paint1_radial)"/>
<path d="M37.807 8.726C39.888 11.942 40.129 16.018 36.787 17.985C32.256 20.654 24.322 19.413 23.032 17.421C21.759 15.45 24.28 7.959 28.657 5.431C32.297 3.328 35.365 5.023 37.807 8.726Z" fill="url(#paint2_linear)"/>
<path d="M32.309 11.097C32.004 11.537 32.004 11.537 32.551 11.425C33.309 11.267 32.733 10.49 32.309 11.097Z" fill="#EA8800"/>
<path d="M29.511 11.212C29.18 11.635 29.18 11.635 29.732 11.549C30.498 11.431 29.967 10.625 29.511 11.212Z" fill="#EA8800"/>
<path d="M26.77 11.784C26.44 12.207 26.44 12.207 26.992 12.121C27.758 12.001 27.227 11.197 26.77 11.784Z" fill="#EA8800"/>
<path d="M23.9519 13.958C23.7999 14.461 23.7999 14.461 24.2879 14.203C24.9629 13.845 24.1659 13.262 23.9519 13.958Z" fill="#EA8800"/>
<path d="M23.491 16.192C23.497 16.713 23.497 16.713 23.887 16.338C24.428 15.817 23.484 15.47 23.491 16.192Z" fill="#EA8800"/>
<path d="M26.157 14.689C25.768 15.065 25.768 15.065 26.326 15.051C27.103 15.03 26.696 14.167 26.157 14.689Z" fill="#EA8800"/>
<path d="M27.584 18.138C27.115 18.421 27.115 18.421 27.66 18.531C28.418 18.677 28.238 17.744 27.584 18.138Z" fill="#EA8800"/>
<path d="M28.834 16.299C28.363 16.583 28.363 16.583 28.91 16.69C29.666 16.84 29.488 15.907 28.834 16.299Z" fill="#EA8800"/>
<path d="M28.6969 13.91C28.3489 14.321 28.3489 14.321 28.9039 14.254C29.6749 14.161 29.1769 13.34 28.6969 13.91Z" fill="#EA8800"/>
<path d="M31.208 16.007C30.863 16.415 30.863 16.415 31.416 16.351C32.188 16.26 31.689 15.437 31.208 16.007Z" fill="#EA8800"/>
<path d="M31.145 17.979C30.739 18.339 30.739 18.339 31.296 18.351C32.071 18.365 31.713 17.481 31.145 17.979Z" fill="#EA8800"/>
<path d="M34.2719 17.333C33.8659 17.689 33.8659 17.689 34.4239 17.701C35.1989 17.718 34.8409 16.834 34.2719 17.333Z" fill="#EA8800"/>
<path d="M31.32 13.523C31.091 13.998 31.091 13.998 31.613 13.807C32.336 13.54 31.637 12.859 31.32 13.523Z" fill="#EA8800"/>
<path d="M35.9689 13.744C35.7399 14.22 35.7399 14.22 36.2609 14.028C36.9839 13.763 36.2839 13.08 35.9689 13.744Z" fill="#EA8800"/>
<path d="M33.8869 15.301C33.6589 15.779 33.6589 15.779 34.1789 15.586C34.9029 15.32 34.2029 14.637 33.8869 15.301Z" fill="#EA8800"/>
<path d="M36.7031 15.984C36.6401 16.502 36.6401 16.502 37.0741 16.169C37.6801 15.712 36.7881 15.263 36.7031 15.984Z" fill="#EA8800"/>
<path d="M38.0391 13.302C38.1641 13.81 38.1641 13.81 38.4591 13.366C38.8711 12.749 37.8671 12.598 38.0391 13.302Z" fill="#EA8800"/>
<path d="M35.9359 11.363C35.6499 11.808 35.6499 11.808 36.1919 11.676C36.9409 11.491 36.3339 10.736 35.9359 11.363Z" fill="#EA8800"/>
<path d="M33.8231 12.691C33.5381 13.14 33.5381 13.14 34.0791 13.008C34.8301 12.822 34.2231 12.069 33.8231 12.691Z" fill="#EA8800"/>
<path d="M25.7011 16.828C25.2301 17.11 25.2301 17.11 25.7761 17.219C26.5351 17.368 26.3551 16.437 25.7011 16.828Z" fill="#EA8800"/>
<path d="M28.2169 9.24799C27.9259 9.69499 27.926 9.69499 28.469 9.56699C29.22 9.39199 28.6229 8.62799 28.2169 9.24799Z" fill="#EA8800"/>
<path d="M28.0349 6.93899C27.7049 7.36199 27.7049 7.36199 28.2589 7.27799C29.0239 7.16099 28.4979 6.35499 28.0349 6.93899Z" fill="#EA8800"/>
<path d="M32.9239 5.48599C32.4099 5.68899 32.4099 5.68899 32.9249 5.88299C33.6429 6.15599 33.6429 5.20799 32.9239 5.48599Z" fill="#EA8800"/>
<path d="M31.2849 9.00801C30.8229 9.30301 30.8229 9.30301 31.3729 9.39601C32.1329 9.52401 31.9269 8.59901 31.2849 9.00801Z" fill="#EA8800"/>
<path d="M30.2251 5.642C29.7661 5.937 29.7661 5.937 30.3131 6.03C31.0721 6.16 30.8691 5.231 30.2251 5.642Z" fill="#EA8800"/>
<path d="M34.3591 9.642C33.8711 9.897 33.8711 9.897 34.4081 10.037C35.1531 10.229 35.0371 9.288 34.3591 9.642Z" fill="#EA8800"/>
<path d="M33.381 7.524C32.892 7.779 32.892 7.779 33.429 7.919C34.174 8.113 34.059 7.172 33.381 7.524Z" fill="#EA8800"/>
<path d="M30.748 7.171C30.26 7.427 30.26 7.427 30.795 7.567C31.545 7.76 31.429 6.818 30.748 7.171Z" fill="#EA8800"/>
<path d="M25.8941 9.229C25.8411 9.749 25.8411 9.749 26.2701 9.413C26.8681 8.948 25.9701 8.51 25.8941 9.229Z" fill="#EA8800"/>
<path d="M24.8179 11.452C24.6509 11.948 24.6509 11.948 25.1469 11.701C25.8319 11.356 25.0499 10.76 24.8179 11.452Z" fill="#EA8800"/>
<path d="M37.8059 4.987C37.1049 6.3 39.0739 7.028 37.1739 9.044C34.8959 8.274 36.1329 6.161 37.8059 4.987Z" fill="#7AB51D"/>
<path d="M41.3041 10.385C39.7561 10.398 39.9551 8.39399 37.2151 9.10899C36.9161 11.395 39.4521 11.287 41.3041 10.385Z" fill="#7AB51D"/>
<path d="M35.17 3C34.826 3.912 35.898 4.682 35.915 6.33C35.915 6.33 37.134 7.608 37.839 8.696C38.546 9.785 39.195 11.397 39.195 11.397C40.734 12.149 40.975 13.408 41.983 13.525C40.362 14.875 37.722 12.61 38.264 11.069C38.264 11.069 37.053 10.152 37.238 9.049C36.125 8.713 35.804 7.27 35.804 7.27C34.115 7.042 33.178 3.777 35.17 3Z" fill="#56AB15"/>
<path d="M36.3271 4.647C35.8701 5.333 36.6371 6.248 36.5381 6.808C36.3871 7.667 36.1531 8.249 37.2891 9.019C37.5021 10.332 38.1541 10.394 39.0271 10.652C39.5971 10.818 40.1121 11.883 40.9591 11.799C39.0671 14.02 36.2421 10.341 37.1831 9.08C35.5801 9.322 33.3961 5.264 36.3271 4.647Z" fill="#449C00"/>
<path d="M37.2561 8.57199C37.2991 8.85999 37.5981 9.01799 37.5981 9.01799C39.5261 8.76399 41.5321 6.99699 41.0181 6.21699C40.0311 4.72499 40.6961 7.93399 37.2561 8.57199Z" fill="#7AB51D"/>
<defs>
<linearGradient id="paint0_linear" x1="3" y1="41.1777" x2="57.6514" y2="41.1777" gradientUnits="userSpaceOnUse">
<stop stop-color="#FFD675"/>
<stop offset="0.3819" stop-color="#FFD267"/>
<stop offset="1" stop-color="#FFC847"/>
</linearGradient>
<radialGradient id="paint1_radial" cx="0" cy="0" r="1" gradientUnits="userSpaceOnUse" gradientTransform="translate(31.4018 18.53) rotate(-1.49804) scale(9.78946 2.27753)">
<stop offset="0.2848" stop-color="#696460"/>
<stop offset="1" stop-color="#E6DED3" stop-opacity="0"/>
</radialGradient>
<linearGradient id="paint2_linear" x1="29.7785" y1="19.8525" x2="33.147" y2="4.704" gradientUnits="userSpaceOnUse">
<stop stop-color="#C21413"/>
<stop offset="0.1448" stop-color="#CF0F11"/>
<stop offset="0.4382" stop-color="#E4070F"/>
<stop offset="0.7261" stop-color="#F1020D"/>
<stop offset="1" stop-color="#F5000D"/>
</linearGradient>
</defs>
</svg>
