<svg width="64" height="64" viewBox="0 0 64 64" fill="none" xmlns="http://www.w3.org/2000/svg">
<g clip-path="url(#clip0)">
<path d="M32 64.0001C62.182 64.0001 81.388 40.6001 32 40.6001C-17.39 40.6001 1.81899 64.0001 32 64.0001Z" fill="#B3C2C6"/>
<path d="M32 62.2671C49.6731 62.2671 64 56.4468 64 49.2671C64 42.0874 49.6731 36.2671 32 36.2671C14.3269 36.2671 0 42.0874 0 49.2671C0 56.4468 14.3269 62.2671 32 62.2671Z" fill="#E6EBEF"/>
<path d="M5.99194 48.175C6.61694 41.16 17.6009 33.131 30.1709 30.423C38.7319 29.98 60.1599 41.594 57.4059 47.734C50.7399 62.603 8.37094 58.9 5.99194 48.175Z" fill="url(#paint0_linear)"/>
<path d="M26.1291 57.8359C17.5861 57.8359 9.29407 56.7039 5.39607 47.6339C5.23107 47.2479 5.39807 46.7959 5.77307 46.6269C5.78807 46.6189 5.80407 46.6099 5.82307 46.6049C5.61707 46.1669 5.50707 45.7279 5.52507 45.2879C5.55607 44.5449 5.89007 44.2219 6.16507 44.0779C6.94407 43.6759 7.81907 44.2929 9.55707 45.5169C12.0781 47.2979 16.2951 50.2779 21.9531 51.0609C28.3501 51.9529 38.0541 50.2399 43.2671 49.1439C44.5361 48.8769 53.7541 45.3109 55.8481 43.6529C53.9841 43.5299 49.8231 44.9749 46.2481 46.5919C43.0001 48.0549 31.7911 51.5549 24.3881 49.8709C22.1251 49.3559 20.4211 49.1169 19.0551 48.9249C15.6741 48.4499 13.8111 48.1899 9.36907 44.9119C7.63607 43.6339 7.35407 42.5789 7.42107 41.9169C7.49007 41.2849 7.88107 40.7809 8.52707 40.4939C9.32107 40.1409 10.5901 40.1269 12.1071 40.6019C11.2301 40.0599 10.6861 39.5229 10.6071 39.0229C10.5531 38.6849 10.5781 37.8559 11.9511 37.4869C13.8741 36.9629 15.9261 37.8399 18.5221 38.9459C22.3891 40.5929 27.2011 42.6389 33.9241 41.0479C36.2511 40.4939 39.3041 39.9579 42.2551 39.4419C44.5261 39.0459 47.1611 38.5839 48.8611 38.1899C44.8211 37.5129 40.9461 38.1819 36.8741 38.8859C30.6741 39.9609 24.2661 41.0719 16.2131 37.8549C15.6801 37.6419 14.2651 37.0799 14.5451 35.9949C15.2051 33.4399 29.1511 35.2639 37.4071 36.5799C37.7071 36.6299 37.9381 36.8569 38.0111 37.1439C42.2161 36.4319 46.2661 35.9149 50.6561 37.0039C50.9921 37.0879 51.8851 37.3109 51.8581 38.1269C51.8201 39.1839 50.7731 39.4999 42.5021 40.9479C39.5721 41.4609 36.5411 41.9919 34.2561 42.5349C27.0771 44.2419 21.8061 41.9979 17.9611 40.3579C15.6211 39.3619 13.7731 38.5749 12.3281 38.9639C12.3111 38.9659 12.2941 38.9719 12.2801 38.9769C14.1951 40.6349 25.8221 44.2389 32.3061 43.7989C38.4261 43.3759 42.0911 42.0799 45.0361 41.0409C48.0191 39.9879 50.3721 39.1549 53.8881 39.5319C54.3531 39.5849 55.4451 39.6989 55.5051 40.6129C55.5341 41.0779 55.5641 41.5299 53.3801 42.4199C54.7591 42.1069 55.9971 41.9949 56.7821 42.2739C57.6651 42.5899 57.6921 43.2689 57.6801 43.4689C57.6491 43.9519 57.1171 44.5149 56.2781 45.1049C57.1151 44.8549 57.8191 44.8439 58.2571 45.2339C58.8201 45.7319 58.8061 46.5359 58.2161 47.6259C54.1381 55.1549 42.6651 57.9179 34.0181 57.7889C32.4471 57.7669 27.1801 57.8359 26.1291 57.8359ZM7.68307 48.8729C12.0271 56.2649 20.4141 56.1579 29.2661 56.0459C30.8561 56.0249 32.4541 56.0059 34.0331 56.0269C42.8891 56.1869 53.4041 53.3789 56.9231 46.8809C57.0241 46.6959 57.0861 46.5549 57.1251 46.4479C56.2771 46.5789 53.8401 47.6849 49.9121 50.8749C44.4811 55.2899 37.5681 54.9319 30.8811 54.5809C29.2741 54.4999 27.8541 54.6419 26.4851 54.7749C23.2481 55.0969 19.9001 55.4329 14.0211 52.7869C13.7881 52.6839 10.1231 51.0189 7.68307 48.8729ZM7.03107 45.6479C7.42907 47.3489 11.5581 50.0139 14.6101 51.3869C20.1371 53.8739 23.1521 53.5729 26.3431 53.2549C27.7621 53.1129 29.2351 52.9699 30.9551 53.0559C37.6651 53.4079 44.0031 53.7349 48.9971 49.6719C49.7571 49.0579 50.8801 48.1789 52.0951 47.3469C48.1851 49.1119 43.6391 50.6219 43.5601 50.6389C38.2571 51.7549 28.3721 53.4929 21.7561 52.5749C15.7501 51.7419 11.3521 48.6359 8.72207 46.7789C8.12107 46.3529 7.46007 45.8879 7.03107 45.6479ZM9.93807 41.7559C9.59207 41.7559 9.31307 41.8069 9.10907 41.8989C9.06107 41.9199 8.90207 41.9969 8.89207 42.0819C8.87307 42.2759 9.12507 42.8569 10.2271 43.6699C14.3731 46.7289 16.0021 46.9569 19.2521 47.4129C20.6481 47.6089 22.3851 47.8509 24.7041 48.3799C31.6661 49.9639 42.6541 46.5469 45.6541 45.1919C46.1751 44.9569 47.0181 44.5869 48.0231 44.1819C45.4761 44.9209 42.0701 45.8309 37.5091 46.9729C36.7641 47.1609 36.2531 47.2869 36.0831 47.3359C28.2991 49.5399 20.7341 48.3529 15.3221 44.0809C13.1691 42.3789 11.1541 41.7559 9.93807 41.7559ZM14.9541 41.9649C15.3691 42.2299 15.7941 42.5309 16.2211 42.8689C21.2631 46.8459 28.3631 47.9369 35.6941 45.8619C35.8721 45.8119 36.3971 45.6809 37.1631 45.4889C46.6861 43.1019 51.0611 41.7519 52.9341 40.9869C50.1691 40.8469 48.0861 41.5769 45.5131 42.4849C42.4861 43.5559 38.7171 44.8869 32.4011 45.3229C28.1171 45.6169 19.9871 43.9409 14.9541 41.9649ZM16.6421 36.3899C16.6751 36.4049 16.7111 36.4169 16.7461 36.4319C23.6071 39.1669 29.2891 38.5999 34.7091 37.7059C23.6421 36.0569 18.4961 36.1059 16.6421 36.3899Z" fill="#FFD56B"/>
<path d="M20.3749 55.1171C20.3229 55.1171 20.0769 55.4671 20.0249 55.4561C15.0289 54.3501 13.1419 51.9791 11.1189 49.1041C10.0089 47.5231 8.46494 45.63 6.61694 43.989C8.59394 41.904 10.5899 45.8141 12.3859 48.2241C14.3759 50.9001 15.5129 53.3251 19.9569 54.3081C20.3569 54.3951 20.8489 54.5711 20.7639 54.9831C20.6889 55.3421 20.7139 55.1171 20.3749 55.1171Z" fill="#FFE485"/>
<path d="M24.5209 56.1121C15.2169 56.1121 13.7099 50.5311 12.4479 45.8601C11.8439 43.6211 11.2709 41.5081 9.9189 40.3081C9.6099 40.0331 9.5749 39.5491 9.8389 39.2311C10.1059 38.9121 10.5719 38.8751 10.8809 39.1481C12.5749 40.6501 13.2039 42.9811 13.8699 45.4481C15.4349 51.2391 17.0469 57.2271 33.0519 53.4041C33.4409 53.3061 33.8429 53.5641 33.9369 53.9741C34.0289 54.3851 33.7809 54.7951 33.3819 54.8911C29.8269 55.7421 26.9169 56.1121 24.5209 56.1121Z" fill="#FFE485"/>
<path d="M38.656 55.586C35.228 55.586 32.021 54.684 28.744 53.763C24.858 52.673 20.844 51.544 16.133 51.798C15.741 51.842 15.377 51.498 15.356 51.075C15.335 50.654 15.648 50.294 16.056 50.273C21.006 50.01 25.212 50.898 29.131 52.29C48.267 59.083 56.067 40.648 57.883 45.019C50.169 53.112 44.106 55.583 38.656 55.586Z" fill="#FFE485"/>
<path d="M34.635 53.848C32.084 53.848 29.631 53.39 27.071 52.912C23.661 52.277 20.138 51.621 15.809 51.849C15.409 51.902 15.055 51.549 15.034 51.128C15.013 50.705 15.326 50.347 15.734 50.326C20.232 50.082 24.055 50.547 27.335 51.407C47.518 56.707 52.551 38.416 55.645 42.116C46.646 51.555 40.336 53.848 34.635 53.848Z" fill="#FFE485"/>
<path d="M33.0311 47.5171C21.2831 47.3361 17.6941 43.9131 17.6941 43.9131C43.6971 52.1591 50.6881 35.4281 52.5501 39.4441C45.3501 45.4961 38.7001 47.5171 33.0311 47.5171Z" fill="#FFE485"/>
<path d="M37.7209 49.631C35.5439 49.631 33.3249 49.081 30.9519 48.305C30.9519 48.305 32.9519 48.013 34.5269 47.732C44.4269 50.876 47.9369 39.657 51.0899 40.447C46.2269 47.436 42.0609 49.631 37.7209 49.631Z" fill="#FFE485"/>
<path d="M20.5791 39.8021C26.0851 37.7231 43.7891 32.4671 49.1191 36.6861C39.1061 35.9981 28.1951 39.0831 22.6001 40.5341C21.3751 40.2291 20.5791 39.8021 20.5791 39.8021Z" fill="#FFE485"/>
<path d="M39.3359 38.191C26.5839 41.698 20.183 43.461 12.498 40.72C12.115 40.58 11.6909 40.795 11.5579 41.193C11.4269 41.591 11.6309 42.027 12.0179 42.165C14.77 43.148 17.3929 43.573 20.1509 43.573C25.5069 43.573 31.374 41.961 39.714 39.667C42.295 38.956 44.08 38.807 47.22 37.985C46.686 37.638 41.5999 37.568 39.3359 38.191Z" fill="#FFE485"/>
<path d="M31.5001 43.989C29.3771 43.989 27.2601 43.718 25.3771 43.046C24.9921 42.908 24.7881 42.475 24.9191 42.077C25.0541 41.677 25.4791 41.463 25.8581 41.602C32.1251 43.832 43.1541 40.547 43.1031 39.739C43.052 38.915 38.5351 40.533 37.2161 40.352C41.451 37.068 46.374 38.287 44.509 40.468C43.275 41.917 37.3601 43.989 31.5001 43.989Z" fill="#FFE485"/>
<path d="M33.6439 50.777C33.3209 49.773 27.7289 49.196 25.8399 47.165C19.3819 40.217 16.0899 34.998 13.2319 37.331C20.5789 38.811 23.4379 53.146 33.6439 50.777Z" fill="#FFE485"/>
<path d="M12.625 36.908C11.588 38.505 14.102 35.876 14.369 38.88C14.824 44.033 18.441 37.345 20.261 40.108C23.818 45.508 23.984 38.235 26.257 40.891C27.975 42.894 30.137 38.262 32.496 40.99C37.531 46.807 40.267 39.263 42.676 40.223C47.076 41.975 47.653 39.409 48.125 38.811C48.905 37.824 52.304 38.237 51.689 37.38C50.255 35.375 48.377 35.834 47.846 34.644C47.22 33.244 44.303 33.34 42.992 32.04C41.402 30.464 39.246 31.729 38.113 30.714C36.924 29.646 34.58 30.654 33.268 29.928C31.867 29.151 29.73 29.256 28.333 29.992C27.003 30.693 25.359 29.907 24.163 30.82C22.689 31.949 20.409 31.02 18.969 32.489C17.132 34.36 14.332 34.285 12.625 36.908Z" fill="url(#paint1_radial)"/>
<path d="M43.1799 40.691C44.8259 38.923 39.5769 38.902 38.6619 40.041C37.4479 41.552 38.5119 43.314 39.3459 42.125C40.9609 39.824 41.9799 41.972 43.1799 40.691Z" fill="#F56520"/>
<path d="M27.2639 40.0951C29.5379 40.6151 27.0709 34.4241 25.8069 35.0601C24.5489 35.6961 23.4349 36.8331 24.7649 37.2331C26.6799 37.8091 25.6149 39.7171 27.2639 40.0951Z" fill="#F56520"/>
<path d="M31.2199 33.95C29.7099 36.075 36.0439 36.571 36.2909 34.733C36.5369 32.902 35.0349 31.707 34.3389 33.24C33.0289 36.11 32.3109 32.406 31.2199 33.95Z" fill="#F56520"/>
<path d="M41.9319 36.515C42.4239 37.606 40.2439 37.729 40.2439 36.515C40.2439 35.3 41.4919 35.539 41.9319 36.515Z" fill="#F56520"/>
<path d="M34.1861 40.2631C34.6781 41.3541 32.4971 41.4771 32.4971 40.2631C32.4971 39.0491 33.7461 39.2871 34.1861 40.2631Z" fill="#F56520"/>
<path d="M29.682 36.0319C30.075 36.9029 28.334 37.0019 28.334 36.0319C28.334 35.0639 29.33 35.2539 29.682 36.0319Z" fill="#F56520"/>
<path d="M26.8751 32.7671C27.2671 33.6361 25.5271 33.7361 25.5271 32.7671C25.5271 31.7961 26.5241 31.9881 26.8751 32.7671Z" fill="#BA3D02"/>
<path d="M31.631 32.191C32.024 33.06 30.282 33.159 30.282 32.191C30.282 31.223 31.279 31.412 31.631 32.191Z" fill="#F56520"/>
<path d="M42.65 33.9519C43.043 34.8229 41.302 34.9229 41.302 33.9519C41.303 32.9819 42.299 33.1759 42.65 33.9519Z" fill="#F56520"/>
<path d="M33.045 37.1409C33.425 37.9859 31.74 38.0789 31.74 37.1409C31.74 36.2039 32.703 36.3909 33.045 37.1409Z" fill="#BA3D02"/>
<path d="M37.2301 37.0129C37.5331 37.6829 36.1951 37.7579 36.1951 37.0129C36.1951 36.2679 36.9611 36.4149 37.2301 37.0129Z" fill="#BA3D02"/>
<path d="M38.611 32.9971C38.914 33.6671 37.574 33.7421 37.574 32.9971C37.574 32.2511 38.342 32.3961 38.611 32.9971Z" fill="#BA3D02"/>
<path d="M21.0861 33.5131C21.3891 34.1831 20.0481 34.2591 20.0481 33.5131C20.0481 32.7691 20.8161 32.9121 21.0861 33.5131Z" fill="#BA3D02"/>
<path d="M45.0221 37.013C45.3101 37.652 44.0371 37.723 44.0371 37.013C44.0371 36.306 44.7661 36.445 45.0221 37.013Z" fill="#F56520"/>
<path d="M24.86 38.5401C25.253 39.4101 23.512 39.5101 23.512 38.5401C23.512 37.5731 24.511 37.7661 24.86 38.5401Z" fill="#F56520"/>
<path d="M19.5479 36.0319C19.9439 36.9029 18.2029 37.0019 18.2029 36.0319C18.2029 35.0639 19.1989 35.2539 19.5479 36.0319Z" fill="#F56520"/>
<path d="M14.6061 13.1039C14.6271 10.7829 14.3991 6.73294 15.8851 3.16794C16.8831 2.23794 17.5311 4.53194 17.3501 4.38294C15.9871 7.97894 16.3671 13.0139 16.3671 13.0139C16.3501 14.4579 14.5941 14.0729 14.6061 13.1039Z" fill="#FFD56B"/>
<path d="M12.2831 13.0091C12.0951 10.7391 11.6311 7.65608 12.7831 4.03707C13.5351 2.79008 14.5271 4.54607 14.3331 4.41707C13.3061 8.05207 13.7331 12.7671 13.7331 12.7671C13.8501 14.1771 12.3601 13.9541 12.2831 13.0091Z" fill="#FFD56B"/>
<path d="M10.183 11.4671C10.05 9.84809 9.88798 7.56709 10.477 4.94809C11.196 4.21909 12.308 5.38609 12.14 5.29809C11.186 7.90609 11.465 11.2631 11.465 11.2631C11.548 12.2691 10.242 12.1421 10.183 11.4671Z" fill="#FFD56B"/>
<path d="M9.62494 12.9501C9.56094 12.5941 20.5229 11.5161 20.3349 10.4481C20.1459 9.37908 9.44094 11.9061 9.26894 10.9301C9.09594 9.95208 20.0999 9.11008 19.8959 7.95208C19.6889 6.79208 9.06294 9.76708 8.89194 8.78708C8.71894 7.81208 19.6439 6.52708 19.4549 5.45808C19.2669 4.38808 8.59794 7.12508 8.53494 6.76908C8.34594 5.69908 19.0769 3.31708 20.6199 3.04608C23.3019 2.57108 24.7429 3.68008 25.6349 4.36708C26.5249 5.05508 27.4309 5.51808 28.9759 5.24808C44.0389 2.59208 54.6519 -2.71892 55.4299 1.68808C56.2059 6.09208 44.4159 4.73208 29.3539 7.38808C27.8089 7.66008 27.1159 8.40908 26.5149 9.35708C25.9149 10.3091 24.9399 11.8421 22.2589 12.3171C20.7119 12.5881 9.81294 14.0211 9.62494 12.9501Z" fill="url(#paint2_linear)"/>
<path opacity="0.3" d="M54.4541 0.742019C54.3181 -0.507981 39.9101 2.33302 40.0531 3.58102C40.1881 4.82902 54.5961 1.98902 54.4541 0.742019Z" fill="url(#paint3_radial)"/>
<path d="M10.4061 5.27308C10.3521 5.70808 10.7291 5.55808 10.9691 5.47708C12.0941 8.53108 12.1091 11.0751 12.1091 13.1141C12.1091 14.6231 13.7341 14.3251 13.7341 13.3001C13.7341 9.05208 13.3441 7.08308 12.6321 4.90108C12.1811 3.52308 10.5661 3.90408 10.4061 5.27308Z" fill="#FFE485"/>
<path d="M16.1521 13.396C16.1521 11.074 16.4211 7.913 14.9751 4.333C14.3961 2.904 12.9831 3.233 12.6731 4.309C12.6211 4.776 12.9561 4.875 13.2361 4.796C14.5611 8.406 14.3921 13.287 14.3921 13.287C14.3921 14.731 16.1521 14.364 16.1521 13.396Z" fill="#FFE485"/>
<path d="M19.25 8.56095C19.189 3.87295 17.956 2.72095 16.665 2.72095C15.584 2.72095 15.632 4.17695 16.096 4.05195C16.4 3.97095 17.675 4.11895 17.811 13.4339C18.009 26.9879 17.798 35.4949 18.113 38.6989C18.707 39.3989 19.42 39.3279 19.42 39.3279C19.133 32.4269 19.473 25.9099 19.25 8.56095Z" fill="url(#paint4_linear)"/>
<path d="M48.0679 53.259C48.8199 58.899 43.1079 60.478 38.0559 57.836C38.0569 57.836 43.7059 51.404 48.0679 53.259Z" fill="#449C00"/>
<path d="M48.0681 53.2591C42.0701 53.5331 38.0561 57.8361 38.0561 57.8361C36.7561 51.8071 45.1861 48.4061 48.0681 53.2591Z" fill="#48A600"/>
<path d="M47.885 53.2419C49.363 55.2559 54.184 54.8359 55.381 51.2939C55.381 51.2939 49.115 50.3859 47.885 53.2419Z" fill="#449C00"/>
<path d="M47.8849 53.2421C50.8539 50.6541 55.3809 51.2941 55.3809 51.2941C52.8879 47.2871 47.6229 49.0501 47.8849 53.2421Z" fill="#48A600"/>
<path d="M48.013 53.1421C46.6 54.6591 47.742 58.5111 50.807 58.9361C50.807 58.9361 50.525 53.7021 48.013 53.1421Z" fill="#51A113"/>
<path d="M48.0129 53.1419C50.5769 55.1589 50.8069 58.9359 50.8069 58.9359C53.6779 56.2849 51.3789 52.2789 48.0129 53.1419Z" fill="#56AB15"/>
<path d="M48.013 53.1421C45.68 54.0521 41.633 51.4711 42.412 48.1001C42.412 48.1001 48.408 50.3051 48.013 53.1421Z" fill="#51A113"/>
<path d="M48.0131 53.1421C46.7501 49.7041 42.4121 48.1001 42.4121 48.1001C46.6601 46.0901 50.4041 49.9411 48.0131 53.1421Z" fill="#56AB15"/>
<path d="M47.9161 53.2919C47.2021 54.4429 45.3531 54.1049 44.3091 53.5589C44.3091 53.5589 46.7331 51.9959 47.9161 53.2919Z" fill="#56AB15"/>
<path d="M47.9161 53.292C46.6331 52.156 44.3091 53.559 44.3091 53.559C45.1881 52.021 47.7171 51.79 47.9161 53.292Z" fill="#5CB817"/>
<path d="M47.916 53.2921C49.231 53.6271 50.3711 52.2081 50.7481 51.0901C50.7481 51.0901 47.871 51.5371 47.916 53.2921Z" fill="#56AB15"/>
<path d="M47.9159 53.292C48.0569 51.583 50.7479 51.09 50.7479 51.09C49.0479 50.592 47.0229 52.068 47.9159 53.292Z" fill="#5CB817"/>
</g>
<defs>
<linearGradient id="paint0_linear" x1="31.8202" y1="57.5908" x2="31.8202" y2="35.0711" gradientUnits="userSpaceOnUse">
<stop stop-color="#FFC757"/>
<stop offset="0.171" stop-color="#F8AC47"/>
<stop offset="0.7409" stop-color="#E35514"/>
<stop offset="1" stop-color="#DB3300"/>
</linearGradient>
<radialGradient id="paint1_radial" cx="0" cy="0" r="1" gradientUnits="userSpaceOnUse" gradientTransform="translate(31.5364 31.0618) scale(19.6556 10.0931)">
<stop stop-color="#E8591C"/>
<stop offset="0.2434" stop-color="#E25619"/>
<stop offset="0.5818" stop-color="#D04D12"/>
<stop offset="0.9743" stop-color="#B23F06"/>
<stop offset="1" stop-color="#B03E05"/>
</radialGradient>
<linearGradient id="paint2_linear" x1="31.4374" y1="1.13981" x2="33.0717" y2="10.4108" gradientUnits="userSpaceOnUse">
<stop stop-color="#D3D8DB"/>
<stop offset="0.358" stop-color="#CFD5D8"/>
<stop offset="0.7017" stop-color="#C4CDD1"/>
<stop offset="1" stop-color="#B3C2C6"/>
</linearGradient>
<radialGradient id="paint3_radial" cx="0" cy="0" r="1" gradientUnits="userSpaceOnUse" gradientTransform="translate(47.2501 2.14419) rotate(-11.1557) scale(7.0841 0.82573)">
<stop stop-color="white"/>
<stop offset="1" stop-color="white" stop-opacity="0"/>
</radialGradient>
<linearGradient id="paint4_linear" x1="17.6011" y1="39.3291" x2="17.6011" y2="2.72115" gradientUnits="userSpaceOnUse">
<stop offset="0.1939" stop-color="#F55E1D"/>
<stop offset="0.2889" stop-color="#F98F43"/>
<stop offset="0.391" stop-color="#FCBD67"/>
<stop offset="0.4699" stop-color="#FED97D"/>
<stop offset="0.5152" stop-color="#FFE485"/>
</linearGradient>
<clipPath id="clip0">
<rect width="64" height="64" fill="white"/>
</clipPath>
</defs>
</svg>
