<svg width="64" height="64" viewBox="0 0 64 64" fill="none" xmlns="http://www.w3.org/2000/svg">
<path d="M55.3521 57.213C40.4771 62.889 23.8121 62.889 8.93809 57.213C7.25509 47.084 5.57409 36.956 3.89209 26.826C22.0001 33.736 42.2891 33.734 60.3971 26.826C58.7161 36.956 57.0331 47.084 55.3521 57.213Z" fill="#8C6143"/>
<path d="M28.988 54.045C29.009 55.025 29.031 56.006 29.053 56.986C31.117 57.326 33.176 57.57 35.22 57.722C35.241 56.741 35.263 55.759 35.284 54.779C33.198 54.629 31.096 54.386 28.988 54.045Z" fill="#D6A57C"/>
<path d="M41.59 53.469C41.526 54.453 41.46 55.439 41.396 56.422C43.424 56.388 45.431 56.26 47.408 56.041C47.515 55.048 47.623 54.057 47.73 53.062C45.711 53.291 43.661 53.428 41.59 53.469Z" fill="#D6A57C"/>
<path d="M16.478 52.317C16.585 53.31 16.693 54.302 16.8 55.296C18.842 56.014 20.892 56.634 22.942 57.161C22.877 56.177 22.812 55.191 22.748 54.206C20.654 53.676 18.562 53.046 16.478 52.317Z" fill="#D6A57C"/>
<path d="M29.053 56.986C26.998 57.138 24.959 57.196 22.942 57.162C22.877 56.178 22.812 55.192 22.748 54.207C24.809 54.248 26.891 54.193 28.988 54.045C29.009 55.025 29.031 56.006 29.053 56.986Z" fill="#C4926E"/>
<path d="M7.95092 52.928C8.93992 53.432 9.93392 53.907 10.9329 54.361C10.7839 53.355 10.6339 52.351 10.4849 51.345C9.46492 50.885 8.45092 50.403 7.44092 49.893C7.61092 50.905 7.78092 51.918 7.95092 52.928Z" fill="#D6A57C"/>
<path d="M16.8001 55.297C14.8131 55.075 12.8551 54.762 10.9331 54.36C10.7841 53.354 10.6341 52.35 10.4851 51.344C12.4481 51.762 14.4481 52.086 16.4781 52.317C16.5851 53.311 16.6931 54.303 16.8001 55.297Z" fill="#C4926E"/>
<path d="M56.848 49.893C55.881 50.147 54.904 50.382 53.916 50.591C53.767 51.598 53.617 52.6 53.468 53.606C54.434 53.404 55.391 53.177 56.338 52.928C56.508 51.918 56.678 50.905 56.848 49.893Z" fill="#D6A57C"/>
<path d="M53.468 53.605C51.461 54.514 49.439 55.326 47.407 56.041C47.514 55.048 47.622 54.057 47.729 53.062C49.802 52.337 51.868 51.514 53.916 50.59C53.767 51.598 53.617 52.6 53.468 53.605Z" fill="#C4926E"/>
<path d="M41.396 56.422C39.335 56.951 37.274 57.383 35.22 57.723C35.241 56.742 35.263 55.76 35.284 54.78C37.382 54.439 39.486 54.003 41.59 53.469C41.525 54.453 41.46 55.438 41.396 56.422Z" fill="#C4926E"/>
<path d="M28.8259 46.687C28.8469 47.668 28.8689 48.648 28.8899 49.63C31.0639 49.972 33.2299 50.219 35.3819 50.365C35.4029 49.385 35.4259 48.402 35.4469 47.422C33.2519 47.277 31.0419 47.032 28.8259 46.687Z" fill="#D6A57C"/>
<path d="M42.0761 46.08C42.0121 47.066 41.9461 48.051 41.8821 49.035C44.0181 48.985 46.1311 48.837 48.2141 48.595C48.3211 47.602 48.4291 46.61 48.5361 45.616C46.4111 45.869 44.2551 46.025 42.0761 46.08Z" fill="#D6A57C"/>
<path d="M15.6709 44.871C15.7779 45.864 15.8859 46.857 15.9929 47.849C18.1399 48.594 20.2979 49.234 22.4549 49.775C22.3899 48.791 22.3249 47.806 22.2609 46.821C20.0599 46.273 17.8609 45.624 15.6709 44.871Z" fill="#D6A57C"/>
<path d="M28.89 49.63C26.728 49.776 24.58 49.823 22.455 49.775C22.39 48.791 22.325 47.806 22.261 46.821C24.429 46.875 26.619 46.832 28.825 46.687C28.847 47.668 28.869 48.647 28.89 49.63Z" fill="#C4926E"/>
<path d="M6.67502 45.339C7.71602 45.859 8.76202 46.355 9.81202 46.824C9.66302 45.819 9.51302 44.814 9.36402 43.81C8.29302 43.333 7.22602 42.831 6.16602 42.301C6.33502 43.313 6.50502 44.326 6.67502 45.339Z" fill="#D6A57C"/>
<path d="M15.994 47.849C13.901 47.605 11.838 47.262 9.81201 46.825C9.66301 45.82 9.51301 44.815 9.36401 43.811C11.43 44.261 13.536 44.617 15.672 44.872C15.779 45.864 15.886 46.857 15.994 47.849Z" fill="#C4926E"/>
<path d="M58.1231 42.302C57.1041 42.578 56.0751 42.829 55.0371 43.057C54.8881 44.063 54.7381 45.065 54.5891 46.071C55.6071 45.852 56.6151 45.606 57.6131 45.34C57.7831 44.326 57.9531 43.313 58.1231 42.302Z" fill="#D6A57C"/>
<path d="M54.5891 46.07C52.4791 47.014 50.3511 47.855 48.2141 48.594C48.3211 47.601 48.4291 46.609 48.5361 45.615C50.7161 44.865 52.8851 44.012 55.0371 43.055C54.8881 44.063 54.7381 45.064 54.5891 46.07Z" fill="#C4926E"/>
<path d="M41.8821 49.035C39.7141 49.578 37.5451 50.021 35.3821 50.365C35.4031 49.385 35.4261 48.402 35.4471 47.422C37.6521 47.077 39.8651 46.631 42.0761 46.08C42.0121 47.066 41.9461 48.051 41.8821 49.035Z" fill="#C4926E"/>
<path d="M28.6631 39.329C28.6851 40.308 28.7071 41.291 28.7281 42.271C31.0091 42.621 33.2841 42.865 35.5451 43.007C35.5661 42.025 35.5881 41.045 35.6091 40.065C33.3071 39.925 30.9881 39.68 28.6631 39.329Z" fill="#D6A57C"/>
<path d="M42.5629 38.694C42.4989 39.679 42.4329 40.664 42.3689 41.648C44.6119 41.584 46.8329 41.417 49.0209 41.148C49.1279 40.156 49.2359 39.162 49.3429 38.169C47.1109 38.448 44.8489 38.625 42.5629 38.694Z" fill="#D6A57C"/>
<path d="M14.865 37.426C14.972 38.419 15.08 39.411 15.188 40.404C17.441 41.172 19.705 41.833 21.969 42.389C21.904 41.404 21.839 40.418 21.775 39.434C19.466 38.87 17.161 38.203 14.865 37.426Z" fill="#D6A57C"/>
<path d="M28.7279 42.271C26.4569 42.413 24.2019 42.451 21.9689 42.388C21.9039 41.403 21.8389 40.417 21.7749 39.433C24.0499 39.502 26.3489 39.468 28.6629 39.329C28.6849 40.309 28.7069 41.291 28.7279 42.271Z" fill="#C4926E"/>
<path d="M5.40111 37.748C6.49211 38.288 7.58911 38.802 8.69111 39.29C8.54211 38.283 8.39211 37.279 8.24311 36.274C7.12111 35.782 6.00311 35.259 4.89111 34.711C5.06111 35.723 5.23111 36.735 5.40111 37.748Z" fill="#D6A57C"/>
<path d="M15.1879 40.403C12.9879 40.133 10.8199 39.761 8.69092 39.29C8.54192 38.283 8.39192 37.279 8.24292 36.274C10.4139 36.759 12.6239 37.144 14.8649 37.425C14.9719 38.419 15.0799 39.411 15.1879 40.403Z" fill="#C4926E"/>
<path d="M59.397 34.711C58.328 35.007 57.248 35.277 56.158 35.521C56.008 36.526 55.859 37.532 55.709 38.537C56.779 38.298 57.839 38.036 58.888 37.749C59.058 36.735 59.228 35.723 59.397 34.711Z" fill="#D6A57C"/>
<path d="M55.709 38.536C53.496 39.513 51.263 40.385 49.021 41.148C49.128 40.156 49.236 39.162 49.343 38.169C51.628 37.394 53.903 36.512 56.158 35.52C56.008 36.525 55.859 37.531 55.709 38.536Z" fill="#C4926E"/>
<path d="M42.3679 41.648C40.0919 42.207 37.8139 42.658 35.5449 43.007C35.5659 42.025 35.5879 41.045 35.6089 40.065C37.9229 39.713 40.2439 39.257 42.5619 38.694C42.4979 39.68 42.4329 40.664 42.3679 41.648Z" fill="#C4926E"/>
<path d="M28.5 31.972C28.521 32.952 28.543 33.935 28.565 34.914C30.954 35.269 33.338 35.514 35.706 35.65C35.727 34.67 35.749 33.687 35.77 32.707C33.36 32.571 30.933 32.328 28.5 31.972Z" fill="#D6A57C"/>
<path d="M43.049 31.308C42.985 32.291 42.919 33.278 42.855 34.263C45.206 34.183 47.533 33.995 49.828 33.702C49.935 32.708 50.043 31.717 50.15 30.723C47.813 31.026 45.442 31.222 43.049 31.308Z" fill="#D6A57C"/>
<path d="M14.0581 29.979C14.1651 30.971 14.2731 31.964 14.3811 32.957C16.7391 33.748 19.1101 34.429 21.4831 35.001C21.4191 34.017 21.3531 33.03 21.2891 32.046C18.8731 31.469 16.4601 30.78 14.0581 29.979Z" fill="#D6A57C"/>
<path d="M28.5661 34.914C26.1871 35.05 23.8231 35.079 21.4831 35.001C21.4191 34.017 21.3531 33.03 21.2891 32.046C23.6721 32.131 26.0791 32.106 28.5011 31.972C28.5221 32.952 28.5431 33.935 28.5661 34.914Z" fill="#C4926E"/>
<path d="M3.61597 27.121C3.78597 28.133 3.95597 29.144 4.12597 30.156C5.26897 30.718 6.41697 31.249 7.57097 31.753C7.42197 30.748 7.27197 29.745 7.12297 28.74C5.94797 28.229 4.77897 27.688 3.61597 27.121Z" fill="#D6A57C"/>
<path d="M14.3811 32.957C12.0751 32.662 9.80207 32.261 7.57007 31.753C7.42107 30.748 7.27107 29.745 7.12207 28.74C9.39507 29.26 11.7101 29.674 14.0581 29.979C14.1661 30.972 14.2731 31.965 14.3811 32.957Z" fill="#C4926E"/>
<path d="M60.6731 27.121C59.5531 27.437 58.4211 27.725 57.2781 27.986C57.1291 28.991 56.9791 29.996 56.8301 31.001C57.9521 30.745 59.0621 30.464 60.1631 30.156C60.3331 29.145 60.5031 28.133 60.6731 27.121Z" fill="#D6A57C"/>
<path d="M56.8299 31.001C54.5129 32.013 52.1759 32.912 49.8269 33.702C49.9339 32.708 50.0419 31.717 50.1489 30.723C52.5399 29.925 54.9199 29.012 57.2779 27.986C57.1289 28.991 56.9789 29.996 56.8299 31.001Z" fill="#C4926E"/>
<path d="M42.854 34.263C40.47 34.834 38.085 35.297 35.707 35.651C35.728 34.671 35.75 33.688 35.771 32.708C38.194 32.354 40.623 31.887 43.048 31.309C42.984 32.291 42.919 33.277 42.854 34.263Z" fill="#C4926E"/>
<path d="M22.187 60.913L20.239 31.318L22.235 31.203L24.183 60.797L22.187 60.913Z" fill="#B47D56"/>
<path d="M28.15 61.42L27.5 31.944L29.5 31.907L30.15 61.382L28.15 61.42Z" fill="#B47D56"/>
<path d="M10.5029 58.256L6.01294 28.068L7.99394 27.81L12.4839 58L10.5029 58.256Z" fill="#B47D56"/>
<path d="M16.2901 59.858L13.0581 30.026L15.0481 29.838L18.2801 59.67L16.2901 59.858Z" fill="#B47D56"/>
<path d="M47.999 59.858L46.009 59.67L49.24 29.838L51.23 30.026L47.999 59.858Z" fill="#B47D56"/>
<path d="M53.7849 58.256L51.8049 58L56.2949 27.81L58.2749 28.068L53.7849 58.256Z" fill="#B47D56"/>
<path d="M36.1389 61.42L34.1389 61.382L34.7889 31.907L36.7889 31.944L36.1389 61.42Z" fill="#B47D56"/>
<path d="M42.102 60.913L40.105 60.797L42.054 31.203L44.05 31.318L42.102 60.913Z" fill="#B47D56"/>
<path d="M28.6629 39.329C26.3389 38.977 24.0079 38.521 21.6779 37.956C21.6139 36.97 21.5479 35.986 21.4839 35.001C23.8559 35.572 26.2309 36.033 28.5989 36.387C28.6199 37.366 28.6409 38.348 28.6629 39.329Z" fill="#D6A57C"/>
<path d="M14.865 37.426C12.57 36.649 10.285 35.764 8.01904 34.769C7.86904 33.764 7.72004 32.759 7.57104 31.753C9.87804 32.763 12.205 33.661 14.543 34.447C14.65 35.439 14.757 36.432 14.865 37.426Z" fill="#D6A57C"/>
<path d="M4.76291 33.952C5.83791 34.25 6.92291 34.52 8.01891 34.768C7.86891 33.763 7.71991 32.758 7.57091 31.752C6.45491 31.5 5.34791 31.221 4.25391 30.915C4.42291 31.928 4.59291 32.94 4.76291 33.952Z" fill="#C4926E"/>
<path d="M14.542 34.447C14.649 35.439 14.757 36.431 14.864 37.426C17.106 37.706 19.38 37.883 21.677 37.956C21.613 36.97 21.547 35.986 21.483 35.001C19.143 34.922 16.827 34.736 14.542 34.447Z" fill="#C4926E"/>
<path d="M56.1579 35.521C53.9759 36.011 51.7569 36.398 49.5039 36.68C49.6109 35.688 49.7189 34.696 49.8269 33.702C52.1209 33.409 54.3849 33.01 56.6059 32.507C56.4569 33.513 56.3069 34.518 56.1579 35.521Z" fill="#D6A57C"/>
<path d="M60.035 30.916C58.898 31.474 57.754 32.005 56.606 32.507C56.457 33.513 56.306 34.518 56.158 35.521C57.285 35.026 58.408 34.503 59.525 33.953C59.695 32.94 59.865 31.928 60.035 30.916Z" fill="#C4926E"/>
<path d="M42.5631 38.694C40.2771 38.765 37.9671 38.732 35.6421 38.593C35.6641 37.613 35.6861 36.63 35.7071 35.65C38.0751 35.787 40.4281 35.816 42.7571 35.739C42.6921 36.725 42.6271 37.709 42.5631 38.694Z" fill="#D6A57C"/>
<path d="M28.5979 36.387C28.6189 37.366 28.6409 38.348 28.6619 39.329C30.9749 39.188 33.3059 38.945 35.6409 38.594C35.6629 37.614 35.6849 36.631 35.7059 35.651C33.3279 36.004 30.9559 36.248 28.5979 36.387Z" fill="#C4926E"/>
<path d="M42.757 35.739C42.693 36.724 42.627 37.709 42.563 38.694C44.881 38.13 47.199 37.46 49.504 36.679C49.611 35.687 49.719 34.695 49.827 33.701C47.479 34.491 45.119 35.17 42.757 35.739Z" fill="#C4926E"/>
<path d="M28.826 46.687C26.609 46.341 24.387 45.893 22.164 45.344C22.1 44.359 22.034 43.373 21.97 42.389C24.235 42.945 26.501 43.397 28.761 43.743C28.782 44.725 28.804 45.704 28.826 46.687Z" fill="#D6A57C"/>
<path d="M15.6709 44.871C13.4819 44.118 11.3019 43.263 9.13892 42.303C8.98992 41.298 8.83992 40.294 8.69092 39.29C10.8949 40.265 13.1169 41.129 15.3489 41.894C15.4569 42.887 15.5639 43.878 15.6709 44.871Z" fill="#D6A57C"/>
<path d="M6.03905 41.543C7.06205 41.821 8.09605 42.074 9.14005 42.303C8.99005 41.298 8.84005 40.294 8.69105 39.29C7.62705 39.053 6.57205 38.792 5.52905 38.506C5.69905 39.519 5.86905 40.531 6.03905 41.543Z" fill="#C4926E"/>
<path d="M15.3491 41.895C15.4561 42.887 15.5641 43.878 15.6711 44.872C17.8071 45.129 19.9741 45.285 22.1631 45.345C22.0991 44.36 22.0331 43.374 21.9691 42.39C19.7371 42.324 17.5271 42.16 15.3491 41.895Z" fill="#C4926E"/>
<path d="M55.037 43.057C52.96 43.511 50.844 43.869 48.697 44.127C48.805 43.133 48.913 42.141 49.02 41.148C51.208 40.88 53.367 40.51 55.485 40.044C55.336 41.048 55.187 42.053 55.037 43.057Z" fill="#D6A57C"/>
<path d="M58.7601 38.506C57.6741 39.047 56.5821 39.558 55.4861 40.044C55.3371 41.048 55.1871 42.053 55.0381 43.057C56.1141 42.578 57.1851 42.075 58.2511 41.543C58.4201 40.531 58.5901 39.519 58.7601 38.506Z" fill="#C4926E"/>
<path d="M42.076 46.08C39.897 46.138 37.696 46.095 35.479 45.95C35.5 44.97 35.522 43.988 35.544 43.008C37.804 43.15 40.048 43.19 42.27 43.127C42.206 44.112 42.142 45.096 42.076 46.08Z" fill="#D6A57C"/>
<path d="M28.76 43.743C28.781 44.724 28.804 45.704 28.825 46.686C31.03 46.54 33.251 46.296 35.479 45.95C35.5 44.97 35.522 43.988 35.544 43.008C33.273 43.355 31.009 43.602 28.76 43.743Z" fill="#C4926E"/>
<path d="M42.2709 43.127C42.2069 44.112 42.1419 45.096 42.0769 46.08C44.2879 45.533 46.4989 44.882 48.6979 44.127C48.8059 43.133 48.9139 42.141 49.0209 41.148C46.7769 41.914 44.5249 42.572 42.2709 43.127Z" fill="#C4926E"/>
<path d="M28.9881 54.045C26.8801 53.702 24.7641 53.267 22.6501 52.731C22.5861 51.746 22.5201 50.761 22.4561 49.775C24.6131 50.316 26.7711 50.758 28.9241 51.101C28.9451 52.082 28.9661 53.063 28.9881 54.045Z" fill="#D6A57C"/>
<path d="M16.478 52.317C14.394 51.589 12.319 50.763 10.26 49.838C10.111 48.833 9.96101 47.829 9.81201 46.824C11.913 47.763 14.029 48.601 16.156 49.339C16.263 50.332 16.371 51.325 16.478 52.317Z" fill="#D6A57C"/>
<path d="M7.31298 49.134C8.28598 49.392 9.26798 49.627 10.26 49.838C10.111 48.833 9.96098 47.829 9.81198 46.824C8.79898 46.605 7.79598 46.363 6.80298 46.096C6.97298 47.108 7.14298 48.122 7.31298 49.134Z" fill="#C4926E"/>
<path d="M16.156 49.339C16.263 50.332 16.371 51.325 16.478 52.318C18.508 52.55 20.568 52.687 22.65 52.731C22.586 51.746 22.52 50.761 22.456 49.775C20.331 49.725 18.228 49.58 16.156 49.339Z" fill="#C4926E"/>
<path d="M53.9161 50.591C51.9421 51.012 49.9321 51.34 47.8911 51.573C47.9991 50.58 48.1071 49.589 48.2141 48.594C50.2971 48.35 52.3501 48.011 54.3641 47.577C54.2151 48.583 54.0651 49.588 53.9161 50.591Z" fill="#D6A57C"/>
<path d="M57.485 46.097C56.45 46.616 55.409 47.111 54.364 47.578C54.215 48.583 54.065 49.588 53.916 50.591C54.94 50.13 55.961 49.644 56.976 49.134C57.146 48.122 57.314 47.108 57.485 46.097Z" fill="#C4926E"/>
<path d="M41.5899 53.469C39.5189 53.51 37.4259 53.457 35.3169 53.308C35.3389 52.328 35.3609 51.346 35.3819 50.366C37.5329 50.512 39.6699 50.561 41.7839 50.514C41.7199 51.499 41.6549 52.483 41.5899 53.469Z" fill="#D6A57C"/>
<path d="M28.9231 51.101C28.9441 52.082 28.9661 53.064 28.9871 54.045C31.0851 53.895 33.1971 53.649 35.3161 53.308C35.3381 52.328 35.3601 51.346 35.3811 50.366C33.2201 50.709 31.0641 50.954 28.9231 51.101Z" fill="#C4926E"/>
<path d="M41.7841 50.514C41.7201 51.499 41.6551 52.484 41.5901 53.469C43.6941 52.935 45.7971 52.303 47.8911 51.573C47.9991 50.58 48.1071 49.589 48.2141 48.594C46.0771 49.334 43.9321 49.975 41.7841 50.514Z" fill="#C4926E"/>
<path d="M29.1499 61.401C27.1509 61.065 25.1429 60.638 23.1359 60.117C23.0719 59.133 23.0059 58.147 22.9419 57.162C24.9919 57.687 27.0429 58.12 29.0859 58.459C29.1069 59.439 29.1279 60.421 29.1499 61.401Z" fill="#D6A57C"/>
<path d="M17.2851 59.765C15.3071 59.061 13.3371 58.265 11.3821 57.374C11.2331 56.368 11.0831 55.364 10.9341 54.36C12.9301 55.264 14.9431 56.072 16.9631 56.785C17.0701 57.778 17.1771 58.771 17.2851 59.765Z" fill="#D6A57C"/>
<path d="M8.5881 56.724C9.5091 56.963 10.4411 57.179 11.3811 57.374C11.2321 56.368 11.0821 55.364 10.9331 54.36C9.9721 54.158 9.0201 53.933 8.0791 53.688C8.2491 54.7 8.4181 55.713 8.5881 56.724Z" fill="#C4926E"/>
<path d="M16.9619 56.785C17.0689 57.778 17.1769 58.771 17.2839 59.764C19.2079 59.97 21.1609 60.088 23.1359 60.117C23.0719 59.133 23.0059 58.147 22.9419 57.162C20.9239 57.129 18.9279 57.002 16.9619 56.785Z" fill="#C4926E"/>
<path d="M52.795 58.128C50.926 58.513 49.02 58.811 47.085 59.02C47.192 58.028 47.3 57.034 47.407 56.041C49.385 55.822 51.332 55.513 53.244 55.112C53.095 56.117 52.945 57.122 52.795 58.128Z" fill="#D6A57C"/>
<path d="M56.2099 53.688C55.2259 54.187 54.2359 54.663 53.2439 55.112C53.0949 56.117 52.9449 57.122 52.7949 58.128C53.7679 57.684 54.7359 57.216 55.6999 56.724C55.8699 55.713 56.0399 54.7 56.2099 53.688Z" fill="#C4926E"/>
<path d="M41.104 60.855C39.14 60.882 37.155 60.818 35.155 60.665C35.176 59.685 35.199 58.703 35.22 57.723C37.263 57.873 39.291 57.934 41.299 57.902C41.233 58.885 41.169 59.871 41.104 60.855Z" fill="#D6A57C"/>
<path d="M29.085 58.459C29.106 59.439 29.128 60.421 29.149 61.401C31.138 61.248 33.143 61.002 35.153 60.665C35.174 59.685 35.197 58.703 35.218 57.723C33.165 58.062 31.118 58.307 29.085 58.459Z" fill="#C4926E"/>
<path d="M41.299 57.901C41.234 58.884 41.169 59.871 41.104 60.855C43.1 60.335 45.096 59.725 47.085 59.019C47.192 58.027 47.3 57.033 47.407 56.04C45.377 56.756 43.337 57.376 41.299 57.901Z" fill="#C4926E"/>
<path d="M55.545 57.651C40.562 63.449 23.727 63.449 8.74401 57.651C8.65901 57.144 8.57401 56.639 8.48901 56.132C23.635 61.993 40.654 61.993 55.8 56.132C55.715 56.64 55.63 57.145 55.545 57.651Z" fill="#E8B387"/>
<path d="M32.1451 13.156C16.9081 12.988 -1.37491 15.624 2.53609 23.786C4.54909 27.988 1.33909 27.314 4.43109 29.022C22.9981 39.28 61.4941 32.957 61.4921 26.276C61.4921 23.725 61.5321 23.415 61.9751 20.996C62.6051 17.551 51.6701 13.233 32.1451 13.156Z" fill="url(#paint0_linear)"/>
<path d="M32.1439 27.115C47.0761 27.115 59.1809 24.1735 59.1809 20.545C59.1809 16.9165 47.0761 13.975 32.1439 13.975C17.2118 13.975 5.10693 16.9165 5.10693 20.545C5.10693 24.1735 17.2118 27.115 32.1439 27.115Z" fill="url(#paint1_linear)"/>
<path d="M46.8359 14.16C46.5189 14.113 46.6899 15.723 46.8359 16.157C47.2029 16.308 49.0659 16.715 49.3009 16.612C49.2849 16.142 49.7369 14.83 50.2579 14.748C50.2579 14.748 48.3519 14.072 46.8359 14.16Z" fill="#8C6143"/>
<path d="M15.7541 25.764C15.7541 25.764 15.4511 27.146 15.9931 29.024C16.3601 29.174 19.2071 29.683 19.4411 29.58C19.4251 29.111 20.1141 26.575 20.6351 26.492C20.6361 26.491 18.1501 25.854 15.7541 25.764Z" fill="#8C6143"/>
<path d="M3.79993 21.045C3.79993 21.045 3.01093 21.843 3.47993 23.644C3.72993 24.075 4.80493 24.848 5.03993 24.746C5.10693 23.719 6.17593 22.762 6.68593 22.762C6.68493 22.761 5.47593 21.633 3.79993 21.045Z" fill="#8C6143"/>
<path d="M59.274 17.72C58.957 17.672 58.3 18.933 58.144 20.195C58.328 20.773 58.778 21.385 59.012 21.283C59.518 20.466 60.878 19.358 61.557 19.5C61.558 19.499 60.719 18.091 59.274 17.72Z" fill="#8C6143"/>
<path d="M57.8171 19.181C58.1111 9.61801 49.2531 7.94301 49.4491 14.629C49.4701 15.342 47.0731 15.895 47.0981 14.457C47.2941 3.64101 61.7821 7.22701 60.6561 19.181C60.5631 20.17 57.7931 20.009 57.8171 19.181Z" fill="#B47D56"/>
<path d="M57.408 18.685C59.018 17.866 59.136 21.736 58.375 20.413C57.892 19.571 56.997 18.893 57.408 18.685Z" fill="#C4926E"/>
<path d="M60.845 18.87C58.138 18.053 57.82 21.87 59.098 20.545C59.91 19.703 61.535 19.078 60.845 18.87Z" fill="#D6A57C"/>
<path d="M46.907 14.355C48.14 13.725 48.357 16.893 47.774 15.878C47.403 15.234 46.593 14.515 46.907 14.355Z" fill="#C4926E"/>
<path d="M49.5409 14.496C47.4669 13.871 47.1029 17.035 48.0829 16.02C48.7059 15.376 50.0699 14.657 49.5409 14.496Z" fill="#D6A57C"/>
<path d="M16.5381 26.784C16.8991 15.111 5.6931 12.398 6.2121 22.163C6.2491 22.877 3.4431 23.153 3.4811 21.717C3.8181 8.52302 21.4401 13.241 19.3741 26.924C19.2251 27.906 16.5131 27.613 16.5381 26.784Z" fill="#B47D56"/>
<path d="M15.5161 25.56C17.8171 24.537 17.8871 30.293 16.9331 28.401C16.3261 27.199 14.9281 25.822 15.5161 25.56Z" fill="#C4926E"/>
<path d="M20.2771 26.055C16.5801 24.733 15.5981 30.439 17.4781 28.686C18.6731 27.574 21.2201 26.393 20.2771 26.055Z" fill="#D6A57C"/>
<path d="M3.08996 21.321C4.85296 20.536 4.90596 24.948 4.17596 23.499C3.71196 22.578 2.63996 21.521 3.08996 21.321Z" fill="#C4926E"/>
<path d="M6.73904 21.701C3.90604 20.686 3.15304 25.06 4.59404 23.719C5.51104 22.864 7.46204 21.96 6.73904 21.701Z" fill="#D6A57C"/>
<path d="M19.384 33.056C19.384 33.056 20.179 33.824 20.832 33.191C22.401 31.67 20.048 28.787 17.417 28.787C10.824 28.787 12.584 34.945 15.437 31.913C14.829 32.911 14.311 33.735 14.301 33.751L14.768 34.389C14.841 34.274 16.371 31.838 17.271 30.247C18.438 33.565 20.602 36.156 20.7 36.273L21.099 35.54C21.085 35.522 20.268 34.542 19.384 33.056ZM20.418 32.308C19.82 33.035 18.587 30.811 18.125 29.888C18.878 29.888 21.069 31.517 20.418 32.308ZM13.75 31.715C13.324 31.087 15.411 29.921 16.428 29.921C16.005 30.338 14.069 32.185 13.75 31.715Z" fill="#CFD8DD"/>
<path d="M5.80303 26.885C5.80303 26.885 6.26803 27.423 6.65003 26.98C7.56903 25.916 6.19003 23.899 4.65303 23.899C0.795032 23.899 1.82403 28.208 3.49403 26.086C3.13803 26.784 2.83403 27.361 2.83003 27.372L3.10203 27.819C3.14403 27.737 4.04003 26.034 4.56703 24.919C5.25003 27.241 6.51503 29.055 6.57303 29.136L6.80603 28.625C6.79703 28.611 6.32003 27.925 5.80303 26.885ZM6.40903 26.362C6.05903 26.871 5.33603 25.315 5.06603 24.668C5.50703 24.668 6.78803 25.808 6.40903 26.362ZM2.50603 25.946C2.25603 25.509 3.47803 24.691 4.07303 24.691C3.82603 24.983 2.69303 26.276 2.50603 25.946Z" fill="#CFD8DD"/>
<defs>
<linearGradient id="paint0_linear" x1="2.00009" y1="23.7861" x2="62.0001" y2="23.7861" gradientUnits="userSpaceOnUse">
<stop offset="0.25" stop-color="#E6EBED"/>
<stop offset="0.7032" stop-color="#E4E9EC"/>
<stop offset="0.8662" stop-color="#DDE4E7"/>
<stop offset="0.9822" stop-color="#D2DADF"/>
<stop offset="1" stop-color="#CFD8DD"/>
</linearGradient>
<linearGradient id="paint1_linear" x1="32.1444" y1="31.9424" x2="32.1444" y2="14.9438" gradientUnits="userSpaceOnUse">
<stop stop-color="#4E5E67"/>
<stop offset="0.0407" stop-color="#5B6A72"/>
<stop offset="0.1948" stop-color="#859198"/>
<stop offset="0.3517" stop-color="#A8B1B7"/>
<stop offset="0.5098" stop-color="#C3CBD0"/>
<stop offset="0.6694" stop-color="#D7DDE1"/>
<stop offset="0.8315" stop-color="#E2E7EC"/>
<stop offset="1" stop-color="#E6EBEF"/>
</linearGradient>
</defs>
</svg>
