<svg width="64" height="64" viewBox="0 0 64 64" fill="none" xmlns="http://www.w3.org/2000/svg">
<path d="M49.874 11.685C49.874 11.685 43.998 3.925 34.705 7.271C33.644 7.653 33.363 8.84 34.32 8.538C36.408 7.884 42.254 8.271 43.391 13.122C43.392 13.123 46.676 14.425 49.874 11.685Z" fill="url(#paint0_linear)"/>
<path d="M45.348 7.988C42.741 6.594 39.106 5.687 34.705 7.271C33.644 7.653 33.363 8.84 34.32 8.538C35.943 8.027 39.836 8.15 42.024 10.51C41.186 6.966 48.246 9.534 45.348 7.988Z" fill="url(#paint1_radial)"/>
<path d="M55.234 27.309C46.667 27.244 50.412 24.278 49.414 22.301C48.089 18.742 53.374 18.842 54.861 18.484C55.803 20.461 58.076 22.617 55.234 27.309Z" fill="url(#paint2_linear)"/>
<path d="M55.7351 27.167C56.0501 28.052 51.4761 34.484 46.9371 35.52C46.9371 35.52 43.1791 33.09 43.9981 32.412C46.8651 30.03 47.4801 26.295 50.7231 25.618C51.4891 25.403 55.4221 26.282 55.7351 27.167Z" fill="url(#paint3_linear)"/>
<path d="M43.392 13.1231C43.392 13.1231 47.102 12.7011 49.874 11.6851C52.748 11.8891 54.77 15.2161 55.227 18.6981C55.452 20.4121 50.507 17.3681 49.414 22.3011C46.039 22.5131 43.848 18.8291 42.393 17.5441C37.461 14.1571 43.392 13.1231 43.392 13.1231Z" fill="url(#paint4_radial)"/>
<path d="M37.7441 12.864C37.8501 11.894 40.0861 13.093 40.0861 13.093C40.4771 12.104 43.3921 13.123 43.3921 13.123C43.8361 15.017 40.5261 15.017 42.3931 17.544C41.6871 16.921 37.8511 14.896 35.9421 14.051C35.2121 13.726 35.5241 13.189 35.5751 13.057C35.9341 12.132 37.7441 12.864 37.7441 12.864Z" fill="url(#paint5_radial)"/>
<path d="M10.926 14.036C10.926 14.036 13.763 4.51095 23.555 4.00195C24.672 3.94395 25.337 4.93895 24.342 5.02895C22.175 5.23395 16.864 7.88195 17.453 12.842C17.454 12.842 14.836 15.336 10.926 14.036Z" fill="url(#paint6_linear)"/>
<path d="M13.885 8.82395C15.841 6.50695 18.918 4.24495 23.556 4.00195C24.673 3.94395 25.338 4.93895 24.343 5.02895C22.658 5.18895 19.073 6.82295 17.838 9.87395C17.415 6.24995 11.713 11.396 13.885 8.82395Z" fill="url(#paint7_radial)"/>
<path d="M11.2411 30.6779C19.1961 27.2719 14.7021 25.9699 14.9611 23.7409C14.9861 19.9079 10.0971 22.0649 8.59008 22.3129C8.38708 24.5209 7.00008 27.4169 11.2411 30.6779Z" fill="url(#paint8_linear)"/>
<path d="M10.7271 30.743C10.7331 31.689 17.1791 35.891 21.7581 35.087C21.7581 35.087 24.4301 31.358 23.4411 31.044C19.9591 29.945 18.1181 26.705 14.8701 27.34C14.0821 27.439 10.7181 29.794 10.7271 30.743Z" fill="url(#paint9_linear)"/>
<path d="M17.4539 12.842C17.4539 12.842 13.8539 13.896 10.9269 14.036C8.31992 15.347 7.56692 19.235 8.32492 22.655C8.69792 24.34 12.2669 19.573 14.9619 23.741C18.1759 22.621 18.9629 18.333 19.8849 16.57C23.3269 11.489 17.4539 12.842 17.4539 12.842Z" fill="url(#paint10_radial)"/>
<path d="M22.6231 10.3979C22.1971 9.53295 20.5211 11.5229 20.5211 11.5229C19.8231 10.7539 17.4541 12.8409 17.4541 12.8409C17.6801 14.7769 20.7651 13.4839 19.8851 16.5689C20.3291 15.7129 23.2161 12.3289 24.7051 10.7959C25.2751 10.2109 24.8021 9.83195 24.7101 9.72695C24.0591 9.00795 22.6231 10.3979 22.6231 10.3979Z" fill="url(#paint11_radial)"/>
<path d="M6.31097 41.812C3.29197 43.432 2.00397 44.958 2.00397 44.958C2.00397 44.958 1.71697 41.903 5.88097 40.446C6.15797 40.349 6.57597 41.67 6.31097 41.812Z" fill="url(#paint12_linear)"/>
<path d="M6.97488 50.623C5.17688 53.175 4.22788 56.803 4.22788 56.803C4.22788 56.803 3.52788 53.262 6.14988 49.601C6.34388 49.331 7.16788 50.351 6.97488 50.623Z" fill="url(#paint13_linear)"/>
<path d="M14.6659 57.071C15.5859 58.208 18.6529 59.967 18.6529 59.967C18.6529 59.967 15.0469 60.434 13.6709 57.802C13.5109 57.496 14.4579 56.817 14.6659 57.071Z" fill="url(#paint14_linear)"/>
<path d="M5.51408 32.64C2.86708 28.993 4.20708 24.697 4.20708 24.697C4.20708 24.697 4.50908 28.092 6.55308 31.595C6.75208 31.935 5.73908 32.952 5.51408 32.64Z" fill="url(#paint15_linear)"/>
<path d="M11.9001 43.317C10.5391 43.995 7.37106 41.791 5.06106 42.905C4.68706 43.087 4.12506 41.239 4.47606 40.987C6.61006 39.437 10.9461 40.288 12.1931 41.625C12.4501 41.9 12.2131 43.161 11.9001 43.317Z" fill="url(#paint16_linear)"/>
<path d="M12.3969 47.7C10.2689 48.313 8.30294 49.122 6.96294 50.946C6.68794 51.322 5.60894 49.942 5.81794 49.507C7.00194 47.025 10.8089 45.019 12.1919 45.839C12.5239 46.038 12.7529 47.599 12.3969 47.7Z" fill="url(#paint17_linear)"/>
<path d="M14.9041 51.901C13.7961 53.399 15.1481 55.895 14.9041 57.176C14.8091 57.676 13.8831 58.348 13.5051 58.182C11.9821 57.506 10.7491 50.049 14.5191 49.77C14.8861 49.745 15.1551 51.563 14.9041 51.901Z" fill="url(#paint18_linear)"/>
<path d="M12.397 39.579C10.166 39.843 6.57899 36.102 5.26599 32.729C5.07699 32.239 6.30699 30.91 6.57599 31.334C8.58999 34.51 11.148 36.429 12.69 37.887C12.962 38.146 12.733 39.542 12.397 39.579Z" fill="url(#paint19_linear)"/>
<path d="M17.997 45.23C17.997 45.23 12.525 45.37 11.629 43.629C11.385 43.154 11.551 41.453 11.989 41.402C13.437 41.24 17.433 42.266 17.433 42.266L17.997 45.23Z" fill="url(#paint20_linear)"/>
<path d="M21.8819 48.192C21.8819 48.192 16.1509 49.294 12.1929 48.192C11.6609 48.047 11.4559 45.659 11.9639 45.402C13.3699 44.692 16.6549 46.524 19.4429 45.431C20.2209 45.128 21.8819 48.192 21.8819 48.192Z" fill="url(#paint21_linear)"/>
<path d="M25.1581 50.5121C25.1581 50.5121 19.5801 54.3591 14.6991 52.3941C14.1801 52.1851 13.9321 49.5111 14.4711 49.6011C17.0611 50.0391 22.1981 48.6281 22.1981 48.6281L25.1581 50.5121Z" fill="url(#paint22_linear)"/>
<path d="M17.9971 41.188C17.9971 41.188 14.0301 40.854 11.9011 40.141C11.3481 39.955 11.7181 37.162 12.2831 37.247C14.1821 37.543 17.4331 38.223 17.4331 38.223L17.9971 41.188Z" fill="url(#paint23_linear)"/>
<path d="M57.689 41.812C60.709 43.432 61.996 44.958 61.996 44.958C61.996 44.958 62.286 41.907 58.119 40.446C57.844 40.349 57.426 41.67 57.689 41.812Z" fill="url(#paint24_linear)"/>
<path d="M57.0259 50.623C58.8239 53.175 59.7729 56.803 59.7729 56.803C59.7729 56.803 60.4719 53.262 57.8509 49.601C57.6569 49.331 56.8319 50.351 57.0259 50.623Z" fill="url(#paint25_linear)"/>
<path d="M49.3359 57.071C48.4139 58.208 45.3479 59.967 45.3479 59.967C45.3479 59.967 48.9549 60.434 50.3299 57.802C50.4899 57.496 49.5429 56.817 49.3359 57.071Z" fill="url(#paint26_linear)"/>
<path d="M58.486 32.64C61.134 28.993 59.794 24.697 59.794 24.697C59.794 24.697 59.49 28.092 57.448 31.595C57.248 31.935 58.264 32.952 58.486 32.64Z" fill="url(#paint27_linear)"/>
<path d="M52.1009 43.317C53.4619 43.995 56.6299 41.791 58.9399 42.905C59.3149 43.087 59.8759 41.239 59.5259 40.987C57.3909 39.437 53.0549 40.288 51.8079 41.625C51.5509 41.9 51.7869 43.161 52.1009 43.317Z" fill="url(#paint28_linear)"/>
<path d="M51.6039 47.7C53.7299 48.313 55.6969 49.122 57.0369 50.946C57.3099 51.322 58.3919 49.942 58.1819 49.507C56.9979 47.025 53.1919 45.019 51.8079 45.839C51.4769 46.038 51.2479 47.599 51.6039 47.7Z" fill="url(#paint29_linear)"/>
<path d="M49.098 51.901C50.203 53.399 48.854 55.895 49.098 57.176C49.194 57.676 50.118 58.348 50.496 58.182C52.017 57.506 53.252 50.049 49.482 49.77C49.115 49.745 48.846 51.563 49.098 51.901Z" fill="url(#paint30_linear)"/>
<path d="M51.604 39.579C53.834 39.843 57.421 36.102 58.734 32.729C58.925 32.239 57.695 30.91 57.423 31.334C55.409 34.51 52.851 36.429 51.31 37.887C51.039 38.146 51.268 39.542 51.604 39.579Z" fill="url(#paint31_linear)"/>
<path d="M46.0039 45.23C46.0039 45.23 51.4769 45.37 52.3729 43.629C52.6159 43.154 52.4509 41.453 52.0119 41.402C50.5649 41.24 46.5689 42.266 46.5689 42.266L46.0039 45.23Z" fill="url(#paint32_linear)"/>
<path d="M42.1189 48.192C42.1189 48.192 47.8489 49.294 51.8069 48.192C52.3389 48.047 52.5429 45.659 52.0359 45.402C50.6299 44.692 47.3469 46.524 44.5559 45.431C43.7789 45.128 42.1189 48.192 42.1189 48.192Z" fill="url(#paint33_linear)"/>
<path d="M38.845 50.5121C38.845 50.5121 44.422 54.3591 49.301 52.3941C49.822 52.1851 50.071 49.5111 49.53 49.6011C46.94 50.0391 41.803 48.6281 41.803 48.6281L38.845 50.5121Z" fill="url(#paint34_linear)"/>
<path d="M46.0039 41.188C46.0039 41.188 49.9709 40.854 52.1009 40.141C52.6529 39.955 52.2839 37.162 51.7169 37.247C49.8209 37.543 46.5689 38.223 46.5689 38.223L46.0039 41.188Z" fill="url(#paint35_linear)"/>
<path d="M26.2881 24.205L24.9121 25.393C26.0141 26.556 26.0921 27.93 26.0921 27.93L27.7451 27.456C27.7451 27.456 27.4371 26.02 26.2881 24.205Z" fill="#1A1626"/>
<path d="M25.7891 26.052C26.7331 25.8 26.8821 24.866 26.6251 24.244C26.4381 23.775 24.0951 24.407 24.1641 24.906C24.2651 25.629 24.9251 26.286 25.7891 26.052Z" fill="#1A1626"/>
<path d="M25.7281 25.821C26.4081 25.638 26.8161 24.965 26.6451 24.318C26.4931 23.755 25.7811 23.285 25.1031 23.47C24.4211 23.653 24.0611 24.518 24.1851 24.978C24.3561 25.627 25.0461 26.006 25.7281 25.821Z" fill="#667980"/>
<path d="M25.7871 25.56C25.2771 25.7 24.7541 25.389 24.6161 24.871C24.4791 24.358 24.7771 23.828 25.2871 23.689C25.7931 23.552 26.3181 23.862 26.4541 24.377C26.5921 24.894 26.2931 25.422 25.7871 25.56Z" fill="#1A1626"/>
<path d="M25.7309 25.07C25.6409 24.736 26.1469 24.598 26.2359 24.932C26.3279 25.278 25.8229 25.417 25.7309 25.07Z" fill="white"/>
<path d="M37.7089 24.205L39.0859 25.393C37.9859 26.556 37.9059 27.93 37.9059 27.93L36.2529 27.456C36.2529 27.456 36.5609 26.02 37.7089 24.205Z" fill="#1A1626"/>
<path d="M38.209 26.052C37.265 25.8 37.115 24.866 37.373 24.244C37.561 23.775 39.903 24.407 39.834 24.906C39.732 25.629 39.072 26.286 38.209 26.052Z" fill="#1A1626"/>
<path d="M38.27 25.821C37.591 25.638 37.182 24.965 37.354 24.318C37.504 23.755 38.218 23.285 38.897 23.47C39.578 23.653 39.938 24.518 39.814 24.978C39.643 25.627 38.952 26.006 38.27 25.821Z" fill="#667980"/>
<path d="M38.2109 25.56C38.7209 25.7 39.2439 25.389 39.3829 24.871C39.5199 24.358 39.2209 23.828 38.7109 23.689C38.2039 23.552 37.6799 23.862 37.5439 24.377C37.4059 24.894 37.7049 25.422 38.2109 25.56Z" fill="#1A1626"/>
<path d="M38.2659 25.07C38.3579 24.736 37.8519 24.598 37.7619 24.932C37.6699 25.278 38.1739 25.417 38.2659 25.07Z" fill="white"/>
<path d="M49.3179 40.5559C49.3179 40.5559 49.7909 39.0739 49.5529 37.6299C49.4069 36.7599 48.9129 36.0989 48.9129 36.0989C48.9129 36.0989 49.2139 34.0169 48.4419 33.0109C47.6019 31.9199 46.2039 32.0519 46.2039 32.0519C46.2039 32.0519 46.0629 30.8109 45.3489 30.1769C44.3999 29.3309 43.1369 29.7479 43.1369 29.7479C43.1369 29.7479 42.5909 28.5469 41.8739 28.1009C41.2369 27.7089 39.9629 28.0419 39.9629 28.0419C39.9629 28.0419 39.4209 27.0149 38.8659 26.7129C38.0819 26.2819 36.7759 26.8379 36.7759 26.8379C36.7759 26.8379 36.4159 25.9209 35.6019 25.8539C34.8169 25.7919 34.0609 26.3989 34.0609 26.3989C34.0609 26.3989 33.6859 25.4659 31.9999 25.4659C30.3159 25.4659 29.9369 26.3979 29.9369 26.3979C29.9369 26.3979 29.1799 25.7919 28.3939 25.8529C27.5809 25.9199 27.2199 26.8369 27.2199 26.8369C27.2199 26.8369 25.9179 26.2809 25.1319 26.7119C24.5779 27.0139 24.0349 28.0409 24.0349 28.0409C24.0349 28.0409 22.7609 27.7079 22.1249 28.0999C21.4059 28.5459 20.8619 29.7469 20.8619 29.7469C20.8619 29.7469 19.5999 29.3299 18.6499 30.1759C17.9359 30.8099 17.7939 32.0509 17.7939 32.0509C17.7939 32.0509 16.3969 31.9199 15.5559 33.0099C14.7849 34.0159 15.0849 36.0979 15.0849 36.0979C15.0849 36.0979 14.5909 36.7589 14.4449 37.6289C14.2069 39.0719 14.6799 40.5549 14.6799 40.5549C14.6799 40.5549 13.7889 41.9249 13.9559 42.5899C14.2689 43.8599 16.2219 43.3969 19.9029 48.1689C20.5399 48.9949 22.7239 50.0369 23.5519 50.6349C24.3929 51.2409 24.9079 51.0759 25.5629 52.9919C25.8809 53.9259 29.4589 53.8159 29.4589 53.8159C29.4589 53.8159 30.4719 54.4129 31.9969 54.4129C33.5199 54.4129 34.5339 53.8159 34.5339 53.8159C34.5339 53.8159 38.1129 53.9249 38.4309 52.9919C39.0839 51.0759 39.5999 51.2409 40.4419 50.6349C41.2699 50.0369 43.4549 48.9949 44.0909 48.1689C47.7719 43.3969 49.7249 43.8589 50.0389 42.5899C50.2089 41.9259 49.3179 40.5559 49.3179 40.5559Z" fill="url(#paint36_radial)"/>
<path d="M27.9429 30.992C28.4339 30.992 28.4339 30.301 27.9429 30.301C27.4529 30.304 27.4529 30.992 27.9429 30.992Z" fill="#AF1F23"/>
<path d="M26.076 32.558C26.859 32.558 26.859 31.454 26.076 31.454C25.292 31.455 25.292 32.558 26.076 32.558Z" fill="#AF1F23"/>
<path d="M25.586 30.646C26.077 30.646 26.077 29.955 25.586 29.955C25.099 29.957 25.099 30.646 25.586 30.646Z" fill="#AF1F23"/>
<path d="M22.6331 33.946C23.1241 33.946 23.1241 33.257 22.6331 33.257C22.1451 33.26 22.1451 33.946 22.6331 33.946Z" fill="#AF1F23"/>
<path d="M22.4161 36.378C23.1991 36.378 23.1991 35.274 22.4161 35.274C21.6331 35.274 21.6331 36.378 22.4161 36.378Z" fill="#AF1F23"/>
<path d="M23.5281 39.638C24.0191 39.638 24.0191 38.947 23.5281 38.947C23.0401 38.947 23.0401 39.638 23.5281 39.638Z" fill="#AF1F23"/>
<path d="M26.0799 39.8C25.3119 39.8 25.3119 38.72 26.0799 38.72C26.8479 38.722 26.8479 39.8 26.0799 39.8Z" fill="#AF1F23"/>
<path d="M26.274 42.6999C25.687 42.6999 25.687 41.8719 26.274 41.8719C26.861 41.8719 26.861 42.6999 26.274 42.6999Z" fill="#AF1F23"/>
<path d="M23.068 47.915C22.48 47.915 22.48 47.087 23.068 47.087C23.655 47.089 23.655 47.915 23.068 47.915Z" fill="#AF1F23"/>
<path d="M24.494 45.444C23.726 45.444 23.726 44.361 24.494 44.361C25.262 44.362 25.262 45.444 24.494 45.444Z" fill="#AF1F23"/>
<path d="M23.0679 42.514C22.2999 42.514 22.2999 41.431 23.0679 41.431C23.8369 41.431 23.8349 42.514 23.0679 42.514Z" fill="#AF1F23"/>
<path d="M36.057 30.992C35.565 30.992 35.565 30.301 36.057 30.301C36.545 30.304 36.545 30.992 36.057 30.992Z" fill="#AF1F23"/>
<path d="M37.9239 32.558C37.1409 32.558 37.1409 31.454 37.9239 31.454C38.7069 31.455 38.7069 32.558 37.9239 32.558Z" fill="#AF1F23"/>
<path d="M38.4119 30.646C37.9229 30.646 37.9229 29.955 38.4119 29.955C38.8999 29.957 38.8999 30.646 38.4119 30.646Z" fill="#AF1F23"/>
<path d="M41.367 33.946C40.877 33.946 40.877 33.257 41.367 33.257C41.855 33.26 41.855 33.946 41.367 33.946Z" fill="#AF1F23"/>
<path d="M41.5841 36.378C40.8011 36.378 40.8011 35.274 41.5841 35.274C42.3661 35.274 42.3661 36.378 41.5841 36.378Z" fill="#AF1F23"/>
<path d="M40.471 39.638C39.981 39.638 39.981 38.947 40.471 38.947C40.96 38.947 40.96 39.638 40.471 39.638Z" fill="#AF1F23"/>
<path d="M37.92 39.8C38.688 39.8 38.688 38.72 37.92 38.72C37.152 38.722 37.152 39.8 37.92 39.8Z" fill="#AF1F23"/>
<path d="M37.7269 42.6999C38.3129 42.6999 38.3129 41.8719 37.7269 41.8719C37.1389 41.8719 37.1389 42.6999 37.7269 42.6999Z" fill="#AF1F23"/>
<path d="M40.9319 47.915C41.5199 47.915 41.5199 47.087 40.9319 47.087C40.3449 47.089 40.3449 47.915 40.9319 47.915Z" fill="#AF1F23"/>
<path d="M39.506 45.444C40.274 45.444 40.274 44.361 39.506 44.361C38.736 44.362 38.736 45.444 39.506 45.444Z" fill="#AF1F23"/>
<path d="M40.932 42.514C41.7 42.514 41.7 41.431 40.932 41.431C40.163 41.431 40.165 42.514 40.932 42.514Z" fill="#AF1F23"/>
<defs>
<linearGradient id="paint0_linear" x1="41.1572" y1="10.3979" x2="45.3603" y2="6.6623" gradientUnits="userSpaceOnUse">
<stop stop-color="#B00000"/>
<stop offset="0.1674" stop-color="#CA290A"/>
<stop offset="0.3422" stop-color="#E14C13"/>
<stop offset="0.5071" stop-color="#F2651A"/>
<stop offset="0.6562" stop-color="#FC751E"/>
<stop offset="0.7758" stop-color="#FF7A1F"/>
</linearGradient>
<radialGradient id="paint1_radial" cx="0" cy="0" r="1" gradientUnits="userSpaceOnUse" gradientTransform="translate(39.2304 8.96561) rotate(7.91014) scale(7.52042 2.10252)">
<stop offset="0.5697" stop-color="#252A40"/>
<stop offset="0.8326" stop-color="#535D6D"/>
<stop offset="1" stop-color="#6C7985"/>
</radialGradient>
<linearGradient id="paint2_linear" x1="49.2031" y1="22.8965" x2="56.6152" y2="22.8965" gradientUnits="userSpaceOnUse">
<stop stop-color="#B00000"/>
<stop offset="0.0856" stop-color="#BD1000"/>
<stop offset="0.3089" stop-color="#D93600"/>
<stop offset="0.5157" stop-color="#EE5200"/>
<stop offset="0.698" stop-color="#FB6200"/>
<stop offset="0.8364" stop-color="#FF6800"/>
</linearGradient>
<linearGradient id="paint3_linear" x1="45.3868" y1="34.5127" x2="54.2692" y2="25.6304" gradientUnits="userSpaceOnUse">
<stop stop-color="#B00000"/>
<stop offset="1" stop-color="#FF6800"/>
</linearGradient>
<radialGradient id="paint4_radial" cx="0" cy="0" r="1" gradientUnits="userSpaceOnUse" gradientTransform="translate(51.4437 19.4994) rotate(32.5392) scale(7.37784 3.68735)">
<stop stop-color="#7A0000"/>
<stop offset="1" stop-color="#FF6800"/>
</radialGradient>
<radialGradient id="paint5_radial" cx="0" cy="0" r="1" gradientUnits="userSpaceOnUse" gradientTransform="translate(39.9909 14.4217) rotate(15.5388) scale(11.58 2.03181)">
<stop stop-color="#6C7985"/>
<stop offset="0.2735" stop-color="#535D6D"/>
<stop offset="0.703" stop-color="#252A40"/>
</radialGradient>
<linearGradient id="paint6_linear" x1="18.6109" y1="9.45132" x2="13.3778" y2="7.51847" gradientUnits="userSpaceOnUse">
<stop stop-color="#B00000"/>
<stop offset="0.1674" stop-color="#CA290A"/>
<stop offset="0.3422" stop-color="#E14C13"/>
<stop offset="0.5071" stop-color="#F2651A"/>
<stop offset="0.6562" stop-color="#FC751E"/>
<stop offset="0.7758" stop-color="#FF7A1F"/>
</linearGradient>
<radialGradient id="paint7_radial" cx="0" cy="0" r="1" gradientUnits="userSpaceOnUse" gradientTransform="translate(19.8939 7.37534) rotate(149.543) scale(7.6508 2.07263)">
<stop offset="0.5697" stop-color="#252A40"/>
<stop offset="0.8326" stop-color="#535D6D"/>
<stop offset="1" stop-color="#6C7985"/>
</radialGradient>
<linearGradient id="paint8_linear" x1="15.4482" y1="24.3329" x2="8.43612" y2="27.0751" gradientUnits="userSpaceOnUse">
<stop stop-color="#B00000"/>
<stop offset="0.0856" stop-color="#BD1000"/>
<stop offset="0.3089" stop-color="#D93600"/>
<stop offset="0.5157" stop-color="#EE5200"/>
<stop offset="0.698" stop-color="#FB6200"/>
<stop offset="0.8364" stop-color="#FF6800"/>
</linearGradient>
<linearGradient id="paint9_linear" x1="22.8421" y1="33.6116" x2="11.5792" y2="28.6813" gradientUnits="userSpaceOnUse">
<stop stop-color="#B00000"/>
<stop offset="1" stop-color="#FF6800"/>
</linearGradient>
<radialGradient id="paint10_radial" cx="0" cy="0" r="1" gradientUnits="userSpaceOnUse" gradientTransform="translate(12.1221 21.9199) rotate(125.968) scale(7.56705 3.59501)">
<stop stop-color="#7A0000"/>
<stop offset="1" stop-color="#FF6800"/>
</radialGradient>
<radialGradient id="paint11_radial" cx="0" cy="0" r="1" gradientUnits="userSpaceOnUse" gradientTransform="translate(21.0151 12.696) rotate(142.188) scale(11.8181 1.99069)">
<stop stop-color="#6C7985"/>
<stop offset="0.2735" stop-color="#535D6D"/>
<stop offset="0.703" stop-color="#252A40"/>
</radialGradient>
<linearGradient id="paint12_linear" x1="4.45143" y1="44.4663" x2="3.73164" y2="40.8746" gradientUnits="userSpaceOnUse">
<stop stop-color="#B00000"/>
<stop offset="1" stop-color="#FF6800"/>
</linearGradient>
<linearGradient id="paint13_linear" x1="6.67895" y1="55.0518" x2="3.91828" y2="51.1834" gradientUnits="userSpaceOnUse">
<stop stop-color="#B00000"/>
<stop offset="1" stop-color="#FF6800"/>
</linearGradient>
<linearGradient id="paint14_linear" x1="17.9745" y1="58.0017" x2="14.1874" y2="59.3072" gradientUnits="userSpaceOnUse">
<stop stop-color="#B00000"/>
<stop offset="1" stop-color="#FF6800"/>
</linearGradient>
<linearGradient id="paint15_linear" x1="2.97778" y1="27.9755" x2="7.38129" y2="29.6262" gradientUnits="userSpaceOnUse">
<stop stop-color="#B00000"/>
<stop offset="1" stop-color="#FF6800"/>
</linearGradient>
<linearGradient id="paint16_linear" x1="8.78235" y1="43.9808" x2="7.96976" y2="39.9261" gradientUnits="userSpaceOnUse">
<stop stop-color="#B00000"/>
<stop offset="1" stop-color="#FF6800"/>
</linearGradient>
<linearGradient id="paint17_linear" x1="10.0617" y1="49.3751" x2="8.25739" y2="46.8469" gradientUnits="userSpaceOnUse">
<stop stop-color="#B00000"/>
<stop offset="1" stop-color="#FF6800"/>
</linearGradient>
<linearGradient id="paint18_linear" x1="15.9544" y1="56.7548" x2="11.9613" y2="51.1594" gradientUnits="userSpaceOnUse">
<stop stop-color="#B00000"/>
<stop offset="1" stop-color="#FF6800"/>
</linearGradient>
<linearGradient id="paint19_linear" x1="9.95606" y1="40.0673" x2="8.11983" y2="30.9048" gradientUnits="userSpaceOnUse">
<stop stop-color="#B00000"/>
<stop offset="1" stop-color="#FF6800"/>
</linearGradient>
<linearGradient id="paint20_linear" x1="15.0902" y1="45.8116" x2="14.1207" y2="40.9742" gradientUnits="userSpaceOnUse">
<stop stop-color="#B00000"/>
<stop offset="1" stop-color="#FF6800"/>
</linearGradient>
<linearGradient id="paint21_linear" x1="18.6923" y1="50.4673" x2="14.0249" y2="43.9271" gradientUnits="userSpaceOnUse">
<stop stop-color="#B00000"/>
<stop offset="1" stop-color="#FF6800"/>
</linearGradient>
<linearGradient id="paint22_linear" x1="21.2298" y1="53.3135" x2="17.1677" y2="47.6214" gradientUnits="userSpaceOnUse">
<stop stop-color="#B00000"/>
<stop offset="1" stop-color="#FF6800"/>
</linearGradient>
<linearGradient id="paint23_linear" x1="15.1081" y1="41.7658" x2="14.1263" y2="36.8667" gradientUnits="userSpaceOnUse">
<stop stop-color="#B00000"/>
<stop offset="1" stop-color="#FF6800"/>
</linearGradient>
<linearGradient id="paint24_linear" x1="59.5479" y1="44.4671" x2="60.2677" y2="40.8755" gradientUnits="userSpaceOnUse">
<stop stop-color="#B00000"/>
<stop offset="1" stop-color="#FF6800"/>
</linearGradient>
<linearGradient id="paint25_linear" x1="57.3207" y1="55.052" x2="60.0813" y2="51.1836" gradientUnits="userSpaceOnUse">
<stop stop-color="#B00000"/>
<stop offset="1" stop-color="#FF6800"/>
</linearGradient>
<linearGradient id="paint26_linear" x1="46.026" y1="58.0021" x2="49.8136" y2="59.3077" gradientUnits="userSpaceOnUse">
<stop stop-color="#B00000"/>
<stop offset="1" stop-color="#FF6800"/>
</linearGradient>
<linearGradient id="paint27_linear" x1="61.0229" y1="27.9754" x2="56.6189" y2="29.6262" gradientUnits="userSpaceOnUse">
<stop stop-color="#B00000"/>
<stop offset="1" stop-color="#FF6800"/>
</linearGradient>
<linearGradient id="paint28_linear" x1="55.2171" y1="43.9812" x2="56.0297" y2="39.9266" gradientUnits="userSpaceOnUse">
<stop stop-color="#B00000"/>
<stop offset="1" stop-color="#FF6800"/>
</linearGradient>
<linearGradient id="paint29_linear" x1="53.9387" y1="49.3753" x2="55.7427" y2="46.8474" gradientUnits="userSpaceOnUse">
<stop stop-color="#B00000"/>
<stop offset="1" stop-color="#FF6800"/>
</linearGradient>
<linearGradient id="paint30_linear" x1="48.0462" y1="56.7557" x2="52.0391" y2="51.1606" gradientUnits="userSpaceOnUse">
<stop stop-color="#B00000"/>
<stop offset="1" stop-color="#FF6800"/>
</linearGradient>
<linearGradient id="paint31_linear" x1="54.0445" y1="40.068" x2="55.8807" y2="30.9055" gradientUnits="userSpaceOnUse">
<stop stop-color="#B00000"/>
<stop offset="1" stop-color="#FF6800"/>
</linearGradient>
<linearGradient id="paint32_linear" x1="48.9101" y1="45.8127" x2="49.8796" y2="40.9753" gradientUnits="userSpaceOnUse">
<stop stop-color="#B00000"/>
<stop offset="1" stop-color="#FF6800"/>
</linearGradient>
<linearGradient id="paint33_linear" x1="45.3081" y1="50.4675" x2="49.9751" y2="43.9277" gradientUnits="userSpaceOnUse">
<stop stop-color="#B00000"/>
<stop offset="1" stop-color="#FF6800"/>
</linearGradient>
<linearGradient id="paint34_linear" x1="42.7715" y1="53.3136" x2="46.8329" y2="47.6223" gradientUnits="userSpaceOnUse">
<stop stop-color="#B00000"/>
<stop offset="1" stop-color="#FF6800"/>
</linearGradient>
<linearGradient id="paint35_linear" x1="48.8918" y1="41.7669" x2="49.8736" y2="36.8677" gradientUnits="userSpaceOnUse">
<stop stop-color="#B00000"/>
<stop offset="1" stop-color="#FF6800"/>
</linearGradient>
<radialGradient id="paint36_radial" cx="0" cy="0" r="1" gradientUnits="userSpaceOnUse" gradientTransform="translate(31.9928 42.9968) scale(17.9194 19.212)">
<stop offset="0.0048" stop-color="#FF6800"/>
<stop offset="0.2702" stop-color="#FD6500"/>
<stop offset="0.455" stop-color="#F65C00"/>
<stop offset="0.6152" stop-color="#EA4D00"/>
<stop offset="0.7614" stop-color="#DA3700"/>
<stop offset="0.8968" stop-color="#C41B00"/>
<stop offset="1" stop-color="#B00000"/>
</radialGradient>
</defs>
</svg>
