<svg width="64" height="64" viewBox="0 0 64 64" fill="none" xmlns="http://www.w3.org/2000/svg">
<g clip-path="url(#clip0)">
<path d="M31.9999 62C14.3639 62 -0.614092 47.153 0.0199081 36.521C0.610908 26.564 63.3899 26.564 63.9809 36.521C64.6129 47.153 49.6359 62 31.9999 62Z" fill="#C3C9CF"/>
<path d="M32 55.641C14.365 55.641 0.0200195 47.06 0.0200195 36.521C0.0200195 25.982 14.365 17.406 32 17.406C49.636 17.406 63.98 25.981 63.98 36.52C63.98 47.059 49.636 55.641 32 55.641Z" fill="#D2D7DB"/>
<path d="M63.4401 36.092C63.4401 46.324 49.3661 54.619 32.0001 54.619C14.6381 54.619 0.560059 46.324 0.560059 36.092C0.560059 25.865 14.6381 17.567 32.0001 17.567C49.3661 17.566 63.4401 25.865 63.4401 36.092Z" fill="#FAFDFF"/>
<path d="M60.033 35.858C60.723 38.466 58.423 41.811 56.091 44.612C53.663 47.531 50.005 49.243 45.086 51.289C41.126 52.936 33.061 53.349 28.169 53.064C24.122 52.826 18.396 51.8 15.358 49.843C-1.50405 38.982 4.01495 36.258 17.594 22.96C18.712 21.549 25.67 21.383 27.422 20.999C30.109 20.41 38.732 21.977 40.828 21.975C45.765 21.975 49.223 24.145 53.121 25.766C54.715 26.434 54.697 28.265 56.45 29.172C58.502 30.239 59.319 33.17 60.033 35.858Z" fill="url(#paint0_linear)"/>
<path d="M35.7961 22.582L36.0681 20.594C30.1971 19.408 30.3461 15.158 29.1191 16.149C29.1151 16.146 29.1361 22.781 35.7961 22.582Z" fill="#CC0000"/>
<path d="M32.9791 21.762C32.9791 21.762 33.2251 20.031 32.7791 20.139C26.9451 21.566 25.7161 17.609 24.5391 19.038C24.5381 19.041 25.7601 24.795 32.9791 21.762Z" fill="#DE0000"/>
<path d="M22.1879 19.226C22.1869 19.226 20.8359 23.729 28.1439 23.68C28.1439 23.68 29.2129 22.33 28.8479 22.33C24.1909 22.33 23.7259 18.569 22.1879 19.226Z" fill="#FF1F1F"/>
<path d="M36.9661 17.842C36.9701 17.844 38.2441 23.046 31.4351 23.022C31.4351 23.022 30.6121 22.441 31.0091 22.367C35.5651 21.507 35.5301 17.088 36.9661 17.842Z" fill="#FF1F1F"/>
<path d="M37.0151 21.441C37.5951 21.434 35.9941 26.382 29.5971 23.907C29.5971 23.907 29.2861 22.598 29.7301 22.591C33.7311 22.521 35.4701 21.453 37.0151 21.441Z" fill="#ED0000"/>
<path d="M31.7711 21.436C31.9201 20.908 29.9641 20.532 29.7251 21.019C27.7951 24.977 22.6541 22.752 23.0711 24.308C23.0681 24.309 29.9591 27.762 31.7711 21.436Z" fill="#FF3C00"/>
<path opacity="0.9" d="M31.6411 28.8379C32.5521 29.2429 33.4061 29.0739 34.2731 30.2419C34.3731 30.3759 34.8431 29.2619 34.6451 29.0099C33.7751 27.9159 33.0211 28.0609 32.0581 27.5959C31.9251 28.0119 31.7861 28.4269 31.6411 28.8379Z" fill="#E6A868"/>
<path d="M39.2909 28.252C39.1269 27.898 37.3249 28.03 36.8969 28.217C35.8269 28.684 35.2679 29.13 34.8889 30.109C34.7209 30.544 34.8479 32.737 35.0159 32.991C35.3709 33.533 36.6929 34.222 37.0939 34.225C38.1669 34.237 40.1289 30.077 39.2909 28.252Z" fill="#F0A000"/>
<path d="M41.5809 32.674C40.9929 34.079 37.2009 34.443 36.8879 34.202C36.5879 33.973 35.9269 31.109 36.2389 30.289C36.5019 29.588 38.4409 28.145 39.0279 28.145C40.3919 28.146 42.0599 31.08 41.5809 32.674Z" fill="#F9B700"/>
<path d="M37.7789 28.2531C37.7799 28.2521 34.5369 28.5531 35.3879 31.9761C35.4099 29.7151 36.7069 28.9631 37.7789 28.2531Z" fill="#F0B100"/>
<path d="M37.2339 25.981C37.2999 26.191 37.5739 26.722 37.7129 26.843C38.0809 27.175 39.3349 28.221 40.0739 28.238C40.8139 28.256 42.4679 27.231 42.8999 26.61C43.2819 26.061 43.2599 24.353 42.9769 23.645C42.8789 23.393 42.3789 22.787 42.0329 22.536C41.4289 22.096 36.8619 24.758 37.2339 25.981Z" fill="#D13200"/>
<path d="M37.5321 23.104C37.0981 23.727 36.8781 25.309 37.2341 25.982C37.5901 26.65 39.026 27.557 39.767 27.573C40.506 27.592 41.9821 26.757 42.3651 26.102C42.7511 25.446 42.79 23.441 42.355 22.821C42.09 22.445 40.692 21.745 39.953 21.789C39.213 21.831 37.9681 22.482 37.5321 23.104Z" fill="#FF6A00"/>
<path d="M38.7161 23.295C38.8661 23.965 40.5451 23.195 40.8241 22.537C41.0131 22.088 38.5691 22.648 38.7161 23.295Z" fill="#FF9900"/>
<path opacity="0.9" d="M34.092 24.497C35.626 26 37.072 24.811 38.794 26.441C39.012 26.654 38.632 27.836 38.39 27.654C36.341 26.104 35.172 27.101 33.67 25.732C33.425 25.509 33.97 24.378 34.092 24.497Z" fill="#E6A868"/>
<path opacity="0.9" d="M53.89 39.168C59.661 40.323 59.969 37.207 57.752 34.531C57.47 34.188 56.525 34.135 56.768 34.487C58.615 37.188 57.999 38.545 53.371 37.865C52.875 37.793 53.635 39.115 53.89 39.168Z" fill="#E6A868"/>
<path opacity="0.9" d="M52.075 29.248C53.44 31.019 54.979 30.03 56.514 31.964C56.713 32.21 56.222 33.357 56.003 33.13C54.134 31.235 52.884 32.067 51.541 30.44C51.315 30.175 51.965 29.105 52.075 29.248Z" fill="#E6A868"/>
<path d="M46.4901 23.923C46.6321 23.618 47.6781 23.517 48.0481 23.678C48.9801 24.083 51.4391 25.571 51.7651 26.418C51.9101 26.791 51.8021 28.689 51.6561 28.91C51.3481 29.381 50.8581 29.615 50.5131 29.618C50.0591 27.808 45.7631 25.503 46.4901 23.923Z" fill="#F0A000"/>
<path d="M45.0431 27.08C45.5531 28.297 49.1141 28.445 50.5131 29.618C50.7711 29.421 51.0911 27.411 50.7841 26.715C50.4331 25.914 47.4891 23.678 46.9791 23.678C45.7981 23.678 44.6301 25.699 45.0431 27.08Z" fill="#F9B700"/>
<path opacity="0.9" d="M40.9519 31.1811C41.8029 25.2981 46.1359 25.2101 48.8159 27.6271C49.1619 27.9351 48.8419 28.8901 48.4679 28.6191C45.5919 26.5711 43.5099 27.0951 42.4899 31.7951C42.3819 32.2971 40.9129 31.4411 40.9519 31.1811Z" fill="#E6A868"/>
<path d="M45.11 26.979C45.46 26.89 46.491 27.063 46.743 27.291C46.977 27.507 47.329 27.897 47.662 28.342C47.715 28.409 47.546 28.571 47.597 28.639C47.636 28.699 47.799 28.713 47.839 28.769C48.036 29.06 47.915 29.128 48.071 29.439C48.081 29.462 48.126 29.787 48.137 29.811C48.161 29.869 48.193 30.08 48.219 30.136C48.34 30.425 47.84 30.736 47.961 30.817C48.193 30.97 47.313 32.209 47.045 32.335C46.473 32.61 45.443 32.726 45.338 32.618C43.026 30.299 43.729 28.446 45.11 26.979Z" fill="#8C4E2A"/>
<path d="M43.6589 29.568C43.4209 30.648 45.0119 32.797 45.3909 32.714C45.7539 32.637 46.9179 31.018 47.0409 30.398C47.0589 30.306 45.5659 31.247 45.7009 31.11C46.4589 30.327 46.8919 30.005 46.8459 29.87C46.8109 29.766 46.2389 30.106 45.5419 30.539C45.4239 30.61 46.8479 29.436 46.8049 29.342C46.7539 29.232 46.4269 28.739 46.3689 28.63C46.3139 28.525 45.6069 29.219 45.0439 29.584C44.6699 29.825 46.3199 28.357 46.2759 28.28C46.2379 28.215 43.8539 29.982 43.9819 29.857C45.1909 28.682 46.0739 27.881 46.0299 27.816C45.7489 27.385 45.4219 27.012 45.2499 26.978C44.5189 26.838 43.8099 29.102 43.6589 29.568Z" fill="#9E582F"/>
<path d="M46.5829 32.295C46.3599 31.881 45.5789 31.749 45.0969 31.766C44.6419 31.786 43.9099 31.88 43.1489 32.036C43.0329 32.06 43.0799 32.343 42.9609 32.371C42.8649 32.392 42.8759 32.097 42.7829 32.12C42.3029 32.238 41.7879 32.392 41.3429 32.565C41.3069 32.579 41.2769 32.843 41.2439 32.857C41.1609 32.891 41.0809 32.671 41.0049 32.706C40.6139 32.882 40.3189 33.078 40.2219 33.27C40.0319 33.643 40.1749 35.936 40.3649 36.265C40.7679 36.96 41.1349 37.589 41.3439 37.536C46.4069 36.242 48.0299 35.016 46.5829 32.295Z" fill="#8C4E2A"/>
<path d="M47.746 36.16C45.699 35.945 41.699 37.911 41.343 37.536C41.003 37.182 41.103 34.756 41.506 34.079C41.566 33.978 42.423 36.021 42.392 35.791C42.219 34.466 42.014 33.824 42.185 33.733C42.315 33.663 42.665 34.427 43.07 35.375C43.14 35.538 42.56 33.325 42.693 33.272C42.846 33.208 43.641 33.001 43.8 32.94C43.956 32.882 44.142 34.087 44.461 34.872C44.673 35.388 44.093 32.723 44.209 32.685C44.313 32.656 45.452 36.166 45.418 35.954C45.075 33.905 44.784 32.471 44.888 32.442C45.581 32.258 46.277 32.163 46.497 32.264C47.443 32.699 47.985 35.604 47.746 36.16Z" fill="#9E582F"/>
<path d="M48.5051 35.3451C48.0671 34.9291 48.0091 34.8551 47.9531 34.4381C47.8331 33.5341 48.5271 31.9981 49.1771 31.3831C49.7531 30.8411 51.7041 30.6321 52.5501 30.8801C52.8541 30.9671 53.6131 31.4931 53.9491 31.8841C54.5341 32.5651 49.3841 34.4311 48.5051 35.3451Z" fill="#D13200"/>
<path d="M48.5049 35.345C48.3859 34.442 49.1379 32.527 49.8329 31.967C50.5259 31.405 52.8119 31.081 53.5789 31.529C54.0449 31.802 55.0339 33.419 55.0889 34.327C55.1409 35.239 50.8389 34.431 48.5049 35.345Z" fill="#FF6A00"/>
<path d="M51.581 35.568C51.891 35.214 52.601 34.43 53.083 34.449C53.535 34.467 53.303 34.04 54.068 34.197C54.183 34.219 54.53 34.612 54.644 34.639C54.741 34.661 55.143 34.552 55.238 34.576C55.717 34.695 56.205 34.764 55.984 35.202C55.658 35.845 56.523 35.242 56.557 35.257C56.637 35.289 56.838 35.7 56.915 35.735C57.303 35.911 57.395 36.686 57.493 36.879C57.684 37.254 57.625 38.334 57.432 38.665C57.031 39.362 56.668 39.93 56.456 39.936C53.405 40.054 49.616 37.811 51.581 35.568Z" fill="#8C4E2A"/>
<path d="M50.7211 38.582C51.3921 39.78 56.1021 40.311 56.4581 39.935C56.7971 39.583 56.6951 37.157 56.2931 36.479C56.2341 36.377 55.9251 38.745 55.9031 38.511C55.7961 37.352 55.7861 36.224 55.6141 36.134C55.4841 36.065 55.4591 37.536 55.0511 38.483C54.9841 38.648 55.2401 35.725 55.1071 35.67C54.9531 35.607 54.6201 35.822 54.4591 35.761C54.3051 35.703 54.1161 37.561 53.7961 38.343C53.5861 38.861 53.7071 35.121 53.5891 35.086C53.4871 35.055 52.8081 37.275 52.8401 37.061C53.1821 35.015 53.0171 34.872 52.9121 34.843C52.2181 34.658 51.8861 35.437 51.6681 35.536C50.7211 35.972 50.4821 38.028 50.7211 38.582Z" fill="#9E582F"/>
<path opacity="0.9" d="M45.972 41.841C45.058 35.547 40.424 35.454 37.552 38.037C37.184 38.37 37.529 39.387 37.929 39.102C41.005 36.911 43.232 37.47 44.322 42.499C44.439 43.037 46.012 42.119 45.972 41.841Z" fill="#E6A868"/>
<path d="M45.2571 37.2171C45.2571 37.2171 47.9701 38.9551 49.5421 35.7791C48.0491 37.5211 46.5541 37.3161 45.2571 37.2171Z" fill="#DB800D"/>
<path d="M49.388 37.652C49.386 37.651 49.47 40.795 53.069 40.215C50.732 40.032 50.047 38.733 49.388 37.652Z" fill="#DB800D"/>
<path d="M53.6409 32.01C53.6429 32.01 50.9659 30.812 49.7939 33.028C51.9999 31.643 52.6239 32.769 53.6409 32.01Z" fill="#FF9900"/>
<path d="M51.564 26.7051C51.651 26.1691 50.485 25.3011 50.117 25.1851C49.737 25.0611 51.485 27.1811 51.564 26.7051Z" fill="#F0B100"/>
<path d="M46.1321 32.455C46.3161 34.24 46.8981 35.302 46.8981 35.302C46.8981 35.302 47.3601 34.447 46.1321 32.455Z" fill="#AB663E"/>
<path d="M45.5011 32.642C45.4031 33.892 45.8101 34.663 45.8101 34.663C45.8101 34.663 46.3971 34.088 45.5011 32.642Z" fill="#AB663E"/>
<path d="M43.2451 33.343C43.1591 34.461 43.5221 35.149 43.5221 35.149C43.5221 35.149 44.0481 34.635 43.2451 33.343Z" fill="#AB663E"/>
<path d="M57.0289 38.863C57.0289 38.863 57.8339 38.034 56.8169 36.312C57.0899 37.842 57.0289 38.863 57.0289 38.863Z" fill="#9E582F"/>
<path d="M31.1899 30.751C30.0679 24.328 22.3319 24.042 19.7059 23.288C18.1439 23.205 16.4999 22.997 15.2559 23.619C14.2259 24.132 12.8889 23.952 12.0869 24.605C10.8699 25.601 8.9949 25.866 8.2239 27.055C7.3559 28.397 5.5779 29.44 5.2989 31C5.0909 32.194 4.1749 33.298 4.3659 34.524C4.5499 35.723 4.0349 37.009 4.6249 38.033C5.1169 38.891 5.0829 40.117 5.8199 40.905C6.5119 41.654 7.1229 43.172 8.3349 43.825C9.5099 44.455 10.4099 45.62 11.8379 45.931C12.8699 46.156 13.7609 46.91 14.8709 46.852C15.7609 46.807 18.9469 48.441 22.6029 47.147C27.1059 44.671 32.0979 35.943 31.1899 30.751Z" fill="#CFD8DD"/>
<path d="M15.113 34.208C13.954 34.767 14.952 38.559 16.535 38.582C17.94 37.865 16.442 34.249 15.113 34.208Z" fill="#F2F5F7"/>
<path d="M29.569 28.63C28.411 29.188 29.406 32.982 30.993 33.001C32.399 32.285 30.899 28.67 29.569 28.63Z" fill="#F2F5F7"/>
<path d="M26.8531 24.366C25.6941 24.924 26.6901 28.719 28.2771 28.738C29.6811 28.022 28.1821 24.406 26.8531 24.366Z" fill="#F2F5F7"/>
<path d="M12.7061 41.147C11.7211 41.681 12.7841 45.464 14.1731 45.513C15.3681 44.827 13.8741 41.21 12.7061 41.147Z" fill="#E6E9EB"/>
<path d="M7.55202 39.057C7.33102 39.993 12.166 42.39 13.319 41.697C13.54 40.534 8.54202 38.492 7.55202 39.057Z" fill="#E6E9EB"/>
<path d="M6.7021 35.112C6.4821 36.048 11.3151 38.444 12.4671 37.753C12.6891 36.59 7.6901 34.548 6.7021 35.112Z" fill="#E6E9EB"/>
<path d="M7.8689 41.48C7.6659 42.273 11.6039 44.241 12.5759 43.643C12.7899 42.662 8.7009 40.995 7.8689 41.48Z" fill="#E6E9EB"/>
<path d="M12.9701 45.787C12.7621 46.576 16.7041 48.546 17.6751 47.949C17.8881 46.966 13.8031 45.302 12.9701 45.787Z" fill="#E6E9EB"/>
<path d="M17.099 45.766C16.84 46.552 20.657 48.616 21.668 48.046C21.942 47.072 17.963 45.305 17.099 45.766Z" fill="#E6E9EB"/>
<path d="M19.4841 40.372C18.7491 41.014 20.9981 43.847 22.2961 43.587C23.1671 42.772 20.5781 40.169 19.4841 40.372Z" fill="#E6E9EB"/>
<path d="M24.178 39.551C23.448 40.195 25.694 43.027 26.991 42.767C27.862 41.953 25.274 39.351 24.178 39.551Z" fill="#E6E9EB"/>
<path d="M20.723 22.938C20.358 23.837 23.639 25.381 24.685 24.575C25.098 23.461 21.614 22.274 20.723 22.938Z" fill="#E6E9EB"/>
<path d="M28.163 26.094C27.434 26.739 29.679 29.569 30.978 29.309C31.849 28.494 29.26 25.892 28.163 26.094Z" fill="#E6E9EB"/>
<path d="M26.9969 37.729C25.8409 38.042 25.5619 41.162 26.9119 41.354C28.3259 40.94 28.1179 37.906 26.9969 37.729Z" fill="#F2F5F7"/>
<path d="M28.036 31.298C26.879 31.611 26.603 34.733 27.953 34.924C29.368 34.51 29.159 31.477 28.036 31.298Z" fill="#F2F5F7"/>
<path d="M22.9799 24.5179C21.9509 24.9969 22.6979 28.4689 24.0809 28.5269C25.3299 27.9079 24.1359 24.5859 22.9799 24.5179Z" fill="#E6E9EB"/>
<path d="M21.8229 24.093C20.6409 23.736 16.1829 25.7 16.7949 26.498C18.2799 26.917 22.3099 24.769 21.8229 24.093Z" fill="#E6E9EB"/>
<path d="M20.632 27.687C19.452 27.331 14.99 29.294 15.605 30.093C17.088 30.511 21.118 28.363 20.632 27.687Z" fill="#E6E9EB"/>
<path d="M24.669 30.3791C24.143 29.6201 18.653 29.1631 18.281 29.9991C18.976 30.9301 24.327 31.0741 24.669 30.3791Z" fill="#E6E9EB"/>
<path d="M22.514 31.1969C21.99 30.4379 16.499 29.9789 16.127 30.8149C16.822 31.7459 22.174 31.8899 22.514 31.1969Z" fill="#E6E9EB"/>
<path d="M15.1089 34.708C14.5869 33.949 9.09592 33.494 8.72192 34.329C9.41992 35.259 14.7709 35.403 15.1089 34.708Z" fill="#E6E9EB"/>
<path d="M15.3651 38.634C16.1891 38.02 14.2301 34.717 12.8731 34.858C11.8881 35.641 14.2211 38.733 15.3651 38.634Z" fill="#E6E9EB"/>
<path d="M14.446 32.771C15.27 32.156 13.312 28.855 11.956 28.995C10.968 29.777 13.303 32.868 14.446 32.771Z" fill="#E6E9EB"/>
<path d="M7.39896 35.308C8.64296 35.11 9.95596 31.746 8.68896 31.37C7.15796 31.648 6.34796 34.977 7.39896 35.308Z" fill="#E6E9EB"/>
<path d="M14.0259 28.76C14.8499 28.144 12.8929 24.843 11.5359 24.986C10.5489 25.768 12.8839 28.857 14.0259 28.76Z" fill="#E6E9EB"/>
<path d="M13.4301 26.9211C14.7171 26.8621 16.9431 23.7131 15.7871 23.2061C14.1931 23.3081 12.4791 26.4801 13.4301 26.9211Z" fill="#E6E9EB"/>
<path d="M15.313 28.586C16.601 28.528 18.825 25.379 17.67 24.871C16.078 24.975 14.363 28.147 15.313 28.586Z" fill="#E6E9EB"/>
<path d="M20.027 28.287C21.314 28.229 23.54 25.079 22.384 24.573C20.792 24.676 19.078 27.847 20.027 28.287Z" fill="#E6E9EB"/>
<path d="M14.2079 34.429C15.4969 34.371 17.7189 31.219 16.5649 30.713C14.9749 30.817 13.2609 33.991 14.2079 34.429Z" fill="#E6E9EB"/>
<path d="M5.72896 31.419C7.01596 31.362 9.24296 28.213 8.08696 27.704C6.49596 27.808 4.77996 30.98 5.72896 31.419Z" fill="#E6E9EB"/>
<path d="M10.3041 34.577C11.5931 34.517 13.8181 31.367 12.6611 30.861C11.0671 30.964 9.35506 34.136 10.3041 34.577Z" fill="#E6E9EB"/>
<path d="M24.2771 28.7289C25.5651 28.6699 27.7911 25.5189 26.6361 25.0129C25.0431 25.1169 23.3301 28.2899 24.2771 28.7289Z" fill="#E6E9EB"/>
<path d="M4.66112 35.473C5.94912 35.414 8.17512 32.265 7.01812 31.756C5.43012 31.859 3.71412 35.034 4.66112 35.473Z" fill="#E6E9EB"/>
<path d="M19.9859 35.828C19.1509 36.42 20.9239 39.375 22.2609 39.199C23.2659 38.453 21.1109 35.701 19.9859 35.828Z" fill="#E6E9EB"/>
<path d="M24.793 37.119C23.958 37.712 25.732 40.664 27.068 40.492C28.072 39.743 25.919 36.992 24.793 37.119Z" fill="#E6E9EB"/>
<path d="M16.1411 39.819C15.3091 40.41 17.0791 43.367 18.4191 43.193C19.4221 42.444 17.2661 39.691 16.1411 39.819Z" fill="#E6E9EB"/>
<path d="M19.062 43.5361C18.228 44.1261 20 47.0831 21.339 46.9101C22.342 46.1601 20.187 43.4101 19.062 43.5361Z" fill="#E6E9EB"/>
<path d="M20.0939 37.166C18.9319 36.818 15.0399 38.671 15.7329 39.435C17.1889 39.846 20.6469 37.814 20.0939 37.166Z" fill="#E6E9EB"/>
<path d="M15.6621 33.439C14.8261 34.029 16.6001 36.986 17.9361 36.812C18.9401 36.064 16.7881 33.313 15.6621 33.439Z" fill="#E6E9EB"/>
<path d="M27.545 29.781C26.708 30.373 28.483 33.328 29.819 33.157C30.823 32.405 28.67 29.657 27.545 29.781Z" fill="#E6E9EB"/>
<path d="M18.9101 32.391C17.6671 32.545 16.3601 35.536 17.6251 35.902C19.1541 35.688 19.9571 32.714 18.9101 32.391Z" fill="#E6E9EB"/>
<path d="M23.717 44.231C22.475 44.385 21.169 47.375 22.433 47.742C23.962 47.527 24.764 44.554 23.717 44.231Z" fill="#E6E9EB"/>
<path d="M22.13 32.6479C20.888 32.8009 19.578 35.791 20.845 36.158C22.373 35.946 23.175 32.9709 22.13 32.6479Z" fill="#E6E9EB"/>
<path d="M27.0841 34.3571C25.8411 34.5091 24.5331 37.5021 25.7991 37.8671C27.3271 37.6551 28.1291 34.6801 27.0841 34.3571Z" fill="#E6E9EB"/>
<path d="M24.4481 41.05C23.2071 41.202 21.8991 44.1951 23.1631 44.5601C24.6921 44.3471 25.4951 41.372 24.4481 41.05Z" fill="#E6E9EB"/>
<path d="M27.7139 41.4449C26.4719 41.5969 25.1659 44.5899 26.4289 44.9549C27.9569 44.7459 28.7599 41.7699 27.7139 41.4449Z" fill="#E6E9EB"/>
<path d="M30.976 34.145C29.734 34.299 28.426 37.291 29.691 37.658C31.22 37.442 32.021 34.467 30.976 34.145Z" fill="#E6E9EB"/>
<path d="M29.1339 35.366C27.8919 35.518 26.5839 38.51 27.8499 38.878C29.3779 38.664 30.1809 35.689 29.1339 35.366Z" fill="#F2F5F7"/>
<path d="M10.5741 39.895C11.5621 40.422 16.1181 39.293 15.7621 38.446C14.5131 37.814 10.3021 39.18 10.5741 39.895Z" fill="#E6E9EB"/>
<path d="M5.80102 38.648C6.78602 39.175 11.343 38.05 10.988 37.203C9.73802 36.567 5.52802 37.938 5.80102 38.648Z" fill="#E6E9EB"/>
<path d="M13.9719 42.732C13.9819 43.536 18.3669 45.067 19.1609 44.373C19.1069 43.376 14.6579 42.163 13.9719 42.732Z" fill="#E6E9EB"/>
<path d="M10.8229 37.393C9.80689 36.89 5.84389 39.172 6.34689 40.193C7.62689 40.784 11.2219 38.261 10.8229 37.393Z" fill="#F2F5F7"/>
<path d="M19.873 37.771C18.724 38.04 18.297 41.9 19.604 42.275C21.005 41.904 20.959 38.105 19.873 37.771Z" fill="#F2F5F7"/>
<path d="M26.2199 42.408C24.9939 42.497 23.1189 46.151 24.2549 46.709C25.7659 46.566 27.1559 42.896 26.2199 42.408Z" fill="#E6E9EB"/>
<path d="M24.343 33.213C23.082 33.163 21.109 36.759 22.268 37.474C23.829 37.496 25.3 33.832 24.343 33.213Z" fill="#F2F5F7"/>
<path d="M30.1301 38.018C28.8701 37.971 26.8971 41.564 28.0581 42.277C29.6181 42.302 31.0881 38.636 30.1301 38.018Z" fill="#F2F5F7"/>
<path d="M24.9551 35.868C23.7681 35.837 21.7741 39.43 22.8441 40.113C24.3071 40.111 25.8341 36.463 24.9551 35.868Z" fill="#F2F5F7"/>
<path d="M12.9021 30.678C11.7531 30.95 11.3281 34.808 12.6361 35.184C14.0361 34.813 13.9891 31.013 12.9021 30.678Z" fill="#F2F5F7"/>
<path d="M6.27805 29.646C5.07405 29.682 3.35305 33.321 4.49305 33.939C5.97405 33.854 7.21905 30.179 6.27805 29.646Z" fill="#F2F5F7"/>
<path d="M14.325 25.352C13.137 25.219 10.706 28.584 11.696 29.358C13.166 29.482 15.14 26.018 14.325 25.352Z" fill="#F2F5F7"/>
<path d="M25.756 31.3961C24.801 30.8211 20.591 32.8121 20.976 33.8691C22.183 34.5461 26.051 32.2901 25.756 31.3961Z" fill="#F2F5F7"/>
<path d="M11.6989 29.216C10.7469 28.646 6.53888 30.636 6.92288 31.69C8.12788 32.369 12.0009 30.11 11.6989 29.216Z" fill="#F2F5F7"/>
<path d="M22.178 43.302C21.07 42.931 17.656 45.683 18.365 46.632C19.747 47.057 22.755 44.108 22.178 43.302Z" fill="#F2F5F7"/>
<path d="M29.5139 42.086C28.4069 41.717 24.9909 44.468 25.7009 45.418C27.0839 45.842 30.0909 42.896 29.5139 42.086Z" fill="#F2F5F7"/>
<path d="M25.3079 42.768C24.2009 42.399 20.7839 45.149 21.4919 46.1C22.8779 46.524 25.8839 43.576 25.3079 42.768Z" fill="#F2F5F7"/>
<path d="M21.2489 26.059C20.2969 25.487 16.0889 27.476 16.4749 28.529C17.6779 29.209 21.5439 26.952 21.2489 26.059Z" fill="#F2F5F7"/>
<path d="M23.587 30.852C22.634 30.284 18.423 32.268 18.808 33.323C20.014 33.998 23.885 31.746 23.587 30.852Z" fill="#F2F5F7"/>
<path d="M20.7671 23.1381C20.0741 22.3661 15.3141 23.2661 15.2881 24.3671C16.1881 25.3011 20.7231 24.0611 20.7671 23.1381Z" fill="#F2F5F7"/>
<path d="M13.195 36.365C13.218 35.421 8.69604 33.898 7.84204 34.762C7.85704 35.927 12.454 37.074 13.195 36.365Z" fill="#F2F5F7"/>
<path d="M20.396 42.575C19.378 42.088 15.45 44.442 15.958 45.457C17.237 46.03 20.8 43.439 20.396 42.575Z" fill="#F2F5F7"/>
<path d="M13.575 44.86C13.596 43.912 9.07302 42.398 8.21802 43.259C8.23502 44.424 12.835 45.574 13.575 44.86Z" fill="#F2F5F7"/>
<path d="M14.2669 46.4341C14.2879 45.6261 10.5289 44.3381 9.81592 45.0781C9.82892 46.0691 13.6519 47.0441 14.2669 46.4341Z" fill="#F2F5F7"/>
<path d="M8.2739 43.264C8.9019 42.614 6.7719 39.934 5.6269 40.232C4.8859 41.049 7.3059 43.495 8.2739 43.264Z" fill="#F2F5F7"/>
<path d="M25.7381 28.852C26.7191 28.327 25.6801 24.493 24.3031 24.429C23.1221 25.106 24.5871 28.778 25.7381 28.852Z" fill="#F2F5F7"/>
<path d="M24.3919 25.301C24.5199 24.449 20.8929 22.681 20.0799 23.384C19.9619 24.438 23.6929 25.877 24.3919 25.301Z" fill="#F2F5F7"/>
<path d="M26.0341 31.985C27.0141 31.459 25.9741 27.626 24.5991 27.562C23.4151 28.24 24.8811 31.909 26.0341 31.985Z" fill="#F2F5F7"/>
<path d="M27.701 31.657C28.682 31.133 27.639 27.298 26.266 27.235C25.079 27.911 26.547 31.583 27.701 31.657Z" fill="#E6E9EB"/>
<path d="M24.8011 29.7141C24.8571 28.7721 20.3861 27.1611 19.5011 28.0091C19.4791 29.1751 24.0401 30.4131 24.8011 29.7141Z" fill="#F2F5F7"/>
<path d="M17.88 34.7C18.547 33.908 15.76 30.731 14.451 31.112C13.677 32.111 16.778 34.997 17.88 34.7Z" fill="#F2F5F7"/>
<path d="M27.007 26.2269C27.676 25.4379 24.888 22.2599 23.579 22.6409C22.803 23.6349 25.905 26.5259 27.007 26.2269Z" fill="#F2F5F7"/>
<path d="M29.3209 30.086C29.9859 29.295 27.1989 26.119 25.8909 26.5C25.1149 27.496 28.2179 30.384 29.3209 30.086Z" fill="#F2F5F7"/>
<path d="M6.99499 37.4909C7.97599 36.9529 6.86799 33.1779 5.48199 33.1379C4.29499 33.8299 5.82699 37.4349 6.99499 37.4909Z" fill="#F2F5F7"/>
<path d="M5.83495 39.8469C6.82195 39.3089 5.71395 35.5329 4.31995 35.4919C3.13295 36.1839 4.66595 39.7919 5.83495 39.8469Z" fill="#F2F5F7"/>
<path d="M11.6209 42.6299C11.9209 41.7109 7.99093 39.4299 6.91293 40.1299C6.57993 41.2759 10.6909 43.1969 11.6209 42.6299Z" fill="#F2F5F7"/>
<path d="M22.9421 42.396C23.9251 41.853 22.8161 38.077 21.4281 38.036C20.2401 38.733 21.7741 42.337 22.9421 42.396Z" fill="#F2F5F7"/>
<path d="M17.4241 47.2899C18.1841 46.5569 15.8261 43.1679 14.4751 43.4329C13.5711 44.3589 16.2821 47.4909 17.4241 47.2899Z" fill="#F2F5F7"/>
<path d="M8.09403 30.3121C9.22803 30.6241 12.449 27.7051 11.668 26.7941C10.258 26.4421 7.46303 29.5321 8.09403 30.3121Z" fill="#F2F5F7"/>
<path d="M7.89194 34.161C9.02694 34.475 12.2439 31.556 11.4669 30.642C10.0539 30.292 7.26294 33.382 7.89194 34.161Z" fill="#F2F5F7"/>
<path d="M27.621 35.943C28.753 36.256 31.972 33.339 31.194 32.428C29.781 32.076 26.989 35.165 27.621 35.943Z" fill="#F2F5F7"/>
<path d="M14.527 29.599C15.749 29.617 16.926 26.105 15.666 25.443C14.161 25.455 13.481 29.023 14.527 29.599Z" fill="#F2F5F7"/>
<path d="M7.18996 28.7941C8.32496 29.1061 11.544 26.1851 10.766 25.2781C9.35496 24.9271 6.56296 28.0151 7.18996 28.7941Z" fill="#F2F5F7"/>
<path d="M9.73302 39.199C10.723 39.732 14.793 37.571 14.338 36.537C13.094 35.904 9.37802 38.322 9.73302 39.199Z" fill="#F2F5F7"/>
<path d="M16.3891 32.4901C17.3771 33.0251 21.4501 30.8631 20.9951 29.8291C19.7461 29.1981 16.0301 31.6131 16.3891 32.4901Z" fill="#F2F5F7"/>
<path d="M10.8479 26.1409C11.8379 26.6769 15.9099 24.5169 15.4539 23.4819C14.2059 22.8489 10.4939 25.2659 10.8479 26.1409Z" fill="#F2F5F7"/>
<path d="M19.4559 28.794C20.4459 29.328 24.5159 27.166 24.0609 26.132C22.8139 25.501 19.0989 27.918 19.4559 28.794Z" fill="#F2F5F7"/>
<path d="M17.2919 37.764C18.4209 38.077 21.6409 35.156 20.8629 34.246C19.4499 33.893 16.6569 36.986 17.2919 37.764Z" fill="#F2F5F7"/>
<path d="M24.192 35.402C25.326 35.715 28.546 32.794 27.769 31.884C26.354 31.531 23.56 34.625 24.192 35.402Z" fill="#F2F5F7"/>
<path d="M11.9161 40.5309C11.8131 41.4859 16.1381 43.2729 17.0541 42.4509C17.1341 41.2699 12.7041 39.8519 11.9161 40.5309Z" fill="#F2F5F7"/>
<path d="M13.5471 29.555C13.8961 30.457 18.7871 30.806 19.2611 29.775C18.7881 28.667 13.9701 28.694 13.5471 29.555Z" fill="#F2F5F7"/>
<path d="M11.2201 29.272C10.9411 29.984 14.9021 31.896 15.9581 31.383C16.2691 30.492 12.1301 28.854 11.2201 29.272Z" fill="#F2F5F7"/>
<path d="M13.239 39.852C13.579 40.759 18.474 41.101 18.947 40.074C18.476 38.966 13.659 38.997 13.239 39.852Z" fill="#F2F5F7"/>
<path d="M31.08 34.1979C31.145 33.8499 31.193 33.5129 31.23 33.1779C31.293 33.0149 31.319 32.8629 31.308 32.7279C31.791 32.0829 31.518 30.7759 30.958 29.8079C30.907 29.6379 30.847 29.4769 30.784 29.3199C30.852 29.3209 30.92 29.3219 30.983 29.3089C31.771 28.5719 29.726 26.3739 28.517 26.1139C28.136 25.1919 27.48 24.3849 26.857 24.3669C26.736 24.4259 26.643 24.5259 26.567 24.6459C25.798 23.5549 24.401 22.4029 23.584 22.6399C23.467 22.7919 23.447 22.9909 23.487 23.2109C22.506 22.7719 21.221 22.5709 20.728 22.9389C20.707 22.9879 20.704 23.0379 20.705 23.0889C20.213 22.7029 18.537 22.8229 17.174 23.1979C16.763 23.2159 16.364 23.2649 15.989 23.3609C15.939 23.2979 15.878 23.2429 15.793 23.2059C15.582 23.2179 15.371 23.2889 15.164 23.3939C14.209 23.2539 12.507 24.1309 11.543 24.9839C11.311 25.1239 11.066 25.2489 10.819 25.3699C10.803 25.3389 10.795 25.3069 10.772 25.2779C9.66001 25.0029 7.69801 26.8559 7.22001 28.0399C6.60101 28.4559 6.04701 29.1939 5.73401 29.8789C4.69201 30.6499 3.64101 33.1449 4.38001 33.8399C4.34901 34.0669 4.33701 34.2949 4.37301 34.5269C4.39101 34.6429 4.39801 34.7619 4.40401 34.8809C4.40101 34.9459 4.40401 35.0059 4.41101 35.0649C4.41401 35.2129 4.41101 35.3609 4.40401 35.5099C4.37801 35.5049 4.35301 35.4939 4.32601 35.4929C3.37801 36.0469 4.16801 38.4609 5.12001 39.4349C5.22101 39.7959 5.33901 40.1519 5.51901 40.4719C5.35501 41.1809 6.42901 42.4559 7.37001 43.0109C7.65101 43.3319 7.96501 43.6239 8.34201 43.8269C8.91901 44.1369 9.43001 44.5739 9.96901 44.9759C9.91401 45.0049 9.86201 45.0359 9.82301 45.0779C9.83401 45.8749 12.306 46.6609 13.594 46.6209C14.704 47.4599 16.975 48.3839 17.682 47.9499C17.717 47.7899 17.627 47.6089 17.464 47.4239C18.046 47.5369 18.693 47.6289 19.395 47.6459C20.31 48.0539 21.246 48.2889 21.674 48.0469C21.723 47.8719 21.632 47.6719 21.451 47.4649C21.634 47.4279 21.816 47.3869 22.002 47.3369C22.08 47.5309 22.218 47.6789 22.439 47.7429C23.123 47.6459 23.659 46.9999 23.952 46.2839C24.001 46.4759 24.097 46.6289 24.263 46.7109C24.826 46.6569 25.37 46.1139 25.785 45.4309C27.2 45.7329 30.088 42.8829 29.52 42.0869C29.21 41.9829 28.72 42.1299 28.191 42.4049C28.192 42.3549 28.189 42.3079 28.187 42.2609C29.7 42.1009 31.069 38.6199 30.137 38.0179C30.044 38.0149 29.947 38.0359 29.846 38.0699C29.923 37.8909 30.006 37.7159 30.078 37.5369C31.301 36.9599 31.886 34.6369 31.08 34.1979Z" fill="url(#paint1_radial)"/>
<path d="M48.326 39.867C48.566 39.524 51.199 39.649 51.821 39.834C53.387 40.292 54.202 40.727 54.756 41.685C55 42.11 54.818 44.257 54.568 44.506C54.049 45.034 52.121 45.711 51.534 45.718C49.968 45.725 47.099 41.653 48.326 39.867Z" fill="#F9B700"/>
<path d="M47.763 43.916C48.626 45.292 51.381 45.928 51.839 45.691C52.276 45.467 51.907 42.552 51.451 41.748C51.063 41.064 49.157 39.718 48.326 39.867C47.858 39.951 47.063 42.353 47.763 43.916Z" fill="#F0A000"/>
<path opacity="0.9" d="M49.7331 43.975C49.6861 45 50.1401 45.769 49.3911 47.023C49.3061 47.166 50.4791 47.226 50.6371 46.946C51.3181 45.718 50.9231 45.038 51.0011 43.941C50.5801 43.96 50.1531 43.975 49.7331 43.975Z" fill="#E6A868"/>
<path d="M41.8279 47.591C41.8269 47.591 45.8249 50.154 48.1409 45.469C45.9419 48.038 43.7389 47.74 41.8279 47.591Z" fill="#DB800D"/>
<path d="M53.42 43.842C53.42 43.842 55.079 41.065 50.646 40.347C54.107 41.78 52.035 43.376 53.42 43.842Z" fill="#F9C739"/>
<path d="M41.0599 40.3881C41.3719 40.1801 42.0589 40.2261 42.5389 40.3881C42.9949 40.5401 43.7239 40.8441 44.4829 41.2101C44.5979 41.2651 44.5499 41.4931 44.6659 41.5511C44.7629 41.5981 44.7499 41.3441 44.8469 41.3931C45.3209 41.6381 45.8379 41.9261 46.2789 42.2101C46.3149 42.2311 46.3459 42.4671 46.3799 42.4871C46.4609 42.5411 46.5389 42.3801 46.6129 42.4291C47.0029 42.7011 47.2979 42.9541 47.3939 43.1501C47.5839 43.5281 47.4419 45.4411 47.2539 45.6651C46.8499 46.1411 45.9769 46.3981 45.5239 46.4021C44.3119 46.4091 39.1049 41.7091 41.0599 40.3881Z" fill="#8C4E2A"/>
<path d="M39.787 44.54C40.455 45.768 45.405 46.592 45.757 46.378C46.097 46.179 46.515 44.153 46.114 43.452C46.057 43.348 45.202 44.835 45.231 44.644C45.406 43.567 45.608 43.081 45.439 42.951C45.309 42.852 44.961 43.397 44.557 44.087C44.487 44.203 45.065 42.488 44.934 42.402C44.781 42.3 43.987 41.885 43.829 41.783C43.677 41.689 43.49 42.661 43.173 43.232C42.963 43.608 43.536 41.509 43.423 41.441C43.323 41.385 42.184 44.039 42.221 43.866C42.562 42.22 42.849 41.084 42.747 41.027C42.058 40.659 41.366 40.371 41.143 40.387C40.203 40.473 39.552 43.995 39.787 44.54Z" fill="#9E582F"/>
<path d="M40.979 44.5829C40.979 44.5829 41.885 43.9549 42.126 41.0129C41.168 43.0619 40.979 44.5829 40.979 44.5829Z" fill="#AB663E"/>
<path d="M40.4409 43.619C40.4409 43.619 41.0589 43.188 41.2229 41.177C40.5689 42.577 40.4409 43.619 40.4409 43.619Z" fill="#AB663E"/>
<path d="M43.5359 45.394C43.5359 45.394 44.1549 44.963 44.3189 42.952C43.6629 44.351 43.5359 45.394 43.5359 45.394Z" fill="#AB663E"/>
<path d="M44.3191 45.8041C44.3191 45.8041 44.8151 45.4711 44.9851 43.9771C44.4401 45.0291 44.3191 45.8041 44.3191 45.8041Z" fill="#AB663E"/>
<path d="M38.8711 42.4139C38.6271 42.6209 37.8851 43.0369 37.6231 43.0739C36.9171 43.1729 34.5901 43.4139 33.6741 42.8249C32.7601 42.2369 31.5341 39.6279 31.4871 38.5129C31.4441 37.5299 32.7821 35.4719 33.6721 34.8419C33.9851 34.6149 35.0591 34.2879 35.6761 34.2689C36.7521 34.2319 40.2621 41.2349 38.8711 42.4139Z" fill="#D13200"/>
<path d="M40.7181 38.668C40.7671 39.781 39.8221 41.89 38.8711 42.414C37.9201 42.938 35.4751 42.856 34.5601 42.269C33.6441 41.681 32.4931 39.449 32.5281 38.332C32.5631 37.219 34.0571 34.746 35.0631 34.352C35.6751 34.111 37.9191 34.411 38.7841 35.072C39.6531 35.734 40.6671 37.554 40.7181 38.668Z" fill="#FF6A00"/>
<path opacity="0.9" d="M30.9759 37.7C32.0179 37.054 32.5869 36.096 34.1629 35.982C34.3439 35.969 33.8929 34.791 33.5439 34.826C32.0189 34.989 31.5159 35.83 30.3879 36.494C30.5909 36.893 30.7909 37.293 30.9759 37.7Z" fill="#E6A868"/>
<path d="M39.9561 38.7139C39.9571 38.7159 39.6111 34.2419 35.1941 35.3729C39.2161 35.6509 38.4171 38.7469 39.9561 38.7139Z" fill="#FF9900"/>
<path d="M28.1299 48.918C28.1279 48.916 29.4259 53.781 34.6929 51.602C31.0689 52.153 29.5399 50.372 28.1299 48.918Z" fill="#DB800D"/>
<path opacity="0.9" d="M40.6641 45.964C37.8631 46.106 37.4061 43.703 34.3101 43.813C33.9161 43.828 33.3071 45.308 33.7051 45.336C37.0591 45.593 37.4041 47.57 40.0581 47.53C40.4911 47.521 40.8861 45.95 40.6641 45.964Z" fill="#E6A868"/>
<path opacity="0.9" d="M41.625 50.646C42.91 50.213 43.591 49.207 45.562 49.64C45.787 49.691 45.188 48.029 44.752 47.947C42.851 47.593 42.25 48.478 40.855 48.899C41.122 49.479 41.382 50.061 41.625 50.646Z" fill="#E6A868"/>
<path d="M30.8411 49.992C30.3481 49.509 30.1871 49.267 30.1251 48.786C29.9881 47.74 30.7721 45.962 31.5111 45.251C32.1621 44.622 34.3711 44.383 35.3311 44.67C35.6721 44.771 36.5311 45.3801 36.9131 45.8311C37.5751 46.6211 31.0221 50.166 30.8411 49.992Z" fill="#D13200"/>
<path d="M30.7481 49.837C30.6121 48.788 31.4631 46.573 32.2521 45.925C33.0411 45.276 35.6231 44.903 36.4951 45.422C37.0181 45.739 38.1431 47.608 38.2031 48.658C38.2621 49.713 30.8891 50.881 30.7481 49.837Z" fill="#FF6A00"/>
<path d="M32.0651 47.296C32.2921 48.328 34.8341 47.141 35.2531 46.121C35.5421 45.425 31.8451 46.295 32.0651 47.296Z" fill="#FF9900"/>
<path d="M24.547 45.6741C24.28 45.4451 23.122 45.1261 22.659 45.2281C21.803 45.4201 19.854 46.2331 19.489 47.2181C19.326 47.6521 19.468 50.0511 19.628 50.3031C19.971 50.8521 22.29 51.3601 22.677 51.3631C23.712 51.3721 25.933 46.8601 24.547 45.6741Z" fill="#F0A000"/>
<path d="M27.3081 49.116C26.7381 50.53 22.7811 51.582 22.4751 51.338C22.1871 51.109 21.5421 48.484 21.8851 47.675C22.2811 46.745 23.9031 45.434 24.4201 45.603C24.9121 45.766 27.3081 48.522 27.3081 49.116Z" fill="#F9B700"/>
<path d="M20.4829 49.5199C20.4819 49.5199 18.7529 46.4389 23.3699 45.6429C19.7669 47.2309 21.9229 49.0019 20.4829 49.5199Z" fill="#F0B100"/>
<path d="M24.4121 46.224C24.5581 47.726 25.3251 48.597 25.3251 48.597C25.3251 48.597 26.0421 47.851 24.4121 46.224Z" fill="#F9C739"/>
</g>
<defs>
<linearGradient id="paint0_linear" x1="18.0288" y1="22.3888" x2="48.0253" y2="52.6819" gradientUnits="userSpaceOnUse">
<stop stop-color="#783E23"/>
<stop offset="0.1417" stop-color="#8F4C1C"/>
<stop offset="0.367" stop-color="#AD5F12"/>
<stop offset="0.5885" stop-color="#C36C0B"/>
<stop offset="0.8024" stop-color="#D07407"/>
<stop offset="1" stop-color="#D47706"/>
</linearGradient>
<radialGradient id="paint1_radial" cx="0" cy="0" r="1" gradientUnits="userSpaceOnUse" gradientTransform="translate(14.928 30.3594) scale(16.7787 17.5371)">
<stop offset="0.3697" stop-color="white" stop-opacity="0"/>
<stop offset="1" stop-color="#1A1626" stop-opacity="0.3"/>
</radialGradient>
<clipPath id="clip0">
<rect width="64" height="64" fill="white"/>
</clipPath>
</defs>
</svg>
