<svg width="64" height="64" viewBox="0 0 64 64" fill="none" xmlns="http://www.w3.org/2000/svg">
<path d="M16.195 4.408C19.36 1.2 44.633 1.194 47.804 4.408C49.254 5.878 59.906 31.284 32 38.963C4.09397 31.284 14.746 5.878 16.195 4.408Z" fill="#C5D7E8"/>
<path d="M16.93 5.125C19.705 2.311 44.297 2.314 47.082 5.136C47.533 5.662 48.908 8.848 49.576 12.912H14.387C15.045 8.705 16.471 5.655 16.93 5.125Z" fill="#E6EBEF"/>
<path d="M27.8401 56.44C29.8871 54.372 30.3711 53.607 30.5741 52.401C31.2151 48.618 30.5741 38.003 30.5741 38.003H33.4241C33.4241 38.003 32.9441 48.593 33.4241 52.401C33.5781 53.615 33.8671 54.127 36.1581 56.44C40.3941 56.86 43.3981 57.901 43.3981 59.12C43.3981 60.71 38.2971 62 32.0001 62C25.7031 62 20.6001 60.71 20.6001 59.12C20.6001 57.901 23.6041 56.86 27.8401 56.44Z" fill="#C5D7E8"/>
<path d="M14.383 12.912H49.574C49.89 14.406 50.049 16.326 50.049 17.297C50.049 31.284 36.75 36.74 32 36.74C27.252 36.74 13.949 31.284 13.949 17.298C13.949 15.887 14.178 14.112 14.383 12.912Z" fill="url(#paint0_radial)"/>
<path opacity="0.3" d="M32.4749 61.04C40.2449 61.04 21.6349 60.024 25.8889 57.945C29.3579 56.252 22.0139 58.05 22.0139 58.942C22.0139 59.918 26.0629 61.04 32.4749 61.04Z" fill="#E6EBEF"/>
<path opacity="0.3" d="M33.311 54.241C35.731 57.257 37.778 58.713 37.403 58.752C33.748 59.135 32.207 52.865 33.311 54.241Z" fill="#93B0C0"/>
<path d="M14.385 12.864C14.385 14.121 22.27 15.141 31.998 15.141C41.728 15.141 49.576 14.12 49.576 12.864C49.576 11.994 41.615 11.046 31.998 11.046C22.158 11.046 14.385 11.993 14.385 12.864Z" fill="#CC0100"/>
<path opacity="0.7" d="M17.1761 8.27C17.1761 8.27 18.6511 8.952 21.1121 9.401C21.1121 9.401 17.9671 17.665 21.8111 26.79C21.8111 26.79 19.2391 26.366 17.5811 25.87C17.5801 25.869 13.6131 18.75 17.1761 8.27Z" fill="url(#paint1_linear)"/>
<path d="M16 5.38C16 6.791 23.164 7.94 32 7.94C40.834 7.94 47.998 6.792 47.998 5.38C47.998 4.378 40.779 2.82 32 2.82C23.105 2.82 16 4.378 16 5.38Z" fill="#C5D7E8"/>
<path d="M16.969 4.828C16.969 5.739 23.676 6.773 31.979 6.773C40.282 6.773 47.032 5.741 47.032 4.828C47.032 3.986 40.249 2.678 32.001 2.678C23.646 2.678 16.969 3.986 16.969 4.828Z" fill="#F5F5F5"/>
<defs>
<radialGradient id="paint0_radial" cx="0" cy="0" r="1" gradientUnits="userSpaceOnUse" gradientTransform="translate(32.0615 11.5997) rotate(180) scale(24.9114 25.5068)">
<stop offset="0.1394" stop-color="#C40505"/>
<stop offset="0.2557" stop-color="#BE0505"/>
<stop offset="0.4142" stop-color="#AC0505"/>
<stop offset="0.5972" stop-color="#900505"/>
<stop offset="0.7984" stop-color="#680404"/>
<stop offset="1" stop-color="#380404"/>
</radialGradient>
<linearGradient id="paint1_linear" x1="18.7506" y1="26.7891" x2="18.7506" y2="8.2695" gradientUnits="userSpaceOnUse">
<stop stop-color="white" stop-opacity="0"/>
<stop offset="1" stop-color="white"/>
</linearGradient>
</defs>
</svg>
