<svg width="64" height="64" viewBox="0 0 64 64" fill="none" xmlns="http://www.w3.org/2000/svg">
<path d="M17.028 16.626C17.068 14.306 17.91 7.35498 17.91 7.35498H33.044L31.997 22.543C31.997 22.543 30.242 28.417 29.068 38.326C28.372 44.212 27.833 62 27.833 62H17.694C17.694 62 16.835 27.969 17.028 16.626Z" fill="url(#paint0_linear)"/>
<path d="M46.9729 16.626C46.9329 14.306 46.0909 7.35498 46.0909 7.35498H32.0029V22.543C32.0029 22.543 33.7599 28.417 34.9339 38.326C35.6309 44.212 36.1679 62 36.1679 62H46.3059C46.3059 62 47.1649 27.969 46.9729 16.626Z" fill="url(#paint1_linear)"/>
<path d="M17.028 16.626C17.068 14.306 17.91 7.35498 17.91 7.35498H33.044L31.997 22.543C31.997 22.543 30.242 28.417 29.068 38.326C28.372 44.212 27.833 62 27.833 62H17.694C17.694 62 16.835 27.969 17.028 16.626Z" fill="url(#paint2_radial)"/>
<path d="M46.972 16.626C46.932 14.306 46.09 7.35502 46.09 7.35502L32 7.21802L32.003 22.545C32.003 22.545 33.759 28.419 34.933 38.328C35.629 44.212 36.167 62 36.167 62H46.306C46.306 62 47.164 27.969 46.972 16.626Z" fill="url(#paint3_radial)"/>
<path d="M17.0281 16.308L17.9101 7.35602H25.6661C26.1401 9.96302 22.7081 16.76 17.0281 16.308Z" fill="url(#paint4_linear)"/>
<path d="M38.335 7.35602H46.091L46.973 16.308C41.292 16.76 37.86 9.96302 38.335 7.35602Z" fill="url(#paint5_linear)"/>
<path d="M27.8511 59.751H17.9131V60.027H27.8511V59.751Z" fill="url(#paint6_linear)"/>
<path d="M46.0879 59.751H36.1489V60.027H46.0879V59.751Z" fill="url(#paint7_linear)"/>
<path d="M46.0909 7.35602C45.1209 8.43302 18.9069 8.46302 17.9099 7.35602L18.2559 3.10802C19.7789 1.62202 44.2399 1.63802 45.7459 3.10802L46.0909 7.35602Z" fill="#004670"/>
<path d="M18.488 3.30802C20.024 1.84802 43.954 1.82802 45.513 3.30802C46.805 4.53202 17.186 4.54202 18.488 3.30802Z" fill="#00395C"/>
<path d="M33.61 7.24702C34.1589 7.24702 34.604 6.80558 34.604 6.26102C34.604 5.71647 34.1589 5.27502 33.61 5.27502C33.061 5.27502 32.616 5.71647 32.616 6.26102C32.616 6.80558 33.061 7.24702 33.61 7.24702Z" fill="#CFD8DD"/>
<path d="M17.0281 16.689V16.564C22.5091 16.564 25.5581 11.591 25.9731 8.06L26.0991 8.075C25.6781 11.651 22.5861 16.689 17.0281 16.689Z" fill="#004670"/>
<path d="M46.9731 16.689C41.4131 16.689 38.3231 11.651 37.9031 8.075L38.0291 8.06C38.4421 11.591 41.4911 16.564 46.9731 16.564V16.689Z" fill="#004670"/>
<path d="M32.064 20.896V4.25897H32.19V20.76C32.94 20.687 35.029 20.208 35.029 17.188V8.17497H35.155V17.188C35.155 20.496 32.637 20.853 32.132 20.891L32.064 20.896Z" fill="#004670"/>
<path d="M27.755 8.067H26.307C26.163 6.057 26.437 4.229 26.437 4.229H27.852C27.852 4.229 27.619 6.261 27.755 8.067Z" fill="#00568A"/>
<path d="M20.0651 7.76803L18.9761 7.61903C18.9251 5.27503 19.2901 3.72803 19.2901 3.72803L20.3791 3.87703C20.3791 3.87703 20.0781 6.14803 20.0651 7.76803Z" fill="#00568A"/>
<path d="M36.0589 8.067H37.5069C37.6509 6.057 37.3769 4.229 37.3769 4.229H35.9619C35.9619 4.229 36.1949 6.261 36.0589 8.067Z" fill="#00568A"/>
<path d="M43.9439 7.76803L45.0329 7.61903C45.0839 5.27503 44.7189 3.72803 44.7189 3.72803L43.6299 3.87703C43.6299 3.87703 43.9319 6.14803 43.9439 7.76803Z" fill="#00568A"/>
<path d="M31.9999 4.19102C28.2199 4.23102 18.7639 4.13802 18.2349 3.28302L18.2229 3.44402C19.5659 4.41502 30.6449 4.33102 31.9999 4.31602C32.2599 4.31902 32.8869 4.32402 33.7429 4.32402C37.3639 4.32402 44.6719 4.22902 45.7709 3.44602L45.7599 3.29102C45.1779 4.13802 35.7809 4.23202 31.9999 4.19102Z" fill="#00568A"/>
<path d="M31.9989 8.04698C26.5399 8.11898 18.8369 7.95698 17.9409 7.23998L17.9299 7.38098C19.5919 8.31198 30.6279 8.19098 31.9979 8.17198C32.3329 8.17698 33.2649 8.18698 34.5079 8.18698C38.3779 8.18698 44.8639 8.08298 46.0779 7.37098L46.0679 7.22998C45.2289 7.95598 37.4839 8.11798 31.9989 8.04698Z" fill="#00568A"/>
<defs>
<linearGradient id="paint0_linear" x1="33.044" y1="34.6777" x2="16.999" y2="34.6777" gradientUnits="userSpaceOnUse">
<stop stop-color="#004B78"/>
<stop offset="1" stop-color="#0176AB"/>
</linearGradient>
<linearGradient id="paint1_linear" x1="32.0033" y1="34.6777" x2="47.0009" y2="34.6777" gradientUnits="userSpaceOnUse">
<stop stop-color="#004B78"/>
<stop offset="1" stop-color="#0176AB"/>
</linearGradient>
<radialGradient id="paint2_radial" cx="0" cy="0" r="1" gradientUnits="userSpaceOnUse" gradientTransform="translate(23.4907 34.1806) rotate(-170.415) scale(10.641 28.1554)">
<stop stop-color="#EBF9FF" stop-opacity="0.3"/>
<stop offset="1" stop-color="#EBF9FF" stop-opacity="0"/>
</radialGradient>
<radialGradient id="paint3_radial" cx="0" cy="0" r="1" gradientUnits="userSpaceOnUse" gradientTransform="translate(40.9231 34.1169) rotate(-9.58545) scale(10.6323 28.1325)">
<stop stop-color="#EBF9FF" stop-opacity="0.3"/>
<stop offset="1" stop-color="#EBF9FF" stop-opacity="0"/>
</radialGradient>
<linearGradient id="paint4_linear" x1="17.0279" y1="11.8428" x2="25.7091" y2="11.8428" gradientUnits="userSpaceOnUse">
<stop stop-color="#004B78" stop-opacity="0"/>
<stop offset="1" stop-color="#004B78"/>
</linearGradient>
<linearGradient id="paint5_linear" x1="38.291" y1="11.8428" x2="46.9727" y2="11.8428" gradientUnits="userSpaceOnUse">
<stop stop-color="#004B78"/>
<stop offset="1" stop-color="#004B78" stop-opacity="0"/>
</linearGradient>
<linearGradient id="paint6_linear" x1="17.9127" y1="59.8887" x2="27.8502" y2="59.8887" gradientUnits="userSpaceOnUse">
<stop stop-color="#004B78" stop-opacity="0"/>
<stop offset="1" stop-color="#004B78"/>
</linearGradient>
<linearGradient id="paint7_linear" x1="46.0888" y1="59.8892" x2="36.1493" y2="59.8892" gradientUnits="userSpaceOnUse">
<stop stop-color="#004B78" stop-opacity="0"/>
<stop offset="1" stop-color="#004B78"/>
</linearGradient>
</defs>
</svg>
