<svg width="64" height="64" viewBox="0 0 64 64" fill="none" xmlns="http://www.w3.org/2000/svg">
<path d="M64 41.765C64 41.765 64 31.287 53.334 34.188C52.885 34.321 51.51 34.122 51.51 34.122L50.324 40.067C50.336 40.066 57.418 32.335 64 41.765Z" fill="url(#paint0_linear)"/>
<path d="M60.5551 45.956C63.3501 44.102 61.4611 40.807 61.4611 40.807C61.4611 45.934 49.8031 47.973 46.2501 50.544C44.1501 52.717 45.6311 55.85 60.5551 45.956Z" fill="url(#paint1_linear)"/>
<path d="M50.3359 41.919L52.0739 41.5C52.0739 41.5 52.3609 39.802 53.7499 38.522C55.5199 36.889 61.4939 37.241 61.4939 41.224C61.4939 47.787 49.5039 49.803 45.9409 52.385C44.4469 53.466 42.7419 56.818 42.7419 56.818C42.7419 56.818 44.0309 57.073 44.3199 56.818C49.7599 52.177 63.9999 50.246 63.9999 41.566C63.9999 37.32 59.5839 34.079 53.3339 36.393C52.8959 36.56 51.1989 36.393 51.1989 36.393L50.3359 41.919Z" fill="url(#paint2_linear)"/>
<path d="M52.352 31.275H0C0 31.275 0.683 44.169 7.669 54.601C10.25 58.463 16.405 64 26.176 64C35.947 64 42.101 58.463 44.683 54.602C51.668 44.182 52.352 31.275 52.352 31.275Z" fill="url(#paint3_linear)"/>
<path d="M26.176 19.85C40.633 19.85 52.351 24.898 52.351 31.121C52.351 37.348 43.476 43.496 26.176 43.496C8.875 43.496 0 37.348 0 31.121C0 24.897 11.719 19.85 26.176 19.85Z" fill="#E6EBEF"/>
<path d="M26.176 24.869C37.494 24.869 46.933 28.485 49.152 33.042C49.47 32.412 49.642 31.706 49.642 30.989C49.642 25.441 39.134 20.954 26.176 20.954C13.217 20.954 2.70898 25.441 2.70898 30.989C2.70898 31.695 2.87998 32.379 3.19998 33.042C5.41898 28.485 14.858 24.869 26.176 24.869Z" fill="url(#paint4_linear)"/>
<path d="M26.1762 40.807C37.4942 40.807 46.9332 37.596 49.1522 33.042C46.9432 28.485 37.4942 24.869 26.1762 24.869C14.8582 24.869 5.4192 28.485 3.2002 33.042C5.4192 37.596 14.8582 40.807 26.1762 40.807Z" fill="url(#paint5_radial)"/>
<path opacity="0.6" d="M26.0111 24.263C26.0111 24.263 28.7641 19.84 22.8531 13.742C16.3681 7.035 26.0111 4.454 26.0111 0C26.0111 0 27.5681 1.772 25.3921 5.977C22.2991 11.921 35.1951 12.869 26.0111 24.263Z" fill="url(#paint6_linear)"/>
<path opacity="0.6" d="M17.7869 23.941C17.7869 23.941 19.8139 20.833 15.4189 16.287C10.6409 11.348 17.7869 9.53902 17.7869 6.29602C17.7869 6.29602 18.9489 7.58802 17.3179 10.642C15.0029 14.965 24.6779 15.647 17.7869 23.941Z" fill="url(#paint7_linear)"/>
<path opacity="0.6" d="M34.564 6.29602C34.564 6.29602 32.559 9.42902 36.933 13.95C41.71 18.891 34.564 20.7 34.564 23.941C34.564 23.941 33.402 22.652 35.033 19.595C37.338 15.272 27.664 14.579 34.564 6.29602Z" fill="url(#paint8_linear)"/>
<defs>
<linearGradient id="paint0_linear" x1="50.3242" y1="37.7227" x2="64" y2="37.7227" gradientUnits="userSpaceOnUse">
<stop offset="0.0909" stop-color="#B3C2C6"/>
<stop offset="0.2196" stop-color="#C6D1D5"/>
<stop offset="0.4205" stop-color="#DDE4E8"/>
<stop offset="0.5455" stop-color="#E6EBEF"/>
</linearGradient>
<linearGradient id="paint1_linear" x1="45.4894" y1="46.7988" x2="62.0851" y2="46.7988" gradientUnits="userSpaceOnUse">
<stop stop-color="#B3C3C7"/>
<stop offset="0.1175" stop-color="#B8C7CB"/>
<stop offset="1" stop-color="#DAE5E8"/>
</linearGradient>
<linearGradient id="paint2_linear" x1="46.3944" y1="44.291" x2="61.267" y2="50.6915" gradientUnits="userSpaceOnUse">
<stop stop-color="#B3C2C6"/>
<stop offset="0.2831" stop-color="#C6D1D5"/>
<stop offset="0.7251" stop-color="#DDE4E8"/>
<stop offset="1" stop-color="#E6EBEF"/>
</linearGradient>
<linearGradient id="paint3_linear" x1="0" y1="47.6377" x2="52.3516" y2="47.6377" gradientUnits="userSpaceOnUse">
<stop stop-color="#E6EBEF"/>
<stop offset="0.2857" stop-color="#E2E8EC"/>
<stop offset="0.5605" stop-color="#D7DFE3"/>
<stop offset="0.83" stop-color="#C3CFD3"/>
<stop offset="1" stop-color="#B3C2C6"/>
</linearGradient>
<linearGradient id="paint4_linear" x1="2.70948" y1="26.998" x2="49.6426" y2="26.998" gradientUnits="userSpaceOnUse">
<stop stop-color="#B3C2C6"/>
<stop offset="0.2515" stop-color="#C0CCD0"/>
<stop offset="0.6182" stop-color="#CBD5DA"/>
<stop offset="1" stop-color="#CFD8DD"/>
</linearGradient>
<radialGradient id="paint5_radial" cx="0" cy="0" r="1" gradientUnits="userSpaceOnUse" gradientTransform="translate(26.3535 36.0519) scale(24.9238 11.4747)">
<stop stop-color="#733B23"/>
<stop offset="0.2676" stop-color="#6E3821"/>
<stop offset="0.5658" stop-color="#61311C"/>
<stop offset="0.8775" stop-color="#4B2414"/>
<stop offset="1" stop-color="#401E10"/>
</radialGradient>
<linearGradient id="paint6_linear" x1="24.9908" y1="24.2627" x2="24.9908" y2="0" gradientUnits="userSpaceOnUse">
<stop stop-color="#A9B0B3"/>
<stop offset="0.3157" stop-color="#BDC4C7"/>
<stop offset="0.9614" stop-color="#EFF6FC"/>
<stop offset="1" stop-color="#F2F9FF"/>
</linearGradient>
<linearGradient id="paint7_linear" x1="17.0404" y1="23.9414" x2="17.0404" y2="6.29592" gradientUnits="userSpaceOnUse">
<stop stop-color="#A9B0B3"/>
<stop offset="0.3157" stop-color="#BDC4C7"/>
<stop offset="0.9614" stop-color="#EFF6FC"/>
<stop offset="1" stop-color="#F2F9FF"/>
</linearGradient>
<linearGradient id="paint8_linear" x1="35.3086" y1="23.9414" x2="35.3086" y2="6.29592" gradientUnits="userSpaceOnUse">
<stop stop-color="#A9B0B3"/>
<stop offset="0.3157" stop-color="#BDC4C7"/>
<stop offset="0.9614" stop-color="#EFF6FC"/>
<stop offset="1" stop-color="#F2F9FF"/>
</linearGradient>
</defs>
</svg>
