<svg width="64" height="64" viewBox="0 0 64 64" fill="none" xmlns="http://www.w3.org/2000/svg">
<path d="M31.9999 4C31.9999 4 31.9999 7.387 23.6309 10.9C16.0709 14.073 6.69093 21.503 4.36993 32.617C1.66893 46.551 14.0389 57.847 31.9999 57.847C49.9609 57.846 62.3319 46.551 59.6299 32.618C57.3099 21.504 47.9289 14.074 40.3679 10.9C31.9999 7.387 31.9999 4 31.9999 4Z" fill="url(#paint0_radial)"/>
<path d="M48.336 50.217C51.882 47.268 54.255 43.074 54.876 38.447C55.191 36.142 55.107 33.77 54.616 31.43C54.152 29.113 53.365 26.806 52.291 24.652C50.145 20.327 46.884 16.516 42.946 13.588C41.962 12.855 40.928 12.186 39.858 11.579C38.785 10.997 37.643 10.405 36.608 9.698C35.563 8.998 34.57 8.208 33.718 7.278C32.896 6.351 32.116 5.26 32 4C32.195 5.244 33.028 6.259 33.887 7.115C34.775 7.972 35.794 8.681 36.857 9.303C37.923 9.937 39.033 10.424 40.182 10.958C41.317 11.51 42.42 12.13 43.478 12.82C47.711 15.578 51.363 19.311 53.936 23.769C56.467 28.213 58.064 33.403 57.662 38.737C57.465 41.388 56.776 44.029 55.608 46.46C54.454 48.885 52.793 51.125 50.876 52.954L48.336 50.217Z" fill="#4D1808"/>
<path d="M44.038 50.397C46.904 47.278 48.596 43.154 49.153 38.818C49.723 34.482 49.127 29.955 47.736 25.691C46.333 21.437 44.042 17.42 40.903 14.144C40.119 13.325 39.277 12.562 38.382 11.865C37.496 11.186 36.484 10.561 35.605 9.787C34.721 9.025 33.905 8.175 33.247 7.21C32.604 6.249 32.063 5.161 32 4C32.143 5.151 32.745 6.177 33.435 7.073C34.14 7.969 34.99 8.741 35.898 9.424C36.803 10.119 37.801 10.641 38.793 11.298C39.765 11.954 40.688 12.684 41.553 13.475C45.026 16.639 47.705 20.659 49.49 25.046C50.383 27.242 51.05 29.534 51.488 31.876C51.931 34.242 52.089 36.652 51.943 39.078C51.662 43.896 50.055 48.844 46.92 52.773L44.038 50.397Z" fill="#4D1808"/>
<path d="M39.204 50.696C41.238 47.331 42.299 43.304 42.751 39.218C43.203 35.114 42.982 30.912 42.268 26.783C41.539 22.668 40.289 18.596 38.228 14.932C37.708 14.02 37.139 13.135 36.496 12.31C36.174 11.898 35.836 11.497 35.474 11.122C35.103 10.736 34.736 10.321 34.404 9.895C33.082 8.194 32.082 6.15 32 4C32.24 6.134 33.367 8.046 34.76 9.596C35.114 9.988 35.482 10.348 35.877 10.703C36.285 11.067 36.666 11.458 37.031 11.861C37.761 12.669 38.417 13.54 39.02 14.442C41.425 18.07 43.024 22.18 44.092 26.394C45.143 30.613 45.704 34.994 45.543 39.414C45.374 43.81 44.576 48.333 42.485 52.475L39.204 50.696Z" fill="#4D1808"/>
<path d="M33.714 51.19C34.684 47.466 35.163 43.525 35.451 39.578C35.731 35.621 35.771 31.636 35.622 27.648C35.466 23.665 35.135 19.676 34.423 15.753C34.239 14.774 34.032 13.799 33.779 12.838C33.544 11.866 33.179 10.969 32.866 9.981C32.282 8.031 31.983 6.011 32 4C32.139 6.004 32.593 7.978 33.307 9.829C33.67 10.73 34.137 11.669 34.449 12.634C34.784 13.595 35.07 14.569 35.333 15.549C36.365 19.473 37.012 23.482 37.484 27.506C37.948 31.529 38.222 35.588 38.251 39.664C38.267 43.74 38.099 47.846 37.364 51.981L33.714 51.19Z" fill="#4D1808"/>
<path d="M15.6649 50.217C12.1189 47.268 9.74589 43.074 9.12389 38.447C8.80989 36.142 8.89289 33.77 9.38389 31.43C9.84889 29.113 10.6359 26.806 11.7089 24.652C13.8549 20.327 17.1169 16.516 21.0549 13.588C22.0379 12.855 23.0719 12.186 24.1419 11.579C25.2149 10.997 26.3579 10.405 27.3919 9.698C28.4369 8.998 29.4309 8.208 30.2819 7.278C31.1039 6.351 31.8839 5.26 31.9999 4C31.8049 5.244 30.9729 6.259 30.1129 7.115C29.2249 7.972 28.2079 8.681 27.1429 9.303C26.0769 9.937 24.9679 10.424 23.8189 10.958C22.6839 11.51 21.5799 12.13 20.5229 12.82C16.2899 15.578 12.6369 19.311 10.0649 23.769C7.53289 28.213 5.93589 33.403 6.33889 38.737C6.53489 41.388 7.22489 44.029 8.39289 46.46C9.54689 48.885 11.2069 51.125 13.1249 52.954L15.6649 50.217Z" fill="#4D1808"/>
<path d="M19.962 50.397C17.097 47.278 15.405 43.154 14.847 38.818C14.277 34.482 14.874 29.955 16.265 25.691C17.667 21.437 19.958 17.42 23.098 14.144C23.881 13.325 24.723 12.562 25.619 11.865C26.505 11.186 27.516 10.561 28.395 9.787C29.279 9.025 30.095 8.175 30.754 7.21C31.396 6.249 31.937 5.161 32 4C31.857 5.151 31.255 6.177 30.565 7.073C29.86 7.969 29.01 8.741 28.102 9.424C27.198 10.119 26.199 10.641 25.207 11.298C24.236 11.954 23.313 12.684 22.447 13.475C18.974 16.639 16.295 20.659 14.511 25.046C13.618 27.242 12.95 29.534 12.513 31.876C12.07 34.242 11.912 36.652 12.058 39.078C12.338 43.896 13.945 48.844 17.081 52.773L19.962 50.397Z" fill="#4D1808"/>
<path d="M24.7959 50.696C22.7619 47.331 21.7019 43.304 21.2489 39.218C20.7969 35.114 21.0189 30.912 21.7329 26.783C22.4619 22.668 23.7109 18.596 25.7739 14.932C26.2929 14.02 26.8609 13.135 27.5049 12.31C27.8259 11.898 28.1639 11.497 28.5259 11.122C28.8979 10.736 29.2639 10.321 29.5959 9.895C30.9189 8.194 31.9179 6.15 31.9999 4C31.7609 6.134 30.6329 8.046 29.2399 9.596C28.8859 9.988 28.5179 10.348 28.1229 10.703C27.7159 11.067 27.3349 11.458 26.9699 11.861C26.2399 12.669 25.5839 13.54 24.9809 14.442C22.5759 18.07 20.9759 22.18 19.9079 26.394C18.8579 30.613 18.2969 34.994 18.4569 39.414C18.6269 43.81 19.4249 48.333 21.5159 52.475L24.7959 50.696Z" fill="#4D1808"/>
<path d="M30.286 51.19C29.317 47.466 28.838 43.525 28.55 39.578C28.27 35.621 28.23 31.636 28.378 27.648C28.535 23.665 28.866 19.676 29.578 15.753C29.762 14.774 29.968 13.799 30.221 12.838C30.456 11.866 30.822 10.969 31.134 9.981C31.718 8.031 32.017 6.011 32 4C31.861 6.004 31.407 7.978 30.694 9.829C30.33 10.73 29.864 11.669 29.551 12.634C29.217 13.595 28.93 14.569 28.667 15.549C27.635 19.473 26.988 23.482 26.516 27.506C26.053 31.529 25.778 35.588 25.75 39.664C25.734 43.74 25.901 47.846 26.637 51.981L30.286 51.19Z" fill="#4D1808"/>
<path d="M56.9779 27.775C59.9149 43.306 4.08588 43.306 7.02288 27.775C9.95788 12.244 54.0419 12.244 56.9779 27.775Z" fill="url(#paint1_radial)"/>
<path d="M32.023 51.721C26.664 54.188 20.939 48.065 16.045 49.854C12.246 51.202 6.66405 46.677 4.99805 42.41C7.84005 52.519 18.578 60 32 60C45.423 60 56.162 52.519 59.001 42.409C55.814 47.716 52.138 44.955 48.902 49.193C46.044 52.783 37.291 49.215 32.023 51.721Z" fill="url(#paint2_radial)"/>
<defs>
<radialGradient id="paint0_radial" cx="0" cy="0" r="1" gradientUnits="userSpaceOnUse" gradientTransform="translate(32.194 41.8438) scale(36.087 26.3899)">
<stop offset="0.2424" stop-color="#4D1808"/>
<stop offset="0.4349" stop-color="#541E0D"/>
<stop offset="0.7138" stop-color="#672E1D"/>
<stop offset="1" stop-color="#824532"/>
</radialGradient>
<radialGradient id="paint1_radial" cx="0" cy="0" r="1" gradientUnits="userSpaceOnUse" gradientTransform="translate(31.9985 27.7783) scale(25.5248 11.4562)">
<stop offset="0.1939" stop-color="#A84D31"/>
<stop offset="0.8848" stop-color="#A84D31" stop-opacity="0"/>
</radialGradient>
<radialGradient id="paint2_radial" cx="0" cy="0" r="1" gradientUnits="userSpaceOnUse" gradientTransform="translate(31.9992 42.21) scale(23.7499 16.9429)">
<stop offset="0.297" stop-color="#784825"/>
<stop offset="0.4543" stop-color="#7B4A27"/>
<stop offset="0.5748" stop-color="#85522D"/>
<stop offset="0.6832" stop-color="#955F38"/>
<stop offset="0.7844" stop-color="#AC7147"/>
<stop offset="0.8806" stop-color="#CA895B"/>
<stop offset="0.9718" stop-color="#EEA673"/>
<stop offset="1" stop-color="#FBB07B"/>
</radialGradient>
</defs>
</svg>
