<svg width="64" height="64" viewBox="0 0 64 64" fill="none" xmlns="http://www.w3.org/2000/svg">
<path d="M26.667 34.623H0C0 56.982 16.223 62 26.667 62C37.11 62 53.333 56.982 53.333 34.623H26.667Z" fill="url(#paint0_linear)"/>
<path d="M53.333 34.623C53.333 45.3 44.562 50.138 26.667 50.138C8.772 50.138 0 45.3 0 34.623H53.333Z" fill="url(#paint1_linear)"/>
<path d="M26.667 23.23C41.396 23.23 53.333 28.072 53.333 34.623C53.333 41.177 41.395 46.488 26.667 46.488C11.939 46.488 0 41.177 0 34.623C0 28.072 11.939 23.23 26.667 23.23Z" fill="#E6EBEF"/>
<path d="M26.6689 24.5859C12.9229 24.5859 1.77686 29.0819 1.77686 34.6229C1.77686 40.1669 12.9229 44.6629 26.6689 44.6629C40.4139 44.6629 51.5569 40.1669 51.5569 34.6229C51.5569 29.0819 40.4139 24.5859 26.6689 24.5859Z" fill="url(#paint2_linear)"/>
<path d="M26.6692 28.238C14.4692 28.238 4.32724 31.778 2.19824 36.45C4.32724 41.118 14.4692 44.663 26.6692 44.663C38.8662 44.663 49.0082 41.118 51.1382 36.45C49.0082 31.778 38.8692 28.238 26.6692 28.238Z" fill="url(#paint3_linear)"/>
<path d="M12.4299 24.591C12.3319 24.546 11.2899 24.959 10.4999 25.173C10.0749 25.287 9.56787 25.37 9.04787 25.527C8.58887 25.664 8.13187 25.899 7.64987 26.054C7.16787 26.209 6.64687 26.248 6.19087 26.406C5.67787 26.58 5.23287 26.849 4.82187 27.006C4.08287 27.287 3.20687 27.49 3.12287 27.61C2.98387 27.813 3.35187 28.308 3.42687 28.939C3.47387 29.335 3.50687 29.793 3.60587 30.259C3.69787 30.687 3.74287 31.147 3.86187 31.571C3.99087 32.025 4.20787 32.438 4.34587 32.818C4.54687 33.37 4.72587 33.827 4.89287 34.039C5.05987 34.253 5.54387 34.333 6.16387 34.299C6.54887 34.278 6.99087 34.132 7.48087 34.039C7.89187 33.96 8.33287 33.871 8.78487 33.752C9.20987 33.64 9.62487 33.469 10.0549 33.329C10.4859 33.19 10.9049 33.032 11.3139 32.875C11.7509 32.707 12.1739 32.561 12.5549 32.383C13.0059 32.171 13.4349 32.011 13.7569 31.803C14.2779 31.467 14.6309 31.148 14.6399 30.875C14.6469 30.623 14.5199 30.148 14.3399 29.579C14.2199 29.196 14.0689 28.767 13.8989 28.329C13.7379 27.921 13.4709 27.54 13.2899 27.142C13.0929 26.709 13.0189 26.241 12.8239 25.892C12.5119 25.337 12.6409 24.688 12.4299 24.591Z" fill="url(#paint4_linear)"/>
<path opacity="0.4" d="M9.09378 30.1931C9.53478 31.0271 10.5158 30.6921 11.0148 30.2481C11.5238 29.7961 8.78778 29.6121 9.09378 30.1931Z" fill="#1F2420"/>
<path opacity="0.4" d="M9.65718 29.125C10.5002 29.333 10.6282 28.73 10.4712 28.292C10.3142 27.846 9.06918 28.98 9.65718 29.125Z" fill="#1F2420"/>
<path opacity="0.4" d="M6.21704 28.957C7.06104 29.165 7.19004 28.563 7.03404 28.125C6.87604 27.679 5.62904 28.813 6.21704 28.957Z" fill="#1F2420"/>
<path opacity="0.4" d="M6.74501 29.7161C5.99301 30.0061 6.48001 30.5291 6.99701 30.7771C7.52401 31.0301 7.26801 29.5141 6.74501 29.7161Z" fill="#1F2420"/>
<path opacity="0.4" d="M11.103 27.9659C11.542 28.7989 12.527 28.4649 13.024 28.0199C13.53 27.5649 10.794 27.3839 11.103 27.9659Z" fill="#1F2420"/>
<path opacity="0.4" d="M12.7191 29.4929C13.5611 29.6989 13.6891 29.0969 13.5351 28.6599C13.3761 28.2139 12.1301 29.3479 12.7191 29.4929Z" fill="#1F2420"/>
<path opacity="0.4" d="M11.5039 29.1159C10.7559 29.4059 11.2409 29.9279 11.7579 30.1779C12.2849 30.4319 12.0269 28.9129 11.5039 29.1159Z" fill="#1F2420"/>
<path opacity="0.4" d="M11.192 25.355C11.476 25.897 12.113 25.679 12.437 25.39C12.768 25.097 10.992 24.979 11.192 25.355Z" fill="#1F2420"/>
<path opacity="0.4" d="M11.0211 27.1801C11.5661 27.3141 11.6491 26.9221 11.5461 26.6381C11.4441 26.3491 10.6391 27.0861 11.0211 27.1801Z" fill="#1F2420"/>
<path opacity="0.4" d="M7.84806 28.1709C8.39406 28.3059 8.47506 27.9139 8.37406 27.6309C8.27306 27.3409 7.46606 28.0779 7.84806 28.1709Z" fill="#1F2420"/>
<path opacity="0.4" d="M4.04587 28.951C4.58987 29.085 4.67287 28.694 4.57287 28.41C4.46887 28.12 3.66287 28.857 4.04587 28.951Z" fill="#1F2420"/>
<path opacity="0.4" d="M5.34679 30.726C5.89479 30.86 5.97579 30.47 5.87479 30.184C5.77079 29.895 4.96579 30.632 5.34679 30.726Z" fill="#1F2420"/>
<path opacity="0.4" d="M10.3609 29.666C10.9069 29.8 10.9889 29.41 10.8879 29.125C10.7839 28.835 9.97893 29.573 10.3609 29.666Z" fill="#1F2420"/>
<path opacity="0.4" d="M10.2651 27.939C10.8131 28.073 10.8941 27.682 10.7931 27.398C10.6911 27.108 9.88407 27.845 10.2651 27.939Z" fill="#1F2420"/>
<path opacity="0.4" d="M12.1881 26.2259C11.7031 26.4139 12.0171 26.7529 12.3511 26.9149C12.6951 27.0779 12.5281 26.0949 12.1881 26.2259Z" fill="#1F2420"/>
<path opacity="0.4" d="M8.66519 26.7251C8.18019 26.9121 8.49419 27.2501 8.82819 27.4131C9.17119 27.5761 9.00619 26.5921 8.66519 26.7251Z" fill="#1F2420"/>
<path opacity="0.4" d="M8.18182 30.086C7.69582 30.274 8.01182 30.612 8.34782 30.775C8.68882 30.938 8.52282 29.954 8.18182 30.086Z" fill="#1F2420"/>
<path opacity="0.4" d="M10.9981 26.164C10.5591 25.33 9.57315 25.664 9.07815 26.109C8.56815 26.562 11.3071 26.745 10.9981 26.164Z" fill="#1F2420"/>
<path opacity="0.4" d="M8.41177 26.1829C7.56877 25.9749 7.43977 26.5789 7.59577 27.0169C7.75377 27.4619 8.99777 26.3269 8.41177 26.1829Z" fill="#1F2420"/>
<path opacity="0.4" d="M10.0308 26.8651C9.18883 26.6571 9.05883 27.2611 9.21583 27.6981C9.37283 28.1451 10.6188 27.0101 10.0308 26.8651Z" fill="#1F2420"/>
<path opacity="0.4" d="M6.85393 27.8581C7.60493 27.5691 7.11693 27.0451 6.60093 26.7971C6.07393 26.5441 6.32993 28.0611 6.85393 27.8581Z" fill="#1F2420"/>
<path opacity="0.4" d="M6.09987 29.4651C5.66187 28.6331 4.67487 28.9671 4.17787 29.4121C3.67187 29.8661 6.40687 30.0491 6.09987 29.4651Z" fill="#1F2420"/>
<path opacity="0.4" d="M4.48178 27.5961C3.63978 27.3901 3.51278 27.9921 3.66778 28.4301C3.82578 28.8751 5.07078 27.7401 4.48178 27.5961Z" fill="#1F2420"/>
<path opacity="0.4" d="M5.33402 28.666C6.08302 28.375 5.59702 27.853 5.07802 27.604C4.55202 27.35 4.81002 28.867 5.33402 28.666Z" fill="#1F2420"/>
<path opacity="0.4" d="M8.54123 29.4521C9.32523 29.5331 9.21023 28.8431 8.91923 28.3831C8.62023 27.9141 7.99323 29.3961 8.54123 29.4521Z" fill="#1F2420"/>
<path opacity="0.4" d="M6.08779 31.5679C5.80479 31.0269 5.16679 31.2449 4.84379 31.5329C4.51379 31.8269 6.28779 31.9449 6.08779 31.5679Z" fill="#1F2420"/>
<path opacity="0.4" d="M4.65384 30.4509C4.10884 30.3169 4.02484 30.7089 4.12584 30.9939C4.22884 31.2829 5.03584 30.5459 4.65384 30.4509Z" fill="#1F2420"/>
<path opacity="0.4" d="M7.67991 29.3871C8.16391 29.1991 7.84791 28.8601 7.51391 28.6991C7.17091 28.5331 7.33891 29.5191 7.67991 29.3871Z" fill="#1F2420"/>
<path d="M19.313 6.95C18.6 6.968 18.594 8.167 19.31 8.178C63.955 8.9 63.995 8.899 63.995 8.899L64 6C64 6 64 6 19.313 6.95Z" fill="#302C3B"/>
<path d="M62.839 6.0249L62.846 8.8809L57.2729 8.7909L57.333 6.1419L62.839 6.0249Z" fill="#E81C27"/>
<path opacity="0.3" d="M63.999 6.27905L63.998 7.25505L19.312 6.95005L63.999 6.27905Z" fill="white"/>
<path d="M37.896 36.5629C37.594 36.5629 37.296 36.5509 37.012 36.5259C36.482 36.4809 35.516 36.2629 35.265 35.7269C35.191 35.5669 35.151 35.3109 35.385 34.9929C36.116 34.0019 38.116 33.6699 39.559 33.5069C39.707 33.4889 39.918 33.4779 40.161 33.4639C40.99 33.4169 42.534 33.3289 42.678 32.8279C42.7 32.7519 42.687 32.6859 42.638 32.6239C42.346 32.2429 40.977 32.0869 40.185 32.0779C39.8 32.0709 39.602 31.8269 39.605 31.5899C39.607 31.3609 39.802 31.1279 40.174 31.1279C41.107 31.1439 42.427 31.2329 43.263 31.8289C43.619 32.0849 43.843 32.4119 43.88 32.7299C43.906 32.9599 43.832 33.1809 43.668 33.3689C43.204 33.8909 42.335 34.2089 41.088 34.3119C40.898 34.3279 40.704 34.3419 40.504 34.3569C39.544 34.4309 38.453 34.5149 37.561 34.7399C36.91 34.9049 36.515 35.2049 36.521 35.3879C36.524 35.5019 36.723 35.6099 37.042 35.6679C37.306 35.7179 37.603 35.7409 37.928 35.7409C39.667 35.7409 41.899 35.0569 43.692 34.5089L44.164 34.3649C44.519 34.2569 44.844 34.4369 44.891 34.7389C44.921 34.9369 44.81 35.1799 44.493 35.2749C42.695 35.8199 40.237 36.5629 37.896 36.5629Z" fill="#FFE485"/>
<path d="M16.5321 41.205C16.2341 41.205 15.9411 41.192 15.6601 41.169C15.1261 41.12 14.1571 40.898 13.9091 40.362C13.8341 40.203 13.7961 39.948 14.0301 39.632C14.7571 38.649 16.7591 38.312 18.2021 38.145C18.3511 38.127 18.5631 38.116 18.8081 38.102C19.6371 38.055 21.1791 37.97 21.3251 37.47C21.3461 37.393 21.3331 37.327 21.2831 37.264C20.9911 36.884 19.6561 36.729 18.8291 36.716C18.4441 36.71 18.2461 36.468 18.2481 36.233C18.2501 36.003 18.4481 35.769 18.8201 35.769C20.2671 35.787 21.2721 36.017 21.9081 36.469C22.2631 36.725 22.4871 37.052 22.5251 37.367C22.5521 37.597 22.4781 37.819 22.3121 38.008C21.8491 38.531 20.9811 38.85 19.7331 38.954C19.5471 38.969 19.3591 38.983 19.1671 38.998C18.2001 39.069 17.1051 39.152 16.2061 39.381C15.5571 39.544 15.1601 39.845 15.1671 40.029C15.1711 40.142 15.3691 40.25 15.6871 40.308C15.9511 40.357 16.2481 40.38 16.5731 40.38C18.3011 40.38 20.5221 39.705 22.3081 39.16L22.8121 39.007C23.1611 38.901 23.4891 39.077 23.5361 39.377C23.5661 39.575 23.4551 39.819 23.1401 39.914C20.8921 40.595 18.6971 41.205 16.5321 41.205Z" fill="#FFE485"/>
<path d="M18.2779 35.248C17.4659 35.248 16.0279 35.146 15.5209 34.465C15.3039 34.175 15.2889 33.824 15.4749 33.424C16.8039 30.567 24.2549 30.1489 27.4369 29.9699C29.1629 29.8739 30.8659 29.825 32.4989 29.825C36.8699 29.825 42.7449 30.188 45.9109 31.9139C46.9069 32.4569 47.3499 33.0029 47.2299 33.5359C47.0639 34.2629 45.8839 34.673 45.1319 34.771C44.6389 34.824 44.3689 34.573 44.3399 34.333C44.3189 34.157 44.4279 33.9259 44.8129 33.8489C45.4379 33.7249 45.7949 33.552 45.7979 33.373C45.8029 32.829 43.3479 31.9479 42.3089 31.7229C39.4199 31.0919 36.1549 30.771 32.5999 30.771L32.1559 30.773C28.4649 30.8 24.5649 30.937 21.0529 31.746C19.9209 32.007 18.3709 32.36 17.3939 33.004C16.8749 33.344 16.6339 33.6509 16.7139 33.8689C16.8219 34.1649 17.5199 34.365 18.4469 34.365C19.5749 34.365 20.7759 34.0819 21.5829 33.6269C21.7809 33.5159 21.9839 33.493 22.1219 33.493C22.4259 33.493 22.6749 33.603 22.7549 33.776C22.7919 33.852 22.8239 34.0049 22.6359 34.1769C21.8809 34.8729 19.8269 35.248 18.2779 35.248Z" fill="#FFE485"/>
<path d="M19.2671 33.267H19.2531C18.3341 33.254 17.0171 33.166 16.1781 32.567C15.8241 32.314 15.5991 31.986 15.5621 31.67C15.5361 31.44 15.6091 31.216 15.7761 31.026C16.2361 30.505 17.1021 30.188 18.3521 30.083C18.5401 30.068 18.7321 30.054 18.9261 30.038C19.8901 29.965 20.9821 29.882 21.8791 29.655C22.5291 29.492 22.9251 29.191 22.9191 29.007C22.9161 28.893 22.7171 28.784 22.3981 28.724C22.1371 28.676 21.8411 28.653 21.5181 28.653C19.7751 28.653 17.5351 29.34 15.7341 29.89L15.2771 30.03C14.9221 30.137 14.5981 29.959 14.5511 29.658C14.5211 29.459 14.6311 29.216 14.9471 29.119C16.7451 28.576 19.2051 27.833 21.5451 27.833C21.8451 27.833 22.1421 27.846 22.4261 27.869C22.9561 27.915 23.9231 28.135 24.1741 28.671C24.2491 28.83 24.2871 29.086 24.0541 29.403C23.3311 30.387 21.3261 30.724 19.8821 30.893C19.7341 30.91 19.5271 30.921 19.2861 30.933C18.4541 30.98 16.9031 31.064 16.7611 31.569C16.7401 31.646 16.7521 31.711 16.8001 31.774C17.0921 32.154 18.4281 32.31 19.2561 32.321C19.6391 32.326 19.8391 32.567 19.8371 32.803C19.8381 33.034 19.6401 33.267 19.2671 33.267Z" fill="#FFE485"/>
<path d="M37.066 33.6239C36.176 34.2649 34.753 34.6199 33.713 34.8819C30.5 35.6889 26.933 35.8269 23.557 35.8559L23.147 35.8579C19.897 35.8579 16.909 35.5369 14.265 34.9069C13.316 34.6799 11.069 33.7989 11.074 33.2569C11.076 33.0769 11.404 32.9029 11.976 32.7779C12.328 32.6999 12.428 32.4689 12.408 32.2949C12.38 32.0569 12.109 31.7989 11.683 31.8599C10.995 31.9579 9.91601 32.3659 9.76301 33.0919C9.65201 33.6259 10.058 34.1729 10.969 34.7149C13.865 36.4419 19.239 36.8029 23.237 36.8029C23.238 36.8029 23.238 36.8029 23.238 36.8029C24.735 36.8029 26.295 36.7539 27.876 36.6579C32.404 36.3819 37.742 35.7399 38.824 33.2029C38.885 33.0619 37.46 33.3419 37.066 33.6239Z" fill="#FFE485"/>
<path d="M43.846 41.476C43.317 41.476 42.867 41.33 42.614 41.076C42.436 40.899 42.35 40.676 42.356 40.411C42.383 39.312 43.695 38.551 44.679 38.075C44.781 38.025 44.932 37.968 45.107 37.9C45.71 37.666 46.721 37.273 46.577 36.804C46.499 36.552 46.193 36.425 45.664 36.425C45.172 36.425 44.61 36.544 44.355 36.615C44.304 36.63 44.254 36.636 44.205 36.636C43.894 36.636 43.669 36.385 43.634 36.155C43.607 35.951 43.721 35.788 43.933 35.73C45.034 35.426 45.866 35.422 46.556 35.702C47.129 35.934 47.677 36.427 47.608 37.001C47.539 37.607 47.054 38.106 46.173 38.486C46.04 38.543 45.904 38.6 45.767 38.658C45.074 38.948 44.357 39.249 43.828 39.647C43.456 39.928 43.349 40.239 43.408 40.408C43.473 40.596 43.735 40.625 43.885 40.625C43.913 40.625 43.942 40.624 43.972 40.622C45.423 40.539 47.025 39.137 48.196 38.112L48.474 37.868C48.556 37.798 48.655 37.761 48.759 37.761C48.974 37.761 49.199 37.926 49.283 38.144C49.351 38.324 49.311 38.502 49.173 38.623C47.982 39.655 46.349 41.071 44.315 41.436C44.167 41.462 44.006 41.476 43.846 41.476Z" fill="#FFE485"/>
<path d="M25.3539 44.613C25.3199 44.613 25.2869 44.612 25.2529 44.611C24.9639 44.597 24.8309 44.391 24.8309 44.205C24.8319 43.985 25.0089 43.746 25.3299 43.733C25.6659 43.718 26.0799 43.65 26.1429 43.407C26.2779 42.908 25.1179 41.857 24.5729 41.527C22.9109 40.513 20.8799 39.741 18.5359 39.231C16.6179 38.81 14.5499 38.42 12.4289 38.42C12.0059 38.42 11.5879 38.436 11.1839 38.468C10.3719 38.529 9.25992 38.614 8.41792 39.03C7.87592 39.296 7.59892 39.581 7.65492 39.816C7.72892 40.119 8.36792 40.433 9.30792 40.433C9.81292 40.433 10.3059 40.338 10.7379 40.162C11.0469 40.033 11.4089 40.148 11.4869 40.389C11.5359 40.543 11.4629 40.704 11.2909 40.821C10.8799 41.099 10.1809 41.259 9.37392 41.259C8.28192 41.259 7.02992 40.953 6.69592 40.268C6.57592 40.024 6.52592 39.62 6.96492 39.088C7.85092 38.012 9.51792 37.467 11.9169 37.467C13.4809 37.467 15.0559 37.703 15.8109 37.816C19.1159 38.305 24.9379 39.528 26.7959 42.226C27.3179 42.982 27.2329 43.499 27.0679 43.801C26.7659 44.359 25.9689 44.613 25.3539 44.613Z" fill="#FFE485"/>
<path d="M24.512 34.5541C23.975 34.5541 23.437 34.5381 22.91 34.5081C22.845 34.5041 22.748 34.5011 22.629 34.4961C21.642 34.4651 19.328 34.3901 18.807 33.5461C18.659 33.3051 18.66 33.0251 18.812 32.7191C19.185 31.9661 20.217 31.6151 22.061 31.6151C23.039 31.6151 24.115 31.7101 25.156 31.8021C26.091 31.8831 26.972 31.9611 27.692 31.9611C28.158 31.9611 30.483 31.9001 30.483 30.7071C30.483 30.2691 29.437 29.8701 27.817 29.6911L27.7 29.6781C27.12 29.6141 26.324 29.5251 25.562 29.5251C24.793 29.5251 24.204 29.6171 23.811 29.7991C23.672 29.8631 23.654 29.9041 23.654 29.9051C23.742 30.1061 25.314 30.4361 27.219 30.4361C27.392 30.4361 27.539 30.4861 27.647 30.5781C27.75 30.6671 27.809 30.7891 27.809 30.9171C27.809 31.1491 27.606 31.3861 27.219 31.3861H26.963C25.13 31.3861 22.955 31.2681 22.401 30.3351C22.265 30.1121 22.241 29.8931 22.329 29.6831C22.523 29.2091 23.222 28.9571 23.622 28.8491C24.158 28.7031 25.038 28.6211 26.036 28.6211C28.14 28.6211 30.862 28.9811 31.609 29.9961C31.815 30.2751 31.862 30.5861 31.748 30.9181C31.294 32.2461 29.857 32.8911 27.359 32.8911C26.464 32.8911 25.425 32.8111 24.184 32.6471C23.546 32.5631 22.924 32.5211 22.335 32.5211C20.683 32.5211 19.917 32.8481 19.891 33.0151C19.885 33.0571 19.976 33.1971 20.475 33.3501C21.107 33.5421 22.254 33.6491 23.707 33.6491C24.415 33.6491 25.154 33.6231 25.846 33.5761C28.989 33.3591 31.831 32.7791 34.299 31.8511C34.673 31.7071 35.119 31.9161 35.177 32.2301C35.207 32.3811 35.141 32.5831 34.863 32.6871C31.614 33.9081 28.034 34.5541 24.512 34.5541Z" fill="#FFDA54"/>
<path d="M37.6439 43.2741C36.0299 43.2741 34.9909 42.7371 34.7179 41.7611C34.5099 41.0131 34.5879 40.3771 34.9469 39.8711C35.5579 39.0141 36.9599 38.5141 39.3579 38.3021C41.2749 38.1271 42.2459 37.4371 42.2509 37.0991C42.2529 36.9351 42.0019 36.8061 41.5789 36.7561C40.5699 36.6401 38.7659 37.1451 37.5319 37.6481C35.3619 38.5321 33.6099 39.7381 32.3269 41.2281C32.2439 41.3251 32.1289 41.3771 31.9959 41.3771C31.7579 41.3771 31.5009 41.2101 31.3939 40.9891C31.3189 40.8301 31.3389 40.6661 31.4479 40.5381C33.4039 38.2611 36.1689 36.6731 39.2359 36.0721C39.2889 36.0621 39.3639 36.0451 39.4579 36.0231C39.8539 35.9301 40.5929 35.7571 41.3029 35.7571C42.7099 35.7571 43.1259 36.4421 43.2259 37.0141C43.2909 37.3911 43.2169 37.7251 43.0069 38.0101C42.3789 38.8631 40.6749 39.1221 39.0289 39.3731C38.2989 39.4831 37.6099 39.5881 37.0859 39.7401C36.7529 39.8361 35.9499 40.1191 35.7039 40.6881C35.5839 40.9661 35.6159 41.2811 35.8019 41.6231C36.0689 42.1191 36.8899 42.2221 37.5309 42.2221C37.8639 42.2221 38.1649 42.1941 38.3579 42.1711L38.4439 42.1601C39.3079 42.0591 40.7519 41.8901 41.1869 41.2421C41.2169 41.1961 41.2499 41.1351 41.2269 41.0961C41.1829 41.0141 40.9379 40.9191 40.3959 40.9191C39.7789 40.9191 38.9709 41.0411 38.2919 41.2381C38.2449 41.2511 38.1979 41.2581 38.1509 41.2581C37.8299 41.2581 37.5749 40.9741 37.5369 40.7091C37.5069 40.4961 37.6179 40.3271 37.8299 40.2671L37.9169 40.2431C38.4759 40.0801 39.4119 39.8101 40.3129 39.8101C41.0329 39.8101 41.5909 39.9881 41.9709 40.3391C42.2499 40.5951 42.3879 40.8791 42.3819 41.1821C42.3729 41.6301 42.0499 41.9711 41.8589 42.1341C41.2099 42.6871 39.3619 43.2741 37.6439 43.2741Z" fill="#FFDA54"/>
<path d="M9.71308 38.3169C9.66108 38.3169 9.60908 38.3109 9.55308 38.2999C8.66308 38.1179 7.40908 37.7929 6.79508 37.0609C6.55008 36.7659 6.43608 36.4259 6.48008 36.1269C6.51608 35.8759 6.66108 35.6569 6.90108 35.4949C7.51208 35.0729 8.44108 34.9199 9.70108 35.0459C9.88208 35.0639 10.0691 35.0849 10.2591 35.1059C11.2631 35.2129 12.3141 35.3279 13.2651 35.2659C14.0361 35.2199 14.4851 34.9619 14.5141 34.7939C14.5311 34.6949 14.3761 34.5669 14.1121 34.4639C13.4761 34.2099 12.5901 34.0879 11.4021 34.0879C10.0511 34.0879 8.59208 34.2449 7.30408 34.3849L6.77208 34.4419C6.38708 34.4799 6.18808 34.2509 6.17408 34.0359C6.16008 33.8009 6.34508 33.5409 6.72408 33.4979C8.11208 33.3519 9.47108 33.2209 10.8511 33.2209C12.2341 33.2209 13.3911 33.3569 14.3891 33.6359C15.0321 33.8159 15.7241 34.2119 15.8271 34.6919C15.8641 34.8709 15.8351 35.1439 15.4851 35.4259C14.8651 35.9209 13.8201 36.1599 12.2911 36.1599C11.8931 36.1599 11.4691 36.1429 10.9571 36.1099C10.8071 36.0979 10.5961 36.0719 10.3531 36.0419C9.89108 35.9829 9.31508 35.9099 8.80308 35.9099C8.19708 35.9099 7.82208 36.0139 7.68608 36.2159C7.63608 36.2919 7.62708 36.3609 7.65808 36.4339C7.83408 36.8409 9.08708 37.2309 9.83708 37.3789C10.1711 37.4459 10.2981 37.6779 10.2781 37.8759C10.2521 38.0959 10.0511 38.3169 9.71308 38.3169Z" fill="#FFDA54"/>
<path d="M27.2949 40.0149C27.2449 40.0149 27.1919 40.0099 27.1369 39.9969C26.2459 39.8169 24.9919 39.4919 24.3769 38.7589C24.1329 38.4649 24.0189 38.1229 24.0609 37.8239C24.0979 37.5749 24.2429 37.3559 24.4839 37.1919C25.0949 36.7719 26.0239 36.6189 27.2839 36.7449C27.4659 36.7629 27.6529 36.7819 27.8429 36.8039C28.8449 36.9099 29.8949 37.0259 30.8469 36.9649C31.6179 36.9179 32.0679 36.6609 32.0949 36.4919C32.1139 36.3929 31.9589 36.2659 31.6949 36.1619C31.0589 35.9089 30.1729 35.7849 28.9839 35.7849C27.6329 35.7849 26.1749 35.9429 24.8869 36.0829L24.3559 36.1409C23.9679 36.1779 23.7699 35.9489 23.7569 35.7349C23.7419 35.4999 23.9269 35.2379 24.3079 35.1969C25.6949 35.0499 27.0529 34.9189 28.4349 34.9189C29.8159 34.9189 30.9729 35.0549 31.9719 35.3339C32.6139 35.5149 33.3079 35.9109 33.4089 36.3889C33.4469 36.5699 33.4189 36.8429 33.0669 37.1239C32.4489 37.6179 31.4029 37.8579 29.8739 37.8579C29.4759 37.8579 29.0519 37.8399 28.5399 37.8069C28.3909 37.7969 28.1789 37.7709 27.9369 37.7399C27.4729 37.6809 26.8969 37.6079 26.3869 37.6079C25.7799 37.6079 25.4039 37.7109 25.2679 37.9139C25.2179 37.9909 25.2089 38.0589 25.2409 38.1319C25.4179 38.5389 26.6709 38.9279 27.4209 39.0769C27.7539 39.1439 27.8809 39.3759 27.8599 39.5729C27.8349 39.7919 27.6329 40.0149 27.2949 40.0149Z" fill="#FFDA54"/>
<path d="M24.3139 43.0071C22.4279 43.0071 20.5799 42.8111 18.8629 42.6011C15.1789 42.1531 6.27186 40.7751 3.10886 37.6681C2.44786 37.0181 2.21586 36.4451 2.42086 35.9621C2.70986 35.2831 3.85686 34.9821 4.71686 35.0271C5.10486 35.0441 5.30486 35.2851 5.30386 35.5161C5.30186 35.7301 5.12286 35.9631 4.73386 35.9751C4.09286 35.9951 3.71486 36.1171 3.67386 36.3171C3.55786 36.8621 5.37886 38.0691 6.21286 38.4521C8.66686 39.5851 11.5919 40.4571 14.9039 41.0461C17.6459 41.5281 20.5899 41.9781 23.5069 41.9781C24.0429 41.9781 24.5699 41.9621 25.0779 41.9311C26.1739 41.8651 27.6729 41.7741 28.7529 41.3121C29.3749 41.0481 29.7029 40.7581 29.6509 40.5201C29.5679 40.1361 28.5469 39.7251 27.1579 39.7251C26.4719 39.7251 25.8189 39.8281 25.2689 40.0231C24.8619 40.1681 24.3559 40.0071 24.2729 39.7261C24.2519 39.6531 24.2309 39.4641 24.4899 39.3061C24.9839 39.0071 25.8809 38.8341 26.9509 38.8341C28.5379 38.8341 30.4379 39.2291 30.8589 40.0931C30.9749 40.3371 31.0289 40.7331 30.6079 41.2371C29.6259 42.4101 27.5079 43.0071 24.3139 43.0071Z" fill="#FFDA54"/>
<path d="M23.381 32.405C23.333 32.405 23.285 32.398 23.236 32.385C22.952 32.303 22.787 32.008 22.866 31.72C24.362 26.35 23.637 23.583 22.796 20.38C21.95 17.154 20.991 13.498 22.055 6.54098C22.1 6.24798 22.371 6.04598 22.663 6.09198C22.954 6.13698 23.154 6.41198 23.109 6.70598C22.079 13.441 23.007 16.98 23.827 20.104C24.671 23.32 25.469 26.358 23.893 32.012C23.828 32.25 23.614 32.405 23.381 32.405Z" fill="#FFE485"/>
<path d="M25.004 32.4051C24.969 32.4051 24.934 32.4021 24.898 32.3941C24.609 32.3341 24.423 32.0501 24.482 31.7591C26.003 24.1941 24.906 20.1501 23.938 16.5821C23.08 13.4191 22.339 10.6891 23.699 6.45706C23.789 6.17606 24.091 6.01906 24.371 6.11106C24.651 6.20306 24.805 6.50706 24.714 6.79006C23.453 10.7161 24.121 13.1791 24.967 16.2971C25.917 19.8001 27.099 24.1571 25.529 31.9741C25.475 32.2301 25.252 32.4051 25.004 32.4051Z" fill="#FFDA54"/>
<path d="M26.6641 32.4051C26.6161 32.4051 26.5671 32.3981 26.5191 32.3851C26.2351 32.3031 26.0701 32.0081 26.1501 31.7201C28.1641 24.4911 26.9261 20.3321 25.8341 16.6611C24.9061 13.5421 24.0291 10.5961 25.3581 6.45706C25.4491 6.17606 25.7481 6.01906 26.0301 6.11106C26.3101 6.20306 26.4651 6.50706 26.3731 6.79006C25.1451 10.6081 25.9381 13.2691 26.8561 16.3521C27.9891 20.1641 29.2751 24.4831 27.1761 32.0131C27.1111 32.2501 26.8971 32.4051 26.6641 32.4051Z" fill="#FFDA54"/>
<path d="M28.3239 32.4049C28.2519 32.4049 28.1769 32.3899 28.1069 32.3589C27.8369 32.2369 27.7159 31.9199 27.8369 31.6469C29.4639 27.9679 28.5429 23.9169 27.5659 19.6259C26.5919 15.3429 25.5869 10.9149 27.0169 6.45691C27.1079 6.17491 27.4099 6.01891 27.6889 6.11091C27.9689 6.20291 28.1239 6.50691 28.0319 6.78991C26.6909 10.9629 27.6659 15.2439 28.6059 19.3859C29.6219 23.8559 30.5819 28.0779 28.8099 32.0859C28.7229 32.2859 28.5279 32.4049 28.3239 32.4049Z" fill="#FFE485"/>
<path d="M47.4679 32.5689C47.2989 33.8379 47.0149 34.4609 46.2499 35.2019C43.1839 35.5359 38.4369 35.8819 35.5359 34.9359C34.5649 33.8749 34.0299 32.4719 34.2569 30.7709C34.4219 29.5369 47.6319 31.3359 47.4679 32.5689Z" fill="url(#paint5_linear)"/>
<path d="M47.468 32.5691C47.302 33.8011 44.211 34.3981 40.565 33.9031C36.918 33.4051 34.093 32.0041 34.257 30.7711C34.422 29.5371 37.513 28.9401 41.16 29.4371C44.809 29.9341 47.632 31.3361 47.468 32.5691Z" fill="#FAF4EB"/>
<path d="M43.503 31.831C43.407 32.545 41.69 32.9 39.664 32.626C37.643 32.351 36.079 31.547 36.174 30.832C36.269 30.119 37.988 29.763 40.011 30.038C42.035 30.314 43.598 31.116 43.503 31.831Z" fill="url(#paint6_linear)"/>
<path d="M29.616 43.606C28.682 43.606 28.08 43.159 27.921 42.3461C27.338 39.3971 32.315 37.4371 34.188 36.6991C36.412 35.8241 40.702 34.3521 44.455 34.3521C45.63 34.3521 46.676 34.498 47.567 34.785C48.936 35.223 49.27 35.821 49.31 36.246C49.365 36.824 48.901 37.3481 48.446 37.5891C48.368 37.6311 48.284 37.6521 48.195 37.6521C47.946 37.6521 47.702 37.4821 47.63 37.2561C47.573 37.0821 47.633 36.915 47.788 36.807C48.008 36.657 48.255 36.439 48.193 36.243C48.014 35.689 45.839 35.3391 44.969 35.3391C42.604 35.3391 40.166 35.7301 37.705 36.4991C35.264 37.2601 32.736 38.162 30.8 39.62C30.179 40.085 29.331 40.7211 29.014 41.4921C28.855 41.8801 28.843 42.1911 28.982 42.3931C29.111 42.5801 29.377 42.681 29.73 42.681C30.524 42.681 31.661 42.1501 32.115 41.291C32.209 41.1101 32.407 40.9971 32.631 40.9971C32.797 40.9971 32.951 41.061 33.043 41.168C33.123 41.263 33.153 41.386 33.129 41.515C32.943 42.493 31.073 43.606 29.616 43.606Z" fill="#FFE485"/>
<path d="M24.8081 34.0631C24.8081 34.0631 24.8541 36.1821 27.3351 35.5021L27.4231 34.8391C25.2261 35.0071 25.2551 33.6321 24.8081 34.0631Z" fill="#529320"/>
<path d="M38.2241 38.271C38.2241 38.271 38.2701 40.389 40.7521 39.709L40.8401 39.046C38.6431 39.214 38.6721 37.838 38.2241 38.271Z" fill="#529320"/>
<path d="M33.5111 40.9929C32.0281 42.6429 30.9071 41.5839 30.9341 42.2209C30.9331 42.2209 32.7331 43.7949 33.9971 41.5559L33.5111 40.9929Z" fill="#529320"/>
<path d="M23.744 41.498C22.261 43.149 21.14 42.089 21.167 42.726C21.166 42.726 22.966 44.3 24.23 42.061L23.744 41.498Z" fill="#529320"/>
<path d="M40.9239 36.6379C41.0839 34.5129 42.4169 35.0039 42.0639 34.4389C42.0639 34.4369 39.9959 33.7649 40.2949 36.3329L40.9239 36.6379Z" fill="#529320"/>
<path d="M15.772 37.2581L14.8 37.1431C14.692 39.2031 12.648 39.1071 13.217 39.5491C13.215 39.5511 16.39 39.6111 15.772 37.2581Z" fill="#529320"/>
<path d="M17.3919 29.4121L16.4189 29.2971C16.3109 31.3571 14.2669 31.2601 14.8349 31.7031C14.8339 31.7051 18.0079 31.7651 17.3919 29.4121Z" fill="#529320"/>
<path d="M5.66016 34.2039L6.28316 34.9009C7.59616 33.5019 8.99416 34.8639 8.85416 34.1879C8.85616 34.1879 6.63316 32.1379 5.66016 34.2039Z" fill="#529320"/>
<path d="M47.8009 34.199L47.2109 34.656C49.1989 35.817 48.1059 36.855 48.8189 36.788C48.8219 36.788 50.4329 35.133 47.8009 34.199Z" fill="#529320"/>
<path opacity="0.6" d="M16.5828 27.8309C16.5828 27.8309 18.6098 24.6919 14.2168 20.1029C9.43777 15.1159 16.5828 13.2899 16.5828 10.0149C16.5828 10.0149 17.7458 11.3189 16.1138 14.4029C13.7998 18.7669 23.4748 19.4569 16.5828 27.8309Z" fill="url(#paint7_linear)"/>
<path opacity="0.6" d="M33.187 12.5591C33.187 12.5591 31.605 15.0541 35.054 18.6541C38.823 22.5901 33.187 24.0291 33.187 26.6101C33.187 26.6101 32.27 25.5831 33.557 23.1491C35.373 19.7071 27.742 19.1541 33.187 12.5591Z" fill="url(#paint8_linear)"/>
<path opacity="0.6" d="M40.3539 15.9351C40.3539 15.9351 39.0389 18.0071 41.9059 20.9981C45.0349 24.2661 40.3539 25.4631 40.3539 27.6071C40.3539 27.6071 39.5919 26.7531 40.6609 24.7311C42.1699 21.8721 35.8309 21.4131 40.3539 15.9351Z" fill="url(#paint9_linear)"/>
<path d="M18.887 8.95306C18.176 8.92006 18.093 10.1181 18.805 10.1781C63.291 13.8391 63.328 13.8401 63.328 13.8401L63.52 10.9441C63.521 10.9441 63.521 10.9441 18.887 8.95306Z" fill="#302C3B"/>
<path d="M62.314 10.8929L62.097 13.7389L56.646 13.2919L56.835 10.6479L62.314 10.8929Z" fill="#E81C27"/>
<path opacity="0.3" d="M63.502 11.2229L63.437 12.1989L18.887 8.95093L63.502 11.2229Z" fill="white"/>
<path d="M25.2991 32.602C25.2311 32.602 25.1611 32.591 25.0951 32.566C24.8231 32.46 24.6931 32.17 24.8051 31.916C27.0121 26.953 25.8181 23.889 24.5551 20.646C23.2841 17.381 21.9701 14.005 23.9971 8.63197C24.0951 8.37297 24.3981 8.23597 24.6771 8.32897C24.9551 8.41897 25.1011 8.70197 25.0031 8.96297C23.1021 14 24.2951 17.064 25.5581 20.306C26.8341 23.586 28.1561 26.977 25.7911 32.295C25.7061 32.487 25.5071 32.602 25.2991 32.602Z" fill="#FFE485"/>
<path d="M22.6081 31.7469C22.5361 31.7469 22.4611 31.7329 22.3911 31.7069C22.1211 31.5979 22.0001 31.3149 22.1211 31.0719C23.7481 27.8029 22.8271 24.2019 21.8501 20.3889C20.8761 16.5829 19.8711 12.6479 21.3011 8.6869C21.3921 8.4359 21.6941 8.2979 21.9731 8.3789C22.2531 8.4599 22.4081 8.7309 22.3161 8.9819C20.9751 12.6899 21.9501 16.4959 22.8901 20.1749C23.9061 24.1479 24.8661 27.8999 23.0941 31.4619C23.0071 31.6409 22.8131 31.7469 22.6081 31.7469Z" fill="#FFDA54"/>
<defs>
<linearGradient id="paint0_linear" x1="0" y1="48.3115" x2="53.333" y2="48.3115" gradientUnits="userSpaceOnUse">
<stop stop-color="#E6EBEF"/>
<stop offset="0.2857" stop-color="#E2E8EC"/>
<stop offset="0.5605" stop-color="#D7DFE3"/>
<stop offset="0.83" stop-color="#C3CFD3"/>
<stop offset="1" stop-color="#B3C2C6"/>
</linearGradient>
<linearGradient id="paint1_linear" x1="0" y1="42.3809" x2="53.333" y2="42.3809" gradientUnits="userSpaceOnUse">
<stop stop-color="#F5000D"/>
<stop offset="0.2714" stop-color="#F2010D"/>
<stop offset="0.5093" stop-color="#E7060F"/>
<stop offset="0.7339" stop-color="#D50D11"/>
<stop offset="0.903" stop-color="#C21413"/>
</linearGradient>
<linearGradient id="paint2_linear" x1="1.77716" y1="34.6249" x2="51.5565" y2="34.6249" gradientUnits="userSpaceOnUse">
<stop stop-color="#B3C2C6"/>
<stop offset="0.2515" stop-color="#C0CCD0"/>
<stop offset="0.6182" stop-color="#CBD5DA"/>
<stop offset="1" stop-color="#CFD8DD"/>
</linearGradient>
<linearGradient id="paint3_linear" x1="26.6687" y1="44.6631" x2="26.6687" y2="28.2388" gradientUnits="userSpaceOnUse">
<stop stop-color="#AD6928"/>
<stop offset="0.3231" stop-color="#BC7D2E"/>
<stop offset="0.984" stop-color="#E2B23D"/>
<stop offset="1" stop-color="#E3B33D"/>
</linearGradient>
<linearGradient id="paint4_linear" x1="9.86172" y1="33.5245" x2="6.71358" y2="26.0701" gradientUnits="userSpaceOnUse">
<stop stop-color="#1F2420"/>
<stop offset="0.5402" stop-color="#2B342C"/>
<stop offset="1" stop-color="#374538"/>
</linearGradient>
<linearGradient id="paint5_linear" x1="34.0434" y1="32.353" x2="47.2569" y2="34.1343" gradientUnits="userSpaceOnUse">
<stop stop-color="#F5EFE6"/>
<stop offset="1" stop-color="#E3D5C1"/>
</linearGradient>
<linearGradient id="paint6_linear" x1="39.6641" y1="32.6261" x2="40.0128" y2="30.0392" gradientUnits="userSpaceOnUse">
<stop stop-color="#FFBF24"/>
<stop offset="0.2417" stop-color="#FCB925"/>
<stop offset="0.5514" stop-color="#F4A927"/>
<stop offset="0.8968" stop-color="#E88F2C"/>
<stop offset="1" stop-color="#E3862D"/>
</linearGradient>
<linearGradient id="paint7_linear" x1="15.8372" y1="27.831" x2="15.8372" y2="10.0155" gradientUnits="userSpaceOnUse">
<stop stop-color="#A9B0B3"/>
<stop offset="0.3157" stop-color="#BDC4C7"/>
<stop offset="0.9614" stop-color="#EFF6FC"/>
<stop offset="1" stop-color="#F2F9FF"/>
</linearGradient>
<linearGradient id="paint8_linear" x1="33.7715" y1="26.6095" x2="33.7715" y2="12.5587" gradientUnits="userSpaceOnUse">
<stop stop-color="#A9B0B3"/>
<stop offset="0.3157" stop-color="#BDC4C7"/>
<stop offset="0.9614" stop-color="#EFF6FC"/>
<stop offset="1" stop-color="#F2F9FF"/>
</linearGradient>
<linearGradient id="paint9_linear" x1="40.8397" y1="27.6075" x2="40.8397" y2="15.9347" gradientUnits="userSpaceOnUse">
<stop stop-color="#A9B0B3"/>
<stop offset="0.3157" stop-color="#BDC4C7"/>
<stop offset="0.9614" stop-color="#EFF6FC"/>
<stop offset="1" stop-color="#F2F9FF"/>
</linearGradient>
</defs>
</svg>
