<svg width="64" height="64" viewBox="0 0 64 64" fill="none" xmlns="http://www.w3.org/2000/svg">
<path d="M4.18597 52.368C2.97297 52.776 4.13797 56.979 5.32097 58.545C6.18897 59.696 9.00897 61.366 12.083 60.783C22.147 58.879 37.467 48.806 42.588 45.744C55.357 38.109 58.809 40.793 60.842 32.386C61.026 31.628 61.079 29.453 60.842 28.556C60.615 27.696 5.37497 51.969 4.18597 52.368Z" fill="url(#paint0_linear)"/>
<path d="M8.52098 24.215C8.13398 24.888 8.95498 31.63 9.48198 32.386C9.84198 32.902 13.41 36.526 16.484 35.943C18.136 28.243 9.12298 23.166 8.52098 24.215Z" fill="#C20000"/>
<path d="M34.8071 8.729C32.0801 9.322 32.9831 13.314 34.7131 13.428C34.1561 10.228 34.8071 8.729 34.8071 8.729Z" fill="#F5805D"/>
<path d="M9.24602 28.019C9.53102 28.689 14.178 32.717 16.435 32.363C19.839 31.826 27.596 16.555 32.704 13.474C34.529 12.373 29.295 6.573 24.185 3.941C22.587 3.117 21.418 3.125 21.022 3C19.903 3.557 18.509 5.048 15.795 6.188C13.082 8.892 5.53802 19.335 9.24602 28.019Z" fill="url(#paint1_linear)"/>
<path d="M30.574 14.101C26.223 20.329 10.05 38.451 10.569 39.838C10.824 40.518 10.711 43.059 9.52103 43.46C8.31003 43.866 3.62603 51.064 3.94903 52.638C4.03503 53.065 3.82303 56.541 4.37503 57.338C5.27303 58.637 6.82703 60.096 8.44103 59.487C10.994 58.525 12.4 55.055 12.84 55.003C23.024 53.799 36.297 41.94 41.404 38.859C43.82 37.403 59.14 34.778 60.228 28.656C56.869 26.855 57.318 22.539 57.601 21.375C57.813 20.508 44.323 12.504 41.57 12.578C40.26 12.615 33.178 14.056 30.574 14.101Z" fill="url(#paint2_linear)"/>
<path d="M14.688 33.818C21.364 31.378 29.132 19.489 32.336 13.427C22.854 21.062 21.286 26.254 14.688 33.818Z" fill="#F4AA94"/>
<path d="M14.688 43.09C22.61 36.838 20.529 32.504 27.386 25.633C17.904 33.266 21.286 35.523 14.688 43.09Z" fill="url(#paint3_linear)"/>
<path d="M53.053 18.01C51.634 16.501 44.574 13.137 41.121 11.504C36.634 14.816 30.603 12.415 34.807 8.729C31.778 7.369 24.131 3.404 22.629 3.269C21.877 3.203 24.167 4.998 23.906 5.865C23.621 6.817 22.066 3 21.022 3C19.235 3 19.235 4.174 18.183 4.791C16.926 5.527 23.829 9.21 23.48 10.431C23.206 11.391 20.23 10.345 19.318 9.849C18.218 9.25 17.414 6.215 16.151 6.089C14.813 5.954 12.564 8.16 11.989 9.312C11.878 9.536 12.04 10.054 11.989 10.297C11.532 12.414 8.87599 16.135 8.42099 18.252C8.37199 18.474 8.61499 18.813 8.57099 19.034C8.05099 21.654 7.60299 21.041 7.54399 21.711C7.29899 24.447 8.34999 29.71 9.19799 32.34C9.32799 32.742 11.065 34.298 12.682 35.026C9.95499 33.055 10.038 31.892 9.55299 32C9.15599 32.088 8.78399 28.66 8.73699 27.192C9.64699 29.463 12.355 30.74 12.355 30.74C12.355 30.74 9.57499 27.824 9.02099 26.711C8.40699 25.479 9.05299 23.59 8.54799 22.09C8.37499 21.579 9.65899 22.347 11.503 22.515C9.58799 21.642 9.36999 20.982 8.84299 21.195C7.41899 21.776 11.008 12.273 12.887 10.7C13.326 10.332 14.546 9.828 15.11 9.984C16.015 10.231 15.406 11.886 17.854 13.206C16.624 12.088 16.494 10.532 17.299 10.319C18.832 9.913 22.361 14.14 23.765 13.428C24.426 13.094 23.832 10.578 24.57 10.699C25.738 10.889 24.971 14.294 24.239 15.175C23.61 15.932 21.087 15.663 20.361 16.338C19.755 16.901 18.502 19.047 19.273 19.382C19.985 19.693 20.269 17.297 20.882 16.831C21.726 16.188 24.276 16.302 24.996 15.533C25.781 14.695 24.966 11.777 25.942 11.146C26.348 10.882 27.496 11.168 27.881 11.46C28.58 11.987 29.627 14.345 29.06 14.997C24.678 20.02 17.427 29.957 15.956 32C15.567 32.539 14.792 31.715 13.121 31.246C14.306 32.302 15.446 32.634 15.316 32.775C14.817 33.312 14.516 33.984 14.516 33.984C14.516 33.984 15.318 33.241 16.025 32.403C16.37 31.996 16.611 32.545 17.049 32.227C19.639 30.349 24.804 20.559 30.456 15.412C31.522 14.439 27.397 23.041 18.261 31.753C27.473 25.267 29.28 19.047 31.061 18.542C33.937 17.728 40.882 19.363 43.81 18.736C44.242 18.643 37.759 18.158 37.706 17.744C37.55 16.483 41.733 16.918 40.425 16.648C38.583 16.269 33.765 17.914 33.741 16.128C33.722 14.7 37.081 15.806 38.197 14.845C40.065 13.234 46.003 16.214 46.428 18.093C46.668 19.155 50.041 18.994 49.826 19.679C49.596 20.411 47.484 21.072 46.701 21.262C45.864 21.464 41.878 20.556 43.249 21.081C47.222 22.603 50.012 21.067 51.186 21.074C51.844 21.08 53.096 20.835 53.465 21.35C53.651 21.61 53.596 22.373 53.369 22.603C52.059 23.934 47.62 24.074 45.756 23.634C41.404 22.603 37.314 25.602 30.622 20.947C36.32 26.79 41.807 23.3 45.52 25.023C47.329 25.861 51.59 24.082 53.559 24.485C54.532 24.683 56.471 25.515 57.059 26.275C57.207 26.468 57.026 27.101 57.248 27.214C57.457 27.322 57.964 26.71 58.13 26.871C58.771 27.487 56.893 29.699 52.708 32.385C57.792 30.46 58.734 28.066 59.328 28.534C60.092 29.134 58.578 30.93 57.91 31.624C55.238 34.399 46.963 35.161 48.853 35.787C51.378 36.621 40.07 35.303 37.423 35.658C33.98 36.123 33.292 31.199 33.073 27.101C32.335 31.647 34.311 35.712 36.436 36.342C38.022 36.815 42.774 35.866 42.821 36.636C42.988 39.322 32.344 42.57 30.1 44.223C28.72 45.237 26.071 47.395 24.708 48.429C23.748 49.158 21.898 50.716 20.83 51.293C19.77 51.868 17.444 52.618 16.291 52.994C14.868 53.459 12.023 54.545 10.52 54.604C9.51899 54.646 7.34499 54.473 6.59499 53.845C5.89499 53.257 4.14699 52.85 4.22999 51.969C4.33599 50.828 6.87699 47.273 7.72999 46.459C8.39599 45.822 10.124 44.941 11.041 44.716C11.75 44.542 13.383 45.128 13.974 44.716C14.499 44.349 17 44.835 19.146 45.391C17.407 44.283 15.103 43.845 14.163 44.232C13.597 44.464 11.644 42.605 10.368 43.224C9.64999 43.575 11.288 41.234 11.468 40.49C11.53 40.231 12.886 40.289 14.057 39.215C12.69 39.668 11.638 39.712 11.521 39.416C11.293 38.833 14.104 37.264 13.454 37.193C12.709 37.117 12.373 37.131 14.054 34.568C11.628 37.401 10.759 38.269 10.405 39.617C10.321 39.937 11.026 39.986 9.87199 42.167C9.68199 42.53 9.28799 41.9 9.16199 42.285C9.08099 42.533 9.38599 42.611 9.24599 42.835C8.54199 43.965 6.70899 46.523 5.89899 47.523C5.52899 47.979 5.55499 47.379 5.27899 47.892C5.05299 48.309 4.20299 50.051 3.93299 50.443C3.76499 50.688 2.94699 50.919 3.00299 51.204C3.45199 53.517 3.20999 56.14 3.45199 56.603C3.77899 57.23 4.79699 57.654 4.91699 58.343C5.03599 59.014 8.69299 61.865 12.769 60.738C19.083 58.993 22.94 57.533 31.122 52.62C24.072 56.306 17.035 58.91 14.779 59.529C10.094 60.817 8.26499 60.083 8.94999 59.566C11.256 57.829 11.739 56.544 11.488 56.827C10.61 57.817 8.80699 58.845 8.42199 58.949C5.19099 59.827 4.91599 57.097 4.42899 56.538C4.26299 56.346 5.09999 55.338 5.60599 55.039C6.53799 54.486 8.90499 55.058 10.003 55.039C12.085 55.001 16.332 55.305 18.327 54.741C21.052 53.972 25.421 50.168 28.069 49.191C29.89 48.518 35.737 44.515 38.238 42.879C39.296 42.188 41.789 40.125 42.92 39.543C45.336 38.306 50.182 37.415 52.662 36.3C53.882 35.75 54.838 33.808 58.1 32.608C58.892 32.316 59.056 30.679 59.519 31.354C60.039 32.11 60.978 29.439 61.001 28.691C61.013 28.35 60.558 27.996 60.748 27.705C61.102 27.168 59.274 26.663 59.425 26.298C59.591 25.894 58.564 26.11 58.432 25.78C58.009 24.732 58.195 21.463 57.509 21.158C57.256 21.046 57.723 22.627 55.593 21.35C51.855 19.111 53.495 18.483 53.053 18.01Z" fill="url(#paint4_linear)"/>
<path d="M49.539 38.674C51.488 38.201 51.904 38.361 53.512 38.674C55.12 38.987 57.012 38.718 57.627 37.867C58.24 37.016 59.187 35.194 59.66 34.956C60.134 34.723 60.756 32.637 61 31.378C61.02 32.989 59.754 37.554 58.336 38.539C57.854 38.875 47.506 43.598 46.324 44.133C45.14 44.67 40.08 47.536 38.992 48.341C37.904 49.147 32.869 51.62 32.869 51.62C32.869 51.62 37.574 48.654 38.426 48.206C39.277 47.758 41.807 45.678 45.424 43.819C43.259 44.087 34.69 49.907 29.723 50.959C28.763 51.163 26.467 51.615 24.569 53.13C22.299 54.943 18.137 56.175 18.137 56.175C18.137 56.175 22.962 54.003 24.664 52.414C27.317 49.935 29.669 50.737 29.914 50.668C34.431 49.393 42.163 44.001 53.229 39.39C54.29 38.947 50.864 38.763 50.486 38.763C50.108 38.763 44.715 40.418 40.838 43.194C42.941 41.067 46.299 39.456 49.539 38.674Z" fill="#F5805D"/>
<defs>
<linearGradient id="paint0_linear" x1="35.9209" y1="53.5557" x2="31.2824" y2="38.3518" gradientUnits="userSpaceOnUse">
<stop stop-color="#F58C8C"/>
<stop offset="1" stop-color="#F5D0A4"/>
</linearGradient>
<linearGradient id="paint1_linear" x1="20.6577" y1="32.3843" x2="20.6577" y2="3" gradientUnits="userSpaceOnUse">
<stop stop-color="#E84F58"/>
<stop offset="0.1857" stop-color="#E4474F"/>
<stop offset="0.4884" stop-color="#D93137"/>
<stop offset="0.8684" stop-color="#C80E0F"/>
<stop offset="1" stop-color="#C10000"/>
</linearGradient>
<linearGradient id="paint2_linear" x1="3.93313" y1="36.1035" x2="60.2285" y2="36.1035" gradientUnits="userSpaceOnUse">
<stop stop-color="#E84F58"/>
<stop offset="0.1857" stop-color="#E4474F"/>
<stop offset="0.4884" stop-color="#D93137"/>
<stop offset="0.8684" stop-color="#C80E0F"/>
<stop offset="1" stop-color="#C10000"/>
</linearGradient>
<linearGradient id="paint3_linear" x1="21.0791" y1="35.1914" x2="20.6185" y2="26.0519" gradientUnits="userSpaceOnUse">
<stop stop-color="#FFE8E3"/>
<stop offset="1" stop-color="#FFE3C2"/>
</linearGradient>
<linearGradient id="paint4_linear" x1="2.99999" y1="32" x2="61" y2="32" gradientUnits="userSpaceOnUse">
<stop stop-color="#FFE8E3"/>
<stop offset="1" stop-color="#FFE3C2"/>
</linearGradient>
</defs>
</svg>
