<svg width="64" height="64" viewBox="0 0 64 64" fill="none" xmlns="http://www.w3.org/2000/svg">
<path d="M63.9511 22.8539C63.5951 26.4299 57.4791 32.4639 53.8891 33.0029C49.9541 33.5929 50.4361 27.1739 52.8831 24.0529C56.2421 19.7669 64.1531 20.8209 63.9511 22.8539Z" fill="url(#paint0_linear)"/>
<path d="M63.7261 23.206C58.8571 27.554 40.5141 43.984 21.3591 55.153C13.7091 59.612 -1.20087 32.372 5.72713 27.88C15.2331 21.718 39.9641 8.32799 45.6271 7.02299C48.5221 6.35399 66.4131 20.806 63.7261 23.206Z" fill="url(#paint1_linear)"/>
<path opacity="0.2" d="M8.09595 27.5259C11.2219 25.5259 14.4039 23.6299 17.6119 21.7789C20.8169 19.9249 24.0749 18.1709 27.3389 16.4269C30.6309 14.7449 33.9309 13.0759 37.2969 11.5549C40.6669 10.0549 44.0619 8.56995 47.5989 7.54395C45.8799 8.20595 44.1989 8.95695 42.5309 9.74295C40.8579 10.5109 39.1979 11.3099 37.5479 12.1319C34.2419 13.7689 30.9499 15.4259 27.6899 17.1619C24.4049 18.8409 21.1569 20.6019 17.8939 22.3339C14.6299 24.0679 11.3779 25.8229 8.09595 27.5259Z" fill="#FC4E00"/>
<path opacity="0.2" d="M12.418 27.526C15.262 25.506 18.231 23.69 21.244 21.962C24.257 20.233 27.341 18.646 30.431 17.075C33.549 15.565 36.676 14.08 39.847 12.699C43.02 11.322 46.212 9.99497 49.46 8.82397L40.091 13.278C36.974 14.775 33.851 16.253 30.768 17.817C27.658 19.323 24.589 20.915 21.525 22.52C18.462 24.129 15.428 25.798 12.418 27.526Z" fill="#FC4E00"/>
<path opacity="0.2" d="M14.8369 28.6099C17.7399 26.7409 20.7159 24.9959 23.7219 23.3129C26.7289 21.6289 29.7909 20.0569 32.8579 18.4969C35.9519 16.9979 39.0529 15.5139 42.2029 14.1429C45.3519 12.7779 48.5239 11.4609 51.7629 10.3359C48.6449 11.7789 45.5379 13.2379 42.4449 14.7219C39.3539 16.2089 36.2559 17.6839 33.1949 19.2399C30.1069 20.7339 27.0589 22.3139 23.9979 23.8749L14.8369 28.6099Z" fill="#FC4E00"/>
<path opacity="0.2" d="M17.0339 30.3169C19.8749 28.3109 22.8319 26.4899 25.8349 24.7579C28.8379 23.0259 31.9139 21.4409 35.0019 19.8799C38.1159 18.3839 41.2459 16.9169 44.4229 15.5699C47.6009 14.2289 50.8019 12.9469 54.0649 11.8459C50.9189 13.2669 47.7829 14.6929 44.6609 16.1529C41.5399 17.6159 38.4179 19.0719 35.3369 20.6259C32.2329 22.1169 29.1699 23.7079 26.1179 25.3139C23.0629 26.9249 20.0419 28.6029 17.0339 30.3169Z" fill="#FC4E00"/>
<path opacity="0.2" d="M19.168 32.4159C21.972 30.4089 24.885 28.5709 27.839 26.8119C30.793 25.0519 33.815 23.4259 36.846 21.8159C39.905 20.2679 42.973 18.7419 46.091 17.3269C49.208 15.9159 52.348 14.5549 55.55 13.3589L46.342 17.9029C43.283 19.4339 40.219 20.9509 37.194 22.5529C34.142 24.0969 31.135 25.7289 28.127 27.3659C25.122 29.0059 22.142 30.6989 19.168 32.4159Z" fill="#FC4E00"/>
<path opacity="0.2" d="M21.178 34.7831C23.959 32.7371 26.832 30.8321 29.747 29.0011C32.661 27.1651 35.644 25.4561 38.636 23.7671C41.657 22.1331 44.69 20.5261 47.779 19.0351C50.867 17.5491 53.982 16.1161 57.168 14.8721C54.113 16.4301 51.069 18.0041 48.043 19.6041C45.017 21.2101 41.988 22.8081 39.003 24.4931C35.988 26.1201 33.02 27.8341 30.049 29.5481C27.079 31.2611 24.132 33.0241 21.178 34.7831Z" fill="#FC4E00"/>
<path opacity="0.2" d="M22.895 38.366C25.668 36.174 28.525 34.098 31.42 32.087C34.314 30.073 37.28 28.172 40.256 26.293C43.266 24.47 46.289 22.673 49.382 21.007C52.475 19.346 55.602 17.743 58.829 16.384C55.741 18.052 52.695 19.791 49.669 21.565C46.646 23.342 43.627 25.128 40.655 27C37.652 28.816 34.702 30.724 31.743 32.619L22.895 38.366Z" fill="#FC4E00"/>
<path opacity="0.2" d="M23.99 41.474C26.872 39.233 29.815 37.086 32.783 34.977C35.749 32.866 38.772 30.84 41.795 28.817C44.852 26.849 47.913 24.886 51.04 23.041C54.173 21.208 57.328 19.397 60.622 17.895C59.047 18.795 57.492 19.728 55.957 20.695C54.409 21.639 52.874 22.605 51.347 23.588C48.29 25.542 45.233 27.495 42.212 29.514C39.159 31.476 36.147 33.509 33.111 35.505C30.079 37.502 27.052 39.515 23.99 41.474Z" fill="#FC4E00"/>
<path opacity="0.2" d="M23.769 45.572C26.848 43.259 29.972 41.016 33.101 38.784L42.533 32.155L52.044 25.649C55.225 23.501 58.412 21.361 61.628 19.259C58.598 21.643 55.491 23.914 52.379 26.175C49.265 28.432 46.108 30.625 42.968 32.839C39.792 34.998 36.633 37.187 33.434 39.31C30.235 41.433 27.027 43.544 23.769 45.572Z" fill="#FC4E00"/>
<path opacity="0.2" d="M23.0691 49.191C26.3771 46.81 29.7161 44.49 33.0471 42.157L43.0421 35.165C46.3891 32.857 49.6951 30.491 53.0071 28.131C54.6651 26.955 56.3141 25.763 57.9531 24.556C59.6041 23.368 61.2341 22.15 62.8501 20.907C59.8151 23.659 56.5921 26.169 53.3551 28.648C50.1111 31.121 46.7941 33.485 43.4791 35.849C40.1271 38.157 36.7771 40.464 33.3741 42.687C29.9721 44.911 26.5491 47.099 23.0691 49.191Z" fill="#FC4E00"/>
<path opacity="0.2" d="M20.9561 53.3109L31.8501 45.9799C35.4651 43.5119 39.0791 41.0489 42.6251 38.4789C46.2081 35.9649 49.7251 33.3519 53.2121 30.6979C54.9601 29.3759 56.6891 28.0249 58.3961 26.6469C60.1181 25.2849 61.8091 23.8829 63.4651 22.4309C60.3611 25.5829 56.9881 28.4289 53.5771 31.2039C50.1541 33.9699 46.6241 36.5849 43.0681 39.1579C39.4761 41.6769 35.8611 44.1539 32.1731 46.5119C28.4841 48.8689 24.7551 51.1559 20.9561 53.3109Z" fill="#FC4E00"/>
<path d="M24.9979 39.3219C27.2799 47.5469 25.6549 55.1899 17.0309 56.7599C9.28286 58.1689 4.55086 53.2179 1.32686 45.3499C-1.54214 38.3489 -0.0591364 28.2679 8.76486 26.9739C15.6189 25.9699 22.7139 31.0969 24.9979 39.3219Z" fill="url(#paint2_linear)"/>
<path d="M23.64 40.0629C25.737 47.6159 24.245 54.6359 16.327 56.0759C9.21202 57.3699 4.86802 52.8239 1.90602 45.5989C-0.72598 39.1709 0.635019 29.9129 8.73502 28.7249C15.029 27.8039 21.544 32.5119 23.64 40.0629Z" fill="url(#paint3_radial)"/>
<path d="M17.823 53.6651C11.066 57.1711 13.15 48.6421 13.15 48.6421L17.823 53.6651Z" fill="#594640"/>
<path d="M20.0431 48.1251C18.7781 46.5961 13.7261 48.8261 13.7261 48.8261C13.7261 48.8261 17.1061 54.5181 18.3971 53.8491C19.4591 53.2971 20.9961 49.2801 20.0431 48.1251Z" fill="#785647"/>
<path d="M3.0948 45.7031C-1.0962 37.9801 6.5818 40.1341 6.5818 40.1341L3.0948 45.7031Z" fill="#785647"/>
<path d="M7.84503 47.9919C8.93503 46.4769 6.13303 40.6909 6.13303 40.6909C6.13303 40.6909 1.84503 44.7849 2.64803 46.2609C3.30603 47.4759 7.02103 49.1309 7.84503 47.9919Z" fill="#594640"/>
<path d="M9.04695 50.4419C4.85595 42.7189 12.536 44.8749 12.536 44.8749L9.04695 50.4419Z" fill="#785647"/>
<path d="M13.505 53.604C14.597 52.093 11.797 46.304 11.797 46.304C11.797 46.304 7.50795 50.404 8.30795 51.876C8.96795 53.089 12.683 54.744 13.505 53.604Z" fill="#594640"/>
<path d="M4.23679 43.3089C-0.479214 34.6229 8.16179 37.0479 8.16179 37.0479L4.23679 43.3089Z" fill="#594640"/>
<path d="M10.325 45.57C11.554 43.867 8.40604 37.364 8.40604 37.364C8.40604 37.364 3.57904 41.966 4.47904 43.624C5.22004 44.987 9.40204 46.854 10.325 45.57Z" fill="#785647"/>
<path d="M5.99222 37.9299C1.80322 30.2119 9.48522 32.3609 9.48522 32.3609L5.99222 37.9299Z" fill="#594640"/>
<path d="M11.1922 39.6631C12.2842 38.1491 9.48517 32.3601 9.48517 32.3601C9.48517 32.3601 5.19117 36.4561 5.99217 37.9291C6.65217 39.1461 10.3692 40.8011 11.1922 39.6631Z" fill="#785647"/>
<path d="M10.4059 44.8029C5.68889 36.1139 14.3329 38.5379 14.3329 38.5379L10.4059 44.8029Z" fill="#594640"/>
<path d="M17.0601 46.3169C18.2901 44.6119 15.1411 38.1089 15.1411 38.1089C15.1411 38.1089 10.3121 42.7119 11.2141 44.3719C11.9531 45.7349 16.1351 47.6009 17.0601 46.3169Z" fill="#785647"/>
<path d="M15.6451 46.8771C14.0671 38.0991 20.7151 43.1991 20.7151 43.1991L15.6451 46.8771Z" fill="#594640"/>
<path d="M20.0571 50.58C21.5681 49.639 20.7151 43.199 20.7151 43.199C20.7151 43.199 15.3431 45.199 15.6451 46.877C15.8931 48.258 18.9171 51.287 20.0571 50.58Z" fill="#785647"/>
<path d="M9.17605 37.706C4.98305 29.981 12.666 32.137 12.666 32.137L9.17605 37.706Z" fill="#785647"/>
<path d="M14.375 39.436C15.466 37.923 12.667 32.137 12.667 32.137C12.667 32.137 8.37604 36.233 9.17704 37.706C9.83404 38.92 13.551 40.576 14.375 39.436Z" fill="#594640"/>
<path d="M13.312 38.9951C17.331 46.3931 19.087 38.1311 19.087 38.1311L13.312 38.9951Z" fill="#594640"/>
<path d="M14.507 31.7711C16.141 31.4001 19.301 36.6171 19.301 36.6171C19.301 36.6171 14.296 38.8961 13.527 37.4821C12.898 36.3241 13.281 32.0481 14.507 31.7711Z" fill="#785647"/>
<path d="M22.191 41.9851C20.466 51.5921 15.678 42.9891 15.678 42.9891L22.191 41.9851Z" fill="#594640"/>
<path d="M18.424 35.489C16.541 35.63 14.968 42.513 14.968 42.513C14.968 42.513 21.153 43.343 21.483 41.509C21.755 40.005 19.845 35.379 18.424 35.489Z" fill="#785647"/>
<path d="M11.545 48.6541C8.27096 42.6231 14.268 44.3071 14.268 44.3071L11.545 48.6541Z" fill="#594640"/>
<path d="M15.601 50.0051C16.456 48.8211 14.268 44.3081 14.268 44.3081C14.268 44.3081 10.918 47.5001 11.545 48.6551C12.06 49.6011 14.959 50.8931 15.601 50.0051Z" fill="#785647"/>
<path d="M11.858 43.9579C10.934 43.1019 6.98202 45.6559 7.37702 47.1519C8.53502 48.1649 12.16 45.2189 11.858 43.9579Z" fill="#AB6647"/>
<path d="M17.8061 33.1751C16.8851 32.3201 12.9351 34.8701 13.3251 36.3641C14.4871 37.3821 18.1111 34.4381 17.8061 33.1751Z" fill="#AB6647"/>
<path d="M11.1521 34.3911C11.1541 33.0721 6.8161 30.6941 6.0271 31.8591C6.0681 33.4921 10.4681 35.3451 11.1521 34.3911Z" fill="#AB6647"/>
<path d="M18.9361 51.8311C18.9391 50.5081 14.5991 48.1351 13.8101 49.2971C13.8551 50.9301 18.2521 52.7841 18.9361 51.8311Z" fill="#AB6647"/>
<path d="M22.3469 42.457C22.3489 41.142 18.0139 38.765 17.2219 39.925C17.2659 41.558 21.6619 43.414 22.3469 42.457Z" fill="#AB6647"/>
<path d="M20.3409 52.276C21.2639 51.577 20.1179 46.235 18.7969 46.106C17.6849 47.006 19.2319 52.134 20.3409 52.276Z" fill="#AB6647"/>
<path d="M10.6449 36.0589C11.7259 36.5549 14.7159 32.6499 13.9539 31.3319C12.6039 30.7669 10.0259 34.9369 10.6449 36.0589Z" fill="#AB6647"/>
<path d="M16.3539 40.826C17.4369 41.326 20.4259 37.418 19.6639 36.104C18.3119 35.534 15.7349 39.705 16.3539 40.826Z" fill="#AB6647"/>
<path d="M2.44292 45.2979C3.52492 45.7989 6.51592 41.8909 5.75192 40.5769C4.40492 40.0069 1.82392 44.1779 2.44292 45.2979Z" fill="#AB6647"/>
<path d="M2.49695 39.3441C3.58095 39.8461 6.56995 35.9371 5.80695 34.6251C4.45695 34.0531 1.87495 38.2261 2.49695 39.3441Z" fill="#AB6647"/>
<path d="M13.9739 48.1449C15.0599 48.6449 18.0479 44.7349 17.2839 43.4229C15.9359 42.8499 13.3559 47.0219 13.9739 48.1449Z" fill="#AB6647"/>
<path d="M11.4959 54.6431C12.2149 55.7261 16.6709 54.4841 16.6149 52.9451C15.6939 51.6371 11.4739 53.3541 11.4959 54.6431Z" fill="#AB6647"/>
<path d="M8.229 37.971C8.579 39.256 13.237 40.005 13.663 38.593C13.187 37.017 8.609 36.794 8.229 37.971Z" fill="#AB6647"/>
<path d="M6.125 51.1421C6.478 52.4271 11.136 53.1771 11.563 51.7611C11.087 50.1881 6.507 49.9611 6.125 51.1421Z" fill="#AB6647"/>
<path d="M6.16701 38.7419C5.49801 39.7559 7.98301 44.5439 9.24601 44.1979C10.037 42.9169 7.23401 38.4789 6.16701 38.7419Z" fill="#AB6647"/>
<path d="M17.1541 45.9361C13.5371 46.7421 16.0911 53.1611 18.9681 47.0571C21.8101 41.0391 16.3821 41.8491 17.1541 45.9361Z" fill="#593A30"/>
<path d="M13.358 48.7399C16.637 46.9359 12.876 41.3079 11.395 48.1409C9.92901 54.8839 14.937 52.5629 13.358 48.7399Z" fill="#593A30"/>
<path d="M6.97887 48.2729C4.83787 51.5149 10.4279 54.8439 8.94087 47.8719C7.47587 40.9899 4.03087 45.5409 6.97887 48.2729Z" fill="#593A30"/>
<path d="M9.29488 41.537C9.69488 45.315 12.9569 45.607 14.9079 44.735C16.8999 43.849 9.02488 38.905 9.29488 41.537Z" fill="#8F563B"/>
<path d="M3.91006 47.8781C5.11906 50.9231 6.91906 49.7081 7.71706 48.1021C8.52306 46.4561 3.06206 45.7481 3.91006 47.8781Z" fill="#8F563B"/>
<path d="M3.25995 34.9919C4.52495 38.1779 6.40895 36.9149 7.24595 35.2249C8.08895 33.5069 2.37495 32.7639 3.25995 34.9919Z" fill="#8F563B"/>
<path d="M17.3589 35.5401C14.9009 33.9721 14.5469 37.0011 15.0119 39.3461C15.4889 41.7441 19.0729 36.6401 17.3589 35.5401Z" fill="#8F563B"/>
<path d="M15.1949 49.7319C12.7719 48.1829 12.4239 51.1699 12.8819 53.4839C13.3499 55.8489 16.8849 50.8129 15.1949 49.7319Z" fill="#8F563B"/>
<path d="M21.944 43.214C19.487 44.002 20.039 46.942 21.076 48.572C22.134 50.24 23.666 42.661 21.944 43.214Z" fill="#8F563B"/>
<path d="M13.365 38.4331C10.702 41.2521 15.575 45.5781 15.356 38.3971C15.141 31.3111 10.974 35.1851 13.365 38.4331Z" fill="#593A30"/>
<path d="M30.6601 22.489C28.6281 19.815 24.4521 18.351 22.1311 18.336C22.2411 17.401 24.3201 17.179 25.4831 16.198C26.8591 15.036 32.0291 16.609 33.7521 19.338C35.4791 22.066 31.2241 23.23 30.6601 22.489Z" fill="url(#paint4_linear)"/>
<path d="M32.7751 25.081C40.1661 29.159 42.2081 38.394 42.7121 40.809C43.6151 41.395 44.4401 39.371 45.7801 38.698C47.2611 37.953 44.2231 26.813 36.3881 21.291C33.8131 19.479 31.9781 24.643 32.7751 25.081Z" fill="url(#paint5_linear)"/>
<path d="M31.2789 22.6031C29.5859 18.6591 25.0969 13.9401 22.5019 12.6241C20.5539 11.6351 24.2179 11.8681 25.2499 10.5771C26.3919 9.1451 31.7019 14.4311 33.0369 18.2601C34.3739 22.0941 31.7499 23.6991 31.2789 22.6031Z" fill="url(#paint6_linear)"/>
<path d="M35.126 25.3959C39.189 25.5989 44.969 28.2799 47.084 30.3579C48.67 31.9159 47.101 28.3789 47.841 26.8759C48.659 25.2119 42.079 21.9309 38.249 22.0359C34.416 22.1429 33.997 25.3389 35.126 25.3959Z" fill="url(#paint7_linear)"/>
<path d="M31.0031 19.9611C33.4171 16.6671 34.4391 18.7191 36.9681 20.3741C40.6531 22.7851 38.2981 20.9631 36.5571 24.8561C35.0361 28.2581 35.1471 27.5511 32.2511 24.7461C29.3511 21.9381 28.0011 24.0561 31.0031 19.9611Z" fill="url(#paint8_linear)"/>
<defs>
<linearGradient id="paint0_linear" x1="58.9923" y1="30.1204" x2="52.042" y2="25.5191" gradientUnits="userSpaceOnUse">
<stop stop-color="#FFA959"/>
<stop offset="0.5799" stop-color="#D07725"/>
<stop offset="0.8667" stop-color="#BD6411"/>
</linearGradient>
<linearGradient id="paint1_linear" x1="40.1855" y1="39.3729" x2="23.5664" y2="15.8312" gradientUnits="userSpaceOnUse">
<stop stop-color="#FFA959"/>
<stop offset="0.515" stop-color="#FFCE6E"/>
<stop offset="0.8667" stop-color="#FFE27A"/>
</linearGradient>
<linearGradient id="paint2_linear" x1="31.4205" y1="55.8039" x2="6.55154" y2="37.2853" gradientUnits="userSpaceOnUse">
<stop stop-color="#F09641"/>
<stop offset="0.1391" stop-color="#F3A34A"/>
<stop offset="0.4758" stop-color="#FABF5B"/>
<stop offset="0.7738" stop-color="#FECF65"/>
<stop offset="1" stop-color="#FFD569"/>
</linearGradient>
<radialGradient id="paint3_radial" cx="0" cy="0" r="1" gradientUnits="userSpaceOnUse" gradientTransform="translate(12.5454 42.6219) rotate(-29.4465) scale(11.2386 14.9305)">
<stop offset="0.4667" stop-color="#FFEFB0"/>
<stop offset="0.5512" stop-color="#FEECAA"/>
<stop offset="0.6604" stop-color="#FBE39A"/>
<stop offset="0.783" stop-color="#F5D480"/>
<stop offset="0.9145" stop-color="#EEC05B"/>
<stop offset="1" stop-color="#E8B13F"/>
</radialGradient>
<linearGradient id="paint4_linear" x1="28.7068" y1="23.0023" x2="27.7648" y2="16.9333" gradientUnits="userSpaceOnUse">
<stop stop-color="#DB893C"/>
<stop offset="0.2187" stop-color="#DD8D3F"/>
<stop offset="0.4555" stop-color="#E39A46"/>
<stop offset="0.7007" stop-color="#EDB053"/>
<stop offset="0.9503" stop-color="#FCCE65"/>
<stop offset="1" stop-color="#FFD569"/>
</linearGradient>
<linearGradient id="paint5_linear" x1="33.2273" y1="31.2578" x2="43.5749" y2="30.6505" gradientUnits="userSpaceOnUse">
<stop stop-color="#DB893C"/>
<stop offset="0.2187" stop-color="#DD8D3F"/>
<stop offset="0.4555" stop-color="#E39A46"/>
<stop offset="0.7007" stop-color="#EDB053"/>
<stop offset="0.9503" stop-color="#FCCE65"/>
<stop offset="1" stop-color="#FFD569"/>
</linearGradient>
<linearGradient id="paint6_linear" x1="27.404" y1="21.3878" x2="29.9041" y2="13.3951" gradientUnits="userSpaceOnUse">
<stop stop-color="#DB893C"/>
<stop offset="0.2187" stop-color="#DD8D3F"/>
<stop offset="0.4555" stop-color="#E39A46"/>
<stop offset="0.7007" stop-color="#EDB053"/>
<stop offset="0.9503" stop-color="#FCCE65"/>
<stop offset="1" stop-color="#FFD569"/>
</linearGradient>
<linearGradient id="paint7_linear" x1="37.7398" y1="28.5718" x2="43.7435" y2="23.6627" gradientUnits="userSpaceOnUse">
<stop stop-color="#DB893C"/>
<stop offset="0.2187" stop-color="#DD8D3F"/>
<stop offset="0.4555" stop-color="#E39A46"/>
<stop offset="0.7007" stop-color="#EDB053"/>
<stop offset="0.9503" stop-color="#FCCE65"/>
<stop offset="1" stop-color="#FFD569"/>
</linearGradient>
<linearGradient id="paint8_linear" x1="32.1337" y1="25.2695" x2="35.9316" y2="19.2701" gradientUnits="userSpaceOnUse">
<stop stop-color="#F09641"/>
<stop offset="0.147" stop-color="#F3A148"/>
<stop offset="0.7055" stop-color="#FCC760"/>
<stop offset="1" stop-color="#FFD569"/>
</linearGradient>
</defs>
</svg>
