<svg width="64" height="64" viewBox="0 0 64 64" fill="none" xmlns="http://www.w3.org/2000/svg">
<path d="M2.03296 29.2649C2.03296 29.2649 3.12296 43.4659 5.76196 50.8949C11.023 65.7109 50.036 65.6929 55.298 50.8949C57.939 43.4659 59.028 29.2649 59.028 29.2649H2.03296Z" fill="url(#paint0_linear)"/>
<path d="M39.764 47.269C41.881 44.877 48.064 47.324 50.677 47.162C57.444 46.748 63.423 41.687 63.807 39.786C64.096 38.342 64.012 37.54 63.868 37.166C63.807 41.776 53.462 45.14 50.158 45.173C48.766 45.187 41.797 42.86 38.651 43.394C35.504 43.928 39.764 47.269 39.764 47.269Z" fill="url(#paint1_linear)"/>
<path d="M63.867 37.1649C63.293 35.9449 60.902 35.1589 59.685 34.1769C58.469 33.1949 58.867 31.4889 59.009 29.7749C57.578 30.3509 34.202 43.1409 36.869 43.0689C42.629 42.9159 49.082 45.6049 50.574 45.3599C58.941 43.9969 64.858 39.2699 63.867 37.1649ZM48.542 43.6999C47.99 42.0429 50.717 42.5099 55.735 38.7949C56.948 37.8969 61.908 37.3599 61.628 38.8389C61.422 39.9219 54.344 44.7289 48.542 43.6999Z" fill="#C1D0D9"/>
<path d="M48.5421 43.7C46.8171 43.439 47.7491 41.362 48.2451 41.215C50.2291 40.628 54.0011 38.636 56.0701 36.561C56.8301 35.799 61.9181 35.942 62.0451 38.137C61.9731 38.356 61.6281 38.839 61.6281 38.839C61.1741 38.61 57.4781 38.423 56.2651 39.32C51.2461 43.033 48.7661 42.925 48.5421 43.7Z" fill="#919DA3"/>
<path d="M1.38212 20.319C1.82012 17.726 7.69312 14.507 13.3011 14.697C14.4991 14.737 18.3591 16.968 21.1721 16.988C24.5001 17.012 15.9231 20.611 15.8421 19.72C15.5881 16.928 13.5791 16.339 11.8721 16.476C9.23912 16.686 3.01512 18.802 2.26512 21.634C2.20012 21.879 1.26712 21.006 1.38212 20.319Z" fill="#919DA3"/>
<path d="M4.06702 26.6389C3.63902 25.7579 -0.239976 22.1869 0.125024 20.0289C0.563024 17.4369 7.36002 13.8209 12.969 14.0079C14.167 14.0479 17.668 15.4959 20.613 16.3879C23.824 17.3599 17.159 18.8869 16.853 18.0589C15.947 15.5919 13.07 15.0149 11.363 15.1499C8.73203 15.3619 2.80502 17.4869 1.77102 19.9119C1.09102 21.5059 5.36502 23.1709 8.21402 21.4269C9.75102 20.4839 4.06702 26.6389 4.06702 26.6389Z" fill="#C1D0D9"/>
<path d="M3.0769 26.7671C3.2139 25.6171 0.678899 23.4651 0.268899 22.8111C-0.0811013 22.2481 -0.0441013 20.3761 0.123899 20.0291C0.0488987 22.6491 2.7499 23.1121 3.9479 25.5911C4.4789 26.6881 3.0769 26.7671 3.0769 26.7671Z" fill="#919DA3"/>
<path d="M30.531 43.4191C46.27 43.4191 59.029 37.0821 59.029 29.2651C59.029 21.448 46.27 15.1111 30.531 15.1111C14.7919 15.1111 2.03296 21.448 2.03296 29.2651C2.03296 37.0821 14.7919 43.4191 30.531 43.4191Z" fill="#C1D0D9"/>
<path d="M30.5301 42.5641C43.9331 42.5641 55.1111 37.9191 57.6921 31.7511C57.8641 31.1691 58.0301 30.5761 58.1841 29.9821C58.2311 29.6661 58.2521 29.3531 58.2521 29.0281C58.2521 21.5581 45.8421 15.4961 30.5301 15.4961C15.2171 15.4961 2.80811 21.5601 2.80811 29.0281C2.80811 29.3531 2.82911 29.6661 2.87411 29.9821C3.03111 30.5761 3.19411 31.1681 3.36611 31.7521C5.94311 37.9201 17.1261 42.5641 30.5301 42.5641Z" fill="#788287"/>
<path d="M30.53 42.5639C43.933 42.5639 55.111 37.9189 57.692 31.7509C57.749 31.5649 57.803 31.3779 57.854 31.1919C55.614 24.8159 44.235 19.9609 30.53 19.9609C16.823 19.9609 5.44801 24.8159 3.20801 31.1919C3.26201 31.3779 3.31501 31.5679 3.36701 31.7509C5.94301 37.9199 17.126 42.5639 30.53 42.5639Z" fill="url(#paint2_radial)"/>
<path opacity="0.5" d="M36.031 20.6609C37.363 22.3529 38.863 21.4099 40.361 23.2579C40.555 23.4929 40.077 24.5889 39.863 24.3719C38.04 22.5609 36.82 23.3549 35.509 21.8009C35.291 21.5469 35.924 20.5259 36.031 20.6609Z" fill="#E6A868"/>
<path d="M43.6241 20.0429C43.7971 19.6809 45.0631 19.5609 45.5111 19.7519C46.6371 20.2339 49.6161 21.9979 50.0111 23.0019C50.1881 23.4469 50.0551 25.6999 49.8791 25.9629C49.5071 26.5199 48.9131 26.7989 48.4941 26.8019C47.9451 24.6529 42.7421 21.9189 43.6241 20.0429Z" fill="#F0A000"/>
<path d="M41.8711 23.7909C42.4881 25.2329 46.8011 25.4089 48.4941 26.8019C48.8081 26.5689 49.1951 24.1819 48.8241 23.3579C48.3981 22.4069 44.8331 19.7529 44.2171 19.7529C42.7871 19.7519 41.3711 22.1519 41.8711 23.7909Z" fill="#F9B700"/>
<path d="M39.308 21.0051C39.724 20.9011 40.951 21.1011 41.247 21.3671C41.526 21.6171 41.943 22.0721 42.341 22.5891C42.403 22.6681 42.203 22.8571 42.261 22.9381C42.309 23.0061 42.503 23.0211 42.55 23.0891C42.783 23.4281 42.641 23.5051 42.826 23.8681C42.838 23.8951 42.89 24.2711 42.905 24.3021C42.935 24.3671 42.972 24.6151 43.003 24.6811C43.147 25.0171 42.553 25.3781 42.696 25.4741C42.973 25.6531 41.925 27.0931 41.606 27.2411C40.928 27.5601 39.704 27.6961 39.579 27.5721C36.83 24.8711 37.665 22.7151 39.308 21.0051Z" fill="#8C4E2A"/>
<path d="M37.582 24.021C37.299 25.279 39.188 27.783 39.642 27.686C40.074 27.597 41.457 25.709 41.603 24.988C41.624 24.881 39.852 25.976 40.011 25.818C40.913 24.906 41.427 24.531 41.37 24.371C41.328 24.252 40.648 24.646 39.82 25.15C39.679 25.235 41.373 23.868 41.322 23.755C41.262 23.628 40.872 23.056 40.804 22.926C40.739 22.804 39.9 23.615 39.227 24.04C38.784 24.319 40.746 22.609 40.694 22.52C40.648 22.442 37.815 24.502 37.966 24.357C39.404 22.99 40.454 22.055 40.401 21.979C40.066 21.478 39.677 21.042 39.474 21.004C38.604 20.839 37.762 23.477 37.582 24.021Z" fill="#9E582F"/>
<path d="M33.457 26.11C29.671 28.183 22.49 28.332 18.145 28.584C15.857 28.718 13.567 28.803 11.277 28.871C11.029 28.328 10.952 27.594 11.137 26.58C11.851 22.68 3.49301 22.547 9.15601 18.93C12.252 16.952 12.064 11.05 19.596 15.815C22.41 17.597 31.899 15.079 28.436 22.853C27.394 25.191 31.179 24.973 33.457 26.11Z" fill="url(#paint3_linear)"/>
<path d="M18.145 28.5841C16.652 28.6711 15.16 28.7401 13.666 28.7971C14.797 26.9831 9.80397 26.9491 11.945 24.5411C12.641 23.7601 4.94697 21.4801 8.79497 20.5181C13.158 19.4251 11.522 13.9201 14.818 14.6301C20.305 15.8121 17.47 17.5841 21.802 16.9381C25.837 16.3371 21.392 18.7921 26.384 18.7071C30.514 18.6371 25.259 24.1071 28.948 24.9791C31.813 25.6551 31.876 26.2331 32.001 26.7701C28.029 28.2231 21.979 28.3621 18.145 28.5841Z" fill="url(#paint4_radial)"/>
<path d="M20.2701 28.4711C18.2771 25.6171 16.7971 22.4191 16.3931 18.6941C18.5921 22.8271 20.7211 25.8971 22.7891 28.3221C21.9171 28.3811 21.0701 28.4291 20.2701 28.4711Z" fill="#E5EFCD"/>
<path d="M18.7419 22.8399C19.1149 23.7099 17.9999 23.2409 17.8359 22.6579C19.7759 19.2619 16.8989 20.3689 18.4249 16.8979C17.6079 19.7989 20.1009 18.9959 18.7419 22.8399Z" fill="#E5EFCD"/>
<path d="M22.2949 27.5591C22.7429 28.5401 21.6939 27.9541 21.4709 27.2991C22.7239 23.7021 21.2219 24.8841 23.5599 19.1941C22.2349 25.0741 22.9749 23.4341 22.2949 27.5591Z" fill="#E5EFCD"/>
<path d="M22.7911 22.4769C22.6501 22.6429 22.5591 22.8509 22.5121 23.0729C21.6471 19.9679 20.8881 21.4709 19.7891 18.3059C20.8541 20.7019 21.5741 19.7829 22.7911 22.4769Z" fill="#E5EFCD"/>
<path d="M21.968 25.8651C22.178 26.0031 22.316 26.1731 22.386 26.3561C23.686 23.8071 24.824 25.0411 26.472 22.4451C24.874 24.4101 23.794 23.6581 21.968 25.8651Z" fill="#E5EFCD"/>
<path d="M18.3739 28.573C16.8769 28.16 15.7079 28.232 12.4719 26.052C16.0099 28.093 16.9139 27.433 19.6499 28.504C19.2049 28.526 18.7769 28.549 18.3739 28.573Z" fill="#E5EFCD"/>
<path d="M19.0819 24.679C19.0169 24.999 19.0819 25.344 19.2399 25.681C14.3549 22.002 14.6619 24.566 9.30591 20.96C13.7709 23.534 14.0309 21.799 19.0819 24.679Z" fill="#E5EFCD"/>
<path d="M50.5459 29.706C50.5459 29.706 52.6579 31.938 56.1709 30.398C58.6139 29.326 54.8979 25.864 53.5569 25.864C52.9859 25.864 50.5459 27.646 50.5459 29.706Z" fill="#F5D69A"/>
<path d="M56.1709 30.398C58.6139 29.326 54.8979 25.864 53.5569 25.864C55.2509 27.767 53.3779 31.763 50.5459 29.706C50.5459 29.706 52.6579 31.938 56.1709 30.398Z" fill="#DEB787"/>
<path d="M39.6731 28.0071C45.3671 28.0071 41.3961 31.3671 41.3961 31.3671L39.6731 28.0071Z" fill="#DEB787"/>
<path d="M38.235 30.0691C38.651 31.0571 41.395 31.3671 41.395 31.3671C41.395 31.3671 40.761 28.0071 39.672 28.0071C38.777 28.0071 37.924 29.3261 38.235 30.0691Z" fill="#F5D69A"/>
<path opacity="0.3" d="M16.605 38.7129C16.605 38.7129 20.491 42.6159 23.892 36.4829C19.931 39.8389 16.605 38.7129 16.605 38.7129Z" fill="#F55A00"/>
<path opacity="0.3" d="M29.8401 29.373C29.8401 29.373 31.9801 34.16 36.9601 29.922C32.3941 31.515 29.8401 29.373 29.8401 29.373Z" fill="#F55A00"/>
<path opacity="0.3" d="M19.0259 31.6599C19.0259 31.6599 20.8409 36.7809 26.0049 33.2169C21.4099 34.1789 19.0259 31.6599 19.0259 31.6599Z" fill="#F55A00"/>
<path opacity="0.3" d="M6.89893 32.5071C6.89893 32.5071 8.71293 37.6291 13.8769 34.0611C9.28093 35.0251 6.89893 32.5071 6.89893 32.5071Z" fill="#F55A00"/>
<path opacity="0.3" d="M43.296 31.242C43.525 32.363 44.386 31.863 44.815 30.761C45.106 30.011 43.071 30.165 43.296 31.242Z" fill="#F55A00"/>
<path opacity="0.3" d="M55.088 32.779C54.114 32.671 54.097 33.464 54.748 34.077C55.193 34.497 56.031 32.883 55.088 32.779Z" fill="#F55A00"/>
<path opacity="0.3" d="M55.0159 31.0289C54.6579 31.5829 55.2639 31.8029 55.9259 31.5729C56.3749 31.4169 55.3629 30.4889 55.0159 31.0289Z" fill="#F55A00"/>
<path opacity="0.3" d="M35.3091 40.859C35.4581 41.578 36.0101 41.257 36.2871 40.552C36.4731 40.068 35.1661 40.169 35.3091 40.859Z" fill="#F55A00"/>
<path opacity="0.3" d="M28.525 41.188C28.754 42.305 29.616 41.809 30.046 40.707C30.337 39.955 28.3 40.109 28.525 41.188Z" fill="#F55A00"/>
<path opacity="0.3" d="M13.5549 37.3071C12.6449 36.9761 12.4369 37.5151 12.9139 38.1071C13.2419 38.5091 14.4349 37.6241 13.5549 37.3071Z" fill="#F55A00"/>
<path opacity="0.3" d="M33.4111 40.1181C33.5591 40.8361 34.1121 40.5161 34.3881 39.8081C34.5751 39.3261 33.2681 39.4281 33.4111 40.1181Z" fill="#F55A00"/>
<path opacity="0.3" d="M6.68392 34.3049C6.83192 35.0239 7.38392 34.7019 7.66092 33.9949C7.84792 33.5169 6.54192 33.6139 6.68392 34.3049Z" fill="#F55A00"/>
<path opacity="0.3" d="M15.9011 31.98C16.0501 32.699 16.6021 32.376 16.8781 31.672C17.0651 31.188 15.7581 31.289 15.9011 31.98Z" fill="#F55A00"/>
<path opacity="0.3" d="M43.289 27.0049C43.436 27.7249 43.989 27.4019 44.265 26.6959C44.452 26.2119 43.146 26.3129 43.289 27.0049Z" fill="#F55A00"/>
<path opacity="0.3" d="M45.5921 26.4801C44.7651 26.9991 46.1541 27.3391 47.6571 27.2231C48.6861 27.1421 46.3831 25.9811 45.5921 26.4801Z" fill="#F55A00"/>
<path d="M29.158 23.0819C29.158 23.7029 32.553 26.1999 35.395 24.4219C37.178 23.3029 34.33 19.2389 33.303 19.1929C32.689 19.1659 29.158 20.9369 29.158 23.0819Z" fill="#DEAE73"/>
<path d="M33.406 19.3889C33.406 19.3889 33.42 19.3269 33.439 19.2279C33.392 19.2139 33.344 19.1949 33.302 19.1939C32.688 19.1669 29.157 20.9369 29.157 23.0829C29.157 23.6049 31.563 25.4479 34.02 24.9619C34.701 23.7379 32.116 19.3889 33.406 19.3889Z" fill="#F5D69A"/>
<path opacity="0.5" d="M45.5099 28.957C51.1389 30.061 51.4399 27.083 49.2779 24.526C49.0029 24.198 48.0819 24.146 48.3179 24.482C50.1189 27.065 49.5189 28.36 45.0039 27.711C44.5209 27.643 45.2609 28.907 45.5099 28.957Z" fill="#E6A868"/>
<path opacity="0.5" d="M30.3119 32.1839C31.8079 33.6219 33.2179 32.4829 34.8969 34.0439C35.1099 34.2449 34.7399 35.3759 34.5019 35.2009C32.5039 33.7209 31.3649 34.6729 29.8999 33.3639C29.6619 33.1509 30.1939 32.0699 30.3119 32.1839Z" fill="#E6A868"/>
<path d="M12.7651 27.0079C12.5831 26.6239 10.5791 26.7659 10.1051 26.9689C8.91405 27.4789 8.29305 27.9649 7.87205 29.0319C7.68605 29.5059 7.82605 31.8959 8.01405 32.1749C8.41005 32.7639 9.71205 33.5179 10.1591 33.5209C11.3491 33.5309 13.6991 28.9979 12.7651 27.0079Z" fill="#F0A000"/>
<path d="M15.314 31.8271C14.659 33.3591 10.442 33.7561 10.093 33.4931C9.75996 33.2431 9.02496 30.1221 9.37096 29.2281C9.66296 28.4651 11.819 26.8931 12.472 26.8931C13.991 26.8941 15.846 30.0901 15.314 31.8271Z" fill="#F9B700"/>
<path d="M28.483 26.554C28.226 26.08 27.316 25.93 26.754 25.95C26.227 25.972 25.375 26.08 24.489 26.258C24.352 26.286 24.407 26.608 24.271 26.639C24.159 26.664 24.171 26.327 24.063 26.354C23.504 26.49 22.905 26.665 22.387 26.861C22.345 26.878 22.309 27.18 22.272 27.194C22.176 27.233 22.085 26.983 21.996 27.021C21.541 27.223 21.199 27.444 21.084 27.665C20.862 28.092 21.031 30.705 21.25 31.079C21.72 31.874 22.146 32.59 22.388 32.529C28.279 31.052 30.166 29.655 28.483 26.554Z" fill="#8C4E2A"/>
<path d="M29.836 30.9579C27.454 30.7129 22.802 32.9549 22.387 32.5269C21.992 32.1239 22.11 29.3579 22.576 28.5859C22.646 28.4719 23.645 30.8019 23.608 30.5379C23.405 29.0269 23.167 28.2969 23.366 28.1919C23.517 28.1139 23.926 28.9829 24.397 30.0629C24.476 30.2509 23.801 27.7269 23.957 27.6669C24.135 27.5929 25.06 27.3579 25.246 27.2889C25.427 27.2239 25.642 28.5969 26.014 29.4889C26.261 30.0789 25.586 27.0399 25.721 26.9989C25.843 26.9639 27.168 30.9679 27.127 30.7229C26.73 28.3899 26.389 26.7529 26.512 26.7209C27.318 26.5119 28.125 26.4049 28.382 26.5199C29.485 27.0139 30.116 30.3259 29.836 30.9579Z" fill="#9E582F"/>
<path d="M35.702 34.479C35.251 34.06 35.189 33.984 35.133 33.563C35.009 32.651 35.724 31.101 36.394 30.481C36.987 29.934 38.996 29.725 39.867 29.974C40.178 30.062 40.961 30.592 41.306 30.987C41.907 31.676 36.605 33.557 35.702 34.479Z" fill="#D13200"/>
<path d="M35.7019 34.4791C35.5779 33.5671 36.3519 31.6351 37.0679 31.0701C37.7809 30.5051 40.1329 30.1771 40.9229 30.6301C41.4019 30.9051 42.4219 32.5361 42.4779 33.4521C42.5319 34.3721 38.1039 33.5571 35.7019 34.4791Z" fill="#FF6A00"/>
<path opacity="0.5" d="M13.322 35.3899C12.43 29.3729 7.91003 29.2849 5.10903 31.7549C4.75003 32.0709 5.08603 33.0449 5.47703 32.7729C8.47703 30.6779 10.648 31.2119 11.711 36.0199C11.827 36.5339 13.36 35.6569 13.322 35.3899Z" fill="#E6A868"/>
<path opacity="0.5" d="M16.8101 29.5891C17.6991 29.9781 18.5321 29.8151 19.3771 30.9331C19.4741 31.0621 19.9341 29.9951 19.7401 29.7541C18.8901 28.7081 18.1561 28.8481 17.2161 28.4021C17.0871 28.8011 16.9531 29.1971 16.8101 29.5891Z" fill="#E6A868"/>
<path d="M46.1649 29.1729C46.4619 28.9539 47.1199 29.0019 47.5809 29.1729C48.0159 29.3309 48.7139 29.6479 49.4399 30.0309C49.5499 30.0869 49.5039 30.3269 49.6139 30.3869C49.7079 30.4359 49.6949 30.1679 49.7889 30.2209C50.2419 30.4779 50.7369 30.7799 51.1599 31.0749C51.1929 31.0979 51.2229 31.3449 51.2559 31.3679C51.3329 31.4229 51.4089 31.2539 51.4809 31.3049C51.8529 31.5899 52.1339 31.8549 52.2279 32.0579C52.4089 32.4539 52.2749 34.4539 52.0929 34.6879C51.7059 35.1839 50.8719 35.4549 50.4379 35.4589C49.2759 35.4669 44.2929 30.5519 46.1649 29.1729Z" fill="#8C4E2A"/>
<path d="M44.9461 33.5131C45.5861 34.7951 50.3241 35.6571 50.6621 35.4361C50.9861 35.2261 51.3861 33.1091 51.0031 32.3761C50.9481 32.2671 50.1301 33.8201 50.1571 33.6211C50.3251 32.4951 50.5201 31.9891 50.3561 31.8501C50.2331 31.7481 49.9001 32.3171 49.5121 33.0371C49.4451 33.1611 49.9981 31.3691 49.8731 31.2761C49.7271 31.1721 48.9671 30.7371 48.8141 30.6301C48.6681 30.5301 48.4901 31.5471 48.1851 32.1441C47.9841 32.5381 48.5351 30.3441 48.4251 30.2731C48.3291 30.2131 47.2381 32.9881 47.2741 32.8071C47.6011 31.0881 47.8771 29.8981 47.7781 29.8401C47.1181 29.4551 46.4571 29.1521 46.2451 29.1721C45.3441 29.2601 44.7211 32.9421 44.9461 33.5131Z" fill="#9E582F"/>
<path opacity="0.5" d="M27.4579 32.043C27.4109 33.023 27.8549 33.758 27.1249 34.956C27.0419 35.093 28.1849 35.151 28.3389 34.882C29.0049 33.708 28.6189 33.061 28.6959 32.011C28.2839 32.028 27.8679 32.043 27.4579 32.043Z" fill="#E6A868"/>
<path d="M35.5541 29.1059C35.3651 29.2619 34.7861 29.5809 34.5831 29.6089C34.0341 29.6839 32.2231 29.8679 31.5101 29.4199C30.7991 28.9709 29.8451 26.9819 29.8091 26.1309C29.7761 25.3819 30.8161 23.8119 31.5091 23.3299C31.7531 23.1569 32.5881 22.9089 33.0681 22.8939C33.9051 22.8639 36.6371 28.2059 35.5541 29.1059Z" fill="#D13200"/>
<path d="M36.9911 26.2489C37.0301 27.0979 36.2941 28.7059 35.5531 29.1059C34.8121 29.5059 32.913 29.4439 32.2 28.9949C31.487 28.5469 30.591 26.8449 30.619 25.9939C30.645 25.1439 31.808 23.2589 32.592 22.9569C33.068 22.7729 34.813 23.0019 35.487 23.5069C36.163 24.0109 36.9521 25.3979 36.9911 26.2489Z" fill="#FF6A00"/>
<path opacity="0.5" d="M23.25 41.1189C24.267 40.5019 24.821 39.5869 26.358 39.4779C26.535 39.4649 26.094 38.3369 25.754 38.3729C24.267 38.5279 23.775 39.3329 22.675 39.9659C22.875 40.3469 23.07 40.7289 23.25 41.1189Z" fill="#E6A868"/>
<path d="M31.3751 35.4079C31.0931 35.2519 29.8651 35.0319 29.3751 35.1009C28.4681 35.2339 27.1011 35.8609 26.7141 36.5389C26.5411 36.8379 25.9931 38.4199 26.1621 38.5959C26.5261 38.9709 28.8391 39.3169 29.2501 39.3199C30.8841 37.6009 32.8441 36.2269 31.3751 35.4079Z" fill="#F0A000"/>
<path d="M33.679 37.894C31.066 38.306 29.505 39.475 29.18 39.307C28.874 39.149 28.192 37.342 28.554 36.786C28.973 36.146 30.693 35.244 31.241 35.36C31.763 35.473 33.344 36.656 33.679 37.894Z" fill="#F9B700"/>
<path opacity="0.5" d="M45.0631 38.834C46.3161 38.42 46.9811 37.459 48.9021 37.872C49.1221 37.922 48.5381 36.332 48.1131 36.255C46.2591 35.916 45.6731 36.761 44.3101 37.164C44.5721 37.72 44.8261 38.274 45.0631 38.834Z" fill="#E6A868"/>
<path d="M15.3719 37.675C14.9499 37.404 14.8149 37.265 14.7789 36.975C14.6969 36.35 15.0539 35.168 15.7399 34.71C16.3439 34.306 18.2699 34.066 19.1149 34.204C19.4149 34.251 20.6199 34.669 20.9419 34.928C21.5019 35.378 15.5269 37.773 15.3719 37.675Z" fill="#D13200"/>
<path d="M15.295 37.5859C15.214 36.9579 16.056 35.5879 16.783 35.1659C17.511 34.7429 19.828 34.4169 20.585 34.6959C21.04 34.8669 21.97 35.9519 21.984 36.5829C21.996 37.2179 15.379 38.2109 15.295 37.5859Z" fill="#FF6A00"/>
<path d="M37.0899 35.3739C37.3749 34.9749 40.3449 35.0419 41.0699 35.2909C41.9819 35.6039 42.9359 36.2229 43.5929 37.3359C43.8819 37.8279 43.9649 39.0599 43.6699 39.3499C43.0559 39.9639 42.6909 39.6589 41.2019 40.4809C40.3939 40.9279 35.6349 37.4479 37.0899 35.3739Z" fill="#F9B700"/>
<path d="M37.2339 39.715C39.4679 39.59 39.8429 40.8559 41.2029 40.4809C41.4469 40.4139 41.3309 38.4939 40.7919 37.5589C40.3329 36.7649 38.0739 35.202 37.0899 35.374C36.5349 35.472 36.4449 39.759 37.2339 39.715Z" fill="#F0A000"/>
<defs>
<linearGradient id="paint0_linear" x1="2.03266" y1="45.6327" x2="59.0283" y2="45.6327" gradientUnits="userSpaceOnUse">
<stop stop-color="#C1D0D9"/>
<stop offset="0.1004" stop-color="#B9C7D0"/>
<stop offset="0.7046" stop-color="#8A959B"/>
<stop offset="1" stop-color="#788287"/>
</linearGradient>
<linearGradient id="paint1_linear" x1="37.4922" y1="42.2168" x2="64" y2="42.2168" gradientUnits="userSpaceOnUse">
<stop stop-color="#788287" stop-opacity="0"/>
<stop offset="0.2032" stop-color="#8A969B" stop-opacity="0.4471"/>
<stop offset="0.4545" stop-color="#A5B3BA"/>
</linearGradient>
<radialGradient id="paint2_radial" cx="0" cy="0" r="1" gradientUnits="userSpaceOnUse" gradientTransform="translate(30.53 33.2702) scale(26.9433 15.1404)">
<stop stop-color="#D66904"/>
<stop offset="0.4112" stop-color="#A94102"/>
<stop offset="1" stop-color="#6B0B00"/>
</radialGradient>
<linearGradient id="paint3_linear" x1="40.7539" y1="21.4355" x2="7.17721" y2="21.4355" gradientUnits="userSpaceOnUse">
<stop stop-color="#529320"/>
<stop offset="0.3054" stop-color="#4E8C1E"/>
<stop offset="0.7406" stop-color="#447A1A"/>
<stop offset="1" stop-color="#3C6B17"/>
</linearGradient>
<radialGradient id="paint4_radial" cx="0" cy="0" r="1" gradientUnits="userSpaceOnUse" gradientTransform="translate(24.5547 30.1015) rotate(160.116) scale(9.69845 17.9702)">
<stop stop-color="#92C932"/>
<stop offset="0.2397" stop-color="#8EC531"/>
<stop offset="0.4992" stop-color="#81BA2D"/>
<stop offset="0.7669" stop-color="#6BA827"/>
<stop offset="1" stop-color="#529320"/>
</radialGradient>
</defs>
</svg>
