<svg width="64" height="64" viewBox="0 0 64 64" fill="none" xmlns="http://www.w3.org/2000/svg">
<path d="M32.178 28.715C33.345 33.555 25.762 30.906 21.478 31.661C17.197 32.417 10.975 37.499 10.415 32.552C8.46999 15.354 28.126 11.888 32.178 28.715Z" fill="#785647"/>
<path d="M16.125 9.114C17.985 16.052 12.038 17.646 10.178 10.707C8.32104 3.769 14.268 2.175 16.125 9.114Z" fill="#785647"/>
<path d="M24.9301 8.106C25.5561 15.263 19.4221 15.8 18.7951 8.643C18.1701 1.486 24.3051 0.949999 24.9301 8.106Z" fill="#785647"/>
<path d="M9.38295 16.699C11.8399 23.45 6.05294 25.555 3.59494 18.805C1.13794 12.056 6.92495 9.949 9.38295 16.699Z" fill="#785647"/>
<path d="M33.887 13.465C33.887 20.648 27.728 20.648 27.728 13.465C27.728 6.281 33.887 6.281 33.887 13.465Z" fill="#785647"/>
<path d="M53.5851 58.862C53.0261 63.808 46.8051 58.725 42.5231 57.971C38.2411 57.215 30.6551 59.864 31.8201 55.025C35.8731 38.197 55.5311 41.664 53.5851 58.862Z" fill="#785647"/>
<path d="M45.2039 34.952C44.5789 42.108 38.4449 41.573 39.0709 34.416C39.6959 27.26 45.8309 27.796 45.2039 34.952Z" fill="#785647"/>
<path d="M53.8229 37.018C51.9629 43.956 46.0149 42.363 47.8759 35.424C49.7349 28.484 55.6809 30.079 53.8229 37.018Z" fill="#785647"/>
<path d="M36.273 39.774C36.273 46.958 30.114 46.958 30.114 39.774C30.114 32.59 36.273 32.592 36.273 39.774Z" fill="#785647"/>
<path d="M60.4039 45.115C57.9479 51.865 52.1609 49.76 54.6179 43.009C57.0759 36.259 62.8629 38.366 60.4039 45.115Z" fill="#785647"/>
</svg>
