<svg width="64" height="64" viewBox="0 0 64 64" fill="none" xmlns="http://www.w3.org/2000/svg">
<path d="M31.882 16.879C29.732 16.879 5 8.66499 5 32.058C5 46.258 19.627 62 26.012 62C28.909 62 30.201 60.137 31.882 60.137C33.593 60.137 33.891 62 37.6 62C43.985 62 59 44.626 59 32.058C59 8.63999 34.031 16.879 31.882 16.879Z" fill="url(#paint0_radial)"/>
<path d="M31.9999 20.81C38.1189 20.81 37.7639 17.689 51.7709 17.353C44.2199 13.437 33.2729 16.879 31.8809 16.879C30.4899 16.879 19.6629 13.455 12.1819 17.352C26.2349 17.68 25.8719 20.81 31.9999 20.81Z" fill="url(#paint1_radial)"/>
<path d="M32.4221 28.936C31.1761 21.435 24.1931 15.94 16.8291 16.664C9.46008 17.385 4.49908 24.05 5.74408 31.551C6.99208 39.053 13.9741 44.546 21.3401 43.824C28.7071 43.103 33.6701 36.437 32.4221 28.936Z" fill="url(#paint2_radial)"/>
<path d="M31.99 19.695C45.041 19.791 45.593 6 45.593 6C45.593 6 34.717 14.286 31.99 19.695Z" fill="#449C00"/>
<path d="M31.99 19.695C35.375 14.755 45.593 6 45.593 6C45.593 6 31.496 5.958 31.99 19.695Z" fill="#56AB15"/>
<path d="M33.063 18.273C32.776 17.278 32.743 16.213 32.858 15.192C32.989 14.172 33.297 13.184 33.796 12.347C33.4 13.251 33.11 14.215 32.996 15.222C32.928 15.722 32.908 16.231 32.918 16.742C32.931 17.251 32.967 17.767 33.063 18.273Z" fill="#5FBD17"/>
<path d="M34.793 16.277C34.439 15.159 34.391 13.938 34.566 12.786C34.664 12.212 34.821 11.652 35.043 11.13C35.266 10.609 35.551 10.128 35.885 9.70001C35.305 10.635 34.875 11.688 34.704 12.822C34.607 13.385 34.574 13.966 34.59 14.543C34.607 15.123 34.663 15.708 34.793 16.277Z" fill="#5FBD17"/>
<path d="M36.768 14.205C36.558 13.059 36.618 11.862 36.879 10.746C37.022 10.191 37.217 9.65299 37.482 9.16399C37.743 8.67199 38.079 8.239 38.456 7.87C37.774 8.696 37.273 9.697 37.015 10.795C36.873 11.339 36.797 11.905 36.755 12.477C36.717 13.047 36.712 13.627 36.768 14.205Z" fill="#5FBD17"/>
<path d="M39.1551 11.855C39.1391 10.916 39.3141 9.98401 39.6041 9.11601C39.7601 8.68801 39.9441 8.26801 40.1771 7.88901C40.4051 7.50601 40.6841 7.16701 40.9941 6.87701C40.4461 7.54501 40.0221 8.32801 39.7351 9.18101C39.5811 9.60201 39.4691 10.043 39.3691 10.489C39.2771 10.937 39.1971 11.392 39.1551 11.855Z" fill="#5FBD17"/>
<path d="M41.457 9.695C41.551 8.992 41.8 8.33 42.125 7.734C42.297 7.44 42.486 7.16 42.712 6.918C42.932 6.673 43.188 6.467 43.461 6.31C42.975 6.731 42.564 7.24 42.243 7.824C42.074 8.108 41.933 8.416 41.803 8.727C41.675 9.04 41.553 9.362 41.457 9.695Z" fill="#5FBD17"/>
<path d="M33.063 18.273C33.899 18.77 34.852 18.962 35.794 18.962C36.738 18.944 37.691 18.698 38.548 18.192C37.651 18.561 36.725 18.785 35.797 18.786C35.332 18.801 34.869 18.754 34.411 18.669C33.953 18.582 33.499 18.464 33.063 18.273Z" fill="#56AB15"/>
<path d="M34.793 16.277C35.807 16.918 36.967 17.212 38.099 17.224C38.663 17.219 39.226 17.14 39.762 16.973C40.295 16.806 40.801 16.556 41.264 16.239C40.278 16.754 39.2 17.066 38.086 17.054C37.531 17.062 36.973 16.987 36.42 16.857C35.868 16.723 35.318 16.543 34.793 16.277Z" fill="#56AB15"/>
<path d="M36.7681 14.205C37.8571 14.699 39.0281 14.896 40.1501 14.846C40.7101 14.805 41.2581 14.699 41.7681 14.504C42.2801 14.314 42.7451 14.025 43.1531 13.674C42.2611 14.273 41.2211 14.626 40.1211 14.68C39.5721 14.719 39.0111 14.681 38.4501 14.604C37.8871 14.519 37.3231 14.398 36.7681 14.205Z" fill="#56AB15"/>
<path d="M39.155 11.855C40.043 12.154 40.961 12.238 41.843 12.175C42.281 12.129 42.715 12.05 43.12 11.904C43.529 11.764 43.907 11.554 44.244 11.295C43.5 11.705 42.674 11.944 41.807 12.01C41.376 12.055 40.936 12.048 40.493 12.025C40.051 11.996 39.604 11.946 39.155 11.855Z" fill="#56AB15"/>
<path d="M41.457 9.695C42.201 9.775 42.921 9.666 43.581 9.453C43.904 9.331 44.217 9.188 44.493 8.995C44.774 8.808 45.012 8.57 45.207 8.298C44.717 8.744 44.141 9.08 43.497 9.292C43.182 9.41 42.846 9.488 42.506 9.556C42.164 9.621 41.815 9.673 41.457 9.695Z" fill="#56AB15"/>
<path d="M32.6239 20.81C30.2499 18.436 31.0679 9.504 32.8839 9.504C35.8889 9.504 30.6599 12.594 32.6239 20.81Z" fill="#785647"/>
<defs>
<radialGradient id="paint0_radial" cx="0" cy="0" r="1" gradientUnits="userSpaceOnUse" gradientTransform="translate(26.2978 27.972) scale(29.6944 29.8551)">
<stop offset="0.4" stop-color="#93D422"/>
<stop offset="0.6325" stop-color="#90D120"/>
<stop offset="0.7831" stop-color="#88C919"/>
<stop offset="0.91" stop-color="#79BA0D"/>
<stop offset="1" stop-color="#69AB00"/>
</radialGradient>
<radialGradient id="paint1_radial" cx="0" cy="0" r="1" gradientUnits="userSpaceOnUse" gradientTransform="translate(31.9773 19.9854) scale(11.3774 5.15916)">
<stop stop-color="#6AAD00"/>
<stop offset="1" stop-color="#6AAD00" stop-opacity="0"/>
</radialGradient>
<radialGradient id="paint2_radial" cx="0" cy="0" r="1" gradientUnits="userSpaceOnUse" gradientTransform="translate(19.0865 30.2295) rotate(-5.60047) scale(13.4019 13.7364)">
<stop stop-color="#AFF23C"/>
<stop offset="1" stop-color="#AFF23C" stop-opacity="0"/>
</radialGradient>
</defs>
</svg>
