<svg width="64" height="64" viewBox="0 0 64 64" fill="none" xmlns="http://www.w3.org/2000/svg">
<path d="M42.404 7.57105C-5.74599 -19.3489 -4.14699 59.952 13.783 61.503C28.031 62.734 42.404 7.57105 42.404 7.57105Z" fill="url(#paint0_linear)"/>
<path opacity="0.3" d="M5.50006 37.761C4.44506 40.902 7.34007 42.313 9.46507 42.329C11.6311 42.35 6.23406 35.573 5.50006 37.761Z" fill="#CF8A54"/>
<path opacity="0.3" d="M5.20297 33.035C6.50397 35.505 8.21497 34.266 8.93297 32.795C9.65997 31.296 4.29497 31.31 5.20297 33.035Z" fill="#CF8A54"/>
<path opacity="0.3" d="M9.53514 22.014C7.24414 21.024 7.03114 23.477 7.53714 25.299C8.05914 27.161 11.1371 22.709 9.53514 22.014Z" fill="#CF8A54"/>
<path opacity="0.3" d="M30.4919 4.28595C28.2009 3.29595 27.9879 5.74895 28.4939 7.57095C29.0159 9.43395 32.0939 4.98095 30.4919 4.28595Z" fill="#CF8A54"/>
<path opacity="0.3" d="M19.5591 4.24405C18.5021 7.37505 21.3991 8.79205 23.5221 8.80705C25.6881 8.82405 20.2951 2.05005 19.5591 4.24405Z" fill="#CF8A54"/>
<path opacity="0.3" d="M15.1659 13.057C16.4649 15.524 18.1739 14.285 18.8929 12.813C19.6209 11.314 14.2579 11.33 15.1659 13.057Z" fill="#CF8A54"/>
<path opacity="0.3" d="M16.5548 19.05C14.2638 18.061 14.0528 20.511 14.5568 22.336C15.0718 24.199 18.1538 19.743 16.5548 19.05Z" fill="#CF8A54"/>
<path opacity="0.3" d="M9.5078 13.6801C8.8218 15.7131 10.7008 16.6251 12.0778 16.6381C13.4818 16.6521 9.9838 12.2561 9.5078 13.6801Z" fill="#CF8A54"/>
<path d="M23.0229 29.145C36.3609 29.145 27.0539 38.311 27.0539 38.311L23.0229 29.145Z" fill="#C76E2F"/>
<path d="M16.381 35.138C17.354 37.828 27.055 38.311 27.055 38.311C27.055 38.311 25.571 29.145 23.024 29.145C20.928 29.145 15.648 33.107 16.381 35.138Z" fill="#AB4F16"/>
<path d="M24.8379 21.791C38.1739 21.791 28.8689 30.961 28.8689 30.961L24.8379 21.791Z" fill="#AB4F16"/>
<path d="M18.1951 27.785C19.1701 30.479 28.8691 30.961 28.8691 30.961C28.8691 30.961 27.3891 21.791 24.8381 21.791C22.7441 21.791 17.4671 25.756 18.1951 27.785Z" fill="#C76E2F"/>
<path d="M24.574 10.66C39.347 10.66 29.041 20.82 29.041 20.82L24.574 10.66Z" fill="#AB4F16"/>
<path d="M17.215 17.302C18.293 20.286 29.041 20.821 29.041 20.821C29.041 20.821 27.398 10.661 24.574 10.661C22.254 10.66 16.408 15.053 17.215 17.302Z" fill="#C76E2F"/>
<path d="M28.2749 19.059C37.5679 7.26003 39.1909 21.877 39.1909 21.877L28.2749 19.059Z" fill="#C76E2F"/>
<path d="M28.951 29.107C32.008 30.122 39.191 21.877 39.191 21.877C39.191 21.877 30.048 16.806 28.275 19.059C26.816 20.912 26.646 28.339 28.951 29.107Z" fill="#AB4F16"/>
<path d="M20.69 33.728C7.91302 33.728 16.827 42.511 16.827 42.511L20.69 33.728Z" fill="#AB4F16"/>
<path d="M28.0719 39.47C27.1379 42.048 17.8469 42.511 17.8469 42.511C17.8469 42.511 19.2689 33.728 21.7099 33.728C23.7129 33.728 28.7729 37.528 28.0719 39.47Z" fill="#C76E2F"/>
<path d="M29.547 8.69502C29.547 8.69502 29.826 11.489 30.223 12.843C26.873 11.744 26.766 6.21802 26.766 6.21802C26.766 6.21802 24.516 7.46002 24.723 9.56602C21.028 6.82302 17.885 8.10802 17.885 8.10802C17.885 8.10802 22.567 10.539 23.213 12.177C20.584 12.367 19.051 13.205 18.156 15.156C18.156 15.176 23.355 12.875 27.201 14.533C25.681 15.676 26.439 18.536 26.439 18.536C32.585 12.526 36.617 17.94 39.257 16.451C37.046 13.619 33.599 13.22 33.599 13.22C32.586 10.539 29.547 8.69502 29.547 8.69502Z" fill="#77B516"/>
<path d="M32.9449 15.2411C28.1479 -0.565949 43.6909 7.31905 43.6909 7.31905L32.9449 15.2411Z" fill="#AB4F16"/>
<path d="M17.885 44.0179C31.227 44.0179 21.92 52.7789 21.92 52.7789L17.885 44.0179Z" fill="#C76E2F"/>
<path d="M11.246 49.745C12.221 52.317 21.92 52.778 21.92 52.778C21.92 52.778 20.436 44.017 17.885 44.017C15.793 44.018 10.516 47.804 11.246 49.745Z" fill="#AB4F16"/>
<path d="M21.2419 39.05C31.6579 39.05 24.3879 46.2051 24.3879 46.2051L21.2419 39.05Z" fill="#AB4F16"/>
<path d="M16.0569 43.729C16.8189 45.833 24.3889 46.206 24.3889 46.206C24.3889 46.206 23.2329 39.051 21.2429 39.051C19.6069 39.05 15.4839 42.146 16.0569 43.729Z" fill="#C76E2F"/>
<path d="M15.7128 49.481C0.708803 49.481 11.1778 59.793 11.1778 59.793L15.7128 49.481Z" fill="#AB4F16"/>
<path d="M23.1862 56.223C22.0862 59.252 11.1782 59.793 11.1782 59.793C11.1782 59.793 12.8502 49.481 15.7132 49.481C18.0632 49.481 24.0082 53.942 23.1862 56.223Z" fill="#C76E2F"/>
<path d="M12.6148 25.16C12.0088 25.289 10.5338 24.288 11.1398 24.161C17.1508 22.898 21.7108 19.062 17.7278 11.734C17.4048 11.136 18.7268 9.54597 19.0408 10.149C24.4378 20.51 17.5488 24.109 12.6148 25.16Z" fill="url(#paint1_linear)"/>
<path d="M22.349 12.256C21.95 12.11 21.454 10.993 21.853 11.14C25.808 12.583 29.853 12.006 30.192 6.29703C30.221 5.83203 31.566 5.38803 31.53 5.85203C30.913 13.835 25.601 13.433 22.349 12.256Z" fill="url(#paint2_linear)"/>
<path d="M7.35499 28.7609C9.55999 30.1319 11.621 30.0599 14.298 28.7089C14.8 30.6759 11.925 35.7609 11.925 35.7609C11.925 35.7609 15.853 35.1789 17.552 30.3629C18.796 32.5259 21.829 32.4299 21.829 32.4299C21.829 32.4299 18.14 26.9979 20.638 23.9839C21.183 25.5399 22.827 28.4109 22.827 28.4109C22.827 28.4109 24.497 24.8549 23.661 21.6549C23.661 21.6549 26.727 19.2679 26.921 15.2419C23.351 15.3219 23.14 22.9219 13.066 20.6629C13.066 20.6629 14.293 23.8779 16.548 24.1019C13.957 27.9489 7.34799 28.7379 7.35499 28.7609Z" fill="#77B516"/>
<path d="M27.01 36.265L26.275 37.446L23.369 37.58L22.668 35.113L23.947 33.933L26.168 34.995L27.01 36.265Z" fill="#FFE8BB"/>
<path d="M12.378 32.237C11.998 32.248 11.248 31.57 11.626 31.558C15.379 31.452 18.601 29.822 17.179 25.499C17.064 25.147 18.061 24.418 18.168 24.772C20.038 30.857 15.458 32.14 12.378 32.237Z" fill="url(#paint3_linear)"/>
<path d="M19.1699 35.1119L18.3549 36.4279L15.1209 36.5759L14.3359 33.8319L15.7659 32.5179L18.2319 33.6999L19.1699 35.1119Z" fill="#FFE8BB"/>
<path d="M17.9881 48.104L20.9711 49.618L20.3301 52.729L18.2191 53.301L16.3571 50.872L15.8711 48.577L17.9881 48.104Z" fill="#FFE8BB"/>
<path d="M21.9261 17.249C19.9531 14.686 17.0141 16.148 15.7031 17.791C14.3671 19.46 23.2991 19.037 21.9261 17.249Z" fill="#529320"/>
<path d="M40.438 4.94495C35.977 4.37595 35.958 7.53595 37.192 9.69195C38.451 11.882 43.557 5.34395 40.438 4.94495Z" fill="#529320"/>
<path d="M24.5201 48.238C28.0001 46.312 25.0041 43.918 22.1431 42.947C19.2191 41.959 22.0861 49.58 24.5201 48.238Z" fill="#529320"/>
<path d="M16.5288 50.278C13.4528 46.267 8.84276 48.556 6.79476 51.128C4.70476 53.747 18.6858 53.086 16.5288 50.278Z" fill="#529320"/>
<path d="M17.8219 54.028C13.3669 53.46 13.3489 56.618 14.5839 58.772C15.8419 60.965 20.9429 54.425 17.8219 54.028Z" fill="#77B516"/>
<path d="M58.2069 30.039C65.5549 23.56 61.4839 7.62897 52.3589 4.84397C27.8279 -2.64203 35.2909 51.044 14.5859 61.892C21.3869 62.104 26.8889 57.664 58.2069 30.039Z" fill="url(#paint4_linear)"/>
<path d="M52.3592 4.84401C27.4552 1.82501 34.7852 62 13.7542 62C7.2562 62 -0.985797 46.205 3.0842 25.081C0.135203 45.112 8.2012 59.659 13.1412 59.659C30.6152 59.659 26.4432 -3.91899 52.3592 4.84401Z" fill="#FFE091"/>
<path d="M12.9749 54.151L12.2249 56.438L9.59787 56.497L8.79688 55.143L10.4669 53.479L12.2519 52.777L12.9749 54.151Z" fill="#FFE8BB"/>
<path d="M18.568 35.672C18.223 35.682 17.542 35.066 17.885 35.055C21.295 34.958 24.223 33.478 22.931 29.549C22.827 29.23 23.733 28.567 23.83 28.889C25.53 34.418 21.368 35.583 18.568 35.672Z" fill="url(#paint5_linear)"/>
<path d="M14.0302 16.2281C14.0862 15.8971 15.1212 15.3061 15.0642 15.6381C14.4952 18.9201 16.0292 21.8811 21.9862 21.0401C22.4712 20.9711 23.2422 21.9071 22.7572 21.9711C14.3932 23.0391 13.5742 18.9241 14.0302 16.2281Z" fill="url(#paint6_linear)"/>
<path opacity="0.3" d="M33.4159 31.8661C32.3629 35.0071 35.2559 36.4181 37.3829 36.4341C39.5469 36.4551 34.1519 29.6791 33.4159 31.8661Z" fill="#CF8A54"/>
<path opacity="0.3" d="M39.7659 41.159C41.0649 43.629 42.7759 42.39 43.4959 40.919C44.2229 39.42 38.8569 39.434 39.7659 41.159Z" fill="#CF8A54"/>
<path opacity="0.3" d="M44.0979 30.138C41.8069 29.148 41.5939 31.601 42.0999 33.423C42.6189 35.285 45.6989 30.833 44.0979 30.138Z" fill="#CF8A54"/>
<path opacity="0.3" d="M46.7679 10.453C45.7129 13.584 48.6079 15.001 50.7329 15.016C52.8959 15.033 47.5059 8.25904 46.7679 10.453Z" fill="#CF8A54"/>
<path opacity="0.3" d="M49.729 21.181C51.028 23.648 52.737 22.409 53.454 20.937C54.184 19.438 48.818 19.454 49.729 21.181Z" fill="#CF8A54"/>
<path opacity="0.3" d="M31.348 45.482C32.647 47.949 34.356 46.71 35.075 45.238C35.803 43.74 30.439 43.756 31.348 45.482Z" fill="#CF8A54"/>
<path opacity="0.3" d="M51.1169 27.174C48.8259 26.185 48.6129 28.635 49.1169 30.46C49.6349 32.323 52.7169 27.867 51.1169 27.174Z" fill="#CF8A54"/>
<path opacity="0.3" d="M41.576 18.844C40.892 20.877 42.769 21.789 44.146 21.802C45.553 21.816 42.053 17.42 41.576 18.844Z" fill="#CF8A54"/>
<path opacity="0.3" d="M54.646 12.618C55.488 14.215 56.597 13.413 57.064 12.458C57.537 11.481 54.057 11.498 54.646 12.618Z" fill="#CF8A54"/>
<path opacity="0.3" d="M58.885 21.751C57.401 21.109 57.262 22.7 57.59 23.886C57.928 25.091 59.924 22.202 58.885 21.751Z" fill="#CF8A54"/>
<path d="M26.34 41.777C24.77 40.027 22.918 39.596 20.151 40.152C20.264 38.283 24.27 34.452 24.27 34.452C24.27 34.452 20.612 34.024 17.729 37.899C17.237 35.676 14.514 35.031 14.514 35.031C14.514 35.031 16.246 40.749 13.166 42.83C13.125 41.316 12.478 38.366 12.478 38.366C12.478 38.366 9.98196 41.127 9.81396 44.173C9.81396 44.173 6.40796 45.559 5.08496 49.093C8.28596 49.88 10.636 43.171 18.952 47.606C18.952 47.606 18.78 44.453 16.835 43.709C20.236 40.91 26.34 41.8 26.34 41.777Z" fill="#77B516"/>
<path d="M26.2149 36.485C26.0189 36.995 24.5939 37.605 24.7909 37.095C26.7459 32.047 26.1519 26.836 18.9649 26.266C18.3799 26.219 17.8629 24.479 18.4469 24.536C28.4959 25.517 27.8089 32.335 26.2149 36.485Z" fill="url(#paint7_linear)"/>
<path d="M20.789 29.136C20.365 29.147 19.524 28.371 19.948 28.36C24.137 28.254 27.728 26.41 26.124 21.481C25.994 21.08 27.105 20.253 27.226 20.658C29.339 27.594 24.229 29.036 20.789 29.136Z" fill="url(#paint8_linear)"/>
<path d="M28.507 15.7529C28.083 15.7639 27.242 14.9879 27.666 14.9769C31.855 14.8709 35.446 13.0269 33.842 8.09794C33.712 7.69694 34.823 6.86994 34.944 7.27494C37.057 14.2109 31.947 15.6529 28.507 15.7529Z" fill="url(#paint9_linear)"/>
<path d="M26.0271 18.752C26.3731 18.508 26.6061 17.41 26.2591 17.651C22.8321 20.056 18.8951 20.764 17.3671 16.003C17.2431 15.616 15.8781 15.636 16.0111 16.021C18.2781 22.636 23.2071 20.717 26.0271 18.752Z" fill="url(#paint10_linear)"/>
<path d="M29.2191 11.459C28.8231 11.47 28.0391 10.762 28.4351 10.749C32.3561 10.638 35.7231 8.93601 34.2381 4.41701C34.1181 4.05001 35.1601 3.28701 35.2721 3.65801C37.2261 10.017 32.4381 11.356 29.2191 11.459Z" fill="url(#paint11_linear)"/>
<path d="M21.9489 14.215C22.0049 13.884 23.0399 13.293 22.9829 13.625C22.4139 16.907 23.9479 19.868 29.9049 19.027C30.3899 18.958 31.1609 19.894 30.6759 19.958C22.3119 21.026 21.4929 16.911 21.9489 14.215Z" fill="url(#paint12_linear)"/>
<path d="M26.034 23.266C26.327 23.512 26.332 24.798 26.038 24.551C23.14 22.098 19.392 21.739 16.916 27.627C16.716 28.106 15.372 28.251 15.579 27.773C19.165 19.574 23.646 21.262 26.034 23.266Z" fill="url(#paint13_linear)"/>
<path d="M33.1451 7.30406C33.4381 7.55006 33.4431 8.83606 33.1491 8.58906C30.2511 6.13606 26.5031 5.77706 24.0271 11.6651C23.8271 12.1441 22.4831 12.2891 22.6901 11.8111C26.2751 3.61206 30.7571 5.30006 33.1451 7.30406Z" fill="url(#paint14_linear)"/>
<path d="M26.5591 9.10904C26.6151 8.77804 27.6501 8.18704 27.5931 8.51904C27.0241 11.801 28.5581 14.762 34.5151 13.921C35.0001 13.852 35.7711 14.788 35.2861 14.852C26.9211 15.921 26.1031 11.806 26.5591 9.10904Z" fill="url(#paint15_linear)"/>
<path d="M30.0069 24.056C29.8109 24.566 28.3859 25.176 28.5829 24.666C30.5379 19.618 29.9439 14.407 22.7569 13.837C22.1719 13.79 21.6549 12.05 22.2389 12.107C32.2879 13.087 31.6009 19.905 30.0069 24.056Z" fill="url(#paint16_linear)"/>
<path d="M28.7071 26.875L27.9571 29.161L25.3301 29.221L24.5291 27.866L26.2011 26.202L27.9841 25.501L28.7071 26.875Z" fill="#FFE8BB"/>
<path d="M34.4429 12.943L33.6269 14.259L30.3929 14.407L29.6089 11.663L31.0329 10.349L33.5059 11.53L34.4429 12.943Z" fill="#FFE8BB"/>
<path d="M26.997 20.759L26.167 22.104L22.862 22.251L22.062 19.451L23.519 18.11L26.04 19.316L26.997 20.759Z" fill="#FFE8BB"/>
<defs>
<linearGradient id="paint0_linear" x1="24.4316" y1="31.8545" x2="6.18162" y2="11.4795" gradientUnits="userSpaceOnUse">
<stop stop-color="#DBA742"/>
<stop offset="0.0989" stop-color="#E1AF49"/>
<stop offset="0.3971" stop-color="#EFC35B"/>
<stop offset="0.6972" stop-color="#F7CF65"/>
<stop offset="1" stop-color="#FAD369"/>
</linearGradient>
<linearGradient id="paint1_linear" x1="12.8423" y1="13.8909" x2="18.5494" y2="22.5278" gradientUnits="userSpaceOnUse">
<stop stop-color="#FF75E1"/>
<stop offset="0.1738" stop-color="#FB71DE"/>
<stop offset="0.3619" stop-color="#F164D3"/>
<stop offset="0.5569" stop-color="#DF4EC2"/>
<stop offset="0.7564" stop-color="#C630AA"/>
<stop offset="0.9577" stop-color="#A6098B"/>
<stop offset="1" stop-color="#9E0084"/>
</linearGradient>
<linearGradient id="paint2_linear" x1="26.59" y1="5.76805" x2="26.7795" y2="12.8623" gradientUnits="userSpaceOnUse">
<stop stop-color="#FF75E1"/>
<stop offset="0.1738" stop-color="#FB71DE"/>
<stop offset="0.3619" stop-color="#F164D3"/>
<stop offset="0.5569" stop-color="#DF4EC2"/>
<stop offset="0.7564" stop-color="#C630AA"/>
<stop offset="0.9577" stop-color="#A6098B"/>
<stop offset="1" stop-color="#9E0084"/>
</linearGradient>
<linearGradient id="paint3_linear" x1="13.981" y1="26.1957" x2="15.9974" y2="31.4851" gradientUnits="userSpaceOnUse">
<stop stop-color="#FF75E1"/>
<stop offset="0.1738" stop-color="#FB71DE"/>
<stop offset="0.3619" stop-color="#F164D3"/>
<stop offset="0.5569" stop-color="#DF4EC2"/>
<stop offset="0.7564" stop-color="#C630AA"/>
<stop offset="0.9577" stop-color="#A6098B"/>
<stop offset="1" stop-color="#9E0084"/>
</linearGradient>
<linearGradient id="paint4_linear" x1="43.286" y1="43.5117" x2="26.1196" y2="23.5124" gradientUnits="userSpaceOnUse">
<stop stop-color="#EBB447"/>
<stop offset="0.3155" stop-color="#F3C559"/>
<stop offset="0.6559" stop-color="#F8CF65"/>
<stop offset="1" stop-color="#FAD369"/>
</linearGradient>
<linearGradient id="paint5_linear" x1="20.0256" y1="30.1815" x2="21.8582" y2="34.9885" gradientUnits="userSpaceOnUse">
<stop stop-color="#FFA8EC"/>
<stop offset="0.1433" stop-color="#FEA4EA"/>
<stop offset="0.2985" stop-color="#FA97E5"/>
<stop offset="0.4593" stop-color="#F481DD"/>
<stop offset="0.624" stop-color="#EB63D2"/>
<stop offset="0.7916" stop-color="#E03CC3"/>
<stop offset="0.9595" stop-color="#D30DB1"/>
<stop offset="1" stop-color="#CF00AC"/>
</linearGradient>
<linearGradient id="paint6_linear" x1="21.678" y1="18.1872" x2="14.7215" y2="20.5808" gradientUnits="userSpaceOnUse">
<stop stop-color="#FFA8EC"/>
<stop offset="0.1433" stop-color="#FEA4EA"/>
<stop offset="0.2985" stop-color="#FA97E5"/>
<stop offset="0.4593" stop-color="#F481DD"/>
<stop offset="0.624" stop-color="#EB63D2"/>
<stop offset="0.7916" stop-color="#E03CC3"/>
<stop offset="0.9595" stop-color="#D30DB1"/>
<stop offset="1" stop-color="#CF00AC"/>
</linearGradient>
<linearGradient id="paint7_linear" x1="18.1908" y1="30.9111" x2="27.1444" y2="30.9111" gradientUnits="userSpaceOnUse">
<stop stop-color="#FFA8EC"/>
<stop offset="0.1433" stop-color="#FEA4EA"/>
<stop offset="0.2985" stop-color="#FA97E5"/>
<stop offset="0.4593" stop-color="#F481DD"/>
<stop offset="0.624" stop-color="#EB63D2"/>
<stop offset="0.7916" stop-color="#E03CC3"/>
<stop offset="0.9595" stop-color="#D30DB1"/>
<stop offset="1" stop-color="#CF00AC"/>
</linearGradient>
<linearGradient id="paint8_linear" x1="22.5563" y1="22.2608" x2="24.8763" y2="28.2748" gradientUnits="userSpaceOnUse">
<stop stop-color="#FFA8EC"/>
<stop offset="0.1433" stop-color="#FEA4EA"/>
<stop offset="0.2985" stop-color="#FA97E5"/>
<stop offset="0.4593" stop-color="#F481DD"/>
<stop offset="0.624" stop-color="#EB63D2"/>
<stop offset="0.7916" stop-color="#E03CC3"/>
<stop offset="0.9595" stop-color="#D30DB1"/>
<stop offset="1" stop-color="#CF00AC"/>
</linearGradient>
<linearGradient id="paint9_linear" x1="30.2724" y1="8.87812" x2="32.5924" y2="14.8922" gradientUnits="userSpaceOnUse">
<stop stop-color="#FFA8EC"/>
<stop offset="0.1433" stop-color="#FEA4EA"/>
<stop offset="0.2985" stop-color="#FA97E5"/>
<stop offset="0.4593" stop-color="#F481DD"/>
<stop offset="0.624" stop-color="#EB63D2"/>
<stop offset="0.7916" stop-color="#E03CC3"/>
<stop offset="0.9595" stop-color="#D30DB1"/>
<stop offset="1" stop-color="#CF00AC"/>
</linearGradient>
<linearGradient id="paint10_linear" x1="20.68" y1="14.4879" x2="22.4056" y2="20.4677" gradientUnits="userSpaceOnUse">
<stop stop-color="#FF75E1"/>
<stop offset="0.1738" stop-color="#FB71DE"/>
<stop offset="0.3619" stop-color="#F164D3"/>
<stop offset="0.5569" stop-color="#DF4EC2"/>
<stop offset="0.7564" stop-color="#C630AA"/>
<stop offset="0.9577" stop-color="#A6098B"/>
<stop offset="1" stop-color="#9E0084"/>
</linearGradient>
<linearGradient id="paint11_linear" x1="30.8961" y1="5.14427" x2="33.0033" y2="10.6719" gradientUnits="userSpaceOnUse">
<stop stop-color="#FFA8EC"/>
<stop offset="0.1433" stop-color="#FEA4EA"/>
<stop offset="0.2985" stop-color="#FA97E5"/>
<stop offset="0.4593" stop-color="#F481DD"/>
<stop offset="0.624" stop-color="#EB63D2"/>
<stop offset="0.7916" stop-color="#E03CC3"/>
<stop offset="0.9595" stop-color="#D30DB1"/>
<stop offset="1" stop-color="#CF00AC"/>
</linearGradient>
<linearGradient id="paint12_linear" x1="29.597" y1="16.1749" x2="22.6405" y2="18.5685" gradientUnits="userSpaceOnUse">
<stop stop-color="#FFA8EC"/>
<stop offset="0.1433" stop-color="#FEA4EA"/>
<stop offset="0.2985" stop-color="#FA97E5"/>
<stop offset="0.4593" stop-color="#F481DD"/>
<stop offset="0.624" stop-color="#EB63D2"/>
<stop offset="0.7916" stop-color="#E03CC3"/>
<stop offset="0.9595" stop-color="#D30DB1"/>
<stop offset="1" stop-color="#CF00AC"/>
</linearGradient>
<linearGradient id="paint13_linear" x1="19.8798" y1="29.0305" x2="21.6998" y2="21.3961" gradientUnits="userSpaceOnUse">
<stop stop-color="#FFA8EC"/>
<stop offset="0.1433" stop-color="#FEA4EA"/>
<stop offset="0.2985" stop-color="#FA97E5"/>
<stop offset="0.4593" stop-color="#F481DD"/>
<stop offset="0.624" stop-color="#EB63D2"/>
<stop offset="0.7916" stop-color="#E03CC3"/>
<stop offset="0.9595" stop-color="#D30DB1"/>
<stop offset="1" stop-color="#CF00AC"/>
</linearGradient>
<linearGradient id="paint14_linear" x1="26.9904" y1="13.0686" x2="28.8103" y2="5.43426" gradientUnits="userSpaceOnUse">
<stop stop-color="#FFA8EC"/>
<stop offset="0.1433" stop-color="#FEA4EA"/>
<stop offset="0.2985" stop-color="#FA97E5"/>
<stop offset="0.4593" stop-color="#F481DD"/>
<stop offset="0.624" stop-color="#EB63D2"/>
<stop offset="0.7916" stop-color="#E03CC3"/>
<stop offset="0.9595" stop-color="#D30DB1"/>
<stop offset="1" stop-color="#CF00AC"/>
</linearGradient>
<linearGradient id="paint15_linear" x1="34.206" y1="11.0692" x2="27.2495" y2="13.4628" gradientUnits="userSpaceOnUse">
<stop stop-color="#FF75E1"/>
<stop offset="0.1738" stop-color="#FB71DE"/>
<stop offset="0.3619" stop-color="#F164D3"/>
<stop offset="0.5569" stop-color="#DF4EC2"/>
<stop offset="0.7564" stop-color="#C630AA"/>
<stop offset="0.9577" stop-color="#A6098B"/>
<stop offset="1" stop-color="#9E0084"/>
</linearGradient>
<linearGradient id="paint16_linear" x1="21.9828" y1="18.4814" x2="30.9364" y2="18.4814" gradientUnits="userSpaceOnUse">
<stop stop-color="#FFA8EC"/>
<stop offset="0.1433" stop-color="#FEA4EA"/>
<stop offset="0.2985" stop-color="#FA97E5"/>
<stop offset="0.4593" stop-color="#F481DD"/>
<stop offset="0.624" stop-color="#EB63D2"/>
<stop offset="0.7916" stop-color="#E03CC3"/>
<stop offset="0.9595" stop-color="#D30DB1"/>
<stop offset="1" stop-color="#CF00AC"/>
</linearGradient>
</defs>
</svg>
