<svg width="64" height="64" viewBox="0 0 64 64" fill="none" xmlns="http://www.w3.org/2000/svg">
<path d="M43.602 24.645L40.436 22.248L54.434 3.75201C55.127 2.83401 58.293 5.23001 57.6 6.14801L43.602 24.645Z" fill="url(#paint0_linear)"/>
<path d="M50.9081 14.989L48.6541 11.386L50.4801 8.974L52.7341 12.577L50.9081 14.989Z" fill="url(#paint1_linear)"/>
<path d="M54.5631 10.162L52.3091 6.55997L54.1351 4.14697L56.3871 7.74997L54.5631 10.162Z" fill="url(#paint2_linear)"/>
<path d="M42.564 23.726L38.873 21.881L49.646 0.323026C50.179 -0.745974 53.871 1.09703 53.335 2.16803L42.564 23.726Z" fill="url(#paint3_linear)"/>
<path d="M48.188 12.472L45.199 9.22201L46.604 6.41101L49.592 9.66001L48.188 12.472Z" fill="url(#paint4_linear)"/>
<path d="M50.998 6.84602L48.01 3.59602L49.416 0.78302L52.404 4.03402L50.998 6.84602Z" fill="url(#paint5_linear)"/>
<path d="M22.6639 28.565C24.3459 28.565 26.1339 27.718 28.9299 27.718C31.0569 27.718 32.0639 29.411 35.1959 29.411C38.8869 29.411 39.3069 27.199 40.5669 26.871C41.643 26.587 42.4969 27.718 44.1449 27.718C45.9379 27.718 46.8309 26.3 46.8309 25.175C46.8309 22.739 45.0419 21.93 45.0419 20.093C45.0419 18.868 45.9369 16.705 45.9369 15.01C45.9359 8.735 39.9259 4 32.511 4C25.097 4 19.0609 8.747 19.0609 14.464C19.0609 18.383 21.7719 19.248 19.3499 22.1C16.4569 25.516 19.9809 28.565 22.6639 28.565Z" fill="#FF82B4"/>
<path d="M33.4081 24.677C37.6791 25.567 45.9331 16.707 45.9331 15.011C45.9331 11.659 44.2691 9.617 44.2691 9.617C44.9311 14.53 38.0481 10.447 33.8061 15.527C32.0141 17.673 27.3081 15.738 23.4961 14.925C23.7311 15.707 25.0861 22.948 33.4081 24.677Z" fill="#FF5E9E"/>
<path d="M22.847 10.217C23.045 7.26799 27.66 4.54899 29.8 5.80699C31.939 7.06299 22.677 12.731 22.847 10.217Z" fill="#FF91BD"/>
<path d="M32.0881 64C40.6248 64 47.5451 62.065 47.5451 59.678C47.5451 57.291 40.6248 55.356 32.0881 55.356C23.5514 55.356 16.6311 57.291 16.6311 59.678C16.6311 62.065 23.5514 64 32.0881 64Z" fill="url(#paint6_linear)"/>
<path d="M36.7749 59.041C36.7749 61.393 27.3999 61.393 27.3999 59.041C27.3999 58.603 29.4609 54.709 29.4609 51.842C29.4609 49.051 34.7139 49.238 34.7139 51.842C34.7149 54.709 36.7749 58.404 36.7749 59.041Z" fill="url(#paint7_linear)"/>
<path d="M57.8519 31.858C57.8519 60.049 6.32593 60.049 6.32593 31.858H57.8519Z" fill="url(#paint8_linear)"/>
<path d="M27.9691 34.582C24.8331 36.525 21.4871 32.037 17.8031 34.412C15.0841 36.164 11.2081 36.685 9.89905 34.6C9.17305 33.444 5.95905 34.717 5.82905 32.654C5.72505 31.003 6.41705 31.029 6.41705 29.301C6.41705 28.149 5.40405 26.213 5.40405 24.617C5.40405 18.71 11.6181 14.152 19.1561 14.152C26.6941 14.152 32.8031 19.136 32.8031 24.517C32.8031 28.205 30.0741 28.503 32.5371 31.188C35.8441 35.104 30.5831 32.96 27.9691 34.582Z" fill="#FFE8BB"/>
<path d="M11.362 34.557C13.049 36.036 15.433 34.791 16.009 34.211C16.694 33.521 9.67301 33.078 11.362 34.557Z" fill="#FFEECC"/>
<path d="M12.9509 31.062C8.57092 31.062 7.22192 29.3 7.22192 29.3C7.22192 31.094 11.4529 33.833 17.4369 32.865C25.9469 31.489 29.0659 34.323 32.3619 31.269C36.1659 25.925 31.7159 19.374 28.5139 17.087C31.3919 26.246 19.4149 31.062 12.9509 31.062Z" fill="#F5CFA0"/>
<path d="M8.85105 20.434C10.9231 22.274 16.1931 17.908 14.8751 16.737C13.1681 15.219 7.44005 19.179 8.85105 20.434Z" fill="#FFEECC"/>
<path d="M6.33194 31.923C6.16494 31.077 8.85294 32.379 8.48994 32.778C7.41494 33.969 6.49894 32.768 6.33194 31.923Z" fill="#FFEECC"/>
<path d="M41.3049 35.236C43.1779 35.759 44.4909 36.461 47.6739 36.461C51.4299 36.461 51.8579 34.861 53.1369 34.625C54.2329 34.419 57.5239 35.767 58.2189 33.186C58.5669 31.9 57.6859 30.832 57.6859 28.995C57.6859 27.77 58.5959 25.607 58.5959 23.912C58.5959 17.637 52.4849 12.901 44.9459 12.901C37.4089 12.901 31.2709 17.648 31.2709 23.365C31.2709 27.284 34.0259 28.149 31.5649 31.001C29.9099 32.922 30.4469 34.286 32.3629 35.038C35.1459 36.129 39.3789 34.699 41.3049 35.236Z" fill="#87533C"/>
<path d="M45.859 33.578C50.203 34.467 56.017 34.221 57.685 28.996C57.685 27.769 58.595 25.607 58.595 23.911C58.595 20.559 56.902 18.517 56.902 18.517C53.72 35.311 38.541 26.676 32.483 28.036C32.483 28.036 32.873 29.802 31.564 31C35.619 35.785 37.396 31.848 45.859 33.578Z" fill="#704431"/>
<path d="M48.951 35.251C47.336 36.756 45.053 35.49 44.502 34.9C43.846 34.199 50.568 33.748 48.951 35.251Z" fill="#8F583F"/>
<path d="M36.139 34.605C37.106 33.864 31.072 32.492 31.42 33.122C32.499 35.083 35.174 35.347 36.139 34.605Z" fill="#8F583F"/>
<path d="M35.1879 19.732C36.1019 16.913 41.4849 14.216 43.2919 15.936C45.0979 17.657 34.4059 22.135 35.1879 19.732Z" fill="#8F583F"/>
<path d="M8.2499 18.508L6.7509 20.563C6.5079 20.895 5.9519 20.493 6.1949 20.162L7.6939 18.109C7.9349 17.777 8.4909 18.178 8.2499 18.508Z" fill="#18B5F8"/>
<path d="M41.094 16.277L38.571 15.951C38.165 15.898 38.249 15.217 38.657 15.27L41.177 15.598C41.584 15.648 41.498 16.329 41.094 16.277Z" fill="#FF1F2B"/>
<path d="M36.264 19.645L34.534 21.511C34.253 21.813 33.751 21.348 34.028 21.047L35.76 19.181C36.039 18.879 36.545 19.344 36.264 19.645Z" fill="#ED1EE4"/>
<path d="M13.1491 20.295L10.8731 21.435C10.5061 21.62 10.1981 21.008 10.5651 20.823L12.8431 19.683C13.2091 19.499 13.5171 20.109 13.1491 20.295Z" fill="#FFB700"/>
<path d="M25.4211 15.758L23.0391 14.86C22.6541 14.715 22.8971 14.075 23.2821 14.22L25.6651 15.118C26.0501 15.262 25.8061 15.902 25.4211 15.758Z" fill="#89CC14"/>
<path d="M41.3181 6.96602L39.0391 5.83802C38.6721 5.65502 38.9731 5.04002 39.3421 5.22202L41.6191 6.35102C41.9861 6.53102 41.6861 7.14702 41.3181 6.96602Z" fill="#18B5F8"/>
<path d="M29.599 9.56399L27.057 9.43999C26.648 9.41999 26.676 8.73399 27.087 8.75499L29.626 8.87899C30.037 8.89799 30.006 9.58299 29.599 9.56399Z" fill="#FF1F2B"/>
<path d="M47.549 13.373L45.004 13.459C44.594 13.473 44.568 12.789 44.979 12.774L47.524 12.689C47.934 12.674 47.961 13.358 47.549 13.373Z" fill="#18B5F8"/>
<path d="M26.339 5.46503L24.169 6.79903C23.819 7.01403 23.46 6.43003 23.811 6.21503L25.982 4.88203C26.331 4.66703 26.69 5.24903 26.339 5.46503Z" fill="#FFB700"/>
<path d="M35.316 16.552L33.361 18.182C33.047 18.446 32.609 17.918 32.924 17.655L34.879 16.025C35.193 15.76 35.631 16.288 35.316 16.552Z" fill="#89CC14"/>
<path d="M23.923 21.114L21.389 21.329C20.98 21.363 20.917 20.679 21.327 20.646L23.86 20.432C24.269 20.396 24.331 21.079 23.923 21.114Z" fill="#18B5F8"/>
<path d="M53.865 15.9L51.633 14.682C51.274 14.485 51.598 13.881 51.959 14.078L54.189 15.296C54.551 15.491 54.227 16.095 53.865 15.9Z" fill="#FF1F2B"/>
<path d="M43.0979 20.341L40.5839 19.93C40.1799 19.865 40.2869 19.189 40.6929 19.253L43.2049 19.665C43.6089 19.731 43.5039 20.407 43.0979 20.341Z" fill="#FFB700"/>
<path d="M38.5411 8.58598L36.0881 9.26998C35.6921 9.38098 35.5081 8.72198 35.9021 8.61098L38.3571 7.92698C38.7521 7.81598 38.9361 8.47498 38.5411 8.58598Z" fill="#FFB700"/>
<path d="M23.528 9.22602L21.376 10.587C21.028 10.807 20.662 10.229 21.009 10.009L23.162 8.64702C23.508 8.42802 23.874 9.00502 23.528 9.22602Z" fill="#18B5F8"/>
<path d="M34.3109 5.35601L32.2699 6.87601C31.9409 7.12201 31.5339 6.57101 31.8629 6.32501L33.9049 4.80501C34.2319 4.55901 34.6409 5.10901 34.3109 5.35601Z" fill="#89CC14"/>
<path d="M50.2459 17.141L47.8099 17.872C47.4149 17.989 47.2139 17.333 47.6089 17.216L50.0449 16.485C50.4379 16.367 50.6369 17.023 50.2459 17.141Z" fill="#ED1EE4"/>
<path d="M20.928 17.641L18.421 17.213C18.016 17.144 18.126 16.468 18.532 16.536L21.038 16.965C21.443 17.032 21.332 17.708 20.928 17.641Z" fill="#FF1F2B"/>
<path d="M15.732 14.887L13.335 15.737C12.948 15.874 12.716 15.23 13.104 15.091L15.502 14.241C15.889 14.104 16.121 14.748 15.732 14.887Z" fill="#ED1EE4"/>
<path d="M29.4101 20.336L27.3061 18.902C26.9661 18.672 27.3511 18.106 27.6911 18.336L29.7951 19.772C30.1351 20.001 29.7501 20.567 29.4101 20.336Z" fill="#FFB700"/>
<path d="M56.3461 20.558L53.8131 20.319C53.4051 20.281 53.4711 19.6 53.8791 19.638L56.4141 19.876C56.8221 19.914 56.7561 20.595 56.3461 20.558Z" fill="#89CC14"/>
<defs>
<linearGradient id="paint0_linear" x1="47.6946" y1="12.6573" x2="50.8612" y2="15.0539" gradientUnits="userSpaceOnUse">
<stop stop-color="#C27D5D"/>
<stop offset="0.446" stop-color="#A0654B"/>
<stop offset="1" stop-color="#704431"/>
</linearGradient>
<linearGradient id="paint1_linear" x1="49.1108" y1="10.7836" x2="52.2778" y2="13.1805" gradientUnits="userSpaceOnUse">
<stop stop-color="#FFE7C4"/>
<stop offset="0.5424" stop-color="#FFDAA2"/>
<stop offset="1" stop-color="#FFCD82"/>
</linearGradient>
<linearGradient id="paint2_linear" x1="52.7654" y1="5.95722" x2="55.9317" y2="8.35354" gradientUnits="userSpaceOnUse">
<stop stop-color="#FFE7C4"/>
<stop offset="0.5424" stop-color="#FFDAA2"/>
<stop offset="1" stop-color="#FFCD82"/>
</linearGradient>
<linearGradient id="paint3_linear" x1="44.4603" y1="10.7001" x2="48.1518" y2="12.5448" gradientUnits="userSpaceOnUse">
<stop stop-color="#C27D5D"/>
<stop offset="0.446" stop-color="#A0654B"/>
<stop offset="1" stop-color="#704431"/>
</linearGradient>
<linearGradient id="paint4_linear" x1="45.5502" y1="8.51783" x2="49.2414" y2="10.3624" gradientUnits="userSpaceOnUse">
<stop stop-color="#FFE7C4"/>
<stop offset="0.5424" stop-color="#FFDAA2"/>
<stop offset="1" stop-color="#FFCD82"/>
</linearGradient>
<linearGradient id="paint5_linear" x1="48.3619" y1="2.89135" x2="52.0531" y2="4.73589" gradientUnits="userSpaceOnUse">
<stop stop-color="#FFE7C4"/>
<stop offset="0.5424" stop-color="#FFDAA2"/>
<stop offset="1" stop-color="#FFCD82"/>
</linearGradient>
<linearGradient id="paint6_linear" x1="16.6305" y1="59.6777" x2="47.545" y2="59.6777" gradientUnits="userSpaceOnUse">
<stop stop-color="#E6EBEF"/>
<stop offset="0.2857" stop-color="#E2E8EC"/>
<stop offset="0.5605" stop-color="#D7DFE3"/>
<stop offset="0.83" stop-color="#C3CFD3"/>
<stop offset="1" stop-color="#B3C2C6"/>
</linearGradient>
<linearGradient id="paint7_linear" x1="27.4008" y1="55.3115" x2="36.7753" y2="55.3115" gradientUnits="userSpaceOnUse">
<stop stop-color="#E6EBEF"/>
<stop offset="0.2857" stop-color="#E2E8EC"/>
<stop offset="0.5605" stop-color="#D7DFE3"/>
<stop offset="0.83" stop-color="#C3CFD3"/>
<stop offset="1" stop-color="#B3C2C6"/>
</linearGradient>
<linearGradient id="paint8_linear" x1="6.32563" y1="42.4297" x2="57.8515" y2="42.4297" gradientUnits="userSpaceOnUse">
<stop stop-color="#D7E0E6"/>
<stop offset="0.2857" stop-color="#D3DCE2"/>
<stop offset="0.5605" stop-color="#C8D2D7"/>
<stop offset="0.83" stop-color="#B4C0C5"/>
<stop offset="1" stop-color="#A4B1B5"/>
</linearGradient>
</defs>
</svg>
