<svg width="64" height="64" viewBox="0 0 64 64" fill="none" xmlns="http://www.w3.org/2000/svg">
<path d="M11.7381 15.43C9.38906 12.306 14.2401 2.907 22.1271 2.907C30.6151 2.907 21.7321 11.993 24.7481 14.793C25.3161 15.321 23.7971 15.783 23.2051 15.241C19.5551 11.887 28.2851 4.055 21.7581 4.055C16.1641 4.055 11.1451 11.84 13.2311 15.01C13.6091 15.583 12.1931 16.035 11.7381 15.43Z" fill="#6F3B9C"/>
<path d="M40.9981 12.374L12.4141 10.703L14.6191 52.676L42.6501 49.474L40.9981 12.374Z" fill="#FF98CC"/>
<path d="M2.725 11.399L10.689 11.817L9.965 44.393L2 51.145L2.725 11.399Z" fill="#FF74C0"/>
<path d="M14.619 52.676L2 51.145L9.965 44.393L14.619 52.676Z" fill="#E359A5"/>
<path d="M10.6891 11.817L12.4141 10.703L14.6191 52.676L9.96509 44.393L10.6891 11.817Z" fill="#B83775"/>
<path d="M13.7931 36.939L42.0451 35.858L41.8401 31.273L13.5161 31.623L13.7931 36.939Z" fill="#FF74C0"/>
<path d="M14.3501 47.529L42.4531 44.998L42.2481 40.434L14.0701 42.242L14.3501 47.529Z" fill="#FF74C0"/>
<path d="M12.9529 20.942L13.2339 26.292L41.6349 26.675L41.4279 22.065L12.9529 20.942Z" fill="#FF74C0"/>
<path d="M40.9981 12.374L12.4141 10.703L12.6721 15.58L41.2231 17.444L40.9981 12.374Z" fill="#FF74C0"/>
<path d="M53.707 21.293C55.707 17.879 51.578 7.60699 44.861 7.60699C37.632 7.60699 45.199 17.538 42.629 20.598C42.147 21.175 43.44 21.68 43.942 21.087C47.053 17.421 39.618 8.862 45.178 8.862C49.94 8.862 54.213 17.37 52.438 20.835C52.115 21.461 53.32 21.954 53.707 21.293Z" fill="#B83775"/>
<path d="M28.793 17.953L53.131 16.127L51.254 62L27.385 58.5L28.793 17.953Z" fill="#C28FEF"/>
<path d="M46.0511 16.658L44.3201 60.983L47.7481 61.486L49.5081 16.398L46.0511 16.658Z" fill="#AA5BEF"/>
<path d="M39.1389 17.177L37.4709 59.979L40.8959 60.481L42.5979 16.918L39.1389 17.177Z" fill="#AA5BEF"/>
<path d="M32.213 17.696L30.604 58.973L34.029 59.475L35.67 17.437L32.213 17.696Z" fill="#AA5BEF"/>
<path d="M61.385 16.888L54.6021 17.344L55.2191 52.947L62 60.326L61.385 16.888Z" fill="#AA5BEF"/>
<path d="M51.2539 62L61.9999 60.326L55.2189 52.947L51.2539 62Z" fill="#8C4BC4"/>
<path d="M54.6019 17.344L53.1309 16.127L51.2539 62L55.2189 52.947L54.6019 17.344Z" fill="#6F3B9C"/>
<path d="M22.465 13.783C22.465 16.008 19.127 16.008 19.127 13.783C19.127 11.558 22.465 11.558 22.465 13.783Z" fill="#E6EBEF"/>
<path d="M21.8651 13.783C21.8651 15.208 19.7271 15.208 19.7271 13.783C19.7271 12.358 21.8651 12.357 21.8651 13.783Z" fill="#302C3B"/>
<path d="M33.904 14.192C33.904 16.163 30.948 16.163 30.948 14.192C30.948 12.221 33.904 12.221 33.904 14.192Z" fill="#E6EBEF"/>
<path d="M33.373 14.192C33.373 15.454 31.479 15.454 31.479 14.192C31.479 12.93 33.373 12.93 33.373 14.192Z" fill="#302C3B"/>
<path d="M47.744 19.338C47.744 21.563 44.406 21.563 44.406 19.338C44.406 17.113 47.744 17.113 47.744 19.338Z" fill="#E6EBEF"/>
<path d="M47.1451 19.338C47.1451 20.763 45.0071 20.763 45.0071 19.338C45.0071 17.913 47.1451 17.913 47.1451 19.338Z" fill="#302C3B"/>
<path d="M37.6241 19.771C37.6241 21.774 34.6201 21.774 34.6201 19.771C34.6201 17.768 37.6241 17.769 37.6241 19.771Z" fill="#E6EBEF"/>
<path d="M37.0839 19.771C37.0839 21.054 35.1599 21.054 35.1599 19.771C35.1599 18.488 37.0839 18.488 37.0839 19.771Z" fill="#302C3B"/>
<path d="M33.2209 14.523C35.6169 11.399 30.6659 2 22.6089 2C13.9369 2 23.0109 11.086 19.9309 13.886C19.3509 14.414 20.9039 14.877 21.5069 14.335C25.2369 10.98 16.3159 3.149 22.9869 3.149C28.6999 3.149 33.8249 10.933 31.6939 14.104C31.3129 14.677 32.7559 15.128 33.2209 14.523Z" fill="#AA5BEF"/>
<path d="M35.4159 20.302C33.3729 16.887 37.5899 6.61501 44.4509 6.61501C51.8359 6.61501 44.1069 16.546 46.7299 19.606C47.2219 20.182 45.9039 20.688 45.3879 20.095C42.2119 16.428 49.8079 7.87001 44.1279 7.87001C39.2629 7.87001 34.8979 16.378 36.7119 19.843C37.0409 20.47 35.8109 20.963 35.4159 20.302Z" fill="#FF98CC"/>
</svg>
