<svg width="64" height="64" viewBox="0 0 64 64" fill="none" xmlns="http://www.w3.org/2000/svg">
<path d="M43.6069 46.876L58.1829 61.657C59.6029 63.106 63.0859 59.575 61.6639 58.126L47.0899 43.343L43.6069 46.876Z" fill="#D99025"/>
<path d="M43.3491 29.9699C39.2611 34.1159 34.2071 39.2759 30.9711 42.5549C23.2001 50.4349 34.0721 61.9189 42.0701 53.8099C45.2551 50.5829 50.1601 45.6089 54.2481 41.4599C61.2341 34.3729 50.9691 22.2409 43.3491 29.9699Z" fill="url(#paint0_radial)"/>
<path d="M19.629 19.0229C13.474 25.2689 12.849 34.7569 18.235 40.2199C23.623 45.6799 32.978 45.0489 39.135 38.8059C45.289 32.5659 45.912 23.0769 40.528 17.6159C35.142 12.1479 25.784 12.7849 19.629 19.0229Z" fill="url(#paint1_radial)"/>
<path d="M3.09606 3.28001C-0.132935 6.55601 4.52206 25.292 7.40106 28.214C12.7911 33.674 17.1321 28.595 22.5971 23.054C28.0591 17.517 34.0731 12.09 28.6891 6.62501C25.8071 3.70601 6.32607 0.00700819 3.09606 3.28001Z" fill="url(#paint2_radial)"/>
<defs>
<radialGradient id="paint0_radial" cx="0" cy="0" r="1" gradientUnits="userSpaceOnUse" gradientTransform="translate(42.1183 36.5987) rotate(-45.4023) scale(17.0888 11.819)">
<stop stop-color="#FFF3DB"/>
<stop offset="0.2535" stop-color="#FEF1D7"/>
<stop offset="0.49" stop-color="#FAEBCC"/>
<stop offset="0.7198" stop-color="#F4E0B9"/>
<stop offset="0.9442" stop-color="#EBD19F"/>
<stop offset="1" stop-color="#E8CD97"/>
</radialGradient>
<radialGradient id="paint1_radial" cx="0" cy="0" r="1" gradientUnits="userSpaceOnUse" gradientTransform="translate(29.174 23.8325) rotate(-45.4023) scale(16.3429 16.3413)">
<stop stop-color="#F0C581"/>
<stop offset="0.1776" stop-color="#E9BD7B"/>
<stop offset="0.4524" stop-color="#D5A76C"/>
<stop offset="0.7882" stop-color="#B48453"/>
<stop offset="1" stop-color="#9C6A41"/>
</radialGradient>
<radialGradient id="paint2_radial" cx="0" cy="0" r="1" gradientUnits="userSpaceOnUse" gradientTransform="translate(12.2368 9.50607) rotate(-45.4023) scale(16.7562 16.7546)">
<stop stop-color="#6E8189"/>
<stop offset="0.2851" stop-color="#6B7E85"/>
<stop offset="0.5511" stop-color="#62737A"/>
<stop offset="0.8087" stop-color="#536167"/>
<stop offset="1" stop-color="#444F54"/>
</radialGradient>
</defs>
</svg>
