<svg width="64" height="64" viewBox="0 0 64 64" fill="none" xmlns="http://www.w3.org/2000/svg">
<path d="M52 55.345C51.998 62.885 12.002 62.885 12 55.345V6.808H52V55.345Z" fill="url(#paint0_radial)"/>
<path d="M32.375 15.022C32.375 15.132 32.279 15.222 32.162 15.222H31.84C31.723 15.222 31.625 15.132 31.625 15.022V12.422C31.625 12.312 31.723 12.222 31.84 12.222H32.162C32.279 12.222 32.375 12.312 32.375 12.422V15.022Z" fill="white"/>
<path d="M30.701 14.097C30.592 14.097 30.5 14.001 30.5 13.883V13.562C30.5 13.444 30.592 13.348 30.701 13.348H33.301C33.41 13.348 33.5 13.445 33.5 13.562V13.883C33.5 14.001 33.41 14.097 33.301 14.097H30.701Z" fill="white"/>
<path d="M30.701 57.875C30.592 57.875 30.5 57.779 30.5 57.661V57.34C30.5 57.222 30.592 57.125 30.701 57.125H33.301C33.41 57.125 33.5 57.222 33.5 57.34V57.661C33.5 57.779 33.41 57.875 33.301 57.875H30.701Z" fill="white"/>
<path d="M29.131 41.664L29.667 41.127C29.678 41.117 29.691 41.109 29.705 41.109C29.721 41.109 29.734 41.117 29.744 41.127L30.281 41.664C30.291 41.674 30.297 41.686 30.297 41.701C30.297 41.715 30.291 41.729 30.281 41.74L29.744 42.276C29.723 42.297 29.689 42.297 29.667 42.276L29.131 41.74C29.109 41.719 29.109 41.684 29.131 41.664Z" fill="white"/>
<path d="M30.638 33.402C30.638 32.608 31.309 31.951 32.174 31.951C33.041 31.951 33.711 32.608 33.711 33.402C33.711 33.863 33.523 34.205 33.215 34.427H34.671C34.708 34.423 34.743 34.435 34.77 34.46C34.795 34.485 34.809 34.521 34.803 34.558V34.926C34.809 34.962 34.795 34.997 34.77 35.023C34.744 35.049 34.708 35.062 34.671 35.056H30.848C30.811 35.062 30.776 35.049 30.75 35.023C30.725 34.998 30.712 34.962 30.716 34.926V34.558C30.71 34.521 30.723 34.486 30.749 34.46C30.773 34.435 30.811 34.421 30.846 34.425H31.135C30.826 34.204 30.638 33.861 30.638 33.4V33.402ZM33.112 33.505C33.112 32.979 32.721 32.583 32.177 32.583C31.634 32.583 31.242 32.979 31.242 33.505C31.242 34.031 31.632 34.426 32.173 34.426C32.717 34.426 33.112 34.031 33.112 33.505ZM33.639 31.456C33.643 31.492 33.631 31.527 33.605 31.553C33.579 31.579 33.543 31.592 33.508 31.586H30.846C30.811 31.592 30.774 31.579 30.749 31.553C30.723 31.527 30.71 31.492 30.714 31.456V31.088C30.71 31.052 30.723 31.017 30.749 30.99C30.773 30.965 30.811 30.952 30.846 30.957H33.504C33.539 30.953 33.576 30.965 33.6 30.99C33.626 31.017 33.639 31.052 33.635 31.088L33.639 31.456ZM33.479 28.244C33.567 28.185 33.638 28.227 33.638 28.332V28.714C33.639 28.778 33.605 28.839 33.55 28.872L32.659 29.441L33.55 30.01C33.605 30.043 33.639 30.103 33.638 30.168V30.55C33.638 30.654 33.568 30.696 33.479 30.638L32.134 29.777L30.875 30.581C30.787 30.641 30.717 30.6 30.717 30.494V30.113C30.715 30.048 30.749 29.988 30.804 29.956L31.607 29.442L30.804 28.927C30.749 28.894 30.715 28.834 30.717 28.769V28.387C30.717 28.283 30.786 28.241 30.875 28.299L32.134 29.105L33.479 28.244ZM30.642 26.698C30.642 25.824 31.344 25.252 32.184 25.252C32.235 25.252 32.281 25.252 32.327 25.257C32.362 25.258 32.396 25.273 32.42 25.299C32.444 25.325 32.454 25.361 32.45 25.395V27.572C32.929 27.476 33.175 27.12 33.175 26.675C33.183 26.432 33.081 26.198 32.896 26.041C32.847 26.001 32.82 25.942 32.818 25.88V25.507C32.818 25.41 32.878 25.357 32.959 25.395C33.435 25.609 33.723 26.087 33.723 26.684C33.723 27.615 33.064 28.226 32.188 28.226C31.313 28.227 30.64 27.61 30.64 26.697H30.642V26.698ZM31.93 27.578V25.888C31.432 25.971 31.217 26.326 31.217 26.702C31.214 27.173 31.49 27.492 31.926 27.578H31.93ZM33.639 24.792C33.643 24.828 33.631 24.863 33.605 24.889C33.579 24.915 33.543 24.928 33.508 24.923H29.565C29.528 24.927 29.493 24.915 29.466 24.889C29.442 24.863 29.428 24.827 29.434 24.792V24.424C29.428 24.387 29.442 24.351 29.466 24.326C29.492 24.3 29.528 24.288 29.565 24.292H33.508C33.543 24.288 33.578 24.3 33.605 24.326C33.631 24.351 33.643 24.387 33.639 24.424V24.792ZM31.535 23.23C32.123 23.23 31.699 21.609 32.814 21.609C33.389 21.609 33.71 22.11 33.71 22.757C33.71 23.355 33.423 23.832 32.87 23.896C32.833 23.904 32.793 23.894 32.766 23.869C32.738 23.843 32.723 23.806 32.729 23.768V23.406C32.729 23.326 32.773 23.295 32.846 23.266C33.055 23.217 33.142 23.013 33.142 22.758C33.142 22.451 33.034 22.241 32.811 22.241C32.231 22.241 32.645 23.862 31.532 23.862C30.962 23.862 30.636 23.36 30.636 22.758C30.636 22.212 30.922 21.741 31.478 21.677C31.515 21.668 31.552 21.678 31.582 21.705C31.609 21.731 31.623 21.768 31.618 21.806V22.168C31.618 22.247 31.574 22.28 31.498 22.307C31.289 22.354 31.205 22.55 31.205 22.757C31.205 23.018 31.313 23.23 31.535 23.23Z" fill="white"/>
<path d="M30.7139 41.537C30.7099 41.502 30.7229 41.465 30.7489 41.44C30.7749 41.414 30.8109 41.402 30.8459 41.406H33.7509C34.5169 41.406 34.8909 41.762 34.8859 42.471C34.8889 42.507 34.8749 42.543 34.8489 42.568C34.8229 42.593 34.7869 42.607 34.7499 42.603H34.4029C34.3669 42.607 34.3319 42.593 34.3059 42.568C34.2789 42.544 34.2659 42.507 34.2689 42.471C34.2589 42.177 34.1089 42.036 33.7489 42.036H30.8449C30.8099 42.04 30.7749 42.028 30.7479 42.003C30.7219 41.977 30.7089 41.941 30.7129 41.905V41.537H30.7139ZM33.7109 39.502C33.7069 40.35 33.0179 41.034 32.1709 41.031C31.3219 41.029 30.6379 40.341 30.6379 39.494C30.6389 38.646 31.3259 37.959 32.1739 37.959C32.5839 37.957 32.9769 38.118 33.2669 38.409C33.5559 38.699 33.7149 39.094 33.7109 39.502ZM33.0979 39.502C33.1019 39.127 32.8799 38.787 32.5349 38.641C32.1909 38.495 31.7929 38.571 31.5259 38.834C31.2589 39.096 31.1789 39.494 31.3209 39.841C31.4629 40.186 31.7999 40.413 32.1739 40.413C32.4189 40.42 32.6559 40.327 32.8299 40.154C33.0059 39.982 33.1019 39.748 33.0979 39.502ZM30.8219 35.973C30.7559 35.955 30.7099 35.893 30.7139 35.823V35.424C30.7139 35.331 30.7699 35.285 30.8629 35.317L34.6969 36.632C34.7649 36.651 34.8079 36.714 34.8019 36.784V37.183C34.8019 37.276 34.7469 37.323 34.6539 37.291L33.5999 36.929L30.8659 38.008C30.7759 38.041 30.7139 38.001 30.7139 37.904V37.508C30.7079 37.44 30.7519 37.379 30.8169 37.359L32.7259 36.615L30.8219 35.973Z" fill="white"/>
<path d="M30.0009 46.828C30.0009 45.676 30.9339 44.742 32.0879 44.742C33.2389 44.742 34.1729 45.676 34.1729 46.828C34.1729 47.98 33.2389 48.914 32.0879 48.914C30.9339 48.914 30.0009 47.98 30.0009 46.828ZM29.3049 46.828C29.3049 48.363 30.5499 49.609 32.0879 49.609C33.6219 49.609 34.8679 48.363 34.8679 46.828C34.8679 45.291 33.6219 44.047 32.0879 44.047C31.3489 44.047 30.6419 44.34 30.1189 44.861C29.5989 45.383 29.3049 46.09 29.3049 46.828Z" fill="white"/>
<path d="M32.364 46.271C32.369 46.309 32.357 46.347 32.33 46.375C32.303 46.403 32.266 46.415 32.226 46.409H31.947C31.91 46.415 31.871 46.403 31.843 46.375C31.815 46.347 31.802 46.309 31.809 46.271V45.367C31.802 45.329 31.816 45.291 31.843 45.263C31.87 45.237 31.909 45.223 31.947 45.229H32.088C32.734 45.229 33.318 45.619 33.565 46.216C33.813 46.813 33.676 47.501 33.218 47.958C33.195 47.99 33.158 48.008 33.119 48.008C33.08 48.008 33.044 47.99 33.02 47.958L32.724 47.662C32.693 47.64 32.675 47.603 32.675 47.564C32.675 47.525 32.693 47.49 32.724 47.466C32.946 47.243 33.037 46.921 32.962 46.616C32.89 46.309 32.663 46.065 32.363 45.968V46.271H32.364Z" fill="white"/>
<path d="M51.998 6.808C52 2.253 12 2.255 12 6.808C12 11.361 52 11.361 51.998 6.808Z" fill="#619C37"/>
<path d="M48.9879 6.35C48.9899 3.202 15.0149 3.203 15.0149 6.35C15.0159 9.495 48.9899 9.495 48.9879 6.35Z" fill="#CFD8DD"/>
<path d="M39.1021 4.325H24.8981L23.7871 6.475C23.7871 8.093 40.2131 8.093 40.2111 6.475L39.1021 4.325Z" fill="url(#paint1_radial)"/>
<path d="M39.1019 4.325C39.1019 2.707 24.8989 2.707 24.8989 4.325C24.8979 5.941 39.1019 5.941 39.1019 4.325Z" fill="#B3C2C6"/>
<path d="M38.482 3.985C38.482 2.672 25.521 2.672 25.521 3.985C25.521 5.298 38.482 5.298 38.482 3.985Z" fill="#CFD8DD"/>
<defs>
<radialGradient id="paint0_radial" cx="0" cy="0" r="1" gradientUnits="userSpaceOnUse" gradientTransform="translate(24.9268 36.2746) scale(27.7189 554.4)">
<stop stop-color="#9BE022"/>
<stop offset="0.1186" stop-color="#87C622"/>
<stop offset="0.2483" stop-color="#76B223"/>
<stop offset="0.3764" stop-color="#6CA523"/>
<stop offset="0.5" stop-color="#69A123"/>
<stop offset="0.7236" stop-color="#6BA323"/>
<stop offset="0.8186" stop-color="#70AA23"/>
<stop offset="0.8893" stop-color="#7AB723"/>
<stop offset="0.9474" stop-color="#88C822"/>
<stop offset="0.998" stop-color="#9ADF22"/>
<stop offset="1" stop-color="#9BE022"/>
</radialGradient>
<radialGradient id="paint1_radial" cx="0" cy="0" r="1" gradientUnits="userSpaceOnUse" gradientTransform="translate(29.9454 6.00622) scale(5.9982 31.2986)">
<stop stop-color="#B3C2C6"/>
<stop offset="0.2131" stop-color="#AEBDC1"/>
<stop offset="0.4787" stop-color="#A0ADB2"/>
<stop offset="0.771" stop-color="#889499"/>
<stop offset="1" stop-color="#717B80"/>
</radialGradient>
</defs>
</svg>
