<svg width="64" height="64" viewBox="0 0 64 64" fill="none" xmlns="http://www.w3.org/2000/svg">
<path d="M56.884 35.771C56.884 70.742 4 70.742 4 35.771C4 0.796045 56.884 0.796045 56.884 35.771Z" fill="url(#paint0_radial)"/>
<path d="M6.42798 26.188C11.484 21.44 23.448 17.861 23.448 17.861C23.448 17.861 17.052 17.172 12.553 16.654C17.052 15.899 24.351 17.197 24.351 17.197C24.351 17.197 23.517 15.261 19.146 12.216C24.398 14.063 25.638 16.941 25.638 16.941C25.638 16.941 27.742 10.03 28.248 9.98603C28.701 9.94403 27.224 16.729 27.224 16.729C27.224 16.729 35.034 14.029 43.683 14.676C34.406 16.004 27.662 17.785 27.662 17.785C27.662 17.785 37.412 19.497 41.856 21.813C35.718 20.358 27.632 18.75 27.632 18.75C27.632 18.75 36.31 27.646 38.599 34.816C33.724 25.711 26.786 19.851 26.786 19.851C26.786 19.851 26.604 32.5 27.719 38.588C25.397 31.545 25.65 19.731 25.65 19.731C25.65 19.731 17.952 32.045 15.996 39.795C16.76 29.885 24.283 20.042 24.283 20.042C24.283 20.042 14.188 26.52 10.219 30.955C14.42 24.226 24.132 18.599 24.132 18.599C24.132 18.599 11.234 23.332 6.42798 26.188Z" fill="url(#paint1_radial)"/>
<path d="M23.969 18.6539C23.969 18.6539 23.271 18.1269 23.325 17.7429C23.387 17.2999 24.722 16.8439 24.722 16.8439C24.722 16.8439 25.208 15.9669 25.583 15.9339C25.919 15.9049 26.496 16.4709 26.496 16.4709C26.496 16.4709 27.989 16.2419 28.214 16.6959C28.429 17.1409 27.561 18.0429 27.561 18.0429C27.561 18.0429 28.087 19.5219 27.713 19.9119C27.317 20.3239 25.906 19.7249 25.906 19.7249C25.906 19.7249 24.432 20.7929 23.954 20.4709C23.512 20.1729 23.969 18.6539 23.969 18.6539Z" fill="url(#paint2_linear)"/>
<path d="M23.925 10.826C23.803 10.538 21.992 11.578 22.084 11.871C23.71 13.906 25.038 17.995 25.004 18.751C24.978 19.345 26.367 18.924 26.439 18.571C26.561 17.959 26.507 15.095 23.925 10.826Z" fill="url(#paint3_linear)"/>
<path d="M23.925 10.826C24.341 11.451 22.451 12.195 22.084 11.871C21.563 11.412 23.518 10.214 23.925 10.826Z" fill="#5FBD17"/>
<path d="M30.021 9.212C35.559 14.666 41.708 19.723 47.939 20.299C53.936 21.372 60.012 17.963 60.001 17.991C59.743 18.535 54.344 17.289 48.542 14.197C42.565 11.469 36.191 6.893 30.021 9.212Z" fill="#449C00"/>
<path d="M30.021 9.21205C36.064 7.41706 42.428 12.0171 48.437 14.6061C54.274 17.5661 59.755 18.5121 60 17.9911C60.027 17.9341 56.849 15.3421 52.31 11.2571C47.531 7.67505 41.389 2.60205 30.021 9.21205Z" fill="#56AB15"/>
<path d="M33.23 9.00999C34.603 7.96999 36.253 7.19799 37.882 6.74599C39.526 6.30799 41.191 6.20999 42.713 6.51699C41.156 6.37699 39.541 6.48299 37.935 6.92899C37.129 7.13499 36.331 7.42899 35.542 7.77599C34.756 8.12699 33.969 8.53199 33.23 9.00999Z" fill="#5FBD17"/>
<path d="M37.563 9.69605C39.004 8.65605 40.782 7.98705 42.557 7.73905C43.45 7.62605 44.349 7.61705 45.228 7.72405C46.104 7.83405 46.957 8.05605 47.766 8.36205C46.09 7.89805 44.338 7.69005 42.591 7.94005C41.716 8.04605 40.852 8.26305 40.009 8.55905C39.165 8.85805 38.333 9.22905 37.563 9.69605Z" fill="#5FBD17"/>
<path d="M41.8601 11.313C43.3831 10.558 45.1231 10.189 46.8661 10.145C47.7391 10.138 48.6231 10.209 49.4791 10.385C50.3381 10.557 51.1671 10.839 51.9391 11.179C50.3131 10.631 48.5901 10.303 46.8761 10.35C46.0201 10.356 45.1691 10.457 44.3271 10.616C43.4911 10.781 42.6571 11 41.8601 11.313Z" fill="#5FBD17"/>
<path d="M46.6379 13.739C47.9689 13.362 49.4019 13.248 50.8429 13.26C51.5669 13.281 52.2919 13.329 53.0069 13.44C53.7219 13.542 54.4169 13.708 55.0699 13.914C53.6769 13.643 52.2509 13.474 50.8329 13.461C50.1239 13.439 49.4199 13.468 48.7199 13.51C48.0219 13.56 47.3229 13.624 46.6379 13.739Z" fill="#5FBD17"/>
<path d="M51.1699 15.9591C52.2639 15.7491 53.4119 15.7211 54.5519 15.7531C55.1169 15.7821 55.6869 15.8261 56.2279 15.9131C56.7749 15.9931 57.2889 16.1171 57.7519 16.2751C56.6999 16.0991 55.6079 15.9801 54.4969 15.9451C53.9449 15.9131 53.3849 15.9141 52.8299 15.9141C52.2769 15.9211 51.7219 15.9281 51.1699 15.9591Z" fill="#5FBD17"/>
<path d="M33.2301 9.01001C33.0831 10.235 33.5011 11.364 34.1701 12.448C34.8721 13.518 35.8901 14.542 37.1761 15.423C36.0671 14.425 35.1051 13.413 34.4441 12.341C34.0941 11.812 33.8301 11.267 33.6221 10.713C33.4221 10.158 33.2641 9.59901 33.2301 9.01001Z" fill="#56AB15"/>
<path d="M37.5629 9.69604C37.2849 11.289 37.6159 12.888 38.3099 14.39C38.6739 15.134 39.1379 15.856 39.7039 16.523C40.2669 17.187 40.9239 17.793 41.6509 18.322C40.3339 17.134 39.2359 15.777 38.5529 14.297C38.1919 13.566 37.9449 12.805 37.7779 12.037C37.6149 11.266 37.5169 10.487 37.5629 9.69604Z" fill="#56AB15"/>
<path d="M41.86 11.313C41.813 12.999 42.235 14.693 42.973 16.245C43.364 17.011 43.837 17.745 44.419 18.38C44.995 19.022 45.684 19.556 46.44 19.967C45.034 18.996 43.921 17.662 43.19 16.142C42.809 15.389 42.529 14.592 42.303 13.786C42.088 12.971 41.921 12.15 41.86 11.313Z" fill="#56AB15"/>
<path d="M46.6379 13.739C46.7409 15.091 47.1689 16.398 47.7989 17.569C48.1339 18.146 48.5179 18.694 48.9889 19.161C49.4519 19.635 50.0029 20.023 50.6139 20.307C49.5099 19.59 48.6449 18.598 48.0159 17.454C47.6859 16.891 47.4289 16.283 47.1979 15.662C46.9739 15.037 46.7759 14.397 46.6379 13.739Z" fill="#56AB15"/>
<path d="M51.1699 15.959C51.5289 16.963 52.1629 17.818 52.9429 18.483C53.3479 18.801 53.7899 19.078 54.2879 19.262C54.7839 19.456 55.3349 19.548 55.9189 19.547C54.8319 19.371 53.8969 18.935 53.1299 18.291C52.7329 17.985 52.3869 17.616 52.0619 17.226C51.7349 16.834 51.4349 16.414 51.1699 15.959Z" fill="#56AB15"/>
<path d="M25.336 14.186C27.469 11.132 30.907 9.83101 30.907 9.83101L30.02 9.21301C30.02 9.21301 26.666 10.88 24.779 13.596C24.604 13.862 25.193 14.403 25.336 14.186Z" fill="#449C00"/>
<defs>
<radialGradient id="paint0_radial" cx="0" cy="0" r="1" gradientUnits="userSpaceOnUse" gradientTransform="translate(23.362 25.6782) scale(33.1074 35.9951)">
<stop stop-color="#FFAB00"/>
<stop offset="0.3112" stop-color="#FFA800"/>
<stop offset="0.5432" stop-color="#FF9E00"/>
<stop offset="0.7494" stop-color="#FF8E00"/>
<stop offset="0.9396" stop-color="#FF7800"/>
<stop offset="1" stop-color="#FF6F00"/>
</radialGradient>
<radialGradient id="paint1_radial" cx="0" cy="0" r="1" gradientUnits="userSpaceOnUse" gradientTransform="translate(24.9573 23.4301) rotate(-13.1698) scale(17.8367 13.8573)">
<stop stop-color="#FF6F00"/>
<stop offset="0.6249" stop-color="#FF9200" stop-opacity="0.3751"/>
<stop offset="1" stop-color="#FFA200" stop-opacity="0"/>
</radialGradient>
<linearGradient id="paint2_linear" x1="23.3223" y1="18.2333" x2="28.249" y2="18.2333" gradientUnits="userSpaceOnUse">
<stop stop-color="#77B516"/>
<stop offset="1" stop-color="#297124"/>
</linearGradient>
<linearGradient id="paint3_linear" x1="22.0806" y1="14.9131" x2="26.4741" y2="14.9131" gradientUnits="userSpaceOnUse">
<stop stop-color="#77B516"/>
<stop offset="1" stop-color="#297124"/>
</linearGradient>
</defs>
</svg>
