<svg width="64" height="64" viewBox="0 0 64 64" fill="none" xmlns="http://www.w3.org/2000/svg">
<path fill-rule="evenodd" clip-rule="evenodd" d="M16.152 9.27695C16.363 9.99095 17.85 10.758 23.623 17.784L18.849 24.16C14.736 17.822 11.585 14.722 11.11 14.45C-3.09202 6.22895 11.644 -5.98405 16.152 9.27695Z" fill="url(#paint0_radial)"/>
<path fill-rule="evenodd" clip-rule="evenodd" d="M12.05 14.934C-0.458017 16.234 0.120983 3.748 6.13698 4.429C13.316 5.243 15.284 14.597 12.05 14.934Z" fill="url(#paint1_radial)"/>
<path d="M30.9131 54.761C50.9301 74.78 75.5121 49.155 53.0861 27.889C45.6331 20.821 31.7151 19.469 27.2381 18.403C24.4851 17.747 22.4321 14.934 22.4321 14.934C22.4321 14.934 21.7891 16.885 21.4341 19.096C19.4491 17.252 17.7131 16.033 17.7131 16.033C17.7131 16.033 17.4921 18.775 18.0241 21.575C16.8561 21.932 16.0081 22.3 16.0081 22.3C16.0081 22.3 18.4631 24.654 19.0331 27.811C20.6461 36.715 23.7661 47.614 30.9131 54.761Z" fill="url(#paint2_radial)"/>
<path d="M30.074 27.7631C30.074 29.1281 29.324 26.9631 26.793 27.7631C27.339 25.8821 29.399 25.6251 30.074 27.7631Z" fill="#BF5D17"/>
<path d="M47.145 49.912C45.798 51.341 47.145 48.1 43.707 45.659C46.132 44.396 48.544 46.794 47.145 49.912Z" fill="#BF5D17"/>
<path d="M34.5061 44.462C33.0601 45.753 34.6431 42.661 31.4021 39.887C33.9121 38.867 36.1351 41.493 34.5061 44.462Z" fill="#BF5D17"/>
<path d="M42.628 35.233C41.798 36.336 42.508 33.987 39.979 32.608C41.564 31.526 43.383 32.964 42.628 35.233Z" fill="#BF5D17"/>
<path d="M40.3571 25.01C40.0251 26.417 39.7771 23.947 36.9761 23.963C37.9971 22.2 40.1821 22.592 40.3571 25.01Z" fill="#BF5D17"/>
<path d="M52.026 40.7C51.511 42.068 51.576 39.528 48.738 39.072C49.996 37.46 52.157 38.223 52.026 40.7Z" fill="#BF5D17"/>
<defs>
<radialGradient id="paint0_radial" cx="0" cy="0" r="1" gradientUnits="userSpaceOnUse" gradientTransform="translate(12.0687 4.0024) rotate(-49.4624) scale(7.51353 7.42256)">
<stop stop-color="#E0DAD8"/>
<stop offset="0.4068" stop-color="#DBD4D1"/>
<stop offset="0.9867" stop-color="#CCC2BF"/>
<stop offset="1" stop-color="#CCC2BE"/>
</radialGradient>
<radialGradient id="paint1_radial" cx="0" cy="0" r="1" gradientUnits="userSpaceOnUse" gradientTransform="translate(4.67524 7.31974) rotate(-49.4625) scale(9.14561 9.03488)">
<stop stop-color="#E0DAD8"/>
<stop offset="0.4068" stop-color="#DBD4D1"/>
<stop offset="0.9867" stop-color="#CCC2BF"/>
<stop offset="1" stop-color="#CCC2BE"/>
</radialGradient>
<radialGradient id="paint2_radial" cx="0" cy="0" r="1" gradientUnits="userSpaceOnUse" gradientTransform="translate(42.2177 31.1193) rotate(128.098) scale(25.2966 35.2661)">
<stop stop-color="#D6863A"/>
<stop offset="0.2086" stop-color="#D38338"/>
<stop offset="0.3859" stop-color="#CA7833"/>
<stop offset="0.5517" stop-color="#BB672B"/>
<stop offset="0.7105" stop-color="#A54E20"/>
<stop offset="0.8629" stop-color="#8A2E11"/>
<stop offset="1" stop-color="#6B0B00"/>
</radialGradient>
</defs>
</svg>
