<svg width="64" height="64" viewBox="0 0 64 64" fill="none" xmlns="http://www.w3.org/2000/svg">
<g clip-path="url(#clip0)">
<path fill-rule="evenodd" clip-rule="evenodd" d="M17.3441 10.899C17.1451 11.753 25.6171 21.326 34.8371 30.923L30.7311 35.075C21.6161 25.575 12.3641 16.473 11.6901 16.682C-0.305892 20.381 -3.66689 6.23698 4.41011 4.83798C6.31711 -4.85502 19.5571 1.49898 17.3441 10.899Z" fill="url(#paint0_radial)"/>
<path fill-rule="evenodd" clip-rule="evenodd" d="M11.6901 16.6841C-0.305892 20.3811 -3.66689 6.23706 4.41011 4.83806C12.4991 3.43806 15.8021 15.4201 11.6901 16.6841Z" fill="url(#paint1_radial)"/>
<path d="M55.6831 32.377C54.6081 27.922 43.2871 20.338 36.1621 11.51C28.6801 2.24005 7.61007 21.817 9.93207 32.375C12.2231 42.784 27.6711 54.862 32.1221 55.94C37.4751 57.235 56.9851 37.73 55.6831 32.377Z" fill="url(#paint2_linear)"/>
<path opacity="0.3" d="M38.37 15.625C30.918 9.15601 14.322 24.42 13.241 34.894C17.553 25.749 30.522 14.854 38.37 15.625Z" fill="#8F2B00"/>
<path opacity="0.3" d="M45.0639 21.88C37.6289 15.393 20.9909 30.607 19.8789 41.078C24.2179 31.948 37.2169 21.091 45.0639 21.88Z" fill="#8F2B00"/>
<path opacity="0.3" d="M52.114 28.573C44.542 22.246 28.232 37.812 27.345 48.306C31.486 39.082 44.253 27.95 52.114 28.573Z" fill="#8F2B00"/>
<path d="M55.2899 32.3791C53.6749 25.6901 25.4309 53.9281 32.1239 55.5471C37.3859 56.8191 56.5709 37.6411 55.2899 32.3791Z" fill="#D6A57C"/>
<path d="M54.792 33.225C53.676 27.329 27.07 53.928 32.97 55.047C37.609 55.93 55.679 37.863 54.792 33.225Z" fill="url(#paint3_radial)"/>
<path fill-rule="evenodd" clip-rule="evenodd" d="M59.1611 59.591C57.7631 67.668 43.6181 64.305 47.3141 52.31C47.4101 52.013 44.7451 49.1 41.7861 46.023C41.5921 44.653 45.3211 41.18 46.3341 41.27C49.6291 44.143 52.7161 46.749 53.1011 46.658C62.5011 44.443 68.8541 57.684 59.1611 59.591Z" fill="url(#paint4_radial)"/>
<path fill-rule="evenodd" clip-rule="evenodd" d="M47.314 52.31C43.618 64.305 57.762 67.668 59.161 59.591C60.563 51.5 48.581 48.199 47.314 52.31Z" fill="url(#paint5_radial)"/>
</g>
<defs>
<radialGradient id="paint0_radial" cx="0" cy="0" r="1" gradientUnits="userSpaceOnUse" gradientTransform="translate(13.5773 6.40121) rotate(-45.3423) scale(7.77658 9.69616)">
<stop stop-color="#E0DAD8"/>
<stop offset="0.4644" stop-color="#DED8D5"/>
<stop offset="0.7539" stop-color="#D7D0CD"/>
<stop offset="0.9953" stop-color="#CCC2BE"/>
<stop offset="1" stop-color="#CCC2BE"/>
</radialGradient>
<radialGradient id="paint1_radial" cx="0" cy="0" r="1" gradientUnits="userSpaceOnUse" gradientTransform="translate(11.7469 12.7367) rotate(-45.3423) scale(9.20308 11.4748)">
<stop stop-color="#E0DAD8"/>
<stop offset="0.4644" stop-color="#DED8D5"/>
<stop offset="0.7539" stop-color="#D7D0CD"/>
<stop offset="0.9953" stop-color="#CCC2BE"/>
<stop offset="1" stop-color="#CCC2BE"/>
</radialGradient>
<linearGradient id="paint2_linear" x1="17.9583" y1="45.4299" x2="44.0838" y2="19.3045" gradientUnits="userSpaceOnUse">
<stop stop-color="#6B0B00"/>
<stop offset="0.083" stop-color="#7E1C01"/>
<stop offset="0.245" stop-color="#9E3802"/>
<stop offset="0.4138" stop-color="#B74D03"/>
<stop offset="0.59" stop-color="#C85D03"/>
<stop offset="0.7784" stop-color="#D36604"/>
<stop offset="1" stop-color="#D66904"/>
</linearGradient>
<radialGradient id="paint3_radial" cx="0" cy="0" r="1" gradientUnits="userSpaceOnUse" gradientTransform="translate(43.6014 43.856) rotate(45) scale(3.36827 15.3087)">
<stop stop-color="#380404"/>
<stop offset="0.2016" stop-color="#680404"/>
<stop offset="0.4028" stop-color="#900505"/>
<stop offset="0.5858" stop-color="#AC0505"/>
<stop offset="0.7443" stop-color="#BE0505"/>
<stop offset="0.8606" stop-color="#C40505"/>
</radialGradient>
<radialGradient id="paint4_radial" cx="0" cy="0" r="1" gradientUnits="userSpaceOnUse" gradientTransform="translate(56.9324 49.7643) rotate(-44.6577) scale(8.42813 10.5085)">
<stop stop-color="#E0DAD8"/>
<stop offset="0.4644" stop-color="#DED8D5"/>
<stop offset="0.7539" stop-color="#D7D0CD"/>
<stop offset="0.9953" stop-color="#CCC2BE"/>
<stop offset="1" stop-color="#CCC2BE"/>
</radialGradient>
<radialGradient id="paint5_radial" cx="0" cy="0" r="1" gradientUnits="userSpaceOnUse" gradientTransform="translate(51.2627 52.2503) rotate(-44.6577) scale(9.20459 11.4767)">
<stop stop-color="#E0DAD8"/>
<stop offset="0.4644" stop-color="#DED8D5"/>
<stop offset="0.7539" stop-color="#D7D0CD"/>
<stop offset="0.9953" stop-color="#CCC2BE"/>
<stop offset="1" stop-color="#CCC2BE"/>
</radialGradient>
<clipPath id="clip0">
<rect width="64" height="64" fill="white"/>
</clipPath>
</defs>
</svg>
