<svg width="64" height="64" viewBox="0 0 64 64" fill="none" xmlns="http://www.w3.org/2000/svg">
<path d="M8.698 10.4499C29.636 27.1519 52.729 35.7799 52.729 35.7799C57.617 13.1639 13.072 -0.662076 8.698 10.4499Z" fill="#D45309"/>
<path d="M8.69809 10.4499C8.72209 14.2309 6.90509 20.0989 7.11209 24.3439C7.35609 29.3039 6.89409 36.1389 6.89409 36.1389L5.97909 48.0419C4.86209 59.0129 4.26809 63.6769 6.63109 61.4639C7.88909 60.2859 9.78909 58.8599 9.78909 58.8599L21.9501 51.3549C21.9501 51.3549 26.9671 49.1019 29.2161 47.8479C30.9411 46.8859 33.3861 44.9459 37.0541 43.5089C39.9861 42.3599 41.7961 41.1069 44.3041 40.0129C49.4171 37.7809 50.9291 36.4409 52.7281 35.7809C51.6021 34.3019 50.8911 30.6169 49.4571 29.7159C48.0211 28.8129 46.4491 25.7819 45.2851 25.1989C43.3511 24.2329 43.2951 21.0019 41.1941 20.2109C39.1541 19.4409 38.2671 16.9489 34.8901 16.3269C32.9141 15.9639 31.4251 13.1979 27.6441 12.8679C25.7271 12.7009 26.9821 12.1929 21.8951 11.4659C20.2361 11.2279 19.4001 9.56988 16.6631 10.1119C15.1461 10.4099 13.8661 9.54088 11.5181 10.4559C10.1371 10.9969 9.09109 10.6609 8.69809 10.4499Z" fill="url(#paint0_linear)"/>
<path d="M29.8929 27.0051C33.6539 16.6151 51.5939 26.4951 44.7839 34.8111C37.9949 43.1021 26.2769 37.0011 29.8929 27.0051Z" fill="#D12A00"/>
<path d="M30.2711 27.2079C33.7991 17.4569 50.6321 26.7299 44.2421 34.5309C37.8741 42.3089 26.8771 36.5849 30.2711 27.2079Z" fill="url(#paint1_radial)"/>
<path d="M10.448 16.8799C16.383 6.9199 32.934 16.2119 25.748 24.9009C18.73 33.3829 5.00201 26.0189 10.448 16.8799Z" fill="#D12A00"/>
<path d="M10.8749 16.938C16.4869 7.51695 32.1459 16.306 25.3499 24.527C18.7079 32.55 5.72292 25.586 10.8749 16.938Z" fill="url(#paint2_radial)"/>
<path d="M14.0211 40.036C14.7431 30.728 29.6091 30.957 28.8881 40.265C28.1651 49.573 13.2991 49.343 14.0211 40.036Z" fill="#D12A00"/>
<path d="M14.5419 40.042C15.2269 31.226 29.3059 31.442 28.6219 40.259C27.9379 49.073 13.8589 48.858 14.5419 40.042Z" fill="url(#paint3_radial)"/>
<path d="M6.894 36.1399C13.157 38.1239 12.389 46.8869 5.979 48.0419L6.894 36.1399Z" fill="#D12A00"/>
<path d="M9.79003 58.8589C9.79003 58.8589 21.665 52.0009 21.951 51.3539C16.31 44.7549 5.20403 51.8639 9.79003 58.8589Z" fill="#D12A00"/>
<path d="M30.52 19.261C32.287 18.214 34.018 20.619 32.249 21.665C30.48 22.716 28.753 20.309 30.52 19.261Z" fill="#FFC85F"/>
<path d="M36.8541 19.248C38.4921 18.279 40.0911 20.507 38.4561 21.474C36.8211 22.442 35.2201 20.214 36.8541 19.248Z" fill="#FFC85F"/>
<path d="M28.4489 17.2101C29.6079 16.5241 30.7429 18.1021 29.5839 18.7921C28.4239 19.4791 27.2899 17.8981 28.4489 17.2101Z" fill="#FFC17A"/>
<path d="M48.4491 31.243C49.7781 30.456 51.0841 32.27 49.7481 33.057C48.4191 33.847 47.1141 32.035 48.4491 31.243Z" fill="#FFC85F"/>
<path d="M25.106 30.899C23.249 29.887 24.921 27.356 26.782 28.368C28.641 29.383 26.967 31.913 25.106 30.899Z" fill="#FFC85F"/>
<path d="M9.86407 13.0101C8.64407 12.3451 9.74407 10.6821 10.9641 11.3481C12.1841 12.0131 11.0841 13.6751 9.86407 13.0101Z" fill="#FFC85F"/>
<path d="M28.6271 24.487C27.7641 24.017 28.5411 22.843 29.4021 23.311C30.2681 23.785 29.4931 24.96 28.6271 24.487Z" fill="#FFC85F"/>
<path d="M11.756 34.431C12.568 33.153 14.679 34.259 13.864 35.536C13.054 36.812 10.944 35.706 11.756 34.431Z" fill="#FFC85F"/>
<path d="M31.3389 39.5261C32.2599 38.0751 34.6519 39.3291 33.7319 40.7761C32.8109 42.2261 30.4199 40.9721 31.3389 39.5261Z" fill="#FFC85F"/>
<path d="M9.25008 30.9291C10.1001 29.5921 12.3151 30.7531 11.4641 32.0921C10.6121 33.4321 8.39508 32.2711 9.25008 30.9291Z" fill="#FFC85F"/>
<path d="M29.4411 43.993C29.8691 43.319 30.9781 43.899 30.5501 44.573C30.1251 45.245 29.0131 44.663 29.4411 43.993Z" fill="#FFC85F"/>
<path d="M22.445 30.7611C22.995 29.8951 24.424 30.6471 23.877 31.5081C23.325 32.3761 21.892 31.6261 22.445 30.7611Z" fill="#FFC85F"/>
<path d="M16.2431 30.8711C16.6341 30.2591 17.6471 30.7881 17.2561 31.4011C16.8641 32.0141 15.8541 31.4821 16.2431 30.8711Z" fill="#FFC85F"/>
<path d="M11.7719 45.0121C12.5719 43.7561 14.6499 44.8411 13.8489 46.1011C13.0519 47.3561 10.9729 46.2691 11.7719 45.0121Z" fill="#FFC85F"/>
<path d="M7.00212 49.5171C7.59712 48.5811 9.14412 49.3941 8.54812 50.3281C7.95312 51.2631 6.40912 50.4551 7.00212 49.5171Z" fill="#FFC85F"/>
<path d="M8.69788 10.4499C12.6509 9.17594 15.1969 9.68094 16.7509 9.50194C20.1429 9.10694 23.2719 11.0909 26.0449 11.4649C29.1489 11.8799 29.7819 13.3019 33.5309 14.2859C34.9319 14.6529 37.8979 16.7989 40.4489 18.2869C42.3109 19.3739 43.4349 22.3509 45.3039 23.6219C47.4159 25.0599 48.2479 28.1339 49.9419 29.6389C51.7629 31.2579 52.2369 33.7879 52.7289 35.7799C52.7289 35.7799 59.8499 33.5379 58.9169 30.1719C53.3549 15.5479 43.2129 10.0509 38.0109 7.99494C33.7639 6.31594 22.1729 -0.355063 11.6769 2.86794C4.76588 6.00394 8.69788 10.4499 8.69788 10.4499Z" fill="url(#paint4_radial)"/>
<path d="M6.834 36.9441C6.016 42.1651 5.979 48.0421 5.979 48.0421C11.388 46.8791 12.635 38.9421 6.834 36.9441Z" fill="url(#paint5_radial)"/>
<path d="M10 58.569C10 58.569 16.051 54.159 21.615 51.465C16.086 45.085 6.12904 51.864 10 58.569Z" fill="url(#paint6_radial)"/>
<path opacity="0.1" d="M20.8901 23.125C19.0311 22.115 20.7041 19.583 22.5641 20.594C24.4231 21.609 22.7501 24.14 20.8901 23.125Z" fill="white"/>
<path opacity="0.1" d="M15.1009 18.0489C15.9129 16.7729 18.0199 17.8789 17.2089 19.1589C16.3979 20.4339 14.2899 19.3269 15.1009 18.0489Z" fill="white"/>
<path opacity="0.1" d="M13.3889 21.6361C14.2579 20.2711 16.5179 21.4541 15.6499 22.8231C14.7799 24.1921 12.5179 23.0071 13.3889 21.6361Z" fill="white"/>
<path opacity="0.3" d="M23.305 19.4589C23.696 18.8459 24.708 19.3759 24.319 19.9889C23.927 20.6029 22.914 20.0709 23.305 19.4589Z" fill="white"/>
<path opacity="0.3" d="M17.4429 21.966C17.8339 21.353 18.8459 21.883 18.4569 22.496C18.0649 23.109 17.0519 22.577 17.4429 21.966Z" fill="white"/>
<path opacity="0.3" d="M13.942 17.218C14.124 16.931 14.597 17.179 14.415 17.466C14.232 17.751 13.759 17.503 13.942 17.218Z" fill="white"/>
<path opacity="0.3" d="M23.461 16.2501C23.643 15.9631 24.116 16.2111 23.934 16.4971C23.751 16.7831 23.278 16.5351 23.461 16.2501Z" fill="white"/>
<path opacity="0.3" d="M20.3889 24.0269C20.5709 23.7399 21.0439 23.9879 20.8619 24.2739C20.6789 24.5609 20.2069 24.3129 20.3889 24.0269Z" fill="white"/>
<path opacity="0.3" d="M15.918 24.2781C16.1 23.9911 16.573 24.2391 16.391 24.5261C16.208 24.8121 15.736 24.5631 15.918 24.2781Z" fill="white"/>
<path opacity="0.3" d="M12.013 22.949C12.195 22.662 12.668 22.91 12.486 23.197C12.303 23.483 11.83 23.234 12.013 22.949Z" fill="white"/>
<path opacity="0.3" d="M14.6849 26.417C14.8669 26.13 15.3399 26.378 15.1579 26.664C14.9749 26.95 14.5019 26.702 14.6849 26.417Z" fill="white"/>
<path opacity="0.1" d="M10.1401 22.271C10.5311 21.658 11.5431 22.188 11.1541 22.801C10.7621 23.415 9.75009 22.882 10.1401 22.271Z" fill="white"/>
<path opacity="0.3" d="M14.4151 15.32C14.8061 14.707 15.8181 15.237 15.4291 15.85C15.0371 16.463 14.0241 15.931 14.4151 15.32Z" fill="white"/>
<path opacity="0.1" d="M18.969 14.1159C19.36 13.5029 20.372 14.0329 19.983 14.6459C19.591 15.2599 18.578 14.7279 18.969 14.1159Z" fill="white"/>
<path opacity="0.3" d="M19.1751 17.872C19.5661 17.259 20.5781 17.789 20.1891 18.402C19.7971 19.015 18.7841 18.483 19.1751 17.872Z" fill="white"/>
<path opacity="0.3" d="M21.9959 24.8349C22.3869 24.2219 23.3989 24.7519 23.0099 25.3649C22.6179 25.9789 21.6049 25.4469 21.9959 24.8349Z" fill="white"/>
<path opacity="0.3" d="M10.7031 19.6621C11.0941 19.0491 12.1061 19.5791 11.7171 20.1921C11.3251 20.8061 10.3131 20.2731 10.7031 19.6621Z" fill="white"/>
<path opacity="0.5" d="M11.6379 18.2009C12.0289 17.5879 13.0409 18.1179 12.6519 18.7309C12.2599 19.3439 11.2479 18.8119 11.6379 18.2009Z" fill="#990000"/>
<path opacity="0.5" d="M16.5201 14.403C16.9111 13.79 17.9231 14.32 17.5341 14.933C17.1421 15.547 16.1291 15.015 16.5201 14.403Z" fill="#990000"/>
<path opacity="0.5" d="M21.031 15.478C21.422 14.865 22.434 15.395 22.045 16.008C21.653 16.621 20.64 16.089 21.031 15.478Z" fill="#990000"/>
<path opacity="0.5" d="M21.6779 18.2009C22.0689 17.5879 23.0809 18.1179 22.6919 18.7309C22.2999 19.3439 21.2879 18.8119 21.6779 18.2009Z" fill="#990000"/>
<path opacity="0.5" d="M24.8431 18.3381C25.2341 17.7251 26.2461 18.2551 25.8571 18.8681C25.4651 19.4821 24.4521 18.9501 24.8431 18.3381Z" fill="#990000"/>
<path opacity="0.5" d="M24.4479 21.966C24.8389 21.353 25.8509 21.883 25.4619 22.496C25.0699 23.109 24.0579 22.577 24.4479 21.966Z" fill="#990000"/>
<path opacity="0.5" d="M18.968 25.0671C19.359 24.4541 20.371 24.9841 19.982 25.5971C19.59 26.2101 18.578 25.6791 18.968 25.0671Z" fill="#990000"/>
<path opacity="0.5" d="M17.1611 26.5251C17.5521 25.9121 18.5641 26.4421 18.1751 27.0551C17.7831 27.6681 16.7711 27.1361 17.1611 26.5251Z" fill="#990000"/>
<path opacity="0.5" d="M12.8279 24.914C13.2189 24.301 14.2309 24.831 13.8419 25.444C13.4499 26.058 12.4369 25.525 12.8279 24.914Z" fill="#990000"/>
<path opacity="0.5" d="M18.0261 20.229C18.4171 19.616 19.4291 20.146 19.0401 20.759C18.6481 21.372 17.6361 20.84 18.0261 20.229Z" fill="#990000"/>
<path opacity="0.5" d="M12.337 16.3291C12.728 15.7161 13.74 16.2461 13.351 16.8591C12.959 17.4721 11.946 16.9401 12.337 16.3291Z" fill="#990000"/>
<path opacity="0.1" d="M40.393 30.786C38.42 31.43 37.702 28.677 39.674 28.034C41.65 27.394 42.369 30.146 40.393 30.786Z" fill="white"/>
<path opacity="0.1" d="M31.9819 30.3151C31.5969 28.9491 33.8049 28.1951 34.1929 29.5641C34.5759 30.9291 32.3669 31.6831 31.9819 30.3151Z" fill="white"/>
<path opacity="0.1" d="M35.4631 34.562C35.0531 33.099 37.4181 32.29 37.8321 33.753C38.2441 35.217 35.8771 36.028 35.4631 34.562Z" fill="white"/>
<path opacity="0.3" d="M41.305 26.9721C41.121 26.3161 42.182 25.9521 42.367 26.6091C42.549 27.2661 41.488 27.6271 41.305 26.9721Z" fill="white"/>
<path opacity="0.3" d="M38.494 32.6C38.309 31.943 39.369 31.579 39.554 32.236C39.737 32.894 38.676 33.255 38.494 32.6Z" fill="white"/>
<path opacity="0.3" d="M35.811 28.6851C35.725 28.3781 36.219 28.2081 36.305 28.5151C36.391 28.8211 35.895 28.9911 35.811 28.6851Z" fill="white"/>
<path opacity="0.3" d="M34.0759 27.1681C33.9899 26.8611 34.4839 26.6921 34.5699 26.9991C34.6559 27.3061 34.1599 27.4741 34.0759 27.1681Z" fill="white"/>
<path opacity="0.3" d="M36.531 23.9191C36.445 23.6121 36.939 23.4441 37.025 23.7501C37.111 24.0581 36.615 24.2261 36.531 23.9191Z" fill="white"/>
<path opacity="0.3" d="M42.6899 28.4381C42.6039 28.1311 43.0979 27.9621 43.1849 28.2681C43.2709 28.5741 42.7749 28.7431 42.6899 28.4381Z" fill="white"/>
<path opacity="0.3" d="M37.408 35.9349C37.322 35.6279 37.816 35.4589 37.902 35.7659C37.988 36.0729 37.493 36.2409 37.408 35.9349Z" fill="white"/>
<path opacity="0.3" d="M34.7251 36.4791C34.6381 36.1731 35.1331 36.0031 35.2191 36.3091C35.3051 36.6161 34.8091 36.7851 34.7251 36.4791Z" fill="white"/>
<path opacity="0.3" d="M34.0139 33.9959C33.9279 33.6889 34.4219 33.52 34.5089 33.827C34.5939 34.134 34.0989 34.3019 34.0139 33.9959Z" fill="white"/>
<path opacity="0.3" d="M43.709 33.11C43.623 32.803 44.117 32.634 44.205 32.94C44.289 33.248 43.795 33.417 43.709 33.11Z" fill="white"/>
<path opacity="0.3" d="M30.625 28.4979C30.539 28.1909 31.033 28.0219 31.121 28.3279C31.205 28.6349 30.71 28.8039 30.625 28.4979Z" fill="white"/>
<path opacity="0.1" d="M30.3431 30.121C30.1571 29.464 31.2181 29.101 31.4021 29.757C31.5851 30.415 30.5251 30.776 30.3431 30.121Z" fill="white"/>
<path opacity="0.1" d="M32.8839 25.3051C32.6999 24.6471 33.7599 24.2841 33.9449 24.9411C34.1289 25.5991 33.0679 25.9611 32.8839 25.3051Z" fill="white"/>
<path opacity="0.3" d="M41.857 32.2589C41.671 31.6009 42.732 31.2379 42.917 31.8949C43.1 32.5519 42.039 32.9129 41.857 32.2589Z" fill="white"/>
<path opacity="0.3" d="M37.5931 24.986C37.4081 24.329 38.4691 23.966 38.6541 24.622C38.8371 25.279 37.7751 25.641 37.5931 24.986Z" fill="white"/>
<path opacity="0.3" d="M31.746 34.891C31.562 34.235 32.621 33.871 32.807 34.527C32.99 35.185 31.928 35.546 31.746 34.891Z" fill="white"/>
<path opacity="0.5" d="M34.8851 25.2829C34.7011 24.6259 35.7621 24.2629 35.9461 24.9189C36.1291 25.5759 35.0681 25.9379 34.8851 25.2829Z" fill="#990000"/>
<path opacity="0.5" d="M37.725 27.8019C37.541 27.1459 38.602 26.7819 38.786 27.4389C38.969 28.0959 37.908 28.4579 37.725 27.8019Z" fill="#990000"/>
<path opacity="0.5" d="M39.505 25.2819C39.32 24.6249 40.381 24.2619 40.566 24.9179C40.748 25.5759 39.688 25.9379 39.505 25.2819Z" fill="#990000"/>
<path opacity="0.5" d="M43.4271 29.816C43.2421 29.159 44.3021 28.795 44.4871 29.452C44.6711 30.109 43.6091 30.471 43.4271 29.816Z" fill="#990000"/>
<path opacity="0.5" d="M41.599 34.7421C41.414 34.0851 42.475 33.7211 42.66 34.3781C42.843 35.0361 41.781 35.3971 41.599 34.7421Z" fill="#990000"/>
<path opacity="0.5" d="M39.162 35.1671C38.978 34.5111 40.037 34.1461 40.223 34.8031C40.406 35.4601 39.345 35.8221 39.162 35.1671Z" fill="#990000"/>
<path opacity="0.5" d="M37.6451 36.9171C37.4601 36.2601 38.5201 35.8961 38.7061 36.5531C38.8891 37.2101 37.8271 37.5711 37.6451 36.9171Z" fill="#990000"/>
<path opacity="0.5" d="M35.4139 36.933C35.2299 36.277 36.2909 35.913 36.4759 36.57C36.6579 37.226 35.5979 37.588 35.4139 36.933Z" fill="#990000"/>
<path opacity="0.5" d="M36.1171 30.7971C35.9331 30.1401 36.9921 29.7771 37.1781 30.4331C37.3611 31.0911 36.3011 31.4521 36.1171 30.7971Z" fill="#990000"/>
<path opacity="0.5" d="M33.7931 32.372C33.6091 31.716 34.6681 31.352 34.8541 32.009C35.0371 32.666 33.9771 33.028 33.7931 32.372Z" fill="#990000"/>
<path opacity="0.5" d="M32.005 27.5099C31.821 26.8529 32.88 26.4889 33.066 27.1459C33.25 27.8029 32.189 28.1659 32.005 27.5099Z" fill="#990000"/>
<path opacity="0.5" d="M31.195 32.3329C31.011 31.6769 32.07 31.3129 32.256 31.9699C32.439 32.6269 31.377 32.9889 31.195 32.3329Z" fill="#990000"/>
<path opacity="0.3" d="M6.89697 43.065C6.81097 42.758 7.30497 42.588 7.39197 42.895C7.47797 43.202 6.98197 43.371 6.89697 43.065Z" fill="white"/>
<path opacity="0.3" d="M8.604 44.919C8.518 44.612 9.012 44.442 9.099 44.749C9.185 45.056 8.689 45.225 8.604 44.919Z" fill="white"/>
<path opacity="0.3" d="M9.24805 41.5089C9.16205 41.2019 9.65605 41.0339 9.74305 41.3409C9.82905 41.6469 9.33305 41.8149 9.24805 41.5089Z" fill="white"/>
<path opacity="0.1" d="M6.61611 44.8829C6.43211 44.2259 7.49111 43.8619 7.67611 44.5189C7.85911 45.1769 6.79811 45.5379 6.61611 44.8829Z" fill="white"/>
<path opacity="0.1" d="M7.96609 43.3141C7.62809 42.1101 9.57009 41.4441 9.90909 42.6471C10.2451 43.8511 8.30009 44.5151 7.96609 43.3141Z" fill="white"/>
<path opacity="0.3" d="M7.35408 38.3991C7.16908 37.7431 8.23008 37.3791 8.41508 38.0361C8.59808 38.6931 7.53708 39.0561 7.35408 38.3991Z" fill="white"/>
<path opacity="0.5" d="M7.78306 40.6259C7.59806 39.9699 8.65806 39.6059 8.84306 40.2629C9.02706 40.9209 7.96606 41.2819 7.78306 40.6259Z" fill="#990000"/>
<path opacity="0.5" d="M6.61611 46.8829C6.43211 46.2259 7.49111 45.8619 7.67711 46.5189C7.86011 47.1759 6.79911 47.5379 6.61611 46.8829Z" fill="#990000"/>
<path opacity="0.1" d="M19.123 40.8841C21.097 40.2431 21.811 42.9981 19.838 43.6381C17.86 44.2741 17.146 41.5211 19.123 40.8841Z" fill="white"/>
<path opacity="0.1" d="M24.64 41.423C25.022 42.79 22.814 43.54 22.428 42.171C22.046 40.806 24.257 40.056 24.64 41.423Z" fill="white"/>
<path opacity="0.1" d="M24.0781 36.1711C24.4861 37.6321 22.1201 38.4391 21.7081 36.9741C21.2971 35.5101 23.6671 34.7021 24.0781 36.1711Z" fill="white"/>
<path opacity="0.1" d="M19.661 44.7841C19.843 45.4401 18.783 45.8021 18.599 45.1451C18.417 44.4881 19.479 44.1281 19.661 44.7841Z" fill="white"/>
<path opacity="0.3" d="M26.9171 38.0371C27.0991 38.6941 26.0401 39.0561 25.8561 38.3981C25.6731 37.7411 26.7351 37.3821 26.9171 38.0371Z" fill="white"/>
<path opacity="0.3" d="M20.9931 45.472C21.0781 45.779 20.5841 45.947 20.4971 45.64C20.4131 45.333 20.9081 45.165 20.9931 45.472Z" fill="white"/>
<path opacity="0.3" d="M26.634 43.8241C26.719 44.1311 26.225 44.3001 26.139 43.9931C26.055 43.6861 26.55 43.5191 26.634 43.8241Z" fill="white"/>
<path opacity="0.3" d="M20.3739 39.911C20.4589 40.218 19.9649 40.387 19.8789 40.08C19.7939 39.772 20.2899 39.604 20.3739 39.911Z" fill="white"/>
<path opacity="0.3" d="M20.379 37.0641C20.465 37.3701 19.97 37.5401 19.884 37.2331C19.799 36.9261 20.295 36.7591 20.379 37.0641Z" fill="white"/>
<path opacity="0.3" d="M22.1989 34.6241C22.2839 34.9311 21.7899 35.1011 21.7029 34.7941C21.6189 34.4861 22.1139 34.3181 22.1989 34.6241Z" fill="white"/>
<path opacity="0.3" d="M24.4969 34.1851C24.5829 34.4911 24.0879 34.6601 24.0019 34.3531C23.9169 34.0461 24.4129 33.8771 24.4969 34.1851Z" fill="white"/>
<path opacity="0.3" d="M25.203 36.667C25.288 36.974 24.793 37.144 24.707 36.836C24.622 36.529 25.118 36.36 25.203 36.667Z" fill="white"/>
<path opacity="0.3" d="M25.717 40.065C25.803 40.372 25.308 40.541 25.222 40.235C25.138 39.927 25.633 39.759 25.717 40.065Z" fill="white"/>
<path opacity="0.3" d="M16.226 37.095C16.312 37.402 15.817 37.57 15.73 37.264C15.646 36.956 16.141 36.788 16.226 37.095Z" fill="white"/>
<path opacity="0.3" d="M27.358 41.712C27.444 42.019 26.949 42.189 26.863 41.882C26.778 41.574 27.274 41.406 27.358 41.712Z" fill="white"/>
<path opacity="0.3" d="M17.8739 38.93C18.0579 39.587 16.9969 39.949 16.8129 39.292C16.6309 38.635 17.6919 38.274 17.8739 38.93Z" fill="white"/>
<path opacity="0.3" d="M19.4579 34.8041C19.6399 35.4601 18.5799 35.8221 18.3959 35.1651C18.2139 34.5081 19.2759 34.1471 19.4579 34.8041Z" fill="white"/>
<path opacity="0.3" d="M24.228 38.5651C24.412 39.2221 23.351 39.5831 23.166 38.9261C22.985 38.2701 24.046 37.9091 24.228 38.5651Z" fill="white"/>
<path opacity="0.3" d="M17.4959 44.256C17.6799 44.913 16.6189 45.275 16.4349 44.618C16.2519 43.96 17.3129 43.6 17.4959 44.256Z" fill="white"/>
<path opacity="0.1" d="M16.7659 40.8489C16.9489 41.5059 15.8889 41.8679 15.7049 41.2109C15.5219 40.5529 16.5839 40.1919 16.7659 40.8489Z" fill="white"/>
<path opacity="0.5" d="M27.1669 36.3839C27.2899 36.8249 26.5779 37.0679 26.4549 36.6259C26.3329 36.1849 27.0449 35.9429 27.1669 36.3839Z" fill="#990000"/>
<path opacity="0.5" d="M28.0209 40.264C28.2039 40.921 27.1429 41.283 26.9589 40.626C26.7769 39.968 27.8379 39.608 28.0209 40.264Z" fill="#990000"/>
<path opacity="0.5" d="M24.7799 44.6281C24.9619 45.2841 23.9019 45.6461 23.7179 44.9891C23.5359 44.3321 24.5979 43.9721 24.7799 44.6281Z" fill="#990000"/>
<path opacity="0.5" d="M16.214 42.4149C16.397 43.0729 15.337 43.4339 15.153 42.7769C14.971 42.1189 16.033 41.7589 16.214 42.4149Z" fill="#990000"/>
<path opacity="0.5" d="M18.4689 36.9679C18.6519 37.6249 17.5919 37.9859 17.4069 37.3289C17.2259 36.6719 18.2869 36.3119 18.4689 36.9679Z" fill="#990000"/>
<path opacity="0.5" d="M20.7239 35.862C20.9069 36.518 19.8469 36.88 19.6629 36.223C19.4799 35.566 20.5429 35.206 20.7239 35.862Z" fill="#990000"/>
<path opacity="0.5" d="M23.807 34.38C23.99 35.036 22.93 35.398 22.745 34.741C22.563 34.083 23.625 33.724 23.807 34.38Z" fill="#990000"/>
<path opacity="0.5" d="M21.984 39.4579C22.168 40.1159 21.108 40.4759 20.923 39.8189C20.741 39.1619 21.803 38.8019 21.984 39.4579Z" fill="#990000"/>
<path opacity="0.5" d="M22.4821 43.7681C22.6651 44.4251 21.6051 44.7871 21.4201 44.1301C21.2381 43.4721 22.3001 43.1111 22.4821 43.7681Z" fill="#990000"/>
<path opacity="0.5" d="M26.7909 42.4349C26.9739 43.0909 25.9139 43.4529 25.7289 42.7959C25.5469 42.1379 26.6079 41.7779 26.7909 42.4349Z" fill="#990000"/>
<path opacity="0.1" d="M12.11 53.451C14.084 52.811 14.798 55.565 12.825 56.205C10.848 56.842 10.134 54.089 12.11 53.451Z" fill="white"/>
<path opacity="0.1" d="M17.935 51.479C18.343 52.942 15.977 53.749 15.565 52.284C15.154 50.819 17.523 50.013 17.935 51.479Z" fill="white"/>
<path opacity="0.3" d="M16.6411 50.0001C16.7261 50.3071 16.2321 50.4761 16.1451 50.1691C16.0611 49.8621 16.5561 49.6941 16.6411 50.0001Z" fill="white"/>
<path opacity="0.3" d="M19.0121 49.9229C19.0981 50.2299 18.6031 50.3979 18.5171 50.0919C18.4321 49.7839 18.9281 49.6159 19.0121 49.9229Z" fill="white"/>
<path opacity="0.3" d="M19.0119 52.042C19.0969 52.35 18.6019 52.519 18.5159 52.212C18.4319 51.905 18.9279 51.736 19.0119 52.042Z" fill="white"/>
<path opacity="0.3" d="M9.86899 55.5501C9.95499 55.8571 9.45999 56.0261 9.37399 55.7191C9.28799 55.4111 9.78399 55.2431 9.86899 55.5501Z" fill="white"/>
<path opacity="0.1" d="M12.9979 51.9459C13.1799 52.6019 12.1199 52.9639 11.9359 52.3069C11.7529 51.6499 12.8149 51.2899 12.9979 51.9459Z" fill="white"/>
<path opacity="0.3" d="M15.285 52.933C15.416 53.413 14.69 53.665 14.557 53.185C14.428 52.704 15.154 52.452 15.285 52.933Z" fill="white"/>
<path opacity="0.5" d="M20.442 50.9049C20.625 51.5619 19.565 51.9239 19.381 51.2659C19.198 50.6099 20.261 50.2489 20.442 50.9049Z" fill="#990000"/>
<path opacity="0.5" d="M11.1781 52.4339C11.3611 53.0909 10.3011 53.4529 10.1161 52.7959C9.93411 52.1379 10.9961 51.7779 11.1781 52.4339Z" fill="#990000"/>
<path opacity="0.5" d="M14.7711 50.5209C14.9541 51.1779 13.8941 51.5399 13.7101 50.8829C13.5271 50.2259 14.5891 49.8659 14.7711 50.5209Z" fill="#990000"/>
<path opacity="0.5" d="M18.2489 49.755C18.4319 50.411 17.3719 50.773 17.1869 50.116C17.0049 49.459 18.0669 49.099 18.2489 49.755Z" fill="#990000"/>
<path d="M37.5211 41.8919C36.0011 41.6379 36.2671 39.3229 37.7891 39.5739C39.3131 39.8319 39.0471 42.1469 37.5211 41.8919Z" fill="#FFC17A"/>
<path d="M23.399 49.4681C21.879 49.2141 22.145 46.9001 23.667 47.1531C25.19 47.4071 24.922 49.7231 23.399 49.4681Z" fill="#FFC17A"/>
<path d="M9.42903 35.651C8.69303 35.526 8.82203 34.403 9.56003 34.526C10.297 34.65 10.168 35.773 9.42903 35.651Z" fill="#FFC17A"/>
<path d="M6.47103 55.55C5.73403 55.426 5.86403 54.303 6.60103 54.425C7.33903 54.55 7.20903 55.672 6.47103 55.55Z" fill="#FFC17A"/>
<path d="M9.39293 28.5551C8.24593 28.3611 8.44694 26.6141 9.59494 26.8051C10.7459 26.9991 10.5439 28.7481 9.39293 28.5551Z" fill="#FFC17A"/>
<path d="M15.6871 33.487C14.5411 33.293 14.7421 31.546 15.8891 31.737C17.0401 31.932 16.8391 33.681 15.6871 33.487Z" fill="#FFC17A"/>
<path d="M34.386 18.7709C33.556 18.6309 33.702 17.3659 34.533 17.5019C35.365 17.6449 35.22 18.9099 34.386 18.7709Z" fill="#FFC17A"/>
<path d="M28.1171 16.1819C26.5961 15.9249 26.8621 13.6099 28.3851 13.8639C29.9071 14.1219 29.6401 16.4369 28.1171 16.1819Z" fill="#FFC85F"/>
<path d="M13.49 12.2459C12.452 12.0699 12.635 10.4859 13.674 10.6589C14.716 10.8349 14.534 12.4199 13.49 12.2459Z" fill="#FFC17A"/>
<path d="M47.7991 35.771C46.7651 35.595 46.9451 34.021 47.9811 34.195C49.0171 34.369 48.8341 35.941 47.7991 35.771Z" fill="#FFC17A"/>
<path d="M28.015 34.1189C27.194 33.9809 27.337 32.7309 28.16 32.8679C28.983 33.0049 28.837 34.2569 28.015 34.1189Z" fill="#FFC17A"/>
<defs>
<linearGradient id="paint0_linear" x1="-1.38329" y1="55.1074" x2="37.4449" y2="16.153" gradientUnits="userSpaceOnUse">
<stop stop-color="#FFDC91"/>
<stop offset="1" stop-color="#FFD06B"/>
</linearGradient>
<radialGradient id="paint1_radial" cx="0" cy="0" r="1" gradientUnits="userSpaceOnUse" gradientTransform="translate(37.3754 30.7825) rotate(26.9083) scale(7.80004 7.22354)">
<stop offset="0.6364" stop-color="#B50000"/>
<stop offset="0.7087" stop-color="#B90804"/>
<stop offset="0.8183" stop-color="#C31D0E"/>
<stop offset="0.951" stop-color="#D43F20"/>
<stop offset="1" stop-color="#DB4D27"/>
</radialGradient>
<radialGradient id="paint2_radial" cx="0" cy="0" r="1" gradientUnits="userSpaceOnUse" gradientTransform="translate(18.2684 20.5914) rotate(4.98538) scale(8.18056 7.30008)">
<stop offset="0.6364" stop-color="#B50000"/>
<stop offset="0.7087" stop-color="#B90804"/>
<stop offset="0.8183" stop-color="#C31D0E"/>
<stop offset="0.951" stop-color="#D43F20"/>
<stop offset="1" stop-color="#DB4D27"/>
</radialGradient>
<radialGradient id="paint3_radial" cx="0" cy="0" r="1" gradientUnits="userSpaceOnUse" gradientTransform="translate(21.5813 40.1478) rotate(-27.5132) scale(6.93138 6.38208)">
<stop offset="0.6364" stop-color="#B50000"/>
<stop offset="0.7087" stop-color="#B90804"/>
<stop offset="0.8183" stop-color="#C31D0E"/>
<stop offset="0.951" stop-color="#D43F20"/>
<stop offset="1" stop-color="#DB4D27"/>
</radialGradient>
<radialGradient id="paint4_radial" cx="0" cy="0" r="1" gradientUnits="userSpaceOnUse" gradientTransform="translate(32.8276 20.702) rotate(28.6463) scale(40.1457 14.282)">
<stop offset="0.4" stop-color="#B55923"/>
<stop offset="0.5065" stop-color="#CE7633"/>
<stop offset="0.6719" stop-color="#F29F49"/>
<stop offset="0.7576" stop-color="#FFAE52"/>
</radialGradient>
<radialGradient id="paint5_radial" cx="0" cy="0" r="1" gradientUnits="userSpaceOnUse" gradientTransform="translate(6.063 42.2125) scale(4.2515 5.25996)">
<stop offset="0.6364" stop-color="#B50000"/>
<stop offset="0.7087" stop-color="#B90804"/>
<stop offset="0.8183" stop-color="#C31D0E"/>
<stop offset="0.951" stop-color="#D43F20"/>
<stop offset="1" stop-color="#DB4D27"/>
</radialGradient>
<radialGradient id="paint6_radial" cx="0" cy="0" r="1" gradientUnits="userSpaceOnUse" gradientTransform="translate(15.7796 55.2086) rotate(60.4134) scale(5.70508 6.31647)">
<stop offset="0.6364" stop-color="#B50000"/>
<stop offset="0.7087" stop-color="#B90804"/>
<stop offset="0.8183" stop-color="#C31D0E"/>
<stop offset="0.951" stop-color="#D43F20"/>
<stop offset="1" stop-color="#DB4D27"/>
</radialGradient>
</defs>
</svg>
