<svg width="64" height="64" viewBox="0 0 64 64" fill="none" xmlns="http://www.w3.org/2000/svg">
<path d="M45.3415 42.2589L42.2612 45.3374L45.0598 48.1376L48.1401 45.0591L45.3415 42.2589Z" fill="#99A8AE"/>
<path d="M47.463 43.7639L43.762 47.4639C50.862 52.9369 54.289 60.9549 58.205 61.9049C60.486 62.4599 62.461 60.4859 61.906 58.2059C60.955 54.2879 52.937 50.8599 47.463 43.7639ZM60.283 58.6689C60.293 59.2639 59.264 60.2919 58.668 60.2829C57.222 60.2599 54.508 56.4989 54.57 55.8449C54.609 55.4329 55.434 54.6089 55.845 54.5709C56.498 54.5089 60.261 57.2209 60.283 58.6689Z" fill="#302C3B"/>
<path d="M26.999 52.001C40.8061 52.001 51.999 40.8081 51.999 27.001C51.999 13.1939 40.8061 2.00098 26.999 2.00098C13.1919 2.00098 1.99902 13.1939 1.99902 27.001C1.99902 40.8081 13.1919 52.001 26.999 52.001Z" fill="#4E5E67"/>
<path d="M26.999 51.0399C40.2753 51.0399 51.038 40.2773 51.038 27.0009C51.038 13.7245 40.2753 2.96191 26.999 2.96191C13.7226 2.96191 2.95996 13.7245 2.95996 27.0009C2.95996 40.2773 13.7226 51.0399 26.999 51.0399Z" fill="url(#paint0_radial)"/>
<path d="M34.0121 14.467C25.7321 15.041 24.0451 9.40802 16.8151 14.244C13.4211 16.514 14.3351 20.795 12.4891 25.999C9.3481 34.841 15.8611 39.978 23.5651 41.532C30.4141 42.914 32.7771 36.714 39.3481 33.386C44.6071 30.722 42.9201 13.847 34.0121 14.467Z" fill="url(#paint1_radial)"/>
<path d="M24.417 35.5191C28.5707 35.5191 31.938 32.1518 31.938 27.9981C31.938 23.8443 28.5707 20.4771 24.417 20.4771C20.2633 20.4771 16.896 23.8443 16.896 27.9981C16.896 32.1518 20.2633 35.5191 24.417 35.5191Z" fill="url(#paint2_radial)"/>
<path opacity="0.6" d="M28.779 23.4759C33.483 28.7199 15.353 28.7219 20.056 23.4759C22.142 21.1459 26.691 21.1469 28.779 23.4759Z" fill="url(#paint3_linear)"/>
<defs>
<radialGradient id="paint0_radial" cx="0" cy="0" r="1" gradientUnits="userSpaceOnUse" gradientTransform="translate(26.9995 27.0001) scale(25.87)">
<stop offset="0.5273" stop-color="#4E5E67"/>
<stop offset="0.6034" stop-color="#4B5862"/>
<stop offset="0.7016" stop-color="#414854"/>
<stop offset="0.8115" stop-color="#312E3D"/>
<stop offset="0.8182" stop-color="#302C3B"/>
</radialGradient>
<radialGradient id="paint1_radial" cx="0" cy="0" r="1" gradientUnits="userSpaceOnUse" gradientTransform="translate(27.0006 26.9989) scale(15.0283)">
<stop offset="0.6788" stop-color="white"/>
<stop offset="0.7933" stop-color="#F4F6F6"/>
<stop offset="0.9636" stop-color="#DCE1E3"/>
</radialGradient>
<radialGradient id="paint2_radial" cx="0" cy="0" r="1" gradientUnits="userSpaceOnUse" gradientTransform="translate(22.7458 26.2226) scale(8.46106)">
<stop offset="0.4848" stop-color="#F5C001"/>
<stop offset="0.6957" stop-color="#F4B905"/>
<stop offset="0.9994" stop-color="#F0A611"/>
<stop offset="1" stop-color="#F0A611"/>
</radialGradient>
<linearGradient id="paint3_linear" x1="24.4175" y1="27.4096" x2="24.4175" y2="21.7289" gradientUnits="userSpaceOnUse">
<stop stop-color="white" stop-opacity="0"/>
<stop offset="1" stop-color="white"/>
</linearGradient>
</defs>
</svg>
