<svg width="64" height="64" viewBox="0 0 64 64" fill="none" xmlns="http://www.w3.org/2000/svg">
<path d="M60.033 49.11C60.033 60.64 49.82 61 32 61C14.179 61 3.96704 60.64 3.96704 49.11C3.96704 46.145 60.033 46.145 60.033 49.11Z" fill="url(#paint0_radial)"/>
<path d="M60.033 49.11C60.033 60.64 49.82 61 32 61C14.179 61 3.96704 60.64 3.96704 49.11C3.96704 46.145 60.033 46.145 60.033 49.11Z" fill="url(#paint1_linear)"/>
<path d="M5.06699 50.4149C2.12499 48.1669 2.16699 39.8969 6.20799 38.3899C13.898 35.5189 47.958 34.5149 58.521 39.6639C62.363 41.5359 61.997 52.4159 55.606 51.1029C54.379 51.5689 51.501 51.7619 49.823 51.5279C46.278 52.3249 40.841 52.4069 39.135 51.9529C39.135 51.9529 35.286 52.5849 32.062 51.9739C27.072 52.5459 24.002 52.0439 24.002 52.0439C18.881 52.7129 14.679 51.4229 14.679 51.4229C14.679 51.4229 11.595 51.7239 9.14999 51.1319C7.32299 51.1029 6.34799 51.3939 5.06699 50.4149Z" fill="url(#paint2_radial)"/>
<path opacity="0.3" d="M40.2949 42.7959C39.6229 39.9659 43.8669 42.1099 43.5499 44.2009C43.3979 45.2019 41.4179 47.5189 40.2949 42.7959Z" fill="#6B3924"/>
<path opacity="0.3" d="M50.7209 44.2101C50.6329 40.7181 55.5719 41.1241 55.9309 42.8141C56.4949 45.4651 50.7809 46.6621 50.7209 44.2101Z" fill="#6B3924"/>
<path opacity="0.3" d="M10.2019 44.2279C7.54993 43.9839 7.17093 40.0889 9.11993 40.1489C13.7349 40.2869 11.1309 44.3149 10.2019 44.2279Z" fill="#6B3924"/>
<path opacity="0.3" d="M6.36491 43.1181C5.15791 43.0071 4.98391 41.2321 5.87491 41.2591C7.97391 41.3221 6.78891 43.1571 6.36491 43.1181Z" fill="#6B3924"/>
<path opacity="0.3" d="M11.5829 44.546C11.7539 43.013 13.1519 42.917 13.0669 44.046C12.8709 46.72 11.5209 45.082 11.5829 44.546Z" fill="#6B3924"/>
<path opacity="0.2" d="M10.8369 48.9349C11.0069 47.4019 12.4019 47.3059 12.3199 48.4359C12.1249 51.1079 10.7769 49.4719 10.8369 48.9349Z" fill="#170700"/>
<path opacity="0.3" d="M16.5781 45.933C16.7481 44.401 18.1441 44.304 18.0611 45.435C17.8641 48.108 16.5151 46.47 16.5781 45.933Z" fill="#6B3924"/>
<path opacity="0.2" d="M17.4671 49.143C17.6381 47.611 20.2811 47.65 20.1991 48.781C20.0011 51.453 17.4071 49.679 17.4671 49.143Z" fill="#170700"/>
<path opacity="0.2" d="M4.84802 47.058C5.01902 45.526 6.41502 45.429 6.33102 46.56C6.13602 49.233 4.78602 47.595 4.84802 47.058Z" fill="#170700"/>
<path opacity="0.3" d="M44.8579 44.5751C45.0769 42.5491 46.9619 42.4371 46.8589 43.9321C46.6129 47.4711 44.7799 45.2861 44.8579 44.5751Z" fill="#6B3924"/>
<path opacity="0.2" d="M35.805 49.816C36.024 47.79 37.909 47.678 37.805 49.173C37.56 52.712 35.726 50.527 35.805 49.816Z" fill="#170700"/>
<path opacity="0.3" d="M38.308 45.667C38.48 44.136 39.876 44.038 39.793 45.169C39.597 47.843 38.245 46.204 38.308 45.667Z" fill="#6B3924"/>
<path opacity="0.3" d="M57.366 43.5711C57.537 42.0401 58.935 41.9421 58.851 43.0731C58.655 45.7471 57.305 44.1081 57.366 43.5711Z" fill="#6B3924"/>
<path opacity="0.2" d="M53.5631 48.294C53.7361 46.763 55.1311 46.665 55.0491 47.796C54.8541 50.471 53.5051 48.831 53.5631 48.294Z" fill="#170700"/>
<path opacity="0.3" d="M30.2059 45.6081C28.8329 43.1231 31.6849 40.7951 32.9409 42.5701C35.9059 46.7711 30.6869 46.4781 30.2059 45.6081Z" fill="#6B3924"/>
<path opacity="0.3" d="M16.23 42.7201C16.812 44.7501 14.172 45.8981 13.791 44.1781C12.435 38.0891 16.029 42.0071 16.23 42.7201Z" fill="#6B3924"/>
<path opacity="0.2" d="M29.7589 48.401C30.3399 50.43 27.7009 51.579 27.3189 49.858C25.9629 43.771 29.5559 47.688 29.7589 48.401Z" fill="#170700"/>
<path opacity="0.3" d="M37.2889 44.412C38.3219 47.425 34.2579 45.986 34.1489 43.409C34.0309 40.653 35.5739 39.386 37.2889 44.412Z" fill="#6B3924"/>
<path opacity="0.2" d="M47.2351 49.626C45.4311 52.233 44.2031 51.2 44.0951 48.624C43.9761 45.866 49.0421 47.017 47.2351 49.626Z" fill="#170700"/>
<path opacity="0.3" d="M20.9661 44.1339C22.2061 46.8739 19.3411 46.1809 18.7741 43.7039C18.1671 41.0549 18.9031 39.5629 20.9661 44.1339Z" fill="#6B3924"/>
<path opacity="0.2" d="M8.91 50.5251C9.432 50.9731 7.645 47.1131 7.627 42.8151C7.616 40.0941 5.149 47.2901 8.91 50.5251Z" fill="#170700"/>
<path opacity="0.2" d="M15.0629 50.687C15.5619 50.868 13.8009 48.647 13.7049 45.687C13.6439 43.812 11.4389 49.389 15.0629 50.687Z" fill="#170700"/>
<path opacity="0.2" d="M23.964 51.484C24.466 51.665 22.702 49.444 22.608 46.484C22.547 44.609 20.343 50.187 23.964 51.484Z" fill="#170700"/>
<path opacity="0.2" d="M32.401 51.33C31.879 51.425 33.97 49.524 34.534 46.62C34.892 44.779 36.182 50.647 32.401 51.33Z" fill="#170700"/>
<path opacity="0.2" d="M39.2609 51.719C38.7209 51.81 40.8219 49.681 41.3009 46.323C41.6009 44.197 43.1619 51.071 39.2609 51.719Z" fill="#170700"/>
<path opacity="0.2" d="M49.6411 51.1621C49.2001 51.3031 50.5431 48.9771 50.2381 45.5731C50.0461 43.4181 52.8431 50.1541 49.6411 51.1621Z" fill="#170700"/>
<path opacity="0.2" d="M55.5619 50.7261C54.9859 50.9191 56.8399 48.0801 56.6349 44.0521C56.5069 41.5031 59.7189 49.3451 55.5619 50.7261Z" fill="#170700"/>
<path opacity="0.3" d="M49.497 44.577C48.81 47.616 47.214 44.496 48.221 42.258C49.297 39.862 50.648 39.508 49.497 44.577Z" fill="#6B3924"/>
<path d="M16.518 39.8759C20.274 41.4499 25.05 48.3889 25.811 47.2389C28.048 43.8479 29.813 41.4099 33.284 40.0459C47.359 34.5109 62.664 43.2879 60.762 40.4899C57.014 34.9789 48.454 33.0769 30.285 33.0769C2.81501 33.0769 2.26501 39.3089 3.38301 39.6219C4.45901 39.9249 7.17401 35.9599 16.518 39.8759Z" fill="url(#paint3_radial)"/>
<path d="M34.0689 36.0909C32.3529 37.7429 7.35889 38.5949 5.12889 37.0929C4.19989 36.4679 4.11689 34.0639 4.99989 33.3759C6.33889 32.3329 33.1119 31.6789 33.9429 32.3739C34.7709 33.0689 34.8489 35.3409 34.0689 36.0909Z" fill="url(#paint4_radial)"/>
<path d="M33.942 32.3739C35.773 33.7789 3.04804 35.2059 5.00004 33.3759C7.16404 31.3499 30.887 30.0279 33.942 32.3739Z" fill="#A80000"/>
<path d="M60.0909 38.1259C58.1809 39.3879 33.8099 36.4519 31.8689 34.7389C31.0609 34.0239 31.3399 31.8009 32.2989 31.2999C33.7539 30.5399 59.8189 33.9229 60.5229 34.6869C61.2229 35.4499 60.9609 37.5519 60.0909 38.1259Z" fill="url(#paint5_radial)"/>
<path d="M60.522 34.6869C62.088 36.2529 30.132 32.6929 32.298 31.2999C34.698 29.7569 57.906 32.0739 60.522 34.6869Z" fill="#A80000"/>
<path d="M3.23008 33.6061C4.87208 34.9811 25.6571 32.1081 27.2981 30.2931C27.4541 30.1211 27.5781 28.4351 27.2601 28.2221C26.0121 27.3901 3.78408 30.7231 3.19008 31.5341C3.00508 31.7901 3.06808 33.4701 3.23008 33.6061Z" fill="url(#paint6_radial)"/>
<path d="M3.18998 31.535C1.86698 33.197 29.124 29.742 27.26 28.223C25.197 26.542 5.40098 28.763 3.18998 31.535Z" fill="#A30088"/>
<path d="M40.96 31.2249C41.707 32.8779 58.239 34.8129 60.099 33.4809C60.276 33.3559 60.955 31.8059 60.793 31.5359C60.151 30.4809 42.381 28.6519 41.654 29.2789C41.427 29.4759 40.886 31.0629 40.96 31.2249Z" fill="url(#paint7_radial)"/>
<path d="M41.6541 29.2799C40.0831 30.5399 61.6561 33.3709 60.7931 31.5369C59.8391 29.5049 44.2741 27.1789 41.6541 29.2799Z" fill="#A30088"/>
<path d="M20.7589 32.2071C22.3419 33.6481 43.2289 31.6201 44.9459 29.8731C45.1089 29.7071 45.3009 28.0291 44.9929 27.8021C43.7799 26.9211 21.4349 29.3491 20.8049 30.1361C20.6099 30.3821 20.6039 32.0641 20.7589 32.2071Z" fill="url(#paint8_radial)"/>
<path d="M20.805 30.136C19.413 31.743 46.791 29.394 44.993 27.802C43.001 26.039 23.129 27.455 20.805 30.136Z" fill="#A30088"/>
<path d="M3.59902 26.9239C1.74502 23.6779 4.66102 23.6899 6.01902 25.0489C6.32802 22.9979 9.20102 21.4109 10.489 25.2109C12.19 24.7429 16.547 23.4839 14.212 27.1819C15.097 28.3439 15.888 30.5649 11.516 29.3549C11.701 31.0349 7.75102 31.0209 7.66202 28.2709C6.78002 29.7969 2.23002 28.8629 3.59902 26.9239Z" fill="url(#paint9_linear)"/>
<path d="M20.5739 22.8571C25.2289 21.8911 24.8419 24.0301 22.8189 24.8591C25.5719 25.3351 27.3669 27.6301 22.0339 28.1141C22.4579 29.4191 23.9229 31.2111 19.1849 29.0511C18.7129 29.9961 14.9739 31.0921 15.2419 28.7561C12.9329 28.6891 14.4749 25.4051 18.2279 25.6711C16.2619 24.8411 18.1109 21.6201 20.5739 22.8571Z" fill="url(#paint10_linear)"/>
<path d="M27.156 25.853C30.291 26.659 31.794 28.888 30.225 28.77C31.548 29.84 28.598 30.543 25.32 29.266C24.9 30.131 23.919 31.907 22.32 29.302C21.102 29.099 19.111 28.829 21.911 27.731C20.635 27.02 22.397 25.525 24.395 26.77C23.698 25.727 26.383 24.433 27.156 25.853Z" fill="url(#paint11_linear)"/>
<path d="M27.1619 26.9589C25.3729 24.5199 28.2809 24.4819 29.6109 25.4939C29.9579 23.9299 32.8519 22.6769 34.0639 25.5459C35.7719 25.1619 40.1399 24.1359 37.7419 26.9859C38.6019 27.8549 39.3489 29.5309 35.0139 28.6819C35.1649 29.9549 31.2239 30.0089 31.1869 27.9189C30.2799 29.0939 25.7579 28.4549 27.1619 26.9589Z" fill="url(#paint12_linear)"/>
<path d="M58.88 24.777C61.138 24.531 61.925 26.251 59.575 27.17C60.409 27.977 62.604 30.028 58.186 29.53C57.115 30.229 54.394 30.446 54.84 27.897C53.076 28.329 48.033 25.129 50.961 24.535C49.156 24.373 60.072 23.79 58.88 24.777Z" fill="url(#paint13_linear)"/>
<path d="M47.9619 24.376C50.8159 24.812 52.6759 26.925 47.1469 27.371C47.5849 28.573 49.1589 31.459 44.2479 29.474C42.4939 29.942 38.8859 30.418 41.1669 27.603C38.7739 27.541 39.3109 24.878 43.2019 25.123C41.1659 24.361 50.0579 23.612 47.9619 24.376Z" fill="url(#paint14_linear)"/>
<path d="M60.033 22.642C60.033 27.455 51 25.642 32 25.642C12.997 25.642 3.96704 27.454 3.96704 22.642C3.96704 10.131 16.516 3.44604 32 3.44604C47.482 3.44604 60.033 10.131 60.033 22.642Z" fill="url(#paint15_radial)"/>
<path d="M60.033 22.642C60.033 27.455 51 25.642 32 25.642C12.997 25.642 3.96704 27.454 3.96704 22.642C3.96704 10.131 16.516 3.44604 32 3.44604C47.482 3.44604 60.033 10.131 60.033 22.642Z" fill="url(#paint16_linear)"/>
<path d="M33.3319 3.40098C33.4389 4.16698 32.1169 3.91298 31.6279 3.47598C31.8859 3.06198 33.2349 2.68798 33.3319 3.40098Z" fill="#FFCF9E"/>
<path d="M23.6871 10.1529C23.0071 10.8939 22.0841 9.62089 22.0911 8.85689C22.7371 8.70789 24.3171 9.46289 23.6871 10.1529Z" fill="#FFCF9E"/>
<path d="M32.871 8.53599C32.412 7.66199 34.063 7.42399 34.825 7.74599C34.707 8.34699 33.301 9.34199 32.871 8.53599Z" fill="#FFEDD1"/>
<path d="M20.5201 4.86491C20.3831 4.05191 22.0111 4.31191 22.6131 4.77291C22.2961 5.21391 20.6461 5.61891 20.5201 4.86491Z" fill="#FFCF9E"/>
<path d="M15.358 12.9819C14.475 12.4129 15.746 11.4799 16.577 11.4319C16.812 12.0129 16.179 13.5079 15.358 12.9819Z" fill="#FFCF9E"/>
<path d="M54.6341 10.681C53.9871 11.511 53.0421 10.329 53.0271 9.55605C53.6591 9.32905 55.2351 9.91005 54.6341 10.681Z" fill="#FFCF9E"/>
<path d="M50.6589 15.628C50.0809 16.483 49.0729 15.292 49.0049 14.503C49.6109 14.265 51.1929 14.837 50.6589 15.628Z" fill="#FFEDD1"/>
<path d="M11.8241 8.92105C11.1461 8.10805 12.6811 7.65505 13.4991 7.87705C13.5441 8.49405 12.4531 9.67305 11.8241 8.92105Z" fill="#FFCF9E"/>
<path d="M37.888 14.6509C37.063 14.9379 37.046 13.7739 37.421 13.2539C37.94 13.3599 38.657 14.3819 37.888 14.6509Z" fill="#FFEDD1"/>
<path d="M42.5931 5.63811C42.9541 4.90711 43.9331 5.77711 44.0941 6.40511C43.6301 6.64511 42.2611 6.31711 42.5931 5.63811Z" fill="#FFEDD1"/>
<path d="M30.648 15.554C31.493 15.753 30.794 16.808 30.172 17.069C29.819 16.687 29.865 15.371 30.648 15.554Z" fill="#FFCF9E"/>
<path d="M44.8129 10.6281C44.4649 11.3871 43.4899 10.5511 43.3259 9.92409C43.7809 9.65909 45.1369 9.92409 44.8129 10.6281Z" fill="#FFCF9E"/>
<path d="M20.2169 16.0879C19.5269 15.5879 20.6079 14.8819 21.2859 14.8779C21.4499 15.3609 20.8639 16.5499 20.2169 16.0879Z" fill="#FFEDD1"/>
<path d="M7.86091 13.8941C7.95891 13.0691 9.14691 13.5931 9.50191 14.1441C9.14491 14.5261 7.77091 14.6551 7.86091 13.8941Z" fill="#FFCF9E"/>
<path d="M26.4969 29.3651C27.0989 30.6661 29.9249 29.6851 29.3529 28.7221C31.1989 29.9401 33.1309 28.7261 31.9409 28.0221C34.8589 27.2211 33.0219 26.4571 31.8319 26.2031C31.0179 24.9201 29.2509 25.7201 28.7279 26.4591C25.6159 25.1341 25.2559 26.7401 26.4489 27.7661C24.8989 27.5681 23.4689 28.4641 26.4969 29.3651Z" fill="url(#paint17_radial)"/>
<path d="M43.5091 27.356C44.3311 29.859 42.1211 29.581 41.3351 28.478C40.7321 29.923 38.2681 30.795 37.9721 27.947C36.5961 28.125 32.9191 29.202 35.3571 26.765C34.8921 25.849 34.8111 24.755 37.9101 26.029C38.0731 24.807 42.0151 24.433 41.5901 26.417C42.5321 25.402 44.8961 26.092 43.5091 27.356Z" fill="url(#paint18_radial)"/>
<path d="M59.3821 29.045C60.2051 31.548 57.9921 31.27 57.2091 30.167C56.6051 31.612 54.1401 32.484 53.8471 29.636C52.4701 29.814 48.9371 30.312 51.3761 27.874C50.9121 26.958 50.7101 25.289 53.8111 26.563C53.9721 25.34 56.9681 25.717 56.5421 27.702C57.4851 26.687 60.7701 27.781 59.3821 29.045Z" fill="url(#paint19_radial)"/>
<path d="M51.3401 25.848C54.4751 26.562 53.1721 27.541 51.6021 27.438C52.9251 28.387 53.0571 30.449 49.7791 29.316C49.3591 30.084 48.0471 31.6311 46.4481 29.3181C45.2281 29.1381 43.2961 28.489 46.0951 27.514C44.8191 26.884 46.5791 25.557 48.5791 26.661C47.8821 25.735 50.5671 24.587 51.3401 25.848Z" fill="url(#paint20_radial)"/>
<path d="M5.99005 30.3809C6.59205 31.8479 9.52005 31.3439 8.95205 30.2569C10.7971 31.6319 13.2631 30.3269 12.0741 29.5329C14.9931 28.6289 12.6191 27.7039 11.4291 27.4199C10.1451 24.7159 8.84805 26.8749 8.32505 27.7079C5.21305 26.2139 4.52305 27.6329 5.71805 28.7899C4.16705 28.5659 3.36605 30.0129 5.99005 30.3809Z" fill="url(#paint21_radial)"/>
<path d="M21.187 27.5361C22.01 30.3581 18.564 30.3351 17.781 29.0931C17.177 30.7191 14.713 31.7031 14.418 28.4931C13.041 28.6941 8.79498 29.7931 11.233 27.0461C10.769 26.0131 11.29 24.9581 14.389 26.3931C14.551 25.0161 18.89 24.6421 18.464 26.8771C19.408 25.7351 22.575 26.1121 21.187 27.5361Z" fill="url(#paint22_radial)"/>
<defs>
<radialGradient id="paint0_radial" cx="0" cy="0" r="1" gradientUnits="userSpaceOnUse" gradientTransform="translate(24.9658 51.4013) scale(27.2881 10.3186)">
<stop stop-color="#FF9C42"/>
<stop offset="0.3408" stop-color="#F99840"/>
<stop offset="0.8011" stop-color="#E88F39"/>
<stop offset="1" stop-color="#DE8935"/>
</radialGradient>
<linearGradient id="paint1_linear" x1="31.9994" y1="60.9997" x2="31.9994" y2="46.8864" gradientUnits="userSpaceOnUse">
<stop offset="0.2182" stop-color="#FF9C42" stop-opacity="0"/>
<stop offset="0.3553" stop-color="#FC993F" stop-opacity="0.2154"/>
<stop offset="0.4745" stop-color="#F18F34" stop-opacity="0.4027"/>
<stop offset="0.587" stop-color="#DF7E22" stop-opacity="0.5796"/>
<stop offset="0.6948" stop-color="#C66709" stop-opacity="0.749"/>
<stop offset="0.7273" stop-color="#BD5E00" stop-opacity="0.8"/>
</linearGradient>
<radialGradient id="paint2_radial" cx="0" cy="0" r="1" gradientUnits="userSpaceOnUse" gradientTransform="translate(31.0404 38.8196) scale(47.1748 7.14971)">
<stop offset="0.5455" stop-color="#572F1D"/>
<stop offset="0.5981" stop-color="#522C1C"/>
<stop offset="0.812" stop-color="#452519"/>
<stop offset="1" stop-color="#402218"/>
</radialGradient>
<radialGradient id="paint3_radial" cx="0" cy="0" r="1" gradientUnits="userSpaceOnUse" gradientTransform="translate(31.8467 25.8596) rotate(179.051) scale(44.1192 15.0102)">
<stop stop-color="#F9B700"/>
<stop offset="0.2515" stop-color="#F9B904"/>
<stop offset="0.5007" stop-color="#FAC110"/>
<stop offset="0.7491" stop-color="#FCCD24"/>
<stop offset="0.9957" stop-color="#FFDF3F"/>
<stop offset="1" stop-color="#FFDF40"/>
</radialGradient>
<radialGradient id="paint4_radial" cx="0" cy="0" r="1" gradientUnits="userSpaceOnUse" gradientTransform="translate(16.5539 34.8886) rotate(-1.97837) scale(11.433 18.9708)">
<stop stop-color="#FF3D3D"/>
<stop offset="0.2395" stop-color="#FB3939"/>
<stop offset="0.4913" stop-color="#EE2D2D"/>
<stop offset="0.7478" stop-color="#D91A1A"/>
<stop offset="1" stop-color="#BD0000"/>
</radialGradient>
<radialGradient id="paint5_radial" cx="0" cy="0" r="1" gradientUnits="userSpaceOnUse" gradientTransform="translate(43.2819 34.4133) rotate(6.84636) scale(11.2227 17.6738)">
<stop stop-color="#FF3D3D"/>
<stop offset="0.2395" stop-color="#FB3939"/>
<stop offset="0.4913" stop-color="#EE2D2D"/>
<stop offset="0.7478" stop-color="#D91A1A"/>
<stop offset="1" stop-color="#BD0000"/>
</radialGradient>
<radialGradient id="paint6_radial" cx="0" cy="0" r="1" gradientUnits="userSpaceOnUse" gradientTransform="translate(17.6697 30.6985) rotate(172.157) scale(9.27552 18.31)">
<stop stop-color="#FFA8EC"/>
<stop offset="0.1165" stop-color="#FDA1E9"/>
<stop offset="0.2873" stop-color="#F78DE2"/>
<stop offset="0.4919" stop-color="#EE6DD5"/>
<stop offset="0.7224" stop-color="#E140C4"/>
<stop offset="0.9717" stop-color="#D107AF"/>
<stop offset="1" stop-color="#CF00AC"/>
</radialGradient>
<radialGradient id="paint7_radial" cx="0" cy="0" r="1" gradientUnits="userSpaceOnUse" gradientTransform="translate(52.7628 31.7182) rotate(-173.274) scale(7.35721 17.9251)">
<stop stop-color="#FFA8EC"/>
<stop offset="0.1165" stop-color="#FDA1E9"/>
<stop offset="0.2873" stop-color="#F78DE2"/>
<stop offset="0.4919" stop-color="#EE6DD5"/>
<stop offset="0.7224" stop-color="#E140C4"/>
<stop offset="0.9717" stop-color="#D107AF"/>
<stop offset="1" stop-color="#CF00AC"/>
</radialGradient>
<radialGradient id="paint8_radial" cx="0" cy="0" r="1" gradientUnits="userSpaceOnUse" gradientTransform="translate(35.3074 29.8872) rotate(174.485) scale(9.27659 18.3082)">
<stop stop-color="#FFA8EC"/>
<stop offset="0.1165" stop-color="#FDA1E9"/>
<stop offset="0.2873" stop-color="#F78DE2"/>
<stop offset="0.4919" stop-color="#EE6DD5"/>
<stop offset="0.7224" stop-color="#E140C4"/>
<stop offset="0.9717" stop-color="#D107AF"/>
<stop offset="1" stop-color="#CF00AC"/>
</radialGradient>
<linearGradient id="paint9_linear" x1="14.9521" y1="25.9537" x2="3.27938" y2="27.4621" gradientUnits="userSpaceOnUse">
<stop stop-color="#96CF33"/>
<stop offset="0.0903" stop-color="#90C931"/>
<stop offset="1" stop-color="#529320"/>
</linearGradient>
<linearGradient id="paint10_linear" x1="19.8103" y1="30.1519" x2="19.8119" y2="22.5772" gradientUnits="userSpaceOnUse">
<stop stop-color="#96CF33"/>
<stop offset="0.0903" stop-color="#90C931"/>
<stop offset="1" stop-color="#529320"/>
</linearGradient>
<linearGradient id="paint11_linear" x1="24.0034" y1="31.1496" x2="27.717" y2="25.6562" gradientUnits="userSpaceOnUse">
<stop stop-color="#96CF33"/>
<stop offset="0.0903" stop-color="#90C931"/>
<stop offset="1" stop-color="#529320"/>
</linearGradient>
<linearGradient id="paint12_linear" x1="38.5033" y1="26.0388" x2="26.8853" y2="27.7303" gradientUnits="userSpaceOnUse">
<stop stop-color="#96CF33"/>
<stop offset="0.0903" stop-color="#90C931"/>
<stop offset="1" stop-color="#529320"/>
</linearGradient>
<linearGradient id="paint13_linear" x1="57.5327" y1="30.6877" x2="54.296" y2="22.9946" gradientUnits="userSpaceOnUse">
<stop stop-color="#96CF33"/>
<stop offset="0.0903" stop-color="#90C931"/>
<stop offset="1" stop-color="#529320"/>
</linearGradient>
<linearGradient id="paint14_linear" x1="45.2178" y1="30.1519" x2="45.219" y2="24.0559" gradientUnits="userSpaceOnUse">
<stop stop-color="#96CF33"/>
<stop offset="0.0903" stop-color="#90C931"/>
<stop offset="1" stop-color="#529320"/>
</linearGradient>
<radialGradient id="paint15_radial" cx="0" cy="0" r="1" gradientUnits="userSpaceOnUse" gradientTransform="translate(21.5461 12.3894) scale(33.6635 16.2428)">
<stop offset="0.4242" stop-color="#FF9C42"/>
<stop offset="0.657" stop-color="#F5963E"/>
<stop offset="1" stop-color="#DE8935"/>
</radialGradient>
<linearGradient id="paint16_linear" x1="31.9998" y1="25.9765" x2="31.9998" y2="3.4462" gradientUnits="userSpaceOnUse">
<stop stop-color="#DE6E00"/>
<stop offset="0.0438" stop-color="#E77B13" stop-opacity="0.8905"/>
<stop offset="0.1087" stop-color="#F28A28" stop-opacity="0.7282"/>
<stop offset="0.1814" stop-color="#F99437" stop-opacity="0.5465"/>
<stop offset="0.2673" stop-color="#FE9A3F" stop-opacity="0.3317"/>
<stop offset="0.4" stop-color="#FF9C42" stop-opacity="0"/>
<stop offset="1" stop-color="#DE6E00"/>
</linearGradient>
<radialGradient id="paint17_radial" cx="0" cy="0" r="1" gradientUnits="userSpaceOnUse" gradientTransform="translate(29.1191 27.759) rotate(177.587) scale(4.15327 2.35494)">
<stop stop-color="#5DA824"/>
<stop offset="1" stop-color="#96CF33"/>
</radialGradient>
<radialGradient id="paint18_radial" cx="0" cy="0" r="1" gradientUnits="userSpaceOnUse" gradientTransform="translate(39.2287 27.4075) rotate(1.62936) scale(3.84708 3.24287)">
<stop stop-color="#5DA824"/>
<stop offset="1" stop-color="#96CF33"/>
</radialGradient>
<radialGradient id="paint19_radial" cx="0" cy="0" r="1" gradientUnits="userSpaceOnUse" gradientTransform="translate(55.1396 28.6887) rotate(1.62936) scale(3.99216 3.36517)">
<stop stop-color="#5DA824"/>
<stop offset="1" stop-color="#96CF33"/>
</radialGradient>
<radialGradient id="paint20_radial" cx="0" cy="0" r="1" gradientUnits="userSpaceOnUse" gradientTransform="translate(49.1763 27.8964) rotate(-39.8911) scale(2.74169 4.33137)">
<stop stop-color="#5DA824"/>
<stop offset="1" stop-color="#96CF33"/>
</radialGradient>
<radialGradient id="paint21_radial" cx="0" cy="0" r="1" gradientUnits="userSpaceOnUse" gradientTransform="translate(8.83946 28.6983) rotate(177.279) scale(4.31061 2.75326)">
<stop stop-color="#5DA824"/>
<stop offset="1" stop-color="#96CF33"/>
</radialGradient>
<radialGradient id="paint22_radial" cx="0" cy="0" r="1" gradientUnits="userSpaceOnUse" gradientTransform="translate(15.9872 27.9365) rotate(1.82964) scale(4.34086 2.77348)">
<stop stop-color="#5DA824"/>
<stop offset="1" stop-color="#96CF33"/>
</radialGradient>
</defs>
</svg>
