<svg width="64" height="64" viewBox="0 0 64 64" fill="none" xmlns="http://www.w3.org/2000/svg">
<path d="M37.512 54.7139C36.688 54.0799 35.799 53.2029 35.149 51.9339C33.838 49.3669 33.889 33.9029 33.889 33.9029C33.889 27.2199 50.711 13.8339 60 5.34595H4.00195C13.289 13.8329 30.111 27.2199 30.111 33.9029C30.111 35.1079 30.271 49.1559 28.853 51.9339C28.205 53.2049 27.312 54.0799 26.488 54.7139C20.873 55.2629 16.89 56.6279 16.89 58.2239C16.89 60.3099 23.656 61.9999 32.001 61.9999C40.343 61.9999 47.108 60.3099 47.108 58.2239C47.109 56.6279 43.129 55.2629 37.512 54.7139Z" fill="#C5D7E8"/>
<path opacity="0.3" d="M31.846 60.533C41.627 60.533 18.198 59.286 23.555 56.733C27.922 54.65 18.678 56.86 18.678 57.954C18.678 59.157 23.771 60.533 31.846 60.533Z" fill="#E6EBEF"/>
<path opacity="0.3" d="M33.686 51.919C36.733 55.623 39.307 57.413 38.838 57.461C34.236 57.933 32.295 50.227 33.686 51.919Z" fill="#93B0C0"/>
<path d="M32 7.271C20.135 7.271 10.512 8.103 10.512 9.126C10.512 10.148 25.623 23.869 27.86 24.681C29.671 25.338 34.241 25.491 36.141 24.681C38.27 23.772 53.488 9.957 53.488 9.127C53.488 8.104 43.867 7.271 32 7.271Z" fill="url(#paint0_radial)"/>
<path opacity="0.3" d="M32 10.983C43.8675 10.983 53.488 10.152 53.488 9.127C53.488 8.10196 43.8675 7.271 32 7.271C20.1325 7.271 10.512 8.10196 10.512 9.127C10.512 10.152 20.1325 10.983 32 10.983Z" fill="#E6F0CF"/>
<path opacity="0.3" d="M34.914 27.759C35.893 29.323 28.365 29.418 28.967 27.759C25.436 25.235 38.9 25.359 34.914 27.759Z" fill="#93B0C0"/>
<path d="M40.0211 6.85596L34.3511 18.18C34.4971 18.266 34.6461 18.353 34.7941 18.434L41.1221 6.83496C40.7601 6.84396 40.3931 6.85096 40.0211 6.85596Z" fill="#D48942"/>
<path d="M28.0059 18.017C26.4299 22.935 36.1509 26.22 37.7269 21.303C39.3029 16.384 29.5819 13.097 28.0059 18.017Z" fill="#6F992D"/>
<path d="M28.4321 18.162C27.5631 20.875 30.2051 21.767 31.0751 19.054C31.9451 16.339 29.3031 15.446 28.4321 18.162Z" fill="#E81C27"/>
<path d="M32.6741 21.531L30.9471 24.976C30.9161 25.019 31.1541 25.093 31.1791 25.062L33.0461 21.638C32.9101 21.619 32.7811 21.59 32.6741 21.531Z" fill="#D48942"/>
<path opacity="0.7" d="M7.771 5.95398C7.771 5.95398 18.919 17.498 27.292 23.859C28.339 24.655 30.913 25.384 29.753 23.733C24.99 16.954 22.49 6.64198 22.49 6.64198C22.49 6.64198 10.923 6.20798 7.771 5.95398Z" fill="url(#paint1_linear)"/>
<path d="M32 6.92799C47.464 6.92799 60 6.18523 60 5.26899C60 4.35275 47.464 3.60999 32 3.60999C16.536 3.60999 4 4.35275 4 5.26899C4 6.18523 16.536 6.92799 32 6.92799Z" fill="#C5D7E8"/>
<path d="M32.001 6.364C46.5736 6.364 58.387 5.82316 58.387 5.156C58.387 4.48884 46.5736 3.948 32.001 3.948C17.4284 3.948 5.61499 4.48884 5.61499 5.156C5.61499 5.82316 17.4284 6.364 32.001 6.364Z" fill="#E6EBEF"/>
<path d="M41.424 6.28502L43.324 2.79902C43.64 2.19602 42.638 1.66202 42.324 2.26402L40.301 6.30302C40.68 6.29702 41.055 6.29202 41.424 6.28502Z" fill="#D46A06"/>
<defs>
<radialGradient id="paint0_radial" cx="0" cy="0" r="1" gradientUnits="userSpaceOnUse" gradientTransform="translate(31.9986 7.20403) scale(21.7024 25.2829)">
<stop stop-color="#DAEFA7"/>
<stop offset="0.1578" stop-color="#D6EBA3"/>
<stop offset="0.3238" stop-color="#CADE98"/>
<stop offset="0.4936" stop-color="#B5C985"/>
<stop offset="0.6661" stop-color="#99AC6B"/>
<stop offset="0.8387" stop-color="#75864A"/>
<stop offset="1" stop-color="#4C5C25"/>
</radialGradient>
<linearGradient id="paint1_linear" x1="26.7729" y1="26.4641" x2="11.2535" y2="-0.415601" gradientUnits="userSpaceOnUse">
<stop stop-color="white" stop-opacity="0"/>
<stop offset="0.1142" stop-color="white" stop-opacity="0.1142"/>
<stop offset="1" stop-color="white"/>
</linearGradient>
</defs>
</svg>
