<svg width="64" height="64" viewBox="0 0 64 64" fill="none" xmlns="http://www.w3.org/2000/svg">
<path d="M0.0649414 43.4301V49.3891C0.0649414 51.2581 1.55794 53.0141 6.45694 51.9551C11.3559 50.9061 23.7149 63.2911 29.5729 61.8911C35.4299 60.3701 39.6899 57.8011 60.3539 55.2291C63.1249 54.8791 63.9769 53.9441 63.9769 53.0141C63.9769 52.1921 63.9769 47.1661 63.9769 47.1661L0.0649414 43.4301Z" fill="#AB5C10"/>
<path d="M0.0649414 43.43C0.0649414 45.301 1.55794 47.049 6.45694 46C11.3559 44.951 23.7149 57.334 29.5729 55.93C35.4299 54.412 39.6899 51.84 60.3539 49.272C67.5969 48.336 62.8049 43.78 56.7339 42.612C52.6869 41.91 0.0649414 31.608 0.0649414 43.43Z" fill="#D99025"/>
<path d="M61.385 42.646C54.006 26.018 -14.507 32.433 3.79704 45.632C1.93204 55.857 14.845 46.308 14.724 50.14C14.555 55.46 19.953 59.97 22.2 56.201C24.556 52.416 28.278 62.941 32.28 57.053C37.621 49.194 43.379 62.242 44.803 55.184C46.8 45.286 51.245 59.95 53.111 51.391C54.021 47.219 59.155 56.793 59.621 48.893C59.768 46.428 67.937 47.781 61.385 42.646Z" fill="#65B527"/>
<path d="M61.2171 43.0641C53.8381 26.4351 -15.0149 31.2801 5.4311 44.1411C3.5661 54.3681 14.5281 46.1021 15.2541 49.8521C15.9791 53.6021 20.2991 58.2131 22.5451 54.4421C24.9011 50.6571 28.5721 61.8031 32.5751 55.9151C37.9151 48.0541 42.0171 59.8021 44.2171 52.9871C47.4641 42.9191 50.9161 57.6201 52.7811 49.0611C53.6901 44.8891 57.3451 55.2291 59.7891 47.7821C60.3041 46.2131 66.2991 46.9021 61.2171 43.0641Z" fill="url(#paint0_linear)"/>
<path d="M62.758 41.623C57.654 36.428 36.552 45.125 36.552 45.125C36.552 45.125 59.956 51.27 62.758 41.623Z" fill="#F46C60"/>
<path d="M46.0631 46.475C46.0111 45.436 46.5841 44.118 37.4281 44.301C28.2701 44.487 7.01611 41.469 7.01611 41.469C7.01611 41.469 7.59611 53.334 30.1911 51.108C41.4371 49.998 46.1761 48.814 46.0631 46.475Z" fill="#F46C60"/>
<path d="M24.2651 51.977C8.96109 51.977 6.90509 43.553 6.37109 41.313C6.37109 41.313 8.69409 48.508 18.3261 50.418C33.8721 53.498 38.6621 43.371 47.1961 45.816C49.7501 46.549 45.4791 51.977 24.2651 51.977ZM44.8011 46.426C40.8951 46.334 34.6081 49.852 32.0881 50.617C37.3861 50.924 49.8851 46.549 44.8011 46.426Z" fill="#E03636"/>
<path d="M47.1781 40.854C46.4431 48.567 2.68407 49.391 3.41907 41.684C4.15307 33.969 47.9121 33.143 47.1781 40.854Z" fill="#E03636"/>
<path d="M46.798 39.771C47.159 47.156 4.15804 48.423 3.79804 41.041C3.64004 37.789 46.641 36.52 46.798 39.771Z" fill="#F46C60"/>
<path d="M46.4441 46.914L46.7241 46.039C46.7241 46.039 51.9841 47.227 54.5671 45.115C61.8961 39.119 63.1331 41.465 62.9541 42.263C61.7811 47.576 50.9711 48.076 46.4441 46.914ZM54.3151 46.51C58.8661 45.854 61.9761 43.594 61.8941 42.381C61.7981 40.9 56.7721 45.131 54.3151 46.51Z" fill="#E03636"/>
<path d="M0 41.58C0 41.58 20.298 36.541 34.636 54.107C34.636 54.107 47.431 39.253 63.978 41.189C61.426 27.916 3.97 13.415 0 41.58Z" fill="url(#paint1_linear)"/>
<path d="M0.0649414 27.153V33.111C0.0649414 34.978 1.55794 36.732 6.45694 35.679C11.3559 34.626 23.7149 47.013 29.5729 45.609C35.4299 44.091 39.6899 41.521 60.3539 38.953C63.0169 38.601 63.9769 37.783 63.9769 36.849V30.89L0.0649414 27.153Z" fill="#AB5C10"/>
<path d="M0.0649414 27.0341C0.0649414 28.9051 1.55794 30.6561 6.45694 29.6061C11.3559 28.5511 23.7149 40.9381 29.5729 39.5371C35.4299 38.0171 39.6899 35.4471 60.3539 32.8781C67.5969 31.9421 62.8049 27.3851 56.7339 26.2171C52.6859 25.5161 42.3539 23.1791 41.2869 20.4881C40.2239 17.8031 25.9489 17.1021 16.7909 19.3211C7.52294 21.5451 0.0649414 23.9981 0.0649414 27.0341Z" fill="#F5CFA0"/>
<path d="M0.947998 27.01C0.947998 28.804 2.207 29.894 7.017 28.887C11.83 27.877 23.977 40.01 29.731 38.668C35.482 37.213 39.085 34.902 59.377 32.441C66.266 31.572 61.832 27.645 56.083 26.566C52.106 25.894 41.775 23.485 40.728 20.907C39.684 18.336 26.103 17.802 17.108 19.919C8.009 22.059 0.947998 24.101 0.947998 27.01Z" fill="#FFE8BB"/>
<path d="M6.85588 24.8C7.92188 24.8 7.92188 26.279 6.85588 26.279C5.79088 26.28 5.79088 24.8 6.85588 24.8Z" fill="#FADEAA"/>
<path d="M20.0419 21.459C21.1079 21.459 21.1079 22.938 20.0419 22.938C18.9769 22.939 18.9769 21.459 20.0419 21.459Z" fill="#FADEAA"/>
<path d="M26.5419 24.434C27.6049 24.434 27.6049 25.914 26.5419 25.914C25.4749 25.914 25.4749 24.434 26.5419 24.434Z" fill="#FADEAA"/>
<path d="M37.8219 25.9139C38.8889 25.9139 38.8889 27.3949 37.8219 27.3949C36.7579 27.3949 36.7579 25.9139 37.8219 25.9139Z" fill="#FADEAA"/>
<path d="M34.3471 20.9139C35.4141 20.9139 35.4141 22.3929 34.3471 22.3929C33.2821 22.3929 33.2821 20.9139 34.3471 20.9139Z" fill="#FADEAA"/>
<path d="M52.5851 30.278C53.6521 30.278 53.6521 31.76 52.5851 31.76C51.5211 31.76 51.5211 30.278 52.5851 30.278Z" fill="#FADEAA"/>
<path d="M42.936 26.412C44.003 26.412 44.003 27.894 42.936 27.894C41.871 27.895 41.871 26.412 42.936 26.412Z" fill="#FADEAA"/>
<path d="M31.476 27.579C32.542 27.579 32.542 29.061 31.476 29.061C30.411 29.062 30.411 27.579 31.476 27.579Z" fill="#FADEAA"/>
<path d="M20.3009 25.5389C21.3679 25.5389 21.3679 27.0209 20.3009 27.0209C19.2359 27.0209 19.2359 25.5389 20.3009 25.5389Z" fill="#FADEAA"/>
<path d="M17.318 28.52C18.384 28.52 18.384 30.002 17.318 30.002C16.254 30.002 16.254 28.52 17.318 28.52Z" fill="#FADEAA"/>
<path d="M23.5041 27.059C24.2531 27.059 24.2531 28.1 23.5041 28.1C22.7571 28.1 22.7571 27.059 23.5041 27.059Z" fill="#FADEAA"/>
<path d="M30.4379 24.653C31.1869 24.653 31.1869 25.694 30.4379 25.694C29.6909 25.694 29.6909 24.653 30.4379 24.653Z" fill="#FADEAA"/>
<path d="M22.9431 23.175C23.6921 23.175 23.6921 24.216 22.9431 24.216C22.1961 24.216 22.1961 23.175 22.9431 23.175Z" fill="#FADEAA"/>
<path d="M17.08 23.356C17.829 23.356 17.829 24.397 17.08 24.397C16.333 24.397 16.333 23.356 17.08 23.356Z" fill="#FADEAA"/>
<path d="M16.675 20.502C17.424 20.502 17.424 21.543 16.675 21.543C15.928 21.543 15.928 20.502 16.675 20.502Z" fill="#FADEAA"/>
<path d="M28.3659 19.02C29.1149 19.02 29.1149 20.061 28.3659 20.061C27.6189 20.061 27.6189 19.02 28.3659 19.02Z" fill="#FADEAA"/>
<path d="M29.6391 30.499C30.3881 30.499 30.3881 31.54 29.6391 31.54C28.8921 31.54 28.8921 30.499 29.6391 30.499Z" fill="#FADEAA"/>
<path d="M30.6769 35.439C31.4259 35.439 31.4259 36.48 30.6769 36.48C29.9299 36.48 29.9299 35.439 30.6769 35.439Z" fill="#FADEAA"/>
<path d="M35.708 33.729C36.457 33.729 36.457 34.77 35.708 34.77C34.961 34.77 34.961 33.729 35.708 33.729Z" fill="#FADEAA"/>
<path d="M37.0229 31.264C37.7719 31.264 37.7719 32.305 37.0229 32.305C36.2759 32.305 36.2759 31.264 37.0229 31.264Z" fill="#FADEAA"/>
<path d="M45.5031 32.233C46.2521 32.233 46.2521 33.274 45.5031 33.274C44.7561 33.273 44.7561 32.233 45.5031 32.233Z" fill="#FADEAA"/>
<path d="M43.175 31.432C43.924 31.432 43.924 32.473 43.175 32.473C42.428 32.473 42.428 31.432 43.175 31.432Z" fill="#FADEAA"/>
<path d="M43.175 29.262C43.924 29.262 43.924 30.303 43.175 30.303C42.428 30.303 42.428 29.262 43.175 29.262Z" fill="#FADEAA"/>
<path d="M45.924 29.262C46.673 29.262 46.673 30.303 45.924 30.303C45.177 30.303 45.177 29.262 45.924 29.262Z" fill="#FADEAA"/>
<path d="M33.353 31.54C34.102 31.54 34.102 32.581 33.353 32.581C32.605 32.581 32.605 31.54 33.353 31.54Z" fill="#FADEAA"/>
<path d="M29.488 33.438C30.237 33.438 30.237 34.479 29.488 34.479C28.741 34.479 28.741 33.438 29.488 33.438Z" fill="#FADEAA"/>
<path d="M23.082 30.912C23.831 30.912 23.831 31.953 23.082 31.953C22.335 31.953 22.335 30.912 23.082 30.912Z" fill="#FADEAA"/>
<path d="M20.54 32.917C21.289 32.917 21.289 33.958 20.54 33.958C19.793 33.957 19.793 32.917 20.54 32.917Z" fill="#FADEAA"/>
<path d="M21.102 28.951C21.851 28.951 21.851 29.9921 21.102 29.9921C20.354 29.9921 20.354 28.951 21.102 28.951Z" fill="#FADEAA"/>
<path d="M16.3559 25.54C17.1049 25.54 17.1049 26.581 16.3559 26.581C15.6089 26.581 15.6089 25.54 16.3559 25.54Z" fill="#FADEAA"/>
<path d="M14.3381 27.241C15.0871 27.241 15.0871 28.282 14.3381 28.282C13.5911 28.282 13.5911 27.241 14.3381 27.241Z" fill="#FADEAA"/>
<path d="M15.2341 29.757C15.9831 29.757 15.9831 30.798 15.2341 30.798C14.4871 30.798 14.4871 29.757 15.2341 29.757Z" fill="#FADEAA"/>
<path d="M13.539 25.3929C14.288 25.3929 14.288 26.4339 13.539 26.4339C12.792 26.4339 12.792 25.3929 13.539 25.3929Z" fill="#FADEAA"/>
<path d="M14.3381 21.873C15.0871 21.873 15.0871 22.914 14.3381 22.914C13.5911 22.914 13.5911 21.873 14.3381 21.873Z" fill="#FADEAA"/>
<path d="M30.6769 21.873C31.4259 21.873 31.4259 22.914 30.6769 22.914C29.9299 22.914 29.9299 21.873 30.6769 21.873Z" fill="#FADEAA"/>
<path d="M35.708 28.209C36.457 28.209 36.457 29.25 35.708 29.25C34.961 29.25 34.961 28.209 35.708 28.209Z" fill="#FADEAA"/>
<path d="M41.833 23.877C42.582 23.877 42.582 24.918 41.833 24.918C41.086 24.918 41.086 23.877 41.833 23.877Z" fill="#FADEAA"/>
<path d="M48.6479 31.953C49.3969 31.953 49.3969 32.994 48.6479 32.994C47.9009 32.994 47.9009 31.953 48.6479 31.953Z" fill="#FADEAA"/>
<path d="M50.3979 26.875C51.1469 26.875 51.1469 27.916 50.3979 27.916C49.6509 27.916 49.6509 26.875 50.3979 26.875Z" fill="#FADEAA"/>
<path d="M56.1059 30.744C56.8549 30.744 56.8549 31.785 56.1059 31.785C55.3589 31.785 55.3589 30.744 56.1059 30.744Z" fill="#FADEAA"/>
<path d="M58.2939 28.541C59.0429 28.541 59.0429 29.582 58.2939 29.582C57.5469 29.582 57.5469 28.541 58.2939 28.541Z" fill="#FADEAA"/>
<path d="M55.4189 27.999C56.1679 27.999 56.1679 29.04 55.4189 29.04C54.6719 29.04 54.6719 27.999 55.4189 27.999Z" fill="#FADEAA"/>
<path d="M23.5041 33.957C24.2531 33.957 24.2531 34.998 23.5041 34.998C22.7571 34.998 22.7571 33.957 23.5041 33.957Z" fill="#FADEAA"/>
<path d="M18.3791 31.019C19.1281 31.019 19.1281 32.06 18.3791 32.06C17.6321 32.06 17.6321 31.019 18.3791 31.019Z" fill="#FADEAA"/>
<path d="M12.739 28.303C13.488 28.303 13.488 29.344 12.739 29.344C11.992 29.344 11.992 28.303 12.739 28.303Z" fill="#FADEAA"/>
<path d="M6.37104 27.241C7.12004 27.241 7.12004 28.282 6.37104 28.282C5.62404 28.282 5.62404 27.241 6.37104 27.241Z" fill="#FADEAA"/>
<path d="M3.79707 24.28C4.54607 24.28 4.54607 25.321 3.79707 25.321C3.05007 25.321 3.05007 24.28 3.79707 24.28Z" fill="#FADEAA"/>
<path d="M11.3759 23.913C12.1249 23.913 12.1249 24.954 11.3759 24.954C10.6289 24.954 10.6289 23.913 11.3759 23.913Z" fill="#FADEAA"/>
<path d="M22.706 19.54C23.455 19.54 23.455 20.581 22.706 20.581C21.959 20.581 21.959 19.54 22.706 19.54Z" fill="#FADEAA"/>
<path d="M27.9001 22.42C28.6491 22.42 28.6491 23.461 27.9001 23.461C27.1531 23.461 27.1531 22.42 27.9001 22.42Z" fill="#FADEAA"/>
<path d="M37.112 20.061C37.861 20.061 37.861 21.102 37.112 21.102C36.365 21.102 36.365 20.061 37.112 20.061Z" fill="#FADEAA"/>
<path d="M27.34 27.241C28.089 27.241 28.089 28.282 27.34 28.282C26.593 28.282 26.593 27.241 27.34 27.241Z" fill="#FADEAA"/>
<path d="M33.913 26.354C34.662 26.354 34.662 27.395 33.913 27.395C33.166 27.395 33.166 26.354 33.913 26.354Z" fill="#FADEAA"/>
<path d="M40.288 25.3929C41.037 25.3929 41.037 26.4339 40.288 26.4339C39.541 26.4339 39.541 25.3929 40.288 25.3929Z" fill="#FADEAA"/>
<path d="M44.8019 24.6541C45.5509 24.6541 45.5509 25.6951 44.8019 25.6951C44.0549 25.6951 44.0549 24.6541 44.8019 24.6541Z" fill="#FADEAA"/>
<path d="M27.5661 34.479C28.6331 34.479 28.6331 35.961 27.5661 35.961C26.5021 35.961 26.5021 34.479 27.5661 34.479Z" fill="#FADEAA"/>
<path d="M26.539 29.782C27.605 29.782 27.605 31.264 26.539 31.264C25.475 31.264 25.475 29.782 26.539 29.782Z" fill="#FADEAA"/>
<path d="M24.9401 20.912C26.0061 20.912 26.0061 22.394 24.9401 22.394C23.8761 22.395 23.8761 20.912 24.9401 20.912Z" fill="#FADEAA"/>
<path d="M10.5761 25.692C11.6431 25.692 11.6431 27.174 10.5761 27.174C9.51208 27.175 9.51208 25.692 10.5761 25.692Z" fill="#FADEAA"/>
<path d="M3.40908 26.434C4.47508 26.434 4.47508 27.916 3.40908 27.916C2.34508 27.916 2.34508 26.434 3.40908 26.434Z" fill="#FADEAA"/>
<path d="M9.33096 22.395C10.397 22.395 10.397 23.877 9.33096 23.877C8.26696 23.877 8.26696 22.395 9.33096 22.395Z" fill="#FADEAA"/>
<path d="M32.4489 19.02C33.5149 19.02 33.5149 20.502 32.4489 20.502C31.3849 20.502 31.3849 19.02 32.4489 19.02Z" fill="#FADEAA"/>
<path d="M37.5719 22.395C38.6389 22.395 38.6389 23.877 37.5719 23.877C36.5089 23.877 36.5089 22.395 37.5719 22.395Z" fill="#FADEAA"/>
<path d="M39.727 32.252C40.793 32.252 40.793 33.734 39.727 33.734C38.662 33.734 38.662 32.252 39.727 32.252Z" fill="#FADEAA"/>
<path d="M38.622 29.041C39.688 29.041 39.688 30.523 38.622 30.523C37.558 30.523 37.558 29.041 38.622 29.041Z" fill="#FADEAA"/>
<path d="M39.727 21.458C40.793 21.458 40.793 22.94 39.727 22.94C38.662 22.94 38.662 21.458 39.727 21.458Z" fill="#FADEAA"/>
<path d="M34.15 23.692C35.217 23.692 35.217 25.174 34.15 25.174C33.087 25.175 33.087 23.692 34.15 23.692Z" fill="#FADEAA"/>
<path d="M53.036 27.153C54.103 27.153 54.103 28.635 53.036 28.635C51.972 28.636 51.972 27.153 53.036 27.153Z" fill="#FADEAA"/>
<path d="M48.4091 29.261C49.4761 29.261 49.4761 30.743 48.4091 30.743C47.3461 30.743 47.3461 29.261 48.4091 29.261Z" fill="#FADEAA"/>
<path d="M60.464 29.261C61.531 29.261 61.531 30.743 60.464 30.743C59.4 30.743 59.4 29.261 60.464 29.261Z" fill="#FADEAA"/>
<path d="M47.058 26.281C48.125 26.281 48.125 27.762 47.058 27.762C45.994 27.762 45.994 26.281 47.058 26.281Z" fill="#FADEAA"/>
<defs>
<linearGradient id="paint0_linear" x1="32.4503" y1="57.6681" x2="32.4503" y2="32.4342" gradientUnits="userSpaceOnUse">
<stop stop-color="#96CF33"/>
<stop offset="0.4724" stop-color="#74B12A"/>
<stop offset="1" stop-color="#529320"/>
</linearGradient>
<linearGradient id="paint1_linear" x1="33.9395" y1="53.1689" x2="30.7665" y2="33.9966" gradientUnits="userSpaceOnUse">
<stop offset="0.3152" stop-color="#FFDF40"/>
<stop offset="0.4424" stop-color="#F9B700"/>
</linearGradient>
</defs>
</svg>
