<svg width="64" height="64" viewBox="0 0 64 64" fill="none" xmlns="http://www.w3.org/2000/svg">
<path d="M32.686 28.772L30.616 20.269L20.042 10.667L11.612 12.164L7 24.587L10.915 33.578L32.686 41.864L54.228 32.437L57 22.56L51.834 13.133L43.9 11.987L35.781 18.154L32.686 28.772Z" fill="#99A8AE"/>
<path d="M40.1951 0C40.1951 0 40.1951 0 31.1891 56.1C31.0481 56.994 32.5321 57.284 32.7091 56.392C43.7761 0.733997 43.7841 0.686 43.7841 0.686L40.1951 0Z" fill="#302C3B"/>
<path d="M39.961 1.45801L43.5 2.11801L42.119 9.06601L38.8521 8.36901L39.961 1.45801Z" fill="#E81C27"/>
<path opacity="0.3" d="M40.539 0.065918L41.748 0.295918L31.189 56.1009L40.539 0.065918Z" fill="white"/>
<path d="M48.965 1.66992C48.965 1.66992 48.965 1.66993 35.107 56.7129C34.886 57.5889 36.343 58.0079 36.598 57.1349C52.475 2.71292 52.485 2.66792 52.485 2.66792L48.965 1.66992Z" fill="#302C3B"/>
<path d="M48.5921 3.15601L52.0481 4.17301L50.1021 10.842L46.8911 9.91401L48.5921 3.15601Z" fill="#E81C27"/>
<path opacity="0.3" d="M49.304 1.76611L50.49 2.10311L35.105 56.7121L49.304 1.76611Z" fill="white"/>
<path d="M32.686 64C41.728 61.942 48.79 58.656 48.79 58.656L54.602 33.578C54.602 33.578 44.79 31.696 32.686 39.271V64Z" fill="#E6EBEF"/>
<path d="M29.786 27.991L20.902 19.887L12.812 18.595L7.52197 25.291L9.63297 34.881L32.686 39.271L29.786 27.991Z" fill="#E6EBEF"/>
<path d="M32.686 39.2709C42.665 35.2139 54.602 33.5779 54.602 33.5779L56.078 23.0879L54.511 19.3889C54.511 19.3889 51.527 20.0349 52.08 16.0989C52.26 14.8249 50.407 12.5029 48.669 15.1019C47.469 16.8929 44.977 21.0029 44.977 21.0029L46.853 20.6799L47.407 22.1199L40.797 23.4099L35.108 29.6959L32.686 39.2709Z" fill="#CFD8DD"/>
<path d="M54.602 33.5779L49.229 35.5129L44.615 43.7649L48.79 58.6559L54.602 33.5779Z" fill="#B3C2C6"/>
<path d="M9.63306 34.8811L15.3961 60.6311C22.9141 63.0541 32.6861 64.0001 32.6861 64.0001V39.2711C32.6861 39.2711 21.1601 35.6461 9.63306 34.8811Z" fill="#F2F5F7"/>
<path fill-rule="evenodd" clip-rule="evenodd" d="M26.2531 57.5739C25.9241 56.2519 27.6751 56.6819 27.6871 55.4119C26.1711 55.2319 25.8611 53.9189 25.1941 52.9399C25.5361 52.4889 26.1661 52.3399 26.4151 51.7899C24.8941 51.3479 24.4861 50.1139 24.0961 49.1539C24.6451 48.8589 24.9571 48.3139 25.5231 48.0409C24.3231 47.6419 23.7381 46.6609 23.2311 45.6089C23.3121 44.9949 23.6801 44.6869 24.0501 44.3769C22.6211 43.6589 21.0441 41.0129 21.0441 41.0129C21.0441 41.0129 20.1071 43.1689 18.7991 43.3569C19.2741 43.8299 19.7451 44.3019 19.9971 44.9809C19.7521 45.8869 19.4071 46.6859 18.2501 46.6269C18.9241 47.1429 19.4001 47.8399 20.0581 48.3689C19.9101 49.2249 19.8211 50.3619 18.3371 50.2189C18.7511 50.8989 19.4541 51.3089 19.9421 51.9209C19.5021 52.6839 19.5381 53.9419 17.9911 53.5279C18.3501 54.8689 20.0761 55.1129 20.0921 56.3759L16.9451 55.7639L17.1521 57.3049L29.6071 59.7309L29.4001 58.1879L26.2531 57.5739ZM23.7091 47.7289C23.3081 48.4839 20.7001 47.9699 20.0721 47.0209C20.2911 46.3619 23.3001 46.9479 23.7091 47.7289ZM24.3941 51.3829C23.9541 52.1029 21.0011 51.5139 20.3551 50.5969C20.5471 49.8449 23.9841 50.5139 24.3941 51.3829ZM24.9321 54.4789C24.2981 55.1909 21.4401 54.5779 20.6341 53.6429C20.9031 52.6549 24.3771 53.3309 24.9321 54.4789ZM21.0101 55.5039C21.5691 55.3979 24.4291 55.9539 25.0481 56.2889C25.0961 56.6479 25.1441 57.0079 25.1921 57.3669L21.1551 56.5809C21.1051 56.2219 21.0571 55.8629 21.0101 55.5039Z" fill="#E81C27"/>
<path d="M54.602 33.5779L49.436 35.6859L45.146 43.9229L48.79 58.6559L54.602 33.5779Z" fill="#E6EBEF"/>
<path d="M32.686 63.9999L50.662 40.1549L44.292 36.4419L32.686 39.2709V63.9999Z" fill="#B3C2C6"/>
<path d="M32.686 63.9999L49.896 40.2679L44.32 36.7429L32.686 39.2709V63.9999Z" fill="#E6EBEF"/>
</svg>
