<svg width="64" height="64" viewBox="0 0 64 64" fill="none" xmlns="http://www.w3.org/2000/svg">
<path d="M11.5699 60.112C13.6609 60.112 15.3559 58.4237 15.3559 56.341C15.3559 54.2583 13.6609 52.57 11.5699 52.57C9.47899 52.57 7.78394 54.2583 7.78394 56.341C7.78394 58.4237 9.47899 60.112 11.5699 60.112Z" fill="#1A1626"/>
<path d="M10.302 52.418C11.513 53.625 13.109 56.194 12.502 56.798C11.897 57.402 9.31799 55.813 8.10599 54.605C6.09699 52.603 8.29299 50.416 10.302 52.418Z" fill="#6E8189"/>
<path d="M8.73109 52.74C10.299 52.74 11.5701 52.1069 11.5701 51.326C11.5701 50.5451 10.299 49.912 8.73109 49.912C7.16315 49.912 5.89209 50.5451 5.89209 51.326C5.89209 52.1069 7.16315 52.74 8.73109 52.74Z" fill="#6E8189"/>
<path d="M50.4859 60.112C52.5763 60.112 54.2709 58.4237 54.2709 56.341C54.2709 54.2583 52.5763 52.57 50.4859 52.57C48.3955 52.57 46.7009 54.2583 46.7009 56.341C46.7009 58.4237 48.3955 60.112 50.4859 60.112Z" fill="#1A1626"/>
<path d="M49.2191 52.418C50.4301 53.625 52.0261 56.194 51.4201 56.798C50.8141 57.402 48.2341 55.813 47.0241 54.605C45.0141 52.603 47.2101 50.416 49.2191 52.418Z" fill="#6E8189"/>
<path d="M47.6471 52.74C49.215 52.74 50.4861 52.1069 50.4861 51.326C50.4861 50.5451 49.215 49.912 47.6471 49.912C46.0792 49.912 44.8081 50.5451 44.8081 51.326C44.8081 52.1069 46.0792 52.74 47.6471 52.74Z" fill="#6E8189"/>
<path d="M33.8 38.688L32.989 38.203L51.998 6.52801L53.196 6.39801L33.8 38.688Z" fill="#B3C2C6"/>
<path d="M34.3981 39.157C34.9371 39.157 35.3741 38.72 35.3741 38.181C35.3741 37.642 34.9371 37.205 34.3981 37.205C33.8591 37.205 33.4221 37.642 33.4221 38.181C33.4221 38.72 33.8591 39.157 34.3981 39.157Z" fill="#B3C2C6"/>
<path d="M49.0659 48.497H49.0509L28.2299 49.125C28.1289 49.129 28.0319 49.163 27.9509 49.228L26.0599 50.72C25.9899 50.776 25.9489 50.847 25.9189 50.925H27.3249L28.4169 50.065L49.0809 49.44C49.3419 49.431 49.5479 49.213 49.5399 48.955C49.5319 48.697 49.3219 48.497 49.0659 48.497Z" fill="#99A8AE"/>
<path d="M40.5501 45.668H38.1841C36.8791 45.668 35.8191 44.61 35.8191 43.31V40.913L25.8391 40.009C25.5781 39.985 25.3861 39.755 25.4091 39.496C25.4331 39.236 25.6571 39.05 25.9241 39.069L36.3351 40.011C36.5781 40.033 36.7651 40.238 36.7651 40.482V43.31C36.7651 44.09 37.4021 44.725 38.1851 44.725H40.5511C40.8131 44.725 41.0241 44.936 41.0241 45.197C41.0241 45.458 40.8121 45.668 40.5501 45.668Z" fill="#99A8AE"/>
<path d="M49.053 46.61L27.286 47.239C27.195 47.242 27.106 47.272 27.03 47.323L24.301 49.212L12.135 49.755C12.049 49.759 11.967 49.786 11.896 49.832L10.106 51.022H11.812L12.311 50.69L24.484 50.145C24.572 50.141 24.658 50.112 24.731 50.062L27.455 48.177L49.08 47.553C49.341 47.545 49.548 47.328 49.54 47.068C49.532 46.809 49.312 46.612 49.053 46.61Z" fill="#99A8AE"/>
<path d="M7.42608 53.212C7.27408 53.212 7.12308 53.139 7.03208 53.002C6.88708 52.784 6.94608 52.492 7.16408 52.349L9.05708 51.09C9.13208 51.04 9.22108 51.013 9.31208 51.011L49.0601 50.383C49.3331 50.37 49.5361 50.585 49.5401 50.847C49.5451 51.107 49.3361 51.321 49.0741 51.326L9.46608 51.952L7.68908 53.133C7.60708 53.187 7.51708 53.212 7.42608 53.212Z" fill="#99A8AE"/>
<path d="M49.066 46.132V52.495H50.013V46.132C50.013 45.708 49.899 45.294 49.683 44.933L48.241 42.499C47.593 41.405 46.455 40.685 45.199 40.568L39.319 40.028C38.764 39.984 38.256 40.237 37.971 40.708C37.688 41.178 37.7 41.756 38.002 42.213L40.105 45.403C40.257 45.634 40.337 45.903 40.337 46.179V52.74C40.337 53 40.549 53.212 40.811 53.212C41.073 53.212 41.284 53 41.284 52.74V46.18C41.284 45.72 41.15 45.272 40.896 44.886L38.792 41.696C38.69 41.542 38.687 41.353 38.782 41.194C38.879 41.035 39.05 40.945 39.231 40.967L45.111 41.508C46.065 41.595 46.931 42.146 47.424 42.979L48.868 45.414C48.998 45.629 49.066 45.878 49.066 46.132Z" fill="#99A8AE"/>
<path d="M48.372 31.521C48.372 31.521 46.736 31.433 8.82096 29.842C6.57096 29.747 5.53996 27.908 5.53396 26.239C5.52796 24.363 6.73096 22.405 9.04696 22.291C37.375 20.905 50.936 20.204 50.936 20.204C51.222 20.194 51.42 20.392 51.433 20.652C51.447 20.912 51.246 21.132 50.984 21.147C50.984 21.147 37.422 21.847 9.09296 23.234C7.29096 23.322 6.47596 24.851 6.48096 26.236C6.48496 27.419 7.11196 28.826 8.86196 28.9C28.616 29.728 48.609 30.568 48.609 30.568L48.372 31.521Z" fill="#B3C2C6"/>
<path d="M49.54 53.212H6.95398C6.69198 53.212 6.47998 53 6.47998 52.74C6.47998 52.478 6.69198 52.268 6.95398 52.268H49.54C49.802 52.268 50.014 52.478 50.014 52.74C50.014 53 49.802 53.212 49.54 53.212Z" fill="#99A8AE"/>
<path d="M11.3597 15.9625L10.4167 15.8873L8.70328 37.3713L9.64626 37.4465L11.3597 15.9625Z" fill="#99A8AE"/>
<path d="M20.0364 14.8729L19.095 14.7703L16.5689 37.9577L17.5103 38.0603L20.0364 14.8729Z" fill="#99A8AE"/>
<path d="M29.1689 13.8334L28.231 13.6957L24.569 38.6315L25.5069 38.7693L29.1689 13.8334Z" fill="#99A8AE"/>
<path d="M33.9169 13.137L32.9839 12.9807L28.6239 39.0111L29.557 39.1674L33.9169 13.137Z" fill="#99A8AE"/>
<path d="M43.8506 11.8175L42.926 11.6174L36.8131 39.8535L37.7377 40.0537L43.8506 11.8175Z" fill="#99A8AE"/>
<path d="M48.8885 11.1877L47.9675 10.967L41.0058 40.0117L41.9267 40.2324L48.8885 11.1877Z" fill="#99A8AE"/>
<path d="M38.7903 12.4396L37.8589 12.2628L32.7044 39.4171L33.6358 39.5939L38.7903 12.4396Z" fill="#99A8AE"/>
<path d="M24.5501 14.3284L23.6106 14.2093L20.5576 38.2866L21.4971 38.4057L24.5501 14.3284Z" fill="#99A8AE"/>
<path d="M15.6373 15.3829L14.6943 15.295L12.6103 37.6555L13.5533 37.7434L15.6373 15.3829Z" fill="#99A8AE"/>
<path d="M46.369 40.952C46.354 40.952 46.34 40.951 46.326 40.95L6.33702 37.456C5.59202 37.392 5.03102 36.773 5.06202 36.049L5.82702 17.34C5.85302 16.68 6.36202 16.137 7.03702 16.047L53.737 9.83602C53.896 9.81402 54.047 9.87202 54.153 9.98802C54.257 10.104 54.297 10.264 54.259 10.416L46.827 40.593C46.775 40.806 46.584 40.952 46.369 40.952ZM6.77202 17.378L6.00702 36.087C5.99802 36.308 6.17802 36.495 6.41902 36.517L46.004 39.977L53.173 10.863L7.16302 16.981C6.94402 17.01 6.78002 17.178 6.77202 17.378Z" fill="#B3C2C6"/>
<path d="M54.171 10.775L55.678 4.85602L54.761 4.62402L53.196 10.775H54.171Z" fill="#B3C2C6"/>
<path d="M58.643 2.03697C55.123 2.92097 51.998 6.52797 51.998 6.52797L55.08 7.21197C55.08 7.21197 56.306 5.77997 59.185 4.51297C60.583 3.89697 60.04 1.68697 58.643 2.03697Z" fill="#E81C27"/>
<path d="M9.67709 62C11.7675 62 13.4621 60.3112 13.4621 58.228C13.4621 56.1448 11.7675 54.456 9.67709 54.456C7.58669 54.456 5.89209 56.1448 5.89209 58.228C5.89209 60.3112 7.58669 62 9.67709 62Z" fill="url(#paint0_radial)"/>
<path d="M8.41003 54.304C9.62203 55.511 11.217 58.08 10.609 58.685C10.005 59.289 7.42503 57.7 6.21303 56.491C4.20503 54.488 6.40103 52.302 8.41003 54.304Z" fill="#99A8AE"/>
<path d="M6.839 54.627C8.40694 54.627 9.678 53.9935 9.678 53.212C9.678 52.4305 8.40694 51.797 6.839 51.797C5.27106 51.797 4 52.4305 4 53.212C4 53.9935 5.27106 54.627 6.839 54.627Z" fill="url(#paint1_linear)"/>
<path d="M48.594 58.228C48.594 56.145 50.291 54.456 52.379 54.456C54.471 54.456 56.165 56.145 56.165 58.228C56.165 60.311 54.471 62 52.379 62C50.291 62 48.594 60.311 48.594 58.228Z" fill="url(#paint2_radial)"/>
<path d="M51.1109 54.304C52.3229 55.511 53.9179 58.08 53.3119 58.685C52.7049 59.289 50.1259 57.7 48.9159 56.491C46.9059 54.488 49.1019 52.302 51.1109 54.304Z" fill="#99A8AE"/>
<path d="M49.5399 54.627C51.1079 54.627 52.3789 53.9935 52.3789 53.212C52.3789 52.4305 51.1079 51.797 49.5399 51.797C47.972 51.797 46.7009 52.4305 46.7009 53.212C46.7009 53.9935 47.972 54.627 49.5399 54.627Z" fill="url(#paint3_linear)"/>
<defs>
<radialGradient id="paint0_radial" cx="0" cy="0" r="1" gradientUnits="userSpaceOnUse" gradientTransform="translate(9.68583 58.2275) rotate(180) scale(3.7852 3.772)">
<stop stop-color="#4E5E67"/>
<stop offset="0.4133" stop-color="#434C57"/>
<stop offset="1" stop-color="#302C3B"/>
</radialGradient>
<linearGradient id="paint1_linear" x1="6.8389" y1="51.7979" x2="6.8389" y2="54.627" gradientUnits="userSpaceOnUse">
<stop stop-color="#B3C2C6"/>
<stop offset="0.2131" stop-color="#AEBDC1"/>
<stop offset="0.4787" stop-color="#A0ADB2"/>
<stop offset="0.771" stop-color="#889499"/>
<stop offset="1" stop-color="#717B80"/>
</linearGradient>
<radialGradient id="paint2_radial" cx="0" cy="0" r="1" gradientUnits="userSpaceOnUse" gradientTransform="translate(52.3783 58.2275) scale(3.7857 3.7725)">
<stop stop-color="#4E5E67"/>
<stop offset="0.4133" stop-color="#434C57"/>
<stop offset="1" stop-color="#302C3B"/>
</radialGradient>
<linearGradient id="paint3_linear" x1="49.5399" y1="51.7979" x2="49.5399" y2="54.627" gradientUnits="userSpaceOnUse">
<stop stop-color="#B3C2C6"/>
<stop offset="0.2131" stop-color="#AEBDC1"/>
<stop offset="0.4787" stop-color="#A0ADB2"/>
<stop offset="0.771" stop-color="#889499"/>
<stop offset="1" stop-color="#717B80"/>
</linearGradient>
</defs>
</svg>
