<svg width="64" height="64" viewBox="0 0 64 64" fill="none" xmlns="http://www.w3.org/2000/svg">
<path d="M54.3591 34.9449C50.4141 38.3429 14.2711 28.2649 13.3961 25.1289C6.11108 -3.97606 71.4181 18.6199 54.3591 34.9449Z" fill="#CFD8DD"/>
<path d="M26.6319 22.074C25.8289 21.017 20.7039 22.56 20.7409 24.117C21.7689 25.39 26.6319 23.382 26.6319 22.074Z" fill="#F2F5F7"/>
<path d="M22.82 26.213C22.808 24.871 17.82 22.935 16.929 24.198C16.996 25.853 22.049 27.257 22.82 26.213Z" fill="#E6E9EB"/>
<path d="M27.7759 30.0471C27.7869 28.7141 23.0609 26.8731 22.1909 28.1451C22.2279 29.7871 27.0229 31.0991 27.7759 30.0471Z" fill="#F2F5F7"/>
<path d="M22.4249 28.111C22.4129 26.77 17.4249 24.834 16.5339 26.097C16.6009 27.751 21.6529 29.156 22.4249 28.111Z" fill="#F2F5F7"/>
<path d="M19.9259 17.9481C18.8399 17.2111 14.4609 20.3581 14.9769 21.8221C16.3439 22.6901 20.3319 19.1891 19.9259 17.9481Z" fill="#F2F5F7"/>
<path d="M29.6319 31.4641C30.3509 30.3451 27.3019 25.8231 25.8819 26.3531C25.0379 27.7651 28.4289 31.8811 29.6319 31.4641Z" fill="#E6E9EB"/>
<path d="M33.341 32.2749C33.733 30.9999 29.595 27.4899 28.369 28.3899C27.934 29.9799 32.294 33.0079 33.341 32.2749Z" fill="#F2F5F7"/>
<path d="M39.14 32.969C38.994 31.642 33.817 30.1199 33.051 31.4459C33.281 33.0789 38.471 34.067 39.14 32.969Z" fill="#E6E9EB"/>
<path d="M41.4241 34.262C41.9411 33.034 38.1751 29.115 36.8661 29.884C36.2741 31.42 40.3091 34.882 41.4241 34.262Z" fill="#F2F5F7"/>
<path d="M38.6251 30.1051C38.0581 28.9001 32.6771 29.1941 32.3821 30.7011C33.1281 32.1691 38.3491 31.3661 38.6251 30.1051Z" fill="#F2F5F7"/>
<path d="M41.459 31.3961C41.746 30.0921 37.337 26.9431 36.188 27.9421C35.884 29.5641 40.476 32.2151 41.459 31.3961Z" fill="#E6E9EB"/>
<path d="M41.942 34.446C43.181 34.001 43.465 28.53 42.022 28.073C40.509 28.672 40.738 34.033 41.942 34.446Z" fill="#E6E9EB"/>
<path d="M41.87 33.1041C42.766 34.0821 47.813 32.1631 47.65 30.6341C46.506 29.4631 41.762 31.8171 41.87 33.1041Z" fill="#F2F5F7"/>
<path d="M42.2451 33.8019C42.5091 34.9559 47.2231 35.7519 47.7641 34.5059C47.3951 33.0899 42.7231 32.7649 42.2451 33.8019Z" fill="#F2F5F7"/>
<path d="M47.8701 34.0829C48.1341 35.2369 52.8481 36.0329 53.3891 34.7859C53.0201 33.3709 48.3481 33.0449 47.8701 34.0829Z" fill="#F2F5F7"/>
<path d="M45.2429 32.1801C44.9509 33.3261 48.7649 36.2531 49.8129 35.4031C50.1319 33.9751 46.1399 31.4841 45.2429 32.1801Z" fill="#E6E9EB"/>
<path d="M56.32 32.097C55.363 31.419 51.339 34.038 51.758 35.332C52.965 36.132 56.649 33.192 56.32 32.097Z" fill="#E6E9EB"/>
<path d="M37.276 26.7281C36.246 25.8991 31.539 28.5671 31.925 30.0521C33.23 31.0361 37.573 27.9831 37.276 26.7281Z" fill="#E6E9EB"/>
<path d="M35.8269 26.5689C34.9689 25.5559 29.8519 27.2769 29.9579 28.8099C31.0569 30.0259 35.8869 27.8579 35.8269 26.5689Z" fill="#F2F5F7"/>
<path d="M17.2101 23.491C18.6801 24.009 22.4851 19.934 21.4061 18.57C19.5781 17.984 16.3281 22.326 17.2101 23.491Z" fill="#F2F5F7"/>
<path d="M14.613 25.8541C15.761 25.2141 15.17 19.7501 13.675 19.5281C12.279 20.3591 13.362 25.6341 14.613 25.8541Z" fill="#F2F5F7"/>
<path d="M19.489 22.4111C20.3 23.4601 25.411 21.8691 25.36 20.3121C24.321 19.0491 19.478 21.1041 19.489 22.4111Z" fill="#E6E9EB"/>
<path d="M21.929 27.65C22.742 28.699 27.851 27.107 27.804 25.551C26.763 24.289 21.919 26.34 21.929 27.65Z" fill="#F2F5F7"/>
<path d="M25.793 23.2851C25.133 24.4411 28.404 28.7911 29.795 28.1871C30.566 26.7321 26.975 22.8061 25.793 23.2851Z" fill="#F2F5F7"/>
<path d="M26.323 20.3009C25.474 21.3219 28.339 26.1289 29.419 25.8399C30.429 24.5459 27.569 20.0399 26.323 20.3009Z" fill="#E6E9EB"/>
<path d="M30.0639 21.77C28.8859 22.374 29.3009 27.813 30.7969 28.074C32.2269 27.282 31.3159 22.018 30.0639 21.77Z" fill="#F2F5F7"/>
<path d="M18.425 22.1989C18.079 23.4929 22.331 26.8209 23.525 25.8649C23.903 24.2539 19.446 21.4209 18.425 22.1989Z" fill="#F2F5F7"/>
<path d="M16.049 21.332C14.745 21.731 14.626 26.4 16.176 26.769C17.765 26.233 17.341 21.665 16.049 21.332Z" fill="#E6E9EB"/>
<path d="M26.241 20.44C24.937 20.419 22.83 25.489 24.02 26.437C25.632 26.412 27.221 21.261 26.241 20.44Z" fill="#E6E9EB"/>
<path d="M35.233 23.1041C34.106 22.4391 29.832 25.8151 30.414 27.2351C31.833 28.0131 35.694 24.3071 35.233 23.1041Z" fill="#E6E9EB"/>
<path d="M12.7009 21.4119C11.4309 21.9949 12.1719 17.0099 12.7009 16.3939C31.6249 4.22188 56.7869 25.7539 61.9999 30.4059C40.3889 42.7479 31.4769 12.7909 12.7009 21.4119Z" fill="#F76F00"/>
<path d="M12.7009 16.396C20.6699 3.73496 37.6389 3.73496 46.7619 10.535C55.1639 16.796 56.7869 25.754 61.9999 30.406C41.4509 37.586 31.6249 8.27196 12.7009 16.396Z" fill="url(#paint0_linear)"/>
<path opacity="0.2" d="M54.359 19.061C43.494 25.583 49.839 30.868 46.468 32.641C52.186 30.625 45.195 27.575 54.359 19.061Z" fill="white"/>
<path opacity="0.2" d="M49.324 12.7141C35.543 18.3151 41.594 25.7161 38.625 28.8301C43.045 25.2681 38.738 20.5221 49.324 12.7141Z" fill="white"/>
<path opacity="0.2" d="M42.1351 7.93506C28.3561 16.3851 34.6411 21.1231 31.6721 24.2381C36.0921 20.6751 31.7401 17.7551 42.1351 7.93506Z" fill="white"/>
<path opacity="0.2" d="M33.57 6.03394C21.05 16.2459 28.072 17.7339 25.105 20.8509C29.527 17.2879 24.707 16.9689 33.57 6.03394Z" fill="white"/>
<path opacity="0.2" d="M25.309 6.96411C15.057 16.1701 19.948 13.3571 18.104 19.8991C22.549 11.8861 17.4 16.1701 25.309 6.96411Z" fill="white"/>
<path d="M44.3591 57.3099C40.4141 60.7069 4.27108 50.6289 3.39608 47.4929C-3.88892 18.3879 61.4181 40.9839 44.3591 57.3099Z" fill="#CFD8DD"/>
<path d="M16.6319 44.4381C15.8289 43.3821 10.7039 44.9241 10.7409 46.4811C11.7689 47.7531 16.6319 45.7461 16.6319 44.4381Z" fill="#F2F5F7"/>
<path d="M12.82 48.5761C12.808 47.2351 7.81996 45.2991 6.92896 46.5621C6.99596 48.2161 12.049 49.6211 12.82 48.5761Z" fill="#E6E9EB"/>
<path d="M17.7759 52.411C17.7869 51.078 13.0609 49.236 12.1909 50.508C12.2279 52.151 17.0229 53.463 17.7759 52.411Z" fill="#F2F5F7"/>
<path d="M12.4249 50.476C12.4129 49.134 7.42494 47.198 6.53394 48.461C6.60094 50.115 11.6529 51.52 12.4249 50.476Z" fill="#F2F5F7"/>
<path d="M9.92589 40.3131C8.83989 39.5751 4.4609 42.7231 4.9769 44.1871C6.3439 45.0551 10.3319 41.5531 9.92589 40.3131Z" fill="#F2F5F7"/>
<path d="M19.6319 53.8281C20.3509 52.7091 17.3019 48.1871 15.8819 48.7171C15.0379 50.1291 18.4289 54.2451 19.6319 53.8281Z" fill="#E6E9EB"/>
<path d="M23.341 54.6389C23.733 53.3649 19.595 49.8539 18.369 50.7539C17.934 52.3449 22.294 55.3709 23.341 54.6389Z" fill="#F2F5F7"/>
<path d="M29.14 55.333C28.994 54.006 23.817 52.483 23.051 53.809C23.281 55.443 28.471 56.432 29.14 55.333Z" fill="#E6E9EB"/>
<path d="M31.4241 56.6251C31.9411 55.3981 28.1751 51.4791 26.8661 52.2471C26.2741 53.7841 30.3091 57.2461 31.4241 56.6251Z" fill="#F2F5F7"/>
<path d="M28.6251 52.4701C28.0581 51.2651 22.6771 51.5591 22.3821 53.0661C23.1281 54.5321 28.3491 53.7301 28.6251 52.4701Z" fill="#F2F5F7"/>
<path d="M31.459 53.7599C31.746 52.4569 27.337 49.3069 26.188 50.3069C25.884 51.9289 30.476 54.5779 31.459 53.7599Z" fill="#E6E9EB"/>
<path d="M31.942 56.81C33.181 56.366 33.465 50.895 32.022 50.437C30.509 51.035 30.738 56.396 31.942 56.81Z" fill="#E6E9EB"/>
<path d="M31.87 55.4679C32.766 56.4449 37.813 54.5259 37.65 52.9979C36.506 51.8259 31.762 54.1819 31.87 55.4679Z" fill="#F2F5F7"/>
<path d="M32.2451 56.1659C32.5091 57.3199 37.2231 58.1159 37.7641 56.8689C37.3951 55.4539 32.7231 55.1279 32.2451 56.1659Z" fill="#F2F5F7"/>
<path d="M37.8701 56.4459C38.1341 57.6009 42.8481 58.3969 43.3891 57.1499C43.0201 55.7339 38.3481 55.4089 37.8701 56.4459Z" fill="#F2F5F7"/>
<path d="M35.2429 54.5441C34.9509 55.6901 38.7649 58.6161 39.8129 57.7661C40.1319 56.3381 36.1399 53.8491 35.2429 54.5441Z" fill="#E6E9EB"/>
<path d="M46.32 54.46C45.363 53.783 41.339 56.402 41.758 57.696C42.965 58.495 46.649 55.556 46.32 54.46Z" fill="#E6E9EB"/>
<path d="M27.276 49.0919C26.246 48.2629 21.539 50.9299 21.925 52.4149C23.23 53.3999 27.573 50.3479 27.276 49.0919Z" fill="#E6E9EB"/>
<path d="M25.8269 48.9331C24.9689 47.9201 19.8519 49.6421 19.9579 51.1741C21.0569 52.3911 25.8869 50.2231 25.8269 48.9331Z" fill="#F2F5F7"/>
<path d="M7.21008 45.855C8.68008 46.372 12.4851 42.298 11.4061 40.934C9.57808 40.348 6.32808 44.689 7.21008 45.855Z" fill="#F2F5F7"/>
<path d="M4.61303 48.2171C5.76103 47.5781 5.17003 42.1131 3.67503 41.8921C2.27903 42.7241 3.36203 47.9981 4.61303 48.2171Z" fill="#F2F5F7"/>
<path d="M9.48903 44.775C10.3 45.823 15.411 44.233 15.36 42.676C14.321 41.413 9.47803 43.467 9.48903 44.775Z" fill="#E6E9EB"/>
<path d="M11.929 50.0141C12.742 51.0641 17.851 49.4721 17.804 47.9151C16.763 46.6521 11.919 48.7031 11.929 50.0141Z" fill="#F2F5F7"/>
<path d="M15.793 45.6479C15.133 46.8049 18.404 51.1539 19.795 50.5499C20.566 49.0969 16.975 45.1689 15.793 45.6479Z" fill="#F2F5F7"/>
<path d="M16.323 42.665C15.474 43.686 18.339 48.493 19.419 48.204C20.429 46.909 17.569 42.403 16.323 42.665Z" fill="#E6E9EB"/>
<path d="M20.0639 44.1331C18.8859 44.7371 19.3009 50.1771 20.7969 50.4371C22.2269 49.6461 21.3159 44.3811 20.0639 44.1331Z" fill="#F2F5F7"/>
<path d="M8.42498 44.563C8.07898 45.858 12.331 49.185 13.525 48.229C13.903 46.617 9.44598 43.784 8.42498 44.563Z" fill="#F2F5F7"/>
<path d="M6.04899 43.696C4.74499 44.095 4.62599 48.763 6.17599 49.132C7.76499 48.598 7.34099 44.028 6.04899 43.696Z" fill="#E6E9EB"/>
<path d="M16.241 42.805C14.937 42.784 12.83 47.853 14.02 48.802C15.632 48.775 17.221 43.625 16.241 42.805Z" fill="#E6E9EB"/>
<path d="M25.233 45.4681C24.106 44.8031 19.832 48.1801 20.414 49.5991C21.833 50.3761 25.694 46.6701 25.233 45.4681Z" fill="#E6E9EB"/>
<path d="M2.70094 43.775C1.43094 44.359 2.17194 39.374 2.70094 38.758C21.6249 26.586 46.7869 48.117 51.9999 52.771C30.3889 65.112 21.4769 35.155 2.70094 43.775Z" fill="#C21413"/>
<path d="M2.70093 38.7609C10.6699 26.0999 27.6389 26.0999 36.7619 32.8989C45.1639 39.1589 46.7869 48.1169 51.9999 52.7709C31.4509 59.9499 21.6249 30.6359 2.70093 38.7609Z" fill="url(#paint1_linear)"/>
<path opacity="0.2" d="M44.359 41.425C33.494 47.947 39.839 53.2321 36.468 55.0041C42.186 52.9891 35.195 49.939 44.359 41.425Z" fill="white"/>
<path opacity="0.2" d="M39.324 35.0769C25.543 40.6789 31.594 48.0799 28.625 51.1939C33.045 47.6309 28.738 42.8859 39.324 35.0769Z" fill="white"/>
<path opacity="0.2" d="M32.1351 30.2991C18.3561 38.7481 24.6411 43.4861 21.6721 46.6011C26.0921 43.0391 21.7401 40.1181 32.1351 30.2991Z" fill="white"/>
<path opacity="0.2" d="M23.57 28.3979C11.05 38.6089 18.072 40.0979 15.105 43.2149C19.527 39.6519 14.707 39.3319 23.57 28.3979Z" fill="white"/>
<path opacity="0.2" d="M15.309 29.3279C5.057 38.5339 9.948 35.7209 8.104 42.2629C12.549 34.2499 7.4 38.5339 15.309 29.3279Z" fill="white"/>
<defs>
<linearGradient id="paint0_linear" x1="37.3505" y1="31.5493" x2="37.3505" y2="5.99996" gradientUnits="userSpaceOnUse">
<stop stop-color="#FF8226"/>
<stop offset="0.6424" stop-color="#FFA828"/>
<stop offset="1" stop-color="#FFB829"/>
</linearGradient>
<linearGradient id="paint1_linear" x1="27.351" y1="53.913" x2="27.351" y2="28.3646" gradientUnits="userSpaceOnUse">
<stop stop-color="#DE1212"/>
<stop offset="0.1434" stop-color="#E11E18"/>
<stop offset="0.7091" stop-color="#EA472C"/>
<stop offset="1" stop-color="#ED5734"/>
</linearGradient>
</defs>
</svg>
