<svg width="64" height="64" viewBox="0 0 64 64" fill="none" xmlns="http://www.w3.org/2000/svg">
<path d="M32.0039 30.9751C59.1309 36.4301 37.8409 53.9731 25.5099 42.4161C4.21291 38.2921 20.6629 15.4461 32.0039 30.9751Z" fill="#2B4D28"/>
<path d="M18.7729 32.633C22.3879 40.222 13.7759 41.425 13.7759 57.124C14.6709 62.249 25.9479 64.03 28.6879 59.044C24.8059 51.68 33.1949 43.883 39.5459 43.49C46.8309 42.993 43.3649 40.661 42.9759 39.793C38.2309 39.438 32.3399 40.184 27.8769 43.064C29.6969 39.754 33.6249 36.945 38.3329 34.772C26.3779 25.766 29.9829 34.914 24.6269 39.255C22.9839 28.329 22.6989 29.572 18.7729 32.633Z" fill="#92C932"/>
<path d="M27.875 43.064C26.912 43.849 26.125 45.982 26.125 46.483C30.339 40.465 43.151 40.858 42.973 39.79C39.082 38.758 29.804 40.609 27.875 43.064Z" fill="#7AB51D"/>
<path d="M13.7759 57.124C14.6679 62.249 25.9469 64.03 28.6879 59.044C26.5899 54.068 15.7029 54.671 13.7759 57.124Z" fill="#7AB51D"/>
<path d="M15.2739 57.445C14.3099 58.229 18.1919 57.905 18.1919 58.406C17.3099 55.45 16.8689 53.992 17.4049 50.677C15.8329 53.14 17.2009 54.991 15.2739 57.445Z" fill="#7AB51D"/>
<path d="M17.2009 59.9719C16.2379 60.7569 20.1189 60.4349 20.1189 60.9339C19.2359 57.9779 18.9509 55.3819 19.4879 52.0649C17.9179 54.5249 19.1279 57.5189 17.2009 59.9719Z" fill="#7AB51D"/>
<path d="M27.1402 58.747C28.1022 59.533 24.2222 59.211 24.2222 59.709C25.1032 56.752 24.2222 54.796 27.2902 50.84C25.5542 55.008 25.2102 56.294 27.1402 58.747Z" fill="#7AB51D"/>
<path d="M21.6998 41.464C20.7358 42.247 23.6638 40.396 24.6268 39.256C24.4488 33.06 22.2438 25.151 18.9508 31.958C16.8318 31.395 19.8358 34.548 19.6578 36.053C21.0658 36.789 21.8418 34.973 21.8418 34.973C23.2598 38.364 22.2658 40.74 21.6998 41.464Z" fill="#7AB51D"/>
<path d="M14.8379 57.34C15.6029 61.735 25.2759 63.262 27.6239 58.986C25.8269 54.721 16.4919 55.236 14.8379 57.34Z" fill="#C5DCA8"/>
<path d="M14.9891 33.6481C11.9511 35.4521 6.5741 34.9781 6.5161 29.4131C3.5741 27.4701 2.4511 21.0321 7.4131 18.9021C16.5331 -2.58794 36.6191 36.7871 14.9891 33.6481Z" fill="url(#paint0_radial)"/>
<path d="M17.5001 26.446C13.9971 26.932 9.12311 20.565 12.0531 15.938C10.2371 11.705 11.3661 5.41997 17.1601 5.93797C18.2391 2.05097 26.4061 0.581968 27.1291 3.64797C49.4441 2.21997 29.5851 38.462 17.5001 26.446Z" fill="url(#paint1_radial)"/>
<path d="M57.7671 23.145C67.0451 42.936 10.1871 31.342 31.5641 12.712C32.0831 7.52799 36.5801 2.81799 44.1661 4.83399C47.7841 2.68899 53.6901 5.49699 54.9571 10.553C59.5411 12.409 60.3661 18.931 57.7671 23.145Z" fill="url(#paint2_radial)"/>
<path d="M52.3499 47.194C51.4719 51.931 41.1269 50.257 41.4979 45.122C30.5389 35.872 40.3729 23.565 48.2429 26.709C51.8749 24.817 57.1069 26.501 57.2319 31.729C59.7309 32.542 61.0839 37.778 58.9169 40.628C60.0899 42.989 55.5489 47.801 52.3499 47.194Z" fill="url(#paint3_radial)"/>
<path d="M45.649 29.1651C47.463 35.1641 41.044 41.8381 34.971 38.7851C31.022 39.8311 25.69 38.9251 24.799 34.5911C22.203 33.4791 19.402 28.3071 23.38 24.4601C23.726 19.6771 28.169 17.0211 33.807 18.8061C37.606 17.2291 42.973 18.9001 42.483 21.9501C45.811 22.3661 47.788 26.4461 45.649 29.1651Z" fill="url(#paint4_radial)"/>
<path opacity="0.3" d="M22.625 4.667C22.625 6 20.625 6 20.625 4.667C20.625 3.334 22.625 3.333 22.625 4.667Z" fill="#6CC265"/>
<path opacity="0.3" d="M23.394 8.70397C23.394 10.037 21.394 10.037 21.394 8.70397C21.394 7.37097 23.394 7.37097 23.394 8.70397Z" fill="#6CC265"/>
<path opacity="0.3" d="M22.394 12.162C22.394 13.495 20.394 13.495 20.394 12.162C20.394 10.829 22.394 10.829 22.394 12.162Z" fill="#2B4D28"/>
<path opacity="0.3" d="M19.5132 14.446C19.5132 15.779 17.5132 15.779 17.5132 14.446C17.5132 13.113 19.5132 13.113 19.5132 14.446Z" fill="#6CC265"/>
<path opacity="0.3" d="M14.334 10.255C14.334 11.588 12.334 11.588 12.334 10.255C12.334 8.922 14.334 8.922 14.334 10.255Z" fill="#6CC265"/>
<path opacity="0.3" d="M26.125 5.83801C26.125 7.17101 24.125 7.17101 24.125 5.83801C24.125 4.50501 26.125 4.50501 26.125 5.83801Z" fill="#2B4D28"/>
<path opacity="0.3" d="M16.5 8.19799C16.5 9.53099 14.5 9.53099 14.5 8.19799C14.5 6.86499 16.5 6.86499 16.5 8.19799Z" fill="#2B4D28"/>
<path opacity="0.3" d="M15.8428 13.162C15.8428 14.495 13.8428 14.495 13.8428 13.162C13.8428 11.829 15.8428 11.829 15.8428 13.162Z" fill="#2B4D28"/>
<path opacity="0.3" d="M26.8569 9.19799C26.8569 10.531 24.8569 10.531 24.8569 9.19799C24.8569 7.86499 26.8569 7.86499 26.8569 9.19799Z" fill="#2B4D28"/>
<path opacity="0.3" d="M15.5 16.349C15.5 17.682 13.5 17.682 13.5 16.349C13.5 15.016 15.5 15.016 15.5 16.349Z" fill="#2B4D28"/>
<path opacity="0.3" d="M20.3838 7.19799C20.3838 8.53099 18.3838 8.53099 18.3838 7.19799C18.3838 5.86499 20.3838 5.86499 20.3838 7.19799Z" fill="#2B4D28"/>
<path opacity="0.3" d="M19.123 10.255C19.123 11.588 17.123 11.588 17.123 10.255C17.123 8.922 19.123 8.922 19.123 10.255Z" fill="#2B4D28"/>
<path opacity="0.3" d="M46.9309 9.91198C46.9309 11.245 44.9309 11.245 44.9309 9.91198C44.9309 8.57898 46.9309 8.57898 46.9309 9.91198Z" fill="#6CC265"/>
<path opacity="0.3" d="M42.741 13.162C42.741 14.495 40.741 14.495 40.741 13.162C40.741 11.829 42.741 11.829 42.741 13.162Z" fill="#6CC265"/>
<path opacity="0.3" d="M41.3621 7.19799C41.3621 8.53099 39.3621 8.53099 39.3621 7.19799C39.3621 5.86499 41.3621 5.86499 41.3621 7.19799Z" fill="#6CC265"/>
<path opacity="0.3" d="M37.011 11.662C37.011 12.995 35.011 12.995 35.011 11.662C35.011 10.329 37.011 10.329 37.011 11.662Z" fill="#6CC265"/>
<path opacity="0.3" d="M43.6851 10.255C43.6851 11.588 41.6851 11.588 41.6851 10.255C41.6851 8.922 43.6851 8.922 43.6851 10.255Z" fill="#2B4D28"/>
<path opacity="0.3" d="M39.011 14.446C39.011 15.779 37.011 15.779 37.011 14.446C37.011 13.113 39.011 13.113 39.011 14.446Z" fill="#2B4D28"/>
<path opacity="0.3" d="M45.6851 6.667C45.6851 8 43.6851 8 43.6851 6.667C43.6851 5.334 45.6851 5.333 45.6851 6.667Z" fill="#2B4D28"/>
<path opacity="0.3" d="M51.9451 8.432C51.9451 9.765 49.9451 9.765 49.9451 8.432C49.9451 7.099 51.9451 7.099 51.9451 8.432Z" fill="#6CC265"/>
<path opacity="0.3" d="M40.3621 10.432C40.3621 11.765 38.3621 11.765 38.3621 10.432C38.3621 9.099 40.3621 9.099 40.3621 10.432Z" fill="#2B4D28"/>
<path opacity="0.3" d="M37.7791 7.83801C37.7791 9.17101 35.7791 9.17101 35.7791 7.83801C35.7791 6.50501 37.7791 6.50501 37.7791 7.83801Z" fill="#2B4D28"/>
<path opacity="0.3" d="M34.55 13.662C34.55 14.995 32.55 14.995 32.55 13.662C32.55 12.329 34.55 12.329 34.55 13.662Z" fill="#2B4D28"/>
<path opacity="0.3" d="M45.9309 13.037C45.9309 14.37 43.9309 14.37 43.9309 13.037C43.9309 11.704 45.9309 11.704 45.9309 13.037Z" fill="#2B4D28"/>
<path opacity="0.3" d="M48.873 7.19799C48.873 8.53099 46.873 8.53099 46.873 7.19799C46.873 5.86499 48.873 5.86499 48.873 7.19799Z" fill="#2B4D28"/>
<path opacity="0.3" d="M32.623 29.338C32.623 30.671 30.623 30.671 30.623 29.338C30.623 28.005 32.623 28.005 32.623 29.338Z" fill="#6CC265"/>
<path opacity="0.3" d="M27.7202 23.162C27.7202 24.495 25.7202 24.495 25.7202 23.162C25.7202 21.829 27.7202 21.829 27.7202 23.162Z" fill="#2B4D28"/>
<path opacity="0.3" d="M7.74805 22.162C7.74805 23.495 5.74805 23.495 5.74805 22.162C5.74805 20.829 7.74805 20.829 7.74805 22.162Z" fill="#6CC265"/>
<path opacity="0.3" d="M10.5288 19.63C10.5288 20.963 8.52881 20.963 8.52881 19.63C8.52881 18.297 10.5288 18.297 10.5288 19.63Z" fill="#6CC265"/>
<path opacity="0.3" d="M10.5288 23.162C10.5288 24.495 8.52881 24.495 8.52881 23.162C8.52881 21.829 10.5288 21.829 10.5288 23.162Z" fill="#2B4D28"/>
<path opacity="0.3" d="M9.77978 27.958C9.77978 29.291 7.77979 29.291 7.77979 27.958C7.77979 26.625 9.77978 26.625 9.77978 27.958Z" fill="#2B4D28"/>
<path opacity="0.3" d="M11.9658 25.631C11.9658 26.964 9.96582 26.964 9.96582 25.631C9.96582 24.298 11.9658 24.298 11.9658 25.631Z" fill="#6CC265"/>
<path opacity="0.3" d="M7.24805 25.958C7.24805 27.291 5.24805 27.291 5.24805 25.958C5.24805 24.625 7.24805 24.625 7.24805 25.958Z" fill="#2B4D28"/>
<path opacity="0.3" d="M35.55 20.98C35.55 22.313 33.55 22.313 33.55 20.98C33.55 19.647 35.55 19.647 35.55 20.98Z" fill="#6CC265"/>
<path opacity="0.3" d="M51.4939 31.917C51.4939 33.25 49.4939 33.25 49.4939 31.917C49.4939 30.584 51.4939 30.584 51.4939 31.917Z" fill="#6CC265"/>
<path opacity="0.3" d="M50.1819 28.891C50.1819 30.224 48.1819 30.224 48.1819 28.891C48.1819 27.558 50.1819 27.558 50.1819 28.891Z" fill="#2B4D28"/>
<path opacity="0.3" d="M54.5959 28.891C54.5959 30.224 52.5959 30.224 52.5959 28.891C52.5959 27.558 54.5959 27.558 54.5959 28.891Z" fill="#6CC265"/>
<path opacity="0.3" d="M49.043 34.589C49.043 35.922 47.043 35.922 47.043 34.589C47.043 33.256 49.043 33.256 49.043 34.589Z" fill="#2B4D28"/>
<path opacity="0.3" d="M48.1819 31.361C48.1819 32.694 46.1819 32.694 46.1819 31.361C46.1819 30.028 48.1819 30.028 48.1819 31.361Z" fill="#2B4D28"/>
<path opacity="0.3" d="M54.821 32.361C54.821 33.694 52.821 33.694 52.821 32.361C52.821 31.028 54.821 31.028 54.821 32.361Z" fill="#2B4D28"/>
<path opacity="0.3" d="M52.1819 35.495C52.1819 36.828 50.1819 36.828 50.1819 35.495C50.1819 34.162 52.1819 34.162 52.1819 35.495Z" fill="#2B4D28"/>
<path opacity="0.3" d="M54.821 36.589C54.821 37.922 52.821 37.922 52.821 36.589C52.821 35.256 54.821 35.256 54.821 36.589Z" fill="#2B4D28"/>
<path opacity="0.3" d="M57.2229 33.918C57.2229 35.251 55.2229 35.251 55.2229 33.918C55.2229 32.584 57.2229 32.584 57.2229 33.918Z" fill="#6CC265"/>
<path opacity="0.3" d="M29.7202 20.63C29.7202 21.963 27.7202 21.963 27.7202 20.63C27.7202 19.297 29.7202 19.297 29.7202 20.63Z" fill="#6CC265"/>
<path opacity="0.3" d="M33.342 26.338C33.342 27.671 31.342 27.671 31.342 26.338C31.342 25.005 33.342 25.005 33.342 26.338Z" fill="#2B4D28"/>
<path opacity="0.3" d="M38.407 23.854C38.407 25.187 36.407 25.187 36.407 23.854C36.407 22.521 38.407 22.521 38.407 23.854Z" fill="#2B4D28"/>
<path opacity="0.3" d="M37.1699 27.338C37.1699 28.671 35.1699 28.671 35.1699 27.338C35.1699 26.005 37.1699 26.005 37.1699 27.338Z" fill="#6CC265"/>
<path opacity="0.3" d="M35.1699 23.854C35.1699 25.187 33.1699 25.187 33.1699 23.854C33.1699 22.521 35.1699 22.521 35.1699 23.854Z" fill="#2B4D28"/>
<path opacity="0.3" d="M31.1689 23.646C31.1689 24.979 29.1689 24.979 29.1689 23.646C29.1689 22.313 31.1689 22.313 31.1689 23.646Z" fill="#6CC265"/>
<path opacity="0.3" d="M27.1968 29.891C27.1968 31.224 25.1968 31.224 25.1968 29.891C25.1968 28.558 27.1968 28.558 27.1968 29.891Z" fill="#2B4D28"/>
<path opacity="0.3" d="M33.1699 21.162C33.1699 22.495 31.1699 22.495 31.1699 21.162C31.1699 19.829 33.1699 19.829 33.1699 21.162Z" fill="#2B4D28"/>
<path opacity="0.3" d="M29.7202 26.958C29.7202 28.291 27.7202 28.291 27.7202 26.958C27.7202 25.625 29.7202 25.625 29.7202 26.958Z" fill="#2B4D28"/>
<path opacity="0.3" d="M27.125 26.162C27.125 27.495 25.125 27.495 25.125 26.162C25.125 24.829 27.125 24.829 27.125 26.162Z" fill="#6CC265"/>
<path d="M14.769 49.1781C14.176 48.9181 14.713 48.188 14.557 47.634C14.354 46.915 15.42 48.161 16.576 47.398C17.891 46.53 17.409 48.543 19.701 48.037C21.982 47.533 25.458 49.2431 23.685 49.1781C17.716 48.9581 15.946 49.6941 14.769 49.1781Z" fill="#C5DCA8"/>
<path d="M14.5808 49.537C13.9878 49.277 14.7368 48.293 14.5808 47.739C14.3778 47.02 15.2788 48.466 16.4328 48.016C17.9018 47.445 17.2058 49.061 19.4978 48.555C21.7788 48.051 25.4578 49.242 23.6858 49.176C17.7158 48.958 15.7578 50.054 14.5808 49.537Z" fill="#7AB51D"/>
<path d="M29.6808 49.416C30.1218 49.395 30.6888 49.202 30.8388 48.708C31.0438 48.036 29.9798 48.597 29.8818 47.816C29.7718 46.929 28.7938 48.35 27.9958 47.455C27.2028 46.564 24.5068 46.809 25.3968 47.205C28.3978 48.543 28.8058 49.458 29.6808 49.416Z" fill="#C5DCA8"/>
<path d="M29.513 49.677C30.169 49.114 30.716 49.365 30.839 48.833C30.991 48.179 29.863 48.829 29.579 48.253C29.216 47.52 28.579 48.737 27.782 47.842C26.989 46.95 24.507 46.8091 25.397 47.2051C28.398 48.5431 28.638 49.72 29.513 49.677Z" fill="#7AB51D"/>
<path d="M28.9272 41.488C29.5832 40.925 30.1682 41.173 30.2922 40.64C30.4432 39.986 29.2712 40.966 28.9872 40.39C28.6242 39.657 27.9502 40.911 27.1532 40.015C26.3602 39.123 24.1412 40.627 25.1042 40.474C27.7312 40.058 28.0512 41.531 28.9272 41.488Z" fill="#7AB51D"/>
<path d="M17.7942 41.824C17.4942 41.501 17.5342 40.952 17.4652 40.44C17.3752 39.773 17.9002 41.041 18.5142 40.549C19.2122 39.991 18.9202 41.692 20.1162 41.608C21.3052 41.524 23.0652 43.583 22.1512 43.244C19.0702 42.107 18.3922 42.466 17.7942 41.824Z" fill="#C5DCA8"/>
<path d="M17.4639 42.152C17.1629 41.83 17.5449 41.049 17.4759 40.537C17.3869 39.871 17.8209 41.288 18.4269 41.074C19.1989 40.803 18.8049 42.119 19.9999 42.034C21.1899 41.95 23.0659 43.583 22.1519 43.244C19.0699 42.107 18.0609 42.794 17.4639 42.152Z" fill="#7AB51D"/>
<defs>
<radialGradient id="paint0_radial" cx="0" cy="0" r="1" gradientUnits="userSpaceOnUse" gradientTransform="translate(14.0498 18.3729) rotate(-53.277) scale(16.2223 14.0767)">
<stop stop-color="#438F31"/>
<stop offset="0.3024" stop-color="#408131"/>
<stop offset="0.8761" stop-color="#395B2F"/>
<stop offset="1" stop-color="#37522F"/>
</radialGradient>
<radialGradient id="paint1_radial" cx="0" cy="0" r="1" gradientUnits="userSpaceOnUse" gradientTransform="translate(21.1122 11.4567) scale(14.6677 14.6557)">
<stop stop-color="#438F31"/>
<stop offset="0.3024" stop-color="#408131"/>
<stop offset="0.8761" stop-color="#395B2F"/>
<stop offset="1" stop-color="#37522F"/>
</radialGradient>
<radialGradient id="paint2_radial" cx="0" cy="0" r="1" gradientUnits="userSpaceOnUse" gradientTransform="translate(41.1725 12.8058) scale(18.6297 18.6144)">
<stop stop-color="#438F31"/>
<stop offset="0.3024" stop-color="#408131"/>
<stop offset="0.8761" stop-color="#395B2F"/>
<stop offset="1" stop-color="#37522F"/>
</radialGradient>
<radialGradient id="paint3_radial" cx="0" cy="0" r="1" gradientUnits="userSpaceOnUse" gradientTransform="translate(48.7177 32.7643) rotate(59.3459) scale(13.6873 14.9049)">
<stop stop-color="#438F31"/>
<stop offset="0.3024" stop-color="#408131"/>
<stop offset="0.8761" stop-color="#395B2F"/>
<stop offset="1" stop-color="#37522F"/>
</radialGradient>
<radialGradient id="paint4_radial" cx="0" cy="0" r="1" gradientUnits="userSpaceOnUse" gradientTransform="translate(33.1788 24.8558) scale(16.6911 14.4679)">
<stop stop-color="#438F31"/>
<stop offset="0.3024" stop-color="#408131"/>
<stop offset="0.8761" stop-color="#395B2F"/>
<stop offset="1" stop-color="#37522F"/>
</radialGradient>
</defs>
</svg>
