<svg width="20" height="20" viewBox="0 0 20 20" fill="none" xmlns="http://www.w3.org/2000/svg">
<path d="M7.63848 5.06125C3.67235 5.06125 0.454908 8.3051 0.45459 12.3034C0.454908 16.3039 3.67204 19.5455 7.6388 19.5455C11.6065 19.5455 14.8224 16.3039 14.823 12.3034C14.8224 8.3051 11.6071 5.06125 7.63848 5.06125Z" fill="url(#paint0_radial)"/>
<path d="M12.4014 5.1212L11.332 6.19952C10.7975 6.73883 13.4177 9.38005 13.9519 8.84042L15.0213 7.76274L12.4014 5.1212Z" fill="url(#paint1_radial)"/>
<path d="M15.021 7.76291C14.4865 8.30191 11.8666 5.66037 12.4011 5.12137C12.9363 4.58237 15.5562 7.22391 15.021 7.76291Z" fill="#4E5E67"/>
<path d="M14.5178 7.13843C14.2499 7.40825 12.7528 5.89848 13.0201 5.62898C13.288 5.35948 14.785 6.86925 14.5178 7.13843Z" fill="#1A1626"/>
<path d="M13.8503 6.84589C14.2206 6.48857 15.5077 4.29917 16.1714 3.60045C16.4304 3.32808 15.8774 2.9854 15.7383 3.1079C14.9652 3.78754 13.7287 6.06921 13.3984 6.40457C13.5992 6.66803 13.8503 6.84589 13.8503 6.84589Z" fill="#B47D56"/>
<path d="M15.8584 2.16701L16.3551 0.67315L16.601 2.19437L17.8228 0.69574L17.3475 2.48742L19.5461 2.13519L17.5667 3.36878L19.4268 4.34368L17.2978 4.24346L18.3901 5.93872L16.7932 4.88841L16.2208 7.01227L15.3693 4.12478L13.1023 2.9806L14.9802 2.7286L14.3569 0.454559L15.8584 2.16701Z" fill="#EF4E16"/>
<path d="M15.5037 3.03046L15.065 1.77682L15.9994 2.69828L16.296 1.87896L16.5019 2.67059L17.2184 1.8831L16.9292 2.86182L18.0415 2.71641L17.0405 3.31873L18.0565 3.95159L16.8223 3.85614L17.4513 4.9195L16.5254 4.31304L16.2419 5.72004L15.7796 3.817L14.5256 3.23028L15.5037 3.03046Z" fill="#FFE12C"/>
<path d="M15.9056 3.24769L15.7197 2.71696L16.1162 3.10705L16.2416 2.76056L16.3281 3.0956L16.6313 2.76246L16.5095 3.17642L16.9801 3.11501L16.5566 3.36987L16.9867 3.6381L16.4633 3.59801L16.73 4.04792L16.338 3.79178L16.1964 4.30851L16.0036 3.61392L15.491 3.33296L15.9056 3.24769Z" fill="white"/>
<defs>
<radialGradient id="paint0_radial" cx="0" cy="0" r="1" gradientUnits="userSpaceOnUse" gradientTransform="translate(6.04792 9.36029) scale(7.40588)">
<stop stop-color="#5B666E"/>
<stop offset="0.7695" stop-color="#3A3A47"/>
<stop offset="1" stop-color="#302C3B"/>
</radialGradient>
<radialGradient id="paint1_radial" cx="0" cy="0" r="1" gradientUnits="userSpaceOnUse" gradientTransform="translate(12.5574 6.59263) scale(2.44882)">
<stop stop-color="#5B666E"/>
<stop offset="0.7695" stop-color="#3A3A47"/>
<stop offset="1" stop-color="#302C3B"/>
</radialGradient>
</defs>
</svg>
