<svg width="136" height="92" viewBox="0 0 136 92" fill="none" xmlns="http://www.w3.org/2000/svg">
<path d="M12.3008 35.4678C12.3008 31.5488 12.3008 29.5893 13.5183 28.3718C14.7358 27.1543 16.6953 27.1543 20.6143 27.1543H115.389C119.308 27.1543 121.267 27.1543 122.485 28.3718C123.702 29.5893 123.702 31.5488 123.702 35.4678V83.6864C123.702 87.6055 123.702 89.565 122.485 90.7825C121.267 92 119.308 92 115.389 92H20.6143C16.6953 92 14.7358 92 13.5183 90.7825C12.3008 89.565 12.3008 87.6055 12.3008 83.6864V35.4678Z" fill="#DCDEE0"/>
<rect x="18.9512" y="37.5599" width="9.56058" height="3.32542" rx="1.66271" fill="#EEF0F2"/>
<path d="M106.867 43.9788C108.195 42.8326 109.038 41.1271 109.038 39.2227C109.038 37.3182 108.195 35.6127 106.867 34.4665C107.946 33.5357 109.345 32.9738 110.874 32.9738C114.286 32.9738 117.051 35.7715 117.051 39.2227C117.051 42.6738 114.286 45.4716 110.874 45.4716C109.345 45.4716 107.946 44.9096 106.867 43.9788Z" fill="#EEF0F2"/>
<path d="M106.868 43.9789C108.196 42.8327 109.038 41.1273 109.038 39.2228C109.038 37.3183 108.196 35.6128 106.868 34.4667C105.539 35.6128 104.697 37.3183 104.697 39.2228C104.697 41.1273 105.539 42.8327 106.868 43.9789Z" fill="#DCDEE0"/>
<path d="M106.868 43.9788C105.789 44.9096 104.39 45.4716 102.861 45.4716C99.4492 45.4716 96.6836 42.6738 96.6836 39.2227C96.6836 35.7715 99.4492 32.9738 102.861 32.9738C105.1 32.9738 107.06 34.1786 108.144 35.9824C107.8 35.4105 107.368 34.8988 106.868 34.4667C105.54 35.6128 104.697 37.3183 104.697 39.2228C104.697 41.1272 105.539 42.8326 106.868 43.9788Z" fill="#EEF0F2"/>
<circle cx="20.1982" cy="64.3712" r="1.24703" fill="#EEF0F2"/>
<circle cx="25.4638" cy="64.3712" r="1.24703" fill="#EEF0F2"/>
<circle cx="30.7295" cy="64.3712" r="1.24703" fill="#EEF0F2"/>
<circle cx="35.9931" cy="64.3712" r="1.24703" fill="#EEF0F2"/>
<circle cx="46.8017" cy="64.3712" r="1.24703" fill="#EEF0F2"/>
<circle cx="52.0673" cy="64.3712" r="1.24703" fill="#EEF0F2"/>
<circle cx="57.333" cy="64.3712" r="1.24703" fill="#EEF0F2"/>
<circle cx="62.5966" cy="64.3712" r="1.24703" fill="#EEF0F2"/>
<circle cx="73.4052" cy="64.3712" r="1.24703" fill="#EEF0F2"/>
<circle cx="78.6709" cy="64.3712" r="1.24703" fill="#EEF0F2"/>
<circle cx="83.9365" cy="64.3712" r="1.24703" fill="#EEF0F2"/>
<circle cx="89.2002" cy="64.3712" r="1.24703" fill="#EEF0F2"/>
<circle cx="100.009" cy="64.3712" r="1.24703" fill="#EEF0F2"/>
<circle cx="105.274" cy="64.3712" r="1.24703" fill="#EEF0F2"/>
<circle cx="110.54" cy="64.3712" r="1.24703" fill="#EEF0F2"/>
<circle cx="115.804" cy="64.3712" r="1.24703" fill="#EEF0F2"/>
<rect x="18.9512" y="83.2708" width="13.7174" height="2.90974" rx="1.45487" fill="#EEF0F2"/>
<rect x="36.8262" y="83.2708" width="27.4347" height="2.90974" rx="1.45487" fill="#EEF0F2"/>
<rect x="101.672" y="83.2708" width="15.3801" height="2.90974" rx="1.45487" fill="#EEF0F2"/>
<path d="M0.640625 10.0536C0.640625 5.31429 0.640625 2.94463 2.11294 1.47231C3.58525 0 5.95491 0 10.6942 0H125.305C130.044 0 132.414 0 133.886 1.47231C135.359 2.94463 135.359 5.31428 135.359 10.0536V68.3644C135.359 73.1038 135.359 75.4734 133.886 76.9457C132.414 78.418 130.044 78.418 125.305 78.418H10.6942C5.95491 78.418 3.58525 78.418 2.11294 76.9457C0.640625 75.4734 0.640625 73.1038 0.640625 68.3644V10.0536Z" fill="#EEF0F2"/>
<rect x="8.68359" y="12.5836" width="11.5616" height="4.02144" rx="2.01072" fill="#DCDEE0"/>
<path d="M115 20.3459C116.606 18.9598 117.625 16.8974 117.625 14.5943C117.625 12.2912 116.606 10.2288 115 8.84271C116.304 7.71703 117.997 7.03748 119.845 7.03748C123.971 7.03748 127.316 10.4208 127.316 14.5943C127.316 18.7678 123.971 22.1511 119.845 22.1511C117.997 22.1511 116.304 21.4715 115 20.3459Z" fill="#DCDEE0"/>
<path d="M115 20.346C116.606 18.96 117.624 16.8975 117.624 14.5945C117.624 12.2914 116.606 10.229 115 8.8429C113.393 10.229 112.375 12.2914 112.375 14.5945C112.375 16.8975 113.393 18.96 115 20.346Z" fill="#CFD0D1"/>
<path d="M115.001 20.3459C113.697 21.4716 112.005 22.1511 110.156 22.1511C106.03 22.1511 102.686 18.7678 102.686 14.5943C102.686 10.4208 106.03 7.03748 110.156 7.03748C112.863 7.03748 115.234 8.49454 116.544 10.6758C116.129 9.98424 115.607 9.36548 115.001 8.84288C113.395 10.2289 112.377 12.2914 112.377 14.5945C112.377 16.8975 113.395 18.9598 115.001 20.3459Z" fill="#DCDEE0"/>
<circle cx="10.1916" cy="45.0065" r="1.50804" fill="#DCDEE0"/>
<circle cx="16.5588" cy="45.0065" r="1.50804" fill="#DCDEE0"/>
<circle cx="22.926" cy="45.0065" r="1.50804" fill="#DCDEE0"/>
<circle cx="29.2932" cy="45.0065" r="1.50804" fill="#DCDEE0"/>
<circle cx="42.3635" cy="45.0065" r="1.50804" fill="#DCDEE0"/>
<circle cx="48.7307" cy="45.0065" r="1.50804" fill="#DCDEE0"/>
<circle cx="55.0979" cy="45.0065" r="1.50804" fill="#DCDEE0"/>
<circle cx="61.4651" cy="45.0065" r="1.50804" fill="#DCDEE0"/>
<circle cx="74.5354" cy="45.0065" r="1.50804" fill="#DCDEE0"/>
<circle cx="80.9026" cy="45.0065" r="1.50804" fill="#DCDEE0"/>
<circle cx="87.2698" cy="45.0065" r="1.50804" fill="#DCDEE0"/>
<circle cx="93.6369" cy="45.0065" r="1.50804" fill="#DCDEE0"/>
<circle cx="106.705" cy="45.0065" r="1.50804" fill="#DCDEE0"/>
<circle cx="113.072" cy="45.0065" r="1.50804" fill="#DCDEE0"/>
<circle cx="119.44" cy="45.0065" r="1.50804" fill="#DCDEE0"/>
<circle cx="125.807" cy="45.0065" r="1.50804" fill="#DCDEE0"/>
<rect x="8.68359" y="67.8618" width="16.5884" height="3.51876" rx="1.75938" fill="#DCDEE0"/>
<rect x="30.2988" y="67.8618" width="33.1769" height="3.51876" rx="1.75938" fill="#DCDEE0"/>
<rect x="108.717" y="67.8618" width="18.5991" height="3.51876" rx="1.75938" fill="#DCDEE0"/>
</svg>
