<svg width="126" height="129" viewBox="0 0 126 129" fill="none" xmlns="http://www.w3.org/2000/svg">
<g clip-path="url(#clip0)">
<path d="M44.6953 25.3876C44.6953 15.9595 44.6953 11.2454 47.6242 8.31651C50.5532 5.38757 55.2672 5.38757 64.6953 5.38757H105.14C114.568 5.38757 119.282 5.38757 122.211 8.31651C125.14 11.2454 125.14 15.9595 125.14 25.3876V102.837C125.14 112.265 125.14 116.979 122.211 119.908C119.282 122.837 114.568 122.837 105.14 122.837H64.6953C55.2672 122.837 50.5532 122.837 47.6242 119.908C44.6953 116.979 44.6953 112.265 44.6953 102.837V25.3876Z" fill="#DCDEE0"/>
<rect x="51.1309" y="13.432" width="24.1334" height="4.02223" rx="2.01111" fill="#EEF0F2"/>
<rect x="106.637" y="13.432" width="12.0667" height="4.02223" rx="2.01111" fill="#EEF0F2"/>
<path d="M87.2801 48.0916L87.8534 48.9557L87.2801 48.0916ZM91.5364 48.0916L92.1097 47.2275L91.5364 48.0916ZM78.7674 48.0916L78.194 47.2275L78.7674 48.0916ZM83.0237 48.0916L83.597 47.2275L83.0237 48.0916ZM96.431 47.6681L97.0043 48.5322L96.431 47.6681ZM99.7007 46.8764L99.8147 45.8457L99.7007 46.8764ZM70.6031 46.8764L70.7171 47.9071L70.6031 46.8764ZM73.8728 47.6681L73.2995 48.5322H73.2995L73.8728 47.6681ZM95.7928 48.0916L95.2194 47.2275L95.7928 48.0916ZM74.511 48.0916L75.0843 47.2275L74.511 48.0916ZM69.7212 59.8479L70.7501 59.7186L69.7212 59.8479ZM100.583 59.8479L101.611 59.9771L100.583 59.8479ZM101.868 49.6111L100.839 49.4819L101.868 49.6111ZM68.4356 49.6111L67.4067 49.7403L68.4356 49.6111ZM101.898 41.9762L100.897 41.7066L101.898 41.9762ZM90.8104 39.0193L91.8117 39.2888L90.8104 39.0193ZM100.121 26.5064L99.8539 27.5084L100.121 26.5064ZM96.9933 31.4543C96.7021 30.9612 96.0662 30.7976 95.5731 31.0888C95.08 31.3801 94.9164 32.016 95.2077 32.5091L96.9933 31.4543ZM98.4765 32.6153L97.8443 31.7933H97.8443L98.4765 32.6153ZM99.9596 33.7763C100.251 34.2694 100.887 34.4331 101.38 34.1418C101.873 33.8505 102.037 33.2146 101.745 32.7215L99.9596 33.7763ZM95.6526 35.8221C95.2704 35.3955 94.6148 35.3596 94.1883 35.7418C93.7617 36.1239 93.7258 36.7795 94.1079 37.2061L95.6526 35.8221ZM97.2563 37.1477L96.8004 36.2163L97.2563 37.1477ZM98.8599 38.4733C99.2421 38.8999 99.8977 38.9358 100.324 38.5536C100.751 38.1715 100.787 37.5159 100.405 37.0893L98.8599 38.4733ZM94.5529 40.5191C94.2616 40.026 93.6257 39.8623 93.1326 40.1536C92.6395 40.4449 92.4759 41.0808 92.7672 41.5739L94.5529 40.5191ZM96.036 41.6801L95.4038 40.8581L96.036 41.6801ZM97.5192 42.8411C97.8104 43.3342 98.4463 43.4978 98.9394 43.2066C99.4325 42.9153 99.5961 42.2794 99.3049 41.7863L97.5192 42.8411ZM76.3293 31.1515L76.271 32.1868C76.618 32.2064 76.9517 32.0508 77.1598 31.7725C77.3679 31.4941 77.4228 31.1301 77.3059 30.8027L76.3293 31.1515ZM74.0987 35.9053L74.3551 36.9101C74.7111 36.8192 74.9925 36.5467 75.0947 36.1938C75.197 35.8409 75.1048 35.4602 74.8525 35.1931L74.0987 35.9053ZM78.54 27.4189L78.7075 28.4423C79.1733 28.3661 79.5288 27.985 79.5726 27.515L78.54 27.4189ZM82.1853 26.1406L81.4434 26.8651C81.6529 27.0797 81.9451 27.193 82.2444 27.1759C82.5438 27.1588 82.8212 27.013 83.0049 26.776L82.1853 26.1406ZM84.9405 27.9521L84.0376 27.4422C83.8294 27.8107 83.8662 28.2688 84.1305 28.5995C84.3947 28.9302 84.8335 29.067 85.2389 28.9453L84.9405 27.9521ZM87.9421 30.6765L86.926 30.4692C86.8633 30.7767 86.9432 31.0962 87.1434 31.338C87.3437 31.5797 87.6427 31.7178 87.9565 31.7134L87.9421 30.6765ZM85.9953 35.3649L85.7281 34.363L85.9953 35.3649ZM85.1385 32.1824L85.4057 33.1844L85.1385 32.1824ZM81.9408 33.0352L81.6736 32.0332H81.6736L81.9408 33.0352ZM80.8732 44.5275L81.8745 44.258L80.8732 44.5275ZM80.4932 42.892L81.5244 42.7831C81.5187 42.7289 81.5087 42.6751 81.4945 42.6224L80.4932 42.892ZM71.6427 40.4413L70.6501 40.7415C70.749 41.0685 71.0026 41.3258 71.3281 41.4294C71.6536 41.5331 72.0093 41.4698 72.279 41.2601L71.6427 40.4413ZM67.5488 36.7962C66.9814 36.8744 66.5849 37.3977 66.6631 37.965C66.7413 38.5324 67.2646 38.9289 67.8319 38.8507L67.5488 36.7962ZM71.8625 41.4534C72.4229 41.335 72.7811 40.7847 72.6626 40.2244C72.5442 39.6641 71.9939 39.3058 71.4336 39.4243L71.8625 41.4534ZM79.7012 47.6398L80.0226 48.6258L79.7012 47.6398ZM81.6819 47.5312L81.4705 48.5465L81.6819 47.5312ZM93.7557 48.7318L93.7802 49.7685L93.7557 48.7318ZM100.251 47.0015L99.9066 47.9797L100.251 47.0015ZM90.8349 38.9286L91.8357 39.2L90.8349 38.9286ZM100.839 49.4819L99.5536 59.7186L101.611 59.9771L102.897 49.7403L100.839 49.4819ZM89.3199 68.7062H80.9839V70.7801H89.3199V68.7062ZM70.7501 59.7186L69.4644 49.4819L67.4067 49.7403L68.6923 59.9771L70.7501 59.7186ZM73.2995 48.5322L73.9377 48.9557L75.0843 47.2275L74.4461 46.8041L73.2995 48.5322ZM96.3661 48.9557L97.0043 48.5322L95.8577 46.8041L95.2194 47.2275L96.3661 48.9557ZM97.0043 48.5322C97.7639 48.0282 98.6783 47.8066 99.5867 47.9071L99.8147 45.8457C98.4239 45.6919 97.0228 46.031 95.8576 46.8041L97.0043 48.5322ZM70.7171 47.9071C71.6254 47.8066 72.5399 48.0282 73.2995 48.5322L74.4461 46.8041C73.2809 46.031 71.8798 45.6919 70.4891 45.8457L70.7171 47.9071ZM73.9377 48.9557C75.5739 50.0413 77.7045 50.0413 79.3407 48.9557L78.194 47.2275C77.2528 47.8521 76.0256 47.8521 75.0843 47.2275L73.9377 48.9557ZM82.4504 48.9557C84.0866 50.0413 86.2172 50.0413 87.8534 48.9557L86.7067 47.2275C85.7655 47.8521 84.5383 47.8521 83.597 47.2275L82.4504 48.9557ZM80.9839 68.7062C78.5712 68.7062 76.8594 68.7042 75.5458 68.5377C74.2609 68.3748 73.4919 68.068 72.9026 67.5503L71.5337 69.1083C72.5537 70.0044 73.7819 70.4046 75.2849 70.5952C76.7591 70.7821 78.6256 70.7801 80.9839 70.7801V68.7062ZM68.6923 59.9771C68.9848 62.3057 69.2145 64.1503 69.584 65.584C69.9609 67.0467 70.5132 68.2117 71.5337 69.1083L72.9026 67.5503C72.3139 67.033 71.9136 66.3131 71.5923 65.0665C71.2636 63.7909 71.0494 62.1017 70.7501 59.7186L68.6923 59.9771ZM99.5536 59.7186C99.2543 62.1017 99.0402 63.7909 98.7114 65.0665C98.3902 66.3131 97.9899 67.033 97.4012 67.5503L98.7701 69.1083C99.7906 68.2117 100.343 67.0467 100.72 65.584C101.089 64.1503 101.319 62.3057 101.611 59.9771L99.5536 59.7186ZM89.3199 70.7801C91.6782 70.7801 93.5446 70.7821 95.0189 70.5952C96.5218 70.4046 97.7501 70.0044 98.7701 69.1083L97.4012 67.5503C96.8119 68.068 96.0428 68.3748 94.758 68.5377C93.4444 68.7042 91.7326 68.7062 89.3199 68.7062V70.7801ZM99.8539 27.5084C101.019 27.819 101.908 29.1073 102.143 31.8033C102.37 34.4135 101.921 37.9032 100.897 41.7066L102.9 42.2458C103.956 38.3219 104.466 34.5696 104.209 31.6231C103.959 28.7625 102.92 26.1795 100.388 25.5045L99.8539 27.5084ZM96.1005 31.9817C95.2077 32.5091 95.2079 32.5095 95.2081 32.5099C95.2082 32.51 95.2084 32.5104 95.2086 32.5107C95.2089 32.5113 95.2093 32.5119 95.2097 32.5125C95.2104 32.5137 95.2112 32.5151 95.2121 32.5165C95.2138 32.5194 95.2158 32.5228 95.2181 32.5265C95.2227 32.534 95.2283 32.5431 95.2351 32.5538C95.2485 32.5751 95.2663 32.6025 95.2883 32.6349C95.3321 32.6994 95.3939 32.7854 95.4727 32.8826C95.626 33.0717 95.8648 33.3294 96.184 33.5494C96.5045 33.7702 96.9477 33.9808 97.4893 33.9993C98.049 34.0183 98.6006 33.8281 99.1087 33.4373L97.8443 31.7933C97.6642 31.9318 97.5747 31.927 97.5599 31.9265C97.5269 31.9254 97.4622 31.9115 97.3607 31.8416C97.258 31.7708 97.1608 31.6716 97.0837 31.5765C97.0473 31.5316 97.0202 31.4936 97.004 31.4697C96.996 31.4579 96.991 31.4501 96.9891 31.4471C96.9881 31.4456 96.988 31.4454 96.9887 31.4465C96.989 31.4471 96.9896 31.448 96.9904 31.4493C96.9908 31.4499 96.9912 31.4507 96.9917 31.4515C96.9919 31.4519 96.9922 31.4524 96.9925 31.4528C96.9926 31.4531 96.9928 31.4534 96.9929 31.4535C96.9931 31.4539 96.9933 31.4543 96.1005 31.9817ZM99.1087 33.4373C99.2888 33.2988 99.3783 33.3036 99.3931 33.3041C99.4261 33.3052 99.4908 33.3192 99.5923 33.3891C99.695 33.4598 99.7922 33.559 99.8693 33.6541C99.9057 33.6991 99.9328 33.737 99.949 33.7609C99.957 33.7727 99.962 33.7805 99.9639 33.7835C99.9648 33.785 99.965 33.7853 99.9643 33.7841C99.9639 33.7835 99.9634 33.7826 99.9626 33.7813C99.9622 33.7807 99.9618 33.7799 99.9613 33.7791C99.961 33.7787 99.9608 33.7783 99.9605 33.7778C99.9604 33.7776 99.9601 33.7772 99.9601 33.7771C99.9598 33.7767 99.9596 33.7763 100.852 33.2489C101.745 32.7215 101.745 32.7211 101.745 32.7207C101.745 32.7206 101.745 32.7202 101.744 32.7199C101.744 32.7194 101.744 32.7188 101.743 32.7181C101.743 32.7169 101.742 32.7156 101.741 32.7141C101.739 32.7112 101.737 32.7079 101.735 32.7041C101.73 32.6966 101.725 32.6875 101.718 32.6768C101.704 32.6556 101.687 32.6281 101.665 32.5957C101.621 32.5312 101.559 32.4452 101.48 32.348C101.327 32.1589 101.088 31.9012 100.769 31.6812C100.448 31.4604 100.005 31.2498 99.4637 31.2313C98.904 31.2123 98.3524 31.4025 97.8443 31.7933L99.1087 33.4373ZM94.8803 36.5141C94.1079 37.2061 94.1082 37.2064 94.1085 37.2067C94.1086 37.2068 94.1089 37.2071 94.1091 37.2073C94.1095 37.2078 94.1099 37.2082 94.1103 37.2087C94.1112 37.2097 94.1122 37.2107 94.1132 37.2119C94.1152 37.2141 94.1176 37.2167 94.1202 37.2195C94.1255 37.2253 94.1319 37.2322 94.1395 37.2402C94.1546 37.2563 94.1745 37.2768 94.1987 37.301C94.2471 37.3492 94.3139 37.4127 94.3973 37.4847C94.5616 37.6265 94.8029 37.8118 95.1051 37.9746C95.7048 38.2976 96.6703 38.589 97.7121 38.0791L96.8004 36.2163C96.5852 36.3216 96.3627 36.2962 96.0886 36.1486C95.954 36.0761 95.8369 35.9876 95.7522 35.9145C95.711 35.879 95.6806 35.8498 95.6629 35.8321C95.6541 35.8233 95.6486 35.8176 95.6468 35.8157C95.6459 35.8147 95.6459 35.8147 95.6468 35.8157C95.6473 35.8162 95.648 35.817 95.649 35.8181C95.6495 35.8186 95.65 35.8192 95.6506 35.8199C95.6509 35.8202 95.6512 35.8205 95.6515 35.8209C95.6517 35.8211 95.652 35.8214 95.6521 35.8215C95.6523 35.8218 95.6526 35.8221 94.8803 36.5141ZM97.7121 38.0791C97.9273 37.9738 98.1498 37.9992 98.4239 38.1468C98.5585 38.2193 98.6756 38.3078 98.7603 38.3809C98.8015 38.4164 98.8319 38.4456 98.8496 38.4633C98.8584 38.4721 98.8639 38.4778 98.8657 38.4797C98.8666 38.4807 98.8666 38.4807 98.8657 38.4797C98.8652 38.4791 98.8645 38.4784 98.8635 38.4773C98.863 38.4768 98.8625 38.4762 98.8619 38.4755C98.8616 38.4752 98.8613 38.4748 98.861 38.4745C98.8608 38.4743 98.8605 38.474 98.8605 38.4739C98.8602 38.4736 98.8599 38.4733 99.6322 37.7813C100.405 37.0893 100.404 37.089 100.404 37.0887C100.404 37.0886 100.404 37.0883 100.403 37.0881C100.403 37.0876 100.403 37.0871 100.402 37.0867C100.401 37.0857 100.4 37.0847 100.399 37.0835C100.397 37.0813 100.395 37.0787 100.392 37.0759C100.387 37.0701 100.381 37.0632 100.373 37.0552C100.358 37.0391 100.338 37.0186 100.314 36.9944C100.265 36.9462 100.199 36.8827 100.115 36.8107C99.9509 36.6689 99.7096 36.4836 99.4074 36.3208C98.8077 35.9978 97.8422 35.7064 96.8004 36.2163L97.7121 38.0791ZM93.66 41.0465C92.7672 41.5739 92.7674 41.5743 92.7677 41.5746C92.7677 41.5748 92.768 41.5752 92.7681 41.5755C92.7685 41.576 92.7688 41.5766 92.7692 41.5772C92.7699 41.5785 92.7707 41.5798 92.7716 41.5813C92.7734 41.5842 92.7754 41.5875 92.7777 41.5913C92.7822 41.5988 92.7879 41.6079 92.7946 41.6186C92.808 41.6398 92.8258 41.6673 92.8478 41.6997C92.8916 41.7642 92.9534 41.8502 93.0322 41.9474C93.1856 42.1365 93.4243 42.3942 93.7435 42.6142C94.064 42.835 94.5072 43.0456 95.0488 43.0641C95.6085 43.0831 96.1601 42.8929 96.6682 42.5021L95.4038 40.8581C95.2238 40.9966 95.1342 40.9918 95.1194 40.9913C95.0865 40.9902 95.0217 40.9762 94.9202 40.9063C94.8175 40.8356 94.7203 40.7364 94.6432 40.6412C94.6068 40.5963 94.5798 40.5584 94.5635 40.5345C94.5555 40.5227 94.5505 40.5148 94.5486 40.5119C94.5477 40.5104 94.5475 40.5101 94.5482 40.5113C94.5486 40.5119 94.5491 40.5128 94.5499 40.5141C94.5503 40.5147 94.5507 40.5155 94.5512 40.5163C94.5515 40.5167 94.5517 40.5171 94.552 40.5176C94.5522 40.5178 94.5524 40.5182 94.5524 40.5183C94.5527 40.5187 94.5529 40.5191 93.66 41.0465ZM96.6682 42.5021C96.8483 42.3636 96.9378 42.3684 96.9526 42.3689C96.9856 42.37 97.0504 42.3839 97.1518 42.4538C97.2545 42.5246 97.3517 42.6238 97.4288 42.7189C97.4652 42.7638 97.4923 42.8018 97.5085 42.8257C97.5165 42.8375 97.5216 42.8453 97.5234 42.8483C97.5244 42.8498 97.5245 42.85 97.5238 42.8489C97.5235 42.8483 97.5229 42.8474 97.5221 42.8461C97.5217 42.8455 97.5213 42.8447 97.5208 42.8439C97.5206 42.8435 97.5203 42.843 97.52 42.8426C97.5199 42.8423 97.5197 42.842 97.5196 42.8419C97.5194 42.8415 97.5192 42.8411 98.412 42.3137C99.3049 41.7863 99.3046 41.7859 99.3044 41.7855C99.3043 41.7854 99.3041 41.785 99.3039 41.7847C99.3036 41.7841 99.3032 41.7835 99.3028 41.7829C99.3021 41.7817 99.3013 41.7803 99.3004 41.7789C99.2987 41.776 99.2967 41.7726 99.2944 41.7689C99.2898 41.7614 99.2842 41.7523 99.2774 41.7416C99.264 41.7203 99.2462 41.6929 99.2242 41.6605C99.1804 41.596 99.1186 41.51 99.0398 41.4128C98.8865 41.2237 98.6477 40.966 98.3285 40.746C98.008 40.5252 97.5648 40.3146 97.0232 40.2961C96.4635 40.2771 95.9119 40.4673 95.4038 40.8581L96.6682 42.5021ZM74.3657 33.971C74.3657 32.9886 75.1672 32.1839 76.1662 32.1839V30.1099C74.031 30.1099 72.2917 31.8339 72.2917 33.971H74.3657ZM85.6248 28.8891C86.3627 28.8891 86.9525 29.4831 86.9525 30.2055H89.0264C89.0264 28.3284 87.4988 26.8151 85.6248 26.8151V28.8891ZM87.9894 31.7132C89.2497 31.7132 90.263 32.7287 90.263 33.971H92.3369C92.3369 31.574 90.3858 29.6392 87.9894 29.6392V31.7132ZM83.4966 26.5356C83.8427 26.5356 84.1149 26.8136 84.1149 27.1461H86.1889C86.1889 25.6589 84.9789 24.4617 83.4966 24.4617V26.5356ZM77.3059 30.8027C77.2397 30.6173 77.2032 30.4167 77.2032 30.2055H75.1293C75.1293 30.6579 75.2078 31.0942 75.3528 31.5002L77.3059 30.8027ZM76.1662 32.1839C76.2015 32.1839 76.2364 32.1849 76.271 32.1868L76.3877 30.1161C76.3143 30.112 76.2405 30.1099 76.1662 30.1099V32.1839ZM73.8927 37.5012C73.8927 37.2214 74.0855 36.9788 74.3551 36.9101L73.8423 34.9005C72.6825 35.1964 71.8188 36.2446 71.8188 37.5012H73.8927ZM74.8525 35.1931C74.5492 34.8721 74.3657 34.4436 74.3657 33.971H72.2917C72.2917 34.9953 72.6933 35.9277 73.3449 36.6174L74.8525 35.1931ZM79.5726 27.515C79.6233 26.9702 80.0872 26.5356 80.6591 26.5356V24.4617C79.0143 24.4617 77.6573 25.7136 77.5075 27.3229L79.5726 27.515ZM77.2032 30.2055C77.2032 29.3228 77.8507 28.5825 78.7075 28.4423L78.3726 26.3956C76.5364 26.696 75.1293 28.2831 75.1293 30.2055H77.2032ZM83.0049 26.776C83.1189 26.6289 83.2958 26.5356 83.4966 26.5356V24.4617C82.6298 24.4617 81.8571 24.8715 81.3657 25.5053L83.0049 26.776ZM80.6591 26.5356C80.9679 26.5356 81.2443 26.6613 81.4434 26.8651L82.9272 25.4161C82.3529 24.828 81.5476 24.4617 80.6591 24.4617V26.5356ZM84.1149 27.1461C84.1149 27.2554 84.0867 27.3552 84.0376 27.4422L85.8435 28.4621C86.0635 28.0724 86.1889 27.6224 86.1889 27.1461H84.1149ZM85.2389 28.9453C85.3597 28.909 85.489 28.8891 85.6248 28.8891V26.8151C85.2848 26.8151 84.9546 26.8652 84.6422 26.959L85.2389 28.9453ZM87.9565 31.7134C87.9675 31.7133 87.9785 31.7132 87.9894 31.7132V29.6392C87.9688 29.6392 87.9482 29.6394 87.9276 29.6397L87.9565 31.7134ZM86.9525 30.2055C86.9525 30.2968 86.9433 30.3848 86.926 30.4692L88.9581 30.8839C89.003 30.6639 89.0264 30.4369 89.0264 30.2055H86.9525ZM82.208 34.0371L85.4057 33.1844L84.8713 31.1804L81.6736 32.0332L82.208 34.0371ZM85.7281 34.363L82.5305 35.2157L83.0649 37.2197L86.2626 36.3669L85.7281 34.363ZM82.5305 35.2157C82.196 35.3049 81.8587 35.1061 81.7717 34.7832L79.7691 35.3224C80.1554 36.7572 81.6333 37.6014 83.0649 37.2197L82.5305 35.2157ZM86.1645 33.6169C86.2509 33.9379 86.0608 34.2743 85.7281 34.363L86.2626 36.3669C87.696 35.9846 88.5539 34.5144 88.1671 33.0777L86.1645 33.6169ZM85.4057 33.1844C85.7402 33.0952 86.0775 33.294 86.1645 33.6169L88.1671 33.0777C87.7808 31.6429 86.3029 30.7987 84.8713 31.1804L85.4057 33.1844ZM81.6736 32.0332C80.2402 32.4155 79.3823 33.8857 79.7691 35.3224L81.7717 34.7832C81.6853 34.4622 81.8754 34.1258 82.208 34.0371L81.6736 32.0332ZM81.8745 44.258C81.6368 43.3748 81.5526 43.0495 81.5244 42.7831L79.4619 43.0009C79.5116 43.4714 79.6548 43.9908 79.8719 44.7971L81.8745 44.258ZM81.7963 36.4873C81.8174 36.5656 81.8255 36.7359 81.6163 37.1322C81.3985 37.5448 81.0854 37.9582 80.6778 38.5541C79.9412 39.6307 78.9651 41.2049 79.4919 43.1616L81.4945 42.6224C81.2336 41.6532 81.6544 40.7995 82.3895 39.7251C82.7176 39.2455 83.1589 38.6526 83.4504 38.1004C83.7505 37.532 84.0227 36.7791 83.799 35.9481L81.7963 36.4873ZM72.279 41.2601C72.2799 41.2594 72.2805 41.259 72.2812 41.2585L71.0091 39.6205C71.0081 39.6212 71.0071 39.622 71.0064 39.6225L72.279 41.2601ZM72.6353 40.1412L72.6349 40.1399L70.6497 40.7402L70.6501 40.7415L72.6353 40.1412ZM72.6348 40.1396C72.0597 38.2395 70.7747 37.3638 69.6332 37.0046C69.082 36.8311 68.5744 36.779 68.2072 36.7689C68.0219 36.7638 67.8676 36.7693 67.7553 36.7766C67.6989 36.7803 67.6527 36.7844 67.6179 36.788C67.6005 36.7898 67.586 36.7915 67.5744 36.7929C67.5686 36.7936 67.5636 36.7942 67.5593 36.7948C67.5571 36.795 67.5552 36.7953 67.5534 36.7955C67.5526 36.7956 67.5517 36.7958 67.551 36.7959C67.5506 36.7959 67.55 36.796 67.5498 36.796C67.5493 36.7961 67.5488 36.7962 67.6904 37.8234C67.8319 38.8507 67.8314 38.8508 67.831 38.8508C67.8308 38.8509 67.8303 38.8509 67.83 38.851C67.8294 38.851 67.8289 38.8511 67.8284 38.8512C67.8273 38.8513 67.8265 38.8514 67.8258 38.8515C67.8245 38.8517 67.8238 38.8518 67.8238 38.8518C67.8237 38.8518 67.8263 38.8515 67.8313 38.851C67.8415 38.8499 67.8613 38.848 67.8897 38.8462C67.9468 38.8425 68.0367 38.839 68.1501 38.8421C68.3804 38.8484 68.6886 38.8815 69.0105 38.9829C69.6154 39.1732 70.3064 39.6059 70.6498 40.7405L72.6348 40.1396ZM71.4336 39.4243C71.4324 39.4245 71.4311 39.4248 71.4303 39.425L71.8599 41.454C71.8611 41.4537 71.8618 41.4536 71.8625 41.4534L71.4336 39.4243ZM71.4303 39.425C71.4299 39.4251 71.4295 39.4251 71.4291 39.4252C71.4286 39.4253 71.4281 39.4255 71.4275 39.4256L71.8571 41.4546C71.8575 41.4545 71.8579 41.4544 71.8584 41.4543C71.8588 41.4542 71.8593 41.4541 71.8599 41.454L71.4303 39.425ZM71.4275 39.4256C68.1017 40.13 66.1032 41.5662 65.6523 43.6631C65.224 45.655 66.3413 47.6798 67.7802 49.2379L69.3038 47.8308C67.9995 46.4186 67.4705 45.0732 67.68 44.0991C67.8669 43.2298 68.7901 42.1041 71.8572 41.4545L71.4275 39.4256ZM69.4644 49.4819C69.4372 49.2646 69.4609 49.0556 69.5251 48.8642L67.5589 48.2045C67.3977 48.6848 67.3397 49.2073 67.4067 49.7403L69.4644 49.4819ZM69.5251 48.8642C69.6948 48.3585 70.1469 47.9701 70.7171 47.9071L70.4891 45.8457C69.0898 46.0004 67.977 46.9582 67.5589 48.2045L69.5251 48.8642ZM79.3407 48.9557C79.5557 48.813 79.7851 48.7031 80.0226 48.6258L79.3799 46.6539C78.9664 46.7886 78.5672 46.9799 78.194 47.2275L79.3407 48.9557ZM80.0226 48.6258C80.4907 48.4732 80.9909 48.4466 81.4705 48.5465L81.8932 46.516C81.0612 46.3428 80.1937 46.3886 79.3799 46.6539L80.0226 48.6258ZM81.4705 48.5465C81.8141 48.618 82.1468 48.7543 82.4504 48.9557L83.597 47.2275C83.0697 46.8776 82.4905 46.6404 81.8932 46.516L81.4705 48.5465ZM79.8719 44.7971L80.6806 47.8008L82.6832 47.2617L81.8745 44.258L79.8719 44.7971ZM90.4516 47.4774C90.5129 45.1315 90.9983 42.31 91.8117 39.2888L89.809 38.7497C88.97 41.8661 88.4454 44.859 88.3783 47.4232L90.4516 47.4774ZM87.8534 48.9557C88.3252 48.6426 88.8687 48.4863 89.4132 48.4873L89.4168 46.4133C88.4729 46.4117 87.5275 46.6829 86.7067 47.2275L87.8534 48.9557ZM89.4132 48.4873C89.9543 48.4882 90.4941 48.6445 90.9631 48.9557L92.1097 47.2275C91.2939 46.6862 90.3549 46.415 89.4168 46.4133L89.4132 48.4873ZM95.2194 47.2275C94.7683 47.5269 94.2517 47.6828 93.7313 47.6951L93.7802 49.7685C94.6826 49.7472 95.5813 49.4764 96.3661 48.9557L95.2194 47.2275ZM93.7313 47.6951C93.1663 47.7085 92.5994 47.5524 92.1097 47.2275L90.9631 48.9557C91.815 49.5209 92.801 49.7916 93.7802 49.7685L93.7313 47.6951ZM100.897 41.7066C100.421 43.4739 99.8814 45.1305 99.2877 46.6168L101.214 47.3861C101.843 45.8118 102.407 44.0766 102.9 42.2458L100.897 41.7066ZM102.897 49.7403C103.106 48.0791 102.106 46.5549 100.595 46.0233L99.9066 47.9797C100.523 48.1967 100.923 48.8169 100.839 49.4819L102.897 49.7403ZM100.595 46.0233C100.347 45.9359 100.085 45.8756 99.8147 45.8457L99.5867 47.9071C99.6995 47.9195 99.8063 47.9444 99.9066 47.9797L100.595 46.0233ZM91.8117 39.2888C91.8197 39.2592 91.8277 39.2296 91.8357 39.2L89.8341 38.6571C89.8257 38.6879 89.8174 38.7188 89.809 38.7497L91.8117 39.2888ZM91.8357 39.2C92.8611 35.4194 94.2223 32.197 95.726 30.0667C97.2784 27.8673 98.6915 27.1984 99.8539 27.5084L100.388 25.5045C97.8693 24.8327 95.681 26.534 94.0316 28.8707C92.3334 31.2766 90.8922 34.7561 89.8341 38.6571L91.8357 39.2ZM72.2812 41.2584C72.6344 40.9841 73.1502 40.6594 73.6047 40.3904C73.8265 40.2591 74.0242 40.1466 74.1661 40.0671C74.237 40.0275 74.2937 39.9962 74.3322 39.975C74.3515 39.9644 74.3662 39.9564 74.3758 39.9512C74.3806 39.9486 74.3842 39.9466 74.3864 39.9454C74.3875 39.9448 74.3883 39.9444 74.3888 39.9442C74.389 39.944 74.3891 39.944 74.3892 39.9439C74.3892 39.9439 74.3892 39.9439 74.3892 39.9439C74.3892 39.9439 74.3891 39.944 74.3891 39.944C74.3891 39.944 74.389 39.944 73.8967 39.0314C73.4043 38.1187 73.4043 38.1188 73.4042 38.1188C73.4042 38.1188 73.4041 38.1188 73.4041 38.1189C73.404 38.1189 73.4038 38.119 73.4037 38.1191C73.4034 38.1192 73.403 38.1194 73.4025 38.1197C73.4016 38.1202 73.4003 38.1209 73.3986 38.1218C73.3954 38.1236 73.3908 38.1261 73.3849 38.1293C73.3731 38.1357 73.3561 38.1449 73.3345 38.1568C73.2913 38.1805 73.2294 38.2147 73.1528 38.2576C72.9999 38.3432 72.7875 38.4641 72.5483 38.6057C72.0807 38.8825 71.4707 39.2618 71.009 39.6205L72.2812 41.2584ZM74.3269 39.9749C75.4499 39.4628 76.2309 39.4721 76.7677 39.6672C77.3113 39.8649 77.7944 40.3222 78.178 41.0814C78.9649 42.639 79.1446 45.1235 78.6842 47.4375L80.7183 47.8422C81.233 45.2554 81.0956 42.2569 80.0291 40.1461C79.4859 39.0711 78.6582 38.1478 77.4764 37.7181C76.2878 37.286 74.9287 37.4211 73.4665 38.0878L74.3269 39.9749ZM74.2802 38.0679C74.0491 37.9759 73.8927 37.7537 73.8927 37.5012H71.8188C71.8188 38.6362 72.5243 39.6012 73.5132 39.9948L74.2802 38.0679ZM84.994 35.6345C85.2128 36.4471 85.8046 36.9578 86.3379 37.2991C86.8577 37.6317 87.5148 37.9181 88.0356 38.166L88.927 36.2934C88.2978 35.9939 87.8317 35.7927 87.4558 35.5522C87.0935 35.3203 87.0174 35.1723 86.9967 35.0954L84.994 35.6345ZM88.0356 38.166C88.9079 38.5812 89.5831 38.9703 89.9961 39.5383L91.6736 38.3188C90.9199 37.2821 89.7943 36.7062 88.927 36.2934L88.0356 38.166ZM90.263 33.971C90.263 35.0991 89.4271 36.0412 88.3292 36.2039L88.6333 38.2555C90.7257 37.9453 92.3369 36.1495 92.3369 33.971H90.263Z" fill="#EEF0F2"/>
<rect x="51.1309" y="85.8322" width="21.3178" height="4.02223" rx="2.01111" fill="#EEF0F2"/>
<rect x="51.1309" y="95.4855" width="35.3956" height="4.02223" rx="2.01111" fill="#EEF0F2"/>
<rect x="51.1309" y="110.77" width="24.9378" height="6.43556" rx="3.21778" fill="#EEF0F2"/>
<rect x="105.834" y="110.77" width="12.8711" height="6.43556" rx="3.21778" fill="#EEF0F2"/>
</g>
<g clip-path="url(#clip1)">
<path d="M0.517578 20C0.517578 10.5719 0.517578 5.85786 3.44651 2.92893C6.37544 0 11.0895 0 20.5176 0H68.8738C78.3018 0 83.0159 0 85.9448 2.92893C88.8737 5.85786 88.8737 10.5719 88.8737 20V109C88.8737 118.428 88.8737 123.142 85.9448 126.071C83.0159 129 78.3018 129 68.8737 129H20.5176C11.0895 129 6.37544 129 3.44651 126.071C0.517578 123.142 0.517578 118.428 0.517578 109V20Z" fill="#EEF0F2"/>
<rect width="88.3562" height="82.1712" transform="translate(0.517578)" fill="#EEF0F2"/>
<rect x="7.58594" y="8.83557" width="26.5068" height="4.41781" rx="2.2089" fill="#DCDEE0"/>
<rect x="68.5508" y="8.83557" width="13.2534" height="4.41781" rx="2.2089" fill="#DCDEE0"/>
<path d="M47.2907 46.9039L47.9204 47.853L47.2907 46.9039ZM51.9657 46.9039L52.5954 45.9549L51.9657 46.9039ZM37.9408 46.9039L37.3111 45.9549L37.9408 46.9039ZM42.6157 46.9039L43.2454 45.9549L42.6157 46.9039ZM57.3416 46.4388L57.9713 47.3879L57.3416 46.4388ZM60.9329 45.5691L61.0581 44.4371L60.9329 45.5691ZM28.9736 45.5691L29.0988 46.7012L28.9736 45.5691ZM32.5648 46.4388L31.9351 47.3879H31.9351L32.5648 46.4388ZM56.6406 46.9039L56.0109 45.9549L56.6406 46.9039ZM33.2658 46.9039L33.8955 45.9549H33.8955L33.2658 46.9039ZM28.005 59.8164L29.1351 59.6744L28.005 59.8164ZM61.9014 59.8164L63.0315 59.9583L61.9014 59.8164ZM63.3136 48.5729L62.1835 48.4309L63.3136 48.5729ZM26.5929 48.5729L25.4628 48.7148L26.5929 48.5729ZM63.3466 40.1871L62.2468 39.891L63.3466 40.1871ZM51.1682 36.9393L52.268 37.2354L51.1682 36.9393ZM61.3947 23.1959L61.1012 24.2964L61.3947 23.1959ZM57.9593 28.6303C57.6394 28.0887 56.941 27.909 56.3994 28.229C55.8577 28.5489 55.678 29.2473 55.998 29.7889L57.9593 28.6303ZM59.5883 29.9056L58.8939 29.0027V29.0027L59.5883 29.9056ZM61.2173 31.1808C61.5372 31.7224 62.2356 31.9021 62.7772 31.5821C63.3188 31.2622 63.4985 30.5638 63.1786 30.0222L61.2173 31.1808ZM56.4867 33.4277C56.0669 32.9592 55.3468 32.9197 54.8783 33.3395C54.4098 33.7592 54.3703 34.4793 54.7901 34.9478L56.4867 33.4277ZM58.248 34.8837L57.7474 33.8607L58.248 34.8837ZM60.0094 36.3397C60.4292 36.8082 61.1493 36.8477 61.6178 36.4279C62.0862 36.0081 62.1257 35.2881 61.706 34.8196L60.0094 36.3397ZM55.2788 38.5866C54.9589 38.045 54.2605 37.8653 53.7189 38.1852C53.1773 38.5052 52.9976 39.2036 53.3175 39.7452L55.2788 38.5866ZM56.9078 39.8618L56.2134 38.959L56.9078 39.8618ZM58.5368 41.1371C58.8567 41.6787 59.5551 41.8584 60.0967 41.5384C60.6383 41.2185 60.818 40.5201 60.4981 39.9785L58.5368 41.1371ZM35.263 28.2978L35.1989 29.4349C35.58 29.4564 35.9465 29.2856 36.1752 28.9798C36.4038 28.6741 36.464 28.2742 36.3356 27.9147L35.263 28.2978ZM32.813 33.5191L33.0946 34.6227C33.4856 34.5229 33.7947 34.2236 33.907 33.836C34.0193 33.4483 33.918 33.0302 33.6409 32.7369L32.813 33.5191ZM37.6911 24.1981L37.875 25.3221C38.3866 25.2384 38.7772 24.8198 38.8252 24.3037L37.6911 24.1981ZM41.6949 22.7941L40.88 23.5899C41.1102 23.8255 41.431 23.95 41.7598 23.9312C42.0887 23.9124 42.3933 23.7522 42.5951 23.4919L41.6949 22.7941ZM44.7211 24.7838L43.7294 24.2236C43.5007 24.6285 43.5411 25.1316 43.8314 25.4948C44.1216 25.858 44.6035 26.0083 45.0488 25.8746L44.7211 24.7838ZM48.0178 27.7761L46.9019 27.5483C46.8329 27.8862 46.9207 28.237 47.1406 28.5026C47.3606 28.7681 47.689 28.9198 48.0337 28.915L48.0178 27.7761ZM45.8796 32.9256L45.5862 31.8251L45.8796 32.9256ZM44.9386 29.4301L45.232 30.5306L44.9386 29.4301ZM41.4264 30.3667L41.1329 29.2662L41.4264 30.3667ZM40.2538 42.9893L41.3536 42.6932L40.2538 42.9893ZM39.8363 41.193L40.969 41.0734C40.9627 41.0138 40.9517 40.9547 40.9362 40.8969L39.8363 41.193ZM30.1154 38.5013L29.0252 38.831C29.1339 39.1901 29.4124 39.4727 29.7699 39.5865C30.1274 39.7004 30.5181 39.6308 30.8143 39.4006L30.1154 38.5013ZM25.6189 34.4976C24.9957 34.5835 24.5602 35.1583 24.6461 35.7814C24.732 36.4045 25.3068 36.8401 25.9299 36.7542L25.6189 34.4976ZM30.3569 39.6129C30.9723 39.4828 31.3658 38.8784 31.2357 38.263C31.1056 37.6475 30.5012 37.2541 29.8858 37.3842L30.3569 39.6129ZM38.9665 46.4077L39.3195 47.4906L38.9665 46.4077ZM41.142 46.2884L40.9098 47.4035L41.142 46.2884ZM54.4033 47.6071L54.4302 48.7458L54.4033 47.6071ZM61.537 45.7066L61.1591 46.781L61.537 45.7066ZM51.1951 36.8397L52.2944 37.1379L51.1951 36.8397ZM62.1835 48.4309L60.7714 59.6744L63.0315 59.9583L64.4437 48.7148L62.1835 48.4309ZM49.5312 69.5459H40.3753V71.8238H49.5312V69.5459ZM29.1351 59.6744L27.723 48.4309L25.4628 48.7148L26.8749 59.9583L29.1351 59.6744ZM31.9351 47.3879L32.6361 47.853L33.8955 45.9549L33.1946 45.4897L31.9351 47.3879ZM57.2703 47.853L57.9713 47.3879L56.7119 45.4897L56.0109 45.9549L57.2703 47.853ZM57.9713 47.3879C58.8056 46.8343 59.81 46.5909 60.8077 46.7012L61.0581 44.4371C59.5306 44.2682 57.9917 44.6406 56.7119 45.4897L57.9713 47.3879ZM29.0988 46.7012C30.0965 46.5909 31.1009 46.8343 31.9351 47.3879L33.1946 45.4897C31.9148 44.6406 30.3759 44.2682 28.8484 44.4371L29.0988 46.7012ZM32.6361 47.853C34.4332 49.0454 36.7734 49.0454 38.5705 47.853L37.3111 45.9549C36.2772 46.6408 34.9294 46.6408 33.8955 45.9549L32.6361 47.853ZM41.986 47.853C43.7831 49.0454 46.1233 49.0454 47.9204 47.853L46.661 45.9549C45.6272 46.6408 44.2793 46.6408 43.2454 45.9549L41.986 47.853ZM40.3753 69.5459C37.7253 69.5459 35.8451 69.5438 34.4024 69.3608C32.9912 69.1819 32.1464 68.845 31.4992 68.2763L29.9957 69.9876C31.116 70.9719 32.4651 71.4114 34.1158 71.6207C35.7351 71.826 37.785 71.8238 40.3753 71.8238V69.5459ZM26.8749 59.9583C27.1961 62.516 27.4484 64.5419 27.8542 66.1167C28.2682 67.7232 28.8748 69.0028 29.9957 69.9876L31.4992 68.2763C30.8526 67.7082 30.4129 66.9175 30.0601 65.5482C29.6991 64.1473 29.4638 62.2919 29.1351 59.6744L26.8749 59.9583ZM60.7714 59.6744C60.4426 62.2919 60.2074 64.1473 59.8464 65.5482C59.4935 66.9175 59.0538 67.7082 58.4072 68.2763L59.9107 69.9876C61.0316 69.0028 61.6382 67.7232 62.0522 66.1167C62.458 64.5419 62.7103 62.516 63.0315 59.9583L60.7714 59.6744ZM49.5312 71.8238C52.1214 71.8238 54.1714 71.826 55.7906 71.6207C57.4414 71.4114 58.7905 70.9719 59.9107 69.9876L58.4072 68.2763C57.76 68.845 56.9153 69.1819 55.5041 69.3608C54.0613 69.5438 52.1811 69.5459 49.5312 69.5459V71.8238ZM61.1012 24.2964C62.3803 24.6375 63.3569 26.0525 63.6152 29.0137C63.8652 31.8806 63.3715 35.7136 62.2468 39.891L64.4464 40.4832C65.6067 36.1734 66.1668 32.0521 65.8845 28.8158C65.6104 25.6739 64.4686 22.8368 61.6882 22.0954L61.1012 24.2964ZM56.9786 29.2096C55.998 29.7889 55.9982 29.7893 55.9985 29.7897C55.9986 29.7899 55.9988 29.7903 55.999 29.7906C55.9994 29.7913 55.9998 29.7919 56.0002 29.7926C56.001 29.794 56.0019 29.7954 56.0028 29.797C56.0047 29.8002 56.007 29.8039 56.0095 29.808C56.0145 29.8162 56.0207 29.8263 56.0281 29.838C56.0428 29.8613 56.0624 29.8915 56.0865 29.9271C56.1347 29.998 56.2025 30.0924 56.2891 30.1992C56.4575 30.4069 56.7197 30.6899 57.0703 30.9315C57.4223 31.174 57.9091 31.4054 58.504 31.4256C59.1187 31.4466 59.7246 31.2376 60.2827 30.8084L58.8939 29.0027C58.6961 29.1548 58.5978 29.1496 58.5815 29.149C58.5453 29.1478 58.4742 29.1325 58.3628 29.0557C58.2499 28.978 58.1432 28.869 58.0585 28.7645C58.0185 28.7152 57.9888 28.6735 57.971 28.6473C57.9622 28.6344 57.9567 28.6257 57.9546 28.6224C57.9535 28.6208 57.9534 28.6205 57.9542 28.6218C57.9546 28.6224 57.9552 28.6234 57.956 28.6249C57.9564 28.6256 57.9569 28.6264 57.9575 28.6273C57.9577 28.6277 57.958 28.6282 57.9583 28.6287C57.9585 28.629 57.9587 28.6294 57.9588 28.6295C57.959 28.6299 57.9593 28.6303 56.9786 29.2096ZM60.2827 30.8084C60.4804 30.6563 60.5788 30.6615 60.5951 30.6621C60.6312 30.6633 60.7024 30.6786 60.8138 30.7554C60.9266 30.8331 61.0334 30.9421 61.1181 31.0466C61.1581 31.0959 61.1878 31.1376 61.2056 31.1638C61.2144 31.1767 61.2199 31.1854 61.222 31.1887C61.223 31.1903 61.2232 31.1906 61.2224 31.1893C61.222 31.1887 61.2214 31.1877 61.2205 31.1862C61.2201 31.1855 61.2196 31.1847 61.2191 31.1838C61.2188 31.1834 61.2185 31.1829 61.2182 31.1824C61.2181 31.1821 61.2178 31.1817 61.2178 31.1816C61.2175 31.1812 61.2173 31.1808 62.1979 30.6015C63.1786 30.0222 63.1784 30.0218 63.1781 30.0214C63.178 30.0212 63.1777 30.0208 63.1776 30.0205C63.1772 30.0198 63.1768 30.0192 63.1764 30.0185C63.1756 30.0171 63.1747 30.0157 63.1737 30.0141C63.1718 30.0109 63.1696 30.0072 63.1671 30.0031C63.1621 29.9949 63.1559 29.9848 63.1485 29.9731C63.1338 29.9498 63.1142 29.9196 63.09 29.884C63.0419 29.8131 62.974 29.7187 62.8875 29.6119C62.7191 29.4042 62.4569 29.1212 62.1063 28.8796C61.7542 28.6371 61.2674 28.4057 60.6726 28.3855C60.0578 28.3645 59.452 28.5735 58.8939 29.0027L60.2827 30.8084ZM55.6384 34.1878C54.7901 34.9478 54.7904 34.9481 54.7907 34.9485C54.7908 34.9486 54.7911 34.949 54.7914 34.9492C54.7918 34.9497 54.7923 34.9502 54.7927 34.9507C54.7937 34.9518 54.7947 34.9529 54.7959 34.9542C54.7981 34.9566 54.8007 34.9595 54.8036 34.9626C54.8093 34.9689 54.8164 34.9765 54.8247 34.9853C54.8414 35.0029 54.8632 35.0255 54.8898 35.052C54.9429 35.105 55.0163 35.1748 55.1079 35.2538C55.2884 35.4096 55.5534 35.6131 55.8854 35.7919C56.544 36.1467 57.6045 36.4667 58.7487 35.9067L57.7474 33.8607C57.511 33.9764 57.2666 33.9485 56.9656 33.7864C56.8177 33.7067 56.6891 33.6095 56.5961 33.5292C56.5509 33.4902 56.5175 33.4581 56.498 33.4387C56.4883 33.4291 56.4823 33.4228 56.4803 33.4207C56.4793 33.4196 56.4793 33.4196 56.4803 33.4207C56.4809 33.4213 56.4816 33.4222 56.4827 33.4233C56.4832 33.4239 56.4838 33.4245 56.4845 33.4253C56.4848 33.4256 56.4851 33.426 56.4855 33.4264C56.4857 33.4266 56.486 33.4269 56.4861 33.427C56.4864 33.4274 56.4867 33.4277 55.6384 34.1878ZM58.7487 35.9067C58.9851 35.791 59.2295 35.8189 59.5305 35.981C59.6784 36.0607 59.8069 36.1579 59.9 36.2382C59.9452 36.2772 59.9786 36.3092 59.9981 36.3287C60.0078 36.3383 60.0138 36.3446 60.0158 36.3467C60.0168 36.3478 60.0168 36.3478 60.0157 36.3467C60.0152 36.3461 60.0144 36.3452 60.0134 36.3441C60.0129 36.3435 60.0123 36.3428 60.0116 36.3421C60.0113 36.3418 60.0109 36.3414 60.0106 36.341C60.0104 36.3408 60.0101 36.3404 60.01 36.3403C60.0097 36.34 60.0094 36.3397 60.8577 35.5796C61.706 34.8196 61.7057 34.8192 61.7054 34.8189C61.7053 34.8188 61.7049 34.8184 61.7047 34.8182C61.7043 34.8177 61.7038 34.8172 61.7033 34.8167C61.7024 34.8156 61.7013 34.8144 61.7002 34.8132C61.698 34.8107 61.6954 34.8079 61.6925 34.8048C61.6868 34.7985 61.6797 34.7909 61.6714 34.7821C61.6547 34.7645 61.6329 34.7419 61.6063 34.7154C61.5532 34.6624 61.4798 34.5926 61.3882 34.5136C61.2077 34.3578 60.9427 34.1543 60.6107 33.9755C59.9521 33.6207 58.8916 33.3007 57.7474 33.8607L58.7487 35.9067ZM54.2981 39.1659C53.3175 39.7452 53.3177 39.7456 53.318 39.746C53.3181 39.7462 53.3183 39.7466 53.3185 39.7469C53.3189 39.7476 53.3193 39.7482 53.3197 39.7489C53.3205 39.7502 53.3214 39.7517 53.3223 39.7533C53.3243 39.7565 53.3265 39.7602 53.329 39.7643C53.334 39.7725 53.3402 39.7826 53.3476 39.7943C53.3623 39.8176 53.3819 39.8478 53.4061 39.8834C53.4542 39.9542 53.522 40.0487 53.6086 40.1555C53.777 40.3631 54.0392 40.6462 54.3898 40.8878C54.7419 41.1303 55.2287 41.3617 55.8235 41.3819C56.4382 41.4029 57.0441 41.1939 57.6022 40.7647L56.2134 38.959C56.0156 39.1111 55.9173 39.1059 55.901 39.1053C55.8648 39.1041 55.7937 39.0888 55.6823 39.012C55.5694 38.9342 55.4627 38.8253 55.378 38.7208C55.338 38.6715 55.3083 38.6298 55.2905 38.6036C55.2817 38.5906 55.2762 38.582 55.2741 38.5787C55.2731 38.5771 55.2729 38.5768 55.2737 38.5781C55.2741 38.5787 55.2747 38.5797 55.2755 38.5812C55.276 38.5819 55.2765 38.5827 55.277 38.5836C55.2773 38.584 55.2776 38.5845 55.2779 38.585C55.278 38.5853 55.2782 38.5857 55.2783 38.5858C55.2786 38.5862 55.2788 38.5866 54.2981 39.1659ZM57.6022 40.7647C57.8 40.6125 57.8983 40.6178 57.9146 40.6184C57.9508 40.6196 58.0219 40.6349 58.1333 40.7117C58.2462 40.7894 58.3529 40.8984 58.4376 41.0028C58.4776 41.0522 58.5073 41.0938 58.5251 41.1201C58.5339 41.133 58.5394 41.1417 58.5415 41.145C58.5425 41.1466 58.5427 41.1469 58.5419 41.1456C58.5415 41.145 58.5409 41.1439 58.5401 41.1425C58.5396 41.1418 58.5392 41.141 58.5386 41.1401C58.5383 41.1396 58.5381 41.1392 58.5378 41.1387C58.5376 41.1384 58.5374 41.138 58.5373 41.1379C58.5371 41.1375 58.5368 41.1371 59.5175 40.5578C60.4981 39.9785 60.4979 39.9781 60.4976 39.9776C60.4975 39.9775 60.4973 39.9771 60.4971 39.9767C60.4967 39.9761 60.4963 39.9755 60.4959 39.9748C60.4951 39.9734 60.4942 39.9719 60.4933 39.9704C60.4913 39.9672 60.4891 39.9635 60.4866 39.9594C60.4816 39.9512 60.4754 39.9411 60.468 39.9294C60.4533 39.9061 60.4337 39.8759 60.4096 39.8403C60.3614 39.7694 60.2936 39.675 60.207 39.5682C60.0386 39.3605 59.7764 39.0775 59.4258 38.8359C59.0737 38.5934 58.587 38.362 57.9921 38.3418C57.3774 38.3208 56.7715 38.5298 56.2134 38.959L57.6022 40.7647ZM33.1062 31.3946C33.1062 30.3156 33.9865 29.4317 35.0839 29.4317V27.1538C32.7387 27.1538 30.8283 29.0473 30.8283 31.3946H33.1062ZM45.4727 25.8128C46.2831 25.8128 46.9309 26.4653 46.9309 27.2588H49.2088C49.2088 25.197 47.531 23.5349 45.4727 23.5349V25.8128ZM48.0699 28.9147C49.4541 28.9147 50.567 30.0301 50.567 31.3946H52.8449C52.8449 28.7618 50.7019 26.6368 48.0699 26.6368V28.9147ZM43.1352 23.228C43.5153 23.228 43.8143 23.5332 43.8143 23.8984H46.0922C46.0922 22.265 44.7632 20.95 43.1352 20.95V23.228ZM36.3356 27.9147C36.2629 27.711 36.2228 27.4908 36.2228 27.2588H33.9449C33.9449 27.7556 34.0311 28.2348 34.1904 28.6808L36.3356 27.9147ZM35.0839 29.4317C35.1226 29.4317 35.1609 29.4328 35.1989 29.4349L35.3271 27.1606C35.2465 27.1561 35.1654 27.1538 35.0839 27.1538V29.4317ZM32.5868 35.2719C32.5868 34.9647 32.7985 34.6982 33.0946 34.6227L32.5314 32.4155C31.2575 32.7405 30.3088 33.8918 30.3088 35.2719H32.5868ZM33.6409 32.7369C33.3077 32.3843 33.1062 31.9136 33.1062 31.3946H30.8283C30.8283 32.5196 31.2693 33.5437 31.9851 34.3013L33.6409 32.7369ZM38.8252 24.3037C38.8809 23.7052 39.3904 23.228 40.0185 23.228V20.95C38.212 20.95 36.7215 22.3251 36.5571 24.0926L38.8252 24.3037ZM36.2228 27.2588C36.2228 26.2893 36.9339 25.4761 37.875 25.3221L37.5072 23.0741C35.4904 23.4041 33.9449 25.1473 33.9449 27.2588H36.2228ZM42.5951 23.4919C42.7203 23.3304 42.9146 23.228 43.1352 23.228V20.95C42.1831 20.95 41.3344 21.4001 40.7947 22.0963L42.5951 23.4919ZM40.0185 23.228C40.3577 23.228 40.6614 23.366 40.88 23.5899L42.5098 21.9983C41.879 21.3524 40.9944 20.95 40.0185 20.95V23.228ZM43.8143 23.8984C43.8143 24.0185 43.7833 24.1282 43.7294 24.2236L45.7128 25.3439C45.9545 24.9159 46.0922 24.4216 46.0922 23.8984H43.8143ZM45.0488 25.8746C45.1815 25.8347 45.3235 25.8128 45.4727 25.8128V23.5349C45.0992 23.5349 44.7365 23.5899 44.3934 23.6929L45.0488 25.8746ZM48.0337 28.915C48.0457 28.9148 48.0578 28.9147 48.0699 28.9147V26.6368C48.0472 26.6368 48.0245 26.6369 48.0019 26.6373L48.0337 28.915ZM46.9309 27.2588C46.9309 27.359 46.9208 27.4557 46.9019 27.5483L49.1338 28.0039C49.1831 27.7622 49.2088 27.5129 49.2088 27.2588H46.9309ZM41.7199 31.4672L45.232 30.5306L44.6451 28.3296L41.1329 29.2662L41.7199 31.4672ZM45.5862 31.8251L42.074 32.7617L42.661 34.9627L46.1731 34.0261L45.5862 31.8251ZM42.074 32.7617C41.7066 32.8597 41.3361 32.6413 41.2406 32.2867L39.041 32.8789C39.4653 34.4548 41.0886 35.3821 42.661 34.9627L42.074 32.7617ZM46.0654 31.0056C46.1603 31.3582 45.9515 31.7277 45.5862 31.8251L46.1731 34.0261C47.7475 33.6063 48.6898 31.9914 48.265 30.4134L46.0654 31.0056ZM45.232 30.5306C45.5994 30.4326 45.9699 30.651 46.0654 31.0056L48.265 30.4134C47.8407 28.8375 46.2175 27.9102 44.6451 28.3296L45.232 30.5306ZM41.1329 29.2662C39.5585 29.686 38.6162 31.3009 39.041 32.8789L41.2406 32.2867C41.1457 31.9341 41.3545 31.5646 41.7199 31.4672L41.1329 29.2662ZM41.3536 42.6932C41.0924 41.7232 40.9999 41.3659 40.969 41.0734L38.7037 41.3126C38.7583 41.8293 38.9155 42.3998 39.154 43.2854L41.3536 42.6932ZM41.2677 34.1583C41.2908 34.2444 41.2997 34.4314 41.0699 34.8667C40.8308 35.3198 40.4869 35.7739 40.0391 36.4284C39.2301 37.6109 38.1579 39.3399 38.7365 41.4891L40.9362 40.8969C40.6495 39.8323 41.1118 38.8947 41.9191 37.7146C42.2795 37.1878 42.7642 36.5366 43.0844 35.9301C43.414 35.3058 43.713 34.4788 43.4673 33.5661L41.2677 34.1583ZM30.8143 39.4006C30.8153 39.3998 30.816 39.3993 30.8167 39.3988L29.4195 37.5997C29.4184 37.6005 29.4173 37.6013 29.4165 37.6019L30.8143 39.4006ZM31.2056 38.1716L31.2052 38.1702L29.0248 38.8296L29.0252 38.831L31.2056 38.1716ZM31.2051 38.1699C30.5734 36.0829 29.162 35.1211 27.9083 34.7265C27.3028 34.5359 26.7453 34.4788 26.342 34.4677C26.1386 34.4621 25.9691 34.4681 25.8457 34.4761C25.7838 34.4801 25.733 34.4847 25.6948 34.4886C25.6757 34.4906 25.6597 34.4924 25.647 34.494C25.6407 34.4947 25.6351 34.4954 25.6304 34.496C25.6281 34.4963 25.6259 34.4966 25.624 34.4969C25.623 34.497 25.6221 34.4971 25.6213 34.4973C25.6208 34.4973 25.6202 34.4974 25.62 34.4974C25.6194 34.4975 25.6189 34.4976 25.7744 35.6259C25.9299 36.7542 25.9294 36.7543 25.9288 36.7543C25.9286 36.7544 25.9281 36.7544 25.9278 36.7545C25.9271 36.7546 25.9265 36.7546 25.926 36.7547C25.9248 36.7549 25.9239 36.755 25.9232 36.7551C25.9217 36.7553 25.9209 36.7554 25.9209 36.7554C25.9209 36.7554 25.9237 36.755 25.9292 36.7545C25.9404 36.7533 25.9622 36.7513 25.9934 36.7492C26.056 36.7452 26.1548 36.7413 26.2794 36.7447C26.5323 36.7517 26.8708 36.788 27.2244 36.8993C27.8887 37.1084 28.6477 37.5836 29.0249 38.8298L31.2051 38.1699ZM29.8858 37.3842C29.8844 37.3845 29.883 37.3848 29.8821 37.385L30.354 39.6135C30.3553 39.6132 30.3561 39.613 30.3569 39.6129L29.8858 37.3842ZM29.8822 37.385C29.8817 37.385 29.8813 37.3851 29.8808 37.3852C29.8803 37.3853 29.8797 37.3855 29.8791 37.3856L30.3509 39.6141C30.3514 39.614 30.3518 39.6139 30.3523 39.6138C30.3528 39.6137 30.3534 39.6136 30.354 39.6135L29.8822 37.385ZM29.879 37.3856C26.2261 38.1593 24.0311 39.7368 23.5359 42.0399C23.0655 44.2277 24.2926 46.4517 25.873 48.1629L27.5465 46.6175C26.114 45.0663 25.5329 43.5887 25.763 42.5187C25.9682 41.564 26.9823 40.3276 30.351 39.6141L29.879 37.3856ZM27.723 48.4309C27.693 48.1922 27.719 47.9628 27.7896 47.7525L25.63 47.0279C25.453 47.5555 25.3893 48.1294 25.4628 48.7148L27.723 48.4309ZM27.7896 47.7525C27.9759 47.1971 28.4725 46.7705 29.0988 46.7012L28.8484 44.4371C27.3115 44.607 26.0892 45.659 25.63 47.0279L27.7896 47.7525ZM38.5705 47.853C38.8066 47.6963 39.0587 47.5756 39.3195 47.4906L38.6135 45.3248C38.1595 45.4728 37.7209 45.6829 37.3111 45.9549L38.5705 47.853ZM39.3195 47.4906C39.8337 47.323 40.383 47.2938 40.9098 47.4035L41.3741 45.1734C40.4602 44.9831 39.5074 45.0335 38.6135 45.3248L39.3195 47.4906ZM40.9098 47.4035C41.2871 47.482 41.6526 47.6318 41.986 47.853L43.2454 45.9549C42.6663 45.5706 42.0301 45.31 41.3741 45.1734L40.9098 47.4035ZM39.154 43.2854L40.0422 46.5845L42.2418 45.9923L41.3536 42.6932L39.154 43.2854ZM50.7741 46.2293C50.8415 43.6527 51.3746 40.5538 52.268 37.2354L50.0684 36.6432C49.1469 40.0662 48.5707 43.3534 48.497 46.1698L50.7741 46.2293ZM47.9204 47.853C48.4386 47.5091 49.0356 47.3375 49.6336 47.3385L49.6376 45.0606C48.6009 45.0588 47.5625 45.3567 46.661 45.9549L47.9204 47.853ZM49.6336 47.3385C50.228 47.3395 50.8208 47.5112 51.3359 47.853L52.5954 45.9549C51.6993 45.3603 50.668 45.0624 49.6376 45.0606L49.6336 47.3385ZM56.0109 45.9549C55.5154 46.2836 54.948 46.455 54.3764 46.4685L54.4302 48.7458C55.4212 48.7224 56.4084 48.4249 57.2703 47.853L56.0109 45.9549ZM54.3764 46.4685C53.7558 46.4831 53.1332 46.3117 52.5954 45.9549L51.3359 47.853C52.2716 48.4738 53.3546 48.7712 54.4302 48.7458L54.3764 46.4685ZM62.2468 39.891C61.7243 41.832 61.1313 43.6516 60.4793 45.2841L62.5948 46.129C63.2854 44.3999 63.9051 42.494 64.4464 40.4832L62.2468 39.891ZM64.4437 48.7148C64.6728 46.8902 63.5748 45.2161 61.915 44.6321L61.1591 46.781C61.8366 47.0193 62.2752 47.7006 62.1835 48.4309L64.4437 48.7148ZM61.915 44.6321C61.6423 44.5362 61.3554 44.47 61.0581 44.4371L60.8077 46.7012C60.9315 46.7149 61.0489 46.7422 61.1591 46.781L61.915 44.6321ZM52.268 37.2354C52.2768 37.2029 52.2856 37.1703 52.2944 37.1379L50.0959 36.5415C50.0867 36.5754 50.0775 36.6093 50.0684 36.6432L52.268 37.2354ZM52.2944 37.1379C53.4207 32.9855 54.9157 29.4461 56.5673 27.1063C58.2724 24.6906 59.8245 23.9559 61.1012 24.2964L61.6882 22.0954C58.9214 21.3575 56.5179 23.2262 54.7062 25.7927C52.841 28.4352 51.2581 32.2569 50.0959 36.5415L52.2944 37.1379ZM30.8168 39.3987C31.2047 39.0974 31.7712 38.7408 32.2704 38.4453C32.514 38.3011 32.7311 38.1776 32.887 38.0903C32.9649 38.0467 33.0271 38.0123 33.0695 37.9891C33.0906 37.9775 33.1068 37.9687 33.1174 37.9629C33.1226 37.96 33.1265 37.9579 33.129 37.9566C33.1302 37.9559 33.1311 37.9555 33.1316 37.9552C33.1318 37.9551 33.1319 37.955 33.132 37.9549C33.132 37.9549 33.132 37.9549 33.132 37.9549C33.132 37.9549 33.132 37.955 33.132 37.955C33.1319 37.955 33.1319 37.955 32.5911 36.9526C32.0503 35.9502 32.0502 35.9503 32.0502 35.9503C32.0501 35.9503 32.0501 35.9504 32.05 35.9504C32.0499 35.9504 32.0498 35.9505 32.0496 35.9506C32.0493 35.9508 32.0488 35.951 32.0483 35.9513C32.0473 35.9519 32.0459 35.9526 32.0441 35.9536C32.0405 35.9555 32.0354 35.9583 32.0289 35.9618C32.016 35.9689 31.9974 35.979 31.9736 35.9921C31.9261 36.0181 31.8581 36.0557 31.774 36.1027C31.6061 36.1968 31.3728 36.3295 31.1101 36.4851C30.5965 36.7891 29.9265 37.2058 29.4194 37.5997L30.8168 39.3987ZM33.0636 37.9889C34.2971 37.4265 35.1548 37.4367 35.7445 37.651C36.3416 37.8681 36.8721 38.3704 37.2934 39.2042C38.1578 40.915 38.3551 43.6439 37.8494 46.1854L40.0836 46.63C40.6489 43.7888 40.498 40.4954 39.3266 38.177C38.73 36.9962 37.8209 35.9821 36.5228 35.5102C35.2173 35.0356 33.7246 35.184 32.1186 35.9163L33.0636 37.9889ZM33.0123 35.8944C32.7585 35.7934 32.5868 35.5493 32.5868 35.2719H30.3088C30.3088 36.5186 31.0837 37.5785 32.1699 38.0108L33.0123 35.8944ZM44.7798 33.2217C45.0201 34.1142 45.6702 34.6751 46.2559 35.0499C46.8268 35.4153 47.5486 35.7299 48.1205 36.0022L49.0996 33.9454C48.4085 33.6164 47.8966 33.3954 47.4838 33.1313C47.0858 32.8766 47.0022 32.7141 46.9795 32.6295L44.7798 33.2217ZM48.1205 36.0022C49.0787 36.4582 49.8203 36.8855 50.2739 37.5095L52.1164 36.1699C51.2886 35.0313 50.0522 34.3988 49.0996 33.9454L48.1205 36.0022ZM50.567 31.3946C50.567 32.6337 49.6489 33.6684 48.4431 33.8471L48.7771 36.1004C51.0752 35.7598 52.8449 33.7874 52.8449 31.3946H50.567Z" fill="#DCDEE0"/>
<rect x="7.58594" y="88.3562" width="23.4144" height="4.41781" rx="2.2089" fill="#DCDEE0"/>
<rect x="7.58594" y="98.9589" width="38.8767" height="4.41781" rx="2.2089" fill="#DCDEE0"/>
<rect x="7.58594" y="115.747" width="27.3904" height="7.06849" rx="3.53425" fill="#DCDEE0"/>
<rect x="67.668" y="115.747" width="14.137" height="7.06849" rx="3.53425" fill="#DCDEE0"/>
</g>
<defs>
<clipPath id="clip0">
<path d="M44.6953 25.3876C44.6953 15.9595 44.6953 11.2454 47.6242 8.31651C50.5532 5.38757 55.2672 5.38757 64.6953 5.38757H105.14C114.568 5.38757 119.282 5.38757 122.211 8.31651C125.14 11.2454 125.14 15.9595 125.14 25.3876V102.837C125.14 112.265 125.14 116.979 122.211 119.908C119.282 122.837 114.568 122.837 105.14 122.837H64.6953C55.2672 122.837 50.5532 122.837 47.6242 119.908C44.6953 116.979 44.6953 112.265 44.6953 102.837V25.3876Z" fill="white"/>
</clipPath>
<clipPath id="clip1">
<path d="M0.517578 20C0.517578 10.5719 0.517578 5.85786 3.44651 2.92893C6.37544 0 11.0895 0 20.5176 0H68.8738C78.3018 0 83.0159 0 85.9448 2.92893C88.8737 5.85786 88.8737 10.5719 88.8737 20V109C88.8737 118.428 88.8737 123.142 85.9448 126.071C83.0159 129 78.3018 129 68.8737 129H20.5176C11.0895 129 6.37544 129 3.44651 126.071C0.517578 123.142 0.517578 118.428 0.517578 109V20Z" fill="white"/>
</clipPath>
</defs>
</svg>
