<svg width="78" height="67" viewBox="0 0 78 67" fill="none" xmlns="http://www.w3.org/2000/svg">
<path d="M34.3763 47.5567C32.1221 49.1278 29.5947 49.9475 26.5209 49.9475C21.671 49.9475 17.3676 47.5567 15.455 42.1603H31.0975V36.6957H14.362C14.2937 36.0809 14.2937 35.4661 14.2937 34.7831C14.2937 33.9634 14.2937 33.212 14.362 32.4606H31.0975V26.9276H15.5233C17.5042 21.5313 21.7393 19.2088 26.5209 19.2088C29.1849 19.2088 31.644 20.0285 33.8298 21.463L39.2262 14.6322C35.2643 11.8999 30.8243 10.6703 26.5209 10.6703C15.455 10.6703 7.87276 16.6131 5.41367 26.9276H0.768723V32.4606H4.59398C4.52567 33.212 4.52567 33.9634 4.52567 34.7831C4.52567 35.4661 4.52567 36.0809 4.59398 36.6957H0.768723V42.1603H5.27706C7.94107 53.841 16.9577 58.5543 26.5209 58.5543C31.7123 58.5543 36.084 56.8466 39.5677 54.4558L34.3763 47.5567ZM59.0755 27.7473C57.5045 27.7473 55.3869 28.0889 53.2694 28.7036L53.8158 19.5504H71.3027V11.0802H45.6188L44.1844 35.9443L49.1709 37.7203C51.425 35.9443 53.6792 35.3295 56.2749 35.3295C60.0319 35.3295 64.267 37.7886 64.267 42.7068C64.267 46.9419 61.0565 50.1524 56.07 50.1524C52.313 50.1524 49.2392 48.3764 47.3949 45.849L40.7007 51.177C44.6625 56.0952 50.537 58.6226 56.958 58.6226C66.8627 58.6226 73.6935 52.1333 73.6935 42.8434C73.6935 33.4852 67.0676 27.7473 59.0755 27.7473Z" fill="#313038"/>
</svg>
