<svg width="128" height="183" viewBox="0 0 128 183" fill="none" xmlns="http://www.w3.org/2000/svg">
<circle r="2" transform="matrix(-1 9.8328e-08 7.7727e-08 1 122 66.1787)" fill="#DEDEDE"/>
<circle r="1" transform="matrix(-1 9.8328e-08 7.7727e-08 1 102 66.1787)" fill="#DEDEDE"/>
<circle r="2" transform="matrix(-1 9.8328e-08 7.7727e-08 1 82 66.1787)" fill="#DEDEDE"/>
<circle r="1" transform="matrix(-1 9.8328e-08 7.7727e-08 1 62 66.1787)" fill="#DEDEDE"/>
<circle r="2" transform="matrix(-1 9.8328e-08 7.7727e-08 1 42 66.1787)" fill="#DEDEDE"/>
<circle r="1" transform="matrix(-1 9.8328e-08 7.7727e-08 1 22 66.1787)" fill="#DEDEDE"/>
<circle r="2" transform="matrix(-1 9.8328e-08 7.7727e-08 1 2 66.1787)" fill="#DEDEDE"/>
<circle r="1" transform="matrix(-3.88636e-08 -1 -1 4.91638e-08 102 144.833)" fill="#DEDEDE"/>
<circle r="2" transform="matrix(-3.88636e-08 -1 -1 4.91638e-08 102 124.833)" fill="#DEDEDE"/>
<circle r="1" transform="matrix(-3.88636e-08 -1 -1 4.91638e-08 102 104.833)" fill="#DEDEDE"/>
<circle r="2" transform="matrix(-3.88636e-08 -1 -1 4.91638e-08 102 84.833)" fill="#DEDEDE"/>
<circle r="1" transform="matrix(-3.88636e-08 -1 -1 4.91638e-08 102 64.833)" fill="#DEDEDE"/>
<circle r="2" transform="matrix(-3.88636e-08 -1 -1 4.91638e-08 102 44.833)" fill="#DEDEDE"/>
<circle r="1" transform="matrix(-3.88636e-08 -1 -1 4.91638e-08 102 24.833)" fill="#DEDEDE"/>
<circle r="2" transform="matrix(-3.88636e-08 -1 -1 4.91638e-08 102 4.83298)" fill="#DEDEDE"/>
<circle r="1" transform="matrix(-3.88636e-08 -1 -1 4.91638e-08 62 144.833)" fill="#DEDEDE"/>
<circle r="2" transform="matrix(-3.88636e-08 -1 -1 4.91638e-08 62 124.833)" fill="#2A9D8F"/>
<circle r="1" transform="matrix(-3.88636e-08 -1 -1 4.91638e-08 62 104.833)" fill="#DEDEDE"/>
<circle r="2" transform="matrix(-3.88636e-08 -1 -1 4.91638e-08 62 84.833)" fill="#2A9D8F"/>
<circle r="1" transform="matrix(-3.88636e-08 -1 -1 4.91638e-08 62 64.833)" fill="#DEDEDE"/>
<circle r="1" transform="matrix(-3.88636e-08 -1 -1 4.91638e-08 62 45.833)" fill="#DEDEDE"/>
<circle r="2" transform="matrix(-3.88636e-08 -1 -1 4.91638e-08 62 25.833)" fill="#DEDEDE"/>
<circle r="2" transform="matrix(-3.88636e-08 -1 -1 4.91638e-08 62 4.83298)" fill="#DEDEDE"/>
<circle r="1" transform="matrix(-3.88636e-08 -1 -1 4.91638e-08 22 144.833)" fill="#DEDEDE"/>
<circle r="2" transform="matrix(-3.88636e-08 -1 -1 4.91638e-08 22 124.833)" fill="#2A9D8F"/>
<circle r="1" transform="matrix(-3.88636e-08 -1 -1 4.91638e-08 22 104.833)" fill="#DEDEDE"/>
<circle r="2" transform="matrix(-3.88636e-08 -1 -1 4.91638e-08 22 84.833)" fill="#DEDEDE"/>
<circle r="1" transform="matrix(-3.88636e-08 -1 -1 4.91638e-08 22 64.833)" fill="#DEDEDE"/>
<circle r="2" transform="matrix(-3.88636e-08 -1 -1 4.91638e-08 22 44.833)" fill="#DEDEDE"/>
<circle r="1" transform="matrix(-3.88636e-08 -1 -1 4.91638e-08 22 24.833)" fill="#DEDEDE"/>
<circle r="2" transform="matrix(-3.88636e-08 -1 -1 4.91638e-08 22 4.83301)" fill="#DEDEDE"/>
</svg>
