<svg width="30" height="30" viewBox="0 0 30 30" fill="none" xmlns="http://www.w3.org/2000/svg">
<g clip-path="url(#clip0)">
<path fill-rule="evenodd" clip-rule="evenodd" d="M27.954 13.5818C27.954 19.5141 23.9327 24.5112 18.4564 26.0174L18.4413 26.0304C18.0126 26.4004 17.6743 26.9135 16.9977 27.9398L16.6389 28.484C16.0824 29.328 15.8042 29.75 15.4631 29.9009C15.1644 30.033 14.8329 30.033 14.5342 29.9009C14.1931 29.75 13.9149 29.328 13.3584 28.484L12.9996 27.9398C12.323 26.9135 11.9847 26.4004 11.556 26.0304L11.5401 26.0167C6.06507 24.5097 2.04492 19.5133 2.04492 13.5818C2.04492 6.45734 7.84487 0.681824 14.9995 0.681824C22.1541 0.681824 27.954 6.45734 27.954 13.5818ZM11.3079 19.3653C11.8751 19.4455 12.5963 19.4455 13.4911 19.4455H16.5071C17.4018 19.4455 18.123 19.4455 18.6903 19.3653C19.2792 19.282 19.775 19.1038 20.1688 18.6896C20.5626 18.2754 20.732 17.7539 20.8112 17.1345C20.8874 16.5379 20.8874 15.7793 20.8874 14.8382L20.8875 12.756C20.8879 11.8606 20.8883 11.2378 20.6292 10.6918C20.3702 10.1459 19.8968 9.77172 19.2163 9.23382L17.6303 7.97886C17.0825 7.54535 16.6373 7.19305 16.2464 6.95301C15.8387 6.70265 15.4458 6.54548 14.9991 6.54548C14.5523 6.54548 14.1594 6.70265 13.7517 6.95301C13.3608 7.19305 12.9156 7.54535 12.3678 7.97886L10.7819 9.23382C10.1013 9.77172 9.62797 10.1459 9.36892 10.6918C9.10987 11.2378 9.11021 11.8606 9.11069 12.7559L9.11073 14.8382C9.11071 15.7793 9.1107 16.5379 9.18696 17.1345C9.26614 17.7539 9.43552 18.2754 9.82933 18.6896C10.2231 19.1038 10.719 19.282 11.3079 19.3653Z" fill="#8E8CFF"/>
</g>
<defs>
<clipPath id="clip0">
<rect width="30" height="30" fill="white"/>
</clipPath>
</defs>
</svg>
