<svg width="394" height="109" viewBox="0 0 394 109" fill="none" xmlns="http://www.w3.org/2000/svg">
<path d="M0.504 53.71C0.504 85.1 22.258 108.752 55.254 108.752C82.994 108.752 98.762 90.064 98.762 90.064L85.476 71.376C85.476 71.376 73.942 84.662 55.692 84.662C40.362 84.662 27.66 70.792 27.66 53.71C27.66 34.73 39.924 24.948 55.108 24.948C61.824 24.948 71.168 27.284 71.168 33.27V38.964H94.528V25.24C94.528 5.676 66.934 0.857991 54.524 0.857991C23.426 0.857991 0.504 23.78 0.504 53.71ZM113.03 23.05H134.2V2.60999H113.03V23.05ZM111.132 96.342C111.132 103.788 114.344 107 121.79 107H145.15V85.83H139.602C137.558 85.83 136.39 84.662 136.39 82.618V42.468C136.39 35.022 133.178 31.81 125.732 31.81H102.372V52.98H107.92C109.964 52.98 111.132 54.148 111.132 56.192V96.342ZM156.964 79.26C156.964 104.518 180.178 107.73 192.15 107.73C196.238 107.73 199.012 107.292 199.012 107.292V85.392C199.012 85.392 197.698 85.538 195.654 85.538C190.836 85.538 182.222 84.37 182.222 75.902V51.52H197.99V31.81H182.222V11.516H157.694V31.81H147.328V51.52H156.964V79.26ZM214.409 23.05H235.579V2.60999H214.409V23.05ZM212.511 96.342C212.511 103.788 215.723 107 223.169 107H246.529V85.83H240.981C238.937 85.83 237.769 84.662 237.769 82.618V42.468C237.769 35.022 234.557 31.81 227.111 31.81H203.751V52.98H209.299C211.343 52.98 212.511 54.148 212.511 56.192V96.342ZM250.458 69.332C250.458 89.334 264.912 108.752 291.776 108.752C311.778 108.752 323.896 96.78 323.896 96.78L313.822 79.844C313.822 79.844 304.624 87.728 293.82 87.728C285.79 87.728 278.198 83.494 276.3 74.004H323.75C323.75 74.004 324.334 68.894 324.334 66.412C324.334 45.534 311.778 30.058 289.586 30.058C265.35 30.058 250.458 47.286 250.458 69.332ZM277.03 58.674C278.636 53.126 282.286 49.038 289.586 49.038C294.842 49.038 298.492 54.002 298.492 58.674H277.03ZM329.364 95.028C329.364 95.028 341.044 108.752 362.652 108.752C380.172 108.752 393.458 99.554 393.458 84.37C393.458 59.112 355.352 60.134 355.352 52.396C355.352 50.06 358.564 48.892 362.068 48.892C365.718 48.892 368.93 50.352 368.93 52.396V56.046H390.83V47.14C390.83 33.562 373.894 30.058 361.63 30.058C345.716 30.058 330.678 37.066 330.678 53.272C330.678 77.654 368.346 79.698 368.346 85.976C368.346 88.604 366.302 89.626 362.652 89.626C351.118 89.626 340.606 78.822 340.606 78.822L329.364 95.028Z" fill="white"/>
</svg>
