<svg width="307" height="107" viewBox="0 0 307 107" fill="none" xmlns="http://www.w3.org/2000/svg">
<path d="M0.0879999 105H25.054C32.5 105 35.712 101.788 35.712 94.342V60.324C35.712 53.754 34.544 44.702 34.544 44.702H34.836C34.836 44.702 39.216 53.754 43.596 60.324L72.65 105H96.01V25.722C96.01 23.678 97.178 22.51 99.222 22.51H105.5V0.609995H80.534C73.088 0.609995 69.876 3.822 69.876 11.268V45.432C69.876 52.002 71.044 61.054 71.044 61.054H70.752C70.752 61.054 66.372 52.148 61.992 45.432L33.084 0.609995H9.578V79.888C9.578 81.932 8.41 83.1 6.366 83.1H0.0879999V105ZM109.652 67.332C109.652 87.334 124.106 106.752 150.97 106.752C170.972 106.752 183.09 94.78 183.09 94.78L173.016 77.844C173.016 77.844 163.818 85.728 153.014 85.728C144.984 85.728 137.392 81.494 135.494 72.004H182.944C182.944 72.004 183.528 66.894 183.528 64.412C183.528 43.534 170.972 28.058 148.78 28.058C124.544 28.058 109.652 45.286 109.652 67.332ZM136.224 56.674C137.83 51.126 141.48 47.038 148.78 47.038C154.036 47.038 157.686 52.002 157.686 56.674H136.224ZM207.538 105H236.592L245.06 70.252C246.082 66.164 246.52 62.222 246.52 62.222H246.812C246.812 62.222 247.25 66.164 248.272 70.252L256.74 105H285.502L300.686 53.316C301.416 51.418 302.146 50.98 303.898 50.98H306.088V29.81H287.4C281.852 29.81 278.786 32 277.764 36.964L270.172 74.194C269.296 78.282 269.296 82.078 269.296 82.078H269.004C269.004 82.078 268.858 78.282 267.836 74.194L257.47 30.102H235.862L225.496 74.194C224.474 78.282 224.182 82.078 224.182 82.078H223.89C223.89 82.078 223.89 78.282 223.014 74.194L215.422 36.964C214.4 32 211.188 29.81 205.64 29.81H186.952V50.98H189.142C190.894 50.98 191.77 51.418 192.354 53.316L207.538 105Z" fill="white"/>
</svg>
