<svg width="456" height="131" viewBox="0 0 456 131" fill="none" xmlns="http://www.w3.org/2000/svg">
<path d="M11.6261 114.949C11.6261 124.067 15.5592 128 24.6767 128H52.5657C92.7902 128 118.534 104.044 118.534 63.8196C118.534 23.5951 92.7902 0.175503 52.5657 0.175503H0.00571421V26.9918H11.6261V114.949ZM43.6269 97.2506V26.9918H51.3143C71.8735 26.9918 85.2816 39.5061 85.2816 63.8196C85.2816 88.3118 72.4098 101.184 51.3143 101.184H47.56C45.0571 101.184 43.6269 99.7535 43.6269 97.2506ZM124.563 81.8759C124.563 106.368 142.262 130.145 175.157 130.145C199.649 130.145 214.487 115.486 214.487 115.486L202.152 94.7477C202.152 94.7477 190.889 104.402 177.66 104.402C167.827 104.402 158.531 99.2171 156.207 87.5967H214.309C214.309 87.5967 215.024 81.3396 215.024 78.3004C215.024 52.7355 199.649 33.7853 172.475 33.7853C142.798 33.7853 124.563 54.8808 124.563 81.8759ZM157.1 68.8253C159.067 62.0318 163.536 57.0261 172.475 57.0261C178.911 57.0261 183.38 63.1045 183.38 68.8253H157.1ZM222.435 100.469C222.435 118.704 236.558 130.145 253.72 130.145C273.028 130.145 279.464 116.737 279.464 116.737H279.822C279.822 116.737 279.822 117.631 279.822 118.346C279.822 122.458 283.039 128 291.978 128H318.795V102.078H312.001C309.498 102.078 308.068 100.647 308.068 98.1445V71.3282C308.068 50.2326 297.52 33.7853 265.341 33.7853C254.793 33.7853 228.692 34.858 228.692 55.4171V65.6073H257.296V61.4955C257.296 57.92 261.408 57.0261 265.341 57.0261C273.028 57.0261 277.14 60.2441 277.14 69.0041V70.0767H275.888C261.586 70.0767 222.435 73.1159 222.435 100.469ZM253.542 98.8596C253.542 91.5298 264.804 88.8482 274.637 88.8482H277.497V90.2784C277.497 97.7869 270.346 106.547 262.302 106.547C256.223 106.547 253.542 103.15 253.542 98.8596ZM331.664 114.949C331.664 124.067 335.597 128 344.714 128H373.318V102.078H366.525C364.022 102.078 362.592 100.647 362.592 98.1445V13.2261C362.592 4.10857 358.659 0.175503 349.541 0.175503H320.937V26.0979H327.731C330.233 26.0979 331.664 27.5282 331.664 30.031V114.949ZM377.095 113.34C377.095 113.34 391.397 130.145 417.856 130.145C439.309 130.145 455.577 118.882 455.577 100.29C455.577 69.3616 408.917 70.6131 408.917 61.138C408.917 58.2775 412.85 56.8473 417.141 56.8473C421.61 56.8473 425.543 58.6351 425.543 61.138V65.6073H452.359V54.702C452.359 38.0759 431.621 33.7853 416.604 33.7853C397.118 33.7853 378.704 42.3665 378.704 62.2106C378.704 92.0661 424.828 94.569 424.828 102.256C424.828 105.474 422.325 106.726 417.856 106.726C403.732 106.726 390.861 93.4963 390.861 93.4963L377.095 113.34Z" fill="white"/>
</svg>
