<svg width="113" height="30" viewBox="0 0 113 30" fill="none" xmlns="http://www.w3.org/2000/svg">
<path d="M18.2255 14.6752C18.2572 14.5598 18.1555 14.454 18.0375 14.4742C14.9173 15.0099 9.76564 14.0741 7.67039 12.1563C7.57123 12.0656 7.4064 12.1152 7.38707 12.2482C6.94248 15.3064 8.65506 18.2164 11.5492 18.8828C12.9875 19.214 14.5052 18.9308 15.7689 18.0952C16.963 17.3057 17.8379 16.0841 18.2255 14.6752Z" fill="#FFC700"/>
<path fill-rule="evenodd" clip-rule="evenodd" d="M25.7814 12.978C25.782 12.9265 25.7823 12.8749 25.7823 12.8233C25.7823 5.75841 20.0551 0.0312437 12.9903 0.0312459C5.92543 0.0312482 0.198244 5.75842 0.198246 12.8233C0.198249 19.8881 5.92544 25.6153 12.9903 25.6153C13.0229 25.6153 13.0555 25.6152 13.0881 25.615L13.0881 29.6963C13.0881 29.9098 13.321 30.0406 13.5013 29.9265C16.4881 28.035 21.2532 24.1883 23.8832 19.5335C24.7212 18.176 25.3126 16.65 25.5948 15.0182C25.7196 14.3453 25.7849 13.6643 25.7814 12.978ZM22.0082 13.8678C21.4313 18.8482 16.9263 22.418 11.9459 21.8411C6.96547 21.2642 3.3957 16.7591 3.9726 11.7787C4.5495 6.79829 9.05453 3.22853 14.035 3.80543C19.0154 4.38232 22.5851 8.88741 22.0082 13.8678Z" fill="#FFC700"/>
<path d="M57.8932 5.77445C57.8932 7.05254 58.7674 7.83734 59.8442 7.83734C61.0326 7.83734 62.1089 6.98528 62.1089 5.59504C62.1089 4.3169 61.1895 3.46484 60.1133 3.46484C58.902 3.46484 57.8932 4.38417 57.8932 5.77445Z" fill="#313038"/>
<path d="M58.207 9.51907V19.9683C58.207 20.5737 58.3638 20.7082 58.9248 20.7082H61.0773C61.6378 20.7082 61.7946 20.5737 61.7946 19.9683V9.51907C61.7946 8.91368 61.6378 8.7791 61.0773 8.7791H58.9248C58.3638 8.7791 58.207 8.91368 58.207 9.51907Z" fill="#313038"/>
<path fill-rule="evenodd" clip-rule="evenodd" d="M40.5729 4.33933V17.6138C40.5729 18.1968 40.6402 18.6229 40.7971 19.3404L40.9989 20.1476C41.0886 20.5737 40.9541 20.7082 40.6402 20.7082H38.1063C37.7476 20.7082 37.5682 20.641 37.4785 20.2598L37.2543 19.4301C36.2004 20.6409 34.8774 20.9997 33.4872 20.9997C30.8637 20.9997 28.8008 19.6992 28.8008 15.2146C28.8008 10.573 31.0206 8.51003 34.1375 8.51003C35.3259 8.51003 36.2452 8.80153 36.9628 9.36214H36.9852V4.33933C36.9852 3.7339 37.1422 3.59937 37.7027 3.59937H39.8554C40.4159 3.59937 40.5729 3.7339 40.5729 4.33933ZM32.5454 15.08C32.5454 16.9187 33.1733 17.7932 34.5411 17.7932C35.9986 17.7932 36.8282 16.7842 36.9852 14.8782V12.2995C36.6264 12.008 35.7968 11.7165 34.9895 11.7165C33.3302 11.7165 32.5454 12.9947 32.5454 15.08Z" fill="#313038"/>
<path fill-rule="evenodd" clip-rule="evenodd" d="M47.3044 8.51003C43.4252 8.51003 41.4296 11.0887 41.4296 14.7885C41.4296 18.2865 43.201 20.8652 47.9323 20.8652C50.1522 20.8652 51.6545 20.2822 51.991 20.1252C52.3723 19.9458 52.484 19.7889 52.484 19.4077V17.4344C52.484 17.1429 52.3946 17.0533 52.1926 17.0533C52.0465 17.0533 51.853 17.1239 51.6296 17.2055C51.5447 17.2365 51.4556 17.269 51.3631 17.2999C50.4212 17.6138 49.2552 17.7932 48.1116 17.7932C46.2281 17.7932 45.3536 17.2999 45.0397 16.1339C45.8918 16.403 46.7663 16.5151 47.7529 16.5151C49.5019 16.5151 52.484 16.1115 52.484 12.8153C52.484 10.5281 51.094 8.51003 47.3044 8.51003ZM47.3044 11.3354C48.3807 11.3354 49.1207 11.7614 49.1207 12.6359C49.1207 13.5104 48.3807 13.7795 47.3044 13.7795C46.6317 13.7795 45.8021 13.6898 45.0173 13.5328C45.3312 12.0529 46.1833 11.3354 47.3044 11.3354Z" fill="#313038"/>
<path d="M56.9983 4.33933C56.9983 3.7339 56.8191 3.59937 56.2809 3.59937H54.1285C53.5675 3.59937 53.4106 3.7339 53.4106 4.33933V19.9683C53.4106 20.5737 53.5675 20.7082 54.1285 20.7082H56.2809C56.8191 20.7082 56.9983 20.5737 56.9983 19.9683V4.33933Z" fill="#313038"/>
<path d="M66.3666 9.58634L68.6312 17.1205L70.8959 9.58634C71.1203 8.82398 71.165 8.7791 71.86 8.7791H74.1698C74.7303 8.7791 74.8872 8.95851 74.6851 9.54151L70.7614 20.3943C70.6492 20.6409 70.6045 20.7082 70.3578 20.7082H66.9047C66.658 20.7082 66.5904 20.6409 66.5011 20.3943L62.5769 9.54151C62.3748 8.95851 62.5322 8.7791 63.0926 8.7791H65.3797C66.0746 8.7791 66.1422 8.82398 66.3666 9.58634Z" fill="#313038"/>
<path fill-rule="evenodd" clip-rule="evenodd" d="M74.1402 14.7885C74.1402 11.0887 76.1358 8.51003 80.0149 8.51003C83.8046 8.51003 85.1946 10.5281 85.1946 12.8153C85.1946 16.1115 82.2126 16.5151 80.4631 16.5151C79.4768 16.5151 78.6021 16.403 77.7502 16.1339C78.0639 17.2999 78.9386 17.7932 80.8221 17.7932C81.9658 17.7932 83.1319 17.6138 84.0736 17.2999C84.1663 17.269 84.2555 17.2364 84.3404 17.2054C84.5635 17.1239 84.7568 17.0533 84.9032 17.0533C85.1052 17.0533 85.1946 17.1429 85.1946 17.4344V19.4077C85.1946 19.7889 85.0824 19.9458 84.7011 20.1252C84.365 20.2822 82.8629 20.8652 80.6429 20.8652C75.9114 20.8652 74.1402 18.2865 74.1402 14.7885ZM81.8313 12.6359C81.8313 11.7614 81.0911 11.3354 80.0149 11.3354C78.894 11.3354 78.0416 12.0529 77.7279 13.5328C78.5127 13.6898 79.3422 13.7795 80.0149 13.7795C81.0911 13.7795 81.8313 13.5104 81.8313 12.6359Z" fill="#313038"/>
<path d="M86.0656 19.9876V9.53838C86.0656 8.933 86.2225 8.79842 86.7835 8.79842H88.936C89.4741 8.79842 89.6533 8.933 89.6533 9.53838V11.5565C89.9447 10.525 90.8417 8.52936 93.1963 8.52936C93.347 8.52936 93.5095 8.54122 93.6656 8.56328C94.0268 8.59512 94.4877 8.6666 95.0755 8.79842C95.0946 8.80488 95.1136 8.811 95.1324 8.81696C95.1438 8.82056 95.1551 8.82409 95.1663 8.8276C95.3878 8.89686 95.5849 8.95853 95.7035 9.31415L98.2819 16.9829L100.771 9.31415C100.906 8.91056 101.018 8.79842 101.354 8.79842H104.067C104.493 8.79842 104.65 9.04509 104.448 9.62809L100.188 21.9159C98.9099 25.6158 96.9366 26.5351 94.8288 26.5351C94.0216 26.5351 93.6627 26.4903 93.2591 26.3781C92.9677 26.2885 92.8783 26.0866 92.8783 25.8176L92.9007 23.8892C92.9007 23.4408 93.0352 23.3062 93.3936 23.3286C93.4179 23.3321 93.4433 23.3361 93.4704 23.3404C93.6191 23.3638 93.8223 23.3959 94.2013 23.3959C95.0532 23.3959 95.9502 23.0147 96.6229 21.759L92.8296 11.7857C90.5461 12.0821 89.7951 14.718 89.7525 16.5569V19.9876C89.7525 20.593 89.5733 20.7276 88.936 20.7276H86.7835C86.2225 20.7276 86.0656 20.593 86.0656 19.9876Z" fill="#313038"/>
<path d="M108.283 12.1391C107.958 12.1391 107.729 11.9239 107.729 11.608C107.729 11.2921 107.958 11.0769 108.283 11.0769C108.609 11.0769 108.838 11.2921 108.838 11.608C108.838 11.9239 108.609 12.1391 108.283 12.1391Z" fill="#313038"/>
<path fill-rule="evenodd" clip-rule="evenodd" d="M105.532 11.9094C105.532 10.5841 105.532 9.92145 105.887 9.46815C105.97 9.36209 106.066 9.26651 106.172 9.18346C106.625 8.82833 107.288 8.82833 108.613 8.82833H109.72C111.045 8.82833 111.708 8.82833 112.161 9.18346C112.267 9.26651 112.363 9.36209 112.446 9.46815C112.801 9.92145 112.801 10.5841 112.801 11.9094C112.801 13.2346 112.801 13.8973 112.446 14.3506C112.363 14.4566 112.267 14.5522 112.161 14.6353C111.708 14.9904 111.045 14.9904 109.72 14.9904H108.613C107.288 14.9904 106.625 14.9904 106.172 14.6353C106.066 14.5522 105.97 14.4566 105.887 14.3506C105.532 13.8973 105.532 13.2346 105.532 11.9094ZM108.838 10.5091V10.7426C108.686 10.5548 108.467 10.445 108.169 10.445C107.519 10.445 107.042 10.9761 107.042 11.608C107.042 12.2398 107.519 12.771 108.169 12.771C108.467 12.771 108.686 12.6611 108.838 12.4734V12.684C108.838 13.0091 108.641 13.174 108.32 13.174C108.018 13.174 107.885 13.0457 107.798 12.8855L107.212 13.2243C107.423 13.5998 107.821 13.7784 108.297 13.7784C108.906 13.7784 109.506 13.4533 109.506 12.684V10.5091H108.838ZM110.514 10.9166V10.5091H109.827V12.7985H110.514V11.7637C110.514 11.3104 110.916 11.1959 111.2 11.2417V10.4633C110.912 10.4633 110.605 10.6098 110.514 10.9166Z" fill="#313038"/>
</svg>
