<svg width="375" height="565" viewBox="0 0 375 565" fill="none" xmlns="http://www.w3.org/2000/svg">
<g clip-path="url(#clip0)">
<path d="M406 0H-157V565H406V0Z" fill="url(#paint0_linear)"/>
<g opacity="0.8">
<g opacity="0.8">
<path opacity="0.8" d="M-72.2279 360.124L-86.876 340.336C-84.8785 338.845 -37.1956 303.842 25.033 288.628C58.4776 280.456 94.5343 277.783 129.362 275.213C169.567 272.232 207.519 269.457 236.764 258.611C268.006 247.047 304.421 215.899 342.988 182.901C366.701 162.598 391.285 141.628 416.74 123.278C446.087 102.102 472.31 87.8131 496.792 79.4865L504.628 102.873C454.743 119.783 406.087 161.416 358.967 201.662C318.711 236.099 280.657 268.634 245.317 281.741C212.794 293.768 173.152 296.698 131.206 299.782C97.3513 302.3 62.3189 304.87 30.8717 312.58C-26.5937 326.612 -71.767 359.816 -72.2279 360.124Z" fill="#4CA4D2"/>
</g>
<path opacity="0.8" d="M151.692 -20.5871C151.692 -20.5871 166.545 29.6296 175.201 45.5632C183.857 61.4454 189.593 39.7037 195.124 33.4845C200.605 27.2652 239.017 2.38816 237.788 -3.7797C236.559 -9.94757 151.692 -20.5871 151.692 -20.5871Z" fill="#4CA4D2"/>
<path opacity="0.8" d="M158.402 483.173L162.807 534.52C163.319 540.226 168.236 544.492 173.921 544.081L237.276 540.02C245.778 539.455 250.08 529.483 244.702 522.904C238.352 515.092 232.052 505.017 230.362 494.121C229.798 490.472 227.289 487.439 223.857 486.051C212.282 481.477 186.52 472.122 168.953 471.814C162.807 471.66 157.89 476.954 158.402 483.173Z" fill="#4CA4D2"/>
</g>
<path d="M482.605 317.669C429.135 317.669 377.149 300.501 327.981 266.681C288.903 239.748 251.566 202.278 217.045 155.248C158.402 75.4258 127.569 -5.47602 127.262 -6.2984C126.238 -8.97115 127.621 -11.9009 130.233 -12.9289C132.896 -13.9568 135.815 -12.5691 136.84 -9.94773C137.147 -9.12534 167.519 70.6457 225.394 149.337C259.248 195.391 295.766 232.038 333.871 258.252C381.247 290.89 431.286 307.389 482.605 307.389C485.422 307.389 487.727 309.702 487.727 312.529C487.727 315.356 485.422 317.669 482.605 317.669Z" fill="white"/>
<path d="M-43.3415 398.776C-47.7974 398.776 -51.6899 395.435 -52.2532 390.861C-52.8166 385.926 -49.3339 381.455 -44.4171 380.889C-43.1366 380.735 84.6496 365.264 210.643 332.831C284.242 313.865 342.783 292.894 384.627 270.587C434.564 243.911 459.865 215.848 459.865 187.167C459.865 182.181 463.86 178.172 468.828 178.172C473.796 178.172 477.791 182.181 477.791 187.167C477.791 206.39 469.596 225.048 453.411 242.626C439.429 257.686 419.147 272.438 393.027 286.418C349.902 309.445 290.029 330.93 214.997 350.256C87.825 382.945 -40.9855 398.57 -42.2659 398.725C-42.6245 398.725 -42.983 398.776 -43.3415 398.776Z" fill="white"/>
<path d="M-79.5519 145.945C-80.3202 145.945 -81.0372 145.431 -81.2933 144.609C-81.5494 143.632 -80.986 142.656 -80.0129 142.399C-78.6812 142.039 55.1998 104.929 159.631 49.8806C160.502 49.418 161.577 49.7778 162.038 50.6516C162.499 51.5254 162.141 52.6047 161.27 53.0673C56.4802 108.321 -77.7081 145.534 -79.091 145.894C-79.2446 145.945 -79.3983 145.945 -79.5519 145.945Z" fill="white"/>
<path d="M-90.205 219.188C-91.1781 219.188 -91.9464 218.417 -91.9976 217.492C-92.0488 216.516 -91.2805 215.642 -90.3074 215.59C-78.5787 215.076 -45.2365 211.324 -3.23867 200.942C27.5939 193.283 58.5802 183.312 88.9006 171.182C126.75 156.071 163.677 137.618 198.556 116.339C199.427 115.825 200.502 116.082 201.014 116.956C201.527 117.83 201.27 118.909 200.4 119.423C165.316 140.805 128.235 159.36 90.1298 174.574C59.6557 186.756 28.5158 196.779 -2.47041 204.488C-44.7244 214.974 -78.2714 218.726 -90.1538 219.24C-90.1538 219.188 -90.205 219.188 -90.205 219.188Z" fill="white"/>
<path d="M-14.8649 565C-15.838 565 -16.8111 564.64 -17.5794 563.869C-19.0647 562.378 -19.0647 559.911 -17.5794 558.421C6.79986 533.955 26.9281 508.615 42.242 483.121C54.4316 462.768 63.6506 442.259 69.5406 422.214C79.5279 388.085 76.5061 366.754 76.4549 366.549C76.1476 364.441 77.5816 362.488 79.6815 362.18C81.7814 361.872 83.7277 363.311 84.035 365.418C84.1886 366.343 87.3641 388.239 77.0695 423.859C71.0259 444.624 61.602 465.749 49.0538 486.771C33.4327 512.933 12.7922 538.889 -12.1504 563.92C-12.9187 564.64 -13.8918 565 -14.8649 565Z" fill="white"/>
<path d="M177.198 355.344C174.791 355.344 172.691 353.648 172.179 351.232C171.616 348.457 173.408 345.732 176.174 345.167C207.416 338.845 229.747 324.299 242.5 301.889C255.97 278.194 256.38 249.668 254.382 229.931C252.18 208.189 246.597 191.896 246.546 191.741C245.624 189.069 247.007 186.139 249.722 185.214C252.385 184.289 255.304 185.676 256.226 188.349C256.482 189.069 262.219 205.722 264.575 228.594C267.75 259.177 263.192 286.264 251.463 306.926C237.225 332.06 212.589 348.302 178.274 355.241C177.916 355.344 177.557 355.344 177.198 355.344Z" fill="white"/>
<path d="M27.9524 254.602C27.1841 254.602 26.4671 254.088 26.211 253.317C25.9549 252.341 26.4671 251.364 27.4402 251.107C28.2597 250.85 112.819 225.665 212.794 185.111C271.489 161.313 323.986 136.899 368.75 112.639C424.679 82.3646 468.623 52.1421 499.506 22.8961C500.224 22.228 501.35 22.228 502.016 22.9475C502.682 23.6671 502.682 24.7979 501.965 25.4661C470.927 54.9176 426.676 85.2943 370.491 115.774C325.574 140.086 272.974 164.551 214.126 188.4C113.946 229.057 29.284 254.242 28.4646 254.499C28.3109 254.551 28.1573 254.602 27.9524 254.602Z" fill="white"/>
<path d="M477.227 528.147C474.41 528.147 472.106 525.834 472.106 523.007C472.106 486.257 458.738 454.184 432.361 427.713C411.004 406.229 381.042 388.239 343.397 374.259C278.762 350.255 213.102 346.452 212.436 346.4C209.619 346.246 207.468 343.831 207.622 341.004C207.775 338.177 210.182 336.018 212.999 336.172C213.665 336.224 280.657 340.078 346.727 364.596C385.856 379.039 417.099 397.799 439.532 420.363C467.957 448.89 482.349 483.43 482.349 523.007C482.349 525.834 480.095 528.147 477.227 528.147Z" fill="white"/>
<path d="M147.134 527.839C145.137 527.839 143.293 526.708 142.473 524.806L-53.2776 85.6542C-54.4556 83.0842 -53.2776 80.0003 -50.7167 78.8695C-48.1559 77.6873 -45.0829 78.8695 -43.9561 81.4395L138.837 491.602L112.051 221.81C105.802 209.731 38.2983 79.0237 14.8921 -6.76098C14.1239 -9.48512 15.7628 -12.3121 18.4773 -13.083C21.1918 -13.854 24.0088 -12.2093 24.777 -9.48512C48.9514 79.0237 120.911 216.516 121.628 217.903C121.936 218.469 122.14 219.137 122.192 219.805L152.205 522.185C152.461 524.703 150.873 527.016 148.415 527.684C148.005 527.736 147.544 527.839 147.134 527.839Z" fill="white"/>
<path d="M300.375 531.848C268.314 531.848 242.244 505.686 242.244 473.51C242.244 441.334 268.314 415.172 300.375 415.172C332.437 415.172 358.506 441.334 358.506 473.51C358.506 505.686 332.437 531.848 300.375 531.848ZM300.375 425.401C273.947 425.401 252.488 446.988 252.488 473.458C252.488 499.929 273.999 521.516 300.375 521.516C326.752 521.516 348.263 499.929 348.263 473.458C348.263 446.988 326.803 425.401 300.375 425.401Z" fill="white"/>
<path d="M247.366 478.598C225.394 478.598 205.316 472.636 187.749 460.917C173.767 451.614 161.424 438.661 150.975 422.471C133.357 395.127 127.364 368.142 127.108 367.011C126.494 364.236 128.235 361.512 131.001 360.895C133.766 360.278 136.481 362.026 137.096 364.801C137.147 365.058 143.037 391.323 159.733 417.125C169.413 432.082 180.784 443.955 193.588 452.436C209.414 462.973 227.545 468.267 247.417 468.267C250.234 468.267 252.538 470.58 252.538 473.407C252.538 476.234 250.182 478.598 247.366 478.598Z" fill="white"/>
<path d="M468.827 479.524C467.496 479.524 466.215 479.01 465.191 478.033C447.009 459.786 423.244 454.081 394.665 461.174C372.847 466.571 356.457 477.622 356.304 477.725C353.948 479.318 350.772 478.701 349.185 476.337C347.597 473.972 348.211 470.786 350.567 469.192C351.284 468.678 368.647 457.011 392.258 451.151C424.115 443.236 451.875 450.021 472.515 470.683C474.512 472.688 474.512 475.926 472.515 477.93C471.439 479.01 470.159 479.524 468.827 479.524Z" fill="white"/>
<path d="M300.375 425.4C297.558 425.4 295.253 423.088 295.253 420.261C295.253 400.009 283.781 381.711 261.092 365.778C243.627 353.545 225.855 347.48 225.65 347.377C222.986 346.452 221.501 343.574 222.423 340.849C223.345 338.177 226.213 336.686 228.876 337.611C229.645 337.868 248.032 344.139 266.726 357.143C292.078 374.875 305.446 396.669 305.446 420.158C305.497 423.088 303.192 425.4 300.375 425.4Z" fill="white"/>
<path d="M32.8693 138.852L-3.90448 153.038L-11.6895 132.787L25.1355 118.549L32.8693 138.852Z" fill="url(#paint1_linear)"/>
<path d="M73.9453 169.126L12.1265 192.975L-1.18994 158.332L60.6289 134.432L73.9453 169.126Z" fill="url(#paint2_linear)"/>
<path d="M171.821 118.035L97.7611 151.702L75.2769 101.896L149.337 68.2299L171.821 118.035Z" fill="url(#paint3_linear)"/>
<path d="M457.099 531.025L375.869 534.623L373.462 479.986L454.692 476.388L457.099 531.025Z" fill="url(#paint4_linear)"/>
<path d="M289.005 205.054L268.416 182.849L283.166 169.074L303.755 191.279L289.005 205.054Z" fill="url(#paint5_linear)"/>
<path d="M320.862 185.676L300.222 163.421L315.023 149.646L335.613 171.901L320.862 185.676Z" fill="url(#paint6_linear)"/>
<path d="M350.568 164.14L334.178 146.459L348.929 132.684L365.318 150.365L350.568 164.14Z" fill="url(#paint7_linear)"/>
<path d="M76.9669 265.91L49.7195 274.237L43.8296 254.911L71.077 246.584L76.9669 265.91Z" fill="url(#paint8_linear)"/>
<path d="M101.909 314.328L107.543 342.34L87.8248 346.349L82.1909 318.337L101.909 314.328Z" fill="url(#paint9_linear)"/>
<path d="M166.084 308.263L169.106 336.686L149.08 338.845L146.059 310.421L166.084 308.263Z" fill="url(#paint10_linear)"/>
<path d="M194.356 299.73L203.985 326.663L185.035 333.499L175.406 306.566L194.356 299.73Z" fill="url(#paint11_linear)"/>
<path d="M208.492 398.262L229.952 424.321L207.724 429.101L186.776 403.659L208.492 398.262Z" fill="url(#paint12_linear)"/>
<path d="M1.67788 503.887L-25.5695 512.265L-31.4595 492.939L-4.21207 484.561L1.67788 503.887Z" fill="url(#paint13_linear)"/>
<path d="M110.668 254.808L83.4202 263.134L77.5303 243.808L104.829 235.43L110.668 254.808Z" fill="url(#paint14_linear)"/>
<path d="M60.1168 223.814L32.8694 232.141L26.9795 212.815L54.2269 204.437L60.1168 223.814Z" fill="url(#paint15_linear)"/>
<path d="M93.8175 212.661L66.5701 221.039L60.6802 201.713L87.9276 193.335L93.8175 212.661Z" fill="url(#paint16_linear)"/>
<path d="M3.36853 229.622L-25.1081 239.902L-31.9199 220.833L-3.44332 210.605L3.36853 229.622Z" fill="url(#paint17_linear)"/>
<path d="M20.9867 282.512L-7.48991 292.74L-14.3018 273.723L14.1749 263.443L20.9867 282.512Z" fill="url(#paint18_linear)"/>
<path d="M10.5897 255.63L-17.8869 265.858L-24.6987 246.841L3.82908 236.613L10.5897 255.63Z" fill="url(#paint19_linear)"/>
<path d="M143.754 178.48L116.199 191.022L107.851 172.621L135.405 160.08L143.754 178.48Z" fill="url(#paint20_linear)"/>
<path d="M178.018 191.176L150.463 203.666L142.166 185.265L169.721 172.724L178.018 191.176Z" fill="url(#paint21_linear)"/>
<path d="M177.25 162.393L150.002 175.602L141.193 157.407L168.44 144.146L177.25 162.393Z" fill="url(#paint22_linear)"/>
<path d="M87.9275 39.3438L60.3728 51.8851L52.0757 33.4843L79.6304 20.943L87.9275 39.3438Z" fill="url(#paint23_linear)"/>
<path d="M121.423 23.2559L94.1761 36.4654L85.418 18.2702L112.665 5.00934L121.423 23.2559Z" fill="url(#paint24_linear)"/>
<path d="M116.148 56.254L88.9519 69.4635L80.1426 51.2683L107.39 38.0588L116.148 56.254Z" fill="url(#paint25_linear)"/>
<path d="M212.282 175.14L185.086 188.4L176.276 170.205L203.524 156.944L212.282 175.14Z" fill="url(#paint26_linear)"/>
<path d="M137.3 267.298L134.996 232.963L235.483 198.115V244.374L137.3 267.298Z" fill="url(#paint27_linear)"/>
<path d="M150.822 376.52L227.34 357.348L275.893 413.682L237.891 421.186L213.716 389.781L163.78 401.86L150.822 376.52Z" fill="url(#paint28_linear)"/>
<path d="M299.761 338.331L375.152 310.678L448.751 330.313V390.347L388.878 351.952L299.761 338.331Z" fill="url(#paint29_linear)"/>
<path d="M336.688 242.369L411.106 179.046L441.068 202.587L371.515 267.298L336.688 242.369Z" fill="url(#paint30_linear)"/>
<path d="M-14.8647 408.079L60.4241 398.879L22.7797 488.467L-14.8647 408.079Z" fill="url(#paint31_linear)"/>
<g opacity="0.8">
<path opacity="0.8" d="M256.226 2.23386C256.226 2.23386 200.502 41.7596 195.637 56.0999C184.164 89.8689 219.145 99.6861 223.704 113.05C231.642 136.385 247.827 156.585 267.955 151.393C288.135 146.202 316.662 119.526 334.281 107.396C351.9 95.2658 388.264 97.9385 421.247 58.5156C445.934 28.9613 483.169 -15.3445 440.812 -17.9659C398.456 -20.5872 292.283 -60.7811 256.226 2.23386Z" fill="#A3D25E"/>
<path opacity="0.8" d="M300.478 517.559C324.182 517.559 343.398 498.275 343.398 474.487C343.398 450.698 324.182 431.414 300.478 431.414C276.774 431.414 257.558 450.698 257.558 474.487C257.558 498.275 276.774 517.559 300.478 517.559Z" fill="#A3D25E"/>
<path opacity="0.8" d="M32.9209 524.292C32.9209 524.292 71.2824 478.753 84.3427 432.083C85.367 428.382 90.4887 428.022 92.0252 431.569L142.884 547.884L32.9209 524.292Z" fill="#A3D25E"/>
<path opacity="0.8" d="M96.2759 380.992L121.321 376.366C122.345 376.161 123.267 376.88 123.37 377.908L131.001 456.651C131.206 458.604 128.491 459.324 127.672 457.525L94.9955 383.408C94.5858 382.38 95.2004 381.198 96.2759 380.992Z" fill="#A3D25E"/>
<path opacity="0.8" d="M269.748 276.858C268.672 281.844 265.036 297.829 259.761 308.108C258.531 310.524 260.734 313.248 263.295 312.529C278.864 308.16 313.999 297.777 339.761 286.264C342.015 285.236 342.22 282.152 340.171 280.816C331.208 275.162 312.309 262.98 305.395 256.453C304.371 255.476 302.732 255.322 301.554 256.144C295.51 260.153 278.506 271.358 271.438 274.699C270.567 275.162 269.902 275.933 269.748 276.858Z" fill="#A3D25E"/>
<path opacity="0.8" d="M-52.5604 56.511L-25.2105 105.957C-22.8033 110.274 -17.6816 112.227 -13.0721 110.583L32.2037 94.5462C37.479 92.6958 40.2447 86.8364 38.2985 81.5937L8.23413 -1.46687C6.80006 -5.47598 3.01 -8.09732 -1.241 -8.09732H-48.3606C-54.3017 -8.09732 -58.9113 -2.95743 -58.3991 2.95343L-53.7896 52.6047C-53.6359 53.9411 -53.2262 55.2775 -52.5604 56.511Z" fill="#A3D25E"/>
</g>
<g opacity="0.8">
<path opacity="0.8" d="M37.6322 333.551C41.8752 333.551 45.3148 330.099 45.3148 325.841C45.3148 321.583 41.8752 318.131 37.6322 318.131C33.3893 318.131 29.9497 321.583 29.9497 325.841C29.9497 330.099 33.3893 333.551 37.6322 333.551Z" fill="url(#paint32_linear)"/>
<path opacity="0.8" d="M52.7411 362.591C56.9841 362.591 60.4236 359.139 60.4236 354.881C60.4236 350.623 56.9841 347.172 52.7411 347.172C48.4982 347.172 45.0586 350.623 45.0586 354.881C45.0586 359.139 48.4982 362.591 52.7411 362.591Z" fill="url(#paint33_linear)"/>
<path opacity="0.8" d="M171.872 421.391C176.114 421.391 179.554 417.94 179.554 413.682C179.554 409.424 176.114 405.972 171.872 405.972C167.629 405.972 164.189 409.424 164.189 413.682C164.189 417.94 167.629 421.391 171.872 421.391Z" fill="url(#paint34_linear)"/>
<path opacity="0.8" d="M156.046 461.997C160.289 461.997 163.728 458.545 163.728 454.287C163.728 450.029 160.289 446.577 156.046 446.577C151.803 446.577 148.363 450.029 148.363 454.287C148.363 458.545 151.803 461.997 156.046 461.997Z" fill="url(#paint35_linear)"/>
<path opacity="0.8" d="M326.701 247.92C330.944 247.92 334.383 244.468 334.383 240.21C334.383 235.952 330.944 232.501 326.701 232.501C322.458 232.501 319.018 235.952 319.018 240.21C319.018 244.468 322.458 247.92 326.701 247.92Z" fill="url(#paint36_linear)"/>
<path opacity="0.8" d="M229.952 461.997C234.195 461.997 237.634 458.545 237.634 454.287C237.634 450.029 234.195 446.577 229.952 446.577C225.709 446.577 222.269 450.029 222.269 454.287C222.269 458.545 225.709 461.997 229.952 461.997Z" fill="url(#paint37_linear)"/>
<path opacity="0.8" d="M66.2626 80.874C70.5056 80.874 73.9452 77.4222 73.9452 73.1642C73.9452 68.9062 70.5056 65.4544 66.2626 65.4544C62.0197 65.4544 58.5801 68.9062 58.5801 73.1642C58.5801 77.4222 62.0197 80.874 66.2626 80.874Z" fill="url(#paint38_linear)"/>
<path opacity="0.8" d="M220.63 312.631C224.873 312.631 228.313 309.18 228.313 304.922C228.313 300.664 224.873 297.212 220.63 297.212C216.387 297.212 212.948 300.664 212.948 304.922C212.948 309.18 216.387 312.631 220.63 312.631Z" fill="url(#paint39_linear)"/>
<path opacity="0.8" d="M127.518 208.909C131.761 208.909 135.2 205.457 135.2 201.199C135.2 196.941 131.761 193.489 127.518 193.489C123.275 193.489 119.835 196.941 119.835 201.199C119.835 205.457 123.275 208.909 127.518 208.909Z" fill="url(#paint40_linear)"/>
<path opacity="0.8" d="M10.5898 365.932C14.8327 365.932 18.2723 362.48 18.2723 358.222C18.2723 353.964 14.8327 350.512 10.5898 350.512C6.34682 350.512 2.90723 353.964 2.90723 358.222C2.90723 362.48 6.34682 365.932 10.5898 365.932Z" fill="url(#paint41_linear)"/>
<path opacity="0.8" d="M374.23 143.529C378.473 143.529 381.912 140.077 381.912 135.819C381.912 131.561 378.473 128.11 374.23 128.11C369.987 128.11 366.547 131.561 366.547 135.819C366.547 140.077 369.987 143.529 374.23 143.529Z" fill="url(#paint42_linear)"/>
<path opacity="0.8" d="M366.599 451.408C370.841 451.408 374.281 447.957 374.281 443.699C374.281 439.44 370.841 435.989 366.599 435.989C362.356 435.989 358.916 439.44 358.916 443.699C358.916 447.957 362.356 451.408 366.599 451.408Z" fill="url(#paint43_linear)"/>
<path opacity="0.8" d="M286.085 344.242C290.328 344.242 293.768 340.79 293.768 336.532C293.768 332.274 290.328 328.822 286.085 328.822C281.842 328.822 278.403 332.274 278.403 336.532C278.403 340.79 281.842 344.242 286.085 344.242Z" fill="url(#paint44_linear)"/>
<path opacity="0.8" d="M233.947 194.774C238.19 194.774 241.629 191.322 241.629 187.064C241.629 182.806 238.19 179.354 233.947 179.354C229.704 179.354 226.264 182.806 226.264 187.064C226.264 191.322 229.704 194.774 233.947 194.774Z" fill="url(#paint45_linear)"/>
<path opacity="0.8" d="M142.934 51.5253C147.177 51.5253 150.617 48.0735 150.617 43.8155C150.617 39.5575 147.177 36.1057 142.934 36.1057C138.691 36.1057 135.251 39.5575 135.251 43.8155C135.251 48.0735 138.691 51.5253 142.934 51.5253Z" fill="url(#paint46_linear)"/>
</g>
<circle cx="190" cy="359" r="3" fill="#2A9D8F"/>
<path d="M193.737 349.653C199.655 348.008 204 342.554 204 336.08C204 328.304 197.732 322 190 322C182.268 322 176 328.304 176 336.08C176 342.554 180.345 348.008 186.263 349.653C186.268 349.658 186.274 349.662 186.28 349.667C186.743 350.071 187.108 350.631 187.84 351.751L188.227 352.345C188.829 353.267 189.129 353.727 189.498 353.892C189.821 354.036 190.179 354.036 190.502 353.892C190.871 353.727 191.171 353.267 191.773 352.345L192.16 351.751C192.892 350.631 193.257 350.071 193.72 349.667C193.726 349.662 193.732 349.658 193.737 349.653Z" fill="#2A9D8F"/>
<path d="M191.091 332.609L188.909 332.609M194.909 336.15V337.826C194.909 339.794 194.909 340.777 194.27 341.389C193.631 342 192.602 342 190.545 342H189.455C187.398 342 186.369 342 185.73 341.389C185.091 340.777 185.091 339.794 185.091 337.826V336.15M186.989 330H193.011C193.399 330 193.594 330 193.752 330.045C194.124 330.149 194.415 330.426 194.525 330.781C194.571 330.932 194.571 331.117 194.571 331.487C194.571 331.598 194.571 331.654 194.577 331.708C194.591 331.834 194.627 331.957 194.685 332.071C194.709 332.12 194.74 332.168 194.801 332.263L194.881 332.388C195.671 333.618 196 334.083 196 334.628C196 335.53 195.232 336.261 194.286 336.261C193.625 336.261 193.051 335.904 192.765 335.382C192.561 335.896 192.039 336.261 191.429 336.261C190.64 336.261 190 335.652 190 334.9C190 335.652 189.36 336.261 188.571 336.261C187.961 336.261 187.439 335.896 187.235 335.382C186.949 335.904 186.375 336.261 185.714 336.261C184.768 336.261 184 335.53 184 334.628C184 334.083 184.329 333.618 185.119 332.388L185.199 332.263C185.26 332.168 185.291 332.12 185.315 332.071C185.373 331.957 185.409 331.834 185.423 331.708C185.429 331.653 185.429 331.598 185.429 331.487C185.429 331.117 185.429 330.932 185.475 330.781C185.585 330.426 185.876 330.149 186.248 330.045C186.406 330 186.601 330 186.989 330Z" stroke="white" stroke-width="1.33333" stroke-linecap="round" stroke-linejoin="round"/>
<circle cx="40" cy="403" r="3" fill="#E77C40"/>
<path d="M43.7372 393.653C49.6548 392.008 54 386.554 54 380.08C54 372.304 47.732 366 40 366C32.268 366 26 372.304 26 380.08C26 386.554 30.3452 392.008 36.2627 393.653C36.2683 393.658 36.2739 393.662 36.2795 393.667C36.7428 394.071 37.1084 394.631 37.8396 395.751L38.2274 396.345C38.8287 397.267 39.1294 397.727 39.498 397.892C39.8209 398.036 40.1791 398.036 40.502 397.892C40.8706 397.727 41.1712 397.267 41.7726 396.345L42.1604 395.751C42.8915 394.631 43.2571 394.071 43.7205 393.667C43.7261 393.662 43.7316 393.658 43.7372 393.653Z" fill="#E77C40"/>
<path d="M41.0909 376.609L38.9091 376.609M44.9091 380.15V381.826C44.9091 383.794 44.9091 384.777 44.27 385.389C43.631 386 42.6025 386 40.5455 386H39.4545C37.3975 386 36.369 386 35.7299 385.389C35.0909 384.777 35.0909 383.794 35.0909 381.826V380.15M36.9891 374H43.0109C43.3995 374 43.5937 374 43.7521 374.045C44.124 374.149 44.4149 374.426 44.5247 374.781C44.5714 374.932 44.5714 375.117 44.5714 375.487C44.5714 375.598 44.5714 375.654 44.5772 375.708C44.5905 375.834 44.6269 375.957 44.6846 376.071C44.7095 376.12 44.7399 376.168 44.8008 376.263L44.8812 376.388C45.6711 377.618 46 378.083 46 378.628C46 379.53 45.2325 380.261 44.2857 380.261C43.6246 380.261 43.0509 379.904 42.7649 379.382C42.5606 379.896 42.0393 380.261 41.4286 380.261C40.6396 380.261 40 379.652 40 378.9C40 379.652 39.3604 380.261 38.5714 380.261C37.9607 380.261 37.4394 379.896 37.2351 379.382C36.9491 379.904 36.3754 380.261 35.7143 380.261C34.7675 380.261 34 379.53 34 378.628C34 378.083 34.3289 377.618 35.1188 376.388L35.1992 376.263C35.2601 376.168 35.2905 376.12 35.3154 376.071C35.3731 375.957 35.4095 375.834 35.4228 375.708C35.4286 375.653 35.4286 375.598 35.4286 375.487C35.4286 375.117 35.4286 374.932 35.4753 374.781C35.5851 374.426 35.876 374.149 36.2479 374.045C36.4063 374 36.6005 374 36.9891 374Z" stroke="white" stroke-width="1.33333" stroke-linecap="round" stroke-linejoin="round"/>
<circle cx="135" cy="346" r="3" fill="#5E9842"/>
<path d="M138.737 336.653C144.655 335.008 149 329.554 149 323.08C149 315.304 142.732 309 135 309C127.268 309 121 315.304 121 323.08C121 329.554 125.345 335.008 131.263 336.653C131.268 336.658 131.274 336.662 131.28 336.667C131.743 337.071 132.108 337.631 132.84 338.751L133.227 339.345C133.829 340.267 134.129 340.727 134.498 340.892C134.821 341.036 135.179 341.036 135.502 340.892C135.871 340.727 136.171 340.267 136.773 339.345L137.16 338.751C137.892 337.631 138.257 337.071 138.72 336.667C138.726 336.662 138.732 336.658 138.737 336.653Z" fill="#5E9842"/>
<path d="M136.091 319.609L133.909 319.609M139.909 323.15V324.826C139.909 326.794 139.909 327.777 139.27 328.389C138.631 329 137.602 329 135.545 329H134.455C132.398 329 131.369 329 130.73 328.389C130.091 327.777 130.091 326.794 130.091 324.826V323.15M131.989 317H138.011C138.399 317 138.594 317 138.752 317.045C139.124 317.149 139.415 317.426 139.525 317.781C139.571 317.932 139.571 318.117 139.571 318.487C139.571 318.598 139.571 318.654 139.577 318.708C139.591 318.834 139.627 318.957 139.685 319.071C139.709 319.12 139.74 319.168 139.801 319.263L139.881 319.388C140.671 320.618 141 321.083 141 321.628C141 322.53 140.232 323.261 139.286 323.261C138.625 323.261 138.051 322.904 137.765 322.382C137.561 322.896 137.039 323.261 136.429 323.261C135.64 323.261 135 322.652 135 321.9C135 322.652 134.36 323.261 133.571 323.261C132.961 323.261 132.439 322.896 132.235 322.382C131.949 322.904 131.375 323.261 130.714 323.261C129.768 323.261 129 322.53 129 321.628C129 321.083 129.329 320.618 130.119 319.388L130.199 319.263C130.26 319.168 130.291 319.12 130.315 319.071C130.373 318.957 130.409 318.834 130.423 318.708C130.429 318.653 130.429 318.598 130.429 318.487C130.429 318.117 130.429 317.932 130.475 317.781C130.585 317.426 130.876 317.149 131.248 317.045C131.406 317 131.601 317 131.989 317Z" stroke="white" stroke-width="1.33333" stroke-linecap="round" stroke-linejoin="round"/>
<circle cx="148.207" cy="225.759" r="3.24138" fill="#434343"/>
<path d="M152.533 214.212C159.384 212.296 164.414 205.943 164.414 198.401C164.414 189.343 157.158 182 148.207 182C139.256 182 132 189.343 132 198.401C132 205.943 137.03 212.296 143.881 214.212C143.887 214.217 143.893 214.223 143.9 214.229C144.436 214.699 144.86 215.352 145.706 216.656L146.155 217.348C146.851 218.421 147.199 218.958 147.626 219.15C148 219.318 148.414 219.318 148.788 219.15C149.215 218.958 149.563 218.421 150.259 217.348L150.708 216.656C151.554 215.352 151.977 214.699 152.514 214.229C152.52 214.223 152.527 214.217 152.533 214.212Z" fill="#434343"/>
<path d="M146.333 206.13C145.226 206.13 144.334 206.13 143.632 206.031C142.903 205.927 142.29 205.706 141.803 205.191C141.316 204.677 141.106 204.029 141.008 203.259C140.914 202.518 140.914 201.576 140.914 200.406L140.914 197.819C140.913 196.707 140.913 195.933 141.233 195.255C141.554 194.577 142.139 194.112 142.981 193.443L144.943 191.884C145.621 191.346 146.172 190.908 146.655 190.61C147.16 190.299 147.646 190.103 148.199 190.103C148.751 190.103 149.237 190.299 149.742 190.61C150.225 190.908 150.776 191.346 151.454 191.884L153.416 193.443C154.258 194.112 154.844 194.577 155.164 195.255C155.485 195.933 155.484 196.707 155.484 197.819L155.483 200.406C155.483 201.576 155.484 202.518 155.389 203.259C155.291 204.029 155.082 204.677 154.594 205.191C154.107 205.706 153.494 205.927 152.765 206.031C152.063 206.13 151.171 206.13 150.064 206.13H146.333Z" fill="white"/>
<rect width="375" height="565" fill="url(#paint47_linear)"/>
</g>
<defs>
<linearGradient id="paint0_linear" x1="-157" y1="0" x2="407.996" y2="562.996" gradientUnits="userSpaceOnUse">
<stop stop-color="#F5F5F5"/>
<stop offset="1" stop-color="#ECECEC"/>
</linearGradient>
<linearGradient id="paint1_linear" x1="17.4875" y1="147.769" x2="3.65449" y2="123.895" gradientUnits="userSpaceOnUse">
<stop stop-color="#E6E6E6"/>
<stop offset="1" stop-color="#E6E6E6"/>
</linearGradient>
<linearGradient id="paint2_linear" x1="48.1006" y1="184.086" x2="24.5406" y2="143.423" gradientUnits="userSpaceOnUse">
<stop stop-color="#E6E6E6"/>
<stop offset="1" stop-color="#E6E6E6"/>
</linearGradient>
<linearGradient id="paint3_linear" x1="139.091" y1="136.995" x2="107.822" y2="83.0281" gradientUnits="userSpaceOnUse">
<stop stop-color="#E6E6E6"/>
<stop offset="1" stop-color="#E6E6E6"/>
</linearGradient>
<linearGradient id="paint4_linear" x1="436.741" y1="542.815" x2="393.58" y2="468.324" gradientUnits="userSpaceOnUse">
<stop stop-color="#E6E6E6"/>
<stop offset="1" stop-color="#E6E6E6"/>
</linearGradient>
<linearGradient id="paint5_linear" x1="294.584" y1="201.842" x2="277.495" y2="172.349" gradientUnits="userSpaceOnUse">
<stop stop-color="#E6E6E6"/>
<stop offset="1" stop-color="#E6E6E6"/>
</linearGradient>
<linearGradient id="paint6_linear" x1="326.423" y1="182.432" x2="309.335" y2="152.938" gradientUnits="userSpaceOnUse">
<stop stop-color="#E6E6E6"/>
<stop offset="1" stop-color="#E6E6E6"/>
</linearGradient>
<linearGradient id="paint7_linear" x1="356.722" y1="160.544" x2="342.675" y2="136.301" gradientUnits="userSpaceOnUse">
<stop stop-color="#E6E6E6"/>
<stop offset="1" stop-color="#E6E6E6"/>
</linearGradient>
<linearGradient id="paint8_linear" x1="66.9297" y1="271.729" x2="53.8343" y2="249.127" gradientUnits="userSpaceOnUse">
<stop stop-color="#E6E6E6"/>
<stop offset="1" stop-color="#E6E6E6"/>
</linearGradient>
<linearGradient id="paint9_linear" x1="103.224" y1="344.864" x2="86.4171" y2="315.857" gradientUnits="userSpaceOnUse">
<stop stop-color="#E6E6E6"/>
<stop offset="1" stop-color="#E6E6E6"/>
</linearGradient>
<linearGradient id="paint10_linear" x1="166.135" y1="338.42" x2="148.939" y2="308.742" gradientUnits="userSpaceOnUse">
<stop stop-color="#E6E6E6"/>
<stop offset="1" stop-color="#E6E6E6"/>
</linearGradient>
<linearGradient id="paint11_linear" x1="197.612" y1="330.368" x2="181.712" y2="302.926" gradientUnits="userSpaceOnUse">
<stop stop-color="#E6E6E6"/>
<stop offset="1" stop-color="#E6E6E6"/>
</linearGradient>
<linearGradient id="paint12_linear" x1="218.232" y1="431.144" x2="198.415" y2="396.941" gradientUnits="userSpaceOnUse">
<stop stop-color="#E6E6E6"/>
<stop offset="1" stop-color="#E6E6E6"/>
</linearGradient>
<linearGradient id="paint13_linear" x1="-8.35956" y1="509.738" x2="-21.455" y2="487.136" gradientUnits="userSpaceOnUse">
<stop stop-color="#E6E6E6"/>
<stop offset="1" stop-color="#E6E6E6"/>
</linearGradient>
<linearGradient id="paint14_linear" x1="100.636" y1="260.61" x2="87.5407" y2="238.008" gradientUnits="userSpaceOnUse">
<stop stop-color="#E6E6E6"/>
<stop offset="1" stop-color="#E6E6E6"/>
</linearGradient>
<linearGradient id="paint15_linear" x1="50.0767" y1="229.623" x2="36.9813" y2="207.021" gradientUnits="userSpaceOnUse">
<stop stop-color="#E6E6E6"/>
<stop offset="1" stop-color="#E6E6E6"/>
</linearGradient>
<linearGradient id="paint16_linear" x1="83.7832" y1="218.504" x2="70.6878" y2="195.902" gradientUnits="userSpaceOnUse">
<stop stop-color="#E6E6E6"/>
<stop offset="1" stop-color="#E6E6E6"/>
</linearGradient>
<linearGradient id="paint17_linear" x1="-7.98098" y1="236.202" x2="-20.6615" y2="214.317" gradientUnits="userSpaceOnUse">
<stop stop-color="#E6E6E6"/>
<stop offset="1" stop-color="#E6E6E6"/>
</linearGradient>
<linearGradient id="paint18_linear" x1="9.65977" y1="289.059" x2="-3.02073" y2="267.173" gradientUnits="userSpaceOnUse">
<stop stop-color="#E6E6E6"/>
<stop offset="1" stop-color="#E6E6E6"/>
</linearGradient>
<linearGradient id="paint19_linear" x1="-0.727066" y1="262.195" x2="-13.4076" y2="240.309" gradientUnits="userSpaceOnUse">
<stop stop-color="#E6E6E6"/>
<stop offset="1" stop-color="#E6E6E6"/>
</linearGradient>
<linearGradient id="paint20_linear" x1="131.565" y1="185.551" x2="119.991" y2="165.576" gradientUnits="userSpaceOnUse">
<stop stop-color="#E6E6E6"/>
<stop offset="1" stop-color="#E6E6E6"/>
</linearGradient>
<linearGradient id="paint21_linear" x1="165.853" y1="198.219" x2="154.28" y2="178.245" gradientUnits="userSpaceOnUse">
<stop stop-color="#E6E6E6"/>
<stop offset="1" stop-color="#E6E6E6"/>
</linearGradient>
<linearGradient id="paint22_linear" x1="164.795" y1="169.577" x2="153.588" y2="150.234" gradientUnits="userSpaceOnUse">
<stop stop-color="#E6E6E6"/>
<stop offset="1" stop-color="#E6E6E6"/>
</linearGradient>
<linearGradient id="paint23_linear" x1="75.762" y1="46.4143" x2="64.1889" y2="26.44" gradientUnits="userSpaceOnUse">
<stop stop-color="#E6E6E6"/>
<stop offset="1" stop-color="#E6E6E6"/>
</linearGradient>
<linearGradient id="paint24_linear" x1="108.993" y1="30.4403" x2="97.7853" y2="11.0974" gradientUnits="userSpaceOnUse">
<stop stop-color="#E6E6E6"/>
<stop offset="1" stop-color="#E6E6E6"/>
</linearGradient>
<linearGradient id="paint25_linear" x1="103.74" y1="63.4429" x2="92.5323" y2="44.1" gradientUnits="userSpaceOnUse">
<stop stop-color="#E6E6E6"/>
<stop offset="1" stop-color="#E6E6E6"/>
</linearGradient>
<linearGradient id="paint26_linear" x1="199.865" y1="182.358" x2="188.657" y2="163.015" gradientUnits="userSpaceOnUse">
<stop stop-color="#E6E6E6"/>
<stop offset="1" stop-color="#E6E6E6"/>
</linearGradient>
<linearGradient id="paint27_linear" x1="203.699" y1="262.785" x2="173.496" y2="210.657" gradientUnits="userSpaceOnUse">
<stop stop-color="#E6E6E6"/>
<stop offset="1" stop-color="#E6E6E6"/>
</linearGradient>
<linearGradient id="paint28_linear" x1="236.405" y1="436.574" x2="188.838" y2="354.477" gradientUnits="userSpaceOnUse">
<stop stop-color="#E6E6E6"/>
<stop offset="1" stop-color="#E6E6E6"/>
</linearGradient>
<linearGradient id="paint29_linear" x1="417.058" y1="408.724" x2="357.034" y2="305.127" gradientUnits="userSpaceOnUse">
<stop stop-color="#E6E6E6"/>
<stop offset="1" stop-color="#E6E6E6"/>
</linearGradient>
<linearGradient id="paint30_linear" x1="403.888" y1="248.551" x2="375.558" y2="199.655" gradientUnits="userSpaceOnUse">
<stop stop-color="#E6E6E6"/>
<stop offset="1" stop-color="#E6E6E6"/>
</linearGradient>
<linearGradient id="paint31_linear" x1="56.2224" y1="469.108" x2="11.8797" y2="392.577" gradientUnits="userSpaceOnUse">
<stop stop-color="#E6E6E6"/>
<stop offset="1" stop-color="#E6E6E6"/>
</linearGradient>
<linearGradient id="paint32_linear" x1="29.9606" y1="325.833" x2="45.31" y2="325.833" gradientUnits="userSpaceOnUse">
<stop stop-color="#B6D25E"/>
<stop offset="1" stop-color="#A4D25F"/>
</linearGradient>
<linearGradient id="paint33_linear" x1="45.067" y1="354.9" x2="60.4165" y2="354.9" gradientUnits="userSpaceOnUse">
<stop stop-color="#B6D25E"/>
<stop offset="1" stop-color="#A4D25F"/>
</linearGradient>
<linearGradient id="paint34_linear" x1="164.208" y1="413.695" x2="179.557" y2="413.695" gradientUnits="userSpaceOnUse">
<stop stop-color="#B6D25E"/>
<stop offset="1" stop-color="#A4D25F"/>
</linearGradient>
<linearGradient id="paint35_linear" x1="148.349" y1="454.288" x2="163.698" y2="454.288" gradientUnits="userSpaceOnUse">
<stop stop-color="#B6D25E"/>
<stop offset="1" stop-color="#A4D25F"/>
</linearGradient>
<linearGradient id="paint36_linear" x1="319.022" y1="240.207" x2="334.371" y2="240.207" gradientUnits="userSpaceOnUse">
<stop stop-color="#B6D25E"/>
<stop offset="1" stop-color="#A4D25F"/>
</linearGradient>
<linearGradient id="paint37_linear" x1="222.29" y1="454.288" x2="237.64" y2="454.288" gradientUnits="userSpaceOnUse">
<stop stop-color="#B6D25E"/>
<stop offset="1" stop-color="#A4D25F"/>
</linearGradient>
<linearGradient id="paint38_linear" x1="58.5899" y1="73.1755" x2="73.9394" y2="73.1755" gradientUnits="userSpaceOnUse">
<stop stop-color="#B6D25E"/>
<stop offset="1" stop-color="#A4D25F"/>
</linearGradient>
<linearGradient id="paint39_linear" x1="212.941" y1="304.92" x2="228.291" y2="304.92" gradientUnits="userSpaceOnUse">
<stop stop-color="#B6D25E"/>
<stop offset="1" stop-color="#A4D25F"/>
</linearGradient>
<linearGradient id="paint40_linear" x1="119.831" y1="201.209" x2="135.181" y2="201.209" gradientUnits="userSpaceOnUse">
<stop stop-color="#B6D25E"/>
<stop offset="1" stop-color="#A4D25F"/>
</linearGradient>
<linearGradient id="paint41_linear" x1="2.93278" y1="358.245" x2="18.2822" y2="358.245" gradientUnits="userSpaceOnUse">
<stop stop-color="#B6D25E"/>
<stop offset="1" stop-color="#A4D25F"/>
</linearGradient>
<linearGradient id="paint42_linear" x1="366.578" y1="135.811" x2="381.927" y2="135.811" gradientUnits="userSpaceOnUse">
<stop stop-color="#B6D25E"/>
<stop offset="1" stop-color="#A4D25F"/>
</linearGradient>
<linearGradient id="paint43_linear" x1="358.903" y1="443.682" x2="374.253" y2="443.682" gradientUnits="userSpaceOnUse">
<stop stop-color="#B6D25E"/>
<stop offset="1" stop-color="#A4D25F"/>
</linearGradient>
<linearGradient id="paint44_linear" x1="278.41" y1="336.523" x2="293.759" y2="336.523" gradientUnits="userSpaceOnUse">
<stop stop-color="#B6D25E"/>
<stop offset="1" stop-color="#A4D25F"/>
</linearGradient>
<linearGradient id="paint45_linear" x1="226.256" y1="187.069" x2="241.606" y2="187.069" gradientUnits="userSpaceOnUse">
<stop stop-color="#B6D25E"/>
<stop offset="1" stop-color="#A4D25F"/>
</linearGradient>
<linearGradient id="paint46_linear" x1="135.271" y1="43.8175" x2="150.62" y2="43.8175" gradientUnits="userSpaceOnUse">
<stop stop-color="#B6D25E"/>
<stop offset="1" stop-color="#A4D25F"/>
</linearGradient>
<linearGradient id="paint47_linear" x1="187.5" y1="43" x2="187.5" y2="597" gradientUnits="userSpaceOnUse">
<stop stop-color="white" stop-opacity="0"/>
<stop offset="0.648283" stop-color="white" stop-opacity="0.930404"/>
<stop offset="1" stop-color="white"/>
</linearGradient>
<clipPath id="clip0">
<rect width="375" height="565" fill="white"/>
</clipPath>
</defs>
</svg>
