<svg width="273" height="148" viewBox="0 0 273 148" fill="none" xmlns="http://www.w3.org/2000/svg">
<path opacity="0.14" fill-rule="evenodd" clip-rule="evenodd" d="M146.4 24C142.865 24 140 26.8654 140 30.4V82.4C143.093 82.4 145.6 84.9072 145.6 88C145.6 91.0928 143.093 93.6 140 93.6V113.6C140 117.135 142.865 120 146.4 120H234.4C237.935 120 240.8 117.135 240.8 113.6V93.6C237.707 93.6 235.2 91.0928 235.2 88C235.2 84.9072 237.707 82.4 240.8 82.4V30.4C240.8 26.8654 237.935 24 234.4 24H146.4ZM150.1 87.44C149.791 87.44 149.54 87.6907 149.54 88C149.54 88.3093 149.791 88.56 150.1 88.56H156.3C156.609 88.56 156.86 88.3093 156.86 88C156.86 87.6907 156.609 87.44 156.3 87.44H150.1ZM162.5 87.44C162.191 87.44 161.94 87.6907 161.94 88C161.94 88.3093 162.191 88.56 162.5 88.56H168.7C169.009 88.56 169.26 88.3093 169.26 88C169.26 87.6907 169.009 87.44 168.7 87.44H162.5ZM174.9 87.44C174.591 87.44 174.34 87.6907 174.34 88C174.34 88.3093 174.591 88.56 174.9 88.56H181.1C181.409 88.56 181.66 88.3093 181.66 88C181.66 87.6907 181.409 87.44 181.1 87.44H174.9ZM187.3 87.44C186.991 87.44 186.74 87.6907 186.74 88C186.74 88.3093 186.991 88.56 187.3 88.56H193.5C193.809 88.56 194.06 88.3093 194.06 88C194.06 87.6907 193.809 87.44 193.5 87.44H187.3ZM199.7 87.44C199.391 87.44 199.14 87.6907 199.14 88C199.14 88.3093 199.391 88.56 199.7 88.56H205.9C206.209 88.56 206.46 88.3093 206.46 88C206.46 87.6907 206.209 87.44 205.9 87.44H199.7ZM212.1 87.44C211.791 87.44 211.54 87.6907 211.54 88C211.54 88.3093 211.791 88.56 212.1 88.56H218.3C218.609 88.56 218.86 88.3093 218.86 88C218.86 87.6907 218.609 87.44 218.3 87.44H212.1ZM224.5 87.44C224.191 87.44 223.94 87.6907 223.94 88C223.94 88.3093 224.191 88.56 224.5 88.56H230.7C231.009 88.56 231.26 88.3093 231.26 88C231.26 87.6907 231.009 87.44 230.7 87.44H224.5Z" fill="#5A88FF"/>
<path opacity="0.14" fill-rule="evenodd" clip-rule="evenodd" d="M41.4 24C37.8654 24 35 26.8654 35 30.4V82.4C38.0928 82.4 40.6 84.9072 40.6 88C40.6 91.0928 38.0928 93.6 35 93.6V113.6C35 117.135 37.8654 120 41.4 120H129.4C132.935 120 135.8 117.135 135.8 113.6V93.6C132.707 93.6 130.2 91.0928 130.2 88C130.2 84.9072 132.707 82.4 135.8 82.4V30.4C135.8 26.8654 132.935 24 129.4 24H41.4ZM45.1 87.44C44.7907 87.44 44.54 87.6907 44.54 88C44.54 88.3093 44.7907 88.56 45.1 88.56H51.3C51.6093 88.56 51.86 88.3093 51.86 88C51.86 87.6907 51.6093 87.44 51.3 87.44H45.1ZM57.5 87.44C57.1907 87.44 56.94 87.6907 56.94 88C56.94 88.3093 57.1907 88.56 57.5 88.56H63.7C64.0093 88.56 64.26 88.3093 64.26 88C64.26 87.6907 64.0093 87.44 63.7 87.44H57.5ZM69.9 87.44C69.5907 87.44 69.34 87.6907 69.34 88C69.34 88.3093 69.5907 88.56 69.9 88.56H76.1C76.4093 88.56 76.66 88.3093 76.66 88C76.66 87.6907 76.4093 87.44 76.1 87.44H69.9ZM82.3 87.44C81.9907 87.44 81.74 87.6907 81.74 88C81.74 88.3093 81.9907 88.56 82.3 88.56H88.5C88.8093 88.56 89.06 88.3093 89.06 88C89.06 87.6907 88.8093 87.44 88.5 87.44H82.3ZM94.7 87.44C94.3907 87.44 94.14 87.6907 94.14 88C94.14 88.3093 94.3907 88.56 94.7 88.56H100.9C101.209 88.56 101.46 88.3093 101.46 88C101.46 87.6907 101.209 87.44 100.9 87.44H94.7ZM107.1 87.44C106.791 87.44 106.54 87.6907 106.54 88C106.54 88.3093 106.791 88.56 107.1 88.56H113.3C113.609 88.56 113.86 88.3093 113.86 88C113.86 87.6907 113.609 87.44 113.3 87.44H107.1ZM119.5 87.44C119.191 87.44 118.94 87.6907 118.94 88C118.94 88.3093 119.191 88.56 119.5 88.56H125.7C126.009 88.56 126.26 88.3093 126.26 88C126.26 87.6907 126.009 87.44 125.7 87.44H119.5Z" fill="#5A88FF"/>
<g filter="url(#filter0_d)">
<path fill-rule="evenodd" clip-rule="evenodd" d="M82.9492 8C78.5309 8 74.9492 11.5817 74.9492 16V81C78.8152 81 81.9492 84.134 81.9492 88C81.9492 91.866 78.8152 95 74.9492 95V120C74.9492 124.418 78.5309 128 82.9492 128H192.949C197.367 128 200.949 124.418 200.949 120V95C197.083 95 193.949 91.866 193.949 88C193.949 84.134 197.083 81 200.949 81V16C200.949 11.5817 197.368 8 192.949 8H82.9492ZM87.5742 87.3C87.1876 87.3 86.8742 87.6134 86.8742 88C86.8742 88.3866 87.1876 88.7 87.5742 88.7H95.3242C95.7108 88.7 96.0242 88.3866 96.0242 88C96.0242 87.6134 95.7108 87.3 95.3242 87.3H87.5742ZM103.074 87.3C102.688 87.3 102.374 87.6134 102.374 88C102.374 88.3866 102.688 88.7 103.074 88.7H110.824C111.211 88.7 111.524 88.3866 111.524 88C111.524 87.6134 111.211 87.3 110.824 87.3H103.074ZM118.574 87.3C118.188 87.3 117.874 87.6134 117.874 88C117.874 88.3866 118.188 88.7 118.574 88.7H126.324C126.711 88.7 127.024 88.3866 127.024 88C127.024 87.6134 126.711 87.3 126.324 87.3H118.574ZM134.074 87.3C133.688 87.3 133.374 87.6134 133.374 88C133.374 88.3866 133.688 88.7 134.074 88.7H141.824C142.211 88.7 142.524 88.3866 142.524 88C142.524 87.6134 142.211 87.3 141.824 87.3H134.074ZM149.574 87.3C149.188 87.3 148.874 87.6134 148.874 88C148.874 88.3866 149.188 88.7 149.574 88.7H157.324C157.711 88.7 158.024 88.3866 158.024 88C158.024 87.6134 157.711 87.3 157.324 87.3H149.574ZM165.074 87.3C164.688 87.3 164.374 87.6134 164.374 88C164.374 88.3866 164.688 88.7 165.074 88.7H172.824C173.211 88.7 173.524 88.3866 173.524 88C173.524 87.6134 173.211 87.3 172.824 87.3H165.074ZM180.574 87.3C180.188 87.3 179.874 87.6134 179.874 88C179.874 88.3866 180.188 88.7 180.574 88.7H188.324C188.711 88.7 189.024 88.3866 189.024 88C189.024 87.6134 188.711 87.3 188.324 87.3H180.574Z" fill="#5A88FF"/>
</g>
<mask id="mask0" mask-type="alpha" maskUnits="userSpaceOnUse" x="74" y="8" width="127" height="120">
<path fill-rule="evenodd" clip-rule="evenodd" d="M82.9492 8C78.5309 8 74.9492 11.5817 74.9492 16V81C78.8152 81 81.9492 84.134 81.9492 88C81.9492 91.866 78.8152 95 74.9492 95V120C74.9492 124.418 78.5309 128 82.9492 128H192.949C197.367 128 200.949 124.418 200.949 120V95C197.083 95 193.949 91.866 193.949 88C193.949 84.134 197.083 81 200.949 81V16C200.949 11.5817 197.368 8 192.949 8H82.9492ZM87.5742 87.3C87.1876 87.3 86.8742 87.6134 86.8742 88C86.8742 88.3866 87.1876 88.7 87.5742 88.7H95.3242C95.7108 88.7 96.0242 88.3866 96.0242 88C96.0242 87.6134 95.7108 87.3 95.3242 87.3H87.5742ZM103.074 87.3C102.688 87.3 102.374 87.6134 102.374 88C102.374 88.3866 102.688 88.7 103.074 88.7H110.824C111.211 88.7 111.524 88.3866 111.524 88C111.524 87.6134 111.211 87.3 110.824 87.3H103.074ZM118.574 87.3C118.188 87.3 117.874 87.6134 117.874 88C117.874 88.3866 118.188 88.7 118.574 88.7H126.324C126.711 88.7 127.024 88.3866 127.024 88C127.024 87.6134 126.711 87.3 126.324 87.3H118.574ZM134.074 87.3C133.688 87.3 133.374 87.6134 133.374 88C133.374 88.3866 133.688 88.7 134.074 88.7H141.824C142.211 88.7 142.524 88.3866 142.524 88C142.524 87.6134 142.211 87.3 141.824 87.3H134.074ZM149.574 87.3C149.188 87.3 148.874 87.6134 148.874 88C148.874 88.3866 149.188 88.7 149.574 88.7H157.324C157.711 88.7 158.024 88.3866 158.024 88C158.024 87.6134 157.711 87.3 157.324 87.3H149.574ZM165.074 87.3C164.688 87.3 164.374 87.6134 164.374 88C164.374 88.3866 164.688 88.7 165.074 88.7H172.824C173.211 88.7 173.524 88.3866 173.524 88C173.524 87.6134 173.211 87.3 172.824 87.3H165.074ZM180.574 87.3C180.188 87.3 179.874 87.6134 179.874 88C179.874 88.3866 180.188 88.7 180.574 88.7H188.324C188.711 88.7 189.024 88.3866 189.024 88C189.024 87.6134 188.711 87.3 188.324 87.3H180.574Z" fill="#5A88FF"/>
</mask>
<g mask="url(#mask0)">
<path d="M173.193 106.984H174.096C174.525 106.984 174.844 106.877 175.051 106.662C175.258 106.447 175.361 106.162 175.361 105.807C175.361 105.463 175.258 105.195 175.051 105.004C174.848 104.812 174.566 104.717 174.207 104.717C173.883 104.717 173.611 104.807 173.393 104.986C173.174 105.162 173.064 105.393 173.064 105.678H171.371C171.371 105.232 171.49 104.834 171.729 104.482C171.971 104.127 172.307 103.85 172.736 103.65C173.17 103.451 173.646 103.352 174.166 103.352C175.068 103.352 175.775 103.568 176.287 104.002C176.799 104.432 177.055 105.025 177.055 105.783C177.055 106.174 176.936 106.533 176.697 106.861C176.459 107.189 176.146 107.441 175.76 107.617C176.24 107.789 176.598 108.047 176.832 108.391C177.07 108.734 177.189 109.141 177.189 109.609C177.189 110.367 176.912 110.975 176.357 111.432C175.807 111.889 175.076 112.117 174.166 112.117C173.314 112.117 172.617 111.893 172.074 111.443C171.535 110.994 171.266 110.4 171.266 109.662H172.959C172.959 109.982 173.078 110.244 173.316 110.447C173.559 110.65 173.855 110.752 174.207 110.752C174.609 110.752 174.924 110.646 175.15 110.436C175.381 110.221 175.496 109.938 175.496 109.586C175.496 108.734 175.027 108.309 174.09 108.309H173.193V106.984ZM179.99 105.66L180.055 106.439C180.52 105.842 181.127 105.543 181.877 105.543C183.205 105.543 183.885 106.303 183.916 107.822V114.432H182.217V107.898C182.205 107.242 181.885 106.914 181.256 106.914C180.76 106.914 180.377 107.096 180.107 107.459V112H178.414V105.66H179.99ZM187.062 105.66V109.311C187.062 109.803 187.141 110.166 187.297 110.4C187.457 110.631 187.73 110.746 188.117 110.746C188.699 110.746 189.1 110.541 189.318 110.131V105.66H191.012V112H189.436L189.4 111.602C189.053 111.949 188.613 112.123 188.082 112.123C187.684 112.123 187.344 112.035 187.062 111.859V114.438H185.369V105.66H187.062Z" fill="white"/>
<path d="M87.8223 105.889L85.9473 112H84.043L86.9082 103.469H88.7363L91.6074 112H89.7031L87.8223 105.889ZM93.6465 105.66L93.7109 106.439C94.1758 105.842 94.7832 105.543 95.5332 105.543C96.8613 105.543 97.541 106.303 97.5723 107.822V114.432H95.873V107.898C95.8613 107.242 95.541 106.914 94.9121 106.914C94.416 106.914 94.0332 107.096 93.7637 107.459V112H92.0703V105.66H93.6465ZM94.625 102.619H96.1602L95.2051 104.641H94.1973L94.625 102.619ZM101.299 110.002L102.477 105.66H104.246L102.119 111.918V114.443H100.426V111.865L98.3105 105.66H100.08L101.299 110.002ZM104.896 110.207C104.896 109.488 105.295 108.998 106.092 108.736C105.752 108.596 105.486 108.408 105.295 108.174C105.104 107.936 105.008 107.676 105.008 107.395C105.008 106.82 105.26 106.369 105.764 106.041C106.271 105.713 106.963 105.549 107.838 105.549C108.623 105.549 109.266 105.73 109.766 106.094C110.266 106.457 110.516 106.922 110.516 107.488H108.822C108.822 107.289 108.723 107.129 108.523 107.008C108.328 106.887 108.07 106.826 107.75 106.826C107.434 106.826 107.18 106.891 106.988 107.02C106.797 107.148 106.701 107.318 106.701 107.529C106.701 107.732 106.789 107.895 106.965 108.016C107.141 108.137 107.404 108.197 107.756 108.197H108.852V109.328H107.732C106.967 109.332 106.584 109.584 106.584 110.084C106.584 110.299 106.689 110.48 106.9 110.629C107.115 110.773 107.396 110.846 107.744 110.846C108.104 110.846 108.389 110.777 108.6 110.641C108.814 110.504 108.922 110.332 108.922 110.125H110.615C110.615 110.727 110.355 111.209 109.836 111.572C109.316 111.936 108.65 112.117 107.838 112.117C106.967 112.117 106.258 111.943 105.711 111.596C105.168 111.244 104.896 110.781 104.896 110.207ZM113.527 105.66L113.521 110.02C113.521 110.254 113.566 110.422 113.656 110.523C113.75 110.625 113.924 110.676 114.178 110.676C114.35 110.676 114.514 110.66 114.67 110.629V111.912C114.365 112.014 114.023 112.064 113.645 112.064C112.453 112.064 111.848 111.461 111.828 110.254V105.66H113.527ZM124.789 107.031H123.301C123.984 107.586 124.326 108.287 124.326 109.135C124.326 110.025 124.062 110.746 123.535 111.297C123.008 111.844 122.307 112.117 121.432 112.117C120.525 112.117 119.799 111.826 119.252 111.244C118.709 110.662 118.438 109.863 118.438 108.848V108.771C118.438 107.838 118.705 107.086 119.24 106.516C119.779 105.945 120.514 105.66 121.443 105.66H124.789V107.031ZM120.131 108.895C120.131 109.504 120.242 109.967 120.465 110.283C120.691 110.6 121.014 110.758 121.432 110.758C121.814 110.758 122.109 110.6 122.316 110.283C122.527 109.967 122.633 109.463 122.633 108.771C122.633 108.217 122.527 107.789 122.316 107.488C122.105 107.184 121.807 107.031 121.42 107.031C121.014 107.031 120.697 107.18 120.471 107.477C120.244 107.773 120.131 108.246 120.131 108.895ZM125.475 110.207C125.475 109.488 125.873 108.998 126.67 108.736C126.33 108.596 126.064 108.408 125.873 108.174C125.682 107.936 125.586 107.676 125.586 107.395C125.586 106.82 125.838 106.369 126.342 106.041C126.85 105.713 127.541 105.549 128.416 105.549C129.201 105.549 129.844 105.73 130.344 106.094C130.844 106.457 131.094 106.922 131.094 107.488H129.4C129.4 107.289 129.301 107.129 129.102 107.008C128.906 106.887 128.648 106.826 128.328 106.826C128.012 106.826 127.758 106.891 127.566 107.02C127.375 107.148 127.279 107.318 127.279 107.529C127.279 107.732 127.367 107.895 127.543 108.016C127.719 108.137 127.982 108.197 128.334 108.197H129.43V109.328H128.311C127.545 109.332 127.162 109.584 127.162 110.084C127.162 110.299 127.268 110.48 127.479 110.629C127.693 110.773 127.975 110.846 128.322 110.846C128.682 110.846 128.967 110.777 129.178 110.641C129.393 110.504 129.5 110.332 129.5 110.125H131.193C131.193 110.727 130.934 111.209 130.414 111.572C129.895 111.936 129.229 112.117 128.416 112.117C127.545 112.117 126.836 111.943 126.289 111.596C125.746 111.244 125.475 110.781 125.475 110.207Z" fill="white"/>
<g filter="url(#filter1_d)">
<path d="M136.447 54.104C135.391 54.84 134.207 55.224 132.767 55.224C130.495 55.224 128.479 54.104 127.583 51.576H134.911V49.016H127.071C127.039 48.728 127.039 48.44 127.039 48.12C127.039 47.736 127.039 47.384 127.071 47.032H134.911V44.44H127.615C128.543 41.912 130.527 40.824 132.767 40.824C134.015 40.824 135.167 41.208 136.191 41.88L138.719 38.68C136.863 37.4 134.783 36.824 132.767 36.824C127.583 36.824 124.031 39.608 122.879 44.44H120.703V47.032H122.495C122.463 47.384 122.463 47.736 122.463 48.12C122.463 48.44 122.463 48.728 122.495 49.016H120.703V51.576H122.815C124.063 57.048 128.287 59.256 132.767 59.256C135.199 59.256 137.247 58.456 138.879 57.336L136.447 54.104ZM139.826 59H154.13V55.064H146.226L146.194 54.968L150.29 50.68C153.138 47.736 153.938 45.784 153.938 43.288C153.938 39.224 150.61 36.792 146.93 36.792C143.25 36.792 140.946 38.616 139.666 40.952L142.77 43.16C143.73 41.56 145.042 40.824 146.61 40.824C148.306 40.824 149.522 42.104 149.522 43.8C149.522 45.56 148.37 47.032 146.578 48.888L139.762 56.152L139.826 59Z" fill="white"/>
</g>
</g>
<defs>
<filter id="filter0_d" x="60.9492" y="0" width="154" height="148" filterUnits="userSpaceOnUse" color-interpolation-filters="sRGB">
<feFlood flood-opacity="0" result="BackgroundImageFix"/>
<feColorMatrix in="SourceAlpha" type="matrix" values="0 0 0 0 0 0 0 0 0 0 0 0 0 0 0 0 0 0 127 0" result="hardAlpha"/>
<feOffset dy="6"/>
<feGaussianBlur stdDeviation="7"/>
<feColorMatrix type="matrix" values="0 0 0 0 0.352941 0 0 0 0 0.533333 0 0 0 0 1 0 0 0 0.3 0"/>
<feBlend mode="normal" in2="BackgroundImageFix" result="effect1_dropShadow"/>
<feBlend mode="normal" in="SourceGraphic" in2="effect1_dropShadow" result="shape"/>
</filter>
<filter id="filter1_d" x="116.703" y="36.792" width="41.4268" height="30.464" filterUnits="userSpaceOnUse" color-interpolation-filters="sRGB">
<feFlood flood-opacity="0" result="BackgroundImageFix"/>
<feColorMatrix in="SourceAlpha" type="matrix" values="0 0 0 0 0 0 0 0 0 0 0 0 0 0 0 0 0 0 127 0" result="hardAlpha"/>
<feOffset dy="4"/>
<feGaussianBlur stdDeviation="2"/>
<feColorMatrix type="matrix" values="0 0 0 0 0 0 0 0 0 0 0 0 0 0 0 0 0 0 0.04 0"/>
<feBlend mode="normal" in2="BackgroundImageFix" result="effect1_dropShadow"/>
<feBlend mode="normal" in="SourceGraphic" in2="effect1_dropShadow" result="shape"/>
</filter>
</defs>
</svg>
