<svg width="240" height="30" viewBox="0 0 240 30" fill="none" xmlns="http://www.w3.org/2000/svg">
<circle cx="15" cy="15" r="15" fill="#E7EDFA"/>
<circle cx="15.0001" cy="14.9998" r="10.3846" fill="#5A88FF"/>
<g filter="url(#filter0_d)">
<path d="M19.0383 12.6914L13.846 17.8837L10.9614 14.9991" stroke="white" stroke-width="1.61538"/>
</g>
<path d="M34.9541 15C34.9541 13.8954 35.8495 13 36.9541 13H98.0458C99.1504 13 100.046 13.8954 100.046 15C100.046 16.1046 99.1504 17 98.0458 17H36.9541C35.8495 17 34.9541 16.1046 34.9541 15Z" fill="#5A88FF"/>
<circle cx="120" cy="15" r="15" fill="#E7EDFA"/>
<circle cx="120" cy="14.9998" r="10.3846" fill="#5A88FF"/>
<g filter="url(#filter1_d)">
<path d="M124.038 12.6914L118.846 17.8837L115.961 14.9991" stroke="white" stroke-width="1.61538"/>
</g>
<rect x="139.954" y="13" width="65.0917" height="4" rx="2" fill="#E7EDFA"/>
<circle cx="225" cy="15" r="9" fill="#E7EDFA"/>
<circle cx="225.104" cy="15" r="5.625" stroke="white" stroke-width="2" stroke-linecap="round" stroke-linejoin="round"/>
<defs>
<filter id="filter0_d" x="8.08269" y="10.9672" width="13.8346" height="11.5211" filterUnits="userSpaceOnUse" color-interpolation-filters="sRGB">
<feFlood flood-opacity="0" result="BackgroundImageFix"/>
<feColorMatrix in="SourceAlpha" type="matrix" values="0 0 0 0 0 0 0 0 0 0 0 0 0 0 0 0 0 0 127 0" result="hardAlpha"/>
<feOffset dy="1.15385"/>
<feGaussianBlur stdDeviation="1.15385"/>
<feColorMatrix type="matrix" values="0 0 0 0 0.299531 0 0 0 0 0.46345 0 0 0 0 0.8875 0 0 0 1 0"/>
<feBlend mode="normal" in2="BackgroundImageFix" result="effect1_dropShadow"/>
<feBlend mode="normal" in="SourceGraphic" in2="effect1_dropShadow" result="shape"/>
</filter>
<filter id="filter1_d" x="113.082" y="10.9672" width="13.8346" height="11.5211" filterUnits="userSpaceOnUse" color-interpolation-filters="sRGB">
<feFlood flood-opacity="0" result="BackgroundImageFix"/>
<feColorMatrix in="SourceAlpha" type="matrix" values="0 0 0 0 0 0 0 0 0 0 0 0 0 0 0 0 0 0 127 0" result="hardAlpha"/>
<feOffset dy="1.15385"/>
<feGaussianBlur stdDeviation="1.15385"/>
<feColorMatrix type="matrix" values="0 0 0 0 0.299531 0 0 0 0 0.46345 0 0 0 0 0.8875 0 0 0 1 0"/>
<feBlend mode="normal" in2="BackgroundImageFix" result="effect1_dropShadow"/>
<feBlend mode="normal" in="SourceGraphic" in2="effect1_dropShadow" result="shape"/>
</filter>
</defs>
</svg>
