<svg width="36" height="36" viewBox="0 0 36 36" fill="none" xmlns="http://www.w3.org/2000/svg">
<path fill-rule="evenodd" clip-rule="evenodd" d="M18 36C27.9411 36 36 27.9411 36 18C36 8.05887 27.9411 0 18 0C8.05887 0 0 8.05887 0 18C0 27.9411 8.05887 36 18 36ZM17.2967 14.4342V12.6104C15.583 12.2808 14.2841 10.771 14.2841 8.96261V6.70326C14.2841 6.41873 14.4556 6.16232 14.7181 6.05357C14.9811 5.94482 15.2834 6.00482 15.4845 6.20592L16.328 7.04938C16.4195 7.14092 16.568 7.14088 16.6595 7.04933L17.5025 6.20592C17.7772 5.9317 18.2225 5.9317 18.4972 6.20592L19.3401 7.04928C19.4317 7.14088 19.5801 7.14088 19.6716 7.04933L20.5151 6.20587C20.7162 6.00478 21.0185 5.94478 21.2815 6.05353C21.544 6.16228 21.7156 6.41868 21.7156 6.70321V8.96257C21.7156 10.771 20.4167 12.2808 18.7029 12.6104V14.4342C18.7029 14.8226 18.3881 15.1374 17.9998 15.1374C17.6115 15.1374 17.2967 14.8226 17.2967 14.4342ZM17.8775 17.0344C18.1815 16.859 18.4915 16.6956 18.8066 16.5437H11.0433C10.7921 16.5437 10.56 16.6778 10.4344 16.8953C10.3088 17.1128 10.3088 17.3809 10.4344 17.5984L12.9016 21.8717C14.1313 19.8756 15.8446 18.2081 17.8775 17.0344ZM18.5803 18.2523C20.5162 17.1345 22.7211 16.5437 24.9565 16.5437C25.2077 16.5437 25.44 16.6778 25.5656 16.8953C25.6912 17.1128 25.6914 17.3809 25.5658 17.5984L18.6089 29.6483C18.4833 29.8658 18.2512 29.9999 18 29.9999C17.7488 29.9999 17.5167 29.8658 17.3911 29.6483L13.9124 23.6234C13.782 23.3977 13.7889 23.1225 13.9206 22.9064C15.038 20.9764 16.649 19.3674 18.5803 18.2523ZM12.2997 14.6236C13.2292 14.0869 13.8395 13.2061 14.0617 12.2339C13.3183 11.3396 12.8781 10.1935 12.8781 8.96257V8.19476L12.5299 7.59148C12.3878 7.34539 12.1113 7.20899 11.8291 7.24602C11.5474 7.28305 11.3153 7.48648 11.2417 7.76117L10.933 8.91288C10.8995 9.03789 10.771 9.1121 10.646 9.07858L9.49425 8.76987C9.11879 8.66955 8.73348 8.89221 8.6327 9.26721L8.32398 10.4194C8.29046 10.5444 8.16193 10.6186 8.03692 10.5851L6.88521 10.2765C6.61052 10.2029 6.31849 10.3022 6.14553 10.5277C5.97209 10.7532 5.95193 11.0607 6.09443 11.3072L7.22411 13.2638C8.24832 15.038 10.5255 15.6483 12.2997 14.6236ZM29.8541 10.5278C29.6807 10.3023 29.3887 10.2029 29.114 10.2765L27.9623 10.5852C27.8373 10.6187 27.7087 10.5445 27.6752 10.4194L27.3665 9.26725C27.2662 8.89225 26.8804 8.6696 26.5054 8.76991L25.3532 9.07863C25.2282 9.11214 25.0996 9.03794 25.0661 8.91293L24.7574 7.76117C24.6838 7.48648 24.4523 7.28305 24.1701 7.24602C23.8884 7.20899 23.6118 7.34539 23.4693 7.59148L23.1215 8.19382V8.96257C23.1215 10.1935 22.6809 11.3396 21.9374 12.2344C22.1601 13.2066 22.7699 14.0869 23.6999 14.6236C25.4741 15.6483 27.7508 15.038 28.7755 13.2638L29.9052 11.3072C30.0473 11.0607 30.0271 10.7532 29.8541 10.5278Z" fill="white"/>
</svg>
