<svg width="36" height="36" viewBox="0 0 36 36" fill="none" xmlns="http://www.w3.org/2000/svg">
<path fill-rule="evenodd" clip-rule="evenodd" d="M18 36C27.9411 36 36 27.9411 36 18C36 8.05887 27.9411 0 18 0C8.05887 0 0 8.05887 0 18C0 27.9411 8.05887 36 18 36ZM16.3635 11.1477C16.3635 8.60575 14.5324 6.54547 12.2725 6.54547C10.0127 6.54547 8.18164 8.60575 8.18164 11.1477C8.18164 13.343 9.422 15.0888 11.2498 15.5491L9.83437 27.7123C9.82291 27.7967 9.818 27.8842 9.818 27.9716C9.818 29.2418 10.9176 30.2727 12.2725 30.2727C13.6275 30.2727 14.7271 29.2418 14.7271 27.9716C14.7271 27.898 14.7238 27.8243 14.7156 27.7522L13.2953 15.5491C15.0004 14.9952 16.3635 13.2448 16.3635 11.1477ZM27.0004 6.54547C26.5487 6.54547 26.1822 6.88911 26.1822 7.31252V11.1477C26.1822 11.5712 25.8156 11.9148 25.364 11.9148C24.9124 11.9148 24.5458 11.5712 24.5458 11.1477V7.31252C24.5458 6.88911 24.1793 6.54547 23.7276 6.54547C23.276 6.54547 22.9094 6.88911 22.9094 7.31252V11.1477C22.9094 11.5712 22.5429 11.9148 22.0913 11.9148C21.6396 11.9148 21.2731 11.5712 21.2731 11.1477V7.31252C21.2731 6.88911 20.9065 6.54547 20.4549 6.54547C20.0033 6.54547 19.6367 6.88911 19.6367 7.31252V11.9148C19.6367 13.7388 21.0047 15.2652 22.8293 15.6503L21.2878 27.7123C21.278 27.7967 21.2731 27.8842 21.2731 27.9716C21.2731 29.2418 22.3727 30.2727 23.7276 30.2727C25.0825 30.2727 26.1822 29.2418 26.1822 27.9716C26.1822 27.898 26.1789 27.8243 26.1707 27.7522L24.8616 15.5813C26.5634 15.1164 27.8185 13.6575 27.8185 11.9148V7.31252C27.8185 6.88911 27.452 6.54547 27.0004 6.54547Z" fill="white"/>
</svg>
