<svg width="36" height="36" viewBox="0 0 36 36" fill="none" xmlns="http://www.w3.org/2000/svg">
<path d="M16.5795 12.0548C16.5795 11.6846 16.901 11.3835 17.2961 11.3835H18.7075C19.1027 11.3835 19.4242 11.6846 19.4242 12.0548C19.4242 12.425 19.1027 12.7261 18.7075 12.7261H17.2961C16.901 12.7261 16.5795 12.425 16.5795 12.0548Z" fill="white"/>
<path d="M16.5795 9.4159C16.5795 9.04574 16.901 8.74458 17.2961 8.74458H18.7075C19.1027 8.74458 19.4242 9.04574 19.4242 9.4159C19.4242 9.78607 19.1027 10.0872 18.7075 10.0872H17.2961C16.901 10.0872 16.5795 9.78607 16.5795 9.4159Z" fill="white"/>
<path fill-rule="evenodd" clip-rule="evenodd" d="M18 36C27.9411 36 36 27.9411 36 18C36 8.05887 27.9411 0 18 0C8.05887 0 0 8.05887 0 18C0 27.9411 8.05887 36 18 36ZM19.0367 14.4037L19.8558 14.8127L20.6749 14.4037C20.8965 14.293 21.1374 14.2192 21.391 14.1842L21.4121 14.1813V9.73997C21.4121 7.9785 19.8823 6.54547 18.0018 6.54547C16.1214 6.54547 14.5915 7.9785 14.5916 9.73997V14.1812L14.6127 14.1841C14.8665 14.2191 15.1075 14.293 15.329 14.4037L16.148 14.8127L16.9671 14.4037C17.2843 14.2451 17.6422 14.1614 18.0019 14.1614C18.3614 14.1614 18.7193 14.2451 19.0367 14.4037ZM12.5947 11.2705L13.1583 11.585V9.74C13.1583 9.67643 13.16 9.61082 13.1633 9.53939L13.1649 9.50628L13.1312 9.51631C12.9178 9.57971 12.7129 9.66356 12.522 9.76541C11.999 10.0447 11.5772 10.4545 11.3024 10.9504L11.2821 10.9869L11.326 10.9842C11.3811 10.9807 11.4269 10.9791 11.4703 10.9791C11.8641 10.9791 12.2531 11.0798 12.5947 11.2705ZM12.4361 14.8127L11.6169 14.4036C11.3545 14.2726 11.0572 14.1914 10.757 14.1687L10.7349 14.167L10.6992 13.0621C10.6907 12.7961 10.8317 12.5568 11.0765 12.4219C11.3213 12.2869 11.6131 12.2877 11.857 12.4239L13.1543 13.1478V14.454L12.4361 14.8127ZM12.0672 30.2727H23.9332C25.1732 30.2727 26.182 29.3278 26.182 28.1662V16.2215C26.182 15.9709 26.0395 15.7352 25.81 15.6062C25.5807 15.4773 25.2916 15.4704 25.0555 15.5883L23.562 16.3343L22.0685 15.5883C21.8428 15.4756 21.5733 15.4756 21.3476 15.5883L19.8542 16.3343L18.3607 15.5883C18.135 15.4756 17.8655 15.4756 17.6398 15.5883L16.1463 16.3343L14.6528 15.5883C14.4271 15.4756 14.1576 15.4756 13.9319 15.5883L12.4384 16.3343L10.9449 15.5883C10.7089 15.4705 10.4197 15.4773 10.1903 15.6062C9.96085 15.7352 9.81836 15.9709 9.81836 16.2215V28.1662C9.81836 29.3278 10.8272 30.2727 12.0672 30.2727ZM23.5588 14.8128L22.8406 14.4541V10.1802L22.88 10.2076C23.6095 10.7139 24.0646 11.4881 24.1305 12.334C24.379 12.388 24.6188 12.4762 24.8436 12.5962C25.4573 12.9239 25.898 13.4559 26.0845 14.094C26.0969 14.1366 26.1088 14.1829 26.1207 14.2355L26.1296 14.2746L26.0889 14.2623C25.518 14.0894 24.8962 14.1448 24.3778 14.4036L23.5588 14.8128Z" fill="white"/>
</svg>
