<svg width="36" height="36" viewBox="0 0 36 36" fill="none" xmlns="http://www.w3.org/2000/svg">
<path d="M18.5 10C18.5 9.72386 18.7239 9.5 19 9.5H23C23.2761 9.5 23.5 9.72386 23.5 10C23.5 10.2761 23.2761 10.5 23 10.5H19C18.7239 10.5 18.5 10.2761 18.5 10Z" fill="white"/>
<path fill-rule="evenodd" clip-rule="evenodd" d="M18 36C27.9411 36 36 27.9411 36 18C36 8.05887 27.9411 0 18 0C8.05887 0 0 8.05887 0 18C0 27.9411 8.05887 36 18 36ZM27.9981 11.4056C27.7214 11.3669 27.4466 11.5265 27.3499 11.8001C27.2261 12.1504 26.8919 12.4 26.501 12.4H15.501C15.1101 12.4 14.7759 12.1504 14.652 11.8001C14.5553 11.5265 14.2805 11.3669 14.0039 11.4056C14.0419 10.7938 14.4467 10.2813 15.001 10.0854L15.5451 8.36753C15.7651 7.70752 15.8751 7.37751 16.137 7.18876C16.3989 7 16.7468 7 17.4425 7H24.5595C25.2552 7 25.603 7 25.8649 7.18876C26.1268 7.37752 26.2368 7.70753 26.4568 8.36754L27.001 10.0854C27.5553 10.2813 27.9601 10.7938 27.9981 11.4056ZM15 13.4H27L25.2609 24.7041C25.1364 25.5133 25.0742 25.918 24.7932 26.159C24.5123 26.4 24.1029 26.4 23.2842 26.4H19.8625L20.5615 23.9535C20.9627 23.3819 21.2 22.6896 21.2 21.9429C21.2 20.4212 20.2178 19.134 18.8627 18.6176C18.604 16.874 17.1156 15.5242 15.3089 15.4081L15 13.4ZM15.0559 16.4C13.887 16.4 12.8809 17.0911 12.4421 18.0653L12.3132 18.3514L12.0046 18.2943C11.8756 18.2704 11.7458 18.2572 11.6147 18.2572C10.4577 18.2572 9.52941 19.1754 9.52941 20.2715C9.52941 20.4358 9.55283 20.5979 9.59447 20.7579L9.70554 21.1848L9.26982 21.2537C8.54246 21.3687 8 21.9766 8 22.6857C8 23.2893 8.38965 23.8211 8.95393 24.0393C9.12634 24.106 9.31442 24.1429 9.51176 24.1429C10.0144 24.1429 10.459 23.8997 10.7353 23.53L11.0969 23.0463L11.4012 23.568C11.8578 24.3508 12.7248 24.8857 13.7176 24.8857C14.4459 24.8857 15.1069 24.5982 15.5885 24.1353L15.8159 23.9168L16.0815 24.087C16.5017 24.3563 17.0028 24.5143 17.5412 24.5143C18.1613 24.5143 18.7326 24.3063 19.1859 23.959C19.8063 23.4838 20.2 22.7532 20.2 21.9429C20.2 20.7604 19.3562 19.7462 18.2038 19.4566L17.9102 19.3829L17.9014 19.0803C17.8588 17.61 16.6053 16.4 15.0559 16.4ZM8.94123 24.8729L9.35072 26.3061C9.72118 27.6027 9.90641 28.251 10.4029 28.6255C10.8994 29 11.5736 29 12.9221 29H15.2779C16.6264 29 17.3006 29 17.7971 28.6255C18.2936 28.251 18.4788 27.6027 18.8493 26.3061L19.2609 24.8654C18.7534 25.1508 18.1656 25.3143 17.5412 25.3143C16.9535 25.3143 16.3992 25.1686 15.9136 24.9138C15.3153 25.3953 14.5494 25.6857 13.7176 25.6857C12.622 25.6857 11.6413 25.1821 11.0065 24.3995C10.6039 24.7368 10.0825 24.9429 9.51176 24.9429C9.31534 24.9429 9.1241 24.9186 8.94123 24.8729Z" fill="white"/>
</svg>
