<svg width="36" height="36" viewBox="0 0 36 36" fill="none" xmlns="http://www.w3.org/2000/svg">
<path fill-rule="evenodd" clip-rule="evenodd" d="M18 36C27.9411 36 36 27.9411 36 18C36 8.05887 27.9411 0 18 0C8.05887 0 0 8.05887 0 18C0 27.9411 8.05887 36 18 36ZM4.88399 10.019C5.41754 9.91395 5.93657 10.2547 6.04328 10.7801L8.16398 19.5141C8.38444 19.6225 8.5126 19.6843 8.63804 19.7378C10.1376 20.3778 11.8393 20.3778 13.3389 19.7378C13.4874 19.6745 13.6399 19.5994 13.9443 19.4495C14.0456 19.3997 14.0964 19.3746 14.1459 19.3535C14.6457 19.1402 15.213 19.1402 15.7128 19.3535C15.7623 19.3746 15.813 19.3996 15.9144 19.4495C16.2188 19.5994 16.3713 19.6745 16.5198 19.7378L16.5738 19.7609C17.2873 20.0655 17.6441 20.2178 18.0009 20.2178C18.3577 20.2178 18.7144 20.0655 19.428 19.7609L19.482 19.7378C19.6304 19.6745 19.7827 19.5995 20.087 19.4497C20.1884 19.3998 20.2395 19.3746 20.2889 19.3535C20.7888 19.1402 21.356 19.1402 21.8559 19.3535C21.9054 19.3746 21.9562 19.3997 22.0577 19.4496C22.3622 19.5995 22.5144 19.6745 22.6628 19.7378C24.1624 20.3778 25.8641 20.3778 27.3637 19.7378C27.4892 19.6843 27.6173 19.6225 27.8378 19.5141L29.9585 10.7801C30.0652 10.2547 30.5842 9.91395 31.1178 10.019C31.6513 10.1241 31.9974 10.6352 31.8907 11.1606L28.8882 24.2363C28.671 25.3059 28.4904 26.1948 28.2555 26.894C28.0077 27.6315 27.6661 28.2668 27.0591 28.7568C26.4521 29.2468 25.7525 29.452 24.9696 29.5467C24.2272 29.6364 23.3066 29.6364 22.1988 29.6364H13.803C12.6952 29.6364 11.7745 29.6364 11.0322 29.5467C10.2493 29.452 9.54964 29.2468 8.94265 28.7568C8.33566 28.2668 7.99408 27.6315 7.74629 26.894C7.51133 26.1948 7.3308 25.3058 7.11357 24.2361L4.11112 11.1606C4.00441 10.6352 4.35043 10.1241 4.88399 10.019ZM24.0281 17.0242C25.1163 17.0242 25.9985 16.1555 25.9985 15.0838C25.9985 14.0122 25.1163 13.1435 24.0281 13.1435C22.9398 13.1435 22.0576 14.0122 22.0576 15.0838C22.0576 16.1555 22.9398 17.0242 24.0281 17.0242Z" fill="white"/>
</svg>
