<svg width="36" height="36" viewBox="0 0 36 36" fill="none" xmlns="http://www.w3.org/2000/svg">
<path d="M12.5016 12.6524L11.2072 18.0172C11.1286 18.3464 10.7751 18.5545 10.4177 18.4821C10.0602 18.4097 9.83422 18.0841 9.91286 17.7549L11.2072 12.3901C11.2581 12.1771 11.4285 12.0053 11.6541 11.9394C11.8798 11.8735 12.1265 11.9235 12.3013 12.0706C12.4761 12.2176 12.5525 12.4394 12.5016 12.6524Z" fill="white"/>
<path fill-rule="evenodd" clip-rule="evenodd" d="M18 36C27.9411 36 36 27.9411 36 18C36 8.05887 27.9411 0 18 0C8.05887 0 0 8.05887 0 18C0 27.9411 8.05887 36 18 36ZM25.7683 6.1691C25.9943 6.3382 26.0591 6.62306 26.1885 7.19278C26.2462 7.44671 26.3037 7.7009 26.3611 7.95534L26.3649 7.97186L26.366 7.97669C26.6554 9.25815 26.9462 10.5456 27.2793 11.8357C27.8113 13.9115 26.0935 16.5787 22.8989 17.1703C22.3409 17.2736 22.0619 17.3253 21.7791 17.1523C21.4964 16.9793 21.4305 16.679 21.2986 16.0786L20.0761 10.5124C19.9878 10.0841 19.6527 9.7344 19.2024 9.60038L19.623 7.88364C19.6739 7.67068 19.5976 7.4489 19.4228 7.30184C19.2479 7.15479 19.0012 7.1048 18.7756 7.1707C18.5499 7.23661 18.3795 7.4084 18.3287 7.62136L17.8692 9.57654H16.3806C16.5637 8.77354 16.7468 7.98407 16.9378 7.1808C17.072 6.61613 17.1392 6.33379 17.3644 6.1669C17.5895 6 17.9047 6 18.5351 6H24.5899C25.2249 6 25.5423 6 25.7683 6.1691ZM22.2086 25.6352C22.2086 25.9644 21.9189 26.2313 21.5614 26.2313C21.204 26.2313 20.9142 25.9644 20.9142 25.6352V19.0782C20.9142 18.749 21.204 18.4821 21.5614 18.4821C21.9189 18.4821 22.2086 18.749 22.2086 19.0782V25.6352ZM19.2648 19.9664C20.1089 19.0299 20.4383 17.7879 20.1579 16.5985L19.0716 11.961C18.9378 11.3896 18.8709 11.104 18.6454 10.9363C18.42 10.7687 18.1027 10.7687 17.4681 10.7687H11.4232C10.7893 10.7687 10.4724 10.7687 10.247 10.9361C10.0217 11.1034 9.95448 11.3887 9.82007 11.9592L8.7285 16.5925C8.43761 17.7914 8.76758 19.0467 9.62162 19.9902C10.8106 21.3165 12.582 22.0825 14.4493 22.0779C16.3167 22.0733 18.0836 21.2985 19.2648 19.9664ZM13.7955 23.848C13.7955 23.5288 14.0961 23.2821 14.4427 23.2821C14.7892 23.2821 15.0899 23.5288 15.0899 23.848V30.4039C15.0899 30.7331 14.8001 31 14.4427 31C14.0852 31 13.7955 30.7331 13.7955 30.4039V23.848Z" fill="white"/>
</svg>
