<svg width="44" height="44" viewBox="0 0 44 44" fill="none" xmlns="http://www.w3.org/2000/svg">
<path fill-rule="evenodd" clip-rule="evenodd" d="M41 19.92C41 28.6207 35.1021 35.9497 27.0702 38.1588L27.0481 38.1779C26.4192 38.7206 25.9231 39.4732 24.9307 40.9783L24.4045 41.7765C23.5884 43.0144 23.1803 43.6333 22.6801 43.8546C22.2419 44.0485 21.7557 44.0485 21.3176 43.8546C20.8173 43.6333 20.4093 43.0144 19.5931 41.7765L19.0669 40.9783C18.0746 39.4732 17.5784 38.7206 16.9496 38.1779L16.9263 38.1579C8.89621 35.9476 3 28.6194 3 19.92C3 9.47076 11.5066 1 22 1C32.4934 1 41 9.47076 41 19.92ZM16.5857 28.4024C17.4176 28.52 18.4754 28.52 19.7877 28.52H24.2112C25.5235 28.52 26.5812 28.52 27.4132 28.4024C28.2769 28.2803 29.0041 28.019 29.5817 27.4114C30.1593 26.8039 30.4077 26.039 30.5239 25.1305C30.6357 24.2555 30.6357 23.1429 30.6357 21.7626L30.6357 18.7087C30.6364 17.3955 30.6369 16.4821 30.257 15.6813C29.877 14.8806 29.1828 14.3319 28.1847 13.5429L25.8586 11.7023C25.0551 11.0665 24.4022 10.5498 23.8289 10.1977C23.2309 9.83055 22.6547 9.60003 21.9994 9.60003C21.3442 9.60003 20.768 9.83055 20.17 10.1977C19.5967 10.5498 18.9437 11.0665 18.1403 11.7023L15.8142 13.5429C14.8161 14.3319 14.1218 14.8806 13.7419 15.6813C13.3619 16.4821 13.3624 17.3955 13.3631 18.7087L13.3632 21.7627C13.3632 23.143 13.3631 24.2555 13.475 25.1305C13.5911 26.039 13.8395 26.8039 14.4171 27.4114C14.9947 28.019 15.722 28.2803 16.5857 28.4024Z" fill="black"/>
</svg>
