<svg width="44" height="44" viewBox="0 0 44 44" fill="none" xmlns="http://www.w3.org/2000/svg">
<path d="M11.9412 28.1912C10.8366 28.1912 9.94118 29.0866 9.94118 30.1912C9.94118 31.2957 10.8366 32.1912 11.9412 32.1912V28.1912ZM18.7942 32.1912C19.8988 32.1912 20.7942 31.2957 20.7942 30.1912C20.7942 29.0866 19.8988 28.1912 18.7942 28.1912V32.1912ZM40.3153 18.2941C41.4198 18.2941 42.3153 17.3987 42.3153 16.2941C42.3153 15.1895 41.4198 14.2941 40.3153 14.2941V18.2941ZM11.9412 32.1912H18.7942V28.1912H11.9412V32.1912ZM22.001 8C29.042 8 33.1119 9.10914 35.4892 11.2988C37.8171 13.443 39 17.0797 39 23.5H43C43 16.7943 41.8083 11.681 38.1991 8.35669C34.6394 5.07787 29.2097 4 22.001 4V8ZM39 23.5C39 29.9192 37.8171 33.556 35.4891 35.7005C33.1117 37.8904 29.0418 39 22.001 39V43C29.2099 43 34.6395 41.9216 38.1992 38.6425C41.8082 35.318 43 30.2048 43 23.5H39ZM22.001 39C14.9591 39 10.8887 37.8904 8.51107 35.7004C6.18287 33.556 5 29.9192 5 23.5H1C1 30.2048 2.19177 35.3181 5.80112 38.6426C9.36108 41.9216 14.7912 43 22.001 43V39ZM25 18.2941H40.3153V14.2941H25V18.2941ZM22.001 4H19.7647V8H22.001V4ZM5 23.5V20.6774H1V23.5H5Z" fill="black"/>
<path d="M9 3L9 19M17 11H1" stroke="#5A88FF" stroke-width="4" stroke-linejoin="round"/>
</svg>
