<svg width="44" height="44" viewBox="0 0 44 44" fill="none" xmlns="http://www.w3.org/2000/svg">
<circle opacity="0.1" cx="28.5" cy="28.5" r="15.5" fill="white"/>
<circle opacity="0.24" cx="24" cy="24" r="10" fill="white"/>
<path d="M18.4123 18.4092C14.3992 22.4222 13.4931 26.4352 13.2887 28.043C13.2316 28.4875 13.3846 28.9333 13.7026 29.2492L16.9502 32.4952C17.4279 32.9726 17.5126 33.7167 17.1546 34.2893L11.9839 42.3182C11.5878 42.9523 10.7744 43.1811 10.1057 42.8466L1.80492 38.9373C1.26419 38.671 0.946141 38.0965 1.00754 37.4969C1.44247 33.3651 3.24384 23.208 13.2256 13.2255C23.2074 3.24309 33.3632 1.44247 37.4973 1.00754C38.0969 0.946144 38.6714 1.26419 38.9377 1.80491L42.847 10.1056C43.1803 10.7728 42.9529 11.584 42.3215 11.9809L34.2925 17.1501C33.7202 17.5085 32.9762 17.4243 32.4984 16.9471L29.2523 13.6996C28.9365 13.3816 28.4907 13.2286 28.0461 13.2857C26.4383 13.4901 22.4253 14.3962 18.4123 18.4092Z" fill="white"/>
</svg>
