<svg width="18" height="18" viewBox="0 0 18 18" fill="none" xmlns="http://www.w3.org/2000/svg">
<path d="M6.87473 4.55566C3.30546 4.55566 0.409954 7.47493 0.409668 11.0731C0.409954 14.6733 3.30517 17.5906 6.87501 17.5906C10.4457 17.5906 13.3398 14.6733 13.3404 11.0731C13.3398 7.47493 10.4463 4.55566 6.87473 4.55566Z" fill="url(#paint0_radial)"/>
<path d="M11.161 4.60962L10.1986 5.58004C9.71758 6.06539 12.0756 8.44232 12.5564 7.95669L13.5188 6.98684L11.161 4.60962Z" fill="url(#paint1_radial)"/>
<path d="M13.5183 6.9868C13.0372 7.47187 10.6795 5.09465 11.1606 4.60958C11.6422 4.12451 13.9999 6.50174 13.5183 6.9868Z" fill="#4E5E67"/>
<path d="M13.0659 6.42487C12.8248 6.66769 11.4776 5.30899 11.7181 5.06646C11.9592 4.82393 13.3064 6.18263 13.0659 6.42487Z" fill="#1A1626"/>
<path d="M12.4652 6.16164C12.7985 5.84008 13.9568 3.86975 14.5541 3.24094C14.7872 2.99583 14.2895 2.68744 14.1644 2.79768C13.4685 3.40931 12.3558 5.46268 12.0586 5.76448C12.2393 6.00158 12.4652 6.16164 12.4652 6.16164Z" fill="#B47D56"/>
<path d="M14.2723 1.95101L14.7193 0.60663L14.9406 1.97564L16.0402 0.62696L15.6124 2.23936L17.591 1.92238L15.8097 3.03253L17.4836 3.90989L15.5677 3.81969L16.5507 5.34533L15.1136 4.40011L14.5984 6.31145L13.8322 3.71288L11.792 2.68319L13.482 2.45641L12.921 0.409912L14.2723 1.95101Z" fill="#EF4E16"/>
<path d="M13.9525 2.72841L13.5576 1.60022L14.3986 2.42947L14.6655 1.69214L14.8507 2.40456L15.4956 1.69586L15.2353 2.57665L16.2364 2.44579L15.3355 2.98784L16.2498 3.55738L15.1391 3.47147L15.7052 4.42843L14.8719 3.88266L14.6168 5.14887L14.2007 3.43625L13.0723 2.90824L13.9525 2.72841Z" fill="#FFE12C"/>
<path d="M14.3145 2.92367L14.1473 2.44604L14.5041 2.7971L14.6169 2.48527L14.6948 2.78679L14.9677 2.48699L14.858 2.85952L15.2815 2.80426L14.9004 3.03362L15.2875 3.27501L14.8165 3.23893L15.0564 3.64382L14.7037 3.41331L14.5762 3.87833L14.4027 3.25325L13.9414 3.00041L14.3145 2.92367Z" fill="white"/>
<defs>
<radialGradient id="paint0_radial" cx="0" cy="0" r="1" gradientUnits="userSpaceOnUse" gradientTransform="translate(5.44333 8.42454) scale(6.66484)">
<stop stop-color="#5B666E"/>
<stop offset="0.7695" stop-color="#3A3A47"/>
<stop offset="1" stop-color="#302C3B"/>
</radialGradient>
<radialGradient id="paint1_radial" cx="0" cy="0" r="1" gradientUnits="userSpaceOnUse" gradientTransform="translate(11.3014 5.93381) scale(2.20378)">
<stop stop-color="#5B666E"/>
<stop offset="0.7695" stop-color="#3A3A47"/>
<stop offset="1" stop-color="#302C3B"/>
</radialGradient>
</defs>
</svg>
