<svg width="37" height="23" viewBox="0 0 37 23" fill="none" xmlns="http://www.w3.org/2000/svg">
<path fill-rule="evenodd" clip-rule="evenodd" d="M25.9355 22.8815C31.9542 22.8815 36.8333 17.9458 36.8333 11.8573C36.8333 5.76873 31.9542 0.833008 25.9355 0.833008C23.238 0.833008 20.7693 1.82451 18.8663 3.46691C16.9634 1.82478 14.4949 0.833463 11.7976 0.833463C5.77898 0.833463 0.899902 5.76919 0.899902 11.8577C0.899902 17.9462 5.77898 22.882 11.7976 22.882C14.4952 22.882 16.9638 21.8905 18.8668 20.2481C20.7698 21.8902 23.2382 22.8815 25.9355 22.8815Z" fill="#ED0006"/>
<path fill-rule="evenodd" clip-rule="evenodd" d="M18.8667 20.2479C21.2098 18.2258 22.6955 15.2171 22.6955 11.8573C22.6955 8.49745 21.2098 5.48868 18.8667 3.46663C20.7697 1.8244 23.2382 0.833008 25.9356 0.833008C31.9542 0.833008 36.8333 5.76873 36.8333 11.8573C36.8333 17.9458 31.9542 22.8815 25.9356 22.8815C23.2382 22.8815 20.7697 21.8901 18.8667 20.2479Z" fill="#F9A000"/>
<path fill-rule="evenodd" clip-rule="evenodd" d="M18.8669 20.249C21.21 18.227 22.6958 15.2182 22.6958 11.8584C22.6958 8.49859 21.21 5.48982 18.8669 3.46777C16.5238 5.48982 15.0381 8.49859 15.0381 11.8584C15.0381 15.2182 16.5238 18.227 18.8669 20.249Z" fill="#FF5E00"/>
</svg>
