<svg width="44" height="44" viewBox="0 0 44 44" fill="none" xmlns="http://www.w3.org/2000/svg">
<path d="M25 18H19M30.1906 11.8032V9.60869C30.1906 6.49332 30.1906 4.93564 29.231 3.96782C28.2714 3 26.727 3 23.6381 3H20.3619C17.273 3 15.7286 3 14.769 3.96782C13.8094 4.93564 13.8094 6.49332 13.8094 9.60869V11.8032M38.056 23.452L38.3747 26.3006C39.1421 33.1596 39.5258 36.5892 37.572 38.7946C35.6182 41 32.1963 41 25.3524 41H18.6476C11.8037 41 8.38176 41 6.42796 38.7946C4.47417 36.5892 4.85787 33.1596 5.62526 26.3006L5.94396 23.452C6.56856 17.8693 6.88086 15.0779 8.74578 13.3973C10.6107 11.7167 13.3959 11.7167 18.9663 11.7167H25.0337C30.6041 11.7167 33.3893 11.7167 35.2542 13.3973C37.1191 15.0779 37.4314 17.8693 38.056 23.452Z" stroke="black" stroke-width="4" stroke-linecap="round" stroke-linejoin="round"/>
</svg>
