<svg width="44" height="44" viewBox="0 0 44 44" fill="none" xmlns="http://www.w3.org/2000/svg">
<g clip-path="url(#clip0)">
<path fill-rule="evenodd" clip-rule="evenodd" d="M0.537151 29.9745C0.241928 26.9401 0.0943166 25.4229 0.945263 24.3885C1.79621 23.3542 3.3134 23.2066 6.34778 22.9113L35.7736 20.0484C38.8079 19.7532 40.3251 19.6056 41.3595 20.4565C42.3939 21.3075 42.5415 22.8247 42.8367 25.8591L43.3735 31.3764C43.6687 34.4108 43.8163 35.928 42.9654 36.9623C42.1145 37.9967 40.5973 38.1443 37.5629 38.4395L8.13711 41.3025C5.10272 41.5977 3.58553 41.7453 2.55116 40.8943C1.51678 40.0434 1.36917 38.5262 1.07395 35.4918L0.537151 29.9745ZM4.6561 26.0684C4.73632 26.8929 4.13294 27.6263 3.3084 27.7066C2.48387 27.7868 1.75042 27.1834 1.6702 26.3589C1.58998 25.5343 2.19336 24.8009 3.0179 24.7207C3.84243 24.6404 4.57588 25.2438 4.6561 26.0684ZM39.6477 24.1865C40.4722 24.1063 41.0756 23.3729 40.9954 22.5483C40.9152 21.7238 40.1817 21.1204 39.3572 21.2006C38.5327 21.2808 37.9293 22.0143 38.0095 22.8388C38.0897 23.6634 38.8232 24.2667 39.6477 24.1865Z" fill="#2A292E"/>
<path d="M4.14415 32.2623C4.36728 34.5557 6.12476 36.1291 8.53547 35.8946C10.5622 35.6974 11.5813 34.2199 11.5813 34.2199L10.4778 32.949C10.4778 32.949 9.72959 34.0017 8.39623 34.1314C7.27621 34.2404 6.2496 33.3173 6.12818 32.0693C5.99327 30.6826 6.81975 29.8808 7.9291 29.7728C8.41978 29.7251 9.11906 29.8293 9.16161 30.2667L9.20208 30.6827L10.9088 30.5166L10.8112 29.514C10.6722 28.0846 8.62188 27.9287 7.7152 28.0169C5.44316 28.238 3.9314 30.0756 4.14415 32.2623ZM12.6684 34.5772C12.7213 35.1212 12.9788 35.333 13.5228 35.2801L15.2295 35.1141L15.0791 33.5674L14.6737 33.6068C14.5244 33.6213 14.4307 33.5443 14.4162 33.395L13.9233 28.3282C13.8703 27.7842 13.6128 27.5724 13.0688 27.6253L11.3621 27.7913L11.5126 29.338L11.9179 29.2986C12.0673 29.2841 12.1609 29.3611 12.1755 29.5104L12.6684 34.5772ZM15.4452 32.3365C15.6123 34.0539 17.0994 35.0614 18.8274 34.8932C20.5554 34.7251 21.8204 33.4499 21.6533 31.7325C21.4852 30.0045 19.996 28.9757 18.2573 29.1448C16.54 29.3119 15.2771 30.6085 15.4452 32.3365ZM17.3012 32.1559C17.2203 31.3239 17.7454 30.7452 18.4175 30.6798C19.0895 30.6144 19.7163 31.0811 19.7973 31.9131C19.8772 32.7344 19.35 33.2918 18.6779 33.3572C18.0059 33.4226 17.3812 32.9773 17.3012 32.1559ZM22.3228 33.541C22.3228 33.541 23.2737 34.4606 24.8524 34.307C26.1324 34.1825 27.0377 33.4161 26.9298 32.3067C26.7503 30.4613 23.9735 30.8069 23.9185 30.2415C23.9019 30.0709 24.1282 29.9627 24.3842 29.9378C24.6509 29.9118 24.896 29.9957 24.9105 30.145L24.9364 30.4117L26.5365 30.256L26.4732 29.6053C26.3766 28.6133 25.1144 28.4777 24.2184 28.5649C23.0557 28.678 22.0068 29.2969 22.122 30.4809C22.2953 32.2623 25.0619 32.1439 25.1065 32.6025C25.1252 32.7945 24.9831 32.8837 24.7165 32.9097C23.8738 32.9917 23.029 32.277 23.029 32.277L22.3228 33.541ZM27.4225 31.1497C27.5647 32.611 28.7587 33.927 30.7214 33.736C32.1828 33.5939 32.983 32.633 32.983 32.633L32.1266 31.4673C32.1266 31.4673 31.5107 32.1087 30.7213 32.1855C30.1346 32.2426 29.5499 31.9872 29.3437 31.3073L32.8105 30.97C32.8105 30.97 32.8168 30.5925 32.7992 30.4112C32.6508 28.8859 31.6234 27.8444 30.002 28.0022C28.2314 28.1744 27.2658 29.539 27.4225 31.1497ZM29.2881 30.1821C29.366 29.7654 29.6036 29.4407 30.137 29.3889C30.521 29.3515 30.8229 29.6882 30.8561 30.0296L29.2881 30.1821ZM33.4434 30.5639C33.6095 32.2706 34.705 33.3485 36.1984 33.2032C37.329 33.0932 37.7151 32.3019 37.7151 32.3019L37.7364 32.2998C37.7364 32.2998 37.7416 32.3531 37.7457 32.3958C37.7706 32.6518 37.9886 32.8998 38.5113 32.8489L40.154 32.6891L40.0035 31.1424L39.5981 31.1818C39.4488 31.1964 39.3552 31.1193 39.3406 30.97L38.8477 25.9033C38.7948 25.3592 38.5373 25.1474 37.9932 25.2003L36.2866 25.3664L36.437 26.9131L36.8424 26.8736C36.9917 26.8591 37.0853 26.9361 37.0999 27.0855L37.1352 27.4481C37.1487 27.5868 37.1697 27.6924 37.1697 27.6924L37.1484 27.6945C37.1484 27.6945 36.7803 27.3427 35.671 27.4506C34.2096 27.5928 33.2743 28.8252 33.4434 30.5639ZM36.5086 31.6332C35.8686 31.6954 35.3794 31.2047 35.2995 30.3833C35.2175 29.5406 35.6732 29.0225 36.2492 28.9665C36.9745 28.8959 37.3898 29.5123 37.4542 30.1737C37.5465 31.123 37.0633 31.5792 36.5086 31.6332Z" fill="white"/>
<path d="M20.5839 3.56058L3.14404 26.3514M23.5384 3.49992L39.407 22.6558M23.9317 4.63979C23.9317 5.6603 23.1045 6.48758 22.0839 6.48758C21.0634 6.48758 20.2362 5.6603 20.2362 4.63979C20.2362 3.61928 21.0634 2.79199 22.0839 2.79199C23.1045 2.79199 23.9317 3.61928 23.9317 4.63979Z" stroke="#2A292E" stroke-width="0.923898" stroke-linecap="round" stroke-linejoin="round"/>
</g>
<defs>
<clipPath id="clip0">
<rect width="44" height="44" fill="white"/>
</clipPath>
</defs>
</svg>
