<svg width="44" height="44" viewBox="0 0 44 44" fill="none" xmlns="http://www.w3.org/2000/svg">
<path d="M40.8199 36.472L6.66642 42.9707C5.94902 43.0775 5.22348 42.8887 4.64813 42.4457C4.07245 42.0024 3.71408 41.3623 3.63882 40.6485L1.05333 24.5167C0.761419 23.0397 1.69547 21.587 3.18011 21.2178L37.3336 14.7191C38.051 14.6124 38.7766 14.8012 39.3519 15.2444C39.9276 15.6791 40.2863 16.3275 40.3612 17.0413L42.9467 33.1735C43.2386 34.6585 42.3046 36.1028 40.8199 36.472Z" fill="#E64C3C"/>
<path d="M7.7836 35.4798C7.46693 35.4798 7.15808 35.4307 6.86617 35.3403C6.39084 35.1846 5.95721 34.9384 5.59851 34.6102C5.21505 34.2653 4.9062 33.8634 4.66446 33.4121C4.40578 32.9281 4.23898 32.411 4.15557 31.8694C4.06403 31.328 4.06403 30.778 4.15557 30.2366C4.23898 29.7279 4.40578 29.2356 4.64785 28.7843C4.88144 28.3493 5.20658 27.9554 5.59851 27.6435C5.99044 27.3316 6.45763 27.1102 6.95805 27.0201C7.44999 26.9297 7.96735 26.9544 8.44268 27.1102C8.82614 27.2332 9.03465 27.6272 8.90954 28.0048C8.78444 28.382 8.38437 28.5872 8.00058 28.4641C7.75037 28.382 7.48355 28.3657 7.23334 28.415C6.96652 28.4641 6.71631 28.5872 6.5078 28.7513C6.26574 28.9484 6.07384 29.1862 5.93212 29.4571C5.76532 29.7689 5.64868 30.1135 5.59037 30.4581C5.52358 30.852 5.52358 31.2459 5.59037 31.6395C5.64868 32.0255 5.77379 32.3947 5.94874 32.7473C6.1074 33.0511 6.31591 33.3217 6.57426 33.5515C6.78277 33.7486 7.04145 33.896 7.31674 33.9864C7.56695 34.0685 7.83378 34.0848 8.08399 34.0358C8.35081 33.9864 8.60102 33.8717 8.80953 33.6992C9.00989 33.5435 9.28486 33.5024 9.52692 33.5925C9.76866 33.6829 9.94394 33.896 9.97717 34.1505C10.0189 34.405 9.91885 34.6512 9.71881 34.8153C9.32656 35.1269 8.8597 35.3403 8.36743 35.4387C8.15892 35.4551 7.96735 35.4798 7.7836 35.4798Z" fill="white"/>
<path d="M11.8711 34.7411C11.5127 34.7411 11.2123 34.4869 11.154 34.142L10.0281 27.1263C9.97791 26.8721 10.0698 26.6096 10.2783 26.4371C10.4783 26.273 10.7621 26.2237 11.0123 26.3224C11.2625 26.4208 11.4293 26.6423 11.4625 26.8968L12.4719 33.182L14.957 32.706C15.3323 32.665 15.6829 32.9112 15.7578 33.2804C15.8327 33.6497 15.5995 34.0109 15.2323 34.101L12.0131 34.7164C11.963 34.733 11.9128 34.7411 11.8711 34.7411Z" fill="white"/>
<path d="M18.6011 33.4284C18.0003 33.4204 17.4083 33.2316 16.9245 32.887C15.9237 32.1318 15.2649 31.0161 15.1063 29.7769C14.731 27.4303 15.8654 25.3213 17.7002 24.9687C18.459 24.8373 19.2432 25.0177 19.8687 25.469C20.8777 26.2239 21.5283 27.3399 21.687 28.5791C22.0623 30.9257 20.9279 33.0344 19.093 33.3873C18.9262 33.412 18.7679 33.4284 18.6011 33.4284ZM18.1922 26.3389C18.1173 26.3389 18.042 26.347 17.9671 26.3636C16.9411 26.5604 16.2824 28.0211 16.5326 29.5471C16.6326 30.4007 17.0747 31.1719 17.7501 31.7135C18.0589 31.9434 18.4424 32.0334 18.8177 31.9761C19.8436 31.7793 20.5024 30.3186 20.2522 28.7923C20.1522 27.939 19.7101 27.1675 19.0347 26.6261C18.7926 26.4537 18.5007 26.3553 18.1922 26.3389Z" fill="white"/>
<path d="M25.4399 32.1322C25.2562 32.1322 25.0728 32.1078 24.8978 32.0668C24.5889 31.9927 24.3055 31.8533 24.0638 31.6565C23.8136 31.4677 23.6051 31.2295 23.4464 30.959C23.2464 30.6225 23.363 30.1795 23.7051 29.9824C24.0468 29.7856 24.4974 29.9003 24.6974 30.2369C24.7642 30.3516 24.8476 30.442 24.9476 30.5241C25.0395 30.5978 25.148 30.6472 25.2562 30.6718C25.3647 30.6962 25.4816 30.7045 25.5898 30.6798C25.7067 30.6552 25.8152 30.6141 25.9068 30.5404C26.0153 30.4667 26.0987 30.368 26.1736 30.2616C26.2489 30.1465 26.2987 30.0154 26.3323 29.8756C26.3655 29.7282 26.3655 29.5721 26.3404 29.4243C26.3157 29.2769 26.2655 29.1371 26.1987 29.0141C26.1319 28.8993 26.0485 28.8089 25.9485 28.7269C25.8569 28.6531 25.7566 28.6038 25.64 28.5794C25.5315 28.5547 25.4148 28.5464 25.3063 28.5711C24.9893 28.6368 24.6557 28.6205 24.3387 28.5464C24.0387 28.4727 23.7468 28.3333 23.5047 28.1445C23.2545 27.9557 23.046 27.7178 22.8877 27.447C22.7209 27.1678 22.6124 26.8563 22.5625 26.5444C22.5123 26.2242 22.5208 25.896 22.5873 25.5844C22.6541 25.2806 22.771 24.9854 22.9378 24.7228C23.1046 24.46 23.3213 24.2305 23.58 24.0497C23.8468 23.8613 24.1472 23.7382 24.4638 23.6725C24.7808 23.6151 25.1145 23.6231 25.4315 23.6971C25.74 23.7709 26.0237 23.9103 26.2655 24.0991C26.5157 24.2879 26.7242 24.5257 26.8825 24.7966C27.0161 25.018 27.0246 25.2889 26.8995 25.5187C26.7744 25.7402 26.5323 25.8796 26.2655 25.8796C26.0068 25.8796 25.7651 25.7402 25.6315 25.5187C25.565 25.4036 25.4816 25.3052 25.3813 25.2315C25.2897 25.1575 25.1897 25.1084 25.0728 25.0838C24.9643 25.0591 24.8476 25.0511 24.7391 25.0754C24.6225 25.1001 24.514 25.1411 24.4221 25.2152C24.314 25.2889 24.2306 25.3793 24.1638 25.4857C24.0885 25.6088 24.0302 25.7402 24.0051 25.8716C23.9719 26.0191 23.9719 26.1751 23.997 26.3229C24.0221 26.4704 24.0719 26.6101 24.1387 26.7332C24.2055 26.8396 24.2889 26.9383 24.3889 27.0204C24.4808 27.0941 24.589 27.1435 24.6974 27.1678C24.8059 27.1925 24.9226 27.2008 25.0311 27.1762C25.348 27.1188 25.6817 27.1268 25.9987 27.2008C26.2987 27.2746 26.5906 27.414 26.8327 27.6028C27.0829 27.7916 27.2914 28.0294 27.4497 28.3002C27.6165 28.5794 27.725 28.891 27.7752 29.2029C27.8251 29.5231 27.8169 29.8513 27.7501 30.1628C27.6833 30.4667 27.5667 30.7619 27.3999 31.0244C27.2331 31.2872 27.0161 31.5167 26.7574 31.6975C26.4906 31.886 26.1905 32.0174 25.8736 32.0748C25.7234 32.1158 25.5816 32.1322 25.4399 32.1322Z" fill="white"/>
<path d="M29.9096 31.3117C29.5509 31.3117 29.2509 31.0575 29.1926 30.713L28.0666 23.6973C28.008 23.3197 28.2582 22.9588 28.642 22.8847L31.8614 22.2693C32.2534 22.1956 32.6368 22.4498 32.7121 22.8357C32.787 23.2213 32.5287 23.5985 32.1364 23.6726L29.6011 24.1566L30.5019 29.761L32.9789 29.285C33.3708 29.2113 33.7546 29.4655 33.8296 29.8514C33.9048 30.237 33.6461 30.6143 33.2542 30.6883L30.0347 31.3037C30.0015 31.3037 29.9598 31.3117 29.9096 31.3117Z" fill="white"/>
<path d="M29.3517 27.7997C28.9764 27.7997 28.6679 27.5205 28.6343 27.1512C28.6011 26.782 28.8513 26.4538 29.2181 26.3881L31.1533 26.0188C31.5453 25.9451 31.9287 26.1996 32.004 26.5852C32.0789 26.9708 31.8206 27.3484 31.4283 27.4221L29.4934 27.7913C29.4436 27.7997 29.3934 27.7997 29.3517 27.7997Z" fill="white"/>
<path d="M35.7152 30.2036C35.3565 30.2036 35.0561 29.9495 34.9978 29.6049L33.8719 22.5892C33.8136 22.2526 34.0136 21.9244 34.3391 21.8097C35.4982 21.4157 36.7744 21.4978 37.8671 22.0392C38.9429 22.7366 39.6267 23.8774 39.7267 25.1409C40.0186 26.3881 39.7267 27.701 38.9429 28.7186C38.1088 29.6049 36.9578 30.1383 35.7318 30.2036H35.7152ZM35.4067 23.0158L36.3157 28.6776C36.8995 28.5462 37.4331 28.2427 37.8335 27.7997C38.3424 27.0939 38.5092 26.1996 38.3007 25.3544C38.2505 24.5175 37.8254 23.7543 37.1331 23.262C36.5991 22.9995 35.9905 22.9091 35.4067 23.0158Z" fill="white"/>
<path d="M37.1919 18.7974C36.9834 18.7974 36.7834 18.7073 36.6498 18.5512L23.5304 3.7486C23.4138 3.61719 23.3555 3.45308 23.3555 3.28095C23.3555 2.88703 23.6806 2.56714 24.081 2.56714C24.3227 2.56714 24.5479 2.69022 24.6899 2.88703L37.7425 17.6242C37.9259 17.8374 37.9758 18.1329 37.8591 18.3871C37.734 18.6416 37.4753 18.7974 37.1919 18.7974Z" fill="#CB9080"/>
<path d="M6.07334 24.5004C5.80651 24.5004 5.56477 24.353 5.4312 24.1231C5.30609 23.8933 5.32271 23.6061 5.4729 23.3927L19.2344 3.31385C19.4595 2.99396 19.9016 2.91191 20.2352 3.13339C20.5607 3.34687 20.6522 3.78983 20.4356 4.10972L6.6741 24.1889C6.54052 24.3773 6.3154 24.5004 6.07334 24.5004Z" fill="#CB9080"/>
<path d="M21.9956 6.69449C20.3943 6.69449 19.1016 5.42264 19.1016 3.84725C19.1016 2.27185 20.3943 1 21.9956 1C23.5969 1 24.8896 2.27185 24.8896 3.84725C24.8896 4.60209 24.5811 5.32424 24.039 5.8576C23.4968 6.39929 22.7628 6.69449 21.9956 6.69449Z" fill="#A5A5A4"/>
</svg>
