<svg width="22" height="23" viewBox="0 0 22 23" fill="none" xmlns="http://www.w3.org/2000/svg">
<g clip-path="url(#clip0)">
<path d="M12.6364 5.66083L9.36364 5.66083M18.3636 11.2672V13.9217C18.3636 17.0371 18.3636 18.5948 17.4051 19.5626C16.4465 20.5304 14.9037 20.5304 11.8182 20.5304H10.1818C7.09626 20.5304 5.55348 20.5304 4.59492 19.5626C3.63636 18.5948 3.63636 17.0371 3.63636 13.9217V11.2672M6.48362 1.5304H15.5164C16.0992 1.5304 16.3906 1.5304 16.6282 1.60092C17.186 1.76653 17.6224 2.20531 17.787 2.76634C17.8572 3.00527 17.8572 3.29833 17.8572 3.88444C17.8572 4.06037 17.8572 4.14845 17.8658 4.23455C17.8858 4.43425 17.9403 4.62892 18.0269 4.80976C18.0642 4.88775 18.1099 4.96281 18.2012 5.11294L18.3219 5.3113C19.5066 7.25882 20 7.99542 20 8.85743C20 10.2856 18.8487 11.4434 17.4286 11.4434C16.4369 11.4434 15.5764 10.8789 15.1473 10.052C14.8409 10.8653 14.059 11.4434 13.1429 11.4434C11.9594 11.4434 11 10.4786 11 9.28843C11 10.4786 10.0406 11.4434 8.85713 11.4434C7.941 11.4434 7.15914 10.8653 6.85266 10.052C6.42364 10.8789 5.56308 11.4434 4.57142 11.4434C3.15125 11.4434 2 10.2856 2 8.85743C2 7.99542 2.49342 7.25882 3.67815 5.3113L3.79882 5.11294C3.89014 4.96281 3.93581 4.88775 3.97314 4.80976C4.05972 4.62892 4.11424 4.43425 4.13422 4.23455C4.14284 4.14843 4.14284 4.06043 4.14284 3.88444C4.14284 3.29833 4.14284 3.00527 4.21297 2.76634C4.37764 2.20531 4.81395 1.76653 5.37182 1.60092C5.60941 1.5304 5.90081 1.5304 6.48362 1.5304Z" stroke="#313038" stroke-width="2" stroke-linecap="round" stroke-linejoin="round"/>
</g>
<defs>
<clipPath id="clip0">
<rect width="22" height="22" fill="white" transform="translate(0 0.0303955)"/>
</clipPath>
</defs>
</svg>
