<svg width="44" height="44" viewBox="0 0 44 44" fill="none" xmlns="http://www.w3.org/2000/svg">
<path fill-rule="evenodd" clip-rule="evenodd" d="M41 26.1468C35.6185 26.1468 35.6185 17.8514 41 17.8514C41 8.24003 41 4.80957 22 4.80957C3 4.80957 3 8.24003 3 17.8514C8.38148 17.8514 8.38148 26.1468 3 26.1468C3 35.7601 3 39.1905 22 39.1905C41 39.1905 41 35.7601 41 26.1468Z" stroke="black" stroke-width="4" stroke-linecap="round" stroke-linejoin="round"/>
<path d="M20 20L24 24M20 28C20 30.2091 18.2091 32 16 32C13.7909 32 12 30.2091 12 28C12 25.7909 13.7909 24 16 24C18.2091 24 20 25.7909 20 28ZM32 16C32 18.2091 30.2091 20 28 20C25.7909 20 24 18.2091 24 16C24 13.7909 25.7909 12 28 12C30.2091 12 32 13.7909 32 16Z" stroke="black" stroke-width="3" stroke-linecap="round" stroke-linejoin="round"/>
</svg>
