<svg width="126" height="120" viewBox="0 0 126 120" fill="none" xmlns="http://www.w3.org/2000/svg">
<path fill-rule="evenodd" clip-rule="evenodd" d="M8 0C3.58172 0 0 3.58172 0 8V73C3.86599 73 7 76.134 7 80C7 83.866 3.86599 87 0 87V112C0 116.418 3.58172 120 8 120H118C122.418 120 126 116.418 126 112V87C122.134 87 119 83.866 119 80C119 76.134 122.134 73 126 73V8C126 3.58172 122.418 0 118 0H8ZM12.625 79.3C12.2384 79.3 11.925 79.6134 11.925 80C11.925 80.3866 12.2384 80.7 12.625 80.7H20.375C20.7616 80.7 21.075 80.3866 21.075 80C21.075 79.6134 20.7616 79.3 20.375 79.3H12.625ZM28.125 79.3C27.7384 79.3 27.425 79.6134 27.425 80C27.425 80.3866 27.7384 80.7 28.125 80.7H35.875C36.2616 80.7 36.575 80.3866 36.575 80C36.575 79.6134 36.2616 79.3 35.875 79.3H28.125ZM43.625 79.3C43.2384 79.3 42.925 79.6134 42.925 80C42.925 80.3866 43.2384 80.7 43.625 80.7H51.375C51.7616 80.7 52.075 80.3866 52.075 80C52.075 79.6134 51.7616 79.3 51.375 79.3H43.625ZM59.125 79.3C58.7384 79.3 58.425 79.6134 58.425 80C58.425 80.3866 58.7384 80.7 59.125 80.7H66.875C67.2616 80.7 67.575 80.3866 67.575 80C67.575 79.6134 67.2616 79.3 66.875 79.3H59.125ZM74.625 79.3C74.2384 79.3 73.925 79.6134 73.925 80C73.925 80.3866 74.2384 80.7 74.625 80.7H82.375C82.7616 80.7 83.075 80.3866 83.075 80C83.075 79.6134 82.7616 79.3 82.375 79.3H74.625ZM90.125 79.3C89.7384 79.3 89.425 79.6134 89.425 80C89.425 80.3866 89.7384 80.7 90.125 80.7H97.875C98.2616 80.7 98.575 80.3866 98.575 80C98.575 79.6134 98.2616 79.3 97.875 79.3H90.125ZM105.625 79.3C105.238 79.3 104.925 79.6134 104.925 80C104.925 80.3866 105.238 80.7 105.625 80.7H113.375C113.762 80.7 114.075 80.3866 114.075 80C114.075 79.6134 113.762 79.3 113.375 79.3H105.625Z" fill="#5A88FF"/>
</svg>
