<svg width="44" height="44" viewBox="0 0 44 44" fill="none" xmlns="http://www.w3.org/2000/svg">
<path d="M24.61 7.89487C25.776 6.72885 26.359 6.14584 27.0342 5.90125C27.9345 5.57514 28.9723 5.63858 29.9193 6.07764C30.6296 6.40693 31.2885 7.06587 32.6064 8.38375C33.9243 9.70164 34.5832 10.3606 34.9125 11.0709C35.3516 12.0179 35.415 13.0557 35.0889 13.9559C34.8443 14.6311 34.2613 15.2141 33.0953 16.3801L20.7514 28.7241C20.4344 29.041 20.2759 29.1995 20.0987 29.3327C19.8624 29.5103 19.6011 29.6547 19.3208 29.7625C19.1106 29.8434 18.8857 29.8968 18.4358 30.0035C15.6158 30.6726 14.2058 31.0071 13.1876 30.6902C11.8301 30.2676 10.7226 29.16 10.3 27.8025C9.98308 26.7844 10.3176 25.3744 10.9866 22.5543C11.0934 22.1045 11.1467 21.8796 11.2276 21.6694C11.3355 21.389 11.4799 21.1277 11.6574 20.8915C11.7906 20.7143 11.9491 20.5558 12.2661 20.2388L24.61 7.89487Z" stroke="black" stroke-width="4" stroke-linecap="round" stroke-linejoin="round"/>
<path d="M14 40H30" stroke="#5A88FF" stroke-width="4" stroke-linecap="round" stroke-linejoin="round"/>
</svg>
