<svg width="22" height="22" viewBox="0 0 22 22" fill="none" xmlns="http://www.w3.org/2000/svg">
<path d="M16.1818 11.0002C13.797 11.0002 11.8636 12.903 11.8636 15.2502C11.8636 17.5975 13.797 19.5002 16.1818 19.5002C18.5667 19.5002 20.5 17.5975 20.5 15.2502C20.5 12.903 18.5667 11.0002 16.1818 11.0002ZM16.1818 11.0002V6.75024M5.81818 11.0002C8.20305 11.0002 10.1364 9.09745 10.1364 6.75024C10.1364 4.40303 8.20305 2.50024 5.81818 2.50024C3.43332 2.50024 1.5 4.40303 1.5 6.75024C1.5 9.09745 3.43332 11.0002 5.81818 11.0002ZM5.81818 11.0002V15.2502" stroke="#5A88FF" stroke-width="2" stroke-linecap="round" stroke-linejoin="round"/>
</svg>
