<svg width="44" height="44" viewBox="0 0 44 44" fill="none" xmlns="http://www.w3.org/2000/svg">
<path d="M32.3636 22C27.5939 22 23.7273 25.8056 23.7273 30.5C23.7273 35.1944 27.5939 39 32.3636 39C37.1334 39 41 35.1944 41 30.5C41 25.8056 37.1334 22 32.3636 22ZM32.3636 22V13.5M11.6364 22C16.4061 22 20.2727 18.1944 20.2727 13.5C20.2727 8.80558 16.4061 5 11.6364 5C6.86663 5 3 8.80558 3 13.5C3 18.1944 6.86663 22 11.6364 22ZM11.6364 22V30.5" stroke="white" stroke-width="4" stroke-linecap="round" stroke-linejoin="round"/>
</svg>
