<svg width="24" height="24" viewBox="0 0 24 24" fill="none" xmlns="http://www.w3.org/2000/svg">
<g clip-path="url(#clip0)">
<path d="M12 24.0015C18.6274 24.0015 24 18.6289 24 12.0015C24 5.37405 18.6274 0.00146484 12 0.00146484C5.37258 0.00146484 0 5.37405 0 12.0015C0 18.6289 5.37258 24.0015 12 24.0015Z" fill="#1977F3"/>
<path d="M16.6717 15.4712L17.2033 12.0017H13.8755V9.75055C13.8755 8.80216 14.3396 7.87571 15.8313 7.87571H17.345V4.92255C17.345 4.92255 15.9714 4.68799 14.6585 4.68799C11.918 4.68799 10.1258 6.34851 10.1258 9.35736V12.0017H7.07812V15.4712H10.1258V23.8565C10.7367 23.9527 11.3628 24.0017 12.0006 24.0017C12.6385 24.0017 13.2646 23.951 13.8755 23.8565V15.4712H16.6717Z" fill="white"/>
</g>
<defs>
<clipPath id="clip0">
<rect width="24" height="24" fill="white"/>
</clipPath>
</defs>
</svg>
