<svg width="44" height="44" viewBox="0 0 44 44" fill="none" xmlns="http://www.w3.org/2000/svg">
<path d="M25.2727 11.2609L18.7273 11.2609M36.7273 22.4735V27.7826C36.7273 34.0133 36.7273 37.1287 34.8101 39.0644C32.893 41 29.8075 41 23.6364 41H20.3636C14.1925 41 11.107 41 9.18985 39.0644C7.27273 37.1287 7.27273 34.0133 7.27273 27.7826V22.4735M12.9672 3H31.0328C32.1984 3 32.7812 3 33.2564 3.14106C34.3721 3.47226 35.2447 4.34983 35.574 5.47188C35.7143 5.94976 35.7143 6.53587 35.7143 7.70809C35.7143 8.05995 35.7143 8.2361 35.7315 8.4083C35.7715 8.80772 35.8806 9.19704 36.0537 9.55874C36.1284 9.7147 36.2197 9.86483 36.4024 10.1651L36.6437 10.5618C39.0132 14.4568 40 15.9301 40 17.6541C40 20.5105 37.6975 22.8261 34.8572 22.8261C32.8738 22.8261 31.1527 21.697 30.2947 20.0431C29.6817 21.6698 28.118 22.8261 26.2857 22.8261C23.9188 22.8261 22 20.8964 22 18.5161C22 20.8964 20.0812 22.8261 17.7143 22.8261C15.882 22.8261 14.3183 21.6698 13.7053 20.0431C12.8473 21.697 11.1262 22.8261 9.14283 22.8261C6.30251 22.8261 4 20.5105 4 17.6541C4 15.9301 4.98683 14.4568 7.3563 10.5618L7.59763 10.1651C7.78029 9.86483 7.87161 9.7147 7.94628 9.55874C8.11944 9.19704 8.22847 8.80772 8.26845 8.4083C8.28569 8.23607 8.28569 8.06008 8.28569 7.70809C8.28569 6.53587 8.28569 5.94976 8.42595 5.47188C8.75529 4.34983 9.6279 3.47226 10.7436 3.14106C11.2188 3 11.8016 3 12.9672 3Z" stroke="black" stroke-width="4" stroke-linecap="round" stroke-linejoin="round"/>
</svg>
