<svg width="22" height="22" viewBox="0 0 22 22" fill="none" xmlns="http://www.w3.org/2000/svg">
<path d="M14.5335 7.01613V11.5323H16.5335V7.01613H14.5335ZM7.4668 11.5323V7.01613H5.4668V11.5323H7.4668ZM11.0001 15.0484C9.04514 15.0484 7.4668 13.4706 7.4668 11.5323H5.4668C5.4668 14.5823 7.94774 17.0484 11.0001 17.0484V15.0484ZM14.5335 11.5323C14.5335 13.4706 12.9551 15.0484 11.0001 15.0484V17.0484C14.0525 17.0484 16.5335 14.5823 16.5335 11.5323H14.5335ZM11.0001 3.5C12.9551 3.5 14.5335 5.07781 14.5335 7.01613H16.5335C16.5335 3.96607 14.0525 1.5 11.0001 1.5V3.5ZM11.0001 1.5C7.94774 1.5 5.4668 3.96607 5.4668 7.01613H7.4668C7.4668 5.07781 9.04514 3.5 11.0001 3.5V1.5Z" fill="#5A88FF"/>
<path d="M2.5 11.6828V10.6828H1.5V11.6828H2.5ZM19.5 11.6828H20.5V10.6828H19.5V11.6828ZM1.5 11.6828C1.5 16.8489 5.7739 21 11 21V19C6.83726 19 3.5 15.7036 3.5 11.6828H1.5ZM18.5 11.6828C18.5 15.7036 15.1627 19 11 19V21C16.2261 21 20.5 16.8489 20.5 11.6828H18.5ZM19.5 10.6828H17.2333V12.6828H19.5V10.6828ZM4.76667 10.6828H2.5V12.6828H4.76667V10.6828Z" fill="#5A88FF"/>
<path d="M11 12.5C11.5523 12.5 12 12.0523 12 11.5C12 10.9477 11.5523 10.5 11 10.5C10.4477 10.5 10 10.9477 10 11.5C10 12.0523 10.4477 12.5 11 12.5Z" fill="#5A88FF"/>
<path d="M11 8C11.5523 8 12 7.55228 12 7C12 6.44772 11.5523 6 11 6C10.4477 6 10 6.44772 10 7C10 7.55228 10.4477 8 11 8Z" fill="#5A88FF"/>
</svg>
