<svg width="44" height="44" viewBox="0 0 44 44" fill="none" xmlns="http://www.w3.org/2000/svg">
<path d="M37 11.697V11.5008H36.9853C36.8975 9.08118 35.4341 6.67787 32.5732 4.8386C26.7049 1.0538 17.1927 1.0538 11.361 4.8386C8.44149 6.73509 6.99271 9.22015 7.00003 11.7052V16.8306V16.9206V21.9561V22.046V27.0815V27.1714V32.2968C7.01466 34.7819 8.49271 37.2669 11.4268 39.1553C14.3683 41.0518 18.2098 42 22.0439 42C25.8854 42 29.7122 41.0518 32.639 39.1553C35.5585 37.2588 37.0073 34.7737 37 32.2968V27.1714V26.8853V22.046V21.7435V16.9042V16.6181V11.697ZM14.4122 8.62341L15.2244 8.10024C15.4293 7.96945 15.7512 7.96945 15.9634 8.10024L16.9659 8.74603C17.1854 8.59889 17.4122 8.45992 17.6317 8.31278L16.6293 7.66699C16.4244 7.5362 16.4244 7.32366 16.6293 7.19287L17.4415 6.6697C17.6464 6.53891 17.9756 6.53891 18.1805 6.6697L19.461 7.49533L19.6293 7.4381C21.0634 6.94763 22.5854 6.72692 24.2098 6.85771C25.4829 6.96398 26.6244 7.29914 27.6707 7.78961C28.0805 7.97762 28.461 8.19016 28.8049 8.41087C29.7122 8.99944 30.4073 9.6861 30.9488 10.4627L31.0585 10.6752C31.1829 10.9613 31.0366 11.1575 30.6049 11.272C30.1512 11.4027 29.6902 11.5172 29.2293 11.6316C28.9073 11.7052 28.6805 11.6889 28.4829 11.5581C28.4317 11.5254 28.3878 11.4845 28.3366 11.4436C28.0293 11.1248 27.7512 10.7815 27.4219 10.4709C27.1293 10.1847 26.8073 9.91498 26.4415 9.67792C25.9585 9.36729 25.4024 9.10571 24.7366 8.92587C23.7415 8.64793 22.7683 8.71333 21.7878 8.96674L21.7512 8.97491L24.2317 10.5771C24.4366 10.7079 24.4366 10.9205 24.2317 11.0512L23.4195 11.5744C23.2146 11.7052 22.8854 11.7052 22.6805 11.5744L19.8342 9.74332C19.622 9.88229 19.3951 10.0294 19.1683 10.1766L22.0146 12.0077C22.2195 12.1385 22.2195 12.351 22.0146 12.4818L21.2024 13.005C20.9976 13.1357 20.6756 13.1357 20.4634 13.005L17.8659 11.3292C17.2878 12.1139 17.1049 12.8905 17.7561 13.6998C18.0342 14.0431 18.3927 14.3456 18.8098 14.6153C19.1756 14.8524 19.5781 15.0568 20.0098 15.2448C20.4927 15.441 21.0049 15.6208 21.5024 15.8252C21.5829 15.8579 21.6488 15.8906 21.7073 15.9314C21.9049 16.0622 21.9341 16.2094 21.8171 16.4137C21.6488 16.7244 21.4585 17.0268 21.2537 17.3211C21.0854 17.5909 20.7707 17.689 20.3171 17.5909C19.8634 17.4764 19.4171 17.3375 18.9781 17.1821C18.1732 16.8879 17.4488 16.5445 16.8195 16.1358C16.161 15.7107 15.6049 15.2203 15.1586 14.6644C14.1122 13.3401 14.1342 11.9913 14.9903 10.6343C15.1585 10.3646 15.3927 10.1275 15.5976 9.87411L14.3829 9.08936C14.2073 8.96674 14.2073 8.7542 14.4122 8.62341ZM11.4268 18.5636C17.3024 22.3566 26.8 22.3566 32.639 18.5636C33.5463 17.9751 34.3 17.3211 34.9219 16.6344V16.9206C34.9292 18.6209 33.7146 20.3947 31.5927 21.768C29.0756 23.403 25.6878 24.3022 22.0439 24.3022C18.4 24.3022 14.9903 23.403 12.4586 21.768C10.3147 20.3866 9.07807 18.6045 9.06344 16.9124V16.5772C9.71466 17.2802 10.4903 17.9587 11.4268 18.5636ZM31.6 32.0107C29.0829 33.6456 25.6951 34.5448 22.0512 34.5448C18.4073 34.5448 14.9976 33.6456 12.4659 32.0107C10.322 30.6292 9.08539 28.8472 9.07076 27.1551V26.9098C9.71466 27.621 10.4829 28.2913 11.4268 28.8962C14.3683 30.7927 18.2098 31.741 22.0439 31.741C25.8854 31.741 29.7122 30.7927 32.639 28.8962C33.5463 28.3077 34.3 27.6537 34.9219 26.967V27.1714C34.9366 28.8717 33.7219 30.6374 31.6 32.0107ZM31.6 26.8935C29.0829 28.5284 25.6951 29.4276 22.0512 29.4276C18.4073 29.4276 14.9976 28.5284 12.4659 26.8935C10.322 25.512 9.08539 23.7299 9.07076 22.0378V21.7926C9.71466 22.5038 10.4829 23.1741 11.4268 23.779C14.3683 25.6755 18.2098 26.6237 22.0439 26.6237C25.8854 26.6237 29.7122 25.6755 32.639 23.779C33.5463 23.1904 34.3 22.5365 34.9219 21.8498V22.0542C34.9366 23.7463 33.7219 25.512 31.6 26.8935ZM31.6 37.1362C29.0829 38.7711 25.6951 39.6703 22.0512 39.6703C18.4073 39.6703 14.9976 38.7711 12.4659 37.1362C10.322 35.7547 9.08539 33.9726 9.07076 32.2805V32.0353C9.71466 32.7464 10.4829 33.4167 11.4268 34.0217C14.3683 35.9182 18.2098 36.8664 22.0439 36.8664C25.8854 36.8664 29.7122 35.9182 32.639 34.0217C33.5463 33.4331 34.3 32.7791 34.9219 32.0925V32.2968C34.9366 33.989 33.7219 35.7628 31.6 37.1362Z" fill="#5A88FF"/>
</svg>
