<svg width="44" height="44" viewBox="0 0 44 44" fill="none" xmlns="http://www.w3.org/2000/svg">
<path d="M15.5 18.5V10M39.5 26C39.5 27.6356 37.6152 29.0878 34.7012 30C33.8767 30.2581 32.9699 30.473 32 30.6366M39.5 18C39.5 19.6356 37.6152 21.0878 34.7012 22C32.6954 22.6279 30.202 23 27.5 23M39.5 10C39.5 7.23858 34.1274 5 27.5 5C20.8726 5 15.5 7.23858 15.5 10M39.5 10C39.5 11.6356 37.6152 13.0878 34.7012 14C32.6954 14.6279 30.202 15 27.5 15C24.798 15 22.3046 14.6279 20.2988 14C17.3848 13.0878 15.5 11.6356 15.5 10M39.5 10V34C39.5 36.5498 34.9195 38.6538 29 38.9613M4.5 29C4.5 26.7909 8.52944 25 13.5 25C18.4706 25 22.5 26.7909 22.5 29M4.5 29C4.5 30.1947 5.67845 31.2671 7.5469 32C9.13344 32.6224 11.2175 33 13.5 33C15.7825 33 17.8666 32.6224 19.4531 32C21.3216 31.2671 22.5 30.1947 22.5 29M4.5 29V35C4.5 37.2091 8.52944 39 13.5 39C18.4706 39 22.5 37.2091 22.5 35V29" stroke="black" stroke-width="4" stroke-linecap="round" stroke-linejoin="round"/>
</svg>
