<svg width="19" height="19" viewBox="0 0 19 19" fill="none" xmlns="http://www.w3.org/2000/svg">
<path d="M9.49964 16.3181C5.73407 16.3181 2.68146 13.2655 2.68146 9.49989M9.49964 16.3181V18.1363M9.49964 16.3181C10.2453 16.3181 10.963 16.1984 11.6345 15.9772M2.68146 9.49989H0.863281M2.68146 9.49989C2.68146 8.82475 2.77959 8.17253 2.96237 7.55671M9.49964 2.68171C13.2652 2.68171 16.3178 5.73431 16.3178 9.49989M9.49964 2.68171V0.863525M9.49964 2.68171C7.6528 2.68171 5.97746 3.416 4.74964 4.60855M16.3178 9.49989H18.136M16.3178 9.49989C16.3178 11.3467 15.5835 13.0221 14.391 14.2499M1.72692 1.72716L17.2724 17.2726" stroke="#EC5176" stroke-width="1.72727" stroke-linecap="round" stroke-linejoin="round"/>
</svg>
