<svg width="44" height="44" viewBox="0 0 44 44" fill="none" xmlns="http://www.w3.org/2000/svg">
<path d="M13 20C13 21.1046 12.1046 22 11 22C9.89543 22 9 21.1046 9 20C9 18.8954 9.89543 18 11 18C12.1046 18 13 18.8954 13 20Z" fill="black"/>
<path d="M40 4H42C42 3.03307 41.3083 2.20462 40.3568 2.03209C39.4054 1.85957 38.4669 2.39239 38.1273 3.29775L40 4ZM20 28C20 26.8954 19.1046 26 18 26C16.8954 26 16 26.8954 16 28H20ZM13 28C13 26.8954 12.1046 26 11 26C9.89543 26 9 26.8954 9 28H13ZM40 36L38.1273 36.7022C38.4669 37.6076 39.4054 38.1404 40.3568 37.9679C41.3083 37.7954 42 36.9669 42 36H40ZM12 14H21.6002V10H12V14ZM21.6002 26H12V30H21.6002V26ZM2 20C2 25.5228 6.47715 30 12 30V26C8.68629 26 6 23.3137 6 20H2ZM6 20C6 16.6863 8.68629 14 12 14V10C6.47715 10 2 14.4771 2 20H6ZM38 4V20H42V4H38ZM16 28V36.5H20V28H16ZM13 36.5V28H9V36.5H13ZM14.5 38C13.6716 38 13 37.3284 13 36.5H9C9 39.5376 11.4624 42 14.5 42V38ZM16 36.5C16 37.3284 15.3284 38 14.5 38V42C17.5376 42 20 39.5376 20 36.5H16ZM19.6002 12V28H23.6002V12H19.6002ZM21.6002 14C29.6632 14 34.7007 11.8986 37.7726 9.60179C39.2972 8.46191 40.2995 7.30178 40.9323 6.39232C41.2481 5.93848 41.471 5.54843 41.6209 5.25593C41.6959 5.10965 41.7526 4.98764 41.7937 4.89404C41.8143 4.84724 41.8309 4.80751 41.844 4.77538C41.8505 4.75932 41.8561 4.74515 41.8609 4.73294C41.8633 4.72683 41.8655 4.72122 41.8674 4.7161C41.8684 4.71354 41.8693 4.71111 41.8702 4.7088C41.8706 4.70764 41.8712 4.706 41.8715 4.70543C41.8721 4.70382 41.8727 4.70225 40 4C38.1273 3.29775 38.1279 3.29624 38.1285 3.29476C38.1286 3.2943 38.1292 3.29284 38.1295 3.29193C38.1302 3.29011 38.1309 3.2884 38.1315 3.28681C38.1327 3.28363 38.1338 3.28092 38.1346 3.27866C38.1364 3.27414 38.1375 3.27145 38.1379 3.27052C38.1386 3.26866 38.1365 3.27386 38.1314 3.28565C38.121 3.30924 38.0983 3.3591 38.0611 3.43157C37.9868 3.57657 37.855 3.81152 37.649 4.10768C37.238 4.69822 36.5278 5.53809 35.3774 6.39821C33.0994 8.10143 28.937 10 21.6002 10V14ZM42 36V20H38V36H42ZM21.6002 30C28.937 30 33.0994 31.8986 35.3774 33.6018C36.5278 34.4619 37.238 35.3018 37.649 35.8923C37.855 36.1885 37.9868 36.4234 38.0611 36.5684C38.0983 36.6409 38.121 36.6908 38.1314 36.7143C38.1365 36.7261 38.1386 36.7313 38.1379 36.7295C38.1375 36.7285 38.1364 36.7259 38.1346 36.7213C38.1338 36.7191 38.1327 36.7164 38.1315 36.7132C38.1309 36.7116 38.1302 36.7099 38.1295 36.7081C38.1292 36.7071 38.1286 36.7057 38.1285 36.7052C38.1279 36.7038 38.1273 36.7022 40 36C41.8727 35.2977 41.8721 35.2962 41.8715 35.2946C41.8712 35.294 41.8706 35.2924 41.8702 35.2912C41.8693 35.2889 41.8684 35.2865 41.8674 35.2839C41.8655 35.2788 41.8633 35.2732 41.8609 35.2671C41.8561 35.2548 41.8505 35.2407 41.844 35.2246C41.8309 35.1925 41.8143 35.1528 41.7937 35.106C41.7526 35.0124 41.6959 34.8903 41.6209 34.7441C41.471 34.4516 41.2481 34.0615 40.9323 33.6077C40.2995 32.6982 39.2972 31.5381 37.7726 30.3982C34.7007 28.1014 29.6632 26 21.6002 26V30Z" fill="black"/>
</svg>
