<svg width="22" height="23" viewBox="0 0 22 23" fill="none" xmlns="http://www.w3.org/2000/svg">
<g clip-path="url(#clip0)">
<circle opacity="0.1" cx="14.25" cy="14.2812" r="7.75" fill="#5A88FF"/>
<circle opacity="0.24" cx="12" cy="12.0312" r="5" fill="#5A88FF"/>
<path d="M9.20613 9.23585C7.19962 11.2423 6.74656 13.2488 6.64435 14.0527C6.61579 14.275 6.69229 14.4979 6.85131 14.6558L8.47508 16.2789C8.71393 16.5176 8.75632 16.8896 8.57729 17.1759L5.99195 21.1903C5.79388 21.5074 5.38718 21.6218 5.05285 21.4546L0.90246 19.4999C0.632095 19.3668 0.473071 19.0795 0.503768 18.7797C0.721236 16.7138 1.62192 11.6352 6.61282 6.64401C11.6037 1.65279 16.6816 0.752485 18.7487 0.535019C19.0485 0.504322 19.3357 0.663343 19.4688 0.933704L21.4235 5.08405C21.5901 5.41766 21.4765 5.82326 21.1607 6.02169L17.1463 8.60628C16.8601 8.7855 16.4881 8.74342 16.2492 8.5048L14.6262 6.88105C14.4683 6.72203 14.2453 6.64553 14.0231 6.67409C13.2192 6.7763 11.2126 7.22936 9.20613 9.23585Z" fill="#5A88FF"/>
</g>
<defs>
<clipPath id="clip0">
<rect width="22" height="22" fill="white" transform="translate(0 0.03125)"/>
</clipPath>
</defs>
</svg>
