<svg width="44" height="44" viewBox="0 0 44 44" fill="none" xmlns="http://www.w3.org/2000/svg">
<path d="M3.00007 16.148C2.99469 15.7506 3.29388 15.4195 3.89227 14.7573L11.1984 6.6722C11.4975 6.34116 11.6471 6.17565 11.8451 6.08782C12.0431 6 12.2667 6 12.7138 6H31.2862C31.7333 6 31.9569 6 32.1549 6.08782C32.3529 6.17565 32.5025 6.34116 32.8016 6.6722L40.1077 14.7573C40.7061 15.4195 41.0053 15.7506 40.9999 16.148M3.00007 16.148C3.00545 16.5454 3.31349 16.8684 3.92956 17.5142L20.5218 37.9092C21.2155 38.6364 21.5624 39 22 39C22.4376 39 22.7845 38.6364 23.4782 37.9092L40.0704 17.5142C40.6865 16.8684 40.9946 16.5454 40.9999 16.148M3.00007 16.148H40.9999M18.9418 6L14.259 15.3277C14.055 15.7339 13.9531 15.937 13.9449 16.1567C13.9367 16.3763 14.0232 16.5864 14.1963 17.0065L20.1156 33.6521C20.9014 35.8618 21.2943 36.9666 22 36.9666C22.7057 36.9666 23.0986 35.8618 23.8844 33.6521L29.8037 17.0065C29.9768 16.5864 30.0633 16.3763 30.0551 16.1567C30.0469 15.937 29.945 15.7339 29.741 15.3277L25.0583 6" stroke="white" stroke-width="4" stroke-linecap="round" stroke-linejoin="round"/>
</svg>
