<svg width="44" height="44" viewBox="0 0 44 44" fill="none" xmlns="http://www.w3.org/2000/svg">
<path d="M15 25H16M15 31.5H16M23 25H24M23 31.5H24" stroke="black" stroke-width="4" stroke-linecap="round" stroke-linejoin="round"/>
<path d="M12.5276 11.4521C13.5565 11.0503 14.0648 9.89042 13.663 8.86154C13.2611 7.83266 12.1013 7.32434 11.0724 7.72619L12.5276 11.4521ZM28.209 7.65514C27.1746 7.26787 26.022 7.79252 25.6348 8.82698C25.2475 9.86143 25.7721 11.014 26.8066 11.4012L28.209 7.65514ZM17.0208 15.3198L17.1381 13.3233H17.1381L17.0208 15.3198ZM22.2138 15.2804L22.3592 17.2751L22.2138 15.2804ZM26.4574 13.8112L24.8597 12.6081L24.8597 12.6081L26.4574 13.8112ZM25.8926 14.3949L27.1499 15.9503L27.1499 15.9503L25.8926 14.3949ZM38.9998 14.8686L40.9997 14.8895V14.8895L38.9998 14.8686ZM34.8396 15.8916C33.8646 15.3727 32.6534 15.7424 32.1345 16.7175C31.6155 17.6926 31.9853 18.9037 32.9604 19.4227L34.8396 15.8916ZM33.9787 17.6989L33.0564 19.4735L33.0565 19.4735L33.9787 17.6989ZM32.4667 24.7143C32.4667 30.7423 31.529 34.1408 29.7608 36.0955C28.0475 37.9895 25.1084 39 19.7341 39V43C25.4096 43 29.8367 41.9743 32.7273 38.7788C35.563 35.644 36.4667 30.8997 36.4667 24.7143H32.4667ZM19.7341 39C14.359 39 11.4194 37.9895 9.70595 36.0954C7.9377 34.1408 7 30.7423 7 24.7143H3C3 30.8997 3.90368 35.644 6.73964 38.7789C9.63038 41.9743 14.0579 43 19.7341 43V39ZM7 24.7143C7 20.499 7.45626 17.5317 8.36961 15.4491C9.23597 13.4735 10.5388 12.2288 12.5276 11.4521L11.0724 7.72619C8.09582 8.88873 5.9987 10.8958 4.70639 13.8426C3.46108 16.6822 3 20.3079 3 24.7143H7ZM26.8066 11.4012C28.8557 12.1684 30.186 13.4105 31.0683 15.3839C32.0003 17.4686 32.4667 20.4531 32.4667 24.7143H36.4667C36.4667 20.2621 35.996 16.6054 34.7199 13.7513C33.3941 10.7859 31.2449 8.79167 28.209 7.65514L26.8066 11.4012ZM37 9.84329V14.7824H41V9.84329H37ZM32.2472 5C34.8471 5 37 7.14323 37 9.84329H41C41 4.98447 37.1063 1 32.2472 1V5ZM32.2472 1C29.7361 1 27.8122 2.08222 26.6079 3.89959C25.4832 5.59678 25.1 7.75497 25.1 9.84329H29.1C29.1 8.15217 29.4256 6.88871 29.9422 6.10912C30.3792 5.4497 31.0289 5 32.2472 5V1ZM13.8 9.51772V9.22117H9.8V9.51772H13.8ZM18.5528 1C13.8763 1 9.8 4.52951 9.8 9.22117H13.8C13.8 7.04112 15.7703 5 18.5528 5V1ZM18.5528 5H32.2472V1H18.5528V5ZM16.9035 17.3164C18.7008 17.422 20.5552 17.4066 22.3592 17.2751L22.0685 13.2857C20.4354 13.4047 18.7566 13.4184 17.1381 13.3233L16.9035 17.3164ZM25.1 9.84329C25.1 10.9319 25.0962 11.5616 25.0359 12.0312C24.9849 12.4285 24.9117 12.539 24.8597 12.6081L28.055 15.0143C28.6457 14.23 28.8937 13.3947 29.0034 12.5405C29.1038 11.7586 29.1 10.831 29.1 9.84329H25.1ZM22.3592 17.2751C24.0472 17.1521 25.7229 17.1038 27.1499 15.9503L24.6353 12.8395C24.5181 12.9343 24.3862 13.0111 24.044 13.0817C23.6233 13.1685 23.0644 13.2131 22.0685 13.2857L22.3592 17.2751ZM24.8597 12.6081C24.8136 12.6693 24.6996 12.7876 24.6353 12.8395L27.1499 15.9503C27.4664 15.6945 27.8096 15.3401 28.055 15.0143L24.8597 12.6081ZM9.8 9.51772C9.8 10.6963 9.7944 11.8091 9.93944 12.7365C10.1003 13.7654 10.4663 14.7371 11.2962 15.5823L14.1505 12.78C14.057 12.6848 13.9613 12.5657 13.8914 12.1185C13.8056 11.5698 13.8 10.8211 13.8 9.51772H9.8ZM17.1381 13.3233C15.9516 13.2536 15.294 13.2091 14.8086 13.1012C14.4304 13.0172 14.2903 12.9224 14.1505 12.78L11.2962 15.5823C12.8687 17.184 14.9074 17.1991 16.9035 17.3164L17.1381 13.3233ZM37 14.7824C37 14.8063 37 14.8219 37 14.8337C37 14.8457 36.9999 14.8486 36.9999 14.8477L40.9997 14.8895C41 14.8598 41 14.8227 41 14.7824H37ZM32.9604 19.4227C32.9977 19.4425 33.0304 19.46 33.0564 19.4735L34.901 15.9242C34.9011 15.9242 34.8979 15.9226 34.8867 15.9167C34.8758 15.9109 34.8614 15.9032 34.8396 15.8916L32.9604 19.4227ZM36.9999 14.8476C36.9913 15.6734 35.9541 16.4715 34.901 15.9242L33.0565 19.4735C36.5079 21.2672 40.9569 18.9728 40.9997 14.8895L36.9999 14.8476Z" fill="black"/>
</svg>
