<svg width="23" height="22" viewBox="0 0 23 22" fill="none" xmlns="http://www.w3.org/2000/svg">
<g clip-path="url(#clip0)">
<path d="M7.6547 5.90185L13.2669 5.85858C16.0521 5.85858 17.4447 5.85858 18.3771 6.69888C19.3096 7.53918 19.4657 8.93487 19.778 11.7262L19.9374 13.1505C20.3211 16.5801 20.5129 18.2948 19.536 19.3975C18.5591 20.5002 16.8482 20.5002 13.4262 20.5002C1.25 20.5002 11.75 11.0002 11.75 11.0002M7.6547 5.90185V4.80459C7.6547 3.24691 7.6547 2.46806 8.13449 1.98415C8.61429 1.50024 9.38651 1.50024 10.9309 1.50024H12.5691C14.1135 1.50024 14.8857 1.50024 15.3655 1.98415C15.8453 2.46806 15.8453 3.24691 15.8453 4.80459V5.90185M7.6547 5.90185H5.75M11.75 11.0002L11.75 14.0002M11.75 11.0002H8.75" stroke="#313038" stroke-width="2" stroke-linecap="round" stroke-linejoin="round"/>
</g>
<defs>
<clipPath id="clip0">
<rect width="22" height="22" fill="white" transform="translate(0.75 0.000244141)"/>
</clipPath>
</defs>
</svg>
