<svg width="44" height="44" viewBox="0 0 44 44" fill="none" xmlns="http://www.w3.org/2000/svg">
<path d="M22 42C33.0457 42 42 33.0457 42 22C42 10.9543 33.0457 2 22 2C10.9543 2 2 10.9543 2 22C2 33.0457 10.9543 42 22 42Z" fill="url(#paint0_linear)"/>
<path d="M32.1625 24.8856C29.7358 24.4309 26.3152 24.0002 22.0005 24.0002C17.6878 24.0002 14.2638 24.4309 11.8365 24.8856C10.6118 25.1149 9.94382 26.1289 10.0032 27.1562C10.3012 32.3256 14.2678 36.6669 22.0005 36.6669C29.7345 36.6669 33.6985 32.3256 33.9965 27.1562C34.0558 26.1289 33.3878 25.1149 32.1625 24.8856Z" fill="#1A1626"/>
<path d="M16.3164 33.9999C16.3164 33.9999 18.8424 35.3332 21.9997 35.3332C25.1584 35.3332 27.6844 33.9999 27.6844 33.9999C27.6844 33.9999 25.7904 31.9999 22.0004 32.6666C18.2111 31.9999 16.3164 33.9999 16.3164 33.9999Z" fill="#FD7383"/>
<path d="M31.6715 26.1613C29.9982 25.8619 26.4602 25.3333 22.0008 25.3333C17.5415 25.3333 14.0042 25.8619 12.3308 26.1613C11.2855 26.3499 11.2642 26.8059 11.4028 27.6793C11.5248 28.4433 11.6068 28.6466 12.4168 28.6586C13.1602 28.6693 22.0002 28.6586 22.0002 28.6586C22.0002 28.6586 30.8415 28.6693 31.5848 28.6586C32.3948 28.6466 32.4768 28.4439 32.5988 27.6793C32.7375 26.8059 32.7168 26.3499 31.6715 26.1613Z" fill="url(#paint1_linear)"/>
<path d="M33.3482 8.85718C31.9762 4.25784 24.8416 3.99784 23.5109 8.95784C22.7129 11.9398 24.6489 14.7158 28.4722 19.9665C29.7689 21.7472 30.0042 21.8098 32.0182 20.9172C37.9509 18.2798 41.0182 16.8465 41.8182 13.8625C43.1489 8.90318 36.8376 5.56051 33.3482 8.85718Z" fill="url(#paint2_linear)"/>
<path d="M10.6512 8.8582C7.16389 5.5602 0.853225 8.9022 2.18056 13.8649C2.97989 16.8462 6.04589 18.2809 11.9819 20.9175C13.9959 21.8102 14.2319 21.7482 15.5286 19.9675C19.3486 14.7169 21.2886 11.9415 20.4886 8.95686C19.1612 3.99686 12.0232 4.25753 10.6512 8.8582Z" fill="url(#paint3_linear)"/>
<defs>
<linearGradient id="paint0_linear" x1="22.0003" y1="42" x2="22.0003" y2="2.00033" gradientUnits="userSpaceOnUse">
<stop stop-color="#FF7B00"/>
<stop offset="0.3236" stop-color="#FFAE00"/>
<stop offset="0.6205" stop-color="#FFD600"/>
<stop offset="0.8558" stop-color="#FFEE00"/>
<stop offset="1" stop-color="#FFF700"/>
</linearGradient>
<linearGradient id="paint1_linear" x1="11.342" y1="26.9986" x2="32.6604" y2="26.9986" gradientUnits="userSpaceOnUse">
<stop stop-color="#CFD7E6"/>
<stop offset="0.0368" stop-color="#DAE0EC"/>
<stop offset="0.1263" stop-color="#EEF1F6"/>
<stop offset="0.2147" stop-color="#FBFCFD"/>
<stop offset="0.3" stop-color="white"/>
<stop offset="0.7" stop-color="white"/>
<stop offset="0.7853" stop-color="#FBFCFD"/>
<stop offset="0.8737" stop-color="#EEF1F6"/>
<stop offset="0.9632" stop-color="#DAE0EC"/>
<stop offset="1" stop-color="#CFD7E6"/>
</linearGradient>
<linearGradient id="paint2_linear" x1="35.648" y1="5.18729" x2="28.242" y2="20.6341" gradientUnits="userSpaceOnUse">
<stop stop-color="#FF666B"/>
<stop offset="0.1751" stop-color="#FB5B5F"/>
<stop offset="0.4917" stop-color="#F03D3F"/>
<stop offset="0.9112" stop-color="#DF0C0C"/>
<stop offset="1" stop-color="#DB0100"/>
</linearGradient>
<linearGradient id="paint3_linear" x1="10.8056" y1="4.52838" x2="12.1148" y2="21.6101" gradientUnits="userSpaceOnUse">
<stop stop-color="#FF666B"/>
<stop offset="0.1751" stop-color="#FB5B5F"/>
<stop offset="0.4917" stop-color="#F03D3F"/>
<stop offset="0.9112" stop-color="#DF0C0C"/>
<stop offset="1" stop-color="#DB0100"/>
</linearGradient>
</defs>
</svg>
