<svg width="44" height="44" viewBox="0 0 44 44" fill="none" xmlns="http://www.w3.org/2000/svg">
<path d="M12.9941 18H21.2883M12.9941 24H28M3 22C3 9.24905 7.74927 5 22.001 5C36.2507 5 41 9.24905 41 22C41 28.2616 39.8544 32.4733 37.0002 35.1382C35.7038 36.3487 34.0549 37.2401 32.0007 37.8594C31.4662 38.0206 30.9043 35.1634 30.3139 35.2885C27.9982 35.7796 25.2459 39 22.001 39C18.7556 39 16.0029 35.7796 13.6869 35.2885C13.0966 35.1634 12.5346 38.0206 12 37.8594C9.9456 37.2401 8.29653 36.3487 7 35.1382C4.14562 32.4733 3 28.2616 3 22Z" stroke="black" stroke-width="4" stroke-linecap="round" stroke-linejoin="round"/>
</svg>
