<svg width="375" height="30" viewBox="0 0 375 30" fill="none" xmlns="http://www.w3.org/2000/svg">
<path fill-rule="evenodd" clip-rule="evenodd" d="M0 0H375V30H369.086C367.335 25.8851 363.254 23 358.5 23C353.746 23 349.665 25.8851 347.914 30H338.086C336.335 25.8851 332.254 23 327.5 23C322.746 23 318.665 25.8851 316.914 30H307.086C305.335 25.8851 301.254 23 296.5 23C291.746 23 287.665 25.8851 285.914 30H276.086C274.335 25.8851 270.254 23 265.5 23C260.746 23 256.665 25.8851 254.914 30H245.086C243.335 25.8851 239.254 23 234.5 23C229.746 23 225.665 25.8851 223.914 30H214.086C212.335 25.8851 208.254 23 203.5 23C198.746 23 194.665 25.8851 192.914 30H183.086C181.335 25.8851 177.254 23 172.5 23C167.746 23 163.665 25.8851 161.914 30H152.086C150.335 25.8851 146.254 23 141.5 23C136.746 23 132.665 25.8851 130.914 30H121.086C119.335 25.8851 115.254 23 110.5 23C105.746 23 101.665 25.8851 99.9138 30H90.0862C88.3348 25.8851 84.2543 23 79.5 23C74.7457 23 70.6652 25.8851 68.9138 30H59.0862C57.3348 25.8851 53.2543 23 48.5 23C43.7457 23 39.6652 25.8851 37.9138 30H28.0862C26.3348 25.8851 22.2543 23 17.5 23C12.7457 23 8.66517 25.8851 6.91377 30H0V0Z" fill="white"/>
</svg>
