<svg width="44" height="44" viewBox="0 0 44 44" fill="none" xmlns="http://www.w3.org/2000/svg">
<path d="M33.2975 28.5981C34.1801 29.2622 35.434 29.0851 36.0981 28.2025C36.7622 27.3199 36.5851 26.066 35.7025 25.4019L33.2975 28.5981ZM11.9074 10L13.1099 8.40189C12.7632 8.14105 12.3412 8 11.9074 8V10ZM7 8C5.89543 8 5 8.89543 5 10C5 11.1046 5.89543 12 7 12V8ZM30.0093 10.5C28.9047 10.5 28.0093 11.3954 28.0093 12.5C28.0093 13.6046 28.9047 14.5 30.0093 14.5V10.5ZM33.3696 14.5C34.4742 14.5 35.3696 13.6046 35.3696 12.5C35.3696 11.3954 34.4742 10.5 33.3696 10.5V14.5ZM35.7025 25.4019L13.1099 8.40189L10.7049 11.5981L33.2975 28.5981L35.7025 25.4019ZM11.9074 8H7V12H11.9074V8ZM30.0093 14.5H33.3696V10.5H30.0093V14.5ZM15 27.5C15 30.5376 12.5376 33 9.5 33V37C14.7467 37 19 32.7467 19 27.5H15ZM9.5 33C6.46243 33 4 30.5376 4 27.5H0C0 32.7467 4.25329 37 9.5 37V33ZM4 27.5C4 24.4624 6.46243 22 9.5 22V18C4.25329 18 0 22.2533 0 27.5H4ZM9.5 22C12.5376 22 15 24.4624 15 27.5H19C19 22.2533 14.7467 18 9.5 18V22ZM40 27.4615C40 30.6241 37.5978 33 34.8601 33V37C40.0089 37 44 32.6257 44 27.4615H40ZM34.8601 33C33.1635 33 31.6219 32.1096 30.6687 30.6668L27.3313 32.8717C28.9586 35.3349 31.7042 37 34.8601 37V33ZM37.4662 22.6875C38.9586 23.6369 40 25.3984 40 27.4615H44C44 24.0403 42.2679 21.0014 39.6133 19.3125L37.4662 22.6875Z" fill="black"/>
</svg>
