<svg width="26" height="26" viewBox="0 0 26 26" fill="none" xmlns="http://www.w3.org/2000/svg">
<circle cx="13" cy="13" r="13" fill="#EC5176"/>
<path d="M10.7867 8.73785C10.5824 7.78423 10.4802 7.30742 10.6113 6.93514C10.7181 6.63164 10.9262 6.3742 11.2006 6.20615C11.5372 6 12.0248 6 13.0001 6C13.9753 6 14.463 6 14.7995 6.20615C15.0739 6.3742 15.282 6.63164 15.3889 6.93514C15.5199 7.30742 15.4177 7.78423 15.2134 8.73785L13.8467 15.1155C13.7612 15.5148 13.4084 15.8 13.0001 15.8C12.5918 15.8 12.2389 15.5148 12.1534 15.1155L10.7867 8.73785Z" fill="white"/>
<path d="M14.4001 18.6C14.4001 19.3732 13.7733 20 13.0001 20C12.2269 20 11.6001 19.3732 11.6001 18.6C11.6001 17.8268 12.2269 17.2 13.0001 17.2C13.7733 17.2 14.4001 17.8268 14.4001 18.6Z" fill="white"/>
</svg>
