<svg width="60" height="40" viewBox="0 0 60 40" fill="none" xmlns="http://www.w3.org/2000/svg">
<path fill-rule="evenodd" clip-rule="evenodd" d="M15.0006 29.852H9.80801L5.91417 15.1124C5.72936 14.4343 5.33693 13.8349 4.75969 13.5524C3.31913 12.8424 1.73172 12.2774 0 11.9925V11.425H8.36491C9.51939 11.425 10.3852 12.2774 10.5296 13.2674L12.5499 23.8996L17.74 11.425H22.7883L15.0006 29.852ZM25.6745 29.852H20.7705L24.8086 11.425H29.7126L25.6745 29.852ZM36.0572 16.5298C36.2015 15.5374 37.0674 14.9699 38.0776 14.9699C39.665 14.8274 41.3941 15.1124 42.8372 15.8199L43.7031 11.8524C42.26 11.285 40.6726 11 39.232 11C34.4723 11 31.0089 13.5524 31.0089 17.0948C31.0089 19.7898 33.4622 21.2048 35.1939 22.0572C37.0674 22.9072 37.7889 23.4747 37.6446 24.3247C37.6446 25.5996 36.2015 26.1671 34.761 26.1671C33.0292 26.1671 31.2975 25.7421 29.7126 25.0322L28.8468 29.002C30.5785 29.7095 32.452 29.9945 34.1837 29.9945C39.5207 30.1345 42.8372 27.5846 42.8372 23.7572C42.8372 18.9373 36.0572 18.6548 36.0572 16.5298ZM60 29.852L56.1062 11.425H51.9237C51.0578 11.425 50.192 11.9925 49.9034 12.8424L42.6929 29.852H47.7413L48.7489 27.1596H54.9517L55.5289 29.852H60ZM52.6453 16.3874L54.0858 23.3322H50.0477L52.6453 16.3874Z" fill="white"/>
</svg>
