<svg width="36" height="36" viewBox="0 0 36 36" fill="none" xmlns="http://www.w3.org/2000/svg">
<path fill-rule="evenodd" clip-rule="evenodd" d="M32.4513 8.41826C32.6007 7.99549 33.0255 7.74888 33.453 7.80861C33.3942 6.86307 32.7687 6.07105 31.912 5.76827L31.0711 3.11348C30.731 2.09345 30.561 1.58343 30.1563 1.29172C29.7516 1 29.214 1 28.1388 1H17.1398C16.0646 1 15.527 1 15.1223 1.29172C14.7175 1.58343 14.5475 2.09344 14.2075 3.11346L13.3666 5.76827C12.5099 6.07105 11.8844 6.86307 11.8256 7.8086C12.2531 7.74887 12.6779 7.99549 12.8273 8.41826C13.0187 8.95973 13.5351 9.34545 14.1393 9.34545H31.1393C31.7435 9.34545 32.2599 8.95973 32.4513 8.41826ZM19.5469 4.86363C19.1201 4.86363 18.7741 5.2096 18.7741 5.63636C18.7741 6.06313 19.1201 6.40909 19.5469 6.40909H25.7287C26.1554 6.40909 26.5014 6.06313 26.5014 5.63636C26.5014 5.2096 26.1554 4.86363 25.7287 4.86363H19.5469Z" fill="#313038"/>
<path d="M31.9105 10.8909H13.3651L13.8425 13.9944C16.6346 14.1738 18.9349 16.2598 19.3347 18.9544C21.429 19.7526 22.9469 21.7419 22.9469 24.0935C22.9469 25.2476 22.5801 26.3174 21.96 27.2009L20.8798 30.9818H26.1678C27.4332 30.9818 28.0658 30.9818 28.5 30.6093C28.9342 30.2368 29.0304 29.6115 29.2228 28.3609L31.9105 10.8909Z" fill="#313038"/>
<path d="M13.4514 15.5273C11.645 15.5273 10.0901 16.5954 9.41196 18.1009L9.21275 18.5431L8.73582 18.4548C8.5365 18.4179 8.33578 18.3974 8.13324 18.3974C6.34513 18.3974 4.91051 19.8165 4.91051 21.5104C4.91051 21.7645 4.9467 22.0149 5.01106 22.2622L5.18271 22.922L4.50932 23.0285C3.38523 23.2062 2.54688 24.1457 2.54688 25.2416C2.54688 26.1744 3.14905 26.9963 4.02114 27.3335C4.28758 27.4365 4.57826 27.4935 4.88324 27.4935C5.65998 27.4935 6.34713 27.1177 6.77412 26.5464L7.33294 25.7988L7.80325 26.605C8.50894 27.8148 9.84884 28.6416 11.3832 28.6416C12.5087 28.6416 13.5302 28.1972 14.2745 27.4819L14.626 27.1441L15.0364 27.4071C15.6859 27.8234 16.4603 28.0676 17.2923 28.0676C18.2508 28.0676 19.1337 27.746 19.8342 27.2094C20.7929 26.475 21.4014 25.3458 21.4014 24.0935C21.4014 22.266 20.0974 20.6986 18.3163 20.2511L17.8626 20.1371L17.849 19.6695C17.7832 17.3972 15.846 15.5273 13.4514 15.5273Z" fill="#313038"/>
<path d="M4.63436 30.8367L4.00151 28.6218C4.28412 28.6924 4.57967 28.7299 4.88324 28.7299C5.76528 28.7299 6.57107 28.4114 7.19321 27.8901C8.17432 29.0996 9.69004 29.8779 11.3832 29.8779C12.6687 29.8779 13.8523 29.4291 14.7769 28.685C15.5274 29.0787 16.3841 29.3039 17.2923 29.3039C18.2573 29.3039 19.1658 29.0512 19.9501 28.6102L19.3139 30.8367C18.7414 32.8406 18.4551 33.8425 17.6879 34.4213C16.9206 35 15.8786 35 13.7945 35H10.1538C8.06973 35 7.02772 35 6.26043 34.4213C5.49314 33.8425 5.20688 32.8406 4.63436 30.8367Z" fill="#313038"/>
</svg>
