<svg width="36" height="36" viewBox="0 0 36 36" fill="none" xmlns="http://www.w3.org/2000/svg">
<path d="M29.1364 2.62218C28.9603 1.84736 28.8723 1.45995 28.565 1.22997C28.2576 1 27.8258 1 26.9623 1H18.7277C17.8704 1 17.4418 1 17.1355 1.22698C16.8293 1.45396 16.738 1.83793 16.5554 2.60589C16.2956 3.69834 16.0466 4.77202 15.7976 5.86409H17.822L18.447 3.20505C18.5162 2.91543 18.7478 2.68179 19.0548 2.59216C19.3617 2.50253 19.6972 2.57051 19.9349 2.77051C20.1727 2.9705 20.2765 3.27213 20.2073 3.56176L19.6352 5.89652C20.2477 6.07879 20.7034 6.55442 20.8235 7.13686L22.4861 14.7069C22.6654 15.5235 22.7551 15.9318 23.1396 16.1671C23.5242 16.4024 23.9036 16.3321 24.6625 16.1916C29.0071 15.387 31.3434 11.7597 30.6199 8.93658C30.1669 7.18207 29.7714 5.43109 29.3777 3.68829L29.3762 3.68172L29.3734 3.66932C29.2945 3.31993 29.2157 2.97087 29.1364 2.62218Z" fill="#313038"/>
<path d="M22.8435 28.5146C23.3296 28.5146 23.7237 28.1516 23.7237 27.7039V18.7864C23.7237 18.3387 23.3296 17.9757 22.8435 17.9757C22.3574 17.9757 21.9633 18.3387 21.9633 18.7864V27.7039C21.9633 28.1516 22.3574 28.5146 22.8435 28.5146Z" fill="#313038"/>
<path fill-rule="evenodd" clip-rule="evenodd" d="M19.7201 19.9943C20.8681 18.7207 21.316 17.0315 20.9348 15.4139L19.4574 9.10693C19.2754 8.32992 19.1844 7.94141 18.8778 7.71343C18.5712 7.48545 18.1396 7.48545 17.2766 7.48545H9.05554C8.19349 7.48545 7.76246 7.48545 7.45598 7.71305C7.1495 7.94064 7.0581 8.32861 6.87529 9.10454L5.39075 15.4058C4.99515 17.0363 5.44391 18.7435 6.60541 20.0267C8.22236 21.8304 10.6315 22.8722 13.1711 22.8659C15.7107 22.8596 18.1137 21.806 19.7201 19.9943ZM10.5222 10.0472L8.76185 17.3433C8.65491 17.7911 8.17414 18.0742 7.68803 17.9757C7.20192 17.8772 6.89454 17.4344 7.00149 16.9866L8.76185 9.69051C8.83103 9.40088 9.06272 9.16725 9.36964 9.07761C9.67656 8.98798 10.0121 9.05597 10.2498 9.25596C10.4876 9.45596 10.5914 9.75758 10.5222 10.0472Z" fill="#313038"/>
<path d="M13.162 24.5037C12.6907 24.5037 12.2818 24.8392 12.2818 25.2733V34.1893C12.2818 34.637 12.6759 35 13.162 35C13.6481 35 14.0422 34.637 14.0422 34.1893V25.2733C14.0422 24.8392 13.6333 24.5037 13.162 24.5037Z" fill="#313038"/>
</svg>
