<svg width="36" height="36" viewBox="0 0 36 36" fill="none" xmlns="http://www.w3.org/2000/svg">
<path d="M17.0037 12.9486V10.3647C14.5759 9.89788 12.7358 7.75894 12.7358 5.19706V1.99628C12.7358 1.5932 12.9789 1.22996 13.3507 1.0759C13.7233 0.921833 14.1516 1.00683 14.4365 1.29172L15.6314 2.48663C15.7611 2.61632 15.9714 2.61625 16.101 2.48656L17.2953 1.29172C17.6844 0.90324 18.3153 0.90324 18.7044 1.29172L19.8987 2.48649C20.0283 2.61625 20.2386 2.61625 20.3683 2.48656L21.5632 1.29165C21.8481 1.00677 22.2764 0.921767 22.6489 1.07583C23.0208 1.22989 23.2639 1.59313 23.2639 1.99622V5.19699C23.2639 7.75894 21.4237 9.89788 18.9959 10.3647V12.9486C18.9959 13.4987 18.55 13.9447 17.9998 13.9447C17.4497 13.9447 17.0037 13.4987 17.0037 12.9486Z" fill="#313038"/>
<path d="M17.8266 16.6322C18.2572 16.3836 18.6965 16.1522 19.1428 15.9371H8.14472C7.78885 15.9371 7.46001 16.1269 7.28211 16.4351C7.10414 16.7433 7.10414 17.123 7.28211 17.4312L10.7773 23.485C12.5194 20.6573 14.9466 18.2949 17.8266 16.6322Z" fill="#313038"/>
<path d="M27.8552 15.9371C24.6884 15.9371 21.5648 16.774 18.8222 18.3575C16.0862 19.9372 13.8039 22.2167 12.2209 24.9508C12.0344 25.2571 12.0246 25.6468 12.2092 25.9666L17.1374 34.502C17.3154 34.8101 17.6443 35 18.0001 35C18.3559 35 18.6848 34.8101 18.8627 34.502L28.7183 17.4312C28.8963 17.123 28.896 16.7433 28.7181 16.4351C28.5401 16.1269 28.2111 15.9371 27.8552 15.9371Z" fill="#313038"/>
<path d="M9.92463 13.2169C11.2415 12.4565 12.1061 11.2087 12.4208 9.83148C11.3676 8.56445 10.7441 6.94082 10.7441 5.197V4.10926L10.2507 3.25462C10.0495 2.90598 9.65767 2.71274 9.25791 2.7652C8.85881 2.81766 8.5301 3.10587 8.42584 3.49501L7.98849 5.12661C7.94101 5.30371 7.75892 5.40883 7.58182 5.36135L5.95022 4.924C5.41831 4.78189 4.87245 5.09732 4.72967 5.62857L4.29232 7.26083C4.24484 7.438 4.06276 7.54306 3.88565 7.49564L2.25405 7.05836C1.86491 6.9541 1.4512 7.09488 1.20616 7.4143C0.960462 7.73371 0.931907 8.16933 1.13378 8.51863L2.73417 11.2904C4.18514 13.8039 7.41115 14.6685 9.92463 13.2169Z" fill="#313038"/>
<path d="M33.745 7.05843C34.1342 6.95417 34.5479 7.09495 34.7936 7.41436C35.0386 7.73371 35.0672 8.16933 34.8659 8.51863L33.2655 11.2904C31.8139 13.8039 28.5885 14.6685 26.075 13.2169C24.7576 12.4565 23.8936 11.2094 23.5782 9.83214C24.6314 8.56445 25.2556 6.94082 25.2556 5.197V4.10793L25.7483 3.25462C25.9502 2.90598 26.342 2.71274 26.7411 2.7652C27.1409 2.81766 27.4689 3.10587 27.5732 3.49501L28.0105 5.12667C28.058 5.30378 28.2401 5.4089 28.4172 5.36142L30.0495 4.92407C30.5808 4.78196 31.1273 5.09739 31.2694 5.62863L31.7068 7.2609C31.7542 7.43807 31.9363 7.54319 32.1134 7.49571L33.745 7.05843Z" fill="#313038"/>
</svg>
