<svg width="36" height="36" viewBox="0 0 36 36" fill="none" xmlns="http://www.w3.org/2000/svg">
<path d="M9.79566 1C13.0339 1 15.6577 3.95228 15.6577 7.59483C15.6577 10.5999 13.7045 13.1081 11.2612 13.9017L13.2965 31.3882C13.3082 31.4916 13.3129 31.5971 13.3129 31.7026C13.3129 33.5228 11.7372 35 9.79566 35C7.85415 35 6.27842 33.5228 6.27842 31.7026C6.27842 31.5773 6.28546 31.452 6.30187 31.3311L8.33015 13.9017C5.71097 13.2422 3.93359 10.7406 3.93359 7.59483C3.93359 3.95228 6.55746 1 9.79566 1Z" fill="#313038"/>
<path d="M29.7247 2.09914C29.7247 1.49241 30.2499 1 30.8971 1C31.5442 1 32.0695 1.49241 32.0695 2.09914V8.69397C32.0695 11.1912 30.271 13.2818 27.8324 13.9478L29.7083 31.3882C29.72 31.4916 29.7247 31.5971 29.7247 31.7026C29.7247 33.5228 28.1489 35 26.2074 35C24.2659 35 22.6902 33.5228 22.6902 31.7026C22.6902 31.5773 22.6972 31.452 22.7113 31.3311L24.9201 14.0468C22.3056 13.495 20.3454 11.3077 20.3454 8.69397V2.09914C20.3454 1.49241 20.8706 1 21.5178 1C22.1649 1 22.6902 1.49241 22.6902 2.09914V7.59483C22.6902 8.20155 23.2154 8.69397 23.8626 8.69397C24.5098 8.69397 25.035 8.20155 25.035 7.59483V2.09914C25.035 1.49241 25.5602 1 26.2074 1C26.8546 1 27.3798 1.49241 27.3798 2.09914V7.59483C27.3798 8.20155 27.9051 8.69397 28.5522 8.69397C29.1994 8.69397 29.7247 8.20155 29.7247 7.59483V2.09914Z" fill="#313038"/>
</svg>
