<svg width="36" height="36" viewBox="0 0 36 36" fill="none" xmlns="http://www.w3.org/2000/svg">
<path fill-rule="evenodd" clip-rule="evenodd" d="M6.54997 7.17046C10.7881 5.73679 14.3794 5 18.0008 5C21.6221 5 25.2125 5.7368 29.4507 7.17046L30.1302 7.40034V9.42186C30.9893 9.22421 31.864 9.30737 32.6495 9.68866C33.924 10.3074 34.7723 11.6161 34.9601 13.301C35.3295 16.6158 33.2197 21.4895 26.7804 27.1886C24.5743 29.5337 21.457 31 18.0008 31C14.5446 31 11.4264 29.5338 9.2202 27.1886C2.78089 21.4895 0.671132 16.6158 1.04055 13.301C1.22832 11.6161 2.07662 10.3074 3.35117 9.68866C4.13665 9.30737 5.01138 9.22421 5.87041 9.42186V7.40034L6.54997 7.17046ZM5.87041 11.5222C5.24476 11.2403 4.66597 11.2736 4.22456 11.4879C3.68146 11.7515 3.15514 12.3839 3.02824 13.5225C2.84738 15.1454 3.519 17.7245 6.08717 21.031C5.94489 20.2779 5.87041 19.5006 5.87041 18.7059V11.5222ZM29.9135 21.031C32.4816 17.7245 33.1532 15.1454 32.9724 13.5225C32.8455 12.3839 32.3192 11.7515 31.7761 11.4879C31.3347 11.2736 30.7559 11.2403 30.1302 11.5222V18.7059C30.1302 19.5006 30.0557 20.2779 29.9135 21.031ZM17.9998 9.94116C16.6248 9.94116 15.2489 10.041 13.8845 10.2405C13.1102 10.3538 12.3389 10.5103 10.8789 10.8067L10.8441 10.8137L11.2419 12.7738C12.745 12.4687 13.4604 12.3239 14.174 12.2195C15.4424 12.0339 16.7215 11.9412 17.9998 11.9412C19.278 11.9412 20.5563 12.0339 21.8247 12.2195C22.5382 12.3239 23.2537 12.4687 24.7568 12.7738L25.1546 10.8137L25.1197 10.8067C23.6597 10.5103 22.8884 10.3538 22.1142 10.2405C20.7498 10.041 19.3748 9.94116 17.9998 9.94116Z" fill="#313038"/>
</svg>
