<svg width="36" height="36" viewBox="0 0 36 36" fill="none" xmlns="http://www.w3.org/2000/svg">
<path fill-rule="evenodd" clip-rule="evenodd" d="M19.4829 12.2604L20.6566 12.8466L21.8303 12.2604C22.1479 12.1018 22.4931 11.9961 22.8565 11.9459L22.8867 11.9417V5.57755C22.8867 3.05346 20.6946 1 17.9999 1C15.3053 1 13.1132 3.05346 13.1133 5.57755V11.9416L13.1435 11.9458C13.5072 11.9959 13.8525 12.1018 14.1699 12.2604L15.3435 12.8466L16.5172 12.2604C16.9718 12.0333 17.4846 11.9132 18 11.9132C18.5152 11.9132 19.028 12.0333 19.4829 12.2604ZM15.9618 8.89458C15.9618 8.36415 16.4225 7.93261 16.9887 7.93261H19.0112C19.5774 7.93261 20.0381 8.36415 20.0381 8.89458C20.0381 9.42501 19.5774 9.85655 19.0112 9.85655H16.9887C16.4225 9.85655 15.9618 9.42501 15.9618 8.89458ZM15.9618 5.11319C15.9618 4.58276 16.4225 4.15122 16.9887 4.15122H19.0112C19.5774 4.15122 20.0381 4.58276 20.0381 5.11319C20.0381 5.64362 19.5774 6.07516 19.0112 6.07516H16.9887C16.4225 6.07516 15.9618 5.64362 15.9618 5.11319Z" fill="#313038"/>
<path d="M10.2533 7.77069L11.0609 8.22142V5.57761C11.0609 5.48651 11.0633 5.3925 11.0681 5.29014L11.0704 5.2427L11.022 5.25707C10.7163 5.34792 10.4226 5.46806 10.1492 5.61402C9.3997 6.0142 8.79535 6.60138 8.40148 7.31205L8.37249 7.36442L8.43528 7.36046C8.51426 7.35547 8.57998 7.35316 8.64213 7.35316C9.20638 7.35316 9.7638 7.49753 10.2533 7.77069Z" fill="#313038"/>
<path d="M8.84833 12.2604L10.0222 12.8466L11.0514 12.3326V10.4608L9.19247 9.42349C8.84287 9.22833 8.42475 9.2273 8.07398 9.42063C7.72321 9.61402 7.52111 9.95697 7.5334 10.338L7.58456 11.9214L7.61615 11.9238C8.04636 11.9563 8.4724 12.0727 8.84833 12.2604Z" fill="#313038"/>
<path d="M9.49589 35H26.4993C28.2761 35 29.7217 33.6459 29.7217 31.9814V14.8653C29.7217 14.5062 29.5175 14.1684 29.1887 13.9836C28.8601 13.7989 28.4459 13.789 28.1075 13.958L25.9675 15.0269L23.8273 13.958C23.5039 13.7964 23.1177 13.7965 22.7943 13.958L20.6543 15.0269L18.5142 13.958C18.1908 13.7964 17.8046 13.7964 17.4812 13.958L15.3411 15.0269L13.2009 13.958C12.8775 13.7964 12.4914 13.7964 12.1679 13.958L10.0278 15.0269L7.88772 13.958C7.5495 13.7891 7.13515 13.7989 6.80635 13.9836C6.47762 14.1684 6.27344 14.5062 6.27344 14.8653V31.9815C6.27344 33.6459 7.71903 35 9.49589 35Z" fill="#313038"/>
<path d="M24.9354 12.3326L25.9645 12.8466L27.1382 12.2603C27.881 11.8894 28.772 11.81 29.5901 12.0578L29.6484 12.0755L29.6357 12.0194C29.6186 11.944 29.6016 11.8777 29.5839 11.8167C29.3166 10.9022 28.685 10.14 27.8057 9.67039C27.4835 9.49843 27.1398 9.37208 26.7838 9.29469C26.6894 8.08251 26.0373 6.97312 24.9919 6.24765L24.9354 6.20844V12.3326Z" fill="#313038"/>
</svg>
