<svg width="36" height="36" viewBox="0 0 36 36" fill="none" xmlns="http://www.w3.org/2000/svg">
<path fill-rule="evenodd" clip-rule="evenodd" d="M3.38887 6.95435C3.25846 6.31223 2.62413 5.89581 1.97206 6.02423C1.31999 6.15265 0.897107 6.77729 1.02752 7.4194L4.69691 23.3993C4.96239 24.7067 5.18302 25.7931 5.47017 26.6477C5.773 27.5489 6.19045 28.3253 6.93227 28.9242C7.67409 29.523 8.52911 29.7739 9.48593 29.8895C10.3932 29.9992 11.5184 29.9992 12.8722 29.9991H23.133C24.4869 29.9992 25.612 29.9992 26.5193 29.8895C27.4761 29.7739 28.3311 29.523 29.0729 28.9242C29.8148 28.3253 30.2322 27.5489 30.535 26.6477C30.8222 25.7932 31.0428 24.7067 31.3083 23.3995L34.9777 7.4194C35.1081 6.77729 34.6852 6.15265 34.0331 6.02423C33.3811 5.89581 32.7467 6.31223 32.6163 6.95435L30.0246 17.6285C29.7551 17.7609 29.5985 17.8364 29.4452 17.9019C27.6125 18.6839 25.5328 18.6839 23.7001 17.9019C23.5187 17.8245 23.3326 17.7328 22.9606 17.5497C22.8365 17.4886 22.7744 17.458 22.7139 17.4322C22.103 17.1715 21.4098 17.1715 20.7989 17.4322C20.7385 17.458 20.6761 17.4887 20.5522 17.5497C20.1802 17.7328 19.9941 17.8245 19.8127 17.9019L19.7467 17.9301C18.8746 18.3023 18.4386 18.4884 18.0026 18.4884C17.5666 18.4884 17.1306 18.3023 16.2585 17.9301L16.1925 17.9019C16.0111 17.8245 15.8247 17.7327 15.4527 17.5495C15.3287 17.4885 15.2667 17.458 15.2063 17.4322C14.5954 17.1715 13.9022 17.1715 13.2913 17.4322C13.2309 17.458 13.1687 17.4886 13.0449 17.5495C12.6729 17.7327 12.4865 17.8245 12.3051 17.9019C10.4724 18.6839 8.39269 18.6839 6.56 17.9019C6.40669 17.8364 6.25006 17.7609 5.98064 17.6285L3.38887 6.95435Z" fill="#313038"/>
<path d="M27.7767 12.2141C27.7767 13.5237 26.6986 14.5854 25.3686 14.5854C24.0386 14.5854 22.9605 13.5237 22.9605 12.2141C22.9605 10.9044 24.0386 9.84276 25.3686 9.84276C26.6986 9.84276 27.7767 10.9044 27.7767 12.2141Z" fill="#313038"/>
</svg>
