<svg width="375" height="190" viewBox="0 0 375 190" fill="none" xmlns="http://www.w3.org/2000/svg">
<rect width="375" height="190" fill="white"/>
<rect x="106.086" y="33.0632" width="53.3026" height="35.9811" fill="#A2E9FC"/>
<rect x="111.696" y="53.8177" width="41.7396" height="0.922829" fill="#C8F5FC"/>
<rect x="111.696" y="56.3557" width="41.7396" height="0.922829" fill="#C8F5FC"/>
<rect x="111.696" y="58.8935" width="17.7737" height="0.922829" fill="#C8F5FC"/>
<rect x="111.696" y="53.8177" width="41.7396" height="0.922829" fill="#C8F5FC"/>
<rect x="111.696" y="56.3557" width="41.7396" height="0.922829" fill="#C8F5FC"/>
<rect x="111.696" y="58.8935" width="17.7737" height="0.922829" fill="#C8F5FC"/>
<rect x="111.696" y="51.2338" width="41.7396" height="0.922829" fill="#C8F5FC"/>
<rect x="111.716" y="42.2454" width="41.6104" height="4.51264" fill="#C8F5FC"/>
<rect x="184.12" y="16" width="57.8153" height="39.0357" fill="#C8F5FC"/>
<path fill-rule="evenodd" clip-rule="evenodd" d="M194.427 31.2545C194.307 31.033 194.197 30.8023 194.114 30.5623C193.975 30.184 193.652 29.2796 193.929 28.2368C194.077 27.6739 194.381 27.1386 194.815 26.6957L194.944 26.8249C194.538 27.2494 194.243 27.7477 194.104 28.2829C193.846 29.2704 194.15 30.1286 194.289 30.4977C194.372 30.7284 194.473 30.9499 194.593 31.1622L194.427 31.2545Z" fill="#0A9CE5"/>
<path fill-rule="evenodd" clip-rule="evenodd" d="M203.618 34.4011H190.791C190.763 34.4011 190.744 34.3918 190.726 34.3734C190.707 34.3549 190.698 34.3272 190.698 34.3088C190.726 33.8104 191.067 32.1032 194.094 31.2819L194.131 31.3649L194.103 31.2727C194.113 31.2727 195.414 30.9035 195.718 29.9253C195.838 29.3439 195.792 28.8641 195.765 28.6057C195.746 28.3934 195.709 28.1812 195.663 27.9689C195.654 27.9228 195.682 27.8674 195.737 27.8582C195.783 27.849 195.838 27.8767 195.848 27.932C195.894 28.1443 195.931 28.3658 195.949 28.5872C195.977 28.8549 196.023 29.3624 195.894 29.9715C195.552 31.0512 194.205 31.4388 194.15 31.448H194.14C191.409 32.1863 190.966 33.6443 190.892 34.2073H203.516C203.443 33.6443 203 32.1863 200.268 31.448H200.259C200.203 31.4295 198.847 31.0512 198.515 29.9807C198.385 29.3532 198.432 28.8549 198.459 28.5872C198.468 28.458 198.496 28.375 198.524 28.2273C198.533 28.1812 198.552 28.1258 198.561 28.0612C198.57 28.0151 198.625 27.9782 198.671 27.9874C198.718 27.9966 198.755 28.052 198.745 28.0981C198.727 28.1627 198.718 28.2181 198.708 28.2735C198.671 28.4119 198.653 28.4949 198.644 28.6057C198.616 28.8641 198.57 29.3439 198.69 29.9346C198.994 30.9035 200.296 31.2727 200.305 31.2727L200.296 31.3649L200.323 31.2727C203.35 32.094 203.682 33.792 203.719 34.2995C203.719 34.3272 203.71 34.3457 203.692 34.3641C203.664 34.3918 203.646 34.4011 203.618 34.4011Z" fill="#0A9CE5"/>
<path fill-rule="evenodd" clip-rule="evenodd" d="M199.789 25.5143L199.604 25.4774C199.862 24.2039 199.678 23.2164 199.06 22.5428C198.423 21.8507 197.472 21.703 197.14 21.7491H197.131H197.122C196.928 21.7307 195.95 21.8968 195.304 22.6443C194.722 23.318 194.584 24.25 194.898 25.4128L194.722 25.4589C194.39 24.2316 194.538 23.2441 195.165 22.5151C195.848 21.7215 196.882 21.5369 197.131 21.5553C197.518 21.5092 198.506 21.6661 199.198 22.4136C199.862 23.1334 200.056 24.1762 199.789 25.5143Z" fill="#0A9CE5"/>
<path fill-rule="evenodd" clip-rule="evenodd" d="M197.251 28.9285C197.242 28.9285 197.233 28.9285 197.224 28.9285C196.486 28.8916 195.553 28.2549 195.101 26.9445C194.963 26.9537 194.824 26.8706 194.723 26.7137C194.631 26.5753 194.566 26.3815 194.548 26.1693C194.529 25.957 194.557 25.7632 194.621 25.5971C194.686 25.4587 194.769 25.3572 194.88 25.3203C194.889 25.0988 194.908 24.7943 194.972 24.5266C195.184 23.6315 195.904 22.5702 197.242 22.5333H197.261C198.599 22.5702 199.328 23.6223 199.54 24.5266C199.605 24.8035 199.632 25.108 199.642 25.3387C199.854 25.4402 199.983 25.7725 199.946 26.1693C199.928 26.3815 199.863 26.5753 199.771 26.7137C199.669 26.8614 199.549 26.9445 199.42 26.9445C198.968 28.2549 198.027 28.8916 197.288 28.9285C197.27 28.9285 197.261 28.9285 197.251 28.9285ZM195.221 26.7046L195.249 26.7969C195.664 28.0889 196.541 28.6979 197.233 28.7348C197.242 28.7348 197.26 28.7348 197.27 28.7348C198.22 28.6795 198.968 27.7013 199.263 26.8061L199.291 26.7138L199.383 26.7415C199.392 26.7507 199.401 26.7507 199.401 26.7507C199.466 26.76 199.549 26.7046 199.614 26.6031C199.687 26.4831 199.743 26.3262 199.761 26.1417C199.798 25.7818 199.669 25.5142 199.531 25.4865L199.457 25.468V25.3942C199.448 25.0804 199.42 24.7851 199.364 24.5544C199.171 23.7239 198.497 22.7364 197.26 22.7088H197.242C196.015 22.7364 195.35 23.7239 195.156 24.5544C195.101 24.7851 195.073 25.0712 195.064 25.385V25.468H194.972C194.907 25.4772 194.843 25.5418 194.796 25.6526C194.741 25.7818 194.723 25.9479 194.732 26.1325C194.75 26.3078 194.796 26.4739 194.88 26.5939C194.944 26.6954 195.027 26.7415 195.092 26.7415C195.101 26.7415 195.119 26.7323 195.129 26.7323L195.221 26.7046Z" fill="#0A9CE5"/>
<path fill-rule="evenodd" clip-rule="evenodd" d="M197.251 31.3744C197.223 31.3744 197.195 31.3744 197.168 31.3744C196.282 31.3468 195.663 30.9223 195.368 30.6731L195.488 30.5347C195.756 30.7654 196.337 31.1622 197.168 31.1899C198.081 31.2176 198.727 30.7746 198.967 30.5808L199.087 30.7192C198.838 30.9223 198.174 31.3744 197.251 31.3744Z" fill="#0A9CE5"/>
<rect x="192.223" y="41.5439" width="41.7396" height="0.922829" fill="#A2E9FC"/>
<rect x="192.223" y="44.0818" width="41.7396" height="0.922829" fill="#A2E9FC"/>
<rect x="192.223" y="46.6194" width="17.7737" height="0.922829" fill="#A2E9FC"/>
<rect x="192.223" y="41.5439" width="41.7396" height="0.922829" fill="#A2E9FC"/>
<rect x="192.223" y="44.0818" width="41.7396" height="0.922829" fill="#A2E9FC"/>
<rect x="192.223" y="46.6194" width="17.7737" height="0.922829" fill="#A2E9FC"/>
<rect x="192.223" y="38.9599" width="41.7396" height="0.922829" fill="#A2E9FC"/>
<rect x="206.112" y="29.9716" width="27.8325" height="4.51264" fill="#A2E9FC"/>
<ellipse cx="63.6086" cy="185.074" rx="16.1379" ry="2.92616" fill="#EAEBEC"/>
<path fill-rule="evenodd" clip-rule="evenodd" d="M73.0584 164.536L49.7041 164.503L52.4323 183.721H52.4653C52.4433 183.776 52.4323 183.831 52.4323 183.886C52.4323 185.074 56.4805 186.031 61.4637 186.031C66.447 186.031 70.4952 185.074 70.4952 183.886C70.4952 183.831 70.4842 183.776 70.4622 183.721H70.5173L73.0584 164.536Z" fill="#A2E9FC"/>
<path fill-rule="evenodd" clip-rule="evenodd" d="M73.0595 164.536L63.3459 164.525C59.3527 176.394 67.5922 179.574 61.4648 186.031C66.4591 186.031 70.4963 185.074 70.4963 183.886C70.4963 183.831 70.4853 183.776 70.4633 183.721H70.5183L73.0595 164.536Z" fill="#A2E9FC"/>
<ellipse cx="61.3894" cy="164.514" rx="11.6716" ry="1.7711" fill="#C8F5FC"/>
<ellipse cx="61.3875" cy="164.436" rx="10.1756" ry="1.25407" fill="#353437"/>
<path d="M58.274 118.289C56.8769 112.195 53.1477 103.075 52.5317 83.4611C52.4657 81.976 52.4107 80.5239 52.3447 79.0938C52.2236 79.1378 52.1026 79.1818 51.9816 79.2258C50.5076 79.7759 49.3415 80.4689 48.4724 81.0959C49.1545 80.0289 50.2105 78.6538 51.7616 77.3667C51.9156 77.2347 52.0696 77.1137 52.2236 77.0037C52.0806 74.7706 51.8606 72.5265 51.4866 70.1393C49.8035 70.6343 48.4724 71.3164 47.5044 71.9104C48.0214 70.7554 48.9565 69.0393 50.6286 67.4002C50.7386 67.2902 50.8376 67.1912 50.9476 67.0922C50.5516 65.134 50.0345 63.0549 49.3525 60.7998C47.8784 55.2115 45.1833 51.2293 43.3572 48.9521C42.1031 49.7882 40.332 51.1193 38.5279 53.0444C29.7824 62.4059 30.1784 75.2876 30.3324 80.2599C30.3984 82.35 30.9485 95.1437 38.8139 106.892C40.53 109.444 41.19 109.863 48.7695 120.203C53.4337 126.561 54.7648 128.564 56.0849 130.885C59.297 136.517 61.0681 141.588 62.0802 145.075C61.6072 134.691 59.9021 125.362 58.274 118.289Z" fill="#29AA63"/>
<path d="M62.8955 165.152C62.8295 165.152 62.7855 165.097 62.7855 165.031C63.0826 159.63 62.9505 154.173 62.4225 148.805C61.2235 135.868 53.699 117.431 50.0798 108.565C49.3648 106.816 48.8038 105.43 48.4847 104.571C45.0966 95.375 43.0284 85.6174 42.3574 75.5959C41.8514 68.0825 42.1154 60.349 43.1605 52.6046C43.1715 52.5496 43.2265 52.5056 43.2815 52.5056C43.3365 52.5166 43.3805 52.5716 43.3805 52.6266C42.3464 60.349 42.0824 68.0715 42.5884 75.5739C43.2595 85.5734 45.3166 95.309 48.7048 104.494C49.0128 105.342 49.5848 106.728 50.2998 108.477C53.919 117.354 61.4545 135.813 62.6535 148.783C63.1816 154.151 63.3026 159.63 63.0166 165.042C63.0056 165.108 62.9505 165.152 62.8955 165.152Z" fill="#8A8A8A" fill-opacity="0.3" style="mix-blend-mode:multiply"/>
<path d="M41.443 50.3936C40.0789 52.1647 39.1658 53.7157 38.5938 54.7828C35.5026 60.5141 34.8096 65.9484 34.3476 69.8536C34.1496 71.5587 34.1276 72.3178 33.9846 74.6059C33.7095 78.7421 33.2035 84.6714 32.1585 92.0969C30.5854 86.4535 30.2113 81.6133 30.1783 78.1921C30.1563 75.4749 30.1563 71.1627 31.6414 65.8274C32.0594 64.3533 32.6315 62.3182 33.8415 59.8981C36.0967 55.3878 39.1438 52.3077 41.443 50.3936Z" fill="#54D391"/>
<path d="M55.5016 159.421C49.4953 142.37 35.6675 142.656 25.899 139.796C22.7968 138.894 21.0477 138.035 20.0137 137.265C20.5637 136.968 21.3447 136.55 22.3018 136.121C23.3689 135.637 26.515 134.24 29.9032 133.745C35.2275 132.975 39.6938 134.658 40.6948 135.054C50.3643 138.883 53.5985 148.783 54.1816 150.587C55.3586 154.162 55.5346 157.32 55.5016 159.421Z" fill="#54D391"/>
<path d="M55.8188 164.899C55.7638 164.899 55.7088 164.855 55.7088 164.789V164.756C55.6538 161.379 55.5218 153.47 51.0666 146.968C48.4044 143.074 44.7082 140.148 40.385 138.498C35.9407 136.804 30.8255 136.463 25.5892 137.53C25.5342 137.541 25.4682 137.508 25.4572 137.442C25.4462 137.387 25.4792 137.321 25.5452 137.31C30.8255 136.243 35.9847 136.573 40.462 138.289C44.8292 139.95 48.5584 142.909 51.2426 146.836C55.7308 153.393 55.8628 161.346 55.9178 164.745V164.778C55.9288 164.844 55.8848 164.899 55.8188 164.899Z" fill="#8A8A8A" fill-opacity="0.3" style="mix-blend-mode:multiply"/>
<path d="M58.3951 88.8406C59.4952 85.1554 60.0342 81.9872 60.3202 79.6661C57.174 80.3371 50.4527 82.1412 44.4463 87.1245C37.934 92.5258 36.0199 98.5101 35.2498 101.073C34.5458 104.087 34.2268 107.212 34.3808 110.424C35.2718 110.787 36.2729 111.315 37.2849 112.074C39.298 113.581 40.3981 115.319 40.9481 116.32C40.0461 115.847 38.649 115.253 36.8559 115C36.1519 114.901 35.5028 114.879 34.9198 114.89C35.4918 117.97 36.5369 121.127 38.11 124.351C38.627 124.351 39.188 124.395 39.7821 124.505C41.8502 124.879 43.2913 125.847 44.0283 126.408C42.9722 126.199 41.2782 126.034 39.342 126.551C39.32 126.562 39.298 126.562 39.276 126.573C42.7632 132.777 48.2745 139.201 56.382 145.758C56.052 144.801 51.3217 134.768 49.9576 131.281C48.0435 126.408 47.8675 122.293 47.7795 119.785C47.7355 109.148 51.7397 105.022 55.4469 96.662C57.295 92.4598 58.1751 89.5446 58.3951 88.8406Z" fill="#54D391"/>
<path d="M60.475 164.822H60.464C60.409 164.811 60.365 164.756 60.365 164.701C60.717 162.127 60.75 159.531 60.475 156.989C59.958 151.5 56.8338 146.638 53.2146 141.006C47.8793 132.7 41.84 123.284 42.555 108.961C43.127 101.722 46.2182 94.572 51.4875 88.2686C51.5315 88.2246 51.5975 88.2136 51.6415 88.2576C51.6855 88.3016 51.6965 88.3676 51.6525 88.4116C46.4162 94.682 43.347 101.788 42.775 108.972C42.071 123.218 48.0883 132.601 53.4016 140.874C57.0318 146.528 60.167 151.412 60.695 156.956C60.97 159.52 60.937 162.127 60.585 164.712C60.574 164.789 60.519 164.822 60.475 164.822Z" fill="#8A8A8A" fill-opacity="0.3" style="mix-blend-mode:multiply"/>
<path d="M65.4481 160.4C69.3203 148.365 76.2177 146.583 80.519 143.569C84.2482 141.116 90.1775 138.047 94.4237 129.818C94.4237 129.818 87.7684 128.949 81.399 132.744C74.6006 136.583 70.8494 142.37 70.2774 143.283C65.7892 150.378 65.4261 157.375 65.4481 160.4Z" fill="#29AA63"/>
<path d="M65.5894 165.119C65.5344 165.119 65.4904 165.075 65.4794 165.02C64.9733 159.982 65.4464 155.251 66.8984 150.961C68.1635 147.21 70.1656 143.789 72.8608 140.775C76.579 136.616 80.8142 134.13 83.7074 132.766C87.0736 131.193 90.6378 130.225 93.2119 130.192C93.2669 130.192 93.3219 130.236 93.3219 130.302C93.3219 130.368 93.2779 130.412 93.2119 130.412C90.6598 130.445 87.1396 131.391 83.7954 132.964C80.9132 134.317 76.711 136.781 73.0148 140.918C70.3416 143.91 68.3505 147.309 67.0964 151.027C65.6554 155.284 65.1823 159.982 65.6884 164.987C65.6994 165.042 65.6554 165.097 65.5894 165.108C65.6004 165.119 65.6004 165.119 65.5894 165.119Z" fill="#8A8A8A" fill-opacity="0.3" style="mix-blend-mode:multiply"/>
<path d="M61.8821 129.543C62.4321 135.791 64.4562 141.38 66.1503 148.552C67.1073 152.611 67.8554 155.944 68.3394 158.111C68.7024 156.626 69.1535 154.371 69.3735 151.599C69.6925 147.474 69.2745 144.845 69.0985 141.941C68.1414 130.819 70.4295 126.122 72.9267 120.984C72.5306 120.874 72.1016 120.786 71.6396 120.709C70.3965 120.511 69.3075 120.522 68.4604 120.599C69.1205 120.038 70.5065 119.037 72.5196 118.729C73.0697 118.652 73.5867 118.63 74.0377 118.652C74.8958 116.782 75.7208 114.736 76.3919 112.228C77.9759 107.509 78.768 103.471 79.197 100.787C76.8429 101.271 59.8249 106.981 61.8821 129.543Z" fill="#54D391"/>
<path d="M67.9754 165.031H67.9644C67.9094 165.02 67.8654 164.965 67.8654 164.91C68.3824 160.906 68.5805 155.636 66.5453 144.185C66.5013 143.833 66.4573 143.481 66.4133 143.129C65.1923 133.745 63.6852 122.063 70.9676 110.083C71.7596 108.774 72.6397 107.498 73.5857 106.299C73.6187 106.255 73.6957 106.244 73.7397 106.277C73.7837 106.31 73.7947 106.387 73.7617 106.431C72.8267 107.63 71.9466 108.895 71.1656 110.193C63.9162 122.107 65.4343 133.745 66.6444 143.096C66.6884 143.448 66.7324 143.8 66.7764 144.141C68.8115 155.603 68.6135 160.906 68.0964 164.921C68.0744 164.987 68.0304 165.031 67.9754 165.031Z" fill="#8A8A8A" fill-opacity="0.3" style="mix-blend-mode:multiply"/>
<circle cx="327.843" cy="61.5091" r="1.2479" fill="#A2E9FC"/>
<circle cx="113.129" cy="161.386" r="0.935928" fill="#A2E9FC"/>
<circle cx="104.741" cy="156.495" r="2.74093" fill="#A2E9FC"/>
<circle cx="18.2953" cy="24.6435" r="2.29525" fill="#A2E9FC"/>
<circle cx="29.3164" cy="17.9805" r="0.980496" fill="#A2E9FC"/>
<circle cx="302.351" cy="167.615" r="3.56544" fill="#A2E9FC"/>
<circle cx="311.376" cy="174.556" r="1.33704" fill="#A2E9FC"/>
<circle cx="320.936" cy="169.23" r="1.55988" fill="#A2E9FC"/>
<circle cx="321.627" cy="63.0692" r="2.75207" fill="#A2E9FC"/>
<circle cx="41.472" cy="24.5878" r="1.55988" fill="#A2E9FC"/>
<circle cx="277.325" cy="118.344" r="6.41779" fill="#A2E9FC"/>
<path d="M144.717 101.761C144.686 101.771 144.634 101.792 144.572 101.802C144.283 101.864 144.036 101.75 143.871 101.678C143.541 101.513 142.406 100.894 140.911 99.9868C140.89 99.9662 140.859 99.9147 140.839 99.8425C140.818 99.729 140.87 99.6465 140.88 99.6259C141.293 99.4918 141.633 99.4815 141.901 99.5021C143.675 99.6259 144.634 101.575 144.717 101.761Z" fill="#262F69"/>
<ellipse cx="173.391" cy="179.463" rx="18.1483" ry="4.53708" fill="#EAEBEC"/>
<path d="M173.841 168.147C173.914 168.395 174.017 168.756 174.099 169.189C174.202 169.767 174.285 170.2 174.223 170.726C174.202 170.891 174.13 171.51 173.8 172.025C173.15 173.057 171.469 173.779 170.211 173.067C169.551 172.685 169.097 171.963 169.015 171.262C168.974 170.881 169.066 170.685 169.2 169.829C169.314 169.117 169.355 168.529 169.376 168.147C169.417 167.9 169.52 167.549 169.768 167.23C170.428 166.384 171.82 166.075 172.81 166.693C173.542 167.147 173.78 167.91 173.841 168.147Z" fill="#F38484"/>
<path fill-rule="evenodd" clip-rule="evenodd" d="M174.749 175.336C174.831 175.449 175.46 177.295 173.82 177.564C172.717 177.646 172.17 177.687 171.624 177.564C169.839 177.141 168.798 175.46 168.633 175.192C169.221 175.47 170.2 175.841 171.459 175.913C172.985 176.017 174.109 175.604 174.749 175.336Z" fill="#BF2652"/>
<path fill-rule="evenodd" clip-rule="evenodd" d="M174.356 170.592C174.273 170.416 174.139 170.293 173.985 170.21C173.139 169.808 172.015 170.148 171.313 170.746C170.818 171.169 170.839 171.479 170.334 171.747C169.87 171.994 169.385 171.984 169.065 171.943C168.921 172.293 168.766 172.737 168.673 173.283C168.539 174.036 168.57 174.676 168.632 175.14C169.189 175.429 170.055 175.79 171.179 175.903C172.809 176.068 174.098 175.635 174.737 175.356C174.861 174.738 174.851 172.19 174.356 170.592Z" fill="#BF2652"/>
<path d="M171.17 170.52C171.221 170.705 171.427 172.985 171.613 173.706C171.902 175.831 169.138 176.625 167.694 175.955C166.25 175.284 165.93 173.758 165.899 173.593C166.033 173.232 166.033 171.334 165.992 171.004C165.972 170.344 166.085 169.952 166.219 169.736C166.982 168.612 168.993 168.529 170.262 169.354C170.86 169.756 170.984 170.159 171.17 170.52Z" fill="#F7B2B2"/>
<path fill-rule="evenodd" clip-rule="evenodd" d="M172.563 177.625C172.645 177.811 172.789 178.43 172.841 178.77C172.903 179.214 172.655 179.987 172.068 180.255C171.284 180.492 168.963 180.884 167.798 180.75C165.591 180.42 160.444 178.461 160.444 178.461C159.888 178.089 159.795 177.584 159.918 177.13C159.918 177.13 163.208 177.966 164.26 177.966C165.941 177.955 166.736 177.749 168.592 177.718C170.294 177.698 171.655 177.502 172.563 177.625Z" fill="#BF2652"/>
<path fill-rule="evenodd" clip-rule="evenodd" d="M171.68 173.325C171.278 172.458 169.689 172.943 167.864 174.191C166.998 174.882 166.173 174.377 165.894 173.551C165.162 174.696 161.109 175.253 160.242 176.006C159.727 176.491 159.768 176.852 159.85 177.347C160.583 177.708 164.285 179.131 166.616 179.131C167.75 179.079 170.772 177.832 172.598 177.759C172.701 177.336 172.051 174.108 171.68 173.325Z" fill="#F95070"/>
<path fill-rule="evenodd" clip-rule="evenodd" d="M162.797 175.027C162.694 175.13 162.622 175.223 162.529 175.336C163.87 175.058 165.551 174.397 166.139 174.006C165.964 173.737 165.943 173.603 165.964 173.366C165.86 173.861 165.035 174.253 164.303 174.532C163.592 174.779 163.055 174.944 162.797 175.027Z" fill="#BF2652"/>
<path fill-rule="evenodd" clip-rule="evenodd" d="M161.434 177.976C161.455 177.698 161.506 177.378 161.609 177.037C161.888 176.078 162.424 175.418 162.785 175.037C162.146 175.233 161.744 175.346 161.465 175.429C161.114 175.532 160.805 175.625 160.454 175.862C160.186 176.047 160.062 176.192 159.99 176.305C159.939 176.398 159.805 176.604 159.794 176.914C159.784 177.11 159.836 177.264 159.867 177.357C160.227 177.522 160.619 177.687 161.032 177.842C161.166 177.883 161.3 177.924 161.434 177.976Z" fill="#FC6C85"/>
<ellipse cx="163.063" cy="175.533" rx="0.319725" ry="0.144392" transform="rotate(-8.89906 163.063 175.533)" fill="white"/>
<ellipse cx="163.993" cy="175.298" rx="0.27845" ry="0.144382" transform="rotate(-15.4566 163.993 175.298)" fill="white"/>
<ellipse cx="164.868" cy="175.023" rx="0.257828" ry="0.144384" transform="rotate(-20.7203 164.868 175.023)" fill="white"/>
<ellipse cx="165.631" cy="174.684" rx="0.257828" ry="0.144384" transform="rotate(-20.7203 165.631 174.684)" fill="white"/>
<path fill-rule="evenodd" clip-rule="evenodd" d="M163.006 175.563H162.995C162.964 175.553 162.954 175.532 162.954 175.501C162.975 175.408 163.047 175.13 163.15 174.893C163.16 174.862 163.191 174.851 163.222 174.862C163.253 174.872 163.264 174.903 163.253 174.934C163.15 175.171 163.078 175.439 163.057 175.532C163.057 175.542 163.037 175.563 163.006 175.563Z" fill="white"/>
<path fill-rule="evenodd" clip-rule="evenodd" d="M163.963 175.346C163.932 175.346 163.911 175.315 163.911 175.284L163.921 175.202C163.942 175.016 163.973 174.789 164.035 174.593C164.045 174.562 164.076 174.552 164.097 174.562C164.128 174.573 164.138 174.604 164.128 174.624C164.066 174.82 164.045 175.037 164.025 175.223L164.014 175.305C164.014 175.326 163.983 175.346 163.963 175.346Z" fill="white"/>
<path fill-rule="evenodd" clip-rule="evenodd" d="M164.842 175.037C164.811 175.037 164.79 175.016 164.79 174.985C164.8 174.769 164.811 174.552 164.873 174.253C164.883 174.222 164.903 174.212 164.934 174.212C164.965 174.222 164.976 174.243 164.976 174.274C164.914 174.563 164.903 174.769 164.903 174.985C164.893 175.016 164.873 175.037 164.842 175.037Z" fill="white"/>
<path fill-rule="evenodd" clip-rule="evenodd" d="M165.601 174.717C165.57 174.717 165.549 174.696 165.549 174.666C165.528 174.294 165.59 173.892 165.632 173.779C165.642 173.748 165.673 173.737 165.693 173.748C165.724 173.758 165.735 173.789 165.724 173.81C165.693 173.892 165.621 174.284 165.642 174.655C165.662 174.686 165.632 174.707 165.601 174.717C165.611 174.717 165.601 174.717 165.601 174.717Z" fill="white"/>
<path fill-rule="evenodd" clip-rule="evenodd" d="M165.685 173.841C165.675 173.841 165.664 173.841 165.654 173.83C165.252 173.48 164.808 173.253 164.344 173.16C163.87 173.057 163.488 173.108 163.138 173.15C162.735 173.201 162.416 173.243 162.158 173.005C161.838 172.706 161.807 172.17 161.972 171.85C162.313 171.211 163.323 170.994 164.138 171.396C165.293 171.974 165.716 173.583 165.737 173.789C165.737 173.81 165.726 173.83 165.706 173.841C165.695 173.841 165.695 173.841 165.685 173.841ZM163.768 172.997C163.953 172.997 164.149 173.017 164.356 173.058C164.799 173.151 165.212 173.357 165.593 173.657C165.48 173.234 165.078 171.986 164.088 171.491C163.324 171.109 162.376 171.305 162.056 171.893C161.901 172.171 161.932 172.666 162.221 172.924C162.437 173.131 162.726 173.089 163.118 173.038C163.314 173.017 163.531 172.997 163.768 172.997Z" fill="white"/>
<path fill-rule="evenodd" clip-rule="evenodd" d="M163.385 174.336C162.787 174.294 162.55 173.995 162.457 173.748C162.313 173.356 162.436 172.892 162.643 172.675C163.148 172.118 164.056 172.129 164.644 172.407C165.417 172.778 165.675 173.562 165.737 173.799C165.737 173.82 165.737 173.83 165.726 173.851C165.716 173.861 165.695 173.872 165.685 173.872C165.242 173.799 164.839 173.83 164.479 173.954C164.293 174.016 164.148 174.088 164.025 174.15C163.808 174.233 163.633 174.325 163.385 174.336ZM163.788 172.315C163.396 172.315 162.993 172.439 162.715 172.738C162.529 172.924 162.416 173.357 162.55 173.697C162.633 173.914 162.849 174.192 163.385 174.223C163.602 174.213 163.767 174.141 163.963 174.038C164.087 173.976 164.241 173.903 164.427 173.831C164.788 173.708 165.18 173.677 165.603 173.728C165.51 173.45 165.252 172.8 164.592 172.48C164.365 172.387 164.076 172.315 163.788 172.315Z" fill="white"/>
<path fill-rule="evenodd" clip-rule="evenodd" d="M165.686 173.82C165.655 173.82 165.634 173.789 165.634 173.768C165.655 173.387 165.624 172.799 165.335 172.201C164.778 171.076 163.685 170.664 163.355 170.561C163.324 170.55 163.314 170.52 163.324 170.499C163.334 170.468 163.365 170.458 163.386 170.468C163.716 170.571 164.851 170.994 165.428 172.159C165.737 172.778 165.768 173.387 165.737 173.779C165.737 173.799 165.707 173.82 165.686 173.82Z" fill="white"/>
<path fill-rule="evenodd" clip-rule="evenodd" d="M165.644 173.841C165.634 173.841 165.613 173.83 165.603 173.82C165.324 173.48 164.85 173.036 164.138 172.83C162.694 172.407 161.457 173.335 161.323 173.438C161.302 173.459 161.271 173.449 161.251 173.428C161.23 173.407 161.24 173.376 161.261 173.356C161.488 173.18 162.705 172.294 164.169 172.727C164.912 172.943 165.407 173.407 165.685 173.758C165.706 173.779 165.696 173.81 165.675 173.83C165.675 173.83 165.665 173.841 165.644 173.841Z" fill="white"/>
<path d="M188.158 100.667C187.869 101.276 187.343 102.214 186.487 103.143C184.775 104.999 182.702 105.772 180.64 106.319C176.68 107.371 170.172 109.104 162.055 106.618C160.281 106.072 157.94 105.174 155.352 103.648C155.826 103.07 156.692 102.122 157.992 101.369C163.736 98.0066 169.79 102.978 179.547 102.493C181.537 102.39 184.528 102.018 188.158 100.667Z" fill="#262F69"/>
<path fill-rule="evenodd" clip-rule="evenodd" d="M176.756 138.559C176.736 139.446 176.715 140.756 176.715 142.344C176.694 148.779 176.973 148.81 176.859 151.265C176.643 156.081 175.55 156.731 174.797 163.692C174.601 165.559 174.508 167.096 174.456 168.107C174.188 168.478 173.889 168.705 173.642 168.859C172.425 169.581 170.661 169.231 169.104 168.096C169.063 166.993 169.001 165.312 168.918 163.27C168.66 156.824 168.495 154.235 168.433 152.461C168.33 149.151 168.485 144.314 169.743 138.054C169.846 137.816 170.568 136.207 172.177 135.805C173.889 135.362 175.9 136.465 176.756 138.559Z" fill="#027BC6"/>
<path fill-rule="evenodd" clip-rule="evenodd" d="M179.841 125.172C179.088 127.967 178.047 132.02 176.943 137.084C176.984 137.373 177.088 138.404 176.469 139.405C176.417 139.477 175.706 140.601 174.334 140.91C172.622 141.302 171.003 140.168 170.188 139.085C169.311 137.919 169.249 136.62 169.198 135.424C168.981 129.627 169.084 124.698 169.105 123.553C169.167 120.345 169.084 119.964 169.219 117.561C169.425 113.724 169.796 111.816 170.033 110.723C170.683 107.815 171.003 106.371 172.106 105.329C173.942 103.607 176.737 103.566 178.676 104.174C179.037 104.288 183.42 104.618 183.255 109.156C183.234 109.919 180.996 120.902 179.841 125.172Z" fill="#0A9CE5"/>
<path fill-rule="evenodd" clip-rule="evenodd" d="M175.303 160.021C175.138 160.856 175.169 161.506 175.231 161.939C175.334 162.682 175.54 163.032 175.468 163.651C175.396 164.249 175.107 164.703 174.88 164.992C174.973 165.26 175.076 165.621 175.087 166.054C175.107 167.075 174.643 167.818 174.437 168.117C173.983 168.261 173.643 168.251 173.405 168.086C172.56 167.467 173.189 164.786 175.303 160.021Z" fill="#027BC6"/>
<path d="M164.496 161.805C164.795 163.208 164.692 164.208 164.527 164.889C164.445 165.229 164.259 165.848 164.455 166.57C164.579 167.003 164.795 167.323 164.971 167.529C164.826 167.807 164.599 168.313 164.589 168.973C164.579 170.18 165.208 171.005 165.445 171.17C165.517 169.86 165.548 168.375 165.383 166.704C165.208 164.827 164.867 163.177 164.496 161.805Z" fill="white" fill-opacity="0.3" style="mix-blend-mode:lighten"/>
<path fill-rule="evenodd" clip-rule="evenodd" d="M178.253 130.793C178.026 131.855 178.047 132.649 178.119 133.196C178.161 133.526 178.243 133.98 178.088 134.537C177.965 134.97 177.738 135.289 177.573 135.496C177.676 135.774 177.769 136.197 177.748 136.692C177.676 137.868 176.944 138.631 176.717 138.858C176.583 137.981 176.51 136.816 176.686 135.465C176.944 133.361 177.696 131.762 178.253 130.793Z" fill="#027BC6"/>
<path fill-rule="evenodd" clip-rule="evenodd" d="M179.841 125.172C179.088 127.967 178.047 132.02 176.943 137.084C176.984 137.373 177.088 138.404 176.469 139.405C176.417 139.477 175.706 140.601 174.334 140.91C172.622 141.302 171.003 140.168 170.188 139.085C169.311 137.919 169.249 136.62 169.198 135.424C168.981 129.627 169.084 124.698 169.105 123.553C169.167 120.345 169.084 119.964 169.219 117.561C169.425 113.724 169.796 111.816 170.033 110.723C170.683 107.815 171.003 106.371 172.106 105.329C173.942 103.607 176.737 103.566 178.676 104.174C179.037 104.288 183.42 104.618 183.255 109.156C183.234 109.919 180.996 120.902 179.841 125.172Z" fill="#027BC6"/>
<path fill-rule="evenodd" clip-rule="evenodd" d="M180.254 100.234C181.801 100.296 183.4 101.152 183.503 102.648C183.668 104.504 183.709 106.257 183.276 108.774C178.82 111.899 174.149 111.043 170.694 110.187C167.032 109.949 163.516 109.743 159.359 109.527C157.616 109.434 156.286 107.98 156.399 106.299C156.42 105.979 156.441 105.659 156.472 105.339C156.585 104.122 156.75 102.988 156.956 101.926C157.245 100.441 158.617 99.3783 160.174 99.4402C166.867 99.7083 173.561 99.9765 180.254 100.234Z" fill="#0A9CE5"/>
<path d="M172.757 139.57C171.045 139.972 170.519 139.477 170.189 139.054C169.312 137.837 169.251 136.486 169.199 135.238C168.972 129.195 169.086 124.048 169.106 122.862C169.168 119.521 169.086 119.118 169.209 116.612C169.416 112.621 169.622 110.95 169.869 109.816C170.767 110.249 171.922 110.548 173.469 110.785C173.448 113.003 171.953 123.842 172.757 139.57Z" fill="#8A8A8A" fill-opacity="0.3" style="mix-blend-mode:multiply"/>
<path d="M172.157 169.231C171.187 169.22 170.104 168.818 169.104 168.086C169.063 166.982 169.001 165.301 168.918 163.259C168.66 156.813 168.495 154.225 168.433 152.451C168.33 149.14 168.485 144.303 169.743 138.043C169.846 137.806 170.641 137.29 172.249 136.888C175.034 149.223 171.342 161.98 172.157 169.231Z" fill="#8A8A8A" fill-opacity="0.3" style="mix-blend-mode:multiply"/>
<path fill-rule="evenodd" clip-rule="evenodd" d="M171.404 138.435C171.59 139.642 171.848 141.498 172.003 143.777C172.364 148.882 172.054 153.1 171.796 156.494C171.435 161.238 171.074 162.393 171.229 165.745C171.322 167.869 171.569 169.932 171.776 171.221C169.404 172.294 166.598 171.974 165.443 171.169C165.402 170.241 165.33 168.56 165.175 166.889C164.825 163.177 164.34 161.124 163.907 158.608C162.999 153.307 162.875 149.068 162.782 146.025C162.679 142.766 162.752 140.003 162.855 137.94C162.844 137.465 162.855 136.032 163.834 134.98C165.309 133.392 168.145 133.557 169.806 134.99C171.208 136.197 171.373 137.971 171.404 138.435Z" fill="#0A9CE5"/>
<path fill-rule="evenodd" clip-rule="evenodd" d="M169.127 105.123C169.498 105.897 169.972 107.021 170.313 108.434C170.735 110.166 170.766 111.528 170.787 112.074C170.942 117.829 171.251 123.584 171.375 129.339C171.416 131.36 171.509 134.31 171.715 137.92C171.736 138.404 171.725 139.755 170.839 140.828C169.518 142.427 167.105 142.385 165.496 141.56C163.083 140.312 162.774 137.404 162.753 137.208C161.979 133.258 161.206 130.112 160.649 128.008C159.896 125.141 158.38 119.778 158.133 118.922C157.122 115.344 156.709 113.951 156.472 111.755C156.214 109.28 156.307 107.299 156.421 105.897C157.173 104.236 158.246 103.318 158.803 102.916C161.433 100.998 165.321 101.153 167.662 103.205C168.415 103.886 168.869 104.639 169.127 105.123Z" fill="#0A9CE5"/>
<path fill-rule="evenodd" clip-rule="evenodd" d="M183.133 100.111C183.381 101.059 183.597 102.194 183.68 103.473C183.845 105.783 183.546 107.742 183.195 109.166C182.576 109.527 181.957 109.898 181.339 110.259C181.576 109.805 181.875 109.135 182.03 108.268C182.112 107.794 182.143 107.361 182.133 106.969C182.122 106.36 181.638 105.865 181.029 105.845C179.812 105.804 178.203 105.721 176.337 105.525C170.159 104.886 167.952 103.751 163.713 103.875C162.032 103.926 159.495 104.215 156.463 105.278C156.535 104.298 156.875 102.019 156.875 102.019C157.659 101.606 158.536 101.214 159.392 100.853C168.251 97.1713 177.141 98.4501 183.133 100.111Z" fill="#027BC6"/>
<path d="M162.744 137.208C161.97 133.258 161.197 130.112 160.64 128.008C159.887 125.141 158.371 119.778 158.123 118.922C157.113 115.344 156.7 113.951 156.463 111.755C158.165 113.539 160.011 119.036 161.001 123.058C162.867 130.68 162.754 137.332 162.744 137.208Z" fill="white" fill-opacity="0.3" style="mix-blend-mode:lighten"/>
<path d="M164.959 154.018C165.577 159.711 166.124 166.704 165.443 171.169C165.402 170.241 165.33 168.56 165.175 166.889C164.825 163.177 164.34 161.124 163.907 158.608C162.999 153.307 162.875 149.068 162.782 146.026C162.679 142.767 162.752 140.003 162.855 137.94C162.844 137.466 163.587 146.067 164.959 154.018Z" fill="white" fill-opacity="0.3" style="mix-blend-mode:lighten"/>
<path d="M176.409 110.991C175.987 110.991 175.595 110.981 175.234 110.96C173.687 110.898 172.15 110.651 170.644 110.207C169.458 110.527 168.231 110.712 167.014 110.754C164.694 110.826 162.394 110.382 160.197 109.444C160.166 109.434 160.156 109.403 160.166 109.372C160.176 109.341 160.207 109.331 160.238 109.341C162.425 110.279 164.694 110.712 167.004 110.64C168.221 110.599 169.438 110.413 170.624 110.094H170.634H170.644C172.15 110.537 173.687 110.785 175.223 110.847C176.533 110.898 178.163 110.96 180.143 110.3C180.875 110.052 181.587 109.733 182.257 109.341C182.278 109.331 182.309 109.331 182.329 109.361C182.34 109.382 182.34 109.413 182.309 109.434C181.628 109.826 180.916 110.156 180.174 110.403C178.751 110.888 177.492 110.991 176.409 110.991Z" fill="#8A8A8A" fill-opacity="0.3" style="mix-blend-mode:multiply"/>
<path d="M138.115 113.353C138.095 113.353 138.084 113.342 138.074 113.322L137.682 112.61C137.62 112.497 137.476 112.455 137.363 112.517C137.342 112.528 137.311 112.528 137.29 112.497C137.28 112.476 137.28 112.445 137.311 112.424C137.476 112.332 137.682 112.393 137.765 112.558L138.157 113.27C138.167 113.291 138.157 113.322 138.136 113.342C138.126 113.353 138.126 113.353 138.115 113.353Z" fill="#F38484"/>
<path d="M138.468 115.219C138.448 115.219 138.437 115.209 138.427 115.199C138.365 115.096 138.303 115.003 138.252 114.9C138.2 114.807 138.138 114.704 138.076 114.611C137.983 114.477 137.808 114.436 137.674 114.518C137.653 114.528 137.612 114.528 137.602 114.497C137.592 114.477 137.592 114.446 137.622 114.425C137.808 114.312 138.045 114.374 138.169 114.549C138.231 114.652 138.293 114.745 138.344 114.848C138.396 114.941 138.458 115.044 138.52 115.137C138.54 115.158 138.53 115.188 138.509 115.209C138.489 115.219 138.479 115.219 138.468 115.219Z" fill="#F38484"/>
<path d="M137.849 115.962C137.828 115.962 137.808 115.952 137.797 115.931L137.508 115.199C137.457 115.075 137.333 115.013 137.209 115.054C137.178 115.065 137.147 115.044 137.147 115.023C137.147 115.003 137.147 114.972 137.178 114.962C137.354 114.91 137.539 114.992 137.601 115.168L137.89 115.9C137.9 115.931 137.89 115.952 137.859 115.962C137.859 115.962 137.859 115.962 137.849 115.962Z" fill="#F38484"/>
<path d="M142.332 103.916C142.374 104.164 142.415 104.514 142.404 104.947C142.384 105.855 142.136 106.536 141.806 107.402C141.466 108.289 141.27 108.547 140.93 109.557C140.878 109.702 140.796 109.97 140.703 110.248C140.517 110.826 140.373 111.311 140.28 111.641C140.27 111.703 140.239 111.919 140.053 112.074C139.867 112.239 139.589 112.28 139.372 112.187C139.084 112.074 138.991 111.795 138.96 111.682C138.908 111.517 138.898 111.362 138.96 111.043C139.022 110.692 139.053 110.517 139.187 110.145C139.31 109.805 139.465 109.279 139.548 108.547C139.527 108.526 139.424 108.444 139.269 108.454C139.125 108.464 139.001 108.567 138.95 108.712C138.774 109.011 138.599 109.351 138.434 109.743C138.186 110.331 138.032 110.888 137.939 111.342C137.588 110.878 137.423 110.455 137.361 110.083C136.959 108.072 138.98 105.607 142.332 103.916Z" fill="#F38484"/>
<path d="M141.119 99.6875C140.789 100.224 138.995 102.916 136.582 106.721C136.386 107.031 136.272 107.392 136.241 107.763C136.169 108.928 136.138 110.104 136.066 111.269C136.045 111.496 136.076 111.723 136.148 111.94C136.582 113.208 137.015 114.477 137.438 115.735C137.499 115.931 137.747 116.003 137.902 115.879C137.902 115.879 137.902 115.879 137.912 115.869C138.149 115.663 138.139 115.353 138.139 115.322C138.221 115.281 138.448 115.24 138.562 115.085C138.768 114.807 138.665 114.466 138.654 114.384L138.19 113.219C138.242 113.136 138.294 113.012 138.324 112.847C138.366 112.62 138.324 112.424 138.294 112.321C138.159 111.991 138.025 111.651 137.902 111.321C137.871 110.795 137.778 110.29 137.664 109.887C137.86 109.258 138.067 108.743 138.263 108.144C138.335 107.938 138.459 107.742 138.624 107.598C139.273 107.02 139.81 106.566 140.191 106.267C141.14 105.504 141.759 105.081 142.192 104.246C142.264 104.102 142.316 103.988 142.46 103.72C142.831 103.039 143.203 102.565 143.43 102.276C143.677 101.956 144.028 101.554 144.471 101.1C145.915 99.0068 143.017 97.0473 141.119 99.6875Z" fill="#F7B2B2"/>
<path d="M138.126 115.385C138.106 115.385 138.095 115.374 138.085 115.354C137.93 115.075 137.786 114.828 137.641 114.58C137.497 114.333 137.353 114.085 137.198 113.807L136.043 111.084C136.033 111.053 136.043 111.032 136.074 111.012C136.105 111.001 136.125 111.012 136.146 111.043L137.301 113.755C137.456 114.023 137.6 114.271 137.745 114.518C137.889 114.766 138.033 115.013 138.188 115.292C138.198 115.312 138.188 115.343 138.167 115.364C138.147 115.374 138.137 115.385 138.126 115.385Z" fill="#F38484"/>
<path d="M137.9 113.518C137.89 113.518 137.869 113.518 137.859 113.518C137.776 113.508 137.704 113.456 137.663 113.374C137.405 112.858 137.023 112.064 137.023 112.053C137.013 112.033 136.631 110.867 136.436 110.228C136.436 110.218 136.436 110.218 136.436 110.207L136.559 108.083C136.559 108.052 136.58 108.031 136.611 108.031C136.642 108.031 136.662 108.062 136.662 108.083L136.539 110.197C136.735 110.836 137.116 111.992 137.116 112.002C137.116 112.002 137.488 112.796 137.756 113.312C137.776 113.353 137.818 113.384 137.869 113.394C137.921 113.404 137.962 113.384 137.993 113.353C138.055 113.291 138.117 113.209 138.158 113.136C138.168 113.116 138.199 113.105 138.23 113.116C138.251 113.126 138.261 113.157 138.251 113.188C138.199 113.281 138.148 113.363 138.075 113.425C138.034 113.497 137.972 113.518 137.9 113.518Z" fill="#F38484"/>
<path d="M141.118 99.6877C140.788 100.224 138.993 102.916 136.58 106.721C136.384 107.031 138.199 104.752 138.88 103.916C140.025 102.514 141.376 100.637 141.922 99.8631C141.778 99.8321 141.108 99.6774 141.118 99.6877Z" fill="white" fill-opacity="0.3" style="mix-blend-mode:lighten"/>
<path d="M137.734 116.003C137.704 116.003 137.673 116.003 137.642 115.993C137.528 115.962 137.435 115.88 137.404 115.766L136.115 111.971C136.043 111.744 136.012 111.517 136.022 111.28C136.064 110.661 136.095 110.022 136.115 109.413C136.136 108.877 136.167 108.32 136.198 107.773C136.218 107.392 136.342 107.031 136.538 106.711C136.806 106.299 137.054 105.896 137.301 105.504C137.312 105.484 137.353 105.474 137.373 105.484C137.394 105.494 137.404 105.535 137.394 105.556C137.147 105.938 136.889 106.34 136.631 106.763C136.435 107.062 136.322 107.412 136.301 107.784C136.27 108.33 136.239 108.887 136.218 109.424C136.187 110.032 136.167 110.671 136.126 111.29C136.105 111.517 136.136 111.734 136.208 111.95L137.497 115.746C137.528 115.828 137.59 115.88 137.673 115.911C137.745 115.931 137.827 115.921 137.889 115.869C138.106 115.684 138.106 115.405 138.106 115.354C138.106 115.333 138.116 115.312 138.137 115.302C138.147 115.302 138.157 115.292 138.168 115.292C138.322 115.23 138.786 115.055 138.621 114.426L138.157 113.27C138.147 113.26 138.157 113.239 138.157 113.229C138.219 113.116 138.26 113.002 138.291 112.879C138.322 112.714 138.312 112.538 138.271 112.373L137.879 111.373C137.879 111.373 137.879 111.362 137.879 111.352C137.848 110.836 137.765 110.341 137.642 109.929C137.642 109.919 137.642 109.908 137.642 109.898C137.755 109.527 137.879 109.186 137.992 108.867C138.075 108.64 138.157 108.403 138.24 108.155C138.312 107.938 138.436 107.742 138.611 107.588C139.127 107.124 139.653 106.67 140.179 106.247C140.292 106.154 140.406 106.061 140.509 105.979C141.282 105.37 141.788 104.958 142.159 104.236C142.19 104.184 142.21 104.143 142.231 104.092C142.283 103.999 142.334 103.885 142.427 103.71C143.273 102.256 144.201 101.328 144.211 101.317C144.232 101.297 144.263 101.297 144.283 101.317C144.304 101.338 144.304 101.369 144.283 101.389C144.273 101.4 143.355 102.307 142.51 103.751C142.417 103.927 142.365 104.03 142.314 104.123C142.293 104.174 142.262 104.226 142.241 104.277C141.86 105.02 141.313 105.453 140.56 106.051C140.457 106.134 140.344 106.226 140.23 106.319C139.715 106.742 139.189 107.186 138.663 107.65C138.508 107.794 138.384 107.969 138.322 108.176C138.24 108.423 138.157 108.66 138.075 108.887C137.961 109.207 137.848 109.537 137.734 109.898C137.858 110.321 137.941 110.816 137.972 111.321L138.364 112.322C138.415 112.507 138.425 112.693 138.395 112.879C138.374 113.002 138.333 113.126 138.271 113.239L138.725 114.384C138.848 114.859 138.673 115.199 138.209 115.374C138.209 115.477 138.178 115.746 137.961 115.931C137.889 115.973 137.817 116.003 137.734 116.003Z" fill="#F38484"/>
<path d="M197.571 35.8483C197.561 35.8483 197.561 35.8483 197.551 35.8483C197.468 35.8483 197.386 35.807 197.313 35.7452C197.293 35.7245 197.293 35.6936 197.313 35.673C197.334 35.6523 197.365 35.6523 197.386 35.673C197.437 35.7245 197.499 35.7452 197.561 35.7555C197.643 35.7555 197.716 35.7245 197.839 35.6111C197.984 35.4873 198.128 35.3326 198.242 35.1676C198.262 35.147 198.293 35.1367 198.314 35.1573C198.334 35.1779 198.345 35.2089 198.324 35.2295C198.2 35.4048 198.056 35.5595 197.901 35.6936C197.788 35.7864 197.685 35.8483 197.571 35.8483Z" fill="#F38484"/>
<path d="M190.67 48.0823C190.897 47.2159 191.113 46.3393 191.34 45.473C192.124 43.5547 192.918 41.6467 193.702 39.7285C194.476 38.9137 195.259 38.0474 196.053 37.1089C196.559 36.5107 197.033 35.9332 197.487 35.3556C197.508 35.3144 197.621 35.1494 197.827 35.0772C197.858 35.0668 198.096 34.9947 198.24 35.1081C198.405 35.2319 198.436 35.5619 198.24 35.861C197.9 36.4179 197.518 36.9954 197.116 37.5833C196.703 38.1815 196.291 38.7384 195.888 39.2747C195.95 39.3159 196.002 39.3572 196.064 39.3984C196.61 39.0065 197.157 38.6146 197.704 38.2227C198.034 38.264 198.353 38.3052 198.683 38.3568C198.787 38.398 198.993 38.5115 199.117 38.7281C199.158 38.8106 199.209 38.9137 199.189 39.0375C199.158 39.1612 199.075 39.2334 199.034 39.2644C199.251 39.4294 199.426 39.5738 199.55 39.6872C199.612 39.7491 199.684 39.811 199.704 39.9141C199.735 40.0276 199.704 40.1616 199.622 40.2544C199.57 40.306 199.508 40.3473 199.343 40.3782C199.209 40.4091 198.993 40.4298 198.725 40.3988C198.549 40.5742 198.364 40.7495 198.178 40.9351C198.044 41.0692 197.9 41.193 197.765 41.3167C197.807 41.3786 197.858 41.4302 197.9 41.492C198.199 41.3373 198.508 41.193 198.807 41.0383C198.89 41.0176 199.034 40.997 199.199 41.0383C199.292 41.0589 199.488 41.1104 199.612 41.2961C199.787 41.5539 199.663 41.853 199.653 41.8839C199.56 42.1108 199.323 42.2759 199.055 42.2965C198.972 42.3068 198.89 42.3068 198.817 42.3171C198.673 42.4615 198.456 42.6884 198.209 42.9772C197.59 43.6578 197.353 44.0085 196.982 44.421C196.683 44.7614 196.239 45.2152 195.6 45.6999C195.249 46.9787 194.898 48.2576 194.537 49.5261C193.259 49.0311 191.969 48.5567 190.67 48.0823Z" fill="#F7B2B2"/>
<path d="M196.953 40.2932C196.943 40.2932 196.922 40.2829 196.912 40.2726C196.891 40.252 196.891 40.221 196.922 40.2004L198.046 39.2516C198.057 39.2413 198.067 39.2413 198.077 39.2413L199.005 39.1794C199.036 39.1794 199.057 39.2 199.057 39.2309C199.057 39.2619 199.036 39.2825 199.005 39.2825L198.098 39.3341L196.984 40.2726C196.984 40.2932 196.974 40.2932 196.953 40.2932Z" fill="#F38484"/>
<path d="M194.655 49.204H194.645C194.614 49.1937 194.603 49.1731 194.614 49.1421L195.573 45.6562C195.573 45.6459 195.583 45.6356 195.593 45.6253C196.099 45.2334 196.563 44.8105 196.965 44.3568C197.12 44.1814 197.254 44.0267 197.398 43.8411C197.605 43.5936 197.831 43.3048 198.192 42.9129C198.399 42.686 198.605 42.4694 198.811 42.2528C198.822 42.2425 198.832 42.2425 198.842 42.2425L199.079 42.2219C199.327 42.2013 199.543 42.0466 199.636 41.8403C199.647 41.8094 199.76 41.5412 199.605 41.304C199.492 41.139 199.306 41.0874 199.224 41.0668C199.11 41.0359 198.976 41.0359 198.863 41.0668L197.966 41.5206C197.945 41.5309 197.914 41.5206 197.904 41.5103L197.77 41.335C197.749 41.3143 197.759 41.2834 197.78 41.2628C197.914 41.139 198.048 41.0152 198.192 40.8812C198.378 40.7058 198.564 40.5305 198.739 40.3449C198.749 40.3346 198.77 40.3243 198.78 40.3346C198.987 40.3552 199.193 40.3552 199.378 40.3139C199.533 40.283 199.585 40.2521 199.626 40.2108C199.698 40.1386 199.719 40.0149 199.698 39.9117C199.678 39.8189 199.616 39.7673 199.554 39.7158C199.399 39.5714 199.224 39.427 199.038 39.2929C199.028 39.2826 199.017 39.2723 199.017 39.2517C199.017 39.231 199.028 39.2207 199.038 39.2104C199.079 39.1795 199.152 39.1176 199.172 39.0145C199.193 38.901 199.152 38.8185 199.11 38.7463C199.007 38.5607 198.842 38.4575 198.708 38.3957L197.759 38.2719L196.14 39.4373C196.119 39.4476 196.099 39.4476 196.078 39.4373L195.903 39.3135C195.893 39.3032 195.882 39.2929 195.882 39.2826C195.882 39.2723 195.882 39.2517 195.893 39.2414C196.315 38.6947 196.728 38.1275 197.12 37.5603C197.512 36.993 197.883 36.4155 198.244 35.838C198.43 35.5492 198.388 35.2604 198.254 35.147C198.141 35.0541 197.945 35.1057 197.893 35.1263C197.708 35.1779 197.615 35.3223 197.584 35.3842C197.12 35.9823 196.635 36.5702 196.15 37.1477C195.398 38.0347 194.603 38.9216 193.809 39.7673L191.448 45.5015C191.334 45.9347 191.241 46.3266 191.138 46.7288C191.035 47.131 190.942 47.5229 190.829 47.9664C190.818 47.9974 190.798 48.0077 190.767 48.0077C190.736 47.9974 190.726 47.9767 190.726 47.9458C190.839 47.5126 190.932 47.1104 191.035 46.7082C191.138 46.306 191.231 45.9141 191.344 45.4706L193.716 39.7261C193.716 39.7158 193.727 39.7158 193.727 39.7055C194.531 38.8598 195.325 37.9831 196.078 37.0859C196.563 36.5083 197.048 35.9205 197.512 35.3326C197.543 35.2707 197.666 35.1057 197.883 35.0335C197.966 35.0026 198.192 34.9613 198.337 35.0748C198.512 35.2088 198.574 35.5595 198.357 35.8998C197.996 36.4774 197.625 37.0549 197.233 37.6222C196.852 38.1791 196.449 38.736 196.037 39.2723L196.13 39.3445L197.739 38.1894C197.749 38.1791 197.759 38.1791 197.78 38.1791L198.76 38.3132H198.77C198.914 38.375 199.11 38.4885 199.224 38.7154C199.265 38.7979 199.327 38.9113 199.296 39.0557C199.275 39.1485 199.224 39.2207 199.172 39.262C199.337 39.3857 199.492 39.5198 199.636 39.6539C199.698 39.7158 199.781 39.7776 199.812 39.9014C199.843 40.0355 199.812 40.1902 199.719 40.2933C199.657 40.3655 199.574 40.3964 199.42 40.4274C199.224 40.4686 199.017 40.479 198.811 40.448C198.636 40.6233 198.461 40.7987 198.285 40.9637C198.161 41.0874 198.038 41.2009 197.914 41.3143L197.996 41.4175L198.863 40.9843H198.873C199.007 40.9534 199.162 40.9534 199.296 40.9843C199.389 41.0049 199.605 41.0565 199.739 41.2628C199.925 41.5412 199.801 41.8609 199.781 41.8919C199.678 42.1394 199.43 42.3147 199.141 42.3353L198.925 42.356C198.729 42.5622 198.522 42.7788 198.327 42.9954C197.966 43.3873 197.739 43.6761 197.532 43.9236C197.388 44.0989 197.254 44.2639 197.099 44.4393C196.697 44.8931 196.233 45.3262 195.728 45.7078L194.768 49.1731C194.696 49.1937 194.676 49.204 194.655 49.204Z" fill="#F38484"/>
<path d="M174.15 54.3301C173.912 54.392 173.634 54.4333 173.324 54.4539C172.644 54.4848 172.077 54.3611 171.695 54.227C171.582 54.1342 171.406 53.9692 171.282 53.7113C171.004 53.1544 171.087 52.3912 171.365 52.2159C171.654 52.0612 172.345 52.3396 174.15 54.3301Z" fill="#F38484"/>
<path d="M170.91 49.9264C170.899 49.9264 170.899 49.9264 170.889 49.9264C170.827 49.9058 170.714 49.8439 170.631 49.7201C170.59 49.6582 170.559 49.586 170.549 49.5139C170.487 49.2148 170.425 48.8951 170.384 48.5857C170.353 48.3691 170.332 48.1525 170.312 47.9359C170.322 47.7503 170.435 47.5956 170.59 47.544C170.745 47.5028 170.868 47.575 170.91 47.5956C170.93 47.6059 170.941 47.6471 170.93 47.6678C170.92 47.6884 170.879 47.6987 170.858 47.6884C170.827 47.6678 170.734 47.6162 170.631 47.6471C170.518 47.6781 170.435 47.8018 170.425 47.9359C170.446 48.1422 170.466 48.3588 170.497 48.5753C170.538 48.8847 170.6 49.1941 170.662 49.4932C170.672 49.5551 170.693 49.617 170.724 49.6582C170.786 49.7614 170.879 49.8026 170.93 49.8233C170.961 49.8336 170.972 49.8645 170.961 49.8851C170.951 49.9058 170.93 49.9264 170.91 49.9264Z" fill="#F38484"/>
<path d="M171.188 49.1012C171.106 49.1012 170.992 49.0805 170.9 48.9877C170.766 48.7712 170.817 48.6061 170.879 48.4308C170.931 48.2761 170.982 48.1214 170.92 47.8945C170.91 47.8636 170.931 47.843 170.951 47.8326C170.982 47.8223 171.003 47.843 171.013 47.8636C171.085 48.1111 171.023 48.2967 170.972 48.4618C170.92 48.6268 170.879 48.7505 170.982 48.9155C171.075 49.0084 171.219 48.9877 171.261 48.9877C171.292 48.9774 171.312 48.998 171.323 49.029C171.333 49.0599 171.312 49.0805 171.281 49.0909C171.261 49.0909 171.219 49.1012 171.188 49.1012Z" fill="#F38484"/>
<path d="M173.664 46.4199C173.736 46.4817 173.787 46.5746 173.808 46.688C173.849 46.8943 173.818 47.0696 173.756 47.183C173.715 47.1109 173.664 47.0077 173.643 46.8633C173.612 46.6674 173.643 46.5024 173.664 46.4199Z" fill="#353437"/>
<path d="M171.755 53.2783C171.745 53.6186 171.724 53.7114 171.693 54.2065C171.652 54.9387 171.683 55.5369 171.703 55.9288C171.662 56.3001 171.559 56.8879 171.188 57.4552C170.136 59.0537 167.537 59.6932 165.763 58.6103C164.793 58.0224 164.35 57.0942 164.164 56.5682C164.226 56.1866 164.267 55.7638 164.288 55.31C164.319 54.5881 164.278 53.9383 164.206 53.3917C164.154 53.0411 163.968 51.5663 164.917 50.473C166.382 48.7817 169.104 49.648 169.486 49.7821C170.033 49.9677 171.054 50.3183 171.476 51.2259C171.786 51.8757 171.765 52.742 171.755 53.2783Z" fill="#F38484"/>
<path d="M173.231 43.7795C173.252 43.5732 173.138 43.0782 173.015 42.7791C172.551 41.5312 171.591 40.8608 171.179 40.572C169.168 39.1591 166.775 39.4685 166.239 39.5407C164.63 39.747 163.423 40.4173 162.701 40.9227C162.309 41.2836 161.763 41.8715 161.257 42.6863C160.855 43.336 159.741 45.2027 159.999 47.6985C160.164 49.2662 160.804 50.3697 161.113 50.906C161.835 52.1436 162.701 52.6077 163.104 52.9583C163.619 53.4018 163.753 54.1444 164.3 54.2269C164.908 54.2991 165.826 54.2991 166.651 54.1134C167.363 53.9484 168.879 53.4843 170.013 52.1436C170.591 51.4629 170.849 50.8132 171.024 50.3491C171.963 47.9667 172.705 45.7287 173.231 43.7795Z" fill="#353437"/>
<path d="M162.897 40.1285C162.474 40.0667 161.886 39.9945 161.174 40.0048C160.762 40.0151 159.101 40.0667 157.07 40.9536C154.038 42.284 152.13 44.6251 150.871 46.1515C149.881 47.3685 149.799 47.7191 148.901 48.5442C148.272 49.1217 146.88 50.3903 144.766 50.9988C141.868 51.8342 139.362 50.9266 138.454 50.5553C138.929 51.3597 139.692 52.422 140.898 53.3708C143.631 55.516 146.705 55.5676 147.757 55.5366C147.293 56.1554 146.55 57.0011 145.426 57.7127C143.374 59.0328 141.311 59.1257 140.403 59.1154C140.847 59.466 141.538 59.9301 142.487 60.2086C144.415 60.7758 146.055 60.1983 146.633 59.961C146.395 60.4767 145.911 61.3224 145.013 62.0856C144.312 62.6941 143.6 63.0241 143.126 63.1994C144.044 63.2407 145.333 63.2304 146.829 62.9519C147.984 62.7353 150.624 62.2197 153.254 60.2189C156.451 57.7849 157.678 54.6497 158.07 53.608C158.256 53.1027 158.524 52.061 159.06 49.9778C159.947 46.5228 160.143 45.1408 161.36 44.0476C162.144 43.3463 163.02 43.0575 163.557 42.9338C163.691 42.8306 163.918 42.6244 164.062 42.2943C164.103 42.2015 164.433 41.428 163.969 40.7473C163.608 40.2317 163 40.1388 162.897 40.1285Z" fill="#353437"/>
<path fill-rule="evenodd" clip-rule="evenodd" d="M162.577 40.0771C162.711 40.0049 163.093 39.8296 163.557 39.9224C164.227 40.0565 164.609 40.6547 164.722 41.1085C164.743 41.191 164.877 41.7685 164.537 42.2842C164.475 42.377 164.33 42.5936 164.021 42.7586C163.804 42.872 163.608 42.903 163.485 42.9133C163.629 42.7895 163.928 42.5007 164.062 42.0367C164.104 41.882 164.299 41.191 163.815 40.6134C163.371 40.0977 162.68 40.0874 162.577 40.0771Z" fill="#FFF9B0"/>
<path d="M172.325 42.6142C172.593 42.8308 173.325 43.4805 173.624 44.5944C173.862 45.471 173.728 46.2032 173.635 46.5436C173.635 46.6364 173.635 46.7808 173.666 46.9458C173.728 47.2242 173.851 47.3996 174.006 47.6368C174.15 47.874 174.274 48.1215 174.408 48.3587C174.594 48.6887 174.656 49.06 174.625 50.9061C174.594 51.7724 174.584 52.319 174.615 53.1853C174.635 53.5979 174.666 53.8248 174.48 54.0929C174.285 54.3611 173.913 54.4126 173.717 54.4333C173.129 54.4951 172.676 54.2476 172.49 54.1445C171.83 53.7732 171.521 53.206 171.356 52.8966C170.83 51.9168 170.881 50.937 170.943 50.4833C170.85 50.4523 170.716 50.4008 170.582 50.2873C170.355 50.0914 170.273 49.8541 170.252 49.7613C170.19 49.5035 170.128 49.2147 170.077 48.9053C170.004 48.3897 169.87 47.8946 170.004 47.513C170.066 47.3068 170.252 47.1521 170.469 47.1108C170.685 47.0799 170.902 47.1624 171.036 47.3377C171.067 47.1005 171.139 46.7498 171.294 46.3476C171.541 45.7185 171.84 45.3679 172.016 45.0894C172.284 44.615 172.531 43.8724 172.325 42.6142Z" fill="#F7B2B2"/>
<path d="M173.737 45.275C173.767 45.3162 173.809 45.3884 173.819 45.5019C173.84 45.6669 173.767 45.7906 173.747 45.8319C173.706 45.8422 173.644 45.8628 173.592 45.9041C173.479 45.966 173.417 46.0485 173.365 46.1C173.386 45.9763 173.427 45.7906 173.53 45.5844C173.602 45.4503 173.675 45.3472 173.737 45.275Z" fill="#353437"/>
<path d="M174.169 54.3198C173.261 54.7117 172.385 54.0723 172.333 54.0413C171.776 53.6701 171.508 53.1647 171.354 52.8862C170.828 51.9065 170.879 50.9267 170.941 50.4729C170.91 50.4626 171.209 50.5245 171.477 50.2563C172.581 52.0612 171.91 54.062 174.169 54.3198Z" fill="#F38484"/>
<path d="M153.836 63.0548C153.155 63.5602 152.124 69.5831 150.649 75.9052C150.01 78.6589 149.071 81.9488 148.442 83.5267C148.163 84.7025 147.998 85.5069 148.163 86.0844C148.514 87.3324 149.875 88.209 151.123 88.3534C152.887 88.5493 154.207 87.2499 154.867 86.6001C155.672 85.806 156.074 85.0016 156.662 83.8258C157.301 82.5367 157.951 80.8968 158.178 80.0615C159.374 77.5553 160.704 70.0266 159.57 66.5717C159.188 65.4062 158.704 63.9933 157.332 63.1992C156.115 62.4773 154.516 62.5288 153.836 63.0548Z" fill="#35489E"/>
<path d="M155.681 85.6305C154.062 90.3746 147.121 98.45 144.574 101.626C144.233 101.266 143.718 100.801 142.985 100.399C142.15 99.9351 141.377 99.7391 140.851 99.6566C141.603 98.2437 142.233 97.0164 142.748 96.0057C144.068 93.4171 145.43 90.7356 146.946 87.2703C147.585 85.8162 148.173 84.166 148.565 83.1759C149.545 81.8662 152.845 81.6805 154.258 82.9078C155.65 84.1041 155.712 85.4655 155.681 85.6305Z" fill="#35489E"/>
<path d="M186.766 56.5573C185.518 57.8671 184.012 58.0218 183.434 58.1249C182.836 58.228 181.279 58.2899 180.175 58.1559C179.876 58.228 179.753 58.2177 179.309 58.5168C177.391 59.7957 177.339 62.7556 177.319 63.7766C177.308 64.6326 177.638 66.5612 178.917 68.4795C179.918 69.9749 180.732 70.8516 181.382 71.1816C181.877 70.8825 187.828 66.5406 189.045 65.1689C189.633 64.5192 190.375 63.6219 191.18 62.5081C191.355 62.1059 191.572 61.5077 191.623 60.7651C191.654 60.3526 191.829 57.6299 190.025 56.4954C189.901 56.4232 187.962 55.5982 186.766 56.5573Z" fill="#35489E"/>
<path d="M194.821 49.5134C194.708 49.3381 194.512 49.0803 194.223 48.8328C193.532 48.2552 192.759 48.1418 192.253 48.0696C191.892 48.018 191.253 47.9871 190.603 48.0799C190.345 48.8225 188.705 54.6804 186.777 56.5574C184.291 61.2397 189.52 63.7665 191.201 62.5598C191.707 62.1885 191.841 62.0235 192.202 61.5903C193.027 60.6003 193.357 59.5277 193.646 58.2385C194.007 56.5884 194.099 55.4539 194.264 53.9791C194.367 52.9272 194.543 51.3905 194.821 49.5134Z" fill="#35489E"/>
<path d="M155.681 85.6306C154.062 90.3747 147.286 98.6048 144.739 101.771C144.398 101.41 143.718 100.802 142.985 100.399C146.657 94.6032 150.091 90.7666 154.268 82.9079C155.65 84.1042 155.712 85.4656 155.681 85.6306Z" fill="#213B8E"/>
<path d="M151.134 88.3637C152.897 88.5596 154.217 87.2601 154.878 86.6104C155.682 85.8163 156.084 85.0118 156.672 83.8361C157.311 82.5469 157.961 80.9071 158.188 80.0718C159.384 77.5656 160.715 70.0369 159.58 66.5819C159.199 65.4165 158.714 64.0036 157.342 63.2095C158.446 72.2749 156.445 80.5152 151.134 88.3637Z" fill="#213B8E"/>
<path d="M178.535 67.8505C178.659 68.0671 178.783 68.2836 178.927 68.5002C179.927 69.9956 180.742 70.8723 181.392 71.2023C181.887 70.9032 187.838 66.5613 189.055 65.1896C189.643 64.5399 190.385 63.6426 191.19 62.5288C191.365 62.1266 191.582 61.5284 191.633 60.7858C191.654 60.5796 191.695 59.8267 191.509 58.981C189.333 61.384 185.28 65.2206 178.535 67.8505Z" fill="#213B8E"/>
<path d="M172.913 57.011C172.48 56.7016 172.16 55.9177 171.696 55.8662C171.046 55.7734 170.159 55.7527 169.386 55.7424C167.148 55.7012 165.25 56.1343 163.848 56.5984C163.693 56.815 163.456 57.1347 163.177 57.5163C162.259 58.7745 162.136 58.8983 162.033 59.0014C161.135 60.27 157.35 60.9197 155.494 61.7654C154.958 62.0748 154.39 62.4048 153.751 63.1371C154.225 63.2196 154.906 63.5496 155.669 64.0756C156.432 64.6016 157.072 65.3544 157.629 66.5611C158.041 67.448 159.176 70.2223 158.743 75.8534C158.639 77.2251 158.413 79.133 157.876 81.402C157.526 83.114 157.062 85.3932 156.546 88.0747C155.442 93.7676 155.267 95.1702 155.174 96.6347C155.071 98.3467 154.989 100.75 155.37 103.648C156.071 103.225 157.35 102.555 158.97 102.111C163.25 100.935 165.745 102.503 173.192 103.421C176.832 103.875 178.75 104.091 181.36 103.565C184.423 102.957 186.764 101.647 188.239 100.657C187.692 99.739 186.96 98.4705 186.186 96.9132C185.093 94.7061 182.969 90.323 181.937 84.5888C180.793 78.2048 181.318 71.9343 181.566 69.8201C181.772 68.0771 181.772 67.283 181.772 65.6845C181.783 62.7967 181.483 61.2394 180.988 59.8884C180.71 59.1252 180.432 58.5373 180.225 58.1557C179.215 58.1042 178.389 58.0629 177.874 58.0423C176.121 57.9804 174.213 57.8463 172.913 57.011Z" fill="#35489E"/>
<path d="M194.819 49.5135C194.706 49.3381 194.51 49.0803 194.221 48.8328C194.107 48.74 193.994 48.6575 193.881 48.5853C193.2 52.8447 192.684 58.878 188.167 62.302C189.26 62.9311 190.518 63.0445 191.189 62.5701C191.694 62.1988 191.828 62.0338 192.189 61.6007C193.014 60.6106 193.344 59.538 193.633 58.2488C193.994 56.5987 194.087 55.4642 194.252 53.9894C194.365 52.9272 194.541 51.3905 194.819 49.5135Z" fill="#213B8E"/>
<path d="M184.928 102.462C186.29 101.884 187.393 101.224 188.229 100.667C187.682 99.7494 186.95 98.4808 186.176 96.9235C185.083 94.7165 182.958 90.3333 181.927 84.5991C180.782 78.2152 181.308 71.9447 181.556 69.8305C181.731 68.366 181.752 67.5615 181.762 66.3961C177.802 84.6301 182.474 98.1714 184.928 102.462Z" fill="#213B8E"/>
<path d="M157.63 66.5718C158.042 67.4587 159.177 70.233 158.744 75.8641C158.641 77.2357 158.414 79.1437 157.877 81.4126C157.527 83.1247 157.063 85.4039 156.547 88.0854C155.443 93.7783 155.268 95.1809 155.175 96.6454C155.072 98.3574 154.99 100.76 155.371 103.658C156.073 103.236 157.351 102.565 158.971 102.122C156.753 94.789 163.539 74.2139 157.63 66.5718Z" fill="#213B8E"/>
<path d="M153.06 65.1174C152.441 67.5101 151.647 71.6354 150.657 75.9155C149.781 80.0614 148.45 83.537 148.45 83.537C148.45 83.537 150.513 80.608 151.565 76.3589C152.885 71.6045 152.926 69.0365 153.06 65.1174Z" fill="#5067BC"/>
<path d="M191.54 48.0077C191.251 48.0077 190.932 48.018 190.602 48.0696C190.344 48.8121 188.704 54.6701 186.775 56.5471C189.158 55.2476 190.911 50.4726 191.54 48.0077Z" fill="#5067BC"/>
<path d="M178.113 103.978C177.102 103.978 176.122 103.864 174.575 103.679C172.791 103.473 170.863 103.174 169.017 102.823C168.81 102.782 168.594 102.74 168.367 102.699C167.562 102.544 166.572 102.348 165.149 102.101C161.416 101.193 158.219 102.287 156.641 103.019C156.218 103.215 155.805 103.431 155.413 103.669C155.393 103.679 155.362 103.679 155.341 103.648C155.331 103.627 155.331 103.596 155.362 103.576C155.764 103.339 156.177 103.122 156.599 102.926C158.188 102.183 161.416 101.08 165.17 101.998C166.593 102.245 167.593 102.441 168.387 102.596C168.625 102.637 168.841 102.678 169.037 102.72C170.883 103.07 172.802 103.369 174.586 103.576C176.504 103.803 177.556 103.926 178.866 103.854C180.011 103.792 181.248 103.586 182.424 103.277C184.435 102.74 186.364 101.853 188.137 100.647C188.158 100.626 188.189 100.636 188.21 100.657C188.23 100.678 188.22 100.709 188.199 100.729C186.415 101.946 184.487 102.833 182.455 103.38C181.269 103.699 180.031 103.895 178.876 103.968C178.608 103.978 178.36 103.978 178.113 103.978Z" fill="#8A8A8A" fill-opacity="0.3" style="mix-blend-mode:multiply"/>
<path d="M144.718 101.792C144.708 101.792 144.687 101.781 144.677 101.771C144.44 101.513 143.563 100.626 142.387 100.111C141.892 99.8939 141.418 99.7599 140.902 99.6773C140.871 99.6773 140.851 99.6464 140.861 99.6155C140.861 99.5845 140.892 99.5639 140.923 99.5742C141.449 99.6567 141.934 99.8011 142.439 100.018C143.635 100.533 144.522 101.441 144.76 101.699C144.78 101.719 144.78 101.75 144.76 101.771C144.749 101.792 144.729 101.792 144.718 101.792Z" fill="#8A8A8A" fill-opacity="0.3" style="mix-blend-mode:multiply"/>
<path d="M194.821 49.534C194.8 49.534 194.79 49.5237 194.78 49.5133C194.604 49.2761 194.398 49.0596 194.171 48.8739C193.264 48.1314 192.253 48.0592 191.871 48.0282C191.469 47.9973 191.057 48.0179 190.654 48.1004C190.623 48.1004 190.603 48.0901 190.593 48.0592C190.582 48.0282 190.603 48.0076 190.634 47.9973C191.046 47.9148 191.469 47.8942 191.882 47.9251C192.274 47.956 193.315 48.0385 194.243 48.7914C194.481 48.9874 194.687 49.2039 194.873 49.4515C194.893 49.4721 194.883 49.503 194.862 49.5237C194.842 49.534 194.831 49.534 194.821 49.534Z" fill="#8A8A8A" fill-opacity="0.3" style="mix-blend-mode:multiply"/>
</svg>
