<svg width="190" height="100" viewBox="0 0 190 100" fill="none" xmlns="http://www.w3.org/2000/svg">
<g clip-path="url(#clip0)">
<circle cx="24.1076" cy="34.0996" r="65.3" fill="#FDD2B9"/>
<circle cx="24.1071" cy="34.0997" r="45.2077" fill="#FCB69F"/>
<g filter="url(#filter0_d)">
<path d="M15.8312 12.6399C15.361 13.9756 15.7275 15.6863 16.4607 19.1078L21.3641 41.9904C21.6711 43.4228 22.937 44.4462 24.4019 44.4462C25.8669 44.4462 27.1327 43.4228 27.4397 41.9904L32.3431 19.1078C33.0763 15.6863 33.4429 13.9756 32.9727 12.6399C32.5893 11.5509 31.8426 10.6273 30.8582 10.0243C29.6507 9.28467 27.9011 9.28467 24.4019 9.28467C20.9028 9.28467 19.1532 9.28467 17.9456 10.0243C16.9612 10.6273 16.2145 11.5509 15.8312 12.6399Z" fill="white"/>
<path d="M24.4023 59.5154C27.1764 59.5154 29.4253 57.2665 29.4253 54.4923C29.4253 51.7181 27.1764 49.4692 24.4023 49.4692C21.6281 49.4692 19.3792 51.7181 19.3792 54.4923C19.3792 57.2665 21.6281 59.5154 24.4023 59.5154Z" fill="white"/>
</g>
</g>
<defs>
<filter id="filter0_d" x="15.6211" y="9.28467" width="27.5616" height="60.2307" filterUnits="userSpaceOnUse" color-interpolation-filters="sRGB">
<feFlood flood-opacity="0" result="BackgroundImageFix"/>
<feColorMatrix in="SourceAlpha" type="matrix" values="0 0 0 0 0 0 0 0 0 0 0 0 0 0 0 0 0 0 127 0" result="hardAlpha"/>
<feOffset dx="6" dy="6"/>
<feGaussianBlur stdDeviation="2"/>
<feColorMatrix type="matrix" values="0 0 0 0 0.896117 0 0 0 0 0.588761 0 0 0 0 0.487773 0 0 0 0.3 0"/>
<feBlend mode="normal" in2="BackgroundImageFix" result="effect1_dropShadow"/>
<feBlend mode="normal" in="SourceGraphic" in2="effect1_dropShadow" result="shape"/>
</filter>
<clipPath id="clip0">
<rect width="190" height="100" fill="white"/>
</clipPath>
</defs>
</svg>
