<svg width="190" height="100" viewBox="0 0 190 100" fill="none" xmlns="http://www.w3.org/2000/svg">
<g clip-path="url(#clip0)">
<circle cx="24.1086" cy="34.0996" r="65.3" fill="#E7EDFA"/>
<circle cx="24.1061" cy="34.0995" r="45.2077" fill="#5A88FF"/>
<g filter="url(#filter0_d)">
<path d="M24.2237 9C27.5235 9 30.1923 11.6386 30.1923 14.901C30.1923 18.1634 27.5235 20.802 24.2237 20.802C20.9239 20.802 18.255 18.1634 18.255 14.901C18.255 11.6386 20.9239 9 24.2237 9ZM29.6544 24.5042H29.4993H19.8998H19.5481C17.5827 24.5042 16 26.0792 16 28.0121C16 29.9552 17.593 31.5199 19.5481 31.5199H19.8998V51.974H16V59H33.5439V51.974H29.6648V24.5042H29.6544Z" fill="white"/>
</g>
</g>
<defs>
<filter id="filter0_d" x="16" y="9" width="27.5439" height="60" filterUnits="userSpaceOnUse" color-interpolation-filters="sRGB">
<feFlood flood-opacity="0" result="BackgroundImageFix"/>
<feColorMatrix in="SourceAlpha" type="matrix" values="0 0 0 0 0 0 0 0 0 0 0 0 0 0 0 0 0 0 127 0" result="hardAlpha"/>
<feOffset dx="6" dy="6"/>
<feGaussianBlur stdDeviation="2"/>
<feColorMatrix type="matrix" values="0 0 0 0 0.284489 0 0 0 0 0.450357 0 0 0 0 0.879451 0 0 0 0.3 0"/>
<feBlend mode="normal" in2="BackgroundImageFix" result="effect1_dropShadow"/>
<feBlend mode="normal" in="SourceGraphic" in2="effect1_dropShadow" result="shape"/>
</filter>
<clipPath id="clip0">
<rect width="190" height="100" fill="white"/>
</clipPath>
</defs>
</svg>
