<svg width="190" height="100" viewBox="0 0 190 100" fill="none" xmlns="http://www.w3.org/2000/svg">
<g clip-path="url(#clip0)">
<rect width="190" height="100" fill="#F6F7F9"/>
<circle cx="14.8672" cy="74" r="1" transform="rotate(-90 14.8672 74)" fill="#DEDEDE"/>
<circle cx="14.8672" cy="54" r="2" transform="rotate(-90 14.8672 54)" fill="#DEDEDE"/>
<circle cx="14.8672" cy="34" r="1" transform="rotate(-90 14.8672 34)" fill="#DEDEDE"/>
<circle cx="14.8672" cy="14" r="2" transform="rotate(-90 14.8672 14)" fill="#DEDEDE"/>
<circle cx="47.1719" cy="74" r="1" transform="rotate(-90 47.1719 74)" fill="#DEDEDE"/>
<circle cx="47.1719" cy="54" r="2" transform="rotate(-90 47.1719 54)" fill="#2A9D8F"/>
<circle cx="47.1719" cy="34" r="1" transform="rotate(-90 47.1719 34)" fill="#DEDEDE"/>
<circle cx="47.1719" cy="14" r="2" transform="rotate(-90 47.1719 14)" fill="#FCB69F"/>
<circle cx="79.4805" cy="74" r="1" transform="rotate(-90 79.4805 74)" fill="#DEDEDE"/>
<circle cx="79.4805" cy="54" r="2" transform="rotate(-90 79.4805 54)" fill="#2A9D8F"/>
<circle cx="79.4805" cy="34" r="1" transform="rotate(-90 79.4805 34)" fill="#DEDEDE"/>
<circle cx="79.4805" cy="14" r="2" transform="rotate(-90 79.4805 14)" fill="#DEDEDE"/>
<rect x="17" y="46.7493" width="152.189" height="41.6117" rx="8.70167" transform="rotate(-2.57525 17 46.7493)" fill="#2A292E"/>
<path d="M30.9747 75.039C31.041 76.5123 31.7051 77.1192 33.1783 77.053L37.6847 76.8503C44.1843 76.5579 48.17 72.5 47.8777 66.0004C47.5853 59.5007 43.2554 55.9036 36.7557 56.1959L28.2629 56.5779L28.4578 60.911L30.3355 60.8265L30.9747 75.039ZM36.0169 71.9466L35.5063 60.594L36.7484 60.5381C40.0704 60.3887 42.3279 62.3134 42.5046 66.242C42.6826 70.1996 40.6963 72.373 37.2876 72.5263L36.681 72.5536C36.2766 72.5718 36.0351 72.3511 36.0169 71.9466ZM48.9831 68.8741C49.1611 72.8317 52.1938 76.5451 57.509 76.306C61.4666 76.128 63.7577 73.6514 63.7577 73.6514L61.6137 70.3901C61.6137 70.3901 59.864 72.0319 57.7263 72.128C56.1376 72.1995 54.5977 71.4293 54.1378 69.5686L63.5261 69.1463C63.5261 69.1463 63.5962 68.1301 63.5741 67.639C63.3883 63.5081 60.7663 60.5578 56.3754 60.7553C51.5801 60.971 48.787 64.5122 48.9831 68.8741ZM54.1458 66.5289C54.4142 65.4169 55.1 64.5756 56.5443 64.5106C57.5843 64.4638 58.3506 65.4135 58.3922 66.3379L54.1458 66.5289ZM66.3956 73.4459C66.4619 74.9192 67.126 75.5261 68.5992 75.4598L73.2212 75.252L73.0328 71.0633L71.935 71.1127C71.5306 71.1309 71.2891 70.9102 71.2709 70.5058L70.6538 56.7843C70.5875 55.3111 69.9234 54.7042 68.4502 54.7704L63.8282 54.9783L64.0166 59.1669L65.1143 59.1176C65.5188 59.0994 65.7603 59.3201 65.7784 59.7245L66.3956 73.4459ZM75.222 58.5182L79.4106 58.3298L79.2287 54.2856L75.0401 54.474L75.222 58.5182ZM75.4987 73.0365C75.5649 74.5097 76.229 75.1167 77.7023 75.0504L82.3242 74.8425L82.1358 70.6539L81.0381 70.7033C80.6337 70.7214 80.3922 70.5007 80.374 70.0963L80.0167 62.1523C79.9505 60.6791 79.2864 60.0722 77.8131 60.1384L73.1912 60.3463L73.3796 64.535L74.4773 64.4856C74.8817 64.4674 75.1232 64.6881 75.1414 65.0925L75.4987 73.0365ZM87.3804 74.6151L93.4756 74.341L96.7999 63.9447C96.9011 63.6218 97.1257 63.4669 97.4724 63.4513L97.8479 63.4344L97.6595 59.2458L94.7419 59.377C93.702 59.4238 92.9704 59.8909 92.7455 60.6825L90.8226 67.4844C90.5477 68.452 90.3816 69.9067 90.3816 69.9067L90.3238 69.9093C90.3238 69.9093 90.0277 68.4754 89.6671 67.5364L87.1125 60.9359C86.8174 60.1676 86.1046 59.7655 85.0358 59.8136L81.8582 59.9565L82.0466 64.1451L82.4221 64.1282C82.7688 64.1127 82.9486 64.2493 83.0785 64.5619L87.3804 74.6151ZM98.1557 66.6625C98.3337 70.6201 101.366 74.3334 106.682 74.0944C110.639 73.9164 112.93 71.4398 112.93 71.4398L110.786 68.1785C110.786 68.1785 109.037 69.8203 106.899 69.9164C105.31 69.9879 103.77 69.2177 103.31 67.3569L112.699 66.9347C112.699 66.9347 112.769 65.9184 112.747 65.4273C112.561 61.2965 109.939 58.3462 105.548 58.5437C100.753 58.7593 97.9595 62.3005 98.1557 66.6625ZM103.318 64.3173C103.587 63.2053 104.272 62.3639 105.717 62.299C106.757 62.2522 107.523 63.2019 107.565 64.1263L103.318 64.3173ZM115.779 73.3379L120.776 73.1131L120.523 67.4801C120.486 66.6712 120.543 66.0029 120.692 65.4463C121.314 63.1895 123.232 62.7269 124.417 62.6736C125.023 62.6464 125.432 62.7148 125.432 62.7148L125.211 57.804C125.211 57.804 124.919 57.7592 124.63 57.7722C122.406 57.8723 120.604 59.6322 120.059 61.6829L120.002 61.6854C120.002 61.6854 120.046 61.394 120.026 60.9318L119.99 60.1518C119.929 58.7941 119.154 58.2791 117.796 58.3401L113.376 58.5389L113.565 62.7276L114.662 62.6782C115.067 62.66 115.308 62.8807 115.326 63.2851L115.779 73.3379ZM128.037 73.7417L126.404 77.3465C126.404 77.3465 128.093 78.8625 130.664 78.7469C133.033 78.6404 135.551 77.3404 136.674 73.9901L140.649 61.9725C140.776 61.5905 140.975 61.4947 141.321 61.4791L141.87 61.4545L141.682 57.2658L137.955 57.4334C137.175 57.4685 136.415 57.9369 136.248 58.7259L134.871 64.8085C134.677 65.6278 134.484 67.1416 134.484 67.1416L134.427 67.1442C134.427 67.1442 134.099 65.6537 133.774 64.8579L131.308 58.9481C130.984 58.1811 130.358 57.7751 129.52 57.8128L125.88 57.9765L126.069 62.1651L126.618 62.1405C126.964 62.1249 127.084 62.2063 127.274 62.5741L132.443 72.5884L132.289 73.0295C131.854 74.2937 130.94 74.5664 130.131 74.6028C128.946 74.656 128.037 73.7417 128.037 73.7417ZM143.179 69.6741C143.179 69.6741 145.933 72.3579 150.498 72.1526C155.842 71.9122 158.311 68.2409 158.151 64.6877C157.979 60.8746 155.185 57.961 150.014 58.1936C149.263 58.2274 148.546 58.3754 148.546 58.3754L148.489 58.378C148.489 58.378 148.528 57.971 148.539 57.5653L148.562 56.1459C148.573 55.7402 148.764 55.5 149.169 55.4818L151.191 55.3908C151.595 55.3726 151.837 55.5933 151.855 55.9978L151.906 57.1244L156.528 56.9165L156.348 52.9301C156.282 51.4568 155.618 50.8499 154.145 50.9161L145.883 51.2877C144.41 51.354 143.918 52.0129 143.869 53.4913L143.644 62.6483L145.243 63.4447C145.243 63.4447 146.826 62.592 149.021 62.4933C150.956 62.4062 152.834 62.9586 152.918 64.8363C152.974 66.0784 152.073 67.2768 150.282 67.3573C147.451 67.4846 145.368 65.5811 145.368 65.5811L143.179 69.6741Z" fill="white"/>
<rect x="86.5195" y="14.5393" width="56.5125" height="38.2434" rx="8.84299" transform="rotate(-2.57526 86.5195 14.5393)" fill="#FCB69F"/>
<path d="M98.9143 40.5854C98.9143 40.5854 101.663 43.263 106.216 43.0582C111.548 42.8184 114.011 39.1556 113.852 35.6107C113.681 31.8065 110.893 28.8996 105.734 29.1316C104.985 29.1653 104.27 29.313 104.27 29.313L104.212 29.3156C104.212 29.3156 104.251 28.9095 104.262 28.5048L104.285 27.0887C104.296 26.6839 104.487 26.4443 104.891 26.4261L106.908 26.3354C107.311 26.3172 107.552 26.5374 107.571 26.9409L107.621 28.0649L112.232 27.8575L112.053 23.8803C111.987 22.4105 111.325 21.805 109.855 21.8711L101.612 22.2418C100.143 22.3079 99.6523 22.9653 99.6032 24.4403L99.3787 33.576L100.974 34.3706C100.974 34.3706 102.553 33.5198 104.743 33.4213C106.674 33.3345 108.547 33.8856 108.631 35.7589C108.687 36.9981 107.788 38.1937 106.001 38.2741C103.177 38.4011 101.099 36.502 101.099 36.502L98.9143 40.5854ZM115.755 35.4096L118.176 35.3007C119.693 39.5065 123.484 42.2527 128.441 42.0297C130.632 41.9312 132.246 41.2233 132.246 41.2233L131.174 36.6509C131.174 36.6509 129.841 37.2018 128.314 37.2705C126.527 37.3509 124.844 36.5313 123.853 35.0454L128.032 34.8574L128.484 32.0648L122.806 32.3201C122.806 32.3201 122.695 31.7764 122.682 31.4882C122.675 31.3153 122.687 30.9393 122.687 30.9393L128.71 30.6684L129.162 27.8758L123.225 28.1428C124.017 26.49 125.561 25.4965 127.549 25.407C128.529 25.3629 129.493 25.6084 129.493 25.6084L130.528 20.9991C130.528 20.9991 129.04 20.6617 127.483 20.7317C122.728 20.9456 118.942 24.0903 117.807 28.3865L115.444 28.4928L115.568 31.2595L117.441 31.1753C117.441 31.1753 117.433 31.6377 117.441 31.8106C117.454 32.0988 117.532 32.5573 117.532 32.5573L115.63 32.6429L115.755 35.4096Z" fill="#2A292E"/>
</g>
<defs>
<clipPath id="clip0">
<rect width="190" height="100" fill="white"/>
</clipPath>
</defs>
</svg>
