<svg width="120" height="72" viewBox="0 0 120 72" fill="none" xmlns="http://www.w3.org/2000/svg">
<rect y="28.7999" width="120" height="43.2" rx="8.22857" fill="#2A292E"/>
<path d="M9.13758 49.5165C9.13758 55.7085 13.4288 60.3741 19.9376 60.3741C25.4096 60.3741 28.52 56.6877 28.52 56.6877L25.8992 53.0013C25.8992 53.0013 23.624 55.6221 20.024 55.6221C17 55.6221 14.4944 52.8861 14.4944 49.5165C14.4944 45.7725 16.9136 43.8429 19.9088 43.8429C21.2336 43.8429 23.0768 44.3037 23.0768 45.4845L23.0768 46.6077L27.6848 46.6077L27.6848 43.9005C27.6848 40.0413 22.2416 39.0909 19.7936 39.0909C13.6592 39.0909 9.13758 43.6125 9.13758 49.5165ZM29.8945 52.6557C29.8945 57.2925 33.6097 60.3741 38.2753 60.3741C42.9409 60.3741 46.6561 57.2925 46.6561 52.6557C46.6561 47.9901 42.9409 44.8509 38.2465 44.8509C33.6097 44.8509 29.8945 47.9901 29.8945 52.6557ZM34.9057 52.6557C34.9057 50.4093 36.4609 48.9981 38.2753 48.9981C40.0897 48.9981 41.6449 50.4093 41.6449 52.6557C41.6449 54.8733 40.0897 56.2269 38.2753 56.2269C36.4609 56.2269 34.9057 54.8733 34.9057 52.6557ZM49.6466 60.0285L54.629 60.0285L54.629 53.8941C54.629 53.2605 54.7154 52.6557 54.8306 52.1085C55.1762 50.5245 56.0114 49.3725 57.4802 49.3725C58.4306 49.3725 58.6322 50.1501 58.6322 51.2445L58.6322 60.0285L63.6146 60.0285L63.6146 53.8941C63.6146 53.2893 63.6722 52.7421 63.7874 52.2237C64.1042 50.5821 64.9682 49.3725 66.4658 49.3725C67.4162 49.3725 67.6178 50.1501 67.6178 51.2445L67.6178 57.9261C67.6178 59.3949 68.2514 60.0285 69.7202 60.0285L74.3282 60.0285L74.3282 55.8525L73.2338 55.8525C72.8306 55.8525 72.6002 55.6221 72.6002 55.2189L72.6002 50.4093C72.6002 46.3197 70.4978 44.8509 67.7906 44.8509C65.573 44.8509 63.8162 46.1181 63.0386 47.3565L62.981 47.3565C62.2034 45.6861 60.7058 44.8509 58.8338 44.8509C56.501 44.8509 55.1762 46.3773 54.485 47.4141L54.4274 47.4141C54.4274 47.4141 54.4562 47.2125 54.4562 47.0685L54.4562 46.8669C54.4562 45.8589 53.7362 45.1965 52.3826 45.1965L47.9186 45.1965L47.9186 49.3725L49.013 49.3725C49.4162 49.3725 49.6466 49.6029 49.6466 50.0061L49.6466 60.0285ZM76.9814 60.0285L81.647 60.0285L81.647 59.6829C81.647 59.2221 81.6182 58.8477 81.6182 58.8477L81.6758 58.8477C81.6758 58.8477 83.0006 60.3741 85.7366 60.3741C89.6822 60.3741 92.6486 57.3213 92.6486 52.6269C92.6486 48.0189 89.999 44.8509 85.967 44.8509C83.3462 44.8509 81.9638 46.2909 81.9638 46.2909L81.9062 46.2909C81.9062 46.2909 81.9638 45.7725 81.9638 45.0237L81.9638 41.5389C81.9638 40.0701 81.3302 39.4365 79.8614 39.4365L75.2534 39.4365L75.2534 43.6125L76.3478 43.6125C76.751 43.6125 76.9814 43.8429 76.9814 44.2461L76.9814 60.0285ZM81.8198 52.7133C81.8198 50.1501 83.231 49.0557 84.7286 49.0557C86.4566 49.0557 87.6374 50.4957 87.6374 52.7133C87.6374 54.9885 86.2838 56.2557 84.7286 56.2557C82.7702 56.2557 81.8198 54.4989 81.8198 52.7133ZM94.0757 52.6557C94.0757 57.2925 97.7909 60.3741 102.457 60.3741C107.122 60.3741 110.837 57.2925 110.837 52.6557C110.837 47.9901 107.122 44.8509 102.428 44.8509C97.7909 44.8509 94.0757 47.9901 94.0757 52.6557ZM99.0869 52.6557C99.0869 50.4093 100.642 48.9981 102.457 48.9981C104.271 48.9981 105.826 50.4093 105.826 52.6557C105.826 54.8733 104.271 56.2269 102.457 56.2269C100.642 56.2269 99.0869 54.8733 99.0869 52.6557Z" fill="white"/>
<rect x="31.0645" width="65.0549" height="37.0286" rx="7.05306" fill="#7E6EDB"/>
<path d="M39.4071 24.4203C39.4071 24.4203 41.6535 26.8148 45.5539 26.8148C50.1207 26.8148 52.3671 23.7785 52.3671 20.7421C52.3671 17.4836 50.096 14.8916 45.6773 14.8916C45.0355 14.8916 44.4183 14.9904 44.4183 14.9904H44.3689C44.3689 14.9904 44.4183 14.6448 44.443 14.2992L44.5171 13.0896C44.5417 12.744 44.7145 12.5465 45.0601 12.5465H46.7881C47.1337 12.5465 47.3312 12.744 47.3312 13.0896V14.0523H51.2809V10.6457C51.2809 9.3867 50.7379 8.84361 49.4789 8.84361H42.4188C41.1598 8.84361 40.7155 9.3867 40.6167 10.6457L40.0736 18.4464L41.4067 19.1869C41.4067 19.1869 42.7891 18.5204 44.6652 18.5204C46.3191 18.5204 47.899 19.0635 47.899 20.6681C47.899 21.7296 47.0844 22.717 45.5539 22.717C43.1347 22.717 41.4313 21.0137 41.4313 21.0137L39.4071 24.4203ZM61.0657 26.7901C66.0769 26.7901 67.7062 22.6923 67.7062 17.6317C67.7062 12.5712 66.0769 8.54738 61.0657 8.54738C56.0545 8.54738 54.4253 12.5712 54.4253 17.6317C54.4253 22.6923 56.0545 26.7901 61.0657 26.7901ZM61.0657 22.8404C59.3624 22.8404 58.8687 20.52 58.8687 17.6317C58.8687 14.7682 59.3624 12.4971 61.0657 12.4971C62.7691 12.4971 63.2628 14.7682 63.2628 17.6317C63.2628 20.52 62.7691 22.8404 61.0657 22.8404Z" fill="white"/>
<path d="M83.2196 15.7302L77.6514 21.2984M79.0434 13.4101C79.0434 15.4602 77.3814 17.1222 75.3313 17.1222C73.2811 17.1222 71.6191 15.4602 71.6191 13.4101C71.6191 11.3599 73.2811 9.69794 75.3313 9.69794C77.3814 9.69794 79.0434 11.3599 79.0434 13.4101ZM89.2518 23.6185C89.2518 25.6686 87.5898 27.3306 85.5397 27.3306C83.4895 27.3306 81.8275 25.6686 81.8275 23.6185C81.8275 21.5683 83.4895 19.9063 85.5397 19.9063C87.5898 19.9063 89.2518 21.5683 89.2518 23.6185Z" stroke="white" stroke-width="2.6449" stroke-linecap="round" stroke-linejoin="round"/>
</svg>
