<svg width="126" height="72" viewBox="0 0 126 72" fill="none" xmlns="http://www.w3.org/2000/svg">
<rect x="0.257812" y="28.8" width="125.486" height="43.2" rx="8.22857" fill="#2A292E"/>
<path d="M19.7994 60.1715C25.48 60.1715 30.0851 55.5664 30.0851 49.8858C30.0851 44.2051 25.48 39.6 19.7994 39.6C14.1187 39.6 9.51367 44.2051 9.51367 49.8858C9.51367 55.5664 14.1187 60.1715 19.7994 60.1715Z" fill="url(#paint0_linear)"/>
<path d="M14.2238 48.8928C15.6888 46.9996 16.7122 46.9996 18.1773 48.8928C18.3994 49.1791 18.8537 48.9658 18.7591 48.6881C17.5156 45.0278 14.8852 45.0278 13.6416 48.6881C13.5473 48.9658 14.0016 49.1788 14.2238 48.8928Z" fill="#1A1626"/>
<path d="M21.421 48.8928C22.886 46.9996 23.9094 46.9996 25.3745 48.8928C25.5966 49.1791 26.0509 48.9658 25.9563 48.6881C24.7127 45.0278 22.0823 45.0278 20.8388 48.6881C20.7449 48.9658 21.1988 49.1788 21.421 48.8928Z" fill="#1A1626"/>
<path d="M25.6062 51.3696C24.2193 51.1361 22.2636 50.9142 19.7988 50.9142C17.3344 50.9142 15.3784 51.1357 13.9915 51.3696C13.2918 51.4875 12.9102 52.009 12.9434 52.5373C13.1721 56.1106 15.3211 57.4285 19.7988 57.4285C24.2766 57.4285 26.4256 56.1106 26.6539 52.5373C26.6875 52.009 26.3059 51.4875 25.6062 51.3696Z" fill="#1A1626"/>
<path d="M24.9879 52.0619C24.7757 51.9724 23.0847 51.6001 19.8001 51.6001C16.5149 51.6001 14.8246 51.9724 14.612 52.0619C14.457 52.1271 14.2884 52.2471 14.3178 52.5406C14.3556 52.9122 14.5623 53.5362 14.6271 53.7316C14.6868 53.912 14.9124 53.9953 15.0162 53.9963C15.3869 54.0018 24.213 54.0018 24.584 53.9963C24.6879 53.995 24.9135 53.912 24.9731 53.7316C25.0379 53.5366 25.2443 52.9122 25.2824 52.5406C25.3119 52.2471 25.1432 52.1271 24.9879 52.0619Z" fill="url(#paint1_linear)"/>
<path d="M24.3748 54.6891C23.132 54.6891 16.4634 54.6891 15.2205 54.6891C15.1112 54.6891 14.9102 54.8966 15.0405 55.1599C15.4153 55.9152 16.4164 56.7422 19.798 56.7422C23.1796 56.7422 24.1808 55.9152 24.5555 55.1599C24.6854 54.8966 24.4845 54.6891 24.3748 54.6891Z" fill="url(#paint2_linear)"/>
<path d="M42.4079 57.9262C42.4079 59.395 43.0415 60.0286 44.5103 60.0286L49.0031 60.0286C55.4831 60.0286 59.6303 56.1694 59.6303 49.6894C59.6303 43.2094 55.4831 39.4366 49.0031 39.4366L40.5359 39.4366L40.5359 43.7566L42.4079 43.7566L42.4079 57.9262ZM47.5631 55.075L47.5631 43.7566L48.8015 43.7566C52.1135 43.7566 54.2735 45.7726 54.2735 49.6894C54.2735 53.635 52.1999 55.7086 48.8015 55.7086L48.1967 55.7086C47.7935 55.7086 47.5631 55.4782 47.5631 55.075ZM61.1776 52.5982C61.1776 56.5438 64.0288 60.3742 69.328 60.3742C73.2736 60.3742 75.664 58.0126 75.664 58.0126L73.6768 54.6718C73.6768 54.6718 71.8624 56.227 69.7312 56.227C68.1472 56.227 66.6496 55.3918 66.2752 53.5198L75.6352 53.5198C75.6352 53.5198 75.7504 52.5118 75.7504 52.0222C75.7504 47.9038 73.2736 44.851 68.896 44.851C64.1152 44.851 61.1776 48.2494 61.1776 52.5982ZM66.4192 50.4958C66.736 49.4014 67.456 48.595 68.896 48.595C69.9328 48.595 70.6528 49.5742 70.6528 50.4958L66.4192 50.4958ZM77.5202 55.5934C77.5202 58.531 79.7954 60.3742 82.5602 60.3742C85.6706 60.3742 86.7074 58.2142 86.7074 58.2142L86.765 58.2142C86.765 58.2142 86.765 58.3582 86.765 58.4734C86.765 59.1358 87.2834 60.0286 88.7234 60.0286L93.0434 60.0286L93.0434 55.8526L91.949 55.8526C91.5458 55.8526 91.3154 55.6222 91.3154 55.219L91.3154 50.899C91.3154 47.5006 89.6162 44.851 84.4322 44.851C82.733 44.851 78.5282 45.0238 78.5282 48.3358L78.5282 49.9774L83.1362 49.9774L83.1362 49.315C83.1362 48.739 83.7986 48.595 84.4322 48.595C85.6706 48.595 86.333 49.1134 86.333 50.5246L86.333 50.6974L86.1314 50.6974C83.8274 50.6974 77.5202 51.187 77.5202 55.5934ZM82.5314 55.3342C82.5314 54.1534 84.3458 53.7214 85.9298 53.7214L86.3906 53.7214L86.3906 53.9518C86.3906 55.1614 85.2386 56.5726 83.9426 56.5726C82.9634 56.5726 82.5314 56.0254 82.5314 55.3342ZM95.6926 57.9262C95.6926 59.395 96.3262 60.0286 97.795 60.0286L102.403 60.0286L102.403 55.8526L101.309 55.8526C100.905 55.8526 100.675 55.6222 100.675 55.219L100.675 41.539C100.675 40.0702 100.041 39.4366 98.5726 39.4366L93.9646 39.4366L93.9646 43.6126L95.059 43.6126C95.4622 43.6126 95.6926 43.843 95.6926 44.2462L95.6926 57.9262ZM103.587 57.667C103.587 57.667 105.891 60.3742 110.154 60.3742C113.61 60.3742 116.231 58.5598 116.231 55.5646C116.231 50.5822 108.714 50.7838 108.714 49.2574C108.714 48.7966 109.347 48.5662 110.039 48.5662C110.759 48.5662 111.392 48.8542 111.392 49.2574L111.392 49.9774L115.712 49.9774L115.712 48.2206C115.712 45.5422 112.371 44.851 109.952 44.851C106.813 44.851 103.847 46.2334 103.847 49.4302C103.847 54.2398 111.277 54.643 111.277 55.8814C111.277 56.3998 110.874 56.6014 110.154 56.6014C107.879 56.6014 105.805 54.4702 105.805 54.4702L103.587 57.667Z" fill="white"/>
<rect x="17.6074" width="94.2747" height="37.0286" rx="7.05306" fill="#FFC700"/>
<path d="M52.4256 9.96536C52.4256 11.1497 53.26 11.8769 54.2876 11.8769C55.4218 11.8769 56.449 11.0874 56.449 9.79911C56.449 8.6147 55.5715 7.82513 54.5444 7.82513C53.3884 7.82513 52.4256 8.67704 52.4256 9.96536Z" fill="#2A292E"/>
<path d="M52.7251 13.4353V23.1182C52.7251 23.6792 52.8748 23.8039 53.4102 23.8039H55.4645C55.9994 23.8039 56.1491 23.6792 56.1491 23.1182V13.4353C56.1491 12.8744 55.9994 12.7496 55.4645 12.7496H53.4102C52.8748 12.7496 52.7251 12.8744 52.7251 13.4353Z" fill="#2A292E"/>
<path fill-rule="evenodd" clip-rule="evenodd" d="M35.8953 8.63549V20.9364C35.8953 21.4767 35.9595 21.8715 36.1093 22.5364L36.3019 23.2844C36.3875 23.6792 36.2591 23.8039 35.9595 23.8039H33.5413C33.1989 23.8039 33.0277 23.7416 32.9421 23.3883L32.7281 22.6195C31.7222 23.7415 30.4597 24.074 29.1328 24.074C26.6289 24.074 24.6602 22.8688 24.6602 18.7131C24.6602 14.4119 26.7788 12.5003 29.7534 12.5003C30.8876 12.5003 31.7651 12.7704 32.4499 13.2899H32.4713V8.63549C32.4713 8.07445 32.6211 7.94979 33.1561 7.94979H35.2105C35.7455 7.94979 35.8953 8.07445 35.8953 8.63549ZM28.234 18.5884C28.234 20.2923 28.8332 21.1026 30.1386 21.1026C31.5296 21.1026 32.3215 20.1676 32.4713 18.4014V16.0119C32.1289 15.7418 31.337 15.4716 30.5666 15.4716C28.983 15.4716 28.234 16.656 28.234 18.5884Z" fill="#2A292E"/>
<path fill-rule="evenodd" clip-rule="evenodd" d="M42.3198 12.5003C38.6175 12.5003 36.7129 14.8899 36.7129 18.3183C36.7129 21.5598 38.4035 23.9493 42.919 23.9493C45.0377 23.9493 46.4714 23.4091 46.7927 23.2636C47.1565 23.0974 47.2631 22.9519 47.2631 22.5987V20.7702C47.2631 20.5001 47.1778 20.417 46.985 20.417C46.8456 20.417 46.6609 20.4825 46.4477 20.5581C46.3667 20.5868 46.2816 20.6169 46.1933 20.6455C45.2945 20.9364 44.1816 21.1026 43.0902 21.1026C41.2926 21.1026 40.458 20.6455 40.1583 19.565C40.9716 19.8144 41.8062 19.9183 42.7478 19.9183C44.417 19.9183 47.2631 19.5442 47.2631 16.4898C47.2631 14.3704 45.9365 12.5003 42.3198 12.5003ZM42.3198 15.1184C43.347 15.1184 44.0532 15.5132 44.0532 16.3236C44.0532 17.1339 43.347 17.3833 42.3198 17.3833C41.6778 17.3833 40.886 17.3001 40.137 17.1547C40.4366 15.7833 41.2498 15.1184 42.3198 15.1184Z" fill="#2A292E"/>
<path d="M51.5715 8.63549C51.5715 8.07445 51.4005 7.94979 50.8869 7.94979H48.8326C48.2972 7.94979 48.1475 8.07445 48.1475 8.63549V23.1182C48.1475 23.6792 48.2972 23.8039 48.8326 23.8039H50.8869C51.4005 23.8039 51.5715 23.6792 51.5715 23.1182V8.63549Z" fill="#2A292E"/>
<path d="M60.5125 13.4977L62.6739 20.4793L64.8352 13.4977C65.0494 12.7912 65.092 12.7496 65.7553 12.7496H67.9598C68.4947 12.7496 68.6444 12.9159 68.4516 13.4561L64.7068 23.513C64.5998 23.7415 64.5571 23.8039 64.3217 23.8039H61.0261C60.7906 23.8039 60.7261 23.7415 60.6409 23.513L56.8956 13.4561C56.7028 12.9159 56.853 12.7496 57.3879 12.7496H59.5706C60.2339 12.7496 60.2983 12.7912 60.5125 13.4977Z" fill="#2A292E"/>
<path fill-rule="evenodd" clip-rule="evenodd" d="M67.9316 18.3183C67.9316 14.8899 69.8362 12.5003 73.5383 12.5003C77.1551 12.5003 78.4817 14.3704 78.4817 16.4898C78.4817 19.5442 75.6357 19.9183 73.9661 19.9183C73.0247 19.9183 72.1899 19.8144 71.3769 19.565C71.6763 20.6455 72.5111 21.1026 74.3086 21.1026C75.4002 21.1026 76.5131 20.9364 77.4119 20.6455C77.5003 20.6169 77.5854 20.5867 77.6665 20.558C77.8794 20.4824 78.0639 20.417 78.2036 20.417C78.3964 20.417 78.4817 20.5001 78.4817 20.7702V22.5987C78.4817 22.9519 78.3746 23.0974 78.0107 23.2636C77.69 23.4091 76.2564 23.9493 74.1376 23.9493C69.622 23.9493 67.9316 21.5598 67.9316 18.3183ZM75.2718 16.3236C75.2718 15.5132 74.5654 15.1184 73.5383 15.1184C72.4685 15.1184 71.655 15.7833 71.3556 17.1547C72.1046 17.3001 72.8963 17.3833 73.5383 17.3833C74.5654 17.3833 75.2718 17.1339 75.2718 16.3236Z" fill="#2A292E"/>
<path d="M79.313 23.1361V13.4532C79.313 12.8923 79.4627 12.7675 79.9981 12.7675H82.0524C82.566 12.7675 82.737 12.8923 82.737 13.4532V15.3233C83.0151 14.3675 83.8713 12.5182 86.1184 12.5182C86.2622 12.5182 86.4174 12.5292 86.5663 12.5496C86.9111 12.5792 87.3509 12.6454 87.9119 12.7675C87.9302 12.7735 87.9483 12.7792 87.9663 12.7847C87.9771 12.7881 87.9879 12.7913 87.9986 12.7946C88.21 12.8588 88.3982 12.9159 88.5113 13.2455L90.9721 20.3518L93.3476 13.2455C93.476 12.8715 93.5831 12.7675 93.9043 12.7675H96.4935C96.9 12.7675 97.0497 12.9961 96.8574 13.5364L92.7914 24.923C91.5714 28.3515 89.6881 29.2034 87.6765 29.2034C86.9061 29.2034 86.5636 29.1619 86.1784 29.058C85.9003 28.9749 85.815 28.7878 85.815 28.5385L85.8363 26.7515C85.8363 26.336 85.9647 26.2113 86.3068 26.2321C86.33 26.2353 86.3542 26.239 86.3801 26.243C86.522 26.2647 86.7159 26.2944 87.0776 26.2944C87.8906 26.2944 88.7468 25.9412 89.3887 24.7776L85.7684 15.5357C83.5892 15.8104 82.8724 18.2529 82.8317 19.957V23.1361C82.8317 23.6971 82.6607 23.8218 82.0524 23.8218H79.9981C79.4627 23.8218 79.313 23.6971 79.313 23.1361Z" fill="#2A292E"/>
<path d="M100.517 15.8632C100.207 15.8632 99.9884 15.6638 99.9884 15.371C99.9884 15.0783 100.207 14.8789 100.517 14.8789C100.828 14.8789 101.046 15.0783 101.046 15.371C101.046 15.6638 100.828 15.8632 100.517 15.8632Z" fill="#2A292E"/>
<path fill-rule="evenodd" clip-rule="evenodd" d="M97.8915 15.6503C97.8915 14.4222 97.8915 13.8082 98.2306 13.3882C98.3099 13.2899 98.4011 13.2013 98.5022 13.1243C98.9345 12.7953 99.5671 12.7953 100.832 12.7953H101.889C103.153 12.7953 103.786 12.7953 104.218 13.1243C104.32 13.2013 104.411 13.2899 104.49 13.3882C104.829 13.8082 104.829 14.4222 104.829 15.6503C104.829 16.8784 104.829 17.4924 104.49 17.9125C104.411 18.0108 104.32 18.0993 104.218 18.1764C103.786 18.5054 103.153 18.5054 101.889 18.5054H100.832C99.5671 18.5054 98.9345 18.5054 98.5022 18.1764C98.4011 18.0993 98.3099 18.0108 98.2306 17.9125C97.8915 17.4924 97.8915 16.8784 97.8915 15.6503ZM101.046 14.3527V14.5691C100.902 14.3951 100.692 14.2933 100.408 14.2933C99.7877 14.2933 99.3331 14.7855 99.3331 15.371C99.3331 15.9566 99.7877 16.4488 100.408 16.4488C100.692 16.4488 100.902 16.347 101.046 16.173V16.3682C101.046 16.6694 100.858 16.8222 100.553 16.8222C100.264 16.8222 100.137 16.7033 100.054 16.5549L99.4947 16.8688C99.6959 17.2168 100.076 17.3823 100.531 17.3823C101.112 17.3823 101.684 17.081 101.684 16.3682V14.3527H101.046ZM102.646 14.7303V14.3527H101.99V16.4742H102.646V15.5153C102.646 15.0953 103.03 14.9892 103.301 15.0316V14.3103C103.026 14.3103 102.733 14.4461 102.646 14.7303Z" fill="#2A292E"/>
<defs>
<linearGradient id="paint0_linear" x1="19.7996" y1="60.1715" x2="19.7996" y2="39.6002" gradientUnits="userSpaceOnUse">
<stop stop-color="#FF7B00"/>
<stop offset="0.3236" stop-color="#FFAE00"/>
<stop offset="0.6205" stop-color="#FFD600"/>
<stop offset="0.8558" stop-color="#FFEE00"/>
<stop offset="1" stop-color="#FFF700"/>
</linearGradient>
<linearGradient id="paint1_linear" x1="14.3144" y1="52.8001" x2="25.2858" y2="52.8001" gradientUnits="userSpaceOnUse">
<stop stop-color="#CFD7E6"/>
<stop offset="0.0368" stop-color="#DAE0EC"/>
<stop offset="0.1263" stop-color="#EEF1F6"/>
<stop offset="0.2147" stop-color="#FBFCFD"/>
<stop offset="0.3" stop-color="white"/>
<stop offset="0.7" stop-color="white"/>
<stop offset="0.7853" stop-color="#FBFCFD"/>
<stop offset="0.8737" stop-color="#EEF1F6"/>
<stop offset="0.9632" stop-color="#DAE0EC"/>
<stop offset="1" stop-color="#CFD7E6"/>
</linearGradient>
<linearGradient id="paint2_linear" x1="14.9977" y1="55.7156" x2="24.5977" y2="55.7156" gradientUnits="userSpaceOnUse">
<stop stop-color="#CFD7E6"/>
<stop offset="0.0368" stop-color="#DAE0EC"/>
<stop offset="0.1263" stop-color="#EEF1F6"/>
<stop offset="0.2147" stop-color="#FBFCFD"/>
<stop offset="0.3" stop-color="white"/>
<stop offset="0.7" stop-color="white"/>
<stop offset="0.7853" stop-color="#FBFCFD"/>
<stop offset="0.8737" stop-color="#EEF1F6"/>
<stop offset="0.9632" stop-color="#DAE0EC"/>
<stop offset="1" stop-color="#CFD7E6"/>
</linearGradient>
</defs>
</svg>
