<svg width="92" height="72" viewBox="0 0 92 72" fill="none" xmlns="http://www.w3.org/2000/svg">
<rect x="0.291016" y="28.8" width="89.4857" height="43.2" rx="8.22857" fill="#80CC6D"/>
<path d="M9.23283 49.603C9.23283 55.651 13.7832 60.3742 20.004 60.3742C26.2248 60.3742 30.7752 55.651 30.7752 49.603C30.7752 43.699 26.2248 39.091 20.004 39.091C13.7832 39.091 9.23283 43.699 9.23283 49.603ZM14.5896 49.603C14.5896 46.3198 17.0088 43.843 20.004 43.843C22.9992 43.843 25.4184 46.3198 25.4184 49.603C25.4184 53.0302 22.9992 55.6222 20.004 55.6222C17.0088 55.6222 14.5896 53.0302 14.5896 49.603ZM33.7387 60.0286L38.7211 60.0286L38.7211 49.0846L44.3083 49.0846L44.3083 60.0286L49.2907 60.0286L49.2907 49.0846L52.0267 49.0846L52.0267 45.1966L49.2907 45.1966L49.2907 45.1102C49.2907 43.7566 50.8171 43.555 51.7963 43.555C52.2571 43.555 52.6027 43.6126 52.6027 43.6126L52.6027 39.4078C52.6027 39.4078 51.9979 39.3214 51.1051 39.3214C48.7147 39.3214 44.3083 39.9838 44.3083 44.851L44.3083 45.1966L38.7211 45.1966L38.7211 45.1102C38.7211 43.7566 40.2475 43.555 41.2267 43.555C41.6875 43.555 42.0331 43.6126 42.0331 43.6126L42.0331 39.4078C42.0331 39.4078 41.4283 39.3214 40.5355 39.3214C38.1451 39.3214 33.7387 39.9838 33.7387 44.851L33.7387 45.1966L31.9243 45.1966L31.9243 49.0846L33.7387 49.0846L33.7387 60.0286ZM52.996 52.5982C52.996 56.5438 55.8472 60.3742 61.1464 60.3742C65.092 60.3742 67.4824 58.0126 67.4824 58.0126L65.4952 54.6718C65.4952 54.6718 63.6808 56.227 61.5496 56.227C59.9656 56.227 58.468 55.3918 58.0936 53.5198L67.4536 53.5198C67.4536 53.5198 67.5688 52.5118 67.5688 52.0222C67.5688 47.9038 65.092 44.851 60.7144 44.851C55.9336 44.851 52.996 48.2494 52.996 52.5982ZM58.2376 50.4958C58.5544 49.4014 59.2744 48.595 60.7144 48.595C61.7512 48.595 62.4712 49.5742 62.4712 50.4958L58.2376 50.4958ZM70.8075 60.0286L75.7899 60.0286L75.7899 54.4126C75.7899 53.6062 75.8763 52.9438 76.0491 52.3966C76.7691 50.179 78.6987 49.8046 79.8795 49.8046C80.4843 49.8046 80.8875 49.891 80.8875 49.891L80.8875 44.995C80.8875 44.995 80.5995 44.9374 80.3115 44.9374C78.0939 44.9374 76.2219 46.6078 75.5883 48.6238L75.5307 48.6238C75.5307 48.6238 75.5883 48.3358 75.5883 47.875L75.5883 47.0974C75.5883 45.7438 74.8395 45.1966 73.4859 45.1966L69.0795 45.1966L69.0795 49.3726L70.1739 49.3726C70.5771 49.3726 70.8075 49.603 70.8075 50.0062L70.8075 60.0286Z" fill="white"/>
<rect x="29.0918" width="35.9949" height="37.0286" rx="7.05306" fill="#F6F7F9"/>
<path d="M50.5451 15.0582L43.6328 21.9704M45.3609 12.1781C45.3609 14.7231 43.2977 16.7862 40.7527 16.7862C38.2077 16.7862 36.1445 14.7231 36.1445 12.1781C36.1445 9.63303 38.2077 7.56989 40.7527 7.56989C43.2977 7.56989 45.3609 9.63303 45.3609 12.1781ZM58.0333 24.8505C58.0333 27.3955 55.9702 29.4587 53.4252 29.4587C50.8801 29.4587 48.817 27.3955 48.817 24.8505C48.817 22.3055 50.8801 20.2424 53.4252 20.2424C55.9702 20.2424 58.0333 22.3055 58.0333 24.8505Z" stroke="#2A292E" stroke-width="3.28332" stroke-linecap="round" stroke-linejoin="round"/>
</svg>
