<svg width="126" height="72" viewBox="0 0 126 72" fill="none" xmlns="http://www.w3.org/2000/svg">
<rect x="0.257812" y="28.8" width="125.486" height="43.2" rx="8.22857" fill="#F05641"/>
<g clip-path="url(#clip0)">
<path d="M27.5652 45.0414C27.1193 47.1695 25.342 47.7024 25.342 47.7024C25.342 47.7024 24.8968 41.5571 19.7681 38.6426C19.9709 41.7421 17.0423 43.2915 15.7624 45.9036C15.4175 43.9342 14.2574 42.2339 12.1497 41.0931C12.6918 43.1901 11.2775 44.8375 10.2835 48.4939C7.76022 57.7753 13.3837 60.8451 19.6504 60.8451C30.3416 60.8451 31.5224 50.7641 27.5652 45.0414Z" fill="url(#paint0_linear)"/>
<path d="M27.6093 47.7889C26.228 50.0314 24.3537 50.0373 24.3537 50.0373C24.3537 50.0373 23.9034 45.2882 20.6329 41.6758C19.679 45.7567 16.4796 45.891 15.0124 49.7439C14.4607 48.0787 15.2503 46.4586 13.2314 43.8991C13.8334 47.1676 11.7679 48.5864 11.2502 52.2557C10.5834 56.9885 15.0357 60.8451 19.6483 60.8451C27.6497 60.8451 30.0424 53.1453 27.6093 47.7889Z" fill="url(#paint1_linear)"/>
<path d="M19.6499 60.8452C15.2238 60.8452 10.7152 55.0943 13.3469 49.513C13.6171 51.8953 15.4869 52.057 15.4869 52.057C16.8161 47.4545 19.8523 47.2928 20.9387 44.3942C22.6502 47.2931 23.3691 52.356 23.3691 52.356C23.3691 52.356 25.1057 52.2424 26.6081 50.7005C27.5847 55.0947 25.0225 60.8452 19.6499 60.8452Z" fill="url(#paint2_linear)"/>
<path d="M19.7777 60.1052C16.2834 60.1052 13.913 55.9193 14.1535 53.8378C14.1535 53.8378 16.7327 56.683 16.7926 54.0731C16.8418 51.9184 18.0134 49.351 20.919 47.4316C20.3106 49.9753 22.3044 51.3593 21.958 54.8325C21.958 54.8325 23.2513 55.4719 24.4332 53.9303C25.3317 56.2556 23.9585 60.1052 19.7777 60.1052Z" fill="url(#paint3_linear)"/>
</g>
<path d="M42.4079 57.9262C42.4079 59.395 43.0415 60.0286 44.5103 60.0286L49.0031 60.0286C55.4831 60.0286 59.6303 56.1694 59.6303 49.6894C59.6303 43.2094 55.4831 39.4366 49.0031 39.4366L40.5359 39.4366L40.5359 43.7566L42.4079 43.7566L42.4079 57.9262ZM47.5631 55.075L47.5631 43.7566L48.8015 43.7566C52.1135 43.7566 54.2735 45.7726 54.2735 49.6894C54.2735 53.635 52.1999 55.7086 48.8015 55.7086L48.1967 55.7086C47.7935 55.7086 47.5631 55.4782 47.5631 55.075ZM61.1776 52.5982C61.1776 56.5438 64.0288 60.3742 69.328 60.3742C73.2736 60.3742 75.664 58.0126 75.664 58.0126L73.6768 54.6718C73.6768 54.6718 71.8624 56.227 69.7312 56.227C68.1472 56.227 66.6496 55.3918 66.2752 53.5198L75.6352 53.5198C75.6352 53.5198 75.7504 52.5118 75.7504 52.0222C75.7504 47.9038 73.2736 44.851 68.896 44.851C64.1152 44.851 61.1776 48.2494 61.1776 52.5982ZM66.4192 50.4958C66.736 49.4014 67.456 48.595 68.896 48.595C69.9328 48.595 70.6528 49.5742 70.6528 50.4958L66.4192 50.4958ZM77.5202 55.5934C77.5202 58.531 79.7954 60.3742 82.5602 60.3742C85.6706 60.3742 86.7074 58.2142 86.7074 58.2142L86.765 58.2142C86.765 58.2142 86.765 58.3582 86.765 58.4734C86.765 59.1358 87.2834 60.0286 88.7234 60.0286L93.0434 60.0286L93.0434 55.8526L91.949 55.8526C91.5458 55.8526 91.3154 55.6222 91.3154 55.219L91.3154 50.899C91.3154 47.5006 89.6162 44.851 84.4322 44.851C82.733 44.851 78.5282 45.0238 78.5282 48.3358L78.5282 49.9774L83.1362 49.9774L83.1362 49.315C83.1362 48.739 83.7986 48.595 84.4322 48.595C85.6706 48.595 86.333 49.1134 86.333 50.5246L86.333 50.6974L86.1314 50.6974C83.8274 50.6974 77.5202 51.187 77.5202 55.5934ZM82.5314 55.3342C82.5314 54.1534 84.3458 53.7214 85.9298 53.7214L86.3906 53.7214L86.3906 53.9518C86.3906 55.1614 85.2386 56.5726 83.9426 56.5726C82.9634 56.5726 82.5314 56.0254 82.5314 55.3342ZM95.6926 57.9262C95.6926 59.395 96.3262 60.0286 97.795 60.0286L102.403 60.0286L102.403 55.8526L101.309 55.8526C100.905 55.8526 100.675 55.6222 100.675 55.219L100.675 41.539C100.675 40.0702 100.041 39.4366 98.5726 39.4366L93.9646 39.4366L93.9646 43.6126L95.059 43.6126C95.4622 43.6126 95.6926 43.843 95.6926 44.2462L95.6926 57.9262ZM103.587 57.667C103.587 57.667 105.891 60.3742 110.154 60.3742C113.61 60.3742 116.231 58.5598 116.231 55.5646C116.231 50.5822 108.714 50.7838 108.714 49.2574C108.714 48.7966 109.347 48.5662 110.039 48.5662C110.759 48.5662 111.392 48.8542 111.392 49.2574L111.392 49.9774L115.712 49.9774L115.712 48.2206C115.712 45.5422 112.371 44.851 109.952 44.851C106.813 44.851 103.847 46.2334 103.847 49.4302C103.847 54.2398 111.277 54.643 111.277 55.8814C111.277 56.3998 110.874 56.6014 110.154 56.6014C107.879 56.6014 105.805 54.4702 105.805 54.4702L103.587 57.667Z" fill="white"/>
<rect x="22.002" width="86.1061" height="37.0286" rx="7.05306" fill="white"/>
<path d="M29.8504 24.5833C29.8504 24.5833 32.1461 27.4962 36.2933 27.4962C40.2677 27.4962 42.5635 24.9783 42.5635 22.0407C42.5635 16.2396 34.5653 16.5358 34.5653 14.3881C34.5653 13.5735 35.4787 13.2032 36.3674 13.2032C37.182 13.2032 38.0954 13.5982 38.0954 14.24V15.0053H42.0451V13.0798C42.0451 10.389 38.7619 9.2535 36.4168 9.2535C32.9114 9.2535 30.1219 11.3765 30.1219 14.5609C30.1219 20.0905 38.1201 20.3127 38.1201 22.2629C38.1201 23.2503 37.2314 23.5712 36.3427 23.5712C34.121 23.5712 32.2942 21.4976 32.2942 21.4976L29.8504 24.5833ZM45.3314 22.7319C45.3314 26.3113 47.3309 27.4962 49.8489 27.4962C51.5522 27.4962 53.1074 26.6569 53.7986 25.2992H53.848C53.848 25.2992 53.8233 25.472 53.8233 25.5954V25.7682C53.8233 26.6322 54.4651 27.2 55.6253 27.2H59.4022V23.6206H58.4642C58.1186 23.6206 57.9211 23.4231 57.9211 23.0775V14.4869H53.6505V20.1152C53.6505 22.016 52.7865 23.6206 50.9597 23.6206C50.071 23.6206 49.602 23.1269 49.602 21.942V16.2889C49.602 15.03 49.0589 14.4869 47.8 14.4869H43.8502V18.0663H44.7883C45.1339 18.0663 45.3314 18.2638 45.3314 18.6094V22.7319ZM61.8218 32.1372H66.0925V27.4962C66.0925 26.8544 66.0431 26.4101 66.0431 26.4101H66.0925C66.0925 26.4101 67.2527 27.4962 69.3263 27.4962C72.7082 27.4962 75.2509 24.8796 75.2509 20.8558C75.2509 16.9061 72.9798 14.1906 69.5238 14.1906C66.833 14.1906 65.7222 15.8199 65.7222 15.8199H65.6728C65.6728 15.8199 65.6728 15.7458 65.6728 15.5977C65.6728 15.0546 65.2531 14.4869 64.0189 14.4869H60.3407V18.0663H61.2787C61.6243 18.0663 61.8218 18.2638 61.8218 18.6094V32.1372ZM65.969 20.9298C65.969 18.7328 67.1786 17.7948 68.4623 17.7948C69.9434 17.7948 70.9555 19.029 70.9555 20.9298C70.9555 22.88 69.7953 23.9662 68.4623 23.9662C66.7837 23.9662 65.969 22.4604 65.969 20.9298ZM76.4959 20.8311C76.4959 24.213 78.9398 27.4962 83.482 27.4962C86.8639 27.4962 88.9128 25.472 88.9128 25.472L87.2095 22.6085C87.2095 22.6085 85.6543 23.9415 83.8276 23.9415C82.4699 23.9415 81.1862 23.2256 80.8653 21.621H88.8882C88.8882 21.621 88.9869 20.757 88.9869 20.3374C88.9869 16.8073 86.8639 14.1906 83.1117 14.1906C79.0139 14.1906 76.4959 17.1036 76.4959 20.8311ZM80.9887 19.029C81.2603 18.091 81.8774 17.3998 83.1117 17.3998C84.0004 17.3998 84.6175 18.2391 84.6175 19.029H80.9887ZM91.7629 27.2H96.0335V22.3863C96.0335 21.6951 96.1076 21.1273 96.2557 20.6583C96.8728 18.7575 98.5268 18.4366 99.5389 18.4366C100.057 18.4366 100.403 18.5106 100.403 18.5106V14.3141C100.403 14.3141 100.156 14.2647 99.9092 14.2647C98.0084 14.2647 96.4038 15.6965 95.8607 17.4245H95.8113C95.8113 17.4245 95.8607 17.1776 95.8607 16.7826V16.1161C95.8607 14.9559 95.2189 14.4869 94.0587 14.4869H90.2817V18.0663H91.2198C91.5654 18.0663 91.7629 18.2638 91.7629 18.6094V27.2Z" fill="#2A292E"/>
<defs>
<linearGradient id="paint0_linear" x1="19.6572" y1="60.8451" x2="19.6572" y2="38.6428" gradientUnits="userSpaceOnUse">
<stop stop-color="#FF7B00"/>
<stop offset="0.2417" stop-color="#FB6B00"/>
<stop offset="0.7114" stop-color="#F04200"/>
<stop offset="1" stop-color="#E82500"/>
</linearGradient>
<linearGradient id="paint1_linear" x1="19.8506" y1="60.8451" x2="19.8506" y2="41.6761" gradientUnits="userSpaceOnUse">
<stop stop-color="#FFAA00"/>
<stop offset="0.1749" stop-color="#FFA400"/>
<stop offset="0.4181" stop-color="#FF9200"/>
<stop offset="0.7014" stop-color="#FF7400"/>
<stop offset="1" stop-color="#FF4D00"/>
</linearGradient>
<linearGradient id="paint2_linear" x1="19.6894" y1="60.8452" x2="19.6894" y2="44.3944" gradientUnits="userSpaceOnUse">
<stop stop-color="#FFB500"/>
<stop offset="0.0869" stop-color="#FFBA00"/>
<stop offset="0.6742" stop-color="#FFDA00"/>
<stop offset="1" stop-color="#FFE600"/>
</linearGradient>
<linearGradient id="paint3_linear" x1="19.4163" y1="60.1052" x2="19.4163" y2="47.4318" gradientUnits="userSpaceOnUse">
<stop offset="0.2424" stop-color="#FFF2AB"/>
<stop offset="0.3596" stop-color="#FFF1A5"/>
<stop offset="0.5236" stop-color="#FFEF92"/>
<stop offset="0.7153" stop-color="#FFEC74"/>
<stop offset="0.9263" stop-color="#FFE74B"/>
<stop offset="1" stop-color="#FFE53B"/>
</linearGradient>
<clipPath id="clip0">
<rect width="22.6286" height="22.6286" fill="white" transform="translate(8.48633 38.5715)"/>
</clipPath>
</defs>
</svg>
