<svg width="90" height="72" viewBox="0 0 90 72" fill="none" xmlns="http://www.w3.org/2000/svg">
<rect x="0.257812" y="28.8" width="89.4857" height="43.2" rx="8.22857" fill="#2A9D8F"/>
<path d="M9.19963 49.603C9.19963 55.651 13.75 60.3742 19.9708 60.3742C26.1916 60.3742 30.742 55.651 30.742 49.603C30.742 43.699 26.1916 39.091 19.9708 39.091C13.75 39.091 9.19963 43.699 9.19963 49.603ZM14.5564 49.603C14.5564 46.3198 16.9756 43.843 19.9708 43.843C22.966 43.843 25.3852 46.3198 25.3852 49.603C25.3852 53.0302 22.966 55.6222 19.9708 55.6222C16.9756 55.6222 14.5564 53.0302 14.5564 49.603ZM33.7055 60.0286L38.6879 60.0286L38.6879 49.0846L44.2751 49.0846L44.2751 60.0286L49.2575 60.0286L49.2575 49.0846L51.9935 49.0846L51.9935 45.1966L49.2575 45.1966L49.2575 45.1102C49.2575 43.7566 50.7839 43.555 51.7631 43.555C52.2239 43.555 52.5695 43.6126 52.5695 43.6126L52.5695 39.4078C52.5695 39.4078 51.9647 39.3214 51.0719 39.3214C48.6815 39.3214 44.2751 39.9838 44.2751 44.851L44.2751 45.1966L38.6879 45.1966L38.6879 45.1102C38.6879 43.7566 40.2143 43.555 41.1935 43.555C41.6543 43.555 41.9999 43.6126 41.9999 43.6126L41.9999 39.4078C41.9999 39.4078 41.3951 39.3214 40.5023 39.3214C38.1119 39.3214 33.7055 39.9838 33.7055 44.851L33.7055 45.1966L31.8911 45.1966L31.8911 49.0846L33.7055 49.0846L33.7055 60.0286ZM52.9628 52.5982C52.9628 56.5438 55.814 60.3742 61.1132 60.3742C65.0588 60.3742 67.4492 58.0126 67.4492 58.0126L65.462 54.6718C65.462 54.6718 63.6476 56.227 61.5164 56.227C59.9324 56.227 58.4348 55.3918 58.0604 53.5198L67.4204 53.5198C67.4204 53.5198 67.5356 52.5118 67.5356 52.0222C67.5356 47.9038 65.0588 44.851 60.6812 44.851C55.9004 44.851 52.9628 48.2494 52.9628 52.5982ZM58.2044 50.4958C58.5212 49.4014 59.2412 48.595 60.6812 48.595C61.718 48.595 62.438 49.5742 62.438 50.4958L58.2044 50.4958ZM70.7742 60.0286L75.7566 60.0286L75.7566 54.4126C75.7566 53.6062 75.843 52.9438 76.0158 52.3966C76.7358 50.179 78.6654 49.8046 79.8462 49.8046C80.451 49.8046 80.8542 49.891 80.8542 49.891L80.8542 44.995C80.8542 44.995 80.5662 44.9374 80.2782 44.9374C78.0606 44.9374 76.1886 46.6078 75.555 48.6238L75.4974 48.6238C75.4974 48.6238 75.555 48.3358 75.555 47.875L75.555 47.0974C75.555 45.7438 74.8062 45.1966 73.4526 45.1966L69.0462 45.1966L69.0462 49.3726L70.1406 49.3726C70.5438 49.3726 70.7742 49.603 70.7742 50.0062L70.7742 60.0286Z" fill="white"/>
<rect x="17.5215" width="59.0694" height="37.0286" rx="7.05306" fill="#F6F7F9"/>
<path d="M26.5656 26.4939H38.4148V22.791H34.6872V8.84361H30.7622L25.9979 13.3117L28.4911 15.9778L29.5526 15.015C30.0216 14.5707 30.2438 14.077 30.2438 14.077H30.2932C30.2932 14.077 30.2685 14.7682 30.2685 15.4347V22.791H26.5656V26.4939ZM40.3181 21.0137H45.3787V26.4939H48.7359V21.0137H53.7965V17.8045H48.7359V12.2996H45.3787V17.8045H40.3181V21.0137ZM56.4103 26.4939H68.2594V22.791H64.5319V8.84361H60.6069L55.8425 13.3117L58.3358 15.9778L59.3973 15.015C59.8663 14.5707 60.0885 14.077 60.0885 14.077H60.1378C60.1378 14.077 60.1131 14.7682 60.1131 15.4347V22.791H56.4103V26.4939Z" fill="#2A292E"/>
</svg>
